<?xml version="1.0" encoding="UTF-8"?>
<svg width="1024px" height="768px" viewBox="0 0 1024 768" version="1.1" xmlns="http://www.w3.org/2000/svg" xmlns:xlink="http://www.w3.org/1999/xlink">
    <title>Background_05</title>
    <defs>
        <polygon id="path-1" points="0 0.0818049261 2136.77715 0.0818049261 2136.77715 427.614874 0 427.614874"></polygon>
    </defs>
    <g id="Background_05" stroke="none" stroke-width="1" fill="none" fill-rule="evenodd">
        <g id="Sky" transform="translate(-1054.000000, 0.000000)">
            <path d="M1747.64749,766.600427 C1751.29198,766.434863 1754.79257,766.904895 1758.15191,768 L2138,768 L2138,18.0968437 C2137.00466,12.7946016 2136.2328,7.42360857 2135.72087,2 L1,2 L1,768 L1738.2969,768 C1741.38967,767.229007 1744.5335,766.768095 1747.64749,766.600427" id="Fill-1" fill="#A1F4F3"></path>
            <path d="M2093.43235,663.189441 C2067.82894,646.239978 2042.09162,629.574173 2016.04472,613.626969 C2002.51313,605.341343 1988.90929,597.214006 1975.17353,589.427058 C1968.93343,585.888682 1962.6708,582.405638 1956.36375,579.04236 C1954.93383,578.280335 1953.50125,577.521111 1952.06668,576.76819 C1951.07031,576.280718 1949.69939,575.611845 1948.9768,575.288264 C1937.06408,569.944981 1925.22957,564.650025 1912.90319,560.804177 C1908.28593,559.364173 1903.63022,558.095065 1898.94468,557.020665 C1898.80083,556.987747 1898.4223,556.895995 1897.9145,556.772727 C1900.23804,557.439499 1892.22662,555.806187 1891.28063,555.710934 C1880.1475,554.589608 1868.94874,554.614121 1857.80501,555.509922 C1854.47448,555.777471 1851.15059,556.136071 1847.83067,556.550002 C1846.9934,556.65436 1845.64833,556.740509 1844.40336,556.800042 C1839.41685,557.392573 1834.23743,559.165262 1829.46638,560.544332 C1818.92723,563.591734 1809.29893,567.908244 1798.19033,568.163886 C1786.68199,568.427934 1774.99599,565.317497 1763.72232,562.592276 C1737.06221,556.147978 1712.00969,543.100393 1687.51734,529.174518 C1677.24733,523.334658 1667.09069,517.207637 1656.77627,511.479138 C1654.14911,510.020224 1651.49609,508.632049 1648.86362,507.189944 C1648.59845,507.078581 1648.32003,506.960215 1648.01508,506.830643 C1643.23143,504.794606 1638.51672,502.556857 1633.67208,500.724634 C1627.52612,498.399336 1621.292,496.40182 1614.97699,494.863061 C1614.62299,494.776913 1610.15622,494.09053 1608.15551,493.708817 C1606.31988,493.566638 1604.59827,493.426559 1604.47629,493.418155 C1591.79988,492.577685 1579.05784,493.03434 1566.4265,494.517068 C1565.42748,494.62773 1564.42978,494.750298 1563.43142,494.87847 C1563.11056,494.940104 1562.72474,495.012945 1562.26865,495.098393 C1558.66434,496.020107 1554.98246,496.593728 1551.36556,497.462212 C1545.56962,498.85459 1539.80683,500.450081 1534.08249,502.218568 C1521.15616,506.212198 1508.43334,511.120538 1495.91073,516.662032 C1491.7184,518.516668 1487.5811,520.537996 1483.40667,522.446562 C1482.39505,522.90882 1479.48151,524.385244 1479.00685,524.618474 C1474.20398,527.120271 1469.41369,529.678099 1464.70893,532.42083 C1454.39783,538.432287 1444.49044,545.576976 1434.76139,552.842832 C1392.73671,584.232258 1354.31635,622.639601 1310.17629,649.89812 C1266.49298,676.874381 1221.17689,689.773483 1172.26776,691.967108 C1133.69227,693.697774 1095.07834,689.40928 1056.74747,684.643819 C1016.70228,679.66544 976.694883,673.748536 936.461426,671.405728 C916.727536,670.257087 896.936634,669.966425 877.203406,671.299269 C871.497629,671.684484 865.797154,672.199271 860.109938,672.87865 C858.771497,673.03904 857.003481,673.466979 855.407825,673.913128 C848.677169,676.183095 851.537018,674.995232 855.407825,673.913128 C856.219906,673.639275 857.172526,673.314994 858.279608,672.933981 C849.6868,675.891733 840.26998,676.528388 831.520723,679.065905 C822.353824,681.724589 813.302937,684.973003 804.455567,688.900096 C802.778372,689.644611 800.959312,690.822669 799.179363,691.569986 C796.395087,693.185788 793.60153,694.775676 790.86631,696.52035 C786.04023,699.599269 781.320882,702.920523 776.726826,706.47851 C773.93592,708.639917 769.491022,713.959387 766.244025,715.510753 C765.457799,716.304296 764.672235,717.09994 763.901918,717.915896 C759.964819,722.089526 756.167596,726.458565 752.519531,730.997099 C748.741533,735.698124 745.273783,740.675803 741.693337,745.587645 C741.199459,746.265624 740.527255,747.26298 739.977029,748.093644 C738.385351,750.55832 738.980656,749.599485 739.977029,748.093644 C740.661166,747.033953 741.747696,745.343209 743.383127,742.787482 C739.912063,748.214112 736.716774,753.102141 733.256979,758.257719 C732.444898,759.468695 725.121589,768.778993 731.231086,761.172046 C732.27519,759.87142 732.919551,759.061768 733.279518,758.605113 C733.707767,758.049003 733.840351,757.894916 733.279518,758.605113 C732.639135,759.437178 731.347761,761.158038 730.759748,762.191816 C729.845578,763.799913 728.922126,765.399606 728,767 L1738.41391,767 C1741.50578,766.23027 1744.64804,765.770113 1747.76112,765.60272 C1751.40521,765.437428 1754.90478,765.90669 1758.26248,767 L2138,767 L2138,693.795829 C2123.13992,683.416734 2108.32558,673.048845 2093.43235,663.189441" id="Fill-5" fill="#AEF9F8"></path>
            <path d="M2137,5 L2136.96284,1 L1,1 L1,1.00067556 L2136.55479,1.00067556 C2136.6855,2.33693633 2136.83545,3.67049485 2137,5" id="Fill-12" fill="#87EFF4"></path>
            <path d="M2136.16516,5.1596222 C2136.00071,3.77682887 2135.85084,2.38981971 2135.72021,1 L1.40781633,1 C1.28712922,2.74394971 1.1492011,4.48368359 1,6.21920164 L1,360.519238 C21.193871,372.714239 41.5813718,384.062559 61.9781563,395.33359 C172.342538,456.318429 285.799693,508.873007 397.644813,565.093955 C472.989377,602.966893 558.484921,666.600681 635.849336,599.857014 C672.204007,568.493322 668.652357,478.563976 715.671259,496.427165 C812.150656,533.081025 920.548236,578.60008 1016.86517,552.884902 C1174.00177,510.931739 1286.65788,292.829116 1458.43609,339.105616 C1496.42402,349.339551 1546.16236,395.462173 1585.01631,378.141422 C1600.65789,371.166325 1616.88566,333.36084 1634.71884,337.166332 C1634.73012,337.16844 1634.74205,337.171251 1634.75332,337.173359 C1768.39507,366.602686 2096.4465,590.915934 2138,597.683049 L2138,213.3719 L2136.16516,5.1596222 Z" id="Fill-14" fill="#87EFF4"></path>
            <path d="M1117,1 L736,1 C745.76935,3.97507242 755.419327,7.53389279 764.975132,11.4722549 C800.812218,26.241289 835.324928,46.425307 872.575921,55.7082371 C873.276906,55.8828686 881.065991,57.5918629 885.248024,58.4769909 C886.329675,58.614302 887.417295,58.7833002 887.758835,58.919907 C889.709256,59.1741085 891.659014,59.4388723 893.612752,59.6634991 C902.559091,60.6908673 911.537264,61.3189773 920.518089,61.6527487 C940.131728,62.3822576 959.867393,61.9491997 979.453179,60.4775071 C983.880589,60.145144 999.581448,56.410988 985.651288,60.2444304 C989.563404,59.1677711 993.667181,58.7396423 997.611794,57.8263479 C1005.85317,55.9187807 1014.01364,53.5204146 1022.06999,50.6833574 C1029.8982,47.9265743 1037.62362,44.7536332 1045.25089,41.2743828 C1046.42406,40.7385177 1054.10637,36.9318333 1054.99371,36.5727121 C1056.4368,35.8051787 1057.80229,35.0770781 1058.42303,34.74049 C1078.16665,24.0147378 1097.4938,12.2855588 1117,1" id="Fill-22" fill="#67EFF4"></path>
            <path d="M1251,72.0824204 C1250.53985,71.9316009 1249.74889,71.9639193 1248.58478,72.3811213 C1248.05709,72.5701354 1247.52883,72.7493559 1247,72.9324939 C1248.09372,73.2008351 1249.6247,72.6181234 1251,72.0824204" id="Fill-24" fill="#A1F4F3"></path>
            <g id="Group-30" transform="translate(1.000000, 0.000000)">
                <mask id="mask-2" fill="white">
                    <use xlink:href="#path-1"></use>
                </mask>
                <g id="Clip-29"></g>
                <path d="M2129.57845,97.8176079 C2125.82295,95.6473878 2111.99047,89.4410365 2126.22675,95.6762023 C2122.84919,94.1968263 2119.54523,92.425089 2116.18093,90.8944092 C2109.40923,87.8126686 2102.56194,84.9797163 2095.65963,82.3554929 C2065.37695,70.8416604 2034.16203,63.3365504 2002.89539,56.9341202 C1985.78414,53.430002 1968.64836,49.9919461 1951.5086,46.7049905 C1948.18143,46.0675586 1944.84564,45.5004059 1941.51914,44.8629741 C1940.75066,44.7153878 1939.69907,44.4209182 1938.81191,44.1398016 C1935.66311,43.649956 1932.41086,43.4475521 1929.38007,43.0307967 C1919.75064,41.708846 1910.10199,40.5935159 1900.44007,39.6897261 C1863.09528,36.1940414 1825.596,35.9129248 1788.18358,37.8554404 C1708.54038,41.9920709 1629.60333,56.0985011 1550.19684,63.7582253 C1509.42675,67.6910463 1468.53466,70.7636506 1427.64987,72.2556768 C1389.33372,73.6542319 1351.05735,69.825424 1312.75844,69.1774502 C1293.27812,68.8471383 1273.75736,69.2898969 1254.36125,71.6477622 C1253.70881,71.7264749 1252.88,71.9288788 1251.99616,72.1418246 C1253.62726,72.4728394 1251.65005,74.0358476 1247.29184,72.767309 C1243.61525,73.5551383 1239.93269,74.2888525 1236.27333,75.1982647 C1227.02781,77.4963928 1217.8771,80.3630791 1208.90342,83.9016342 C1204.27469,85.7274864 1199.71425,87.7712039 1195.18365,89.9217458 C1194.63266,90.1831842 1193.65069,90.5465274 1192.60042,90.972419 C1192.26028,91.2078542 1191.86709,91.4517228 1191.41423,91.6948887 C1184.26128,95.5363468 1177.12491,99.3988887 1170.04954,103.446265 C1154.82731,112.155256 1139.80731,121.366744 1124.60961,130.137582 C1091.82393,149.059539 1057.86267,166.878114 1021.93747,174.874475 C981.666655,183.837877 939.307907,185.198481 898.515939,181.279013 C875.400136,179.058192 852.071496,175.244846 829.624708,168.06302 C811.672714,162.319105 794.314811,154.04233 777.001995,146.012938 C759.220404,137.766383 741.446107,129.424248 723.207014,122.742107 C713.805673,119.297726 704.29294,116.291887 694.650913,113.994462 C692.842784,113.563651 691.025372,113.197496 689.217244,112.768793 C686.816351,112.199532 685.742215,111.907171 685.483627,111.794022 C683.164289,111.668222 680.804505,111.734284 678.764973,111.639408 C673.607132,111.39835 668.431388,111.692117 663.286144,112.184774 C661.875181,112.320412 660.222868,112.706948 658.674654,112.897404 C651.320138,114.624866 644.00209,116.29259 636.725814,118.574554 C620.068088,123.7977 603.786972,130.589477 587.516465,137.316596 C550.304287,152.700701 512.485421,166.707335 472.786817,167.916137 C354.037115,171.52989 255.766941,87.5702056 166.160138,0.0818049261 L-6.63046852e-05,0.0818049261 L-6.63046852e-05,200.047762 C4.89520859,203.134422 9.78385303,206.235138 14.665867,209.350613 C88.8727444,256.705404 161.924594,306.985917 238.597343,348.445693 C244.062838,351.400931 249.552203,354.281674 255.040905,357.171552 C255.519625,357.423151 256.239694,357.807578 256.95048,358.189194 C258.4304,358.927125 259.917614,359.648892 261.393557,360.379795 C270.058916,364.670337 278.768699,368.828754 287.526222,372.836774 C307.753793,382.094646 328.234647,390.554849 348.959502,398.046606 C368.496841,405.108958 388.142256,411.343421 408.198097,415.815283 C417.181056,417.818238 426.177275,419.734751 435.198028,421.471348 C438.867992,422.178357 442.547239,422.81368 446.221845,423.484143 C448.307127,423.777207 450.39042,424.096977 452.477692,424.378094 C471.224678,426.89971 490.172568,428.369949 509.034262,427.215263 C511.973549,427.035348 514.893607,426.73877 517.822285,426.45414 C520.26296,425.868715 526.250273,424.634613 527.332366,424.328196 C530.196728,423.517174 532.99346,422.474232 535.808094,421.479782 C537.404711,420.416458 539.647135,419.059368 539.538395,419.139486 C540.9235,418.129575 542.236333,416.981214 543.563753,415.865884 C545.953374,413.200196 548.466984,410.679283 550.837377,407.983375 C556.497145,401.547211 561.933466,394.832741 567.619756,388.430311 C584.193275,369.770495 602.721456,353.133312 624.836721,345.527703 C664.329117,331.946258 708.534451,345.666153 746.682188,359.298902 C764.047385,365.50455 781.254114,372.372229 798.743301,378.067651 C807.013484,380.76145 815.315494,382.913398 823.703036,384.919165 C824.228833,384.952899 824.842151,384.996472 825.566198,385.054803 C830.759844,385.471559 835.979349,385.633903 841.183604,385.728078 C863.944013,386.141319 886.658672,384.108846 909.239395,380.800104 C910.253857,380.632839 912.429314,380.273713 914.5199,379.897017 C917.4751,379.364301 920.427648,378.811907 923.378206,378.242646 C928.542678,377.246087 933.701183,376.197522 938.852394,375.106087 C950.616834,372.613989 962.348785,369.898403 974.065486,367.10059 C1015.55564,357.193339 1057.32627,347.846212 1098.2157,334.684334 C1108.84037,331.263145 1119.39408,327.503211 1129.7953,323.186665 C1134.02753,321.430389 1138.19876,319.487874 1142.40181,317.636018 C1143.46335,317.167959 1144.27226,316.815861 1144.89022,316.549503 C1146.13742,315.798219 1147.2951,315.069424 1147.72541,314.826258 C1166.34509,304.273142 1183.86213,290.44572 1200.58948,276.069417 C1217.04033,261.929956 1233.04628,247.179769 1251.56982,237.129851 C1278.11291,222.726843 1305.0167,215.550639 1333.9461,212.262278 C1377.61171,207.298462 1421.17654,216.961142 1464.86072,215.292715 C1470.23405,215.0875 1478.36964,216.098114 1483.43333,213.829503 C1482.3088,214.333404 1471.70933,216.264675 1481.24726,214.074074 C1483.73568,213.502002 1486.2347,213.021293 1488.72179,212.432353 C1498.10921,210.21083 1507.3912,207.356793 1516.56909,204.109194 C1535.96122,197.246435 1554.86867,188.555716 1573.62229,179.508682 C1612.19901,160.899467 1650.51185,140.341411 1691.24746,129.476958 C1729.65975,119.232367 1769.84172,114.96572 1809.04569,111.560695 C1889.27303,104.591815 1969.49573,108.320123 2049.11771,121.824964 C2078.61534,126.828137 2107.9366,133.62413 2136.77715,142.550987 L2136.77715,102.16859 C2134.39814,100.680078 2132.00388,99.2189741 2129.57845,97.8176079" id="Fill-28" fill="#A1F4F3" mask="url(#mask-2)"></path>
            </g>
            <path d="M1142,317.984524 C1142.16341,318.093133 1143.01852,317.615841 1144,317 C1142.98604,317.5178 1142.01979,317.997439 1142,317.984524" id="Fill-33" fill="#A1F4F3"></path>
            <path d="M1384.57994,473.434003 C1381.76325,462.887473 1376.14428,451.371252 1367.50335,446.523492 C1358.28072,441.34971 1349.59651,437.515624 1339.15669,438.049687 C1328.34307,438.6026 1320.47075,441.49841 1310.8402,447.195784 C1304.91498,450.701055 1299.25535,456.044481 1295.02211,462.183766 C1288.76898,471.252372 1283.31987,480.931834 1281.32752,492.793625 C1279.55749,500.773858 1279.55749,508.754092 1281.32752,516.734325 C1282.47715,522.593663 1284.69378,527.698331 1287.97807,532.047632 C1290.59803,536.949147 1294.07381,540.815347 1298.40411,543.644835 C1304.20015,547.718377 1310.45131,549.767366 1317.15826,549.792498 C1322.79231,550.522734 1328.4598,549.170471 1334.0086,548.140741 C1338.32972,547.339297 1341.97339,545.462745 1346.02235,543.392115 C1349.88244,541.417826 1353.51496,539.652275 1356.88909,536.649652 C1361.39909,532.636847 1366.16222,528.663136 1369.68129,523.306446 C1370.44334,522.449152 1371.14768,521.549971 1371.81595,520.626355 C1375.56651,517.105028 1378.79178,512.815068 1380.83331,508.131367 C1385.38986,497.681178 1387.67405,485.021433 1384.57994,473.434003" id="Fill-35" fill="#AEF9F8"></path>
            <path d="M1249.98336,572.5 C1249.37709,556.517247 1239.00685,543 1225.0003,543 C1218.59426,543 1211.86502,546.290812 1207.33469,551.640376 C1203.0011,556.756718 1199.73819,565.152071 1200.01657,572.5 C1200.62284,588.483447 1210.99375,602 1225.0003,602 C1231.40566,602 1238.13558,598.709188 1242.66591,593.359624 C1246.99883,588.243282 1250.26241,579.848624 1249.98336,572.5" id="Fill-37" fill="#AEF9F8"></path>
            <path d="M1596.06388,380.166102 C1593.89035,374.658335 1590.44859,370.209212 1586.50617,366.525408 C1578.95577,359.47223 1570.08946,356.863953 1560.91983,355.700499 C1561.13175,349.758018 1560.65294,343.811317 1559.36882,337.946916 C1555.46746,320.132839 1543.51039,304.137099 1528.21886,300.408277 C1524.50889,299.503681 1520.5658,298.790414 1516.75451,299.056306 C1512.98163,299.319385 1509.01735,299.889154 1505.38619,301.284737 C1498.45963,303.947176 1491.48473,308.541203 1486.70058,315.298243 C1482.7469,320.883387 1480.29456,326.056327 1478.30381,333.056046 C1477.71175,335.134648 1477.35347,337.270227 1477.09784,339.442384 C1477.01837,340.117666 1476.9389,340.792244 1476.86075,341.466119 C1471.11235,342.750562 1465.58912,344.84886 1460.44801,348.557283 C1458.24931,350.142788 1456.21751,352.163007 1454.24265,354.098815 C1453.22874,355.092745 1452.26846,356.152797 1451.4274,357.363381 C1447.77835,362.615104 1445.61277,367.074075 1443.68891,373.532161 C1443.27367,374.92493 1443.01341,376.35076 1442.8346,377.812464 C1442.83261,377.827939 1442.83062,377.843414 1442.82864,377.858889 C1436.91732,378.805691 1431.69409,382.45784 1428.57089,388.911003 C1426.86756,392.46186 1426.0106,396.292678 1426,400.40205 C1426.0106,404.512125 1426.86756,408.342943 1428.57089,411.8938 C1429.67553,415.055667 1431.62125,417.813068 1433.43649,420.379842 C1435.27559,422.981085 1437.72263,425.056873 1440.01735,426.977909 C1443.50613,429.898503 1447.87769,431.993988 1452.08369,432.826132 C1455.0175,433.407156 1458.04733,434.02124 1461.04073,433.900955 C1464.3699,433.767306 1467.71431,433.156739 1470.97526,432.360469 C1474.77398,431.432659 1478.42037,429.796508 1482.04226,428.163873 C1482.15484,428.11393 1482.26411,428.059767 1482.37537,428.008418 C1484.32307,428.597882 1486.29197,429.084648 1488.28073,429.451129 C1489.50458,429.676927 1490.7291,429.894986 1491.95493,430.096868 C1493.25429,431.004278 1494.66026,431.745681 1496.17683,432.312636 C1496.79074,432.541247 1497.39936,432.700923 1498.03248,432.826835 C1500.20071,433.258734 1502.48086,433.818656 1504.69943,433.730728 C1507.50144,433.619588 1510.52928,433.232708 1513.20083,432.080508 C1514.95449,431.32363 1516.78034,430.496409 1518.47042,429.418069 C1518.50684,429.411034 1518.54261,429.404704 1518.57903,429.397669 C1522.28768,428.693547 1525.92678,427.58918 1529.48245,426.139434 C1530.21027,425.843295 1530.92087,425.507061 1531.61558,425.13847 C1531.94472,425.559817 1532.27717,425.974131 1532.61691,426.372266 C1534.7017,428.813832 1537.1759,431.218117 1539.77791,432.849345 C1545.68128,436.55003 1552.36809,438.494983 1559.04233,437.891449 C1564.50132,437.398353 1569.79674,436.094918 1575.04778,434.318083 C1581.18956,432.240888 1587.07108,429.211967 1591.6784,423.707716 C1596.97713,417.377652 1599.27517,409.296075 1599.91358,400.523741 C1600.43213,393.419213 1598.54999,386.46592 1596.06388,380.166102" id="Fill-39" fill="#F5F5F5"></path>
            <path d="M1747.83993,766.59768 C1751.48262,766.431791 1754.98149,766.902746 1758.33917,768 L2138,768 L2138,283.086087 C2127.99918,276.927124 2116.95711,278.089047 2107.03516,284.1735 C2098.67275,289.301985 2092.76199,297.269554 2087.27278,306.145996 C2083.39612,312.41391 2080.85764,320.14319 2078.97201,327.544911 C2076.95116,335.474522 2076.22276,344.068391 2075.725,352.281981 C2075.58582,354.572789 2075.52418,356.869923 2075.51821,359.167057 C2072.59332,359.570532 2069.68898,360.178555 2066.88141,360.746513 C2063.70731,361.388979 2060.62733,362.508727 2057.6408,363.948302 C2046.18383,369.471124 2036.59261,376.014582 2027.53162,386.40581 C2023.24934,391.317094 2019.64112,397.190673 2016.22775,402.955298 C2014.11544,406.52401 2012.42997,410.364048 2010.98178,414.379815 C2008.2491,421.958671 2005.56944,429.313296 2004.49506,437.495958 C2003.79648,442.818449 2003.02433,448.338459 2002.92425,453.767793 C2002.87388,456.554158 2003.04554,459.374966 2003.31795,462.182418 C1996.6589,461.842909 1989.81229,463.513743 1983.56551,466.839949 C1979.91619,461.581423 1975.88179,457.310497 1970.80881,452.902502 C1962.13025,445.362307 1949.84081,441.50821 1939.23155,441.922932 C1928.29221,442.349603 1916.64634,445.904959 1907.45081,453.308085 C1902.93788,456.941466 1898.34011,460.999408 1894.80479,466.048464 C1888.80722,474.614918 1885.77496,481.07473 1882.45306,491.527815 C1878.09058,505.253683 1878.51675,520.089458 1880.62774,534.277144 C1881.88703,542.745893 1884.56205,550.492043 1888.06489,557.713114 C1887.92571,557.799573 1887.78586,557.881111 1887.64667,557.968273 C1879.84432,562.857063 1874.15096,570.444354 1869.07598,578.850544 C1864.06596,587.148484 1861.60967,598.10767 1861.37968,608.28732 C1861.34322,609.885754 1861.38365,611.526363 1861.48374,613.184545 C1849.70465,607.683514 1836.07903,607.091657 1824.17335,611.389294 C1818.50982,613.433378 1813.22606,616.342753 1808.34131,619.976837 C1804.05041,609.771881 1797.02153,600.278279 1788.81687,594.506624 C1775.69298,585.275209 1758.56717,585.177503 1745.68521,595.195483 C1736.67923,602.200055 1729.82201,612.367755 1723.96693,623.042962 C1719.34133,631.476566 1715.93526,641.208457 1713.34839,650.76954 C1711.8147,656.437866 1710.78671,662.415476 1710.11067,668.421203 C1704.13496,670.836427 1698.40382,674.055789 1693.12868,677.911994 C1686.01895,683.110068 1678.9039,689.441948 1673.50814,697.14522 C1670.15641,701.929979 1666.63568,707.003637 1664.19198,712.599563 C1662.21554,717.124945 1660.23711,722.132529 1658.99902,727.213919 C1657.75696,727.660272 1656.53013,728.149502 1655.33181,728.696372 C1650.62137,730.845894 1645.83139,733.121237 1641.41457,736.096687 C1640.16852,736.936673 1638.95562,737.847654 1637.78248,738.828927 C1637.3119,739.223263 1636.85458,739.635876 1636.39195,740.043568 C1631.5357,743.511763 1627.67163,748.176323 1624.79911,754.038654 C1622.5211,758.359487 1621.26114,763.01491 1621,768 L1738.49394,768 C1741.58519,767.227494 1744.72748,766.765677 1747.83993,766.59768" id="Fill-43" fill="#F5F5F5"></path>
            <path d="M1253.9887,566.776228 C1253.67419,558.413557 1248.71291,549.261993 1241.62753,546.987319 C1241.14295,540.73866 1238.54544,534.790727 1233.50603,531.966094 C1219.93867,524.362791 1205.50527,520.033152 1190.44349,520 C1175.37449,519.966553 1160.94306,524.270788 1147.35272,531.813671 C1137.67114,537.186927 1136.24894,555.47701 1143.90885,563.624778 C1151.19712,571.377071 1158.96275,576.791523 1167.97525,581.121162 C1175.84199,584.900156 1184.05936,586.582989 1192.44087,587.83327 C1207.23475,590.040658 1222.19344,588.739569 1236.97288,587.030646 C1241.58879,586.496478 1245.619,585.128104 1249.00444,581.097818 C1251.95586,577.585221 1254.17846,571.821295 1253.9887,566.776228" id="Fill-50" fill="#F5F5F5"></path>
            <path d="M1891.95189,253 C1890.99434,245.383895 1890.03614,237.767784 1889.07794,230.151673 C1885.25631,215.591605 1878.35912,202.949072 1868.38833,192.224774 C1862.96028,187.745616 1857.53355,183.265056 1852.10551,178.785899 C1839.55763,171.011221 1826.022,167.099676 1811.49993,167.051264 C1800.42383,166.605033 1790.09117,169.071937 1780.50393,174.453381 C1770.5292,177.920097 1761.89949,183.843894 1754.61219,192.224774 C1746.76665,200.009976 1741.2217,209.229995 1737.97735,219.885534 C1732.94007,230.128519 1730.63028,241.166443 1731.04797,253 L1733.92192,275.848338 C1737.7442,290.408406 1744.64074,303.05094 1754.61219,313.775238 C1760.03958,318.254395 1765.46696,322.734254 1770.89435,327.214113 C1783.44223,334.98879 1796.97786,338.900335 1811.49993,338.948747 C1822.57669,339.394979 1832.90934,336.927373 1842.49659,331.546631 C1852.47066,328.079915 1861.10102,322.156117 1868.38833,313.775238 C1876.23322,305.990036 1881.77882,296.769314 1885.02317,286.114477 C1890.06044,275.871492 1892.37024,264.833569 1891.95189,253" id="Fill-54" fill="#FFFB8A"></path>
        </g>
    </g>
</svg>