<?xml version="1.0" encoding="UTF-8"?>
<svg width="1024px" height="768px" viewBox="0 0 1024 768" version="1.1" xmlns="http://www.w3.org/2000/svg" xmlns:xlink="http://www.w3.org/1999/xlink">
    <title>Background_06</title>
    <defs>
        <polygon id="path-1" points="7.47943327e-05 0.305783435 2420.54288 0.305783435 2420.54288 625.229273 7.47943327e-05 625.229273"></polygon>
        <polygon id="path-3" points="0 0.601297052 2420.54355 0.601297052 2420.54355 171.707553 0 171.707553"></polygon>
        <polygon id="path-5" points="0.239416658 0.23128135 1255.67568 0.23128135 1255.67568 603.829381 0.239416658 603.829381"></polygon>
        <polygon id="path-7" points="0.00029917733 0.317790154 2420.5431 0.317790154 2420.5431 726.941213 0.00029917733 726.941213"></polygon>
    </defs>
    <g id="Background_06" stroke="none" stroke-width="1" fill="none" fill-rule="evenodd">
        <g id="Group-361" transform="translate(-1319.000000, -4.000000)">
            <polygon id="Fill-1" fill="#A1F4F3" points="0 787 2420 787 2420 1 0 1"></polygon>
            <g id="Group-360">
                <g id="Group-4" transform="translate(0.000000, 160.794610)">
                    <mask id="mask-2" fill="white">
                        <use xlink:href="#path-1"></use>
                    </mask>
                    <g id="Clip-3"></g>
                    <path d="M2415.85253,204.893092 C2346.19806,176.230518 2337.52416,108.122409 2245.46132,90.497824 C2064.21894,55.799843 2006.92947,27.3160127 1823.62801,2.95450747 C1716.76636,-10.2059704 1457.53144,30.3434386 1350.06246,22.8504098 C1148.2494,8.77901175 804.209681,23.1256304 601.906718,22.8504098 C460.650889,22.658952 340.435455,-9.04077042 199.972446,6.93398709 C121.855749,18.0475122 112.903616,30.1370232 39.2783185,57.4339649 C25.9903574,63.1679755 12.8938698,69.2534906 7.47943327e-05,75.6867707 L7.47943327e-05,625.229647 L2420.54288,625.229647 L2420.54288,206.145795 C2418.97968,205.728477 2417.34916,205.509347 2415.85253,204.893092" id="Fill-2" fill="#A4F9F8" mask="url(#mask-2)"></path>
                </g>
                <g id="Group-7">
                    <mask id="mask-4" fill="white">
                        <use xlink:href="#path-3"></use>
                    </mask>
                    <g id="Clip-6"></g>
                    <path d="M72.6267928,123.956789 C97.6828942,120.483625 174.949179,103.906075 199.964892,100.082903 C429.237943,65.0371567 498.382312,105.297136 729.252222,108.040366 C954.939632,110.721523 1345.68168,93.3624361 1571.29579,89.0995092 C1849.98172,83.8336727 2153.28545,81.0941813 2420.54355,171.707553 L2420.54355,0.601147476 L0,0.601147476 L0,135.89448 C45.9603694,131.655485 26.8721078,129.892728 72.6267928,123.956789" id="Fill-5" fill="#87EFF4" mask="url(#mask-4)"></path>
                </g>
                <g id="Group-10" transform="translate(1165.295701, 155.559436)">
                    <mask id="mask-6" fill="white">
                        <use xlink:href="#path-5"></use>
                    </mask>
                    <g id="Clip-9"></g>
                    <path d="M659.71451,0.379924008 C553.29115,0.967011305 442.212591,6.71298799 337.584295,19.815879 C265.59101,28.8315954 65.78543,82.6155226 0.239416658,103.690835 L129.575272,603.829381 L1255.67575,603.829381 L1255.67575,49.0408602 C1064.81183,3.24805112 859.760927,-0.722453921 659.71451,0.379924008" id="Fill-8" fill="#FEE2A8" mask="url(#mask-6)"></path>
                </g>
                <g id="Group-13" transform="translate(0.000000, 59.082671)">
                    <mask id="mask-8" fill="white">
                        <use xlink:href="#path-7"></use>
                    </mask>
                    <g id="Clip-12"></g>
                    <path d="M1768.74939,192.245587 C1588.86902,192.190243 1426.98566,175.729363 1250.00058,167.106284 C1238.88614,166.564818 1227.80237,166.139273 1216.74104,165.80497 C1131.15314,131.455502 1044.33187,99.9906142 955.783612,73.8872921 C852.507597,43.4425154 747.007199,20.7846852 639.850107,8.80735648 C531.907674,-3.25822231 421.752825,-5.80625597 316.370603,23.7934141 C288.100589,31.7344242 260.435661,41.4890479 233.380307,52.7169989 C231.238945,53.3773787 229.099827,54.0437414 226.968937,54.7340364 C210.0355,60.2197502 193.439386,66.5191595 177.150676,73.4939062 C111.213488,88.3737646 46.86568,119.917928 0.00029917733,168.619249 L0.00029917733,726.941512 L2420.5431,726.941512 L2420.5431,223.274459 C2226.68816,179.631063 1993.80628,192.313644 1768.74939,192.245587" id="Fill-11" fill="#FCE9C1" mask="url(#mask-8)"></path>
                </g>
                <path d="M1638.53493,266.51557 C1637.71443,266.44153 1636.89543,266.357019 1636.07569,266.273256 C1637.1273,266.136394 1638.17816,266.002523 1639.23126,265.874635 C1639.11533,266.09526 1639.00089,266.316633 1638.89319,266.544737 C1638.77352,266.534267 1638.6546,266.52604 1638.53493,266.51557 M2403.99359,277.608902 C2367.44833,260.743417 2325.91504,261.052293 2287.8537,254.792521 C2250.10425,248.58211 2213.36602,236.892716 2176.28299,226.251104 C2161.17528,221.914885 2147.17378,212.993401 2132.06084,208.826951 C2115.57168,204.282073 2099.46248,202.872316 2082.6345,203.821378 C2057.55222,205.234874 2032.26201,202.6659 2007.23583,205.382955 C1980.34502,208.303434 1953.44898,212.819145 1926.74217,218.026647 C1877.54171,227.61898 1827.48411,225.36262 1778.19913,232.830221 C1762.93361,235.142672 1747.39882,235.485202 1732.24026,238.059411 C1731.06673,238.259096 1729.88947,238.4872 1728.70922,238.731009 C1692.23052,233.758343 1655.37337,234.456116 1619.00762,240.98363 C1607.4691,243.054515 1596.02257,245.483635 1585.80268,253.729033 C1579.71591,258.639626 1578.76902,273.268196 1585.80268,277.815318 C1604.90814,290.167335 1625.62767,293.790075 1646.5095,294.986686 C1652.45565,295.32772 1658.40628,295.564799 1664.35916,295.736064 C1694.33748,305.379253 1725.78177,305.004564 1756.42052,304.386066 C1757.45193,304.365125 1758.4452,304.122812 1759.38387,303.706989 C1783.28215,303.021929 1807.13631,301.635356 1831.05629,301.307784 C1861.88427,300.886727 1892.57911,302.140925 1922.71599,312.248549 C1934.51405,316.204096 1945.39887,323.283546 1953.89102,334.970697 C1964.42804,349.471379 1984.96806,346.817146 1999.17824,348.879056 C2041.33158,354.99673 2081.75716,366.161859 2121.39816,387.400958 C2140.17902,397.462961 2195.87611,448.315191 2168.5515,484.749006 C2162.19174,493.230735 2152.18575,497.226668 2144.61657,503.180556 C2132.37273,512.810283 2121.52531,525.148839 2109.50362,535.173448 C2078.92321,560.673229 2045.40263,584.957703 2011.29716,600.067161 C1986.04136,611.254726 1961.92617,609.948924 1935.8955,611.723648 C1906.20589,613.746669 1876.57686,618.833013 1847.45644,627.22724 C1821.78927,634.625288 1796.33451,644.532479 1772.31656,659.215645 C1753.56936,670.676187 1734.81019,682.47552 1717.19313,697.035285 L1717.19313,755.415694 C1732.49007,760.405563 1747.58431,769.70323 1762.48335,777.842429 L2303.81406,777.842429 C2332.08856,747.520305 2359.96665,713.846174 2394.0624,700.305025 C2402.88962,696.799702 2411.60167,693.732638 2420.15814,690.259475 L2420.15814,285.053319 C2414.76696,282.521739 2409.36008,280.086635 2403.99359,277.608902" id="Fill-17" fill="#FFD392"></path>
                <path d="M2003.61743,155.841089 C1997.35415,156.305523 1990.96373,155.716193 1984.86126,157.560469 C1980.30329,158.938068 1980.29805,165.404255 1984.86126,166.77961 C1991.58003,168.804874 1998.3923,167.813182 2004.96896,165.820825 C2010.27936,164.210635 2009.51796,155.40283 2003.61743,155.841089" id="Fill-19" fill="#C6C3DD"></path>
                <path d="M2058.06322,154.136516 C2056.04826,153.116405 2053.95776,152.275786 2051.93681,151.275868 C2048.43644,149.546017 2045.04377,149.204983 2041.20308,149.239386 C2034.98991,149.295477 2029.12679,151.524165 2023.73187,154.370603 C2020.64286,155.99949 2020.70719,160.831555 2023.73187,162.476895 C2028.56583,165.107944 2033.21729,167.238659 2038.58229,168.604292 C2045.58827,170.387242 2051.81191,168.271484 2058.06322,165.208908 C2062.29134,163.138023 2062.20533,156.233577 2058.06322,154.136516" id="Fill-21" fill="#C6C3DD"></path>
                <path d="M2106.2639,161.811729 C2101.80317,160.146196 2097.64984,158.010993 2092.87796,157.3379 C2087.62441,156.596001 2082.53166,156.838315 2077.28858,157.560768 C2073.23622,158.120184 2072.59897,164.636479 2076.14497,166.298273 C2080.36113,168.271185 2084.52268,170.147621 2088.92583,171.668813 C2094.02157,173.428579 2099.52269,173.024723 2104.78746,172.718839 C2111.2295,172.344898 2112.11656,163.995544 2106.2639,161.811729" id="Fill-23" fill="#C6C3DD"></path>
                <path d="M2063.15566,529.497921 C2058.10929,528.73583 2053.49149,528.426207 2049.09957,527.906429 C2043.55282,527.250536 2036.04496,530.533738 2031.45259,533.266498 C2026.5042,536.211657 2022.03299,540.078207 2017.73531,543.899135 C2015.20203,546.153999 2012.21549,548.571154 2010.48849,551.520052 C2009.99933,552.680765 2009.50868,553.839982 2009.01953,554.999199 C2010.11601,553.006093 2009.85124,553.751732 2008.22596,557.23387 C2007.78542,558.837329 2007.71586,560.303925 2007.84675,561.789219 C2007.82132,562.095102 2007.80487,562.401734 2007.79888,562.706122 C2007.76373,562.884118 2007.71362,563.057626 2007.69118,563.239362 C2006.33665,569.896258 2011.88415,576.570357 2018.98587,574.533874 C2019.34339,574.431414 2019.69417,574.314745 2020.04122,574.190596 C2020.49073,574.163673 2020.94174,574.120295 2021.39649,574.050742 C2023.58273,574.031297 2025.65079,573.572846 2027.92604,572.377731 C2025.81684,573.484596 2026.64705,573.175721 2030.41819,571.448113 C2032.33068,570.328534 2033.75551,568.772192 2035.29777,567.251748 C2038.54758,564.049318 2041.9769,561.039093 2045.54085,558.194898 C2048.70166,555.673788 2051.67324,552.964212 2054.46531,550.04149 C2056.79291,547.60489 2057.72859,546.617686 2059.3621,543.802659 C2059.85125,542.956804 2060.99785,541.737009 2061.93128,540.538902 C2063.05993,539.577874 2064.15492,538.587678 2065.30301,537.631137 C2067.94923,535.422642 2066.67474,530.028918 2063.15566,529.497921" id="Fill-25" fill="#C6C3DD"></path>
                <path d="M1985.51197,578.950192 C1974.23448,575.37756 1963.0602,582.691097 1955.60695,590.302291 C1952.03702,593.947467 1955.58077,601.369447 1960.88444,599.367368 C1969.9151,595.958522 1980.78123,593.618399 1987.3175,585.791067 C1989.30105,583.416542 1988.61743,579.935152 1985.51197,578.950192" id="Fill-27" fill="#C6C3DD"></path>
                <path d="M2420.9713,281.494448 C2402.76861,277.266672 2383.28992,280.746566 2364.99373,285.744661 C2354.31609,288.663644 2344.17398,290.186331 2333.59582,292.18168 C2324.24428,293.945186 2319.6721,302.424671 2323.61302,311.558553 C2328.8374,323.665265 2351.52252,327.684382 2362.95932,331.182226 C2379.74541,336.31494 2396.69605,339.803061 2414.05582,342.291264 C2415.98626,342.568728 2418.34901,342.961366 2420.9713,343.360735 L2420.9713,281.494448 Z" id="Fill-29" fill="#C6C3DD"></path>
                <path d="M1740.72635,640.915199 C1726.64257,624.099822 1680.66201,625.203696 1679.61713,651.227743 C1678.46455,680.001003 1760.86023,678.924053 1742.96644,644.259727 C1742.35612,643.076578 1741.60368,641.960738 1740.72635,640.915199" id="Fill-37" fill="#A5AADF"></path>
                <path d="M1733.49964,642.952878 C1732.90278,641.733831 1732.41812,640.629209 1731.27152,639.817757 C1730.76965,639.462513 1730.28274,639.077354 1729.78984,638.710892 C1728.54826,637.789501 1727.32836,636.837448 1725.91774,636.188286 C1724.17204,635.384313 1722.14138,635.496495 1720.54601,636.595882 C1718.73898,637.838862 1717.48169,640.703997 1718.54377,642.823494 C1718.95364,643.642425 1719.2775,644.540631 1719.88708,645.229431 C1720.59089,646.026673 1721.30218,646.908425 1722.12567,647.597225 C1722.98506,648.318183 1723.94766,648.935933 1724.96187,649.411586 C1726.87137,650.306801 1728.37474,650.153485 1730.32687,649.707 C1732.92672,649.111686 1734.65821,645.320672 1733.49964,642.952878" id="Fill-39" fill="#8A90D1"></path>
                <path d="M1714.13195,638.025159 C1711.48498,634.792065 1705.93748,635.239299 1702.2404,636.378323 C1697.54332,637.82697 1693.20749,641.890213 1693.44309,647.06406 C1693.54631,649.328646 1695.55453,651.662786 1697.85371,651.918561 C1700.59866,652.224445 1701.81407,651.920057 1704.19627,650.653145 C1704.81258,650.325573 1705.41392,649.977808 1706.01377,649.62032 C1704.94945,650.254524 1706.83502,649.202254 1706.86344,649.188044 C1708.91654,648.173916 1711.08558,647.871024 1712.83053,646.746958 C1716.22694,645.269891 1717.27556,640.306947 1714.13195,638.025159" id="Fill-41" fill="#8A90D1"></path>
                <path d="M1698.40323,656.982619 C1698.1751,656.462093 1697.91332,655.967743 1697.62462,655.486855 C1697.48774,655.187703 1697.34189,654.894533 1697.15266,654.619312 C1696.85498,654.186289 1696.34563,653.682964 1695.91931,653.279856 C1695.81833,653.184127 1695.72858,653.077928 1695.63135,652.977711 C1695.56852,652.899184 1695.50195,652.825144 1695.43913,652.745868 C1694.51392,651.574685 1693.41893,650.737805 1691.91332,650.459593 C1690.48774,650.196339 1688.99859,650.514188 1687.80337,651.336111 C1686.60966,652.157285 1685.78019,653.435415 1685.51691,654.862374 C1685.23942,656.364869 1685.62835,657.689367 1686.39275,658.971985 C1686.63359,659.374345 1686.88639,659.766983 1687.16762,660.144664 C1687.59395,660.716793 1688.11003,661.238815 1688.61938,661.744383 C1689.52589,662.644833 1690.67622,663.068882 1691.89537,663.347094 C1691.84227,663.329893 1691.78916,663.311944 1691.73531,663.293994 C1692.51916,663.522098 1693.26635,663.644003 1694.21175,663.534812 C1695.49223,663.386732 1696.65304,662.835543 1697.5042,661.850582 C1698.59096,660.593393 1699.09657,658.556163 1698.40323,656.982619" id="Fill-43" fill="#8A90D1"></path>
                <path d="M1787.23616,753.334115 C1786.12322,753.003551 1784.80908,753.857632 1784.00205,754.573355 C1783.21072,755.274868 1784.44633,756.517848 1785.16136,755.73332 C1785.75074,755.085654 1786.43511,754.776779 1787.23616,754.47613 C1787.76944,754.275698 1787.83002,753.510615 1787.23616,753.334115" id="Fill-45" fill="#F3BC62"></path>
                <path d="M1810.38366,223.778606 C1808.97154,222.917046 1807.35897,222.537122 1805.72023,222.431671 C1805.15703,222.395025 1804.98425,223.089059 1805.29614,223.453278 C1806.53773,224.897438 1808.48388,226.11125 1810.38366,225.127037 C1810.91993,224.849573 1810.86234,224.071776 1810.38366,223.778606" id="Fill-47" fill="#C6C3DD"></path>
                <path d="M1824.50842,213.460902 C1821.32666,212.535772 1816.84948,211.701136 1814.19876,214.428662 C1813.59443,215.051647 1813.91679,215.979021 1814.68119,216.255737 C1817.79637,217.37756 1821.49346,216.398582 1824.50842,215.519073 C1825.52562,215.221416 1825.52711,213.757811 1824.50842,213.460902" id="Fill-49" fill="#C6C3DD"></path>
                <path d="M1859.81074,219.376424 C1856.85337,219.448221 1853.90274,219.234326 1850.96631,219.791498 C1849.86908,219.99941 1849.86833,221.792082 1850.96631,221.998498 C1854.23782,222.616248 1857.21687,222.254273 1860.21762,220.878919 C1860.96407,220.537884 1860.57514,219.357727 1859.81074,219.376424" id="Fill-51" fill="#C6C3DD"></path>
                <path d="M1834.11335,230.781623 C1832.79323,228.370452 1829.0064,227.732508 1826.54417,227.948646 C1825.74387,228.018199 1824.88074,228.178246 1824.17393,228.591825 C1823.77752,228.798988 1823.41178,229.05252 1823.0782,229.353916 C1823.00116,229.451889 1822.9331,229.537895 1822.87401,229.613431 C1821.9862,230.206502 1821.64289,231.161547 1821.86354,232.183902 C1821.98545,232.7493 1822.40505,233.212987 1822.87326,233.524854 C1822.93235,233.601886 1823.00041,233.687892 1823.0782,233.78736 C1823.41178,234.086513 1823.77752,234.340793 1824.17393,234.547956 C1825.73265,235.462616 1827.72218,235.305561 1829.41851,235.047541 C1831.0251,234.802236 1835.43273,233.189803 1834.11335,230.781623" id="Fill-53" fill="#FFD587"></path>
                <path d="M1763.96442,225.472634 C1761.35186,224.056145 1759.27856,223.226744 1756.25462,223.116058 C1752.4087,222.974708 1750.18805,224.198991 1747.65926,226.889122 C1746.69217,227.91746 1747.39,229.541111 1748.78192,229.599446 C1751.47227,229.710133 1753.35559,229.858213 1755.96741,228.87774 C1758.47826,227.934661 1761.25313,227.000556 1763.85298,226.328958 C1764.23892,226.228742 1764.32194,225.666335 1763.96442,225.472634" id="Fill-55" fill="#FFD587"></path>
                <path d="M1729.89725,226.807005 C1724.50084,224.676289 1717.74915,229.504615 1714.64893,233.60226 C1714.01393,234.442131 1714.69156,235.732227 1715.61303,235.972297 C1721.0072,237.375324 1729.27571,234.110071 1730.76935,228.343902 C1730.95409,227.630423 1730.53674,227.059789 1729.89725,226.807005" id="Fill-57" fill="#FFD587"></path>
                <path d="M2015.84675,211.63465 C2015.83329,211.64138 2015.80786,211.663817 2015.76598,211.725143 C2015.79589,211.700463 2015.80936,211.68401 2015.82506,211.668304 C2015.83254,211.658582 2015.83778,211.64512 2015.84675,211.63465" id="Fill-59" fill="#FFD587"></path>
                <path d="M2026.74892,211.636145 C2026.60457,211.591272 2026.46097,211.547895 2026.31661,211.503022 C2025.89178,211.372143 2025.26276,210.909952 2025.83643,211.477594 C2024.81848,210.470945 2023.0294,210.355024 2021.69058,210.286966 C2020.65169,210.235362 2019.65693,210.312394 2018.62626,210.433551 C2018.00696,210.506096 2017.56642,210.660159 2017.00621,210.887516 C2016.5926,211.054293 2016.13785,211.272675 2015.8469,211.63465 C2015.85737,211.630162 2015.84915,211.642128 2015.82521,211.668304 C2015.76313,211.749823 2015.69806,211.829099 2015.65543,211.925576 C2015.69357,211.838821 2015.73247,211.77226 2015.76538,211.725143 C2015.76089,211.728883 2015.76164,211.729631 2015.75491,211.734866 C2015.01295,212.32644 2015.01295,213.806499 2015.75491,214.398073 C2015.79604,214.431728 2015.83718,214.464635 2015.87832,214.497541 C2015.00846,213.802011 2016.41758,214.990396 2016.4662,215.018067 C2016.88654,215.264868 2017.46096,215.44436 2017.92544,215.605155 C2019.03613,215.99181 2020.53576,215.878879 2021.69058,215.845973 C2022.87308,215.81157 2024.36373,215.679943 2025.38168,215.006101 C2025.47593,214.943279 2025.55521,214.889432 2025.62252,214.843063 C2025.63748,214.839324 2025.6472,214.837828 2025.66441,214.831845 C2025.83494,214.778745 2026.00622,214.726393 2026.176,214.673294 C2026.36673,214.614959 2026.5582,214.555128 2026.74892,214.496794 C2028.16254,214.059283 2028.16254,212.073656 2026.74892,211.636145" id="Fill-61" fill="#FFD587"></path>
                <path d="M2060.03898,222.835677 C2057.81011,221.142472 2055.38752,220.742355 2052.68221,221.54932 C2051.09358,222.022729 2046.93876,223.959743 2048.61864,226.384376 C2049.89164,228.216687 2052.13846,228.14863 2054.14145,228.257821 C2056.65305,228.393187 2058.5416,227.255659 2060.41894,225.778592 C2061.46456,224.953678 2060.89239,223.482595 2060.03898,222.835677" id="Fill-63" fill="#FFD587"></path>
                <path d="M1704.1677,720.437931 C1704.1677,707.632697 1697.8775,692.973464 1687.91115,684.633832 C1681.08542,678.923006 1673.39656,672.531607 1665.02259,668.946262 C1656.2193,665.176189 1647.7825,661.591591 1638.46911,659.447413 C1629.27913,657.331656 1619.78623,656.20011 1610.40178,655.432783 C1601.2305,654.68191 1592.26715,656.125322 1583.23723,657.797586 C1575.07941,659.309803 1567.61419,662.452403 1560.52444,666.761699 C1554.94179,670.154091 1548.76228,674.266693 1546.00386,680.466634 C1542.35091,688.675386 1539.68225,696.455602 1543.81463,705.042034 C1542.73984,707.819667 1542.17963,710.886731 1542.27911,714.205083 C1542.50274,721.713069 1543.85876,728.696791 1547.37858,735.496533 C1549.72787,740.03468 1554.79968,745.202544 1558.53939,749.021229 C1562.82212,753.394095 1567.77799,757.692172 1573.08315,760.618634 C1578.76004,763.747772 1584.96947,766.112575 1590.92459,768.551417 C1600.65982,772.537628 1611.58279,773.429851 1621.96798,774.257756 C1635.19012,775.313766 1649.39282,772.712632 1660.04204,764.994491 C1684.14301,764.74769 1704.1677,744.612466 1704.1677,720.437931" id="Fill-65" fill="#BEB9D3"></path>
                <path d="M1687.91085,684.634132 C1687.09111,683.948324 1686.25416,683.25055 1685.40898,682.55128 C1686.12327,688.106547 1685.8929,693.816626 1684.80988,699.527452 C1680.85775,720.371668 1660.48302,735.860303 1642.40972,744.513296 C1633.53911,748.760518 1624.13746,753.033915 1614.45384,755.12948 C1602.26611,757.76726 1591.55855,757.621423 1579.33716,755.321686 C1572.35436,754.007657 1565.44934,751.885916 1558.72159,749.203264 C1562.96243,753.513307 1567.85099,757.733605 1573.0836,760.618185 C1578.75974,763.748071 1584.96917,766.112874 1590.92429,768.551717 C1600.66027,772.537179 1611.58249,773.43015 1621.96768,774.257308 C1635.19057,775.313317 1649.39252,772.712932 1660.04174,764.99479 C1684.14271,764.747241 1704.1674,744.612765 1704.1674,720.43823 C1704.1674,707.632996 1697.8772,692.973763 1687.91085,684.634132" id="Fill-67" fill="#A49FC4"></path>
                <path d="M1671.65483,672.402897 C1669.49626,671.094104 1667.28534,669.914694 1665.02281,668.946187 C1660.53216,667.023382 1656.13575,665.151434 1651.67128,663.491136 C1652.38332,666.502857 1653.18287,669.507846 1653.71616,672.679613 C1654.45587,677.081646 1653.53067,682.828371 1652.01907,687.632764 C1648.43867,699.02151 1638.90239,707.130793 1628.36536,712.110191 C1615.56731,718.158312 1599.70792,717.046212 1586.20529,714.630553 C1578.52691,713.257442 1570.97418,710.931529 1563.85226,707.76051 C1556.22174,704.362134 1549.4536,699.295235 1541.83057,695.984361 C1541.7984,695.970899 1541.76549,695.964169 1541.73311,695.951455 C1541.71987,698.915311 1542.31523,701.925535 1543.81486,705.041959 C1543.47828,705.911746 1543.19855,706.812196 1542.96744,707.738073 C1547.77971,711.36904 1553.33842,714.285779 1558.46707,716.972171 C1566.63012,721.247812 1575.28532,724.755378 1584.17388,727.183751 C1601.24868,731.847542 1620.47905,731.257464 1636.77673,724.310389 C1650.69072,718.378937 1662.38557,705.931191 1668.14697,692.078174 C1670.49626,686.427926 1671.88445,679.331275 1671.65483,672.402897" id="Fill-69" fill="#CBC7DD"></path>
                <path d="M1547.02511,679.78135 C1550.337,684.404756 1555.25697,687.816593 1560.45293,690.721367 C1569.85159,695.973741 1580.11786,698.572631 1590.70275,699.836551 C1599.26072,700.858158 1608.91143,700.30323 1616.93986,697.056674 C1622.97052,694.617832 1627.71099,692.092234 1632.49783,687.504727 C1637.18668,683.009956 1639.77083,677.632686 1642.16275,671.769291 C1643.60104,668.241532 1644.11862,664.543256 1643.90022,660.894341 C1642.11563,660.366336 1640.31309,659.871986 1638.46941,659.447189 C1629.27943,657.331431 1619.78578,656.200634 1610.40134,655.432559 C1601.2308,654.681686 1592.2667,656.125846 1583.23753,657.797362 C1575.07971,659.309579 1567.61374,662.452926 1560.52474,666.761474 C1555.27866,669.948947 1549.50678,673.773615 1546.54119,679.367772 C1546.70349,679.504634 1546.85906,679.649723 1547.02511,679.78135" id="Fill-71" fill="#CBC7DD"></path>
                <path d="M1936.9139,599.767484 C1923.38959,596.571785 1906.80021,602.01487 1896.81292,611.441921 C1892.88322,615.151415 1896.90866,622.57863 1902.21531,620.723883 C1908.01861,618.694132 1913.79123,616.632969 1919.65361,614.756534 C1925.90642,612.754454 1932.10687,610.999923 1937.99468,608.033823 C1941.48533,606.274057 1940.61323,600.642506 1936.9139,599.767484" id="Fill-76" fill="#C6C3DD"></path>
                <path d="M2142.11335,277.687056 C2137.92038,273.546782 2135.2936,271.208903 2128.80968,269.844766 C2124.331,268.902435 2118.87176,268.634693 2114.32127,268.992181 C2110.59128,269.285351 2108.43944,272.214056 2109.09015,275.857737 C2109.99666,280.93062 2113.71244,285.988545 2117.46862,289.325594 C2120.48283,292.002264 2125.32202,294.921994 2129.44693,294.723058 C2131.20833,294.638547 2133.28612,294.735772 2134.94805,294.212255 C2135.53444,294.02678 2140.20535,292.255795 2138.05426,293.056029 C2144.34072,290.714411 2147.37513,282.884835 2142.11335,277.687056" id="Fill-78" fill="#C6C3DD"></path>
                <path d="M2036.35169,445.593873 C2034.41228,444.661264 2032.66134,444.395018 2030.53868,444.322474 C2028.82364,444.264887 2026.6404,444.376321 2025.08468,445.020248 C2022.59103,446.053073 2020.7122,447.862947 2020.7122,450.763981 C2020.7122,453.664267 2022.59103,455.474141 2025.08468,456.506966 C2026.72716,457.187538 2028.76381,457.153136 2030.53868,457.20474 C2032.62694,457.263822 2034.47286,456.83753 2036.35169,455.93334 C2040.26419,454.052417 2040.26419,447.475544 2036.35169,445.593873" id="Fill-80" fill="#FFD587"></path>
                <path d="M2061.10608,458.007666 C2058.8413,453.375285 2051.11879,453.375285 2048.85476,458.007666 C2046.13599,463.570411 2046.27062,472.784316 2049.30503,478.227401 C2051.68573,482.498555 2058.27436,482.498555 2060.65507,478.227401 C2063.68947,472.784316 2063.8241,463.570411 2061.10608,458.007666" id="Fill-82" fill="#FFD587"></path>
                <path d="M2043.98303,495.602941 C2043.04885,492.206062 2039.18722,489.747026 2035.70405,490.902503 C2033.03988,491.785752 2030.11317,492.168668 2027.7766,493.832705 C2025.54025,495.425693 2024.22686,497.868276 2024.99575,500.666102 C2025.71153,503.267235 2028.1386,505.100294 2030.8312,505.107772 C2031.45274,505.109268 2032.0683,505.104033 2032.68385,505.021766 C2032.33083,505.068883 2037.13561,504.623893 2034.36972,504.810115 C2036.05259,504.697185 2037.67563,504.372604 2039.28221,503.881246 C2042.78782,502.808783 2044.97705,499.215211 2043.98303,495.602941" id="Fill-84" fill="#FFD587"></path>
                <path d="M1588.06558,567.929853 C1587.32512,564.558401 1583.3655,562.162935 1580.07904,562.275117 C1579.48293,562.29531 1578.92571,562.381317 1578.36999,562.483029 C1577.77014,562.52491 1577.17328,562.59895 1576.58166,562.741796 C1575.8038,562.90633 1575.04538,563.177811 1574.28472,563.408906 C1570.84568,564.451454 1566.02519,565.533639 1563.58839,568.300802 C1559.08278,573.420054 1562.07978,581.349845 1569.10222,581.610108 C1572.16879,581.723786 1575.82025,580.403775 1578.729,579.525761 C1580.62654,578.952884 1582.38944,578.184061 1584.14187,577.272393 C1587.5323,575.508888 1588.8397,571.462099 1588.06558,567.929853" id="Fill-86" fill="#FFD587"></path>
                <path d="M1611.38398,585.088432 C1610.68541,583.766177 1609.4685,582.801409 1608.18428,582.110367 C1607.50216,581.742409 1606.81031,581.475415 1606.07807,581.174766 C1605.31592,580.862152 1604.45504,580.830741 1603.64651,580.761935 C1601.98982,580.621334 1600.14913,581.54422 1599.01076,582.682496 C1597.78637,583.906031 1597.09004,585.586522 1597.09004,587.317868 C1597.09004,590.528525 1599.42063,593.119188 1602.42661,593.733947 C1602.4685,593.746661 1602.51113,593.757879 1602.55227,593.772089 C1603.46551,594.163979 1604.38548,594.48856 1605.45055,594.48856 C1606.15436,594.48856 1606.87089,594.407041 1607.5403,594.190155 C1609.27104,593.631487 1610.39296,592.679434 1611.38398,591.212837 C1612.6151,589.390997 1612.35631,586.931961 1611.38398,585.088432" id="Fill-88" fill="#FFD587"></path>
                <path d="M1577.37739,591.799251 C1572.19863,588.596821 1566.23603,590.951153 1561.3026,593.430382 C1556.59429,595.79668 1552.55839,599.518141 1550.79399,604.52521 C1548.94582,609.766366 1554.69302,615.115218 1559.79175,613.522229 C1563.16124,612.469212 1565.93536,610.423755 1568.96453,608.684929 C1572.13132,606.866828 1576.33476,606.411368 1578.86356,603.336826 C1581.89048,599.657995 1581.68779,594.46545 1577.37739,591.799251" id="Fill-90" fill="#FFD587"></path>
                <path d="M2005.27188,483.45719 C2002.6451,482.558983 1999.11032,482.855892 1996.43718,483.466912 C1992.53441,484.360631 1992.53441,490.439415 1996.43718,491.333134 C1999.11032,491.944901 2002.6451,492.24181 2005.27188,491.342856 C2009.16268,490.012374 2009.16268,484.788419 2005.27188,483.45719" id="Fill-92" fill="#C6C3DD"></path>
                <path d="M1554.92593,551.172661 C1553.1017,550.675319 1551.11067,550.678311 1549.22885,550.678311 C1547.08674,550.678311 1545.03588,550.779275 1543.12787,551.863704 C1540.26101,553.494086 1540.26101,557.860969 1543.12787,559.491351 C1545.03588,560.57578 1547.08674,560.676745 1549.22885,560.676745 C1551.11067,560.676745 1553.1017,560.679736 1554.92593,560.182394 C1559.38966,558.964095 1559.38966,552.390961 1554.92593,551.172661" id="Fill-94" fill="#C6C3DD"></path>
                <path d="M2049.22888,630.954309 C2045.48169,630.421818 2042.35828,630.225872 2038.60659,631.094911 C2035.43157,631.830827 2031.94017,633.779059 2029.81976,636.265767 C2025.71579,641.079883 2029.64773,647.641798 2035.79507,646.52895 C2040.41662,645.692818 2044.84893,644.321951 2049.22888,643.600245 C2055.45551,642.575646 2055.57593,631.857003 2049.22888,630.954309" id="Fill-100" fill="#FEE2A8"></path>
                <path d="M2134.39727,310.249161 C2133.52516,307.077394 2130.59846,305.995957 2127.62987,306.406544 C2129.5491,306.140298 2127.09659,306.388595 2126.43915,306.536675 C2126.05695,306.622682 2125.67326,306.706444 2125.2918,306.794695 C2124.18709,307.05047 2122.95747,307.469284 2121.97767,308.004767 C2119.17064,309.540169 2116.37557,312.415027 2116.67624,315.873981 C2116.99786,319.601424 2120.10257,322.41346 2123.95972,321.423265 C2125.44438,321.041845 2126.52067,320.281997 2127.64259,319.265625 C2127.85725,319.095108 2128.06742,318.918608 2128.27311,318.737621 C2128.38305,318.64264 2128.45112,318.581313 2128.49824,318.53644 C2128.94401,318.220086 2129.3853,317.90448 2129.85575,317.619537 C2130.18859,317.417609 2130.5304,317.238117 2130.87894,317.065357 C2130.99562,317.010761 2131.11155,316.953922 2131.22973,316.899327 C2132.5476,315.840326 2132.76077,315.693741 2131.86922,316.461816 C2134.01581,315.264457 2135.04125,312.590031 2134.39727,310.249161" id="Fill-102" fill="#FEE2A8"></path>
                <path d="M2161.32981,307.368245 C2160.98426,307.262046 2160.64843,307.137898 2160.30887,307.015245 C2160.07551,306.938213 2159.94985,306.900819 2159.92293,306.900071 C2159.51305,306.722075 2159.09869,306.558289 2158.67237,306.424418 C2157.39563,305.99663 2156.07401,305.671301 2154.79129,305.25847 C2151.76586,304.285476 2148.43526,306.365336 2147.62001,309.328444 C2146.73669,312.539101 2148.69031,315.465563 2151.69106,316.498387 C2154.88403,317.598522 2157.93415,318.526643 2161.32981,317.718931 C2163.6417,317.169238 2165.27072,314.866509 2165.27072,312.543588 C2165.27072,310.105493 2163.623,308.069011 2161.32981,307.368245" id="Fill-104" fill="#FEE2A8"></path>
                <path d="M2006.68228,404.283943 C2006.40479,404.279456 2006.12805,404.27422 2005.84982,404.268237 C2003.19911,404.221869 2000.98744,406.51637 2000.98744,409.130966 C2000.98744,411.746309 2003.19911,414.04081 2005.84982,413.993694 C2006.12805,413.988459 2006.40479,413.983223 2006.68228,413.977988 C2009.32401,413.930872 2011.5297,411.809131 2011.5297,409.130966 C2011.5297,406.453548 2009.32401,404.33106 2006.68228,404.283943" id="Fill-106" fill="#FEE2A8"></path>
                <path d="M2206.95502,375.265601 C2205.49878,374.413016 2203.78075,374.481821 2202.31927,375.265601 C2202.01037,375.431631 2201.70147,375.597661 2201.39182,375.763691 C2198.77776,377.166717 2198.77776,381.295025 2201.39182,382.698052 C2201.70147,382.864082 2202.01037,383.030111 2202.31927,383.196141 C2203.78075,383.980669 2205.49878,384.049474 2206.95502,383.196141 C2208.35143,382.377958 2209.22952,380.850036 2209.22952,379.230871 C2209.22952,377.611707 2208.35143,376.083784 2206.95502,375.265601" id="Fill-108" fill="#F3BC62"></path>
                <path d="M2225.5397,357.884302 C2223.15824,355.767049 2220.28165,355.257741 2217.35121,356.593458 C2216.59055,356.939728 2215.9735,357.533546 2215.3198,358.048836 C2214.51576,358.681545 2214.14927,359.590221 2213.93984,360.540031 C2213.72668,360.997735 2213.61,361.491337 2213.57709,361.995409 C2213.56512,362.034299 2213.54642,362.071693 2213.53446,362.111331 C2212.98696,363.939154 2214.0468,365.418465 2215.54717,365.996577 C2215.80895,366.242631 2216.09167,366.473726 2216.43124,366.673411 C2217.98622,367.329303 2218.18068,367.410822 2217.01389,366.920212 C2217.57933,367.229087 2218.17245,367.460182 2218.7925,367.61649 C2221.15002,368.274626 2223.84037,367.276203 2225.5397,365.621889 C2227.58233,363.631775 2227.74688,359.84824 2225.5397,357.884302" id="Fill-110" fill="#F3BC62"></path>
                <path d="M2276.7614,371.374297 C2276.58638,370.917341 2276.30141,370.556114 2275.80777,370.420748 C2275.66716,370.381858 2275.51532,370.369144 2275.36274,370.378866 C2275.34928,370.312305 2275.33656,370.244995 2275.3231,370.176938 C2275.10769,369.055115 2273.28196,369.055115 2273.06656,370.176938 C2273.04412,370.289868 2273.02243,370.402799 2273.00149,370.515729 C2272.97531,370.650347 2272.94913,370.710178 2272.93866,370.73411 C2272.79655,370.918837 2272.68436,371.120765 2272.65145,371.360835 C2272.61704,371.608384 2272.5071,371.993543 2272.53627,372.214916 C2272.56693,372.44676 2272.60283,372.64794 2272.65369,372.842389 C2272.49214,372.972521 2272.3418,373.116114 2272.23709,373.299345 C2272.22063,373.331504 2272.19969,373.360671 2272.18174,373.391335 C2272.16977,373.401805 2272.16902,373.400309 2272.1406,373.430972 C2271.72774,373.845299 2271.6694,374.634314 2272.1406,375.040414 C2272.59909,375.4338 2273.13088,375.770347 2273.76514,375.719491 C2274.39341,375.668635 2274.99999,375.412859 2275.52205,375.065094 C2276.7255,374.260373 2277.28346,372.742173 2276.7614,371.374297" id="Fill-112" fill="#F3BC62"></path>
                <path d="M2198.33326,353.629976 C2197.58307,353.462451 2196.86804,353.389906 2196.10962,353.526769 C2195.09616,353.707756 2194.51276,354.447411 2193.93161,355.214738 C2192.72293,356.812962 2194.72593,359.269006 2196.5367,358.602643 C2197.17993,358.36706 2197.77828,358.206266 2198.31231,357.736596 C2198.42151,357.645354 2198.52473,357.54813 2198.62346,357.446418 C2198.6444,357.425477 2198.65113,357.41725 2198.66609,357.400797 C2198.69377,357.389579 2198.73565,357.367142 2198.81568,357.317034 C2200.21583,356.430046 2200.11561,354.028597 2198.33326,353.629976" id="Fill-114" fill="#F3BC62"></path>
                <path d="M2176.35217,359.574665 C2176.29458,359.440794 2176.23774,359.306176 2176.18015,359.172305 C2175.72615,358.406474 2175.11657,357.796202 2174.34993,357.342986 C2173.55487,356.880795 2172.69623,356.648951 2171.77551,356.646707 C2170.85479,356.648951 2169.9969,356.880795 2169.20109,357.342986 C2168.43445,357.796202 2167.82487,358.406474 2167.37162,359.172305 C2167.31403,359.306176 2167.25718,359.440794 2167.19959,359.574665 C2166.9595,360.002454 2166.77401,360.448939 2166.64462,360.915617 C2166.25195,362.276762 2166.46661,363.797954 2167.18089,365.015506 C2167.43071,365.444042 2167.81814,365.865848 2168.15846,366.264469 C2169.00214,367.253169 2170.51448,367.762476 2171.77551,367.762476 C2173.03654,367.762476 2174.54963,367.253169 2175.39331,366.264469 C2175.73363,365.865848 2176.12031,365.444042 2176.37162,365.015506 C2176.8533,364.186105 2177.09488,363.29089 2177.09787,362.33061 C2177.09787,361.076412 2176.82861,360.687513 2176.35217,359.574665" id="Fill-116" fill="#F3BC62"></path>
                <path d="M2050.82185,609.187581 C2048.72163,607.854855 2046.43367,607.738933 2044.06718,608.274417 C2041.36336,608.886184 2039.15469,611.291372 2038.43591,613.903724 C2038.05297,615.332178 2038.05297,616.759885 2038.43591,618.189087 C2039.02754,620.336256 2040.36561,621.766954 2042.14197,623.006195 C2043.43143,623.906644 2045.18461,624.322467 2046.74108,624.255157 C2050.35663,624.102589 2053.55334,621.900077 2054.53838,618.319966 C2055.52717,614.725646 2053.89815,611.138057 2050.82185,609.187581" id="Fill-118" fill="#F3BC62"></path>
                <path d="M2078.62799,623.113964 C2077.81274,622.729553 2077.10892,622.803593 2076.24729,623.005521 C2075.67063,623.141636 2074.77384,623.494636 2074.352,623.53577 C2073.41408,623.629255 2072.62201,624.252241 2072.62201,625.266368 C2072.62201,626.204212 2073.40885,627.004446 2074.352,626.996967 C2075.30264,626.989488 2076.08798,626.719503 2076.83667,626.148121 C2077.41932,625.704627 2078.00645,625.303763 2078.62799,624.922343 C2079.25028,624.541671 2079.36846,623.462477 2078.62799,623.113964" id="Fill-120" fill="#F3BC62"></path>
                <path d="M1976.23934,644.069241 C1975.46372,644.567331 1974.9626,644.476837 1974.07404,644.655581 C1973.70531,644.730369 1973.3089,644.73336 1972.93119,644.755049 C1972.15407,644.801418 1971.64846,645.161149 1971.06432,645.628575 C1970.5804,646.015978 1970.57965,646.981494 1971.06432,647.367401 C1973.34181,649.185501 1976.52954,648.157164 1978.1092,645.938946 C1978.91324,644.810392 1977.35527,643.355762 1976.23934,644.069241" id="Fill-122" fill="#F3BC62"></path>
                <path d="M1918.01741,643.404225 C1914.03162,643.404225 1910.70552,646.730056 1910.70552,650.715518 C1910.70552,654.700981 1914.03162,658.026812 1918.01741,658.026812 C1922.00395,658.026812 1925.32931,654.700981 1925.32931,650.715518 C1925.32931,646.730056 1922.00395,643.404225 1918.01741,643.404225" id="Fill-124" fill="#F3BC62"></path>
                <path d="M2310.79207,646.38588 C2308.05684,645.494405 2304.79057,645.709047 2303.18848,648.422363 C2302.56095,649.485103 2303.7629,650.41846 2304.7457,649.979453 C2305.51533,649.635427 2306.59087,649.83586 2307.41735,649.746862 C2308.59162,649.619722 2309.66642,649.476876 2310.79207,649.10817 C2312.13538,648.669164 2312.13762,646.824139 2310.79207,646.38588" id="Fill-130" fill="#F3BC62"></path>
                <path d="M1725.90405,745.948407 C1723.17481,743.218638 1719.69687,742.68465 1716.04691,743.343534 C1713.24287,743.849102 1711.00128,745.770411 1709.54878,748.142692 C1709.81953,747.791936 1710.08954,747.442675 1710.36104,747.091171 C1708.69911,749.358001 1707.35207,752.361494 1708.51736,755.18774 C1708.95716,756.25422 1708.6131,756.228792 1709.64526,757.991549 C1710.68341,759.762534 1712.01325,760.679437 1713.62731,761.858099 C1715.71632,763.384526 1719.03794,763.538589 1721.43285,762.878958 C1724.83824,761.942609 1727.57272,759.208353 1728.50914,755.804743 C1729.46875,752.318117 1728.45903,748.502424 1725.90405,745.948407" id="Fill-132" fill="#F3BC62"></path>
                <path d="M1754.34856,761.336975 C1753.92897,760.608538 1753.36951,759.683408 1752.56322,759.317694 C1751.52957,758.851015 1750.53405,757.982724 1749.21468,757.579616 C1747.68588,757.11219 1746.32388,757.027679 1744.75245,757.317109 C1744.16532,757.424804 1743.64325,757.664127 1743.11371,757.935608 L1742.83846,758.099394 C1742.7704,758.15025 1742.71431,758.192131 1742.65821,758.234013 C1741.55799,758.604962 1741.17728,759.754457 1741.45626,760.787281 C1741.58267,763.303156 1743.88858,765.527357 1746.25208,766.166048 C1749.08155,766.929636 1752.5909,766.640205 1754.34856,763.956805 C1754.85268,763.187982 1754.79434,762.11178 1754.34856,761.336975" id="Fill-134" fill="#F3BC62"></path>
                <path d="M1915.58435,371.668589 C1915.41606,371.13834 1915.21337,370.639503 1914.91195,370.172077 C1914.71599,369.920041 1914.52078,369.666509 1914.32556,369.414473 C1914.23132,369.322483 1914.15728,369.253678 1914.10417,369.206561 C1913.73469,368.578341 1912.87829,367.95012 1912.348,367.589641 C1913.10642,368.093713 1912.92766,367.93591 1911.81098,367.119223 C1911.36072,366.846246 1910.88278,366.630856 1910.37642,366.472305 C1909.40484,366.179135 1908.40559,366.025072 1907.38988,366.040029 C1906.58435,366.052743 1905.70926,366.250184 1905.01292,366.690687 C1904.95608,366.701157 1904.88876,366.714619 1904.79677,366.739299 C1900.73693,367.796804 1900.74516,373.857639 1904.79677,374.919631 C1904.79901,374.919631 1904.80125,374.920379 1904.80424,374.921127 C1904.85511,374.960765 1904.89774,374.992176 1904.95234,375.036301 C1905.86333,375.569541 1906.98076,375.730335 1908.01741,375.841022 C1908.76535,375.958439 1909.51629,376.038463 1910.26498,375.894869 C1910.31958,375.893374 1910.3839,375.892626 1910.46692,375.890382 C1910.81098,375.888886 1911.11315,375.835039 1911.40634,375.761746 C1912.08398,375.779695 1912.74292,375.738562 1913.41158,375.493257 C1914.95159,374.925614 1916.12885,373.38423 1915.58435,371.668589" id="Fill-136" fill="#F3BC62"></path>
                <path d="M2010.84638,292.13419 C2006.00045,292.13419 2006.00045,299.647412 2010.84638,299.647412 C2015.69155,299.647412 2015.69155,292.13419 2010.84638,292.13419" id="Fill-138" fill="#F3BC62"></path>
                <path d="M2067.68715,302.143692 C2066.95492,300.894729 2065.58917,300.109453 2064.14041,300.109453 C2063.05589,300.109453 2062.00204,300.545468 2061.23539,301.312795 C2060.12769,302.41966 2059.91153,303.829418 2060.17855,305.309476 C2060.37302,306.383434 2060.5413,307.409528 2060.91228,308.437866 C2061.42388,309.855102 2062.56299,310.894658 2064.14041,310.894658 C2065.71782,310.894658 2066.85619,309.855102 2067.36778,308.437866 C2067.73801,307.409528 2067.9078,306.383434 2068.10226,305.309476 C2068.30421,304.183914 2068.28326,303.160811 2067.68715,302.143692" id="Fill-140" fill="#F3BC62"></path>
                <path d="M2033.27002,333.054474 C2032.0217,332.672306 2030.47047,332.81216 2029.16605,332.774766 C2027.48542,332.726153 2026.08228,334.213691 2026.08228,335.858283 C2026.08228,337.502127 2027.48542,338.990412 2029.16605,338.9418 C2030.47047,338.903658 2032.0217,339.043512 2033.27002,338.662092 C2036.04339,337.812498 2036.04339,333.90332 2033.27002,333.054474" id="Fill-142" fill="#F3BC62"></path>
                <path d="M2102.51985,334.192675 C2102.37998,332.341667 2101.07706,330.787569 2099.11371,330.787569 C2097.14961,330.787569 2095.85118,332.342415 2095.70907,334.192675 C2095.70234,334.276438 2095.69337,334.360201 2095.68664,334.443963 C2094.61184,335.062462 2093.86764,336.195503 2093.86764,337.522993 C2093.86764,339.386715 2095.49741,341.220521 2097.44879,341.1046 C2099.25881,340.996905 2101.07856,340.211629 2101.88858,338.471307 C2102.53481,337.083987 2102.63428,335.696666 2102.51985,334.192675" id="Fill-144" fill="#F3BC62"></path>
                <path d="M2123.58492,310.878354 C2123.58492,309.619669 2122.72404,308.497846 2121.51462,308.159055 C2120.41888,307.852424 2119.41364,308.059587 2118.42411,308.571138 C2116.96637,309.323508 2116.20796,310.962865 2116.1915,312.543887 C2116.17505,314.129397 2117.52658,315.451652 2119.09951,315.451652 C2120.39046,315.451652 2121.41589,314.614772 2121.81753,313.480983 C2122.86091,313.042724 2123.58492,312.04131 2123.58492,310.878354" id="Fill-146" fill="#F3BC62"></path>
                <path d="M1736.82956,309.711584 C1735.47055,309.493202 1734.09284,309.485723 1732.71812,309.431128 C1731.02178,309.364566 1729.60518,310.897724 1729.60518,312.543812 C1729.60518,314.1899 1731.02178,315.723058 1732.71812,315.656497 C1734.09284,315.601901 1735.47055,315.594423 1736.82956,315.376041 C1738.10107,315.171869 1738.98663,313.741919 1738.98663,312.543812 C1738.98663,311.346453 1738.10107,309.915755 1736.82956,309.711584" id="Fill-148" fill="#F3BC62"></path>
                <path d="M1761.98065,315.874355 C1761.93054,314.44964 1760.82882,313.259012 1759.36509,313.259012 C1757.90137,313.259012 1756.79965,314.44964 1756.75028,315.874355 C1756.73009,316.429283 1756.71064,316.984959 1756.69195,317.539888 C1756.63959,318.996762 1757.94625,320.213566 1759.36509,320.213566 C1760.78394,320.213566 1762.08985,318.996762 1762.03899,317.539888 C1762.01955,316.984959 1762.0001,316.429283 1761.98065,315.874355" id="Fill-150" fill="#F3BC62"></path>
                <path d="M1629.30179,319.205122 C1629.30179,317.476019 1627.85901,316.034102 1626.13051,316.034102 C1624.77299,316.034102 1623.43417,316.167973 1622.41622,317.185093 C1621.13275,318.469206 1621.37733,320.065186 1621.60396,321.658922 C1621.74457,322.161499 1621.99962,322.597514 1622.36761,322.968463 C1622.92108,323.521148 1623.681,323.836754 1624.46484,323.836754 C1625.00037,323.834511 1625.49925,323.699892 1625.96222,323.431402 C1626.408,323.170392 1626.89491,322.705957 1627.1537,322.187675 C1628.39005,321.752407 1629.30179,320.575989 1629.30179,319.205122" id="Fill-152" fill="#F3BC62"></path>
                <path d="M2100.77998,597.762263 C2097.06644,597.762263 2097.06644,603.51871 2100.77998,603.51871 C2104.49277,603.51871 2104.49277,597.762263 2100.77998,597.762263" id="Fill-154" fill="#F3BC62"></path>
                <path d="M1722.98169,267.31902 C1721.43195,265.770156 1719.13128,265.572715 1717.24048,266.579364 C1717.22028,266.590583 1717.19934,266.599557 1717.17765,266.610775 C1717.09164,266.646674 1717.00338,266.681076 1716.93307,266.704261 C1716.11707,266.974246 1715.30854,267.254702 1714.5606,267.688473 C1714.38932,267.785698 1714.2143,267.878435 1714.03778,267.965937 C1714.01983,267.974912 1714.01011,267.980895 1713.99291,267.989122 C1713.33173,268.271821 1712.79321,268.610612 1712.13651,268.891815 C1710.59126,269.555186 1709.68401,271.589425 1709.68401,273.166708 C1709.68401,275.453731 1711.21205,277.246404 1713.31901,277.941934 C1715.6309,278.704774 1717.59425,277.966614 1719.70121,277.072895 C1721.43644,276.33698 1722.78199,274.646019 1723.72215,273.059761 C1724.80742,271.228946 1724.47982,268.818523 1722.98169,267.31902" id="Fill-156" fill="#C6C3DD"></path>
                <path d="M2185.49406,283.914818 C2181.28389,281.24488 2176.47611,281.290501 2171.77603,282.377921 C2167.28089,283.418972 2167.28613,290.387736 2171.77603,291.431779 C2175.80745,292.368127 2178.92413,292.852007 2183.01613,293.06291 C2188.11934,293.324668 2189.41179,286.400778 2185.49406,283.914818" id="Fill-158" fill="#C6C3DD"></path>
                <path d="M1607.56835,275.791848 C1601.23477,271.481057 1594.19363,271.694951 1586.93334,273.703762 C1580.20036,275.565988 1573.237,279.767589 1569.62893,285.892741 C1567.73738,289.104146 1570.87874,293.828516 1574.68801,292.473354 C1579.64389,290.709849 1584.17194,288.551462 1589.38959,287.533594 C1591.72392,287.077386 1594.29311,287.154418 1596.66409,287.149931 C1600.09341,287.1432 1602.89819,286.75131 1606.22131,286.097661 C1611.39034,285.08129 1611.25945,278.303236 1607.56835,275.791848" id="Fill-160" fill="#C6C3DD"></path>
                <path d="M1638.6635,279.761306 C1636.28504,278.367255 1634.14667,277.044251 1631.38152,276.601505 C1630.54906,276.473618 1629.7151,276.367418 1628.87741,276.284403 C1629.4249,276.386863 1629.28877,276.372654 1628.46903,276.241774 C1627.69042,276.020401 1626.90658,275.962066 1626.11899,276.06677 C1625.87591,276.099677 1625.63283,276.131088 1625.38975,276.164742 C1625.28728,276.133331 1625.07486,276.095937 1624.72856,276.051064 C1621.10628,275.339829 1616.55654,279.380635 1619.32991,283.072928 C1621.35609,285.76979 1623.03447,287.600605 1626.43762,289.031303 C1627.89461,289.642322 1629.47576,290.141907 1631.06963,290.184537 C1632.73754,290.227914 1634.31645,289.885384 1635.94771,289.788159 C1641.15041,289.480032 1643.47576,282.581569 1638.6635,279.761306" id="Fill-162" fill="#C6C3DD"></path>
                <path d="M1694.06239,283.849827 C1694.10726,283.812433 1694.21721,283.647151 1694.41392,283.311352 C1694.30846,283.490844 1694.1843,283.671083 1694.06239,283.849827" id="Fill-164" fill="#C6C3DD"></path>
                <path d="M1695.89649,279.312502 C1697.76411,276.267127 1696.87854,270.954174 1693.30337,269.424756 C1693.22858,269.402319 1693.15753,269.371656 1693.08348,269.34548 C1688.81422,264.61064 1682.67884,263.948017 1676.25326,265.061613 C1671.64742,265.860351 1666.81571,267.299275 1663.73119,270.974367 C1660.981,274.251586 1660.59207,277.682868 1662.36694,281.553157 C1664.82468,286.913974 1670.68706,289.456773 1676.25326,290.252519 C1680.69305,290.887471 1684.98176,290.876253 1689.00046,288.52192 C1690.79028,287.474138 1692.83217,285.661272 1694.06254,283.849902 C1693.75214,284.113156 1696.70726,277.990247 1695.89649,279.312502" id="Fill-166" fill="#C6C3DD"></path>
                <path d="M1703.12395,391.534576 C1690.91975,381.830808 1672.54129,379.3972 1656.72079,377.137101 C1647.96163,375.885147 1639.02969,374.725182 1630.14936,374.353485 C1625.30792,374.150809 1619.87037,374.24579 1615.18675,375.291329 C1606.97658,377.123639 1601.98107,381.748541 1599.10447,388.558006 C1598.73948,389.419566 1598.51285,390.294588 1598.37972,391.171853 C1594.54726,397.561756 1594.86513,405.958226 1601.49939,411.086452 C1608.37972,416.403893 1616.28473,418.224985 1625.10598,419.65344 C1633.60037,421.028047 1642.2264,422.014503 1650.8457,422.557465 C1658.02147,423.009934 1665.2264,423.101175 1672.41489,422.82745 C1681.69612,422.473702 1690.91153,421.966638 1699.19051,417.963227 C1709.78588,412.839488 1712.27054,398.806979 1703.12395,391.534576" id="Fill-324" fill-opacity="0.4" fill="#000000"></path>
                <path d="M1861.25405,379.106873 C1844.07229,368.83995 1818.20019,366.264992 1795.92943,363.873266 C1783.59958,362.549515 1771.02441,361.322241 1758.52328,360.928855 C1751.70728,360.714961 1744.05432,360.815177 1737.4597,361.921294 C1725.90248,363.859804 1718.87032,368.752448 1714.81946,375.957542 C1714.30712,376.869958 1713.987,377.795088 1713.80001,378.723209 C1708.4051,385.484062 1708.85162,394.367403 1718.19194,399.793286 C1727.8778,405.42035 1739.0057,407.346145 1751.42455,408.857615 C1763.38192,410.312993 1775.52553,411.356288 1787.65867,411.931409 C1797.76039,412.410054 1807.90325,412.505783 1818.02292,412.215604 C1831.088,411.841664 1844.06182,411.305432 1855.71702,407.069429 C1870.63251,401.648781 1874.13064,386.801082 1861.25405,379.106873" id="Fill-326" fill-opacity="0.4" fill="#000000"></path>
                <path d="M1691.1466,342.200321 C1691.2947,356.819169 1698.81003,370.816527 1709.88558,380.982486 C1717.03965,387.549637 1725.63652,392.096759 1734.8968,395.563191 C1760.73301,405.234052 1792.21544,403.143722 1818.41215,395.572166 C1829.5595,392.350291 1839.73228,386.208684 1847.15636,377.818945 C1858.07484,365.481885 1861.68367,348.524411 1858.50865,333.011844 C1853.2708,307.417082 1831.52584,285.952123 1804.62606,278.766474 C1787.16906,274.10343 1767.82875,275.156448 1750.73749,280.629448 C1748.00825,281.503722 1745.31191,282.466246 1742.65597,283.516272 C1719.60959,292.625474 1696.72103,309.388499 1692.01945,332.85105 C1691.41736,335.858283 1691.1137,338.975455 1691.1466,342.200321" id="Fill-328" fill="#00A98E"></path>
                <path d="M1731.76486,343.817317 C1731.76187,343.83751 1731.75813,343.859198 1731.75514,343.879391 C1731.74392,343.845736 1731.73644,343.815821 1731.72597,343.782914 C1731.73943,343.79488 1731.7514,343.805351 1731.76486,343.817317" id="Fill-330" fill="#00A98E"></path>
                <path d="M1718.13173,380.498531 C1719.06591,383.449673 1720.11677,386.362673 1721.26935,389.241271 C1719.73457,388.356526 1718.23494,387.420178 1716.77571,386.425495 C1710.86995,372.789364 1708.12799,357.829483 1707.91632,343.307112 C1707.84526,338.449619 1708.04721,333.589882 1708.51991,328.748843 C1708.9941,323.889854 1709.46381,320.846722 1710.50869,316.062522 C1711.5042,311.502686 1712.75925,306.983983 1714.306,302.535582 C1714.79515,301.12732 1715.32544,299.729529 1715.87369,298.336973 C1720.41595,294.884002 1725.34414,291.806468 1730.44811,289.117833 C1724.95596,299.416914 1720.44661,310.074979 1717.42642,321.04192 C1712.00607,340.72318 1711.93876,360.945159 1718.13173,380.498531" id="Fill-332" fill="#00BC9D"></path>
                <path d="M1787.73795,383.470763 C1789.58836,371.228685 1791.92419,359.004555 1793.34528,346.72209 C1796.06406,323.21691 1794.88006,299.690041 1791.34678,276.338176 C1793.23533,276.536365 1795.11417,276.79214 1796.97954,277.108495 C1800.91222,287.611 1802.83967,298.68414 1803.66914,309.632383 C1804.72973,323.648438 1804.15531,337.709365 1803.29742,351.720933 C1802.36997,366.846097 1801.65942,381.983974 1800.30639,397.087449 C1800.22561,397.98416 1800.13586,398.880122 1800.05134,399.776833 C1795.06406,400.627174 1789.98702,401.255395 1784.8823,401.634571 C1785.89801,395.587198 1786.82172,389.527859 1787.73795,383.470763" id="Fill-334" fill="#00BC9D"></path>
                <path d="M1834.43183,294.201111 C1835.8589,299.101981 1836.39144,303.393328 1836.73549,308.753397 C1837.48344,320.41138 1836.41687,332.078338 1835.35853,343.696684 C1833.97259,358.915332 1832.77364,374.117528 1830.74596,389.291304 C1830.68388,389.759478 1830.61283,390.227652 1830.54851,390.696574 C1826.70632,392.715107 1822.63003,394.353717 1818.41313,395.572016 C1818.05486,395.675972 1817.69136,395.774692 1817.3316,395.876404 C1818.8028,379.329517 1819.63527,362.72953 1820.52981,346.174416 C1821.66892,325.087886 1821.6966,303.433713 1816.14536,282.84976 C1822.78859,285.803145 1828.9524,289.65025 1834.43183,294.201111" id="Fill-336" fill="#00BC9D"></path>
                <path d="M1852.73595,338.541982 C1853.27147,332.467685 1853.8242,325.961113 1853.99399,319.334131 C1856.01194,323.709988 1857.54298,328.290017 1858.50857,333.011396 C1861.45622,347.41261 1858.5527,363.056055 1849.38591,375.095458 C1850.715,362.925924 1851.66265,350.732457 1852.73595,338.541982" id="Fill-338" fill="#00BC9D"></path>
                <path d="M1755.18484,279.33292 C1758.01207,278.57008 1760.89165,277.932137 1763.80115,277.414603 C1758.16165,286.154351 1754.94176,295.881303 1752.90436,305.890206 C1750.09284,319.702837 1748.31947,333.747311 1748.09882,347.768601 C1747.87519,361.982845 1749.86696,375.782762 1753.89539,389.571461 C1755.03375,393.464186 1756.38304,397.310542 1757.99037,401.077624 C1753.06218,400.465108 1748.21102,399.554936 1743.49822,398.296251 C1743.45933,398.226698 1743.41894,398.157893 1743.38005,398.08834 C1743.12575,397.632132 1742.87594,397.17368 1742.62463,396.716724 C1743.11677,397.611191 1742.3808,396.230601 1742.0891,395.624069 C1741.51543,394.431945 1740.95447,393.236082 1740.40772,392.034984 C1736.62687,383.714797 1733.54385,375.142575 1731.7241,366.348979 C1725.45035,336.047048 1737.96644,305.833367 1755.18484,279.33292" id="Fill-340" fill="#00BC9D"></path>
                <path d="M1741.35963,387.185343 C1748.679,387.483748 1756.50324,386.041832 1763.52418,385.07856 C1766.85702,384.620856 1770.13002,383.953746 1773.34842,383.085455 C1781.20407,380.967453 1788.82411,378.014067 1796.30654,375.154167 C1799.90639,373.778064 1803.41275,372.223966 1806.81439,370.521039 C1817.64162,365.103382 1827.8503,358.425545 1837.06571,351.19577 C1840.00737,348.888555 1842.79196,346.431015 1845.34843,343.81268 C1849.6349,339.423361 1854.03206,334.886709 1857.82712,330.085308 C1858.07693,331.054563 1858.3073,332.029053 1858.5085,333.01177 C1861.68352,348.524336 1858.07469,365.48181 1847.15621,377.819618 C1839.73213,386.20861 1829.55935,392.350216 1818.4135,395.572091 C1792.21529,403.143647 1760.73286,405.233977 1734.89665,395.563116 C1726.70368,392.496053 1719.03203,388.580143 1712.41796,383.171461 C1721.86972,385.387435 1731.57952,386.786722 1741.35963,387.185343" id="Fill-342" fill-opacity="0.3" fill="#000000"></path>
                <path d="M1584.28929,374.136075 C1584.82482,384.519668 1590.06117,394.262325 1597.46431,401.185468 C1602.24666,405.657802 1607.89288,408.655313 1613.93103,410.867547 C1630.77771,417.038321 1650.88915,414.698946 1667.44937,408.608196 C1674.49499,406.016785 1680.82933,401.376178 1685.33494,395.213631 C1691.96022,386.150798 1693.76201,374.0037 1691.26089,363.066675 C1687.13449,345.021781 1672.55483,330.358808 1655.10007,325.982951 C1643.77322,323.143243 1631.41196,324.416886 1620.62363,328.768811 C1618.90111,329.464341 1617.20253,330.221198 1615.53163,331.039381 C1601.03724,338.137528 1586.87418,350.669785 1584.56752,367.468708 C1584.27209,369.62186 1584.17111,371.845313 1584.28929,374.136075" id="Fill-344" fill="#00A98E"></path>
                <path d="M1610.36656,374.183192 C1610.36581,374.19815 1610.36431,374.213107 1610.36282,374.228065 C1610.35384,374.204133 1610.34861,374.183192 1610.34113,374.160008 C1610.3501,374.167486 1610.35758,374.175713 1610.36656,374.183192" id="Fill-346" fill="#00A98E"></path>
                <path d="M1602.73372,400.617975 C1603.42183,402.689608 1604.18249,404.730578 1605.00822,406.744624 C1603.997,406.158285 1603.00822,405.533803 1602.04337,404.866693 C1597.8489,395.337181 1595.64172,384.780828 1595.0688,374.468285 C1594.87732,371.018305 1594.86087,367.559352 1595.01794,364.106381 C1595.17575,360.641444 1595.38518,358.465855 1595.91023,355.038313 C1596.41136,351.771564 1597.08002,348.525757 1597.93716,345.323327 C1598.20792,344.309199 1598.5056,343.301802 1598.81525,342.297396 C1601.62228,339.720195 1604.68735,337.399518 1607.87733,335.350321 C1604.6679,342.817922 1602.09797,350.514375 1600.49288,358.388824 C1597.6118,372.5208 1598.17725,386.892099 1602.73372,400.617975" id="Fill-348" fill="#00BC9D"></path>
                <path d="M1647.42842,400.841443 C1648.24592,392.09272 1649.37532,383.34325 1649.91533,374.576578 C1650.95049,357.800839 1649.48452,341.115594 1646.51743,324.618067 C1647.73358,324.707064 1648.946,324.837944 1650.15093,325.0122 C1652.98639,332.368367 1654.55482,340.184481 1655.41571,347.941512 C1656.51668,357.871888 1656.57278,367.879295 1656.44413,377.859032 C1656.30501,388.631523 1656.30501,399.407753 1655.8914,410.175757 C1655.86746,410.815196 1655.8368,411.454635 1655.80913,412.094074 C1652.63934,412.833729 1649.40449,413.417825 1646.14495,413.82542 C1646.61391,409.501167 1647.02378,405.170931 1647.42842,400.841443" id="Fill-350" fill="#00BC9D"></path>
                <path d="M1662.60494,328.572268 C1666.95049,330.490585 1671.01631,333.057316 1674.66478,336.142328 C1675.72686,339.585577 1676.19731,342.620481 1676.57951,346.420469 C1677.40898,354.683817 1677.07689,363.002507 1676.7478,371.286795 C1676.31773,382.138561 1676.00659,392.973874 1675.16365,403.810683 C1675.13822,404.145734 1675.10606,404.480038 1675.07988,404.814341 C1672.67824,406.352734 1670.11504,407.627873 1667.44937,408.608346 C1667.22274,408.691361 1666.99312,408.772132 1666.765,408.853651 C1667.21077,397.055814 1667.24443,385.237784 1667.31997,373.449669" id="Fill-352" fill="#00BC9D"></path>
                <path d="M1687.72828,367.152803 C1687.88834,362.821819 1688.0469,358.183455 1687.9564,353.470303 C1689.38123,356.525401 1690.50016,359.737554 1691.26156,363.066376 C1693.58318,373.219621 1692.1935,384.414665 1686.68191,393.217983 C1687.16657,384.534326 1687.40741,375.843939 1687.72828,367.152803" id="Fill-354" fill="#00BC9D"></path>
                <path d="M1617.81966,404.738954 C1622.51899,404.752416 1627.49057,403.515419 1631.95953,402.640398 C1634.08219,402.225323 1636.15998,401.662168 1638.19513,400.958411 C1643.16597,399.239779 1647.96028,396.934807 1652.66933,394.699388 C1654.93485,393.623933 1657.13456,392.424331 1659.2632,391.122268 C1666.03882,386.978255 1672.37914,381.956976 1678.06725,376.569982 C1679.88325,374.850602 1681.5938,373.028761 1683.15326,371.098478 C1685.76732,367.863141 1688.4487,364.520109 1690.73591,361.005812 C1690.92514,361.68788 1691.1024,362.374436 1691.26097,363.066227 C1693.76209,374.003252 1691.96029,386.151097 1685.33501,395.21393 C1680.8294,401.376477 1674.49507,406.016337 1667.44869,408.608495 C1650.88923,414.699246 1630.77778,417.03862 1613.93111,410.867099 C1608.58855,408.91064 1603.55489,406.33643 1599.15324,402.671809 C1605.27665,403.990325 1611.54068,404.721005 1617.81966,404.738954" id="Fill-356" fill-opacity="0.4" fill="#000000"></path>
                <path d="M2321.07921,102.090741 C2320.25423,95.9521267 2315.50927,89.3378591 2309.02535,88.1008625 C2301.03433,86.577427 2292.92288,86.2835094 2285.01189,87.3006288 C2284.27292,80.9219441 2282.424,74.7040539 2279.39483,68.5841363 C2274.60799,58.9162669 2266.09715,50.2954321 2256.38735,45.5740537 C2244.93633,40.005325 2231.4023,46.7011117 2231.06498,60.1031554 C2230.86602,68.0149981 2231.27739,75.9791925 2232.27739,83.8723382 C2227.41352,86.058397 2222.68801,88.5421128 2218.15921,91.3062843 C2207.25196,97.9601896 2207.29833,113.701608 2218.15921,120.365984 C2227.2931,125.970611 2237.49579,128.847712 2248.12556,129.659912 C2253.53245,130.073491 2258.79124,129.606813 2263.92736,128.514905 C2267.40231,129.007759 2271.01338,128.394496 2274.23253,126.334829 C2275.60725,125.456068 2276.99692,124.615449 2278.4412,123.855601 C2278.44793,123.852609 2278.45467,123.850365 2278.46065,123.847374 C2281.30732,124.34322 2284.21458,124.631154 2287.20635,124.676775 C2296.37389,124.816629 2304.73216,122.4436 2313.0448,118.857506 C2319.0837,116.251885 2321.86978,107.969841 2321.07921,102.090741" id="Fill-358" fill="#F5F5F5"></path>
            </g>
        </g>
    </g>
</svg>