<?xml version="1.0" encoding="UTF-8"?>
<svg width="1024px" height="768px" viewBox="0 0 1024 768" version="1.1" xmlns="http://www.w3.org/2000/svg" xmlns:xlink="http://www.w3.org/1999/xlink">
    <title>Background_02</title>
    <defs>
        <polygon id="path-1" points="0 0.150936521 2595.23305 0.150936521 2595.23305 818.258129 0 818.258129"></polygon>
    </defs>
    <g id="Background_02" stroke="none" stroke-width="1" fill="none" fill-rule="evenodd">
        <g id="Group-589" transform="translate(-1191.000000, -124.000000)">
            <g id="Group-76" transform="translate(0.000000, 98.000000)">
                <path d="M2233.49447,821.515177 C2238.1472,821.339564 2242.61626,821.838126 2246.90388,822.999702 L2731.79298,822.999702 L2731.79298,27.5783877 C2730.52216,21.9543063 2729.53689,16.2573009 2728.88252,10.5044863 L3.84041568,10.5044863 L3.84041568,822.999702 L2221.55889,822.999702 C2225.50668,822.181911 2229.51917,821.693022 2233.49447,821.515177" id="Fill-3" fill="#00484A"></path>
                <g id="Group-7">
                    <mask id="mask-2" fill="white">
                        <use xlink:href="#path-1"></use>
                    </mask>
                    <g id="Clip-6"></g>
                    <path d="M60.7930976,817.047909 C527.809684,821.965074 991.488978,814.214289 1455.27312,749.922809 C1585.47441,731.874106 1715.1931,710.349605 1844.24478,685.368653 C2061.91766,643.233435 2286.84291,609.280592 2490.28693,516.760807 C2535.3218,496.280311 2585.49646,466.275784 2593.96983,412.999557 C2604.1215,349.171665 2551.15982,292.235096 2504.19827,257.191369 C2410.19412,187.042897 2299.23135,143.082345 2186.83788,109.615415 C1788.56745,-8.97695063 1365.45248,-3.5031821 949.973583,2.96547884 C652.422049,7.59838843 354.870515,12.231298 57.3182375,16.8642076 C40.1908134,17.1306036 20.6890627,18.5049987 10.0257856,31.9193034 C1.73460435,42.349675 1.55019064,56.8578405 1.74724562,70.1835946 C3.15934905,165.656059 4.57070887,261.128524 5.9820687,356.600989 C38.2001863,304.22515 95.064305,272.846228 150.532679,246.358427 C545.230832,57.8795213 1019.06255,-5.01077523 1443.90639,106.167149 C1587.61376,143.774379 1730.86455,183.318562 1872.58277,227.907154 C1944.63648,250.577605 2016.29237,274.539108 2087.31842,300.259718 C2139.59896,319.192439 2237.12036,337.617668 2266.3544,390.89464 C2350.16969,543.672014 1846.09933,618.100681 1761.08758,633.428126 C1438.87071,691.524039 1108.93003,688.890587 783.817567,720.394521 C767.48803,721.976527 751.165185,723.624015 734.850519,725.351124 C611.805671,738.375509 488.741489,755.932346 365.026654,753.932143 C241.311819,751.932685 115.271736,729.233214 8.33483081,666.949378 C5.68388361,703.777511 3.03368002,740.604901 0.382732825,777.433035 C-0.410692324,788.459449 -0.692518127,800.967412 7.06103767,808.841721 C14.1892228,816.081293 25.4763833,816.654268 35.6317791,816.771095 C44.0203725,816.867087 52.406735,816.959359 60.7930976,817.047909" id="Fill-5" fill="#004143" mask="url(#mask-2)"></path>
                </g>
                <path d="M2720.54694,583.377523 C2676.50552,606.581509 2628.72824,619.593243 2581.18817,633.210693 C2536.89914,645.896502 2494.48175,663.230846 2451.93126,680.76908 C2407.34701,699.145941 2362.90554,717.917931 2317.66394,734.63763 C2272.08327,751.483086 2225.72924,764.962873 2178.77587,777.364427 C2117.19136,793.629467 2055.32576,808.816272 1993.23039,823 L2221.55911,823 C2225.50691,822.181465 2229.51939,821.69332 2233.4947,821.514731 C2238.14742,821.339862 2242.61574,821.83768 2246.9041,823 L2731.7932,823 L2731.7932,577.37245 C2728.03801,579.40465 2724.28727,581.407085 2720.54694,583.377523" id="Fill-10" fill="#004143"></path>
                <path d="M1448.03049,304.04217 C1360.73365,222.256359 1235.54574,218.357899 1133.31956,209.339128 C1105.98097,206.926682 1046.75219,205.048515 1019.38981,204.256024 C1001.28752,186.602451 898.299149,161.018759 880.469763,161.70112 C861.45656,162.428128 842.487973,164.516137 823.724621,167.657825 C808.058378,170.281602 792.042642,173.290091 777.288801,179.354693 C767.207765,183.498714 758.096389,188.506662 749.991109,195.935241 C742.714203,202.604071 737.771469,210.823654 734.332302,219.989016 C733.847472,221.281558 733.422131,222.600144 733.043637,223.9351 C606.750728,240.816274 479.936552,275.034024 365.683331,352.029172 C334.245254,373.215097 301.743823,400.932189 289.7257,445.435207 C285.194179,462.214436 284.282521,482.3065 292.039795,496.784156 C299.901173,511.457517 314.205877,516.422306 327.368407,520.03279 C459.646582,556.314738 597.994051,559.104455 732.569218,560.120927 C813.899385,560.735572 895.248143,557.839446 976.437026,551.346229 C975.796783,554.960434 975.79827,558.772576 976.616235,562.775213 C978.333959,571.189756 984.529665,578.822225 992.138218,582.689432 C998.319796,585.830375 1004.75271,587.348386 1011.48381,588.684831 C1037.54935,593.857974 1064.31016,595.84627 1090.83525,594.101302 C1117.16254,592.368984 1143.41472,587.542602 1168.46302,579.206192 C1181.50954,574.864235 1194.30622,569.609983 1206.68053,563.616816 C1219.14035,557.582723 1232.80407,548.737334 1235.81789,534.119038 C1236.9861,528.451797 1236.4797,522.750327 1234.53369,517.571231 C1301.38738,504.066144 1367.41493,484.329026 1429.93118,450.231824 C1453.57778,437.335428 1479.65819,417.189043 1483.20815,383.153603 C1486.55511,351.064788 1467.77763,322.542555 1448.03049,304.04217" id="Fill-14" fill="#005153"></path>
                <path d="M1531.4803,396.976357 C1531.61936,396.712937 1531.65356,396.645966 1531.4803,396.976357" id="Fill-16" fill="#005153"></path>
                <path d="M1541.01249,409.28616 C1540.96043,409.318901 1540.90987,409.354619 1540.85782,409.386616 C1540.4057,409.6039 1539.95434,409.825649 1539.49479,410.017633 C1539.28956,410.067489 1539.57064,409.887411 1541.01249,409.28616 M1598.27294,320.203479 C1586.30985,290.86271 1553.71026,274.334251 1523.71478,265.194933 C1523.33108,265.079594 1522.94663,264.963511 1522.56219,264.847427 C1510.03767,261.130533 1497.15102,258.310307 1484.17885,256.722349 C1477.03728,255.848004 1463.60631,253.092517 1456.92875,257.210493 C1447.69319,262.904522 1460.72931,271.375618 1466.0089,275.006938 C1493.79291,294.118992 1518.81443,308.959781 1534.13415,331.639161 C1546.85424,350.478866 1544.08506,379.901488 1533.1868,398.945083 C1529.62271,405.171904 1525.17819,410.610699 1522.22906,417.3465 C1522.22459,417.355429 1522.22088,417.364359 1522.21716,417.373288 C1513.89177,436.42358 1527.9496,447.887539 1542.36882,445.007783 C1550.64661,443.354342 1558.04473,437.502558 1564.58472,430.834473 C1587.38956,407.582862 1605.49111,372.987842 1602.78736,339.36911 C1602.2304,332.439837 1600.66363,326.06568 1598.27294,320.203479" id="Fill-18" fill="#005153"></path>
                <path d="M1543.15399,323.328126 C1542.53977,322.203756 1541.14105,320.600171 1543.15399,323.328126" id="Fill-20" fill="#005153"></path>
                <path d="M1462.4306,499.363733 C1452.53324,491.951524 1438.30215,492.726156 1425.66163,494.084181 C1406.2506,496.169957 1387.8003,503.38795 1373.52014,513.394916 C1363.90906,520.129973 1354.08829,529.089213 1357.22853,539.635668 C1359.11951,545.983037 1365.70858,550.42173 1373.59524,552.516436 C1379.26596,554.022541 1385.481,553.670571 1391.27739,552.898172 C1394.93146,553.100573 1398.27991,552.465092 1401.85664,551.235801 C1411.67296,547.863436 1421.46919,544.456841 1431.24089,541.010807 C1435.73746,539.425825 1440.33516,537.942044 1444.7834,536.27 C1447.77566,535.699257 1450.56343,534.515358 1452.95858,532.806107 C1455.29572,531.665367 1457.53546,530.407799 1459.63019,528.976851 C1470.91363,521.272201 1473.89474,507.949424 1462.4306,499.363733" id="Fill-22" fill="#005153"></path>
                <path d="M1157.34116,176.515046 C1157.69883,176.436169 1158.06543,176.35878 1158.41715,176.272462 C1158.48556,176.259067 1158.55398,176.247161 1158.62239,176.233767 C1156.0577,177.04635 1156.39752,176.785162 1157.34116,176.515046 M1454.17065,185.970616 C1449.21825,180.99169 1438.7959,176.6475 1429.26142,173.711935 C1355.2721,150.935075 1276.66724,151.151614 1193.95918,154.71001 C1178.26542,155.38493 1111.39983,157.594975 1122.31296,173.643475 C1128.12497,182.190472 1168.66624,181.848919 1182.27716,182.875065 C1238.5345,187.116566 1292.24872,197.910069 1348.33502,201.618034 C1372.35491,203.205992 1430.44003,210.994727 1449.74249,200.324748 C1449.76257,200.314331 1449.7819,200.303169 1449.80124,200.292751 C1458.65458,195.379307 1458.59807,190.421216 1454.17065,185.970616" id="Fill-36" fill="#005153"></path>
                <path d="M1720.05248,370.123787 C1720.04355,370.028539 1720.03463,369.932547 1720.02496,369.832835 C1717.67815,346.02462 1703.09088,324.911619 1686.16646,308.837819 C1678.77206,301.814787 1609.50612,252.540452 1617.76681,275.503343 C1622.75937,289.381236 1645.29056,313.329345 1651.40744,323.796179 C1668.93418,353.789543 1655.53221,370.175875 1636.54801,392.77861 C1632.05962,398.121413 1629.91804,406.701895 1634.66223,411.825926 C1665.03696,444.612728 1723.83965,411.471723 1720.05248,370.123787" id="Fill-38" fill="#005153"></path>
                <path d="M1683.15226,361.044966 C1683.15151,360.988412 1683.14928,360.931859 1683.1478,360.875306 C1683.09054,361.979584 1683.08608,362.321136 1683.09872,362.292116 C1683.11062,362.085994 1683.124,361.880616 1683.13367,361.675238 C1683.14259,361.465395 1683.14705,361.254808 1683.15226,361.044966" id="Fill-40" fill="#005153"></path>
                <path d="M1681.892,350.453938 C1681.87638,350.399617 1681.85928,350.345296 1681.84366,350.290975 C1682.066,351.366233 1682.14334,351.669091 1682.14334,351.61477 C1682.10467,351.424274 1682.06898,351.233035 1682.02808,351.042539 C1681.98569,350.846091 1681.93885,350.649642 1681.892,350.453938" id="Fill-42" fill="#005153"></path>
                <path d="M1161.10602,336.677468 C1160.87774,336.111935 1160.63012,335.56054 1160.36316,335.02626 C1161.01679,335.213779 1161.66893,335.406506 1162.32107,335.597002 C1161.92027,335.961622 1161.51352,336.320289 1161.10602,336.677468 M490.978547,428.772359 C490.898981,428.723247 490.824621,428.671902 490.749517,428.620558 C490.46323,428.378718 490.18066,428.136134 489.909245,427.886853 C489.816294,427.709007 489.709215,427.528185 489.593213,427.345131 C489.777627,427.433682 490.263944,427.863785 491.154037,428.874304 C491.096036,428.83933 491.036548,428.807333 490.978547,428.772359 M1247.27259,315.019025 C1230.30281,281.515633 1146.42282,276.988389 1115.30747,271.873288 C1060.33657,262.835914 1004.64065,258.233514 948.932092,258.034833 C809.793429,257.538503 643.261149,266.552808 529.636273,357.405014 C502.713357,378.936956 459.327799,429.598336 500.634241,459.771034 C513.822053,469.404449 530.631958,472.256673 546.804595,474.504668 C752.544123,503.099081 1023.1073,491.068101 1205.05375,378.869241 C1223.54717,367.464812 1259.4952,341.247128 1247.60721,315.706595 C1247.49939,315.474429 1247.38785,315.245239 1247.27259,315.019025" id="Fill-46" fill="#005B5D"></path>
                <path d="M1336.91788,296.73012 C1334.10334,295.019381 1331.06275,293.5862 1327.80948,292.481178 C1319.04314,289.501709 1299.53246,289.992087 1306.29182,304.229391 C1311.40633,315.002059 1318.93308,324.192722 1325.5757,333.988357 C1327.51353,336.845045 1328.88622,340.476365 1327.03316,343.734135 C1325.87016,345.778241 1323.93977,347.253093 1322.03465,348.630464 C1313.06382,355.113264 1303.46315,360.723951 1293.41335,365.35686 C1286.3045,368.633978 1274.19194,373.261679 1273.16353,382.498477 C1272.17603,391.372143 1282.71958,394.722929 1289.68864,396.043003 C1316.72012,401.162569 1344.73539,385.115558 1355.91547,360.312451 C1366.21066,337.473829 1357.82207,309.438996 1336.91788,296.73012" id="Fill-48" fill="#005B5D"></path>
                <path d="M1294.65279,276.953787 C1296.52146,268.893447 1290.88197,259.968436 1280.62396,256.971853 C1271.05229,254.176927 1259.91906,258.230909 1258.05633,266.264461 C1256.18691,274.324801 1261.82714,283.250556 1272.08516,286.246395 C1281.65682,289.042065 1292.79006,284.988083 1294.65279,276.953787" id="Fill-50" fill="#005B5D"></path>
                <path d="M1233.34906,423.361097 C1222.74304,422.575303 1210.79927,427.517768 1200.86622,430.745773 C1178.94775,437.869262 1158.69496,449.443351 1136.81665,456.560143 C1112.69118,464.40692 1087.83548,469.523509 1063.89664,478.162033 C1055.8568,481.063368 987.359003,502.563313 1005.8145,511.957865 C1008.3487,513.248175 1050.11395,512.308347 1052.95749,512.258491 C1075.30129,511.868571 1097.99311,503.945893 1119.22448,497.687075 C1145.16584,490.038979 1172.2925,482.384186 1196.3109,469.712516 C1212.94606,460.935586 1227.45971,448.9433 1237.07972,432.623195 C1240.88027,426.17537 1238.40259,423.736879 1233.34906,423.361097" id="Fill-58" fill="#005B5D"></path>
                <path d="M1881.66284,205.51962 C1881.63533,205.526317 1881.60856,205.53227 1881.58179,205.538223 C1881.60187,205.553105 1881.6212,205.566499 1881.64277,205.581382 C1881.64946,205.560546 1881.65689,205.539711 1881.66284,205.51962" id="Fill-74" fill="#006695"></path>
            </g>
            <g id="Group-81" transform="translate(158.000000, 235.000000)" fill="#006C52">
                <path d="M1099.96338,0.543328546 C1100.21094,0.616168761 1100.4585,0.681576302 1100.70234,0.730631957 C1098.66909,0.324064632 1098.89881,0.365687612 1099.96338,0.543328546" id="Fill-77"></path>
            </g>
            <g id="Group-588" transform="translate(63.000000, 0.000000)">
                <path d="M1384.98728,624.614081 C1385.48924,624.392302 1386.06335,624.505424 1386.5958,624.548589 C1387.17437,624.596964 1387.63692,625.103782 1387.72988,625.65823 C1387.83771,626.307195 1387.40639,627.117657 1386.69099,627.179428 C1386.16894,627.224081 1385.54279,627.360275 1385.05718,627.140728 C1384.0406,626.67782 1383.89485,625.097828 1384.98728,624.614081" id="Fill-88" fill="#00EA9C"></path>
                <path d="M1366.81897,602.107055 C1368.19176,602.107055 1368.15755,604.324848 1366.75948,604.324848 C1365.38669,604.324848 1365.4209,602.107055 1366.81897,602.107055" id="Fill-90" fill="#00EA9C"></path>
                <path d="M1656.91507,458.017193 C1658.65225,458.017193 1659.05903,460.824413 1657.30624,460.824413 C1655.56832,460.824413 1655.16228,458.017193 1656.91507,458.017193" id="Fill-92" fill="#00EA9C"></path>
                <path d="M1752.63334,384.365777 C1754.10503,384.365777 1754.00687,386.74209 1752.51064,386.74209 C1751.03969,386.74209 1751.13785,384.365777 1752.63334,384.365777" id="Fill-94" fill="#00EA9C"></path>
                <path d="M1786.0517,376.597547 C1787.38433,376.597547 1787.37318,378.752825 1786.01452,378.752825 C1784.68115,378.752825 1784.6923,376.597547 1786.0517,376.597547" id="Fill-96" fill="#00EA9C"></path>
                <path d="M2067.28797,342.836636 C2068.11938,342.707885 2068.95302,343.501973 2068.80429,344.355601 C2068.73959,344.726969 2068.67861,345.087919 2068.52839,345.434728 C2068.37148,345.798654 2068.16326,346.090391 2067.75201,346.186396 C2067.30359,346.291332 2066.74585,346.061366 2066.55622,345.622273 C2066.54209,345.588783 2066.52647,345.55306 2066.52127,345.540408 C2066.43575,345.3417 2066.34874,345.148201 2066.29668,344.936097 C2066.25355,344.757482 2066.22975,344.57217 2066.19926,344.390579 C2066.07805,343.677611 2066.56589,342.948269 2067.28797,342.836636" id="Fill-116" fill="#00EA9C"></path>
                <path d="M2066.61073,345.621678 L2066.61073,345.622422 L2066.61073,345.621678 Z" id="Fill-118" fill="#00EA9C"></path>
                <path d="M1922.6489,705.880044 C1922.72921,705.891952 1922.81027,705.900883 1922.89133,705.912046 C1923.0408,706.014749 1923.20887,706.091405 1923.40371,706.133825 C1924.22024,706.310951 1925.04495,705.763945 1925.21971,704.931901 C1925.39298,704.100601 1924.85532,703.258881 1924.04027,703.0825 C1923.64837,702.996914 1923.22002,703.083244 1922.88017,703.304279 C1922.87125,703.304279 1922.86307,703.306512 1922.8534,703.308 C1922.62436,703.319163 1922.41241,703.389121 1922.21906,703.515639 C1921.93647,703.703184 1921.73569,704.000874 1921.66578,704.337264 C1921.52821,704.997393 1921.96027,705.779574 1922.6489,705.880044" id="Fill-144" fill="#00EA9C"></path>
                <path d="M1934.35856,717.326536 C1935.7663,717.326536 1935.65252,715.111719 1934.25593,715.111719 C1932.84968,715.111719 1932.96123,717.326536 1934.35856,717.326536" id="Fill-146" fill="#00EA9C"></path>
                <path d="M1966.89926,720.418273 C1968.01771,720.418273 1967.92773,718.65669 1966.81746,718.65669 C1965.699,718.65669 1965.78898,720.418273 1966.89926,720.418273" id="Fill-148" fill="#00EA9C"></path>
                <path d="M1968.79476,593.830073 C1969.0424,593.997524 1969.32201,594.121065 1969.61724,594.185068 C1970.88815,594.461176 1972.17541,593.608293 1972.44536,592.311852 C1972.71531,591.017643 1971.88018,589.705573 1970.60928,589.430954 C1969.99353,589.296993 1969.34358,589.420535 1968.81484,589.768832 C1968.80368,589.776275 1968.79327,589.785205 1968.78137,589.792648 C1968.57389,589.848464 1968.37311,589.934795 1968.18496,590.058336 C1967.73133,590.358259 1967.41007,590.835308 1967.29778,591.372639 C1967.0784,592.424974 1967.741,593.594153 1968.79476,593.830073" id="Fill-150" fill="#00EA9C"></path>
                <path d="M1736.31978,741.423005 C1736.80614,741.530174 1737.37875,741.266718 1737.6011,740.805298 C1738.03465,740.756923 1738.45928,740.741294 1738.82739,740.447325 C1739.39034,739.997813 1739.61343,739.063065 1738.96794,738.547317 C1738.52993,738.19753 1738.13356,738.106735 1737.59218,738.114177 C1737.27092,738.120131 1736.93851,738.165529 1736.63881,738.286837 C1736.1837,738.471405 1735.80964,738.741559 1735.62298,739.222329 C1735.47648,739.598163 1735.38129,739.916692 1735.40658,740.327505 C1735.43781,740.857393 1735.80592,741.31286 1736.31978,741.423005" id="Fill-152" fill="#00EA9C"></path>
                <path d="M1704.88445,754.883743 C1706.58817,754.883743 1706.45208,752.202298 1704.76026,752.202298 C1703.05655,752.202298 1703.1919,754.883743 1704.88445,754.883743" id="Fill-154" fill="#00EA9C"></path>
                <path d="M1595.73162,643.318188 C1595.75988,643.668719 1595.85283,644.015528 1596.0038,644.333312 C1596.12724,645.491328 1597.181,646.383654 1598.32251,646.33007 C1599.44989,646.27723 1600.20768,645.436255 1600.39731,644.395083 C1600.80409,643.568248 1600.81822,642.474236 1600.61297,641.628051 C1600.34674,640.522876 1599.16805,639.79279 1598.09941,639.843398 C1596.94377,639.897726 1596.02982,640.747632 1595.75988,641.86918 C1595.64015,642.36037 1595.6922,642.828488 1595.73162,643.318188" id="Fill-156" fill="#00EA9C"></path>
                <path d="M1598.28072,692.70494 C1600.01938,692.70494 1599.88032,689.968422 1598.15504,689.968422 C1596.41563,689.968422 1596.55395,692.70494 1598.28072,692.70494" id="Fill-158" fill="#00EA9C"></path>
                <path d="M1581.18863,701.767899 C1582.84921,701.767899 1582.71535,699.154178 1581.06741,699.154178 C1579.40683,699.154178 1579.53995,701.767899 1581.18863,701.767899" id="Fill-160" fill="#00EA9C"></path>
                <path d="M1615.28781,322.480571 C1615.78754,322.932316 1616.39585,323.114651 1617.05101,323.114651 C1618.40298,323.114651 1619.47086,321.797371 1619.41063,320.471161 C1619.38014,319.795404 1619.07673,319.147183 1618.58071,318.699903 C1618.08097,318.248158 1617.47341,318.065823 1616.81825,318.065823 C1615.4648,318.065823 1614.39765,319.382358 1614.45714,320.70708 C1614.48912,321.384326 1614.79328,322.031058 1615.28781,322.480571" id="Fill-162" fill="#00EA9C"></path>
                <path d="M1655.75996,281.909322 C1655.83878,281.92123 1655.91984,281.928672 1656.00164,281.939836 C1656.05742,281.978536 1656.11691,282.01277 1656.17417,282.036585 C1656.51476,282.182453 1656.8509,282.237526 1657.21306,282.122171 C1657.6823,281.969605 1658.04372,281.560281 1658.14709,281.072068 C1658.24971,280.580135 1658.08239,280.057689 1657.71279,279.724275 C1657.3774,279.419887 1656.81,279.250948 1656.37719,279.435516 C1656.25672,279.486123 1656.14814,279.542684 1656.04924,279.606688 C1656.0128,279.610409 1655.97785,279.617851 1655.94215,279.621572 C1655.73839,279.63348 1655.5495,279.695251 1655.37697,279.809117 C1655.12636,279.974335 1654.94788,280.240024 1654.88542,280.537714 C1654.76346,281.121932 1655.14718,281.819271 1655.75996,281.909322" id="Fill-164" fill="#00EA9C"></path>
                <path d="M1664.19003,293.606171 C1665.73683,293.606171 1665.61338,291.172553 1664.07699,291.172553 C1662.53093,291.172553 1662.65438,293.606171 1664.19003,293.606171" id="Fill-166" fill="#00EA9C"></path>
                <path d="M1866.82399,280.420127 C1868.47565,280.420127 1868.34402,277.819057 1866.70278,277.819057 C1865.05186,277.819057 1865.18349,280.420127 1866.82399,280.420127" id="Fill-168" fill="#00EA9C"></path>
                <path d="M1969.2472,420.2583 C1969.24943,420.259044 1969.25092,420.262021 1969.25389,420.26351 C1969.42419,420.41682 1969.622,420.516547 1969.84435,420.56641 C1970.14553,420.631902 1970.57091,420.593202 1970.82003,420.38333 C1970.82077,420.381842 1970.82226,420.380353 1970.82375,420.378865 C1971.10262,420.142945 1971.3101,419.916701 1971.38893,419.540122 C1971.44247,419.286341 1971.41198,419.072004 1971.3391,418.858411 C1971.33761,418.843527 1971.33613,418.830875 1971.33464,418.816735 C1971.33984,418.827898 1971.34505,418.839806 1971.35026,418.850969 C1971.34505,418.838317 1971.33984,418.82641 1971.33464,418.814502 C1971.32497,418.676076 1971.31828,418.539883 1971.30787,418.403689 C1971.25953,417.740584 1970.72038,417.212184 1970.05704,417.243441 C1969.73801,417.257582 1969.43163,417.40866 1969.21894,417.651277 C1968.99361,417.910268 1968.94379,418.18712 1968.91925,418.516812 C1968.91255,418.611328 1968.90661,418.704357 1968.89991,418.797385 C1968.72144,419.298993 1968.83075,419.90777 1969.2472,420.2583" id="Fill-170" fill="#00EA9C"></path>
                <path d="M2024.69849,299.543977 C2026.41261,299.543977 2026.27504,296.847647 2024.5743,296.847647 C2022.86166,296.847647 2022.99775,299.543977 2024.69849,299.543977" id="Fill-172" fill="#00EA9C"></path>
                <path d="M1606.50918,747.664232 C1606.61255,747.754283 1606.72261,747.821263 1606.83416,747.886755 C1606.88547,747.941828 1606.9353,747.997645 1606.98512,748.052718 C1607.33092,748.433761 1607.97567,748.51637 1608.43674,748.367525 C1609.07925,748.159886 1609.51429,747.522085 1609.48306,746.835164 C1609.45852,746.288902 1609.13652,745.785806 1608.6576,745.539467 C1608.04855,745.228381 1607.31531,745.383924 1606.8587,745.891486 C1606.84903,745.902649 1606.83937,745.913813 1606.82896,745.92572 C1606.75756,745.963676 1606.68915,746.005352 1606.62891,746.058192 C1606.41623,746.240528 1606.25857,746.409467 1606.19685,746.696738 C1606.12471,747.045036 1606.24221,747.430545 1606.50918,747.664232" id="Fill-176" fill="#00EA9C"></path>
                <path d="M1626.7415,727.074108 C1627.88822,727.074108 1627.79601,725.26936 1626.65747,725.26936 C1625.5115,725.26936 1625.60371,727.074108 1626.7415,727.074108" id="Fill-178" fill="#00EA9C"></path>
                <path d="M1632.4347,746.919262 C1633.50408,746.919262 1633.41856,745.236567 1632.35736,745.236567 C1631.28873,745.236567 1631.37425,746.919262 1632.4347,746.919262" id="Fill-180" fill="#00EA9C"></path>
                <path d="M1968.89315,449.278047 C1968.91471,449.619647 1969.05526,449.951571 1969.34603,450.19791 C1969.57582,450.406293 1969.87031,450.526114 1970.17223,450.546952 C1970.29865,450.558115 1970.43102,450.561092 1970.55373,450.589373 C1970.73741,450.628817 1970.92109,450.654121 1971.11147,450.65933 C1971.18806,450.663051 1971.26615,450.663796 1971.34274,450.665284 C1971.49966,450.669749 1971.65434,450.674959 1971.81125,450.665284 C1972.62257,450.622863 1973.26732,449.906918 1973.23014,449.077106 C1973.21155,448.670759 1973.02935,448.283761 1972.7304,448.012863 C1972.41881,447.730802 1972.07376,447.651914 1971.67144,447.630331 C1971.51379,447.622889 1971.3591,447.62661 1971.20219,447.630331 C1971.1256,447.634052 1971.04826,447.634796 1970.9724,447.637029 C1970.84524,447.641494 1970.72477,447.668287 1970.6043,447.698056 C1970.23247,447.72708 1969.77958,447.74643 1969.51038,447.972675 C1969.49625,447.984583 1969.48212,447.99649 1969.46948,448.009142 C1969.37206,448.080588 1969.28505,448.166174 1969.21143,448.259946 C1969.0679,448.425164 1968.96528,448.611221 1968.91397,448.857559 C1968.88422,448.99673 1968.87976,449.138877 1968.89315,449.278047" id="Fill-182" fill="#00EA9C"></path>
                <path d="M2010.02797,423.461225 C2011.11221,423.461225 2011.02669,421.753971 2009.94914,421.753971 C2008.86563,421.753971 2008.95115,423.461225 2010.02797,423.461225" id="Fill-184" fill="#00EA9C"></path>
                <path d="M2010.84212,322.288635 C2011.94719,322.288635 2011.86018,320.549379 2010.7618,320.549379 C2009.65673,320.549379 2009.74448,322.288635 2010.84212,322.288635" id="Fill-186" fill="#00EA9C"></path>
                <path d="M1179.10294,335.846792 C1179.02337,335.83414 1178.94157,335.825954 1178.86051,335.81479 C1178.71178,335.712087 1178.54297,335.635432 1178.34814,335.593011 C1177.5316,335.415885 1176.70763,335.962891 1176.53213,336.794936 C1176.3596,337.62698 1176.89578,338.467956 1177.71231,338.645081 C1178.10347,338.729923 1178.53256,338.643593 1178.87167,338.422558 C1178.88134,338.422558 1178.88877,338.420325 1178.8977,338.418837 C1179.12823,338.407673 1179.34017,338.33846 1179.53203,338.211198 C1179.81611,338.023653 1180.0169,337.725218 1180.0868,337.389572 C1180.22438,336.730188 1179.79231,335.948007 1179.10294,335.846792" id="Fill-224" fill="#00EA9C"></path>
                <path d="M1167.39365,324.400003 C1165.98517,324.400003 1166.09969,326.615564 1167.49628,326.615564 C1168.90179,326.615564 1168.79024,324.400003 1167.39365,324.400003" id="Fill-226" fill="#00EA9C"></path>
                <path d="M1134.85258,321.308936 C1133.73413,321.308936 1133.82336,323.069774 1134.93438,323.069774 C1136.05359,323.069774 1135.9636,321.308936 1134.85258,321.308936" id="Fill-228" fill="#00EA9C"></path>
                <path d="M1132.95745,447.897136 C1132.70982,447.729685 1132.43094,447.606144 1132.13497,447.54214 C1130.86332,447.265288 1129.5768,448.118915 1129.30611,449.415357 C1129.03616,450.708821 1129.87129,452.021636 1131.14293,452.295511 C1131.75942,452.430216 1132.40864,452.306674 1132.93663,451.958376 C1132.94853,451.95019 1132.9582,451.942003 1132.97009,451.933817 C1133.17906,451.878744 1133.3791,451.79167 1133.56725,451.668873 C1134.02088,451.36895 1134.34139,450.891901 1134.45443,450.353825 C1134.67306,449.302234 1134.01121,448.132311 1132.95745,447.897136" id="Fill-230" fill="#00EA9C"></path>
                <path d="M1365.43258,300.303459 C1364.94548,300.197035 1364.37436,300.459747 1364.15052,300.921167 C1363.71696,300.970286 1363.29308,300.985914 1362.92423,301.279884 C1362.36203,301.728652 1362.13893,302.664144 1362.78442,303.179148 C1363.22243,303.529678 1363.61806,303.61973 1364.16018,303.612287 C1364.48144,303.607078 1364.81311,303.560936 1365.11355,303.439627 C1365.56867,303.255803 1365.94272,302.985649 1366.12938,302.504135 C1366.27588,302.128301 1366.37033,301.810517 1366.34578,301.399704 C1366.31455,300.869815 1365.94644,300.414349 1365.43258,300.303459" id="Fill-232" fill="#00EA9C"></path>
                <path d="M1396.86761,286.843465 C1395.1639,286.843465 1395.30073,289.525655 1396.9918,289.525655 C1398.69551,289.525655 1398.56017,286.843465 1396.86761,286.843465" id="Fill-234" fill="#00EA9C"></path>
                <path d="M1506.0203,398.409021 C1505.99204,398.05849 1505.89834,397.710937 1505.74812,397.393152 C1505.62467,396.235137 1504.57091,395.343554 1503.4294,395.397139 C1502.30277,395.449234 1501.54424,396.290954 1501.35461,397.332126 C1500.94857,398.158961 1500.9337,399.252973 1501.13895,400.099157 C1501.40518,401.204333 1502.58312,401.934418 1503.6525,401.883811 C1504.80814,401.828738 1505.72209,400.978832 1505.99204,399.858028 C1506.11177,399.366095 1506.05971,398.897977 1506.0203,398.409021" id="Fill-236" fill="#00EA9C"></path>
                <path d="M1503.47164,349.021896 C1501.73298,349.021896 1501.8713,351.759159 1503.59658,351.759159 C1505.33673,351.759159 1505.19767,349.021896 1503.47164,349.021896" id="Fill-238" fill="#00EA9C"></path>
                <path d="M1520.56336,339.958938 C1518.90352,339.958938 1519.03664,342.573403 1520.68458,342.573403 C1522.34516,342.573403 1522.21204,339.958938 1520.56336,339.958938" id="Fill-240" fill="#00EA9C"></path>
                <path d="M1486.46411,719.246638 C1485.96512,718.794893 1485.35606,718.612558 1484.7009,718.612558 C1483.34968,718.612558 1482.28105,719.929837 1482.34129,721.256792 C1482.37178,721.932549 1482.67519,722.579281 1483.17121,723.027305 C1483.67094,723.479795 1484.27851,723.661386 1484.93292,723.661386 C1486.28638,723.661386 1487.35426,722.34485 1487.29552,721.020128 C1487.26279,720.342883 1486.95864,719.696151 1486.46411,719.246638" id="Fill-242" fill="#00EA9C"></path>
                <path d="M1445.99241,759.818258 C1445.91358,759.805607 1445.83252,759.798164 1445.74997,759.787001 C1445.6942,759.749045 1445.63545,759.714811 1445.57745,759.690996 C1445.23685,759.544383 1444.90072,759.489311 1444.5393,759.604666 C1444.07006,759.757232 1443.70864,760.166556 1443.60527,760.655512 C1443.50265,761.146701 1443.66997,761.669148 1444.03882,762.003305 C1444.3757,762.30695 1444.94162,762.475889 1445.37443,762.292065 C1445.49564,762.240713 1445.60347,762.184152 1445.70312,762.120149 C1445.73882,762.116428 1445.77451,762.10973 1445.80947,762.105264 C1446.01397,762.093357 1446.20286,762.031586 1446.37464,761.918464 C1446.626,761.753246 1446.80448,761.487557 1446.8662,761.189122 C1446.98816,760.604905 1446.60518,759.90831 1445.99241,759.818258" id="Fill-244" fill="#00EA9C"></path>
                <path d="M1437.56241,748.120666 C1436.01635,748.120666 1436.13905,750.554284 1437.6747,750.554284 C1439.22076,750.554284 1439.09806,748.120666 1437.56241,748.120666" id="Fill-246" fill="#00EA9C"></path>
                <path d="M1234.92859,761.307082 C1233.27693,761.307082 1233.40782,763.908151 1235.04906,763.908151 C1236.70072,763.908151 1236.56761,761.307082 1234.92859,761.307082" id="Fill-248" fill="#00EA9C"></path>
                <path d="M1132.50501,621.468908 C1132.50278,621.468164 1132.50129,621.465187 1132.49832,621.463699 C1132.32802,621.310388 1132.13095,621.210662 1131.90786,621.160799 C1131.60668,621.095307 1131.18131,621.134007 1130.93293,621.343879 C1130.93144,621.345367 1130.92995,621.346855 1130.92846,621.348344 C1130.64959,621.584263 1130.44211,621.810508 1130.36403,622.187086 C1130.30974,622.440867 1130.34023,622.655204 1130.41311,622.868797 C1130.4146,622.883682 1130.41609,622.896334 1130.41757,622.910474 C1130.41237,622.899311 1130.40716,622.887403 1130.40196,622.87624 C1130.40716,622.888891 1130.41237,622.900799 1130.41757,622.912707 C1130.42799,623.051133 1130.43393,623.187326 1130.44435,623.323519 C1130.49268,623.98588 1131.03109,624.515025 1131.69517,624.483767 C1132.0142,624.469627 1132.32059,624.318549 1132.53327,624.075932 C1132.7586,623.816197 1132.80842,623.540089 1132.83296,623.210397 C1132.83966,623.11588 1132.84561,623.022852 1132.8523,622.929824 C1133.03078,622.428216 1132.92146,621.819439 1132.50501,621.468908" id="Fill-250" fill="#00EA9C"></path>
                <path d="M1495.2431,294.062605 C1495.13974,293.972553 1495.02967,293.905573 1494.91738,293.840081 C1494.86607,293.785009 1494.81699,293.729192 1494.76716,293.674863 C1494.42136,293.293075 1493.77587,293.209722 1493.31481,293.359311 C1492.67303,293.567695 1492.23799,294.204752 1492.26848,294.891672 C1492.29377,295.437934 1492.61503,295.941031 1493.09468,296.18737 C1493.70374,296.498456 1494.43698,296.342913 1494.89284,295.835351 C1494.90325,295.824187 1494.91218,295.813024 1494.92333,295.801116 C1494.99472,295.763161 1495.06239,295.721484 1495.12263,295.668644 C1495.33532,295.485565 1495.49371,295.31737 1495.55469,295.030098 C1495.62757,294.681056 1495.51008,294.296292 1495.2431,294.062605" id="Fill-256" fill="#00EA9C"></path>
                <path d="M1475.01086,314.652357 C1473.86414,314.652357 1473.95636,316.457849 1475.09415,316.457849 C1476.24086,316.457849 1476.14865,314.652357 1475.01086,314.652357" id="Fill-258" fill="#00EA9C"></path>
                <path d="M1469.31684,294.807575 C1468.24747,294.807575 1468.33299,296.490269 1469.39418,296.490269 C1470.46356,296.490269 1470.37804,294.807575 1469.31684,294.807575" id="Fill-260" fill="#00EA9C"></path>
                <path d="M1132.8587,592.449162 C1132.83713,592.107562 1132.69732,591.775637 1132.40655,591.529299 C1132.17676,591.320915 1131.88079,591.201095 1131.57961,591.180257 C1131.45244,591.169093 1131.32082,591.165372 1131.19811,591.137836 C1131.01443,591.098392 1130.83149,591.072344 1130.64037,591.067879 C1130.56378,591.064157 1130.48644,591.062669 1130.40984,591.061925 C1130.25219,591.057459 1130.09676,591.05225 1129.94059,591.061925 C1129.12927,591.104346 1128.48526,591.820291 1128.5217,592.650103 C1128.54104,593.055706 1128.72323,593.442703 1129.02144,593.714346 C1129.33303,593.996407 1129.67808,594.075295 1130.0804,594.096878 C1130.23806,594.10432 1130.39348,594.100599 1130.54965,594.096878 C1130.62624,594.093157 1130.70433,594.091668 1130.78018,594.09018 C1130.9066,594.085714 1131.02782,594.058178 1131.14755,594.029153 C1131.51937,594.000128 1131.973,593.980778 1132.24072,593.754534 C1132.25633,593.742626 1132.27046,593.730719 1132.28311,593.718067 C1132.38053,593.646621 1132.46679,593.561035 1132.54115,593.467263 C1132.68468,593.302044 1132.78656,593.115988 1132.83787,592.869649 C1132.86762,592.729735 1132.87134,592.588332 1132.8587,592.449162" id="Fill-262" fill="#00EA9C"></path>
                <path d="M1426.07026,522.901853 C1427.0794,524.248157 1429.23452,524.001074 1429.8458,522.402477 C1429.89711,522.267772 1429.94694,522.132323 1429.99528,521.99613 C1430.21763,521.378423 1430.33438,520.882768 1430.29869,520.221896 C1430.26225,519.543906 1429.52677,518.951502 1428.88649,518.918756 C1428.34734,518.89122 1427.52188,519.151699 1426.93439,519.381665 C1425.55937,519.920484 1425.23365,521.785514 1426.07026,522.901853" id="Fill-364" fill="#00EA9C"></path>
                <path d="M1431.79685,413.350917 C1433.24847,413.350917 1433.16369,411.00735 1431.68828,411.00735 C1430.23592,411.00735 1430.3207,413.350917 1431.79685,413.350917" id="Fill-366" fill="#00EA9C"></path>
                <path d="M1764.25228,626.469139 C1767.44702,626.469139 1767.65376,621.394263 1764.51256,621.394263 C1761.31707,621.394263 1761.11034,626.469139 1764.25228,626.469139" id="Fill-368" fill="#00EA9C"></path>
                <path d="M1473.17202,603.528303 C1474.74039,603.528303 1474.57158,600.996447 1472.97942,600.996447 C1471.41105,600.996447 1471.57986,603.528303 1473.17202,603.528303" id="Fill-384" fill="#00EA9C"></path>
                <path d="M1804.6424,231.181476 C1795.80555,200.552861 1764.73788,184.700851 1735.00136,190.166446 C1702.77731,196.089739 1686.99026,228.740415 1694.38963,259.654068 C1701.81948,290.703914 1731.31506,318.830441 1764.23071,311.334598 C1798.56897,303.514273 1813.97899,263.531484 1804.6424,231.181476 C1800.28384,216.071459 1809.32445,247.405599 1804.6424,231.181476" id="Fill-392" fill="#1A7CD2"></path>
                <path d="M1792.87102,258.950774 C1796.63391,254.104376 1796.6235,247.015624 1793.06437,242.068755 C1788.79951,236.143229 1780.3263,234.618311 1774.47671,239.16553 C1772.7202,240.531185 1771.26933,242.039731 1769.74707,243.712006 C1767.50346,246.177626 1766.39988,250.06695 1765.88973,253.261168 C1764.70286,260.698961 1770.21557,268.254341 1777.62907,269.358028 C1781.26331,269.898336 1785.01133,268.863862 1787.86548,266.556762 C1790.10759,264.745317 1791.44469,262.508918 1792.28204,259.953991 C1792.33187,259.810355 1792.39061,259.673417 1792.44639,259.532759 C1792.5862,259.33926 1792.7208,259.143529 1792.87102,258.950774" id="Fill-394" fill="#024C9E"></path>
                <path d="M1768.47706,208.526571 C1770.46856,209.37871 1769.13519,208.699976 1768.66892,208.432055 C1768.1491,208.132876 1767.60549,207.885793 1767.09311,207.568009 C1766.16355,206.991234 1765.17895,206.512696 1764.26499,205.911362 C1761.86225,204.332859 1758.48903,205.117273 1756.60535,207.105844 C1754.20334,209.642166 1754.1089,213.889463 1756.60684,216.401225 C1759.47437,219.283612 1764.12221,221.61676 1768.2547,220.1551 C1770.80767,219.252354 1772.61698,217.101541 1772.66011,214.306973 C1772.70473,211.435006 1770.95268,209.585605 1768.47706,208.526571" id="Fill-396" fill="#024C9E"></path>
                <path d="M1719.80039,226.795009 C1718.60905,225.58192 1716.94103,224.906908 1715.24029,224.962725 C1711.7585,225.075103 1708.85379,228.256668 1708.98616,231.741133 L1709.00624,232.283674 C1709.01144,232.43624 1709.01813,232.588062 1709.02334,232.739885 C1709.09176,234.533469 1709.61008,236.187883 1710.90256,237.487301 C1712.08348,238.674341 1713.67193,239.356052 1715.35556,239.312143 C1717.00573,239.269722 1718.52948,238.535915 1719.67768,237.368969 C1721.05121,235.97429 1721.54872,234.252151 1721.61788,232.346933 C1721.62383,232.190646 1721.62978,232.035103 1721.63573,231.878815 C1721.64167,231.692759 1721.64837,231.506702 1721.6558,231.32139 C1721.71604,229.683349 1720.93074,227.94707 1719.80039,226.795009" id="Fill-398" fill="#024C9E"></path>
                <path d="M1754.95763,288.509787 C1753.97973,286.783183 1752.64933,285.398179 1750.96198,284.356263 C1750.07628,283.967033 1749.19059,283.579291 1748.3049,283.190061 C1747.17826,282.19131 1745.91925,281.583277 1744.52862,281.353311 C1743.17145,280.21539 1741.63208,279.401207 1739.88821,278.954672 C1736.80874,278.189607 1733.50022,278.769359 1730.85578,280.517546 C1726.05549,283.689436 1724.7474,289.23764 1725.9365,294.580437 C1726.73593,298.170583 1728.47609,300.571455 1730.86917,303.291601 C1732.00993,304.587298 1733.66903,305.411156 1735.08792,306.317623 C1737.54644,307.889428 1740.29202,307.925151 1743.077,307.992131 C1752.53183,308.220608 1759.66794,296.869676 1754.95763,288.509787" id="Fill-400" fill="#024C9E"></path>
                <path d="M1960.90466,537.266528 C1913.12855,474.588572 1899.15528,392.937323 1912.72177,316.470352 C1913.57177,306.488795 1914.37492,296.612918 1915.6369,286.693132 C1916.96358,276.236015 1919.63256,266.009607 1920.95031,255.568863 C1923.91378,247.50592 1926.88468,239.460095 1929.86004,231.40385 C1924.13539,247.245441 1923.03552,250.31314 1926.57606,240.619599 C1930.88852,228.800548 1935.16156,217.02764 1939.77147,205.338829 C1944.27951,193.88817 1949.46576,182.723294 1954.95319,171.718427 C1980.84725,119.836956 2019.84228,76.6673918 2070.07318,47.4051762 C2182.09214,-17.861941 2326.92115,-13.1829932 2438.01351,52.1600351 C2563.36174,125.897931 2633.81783,284.924107 2595.31287,426.830112 C2561.83576,550.185544 2459.49175,654.327298 2331.80176,677.970608 C2300.68278,683.719753 2271.08308,689.513551 2239.56402,687.195287 C2189.45358,683.508393 2154.36423,675.753559 2107.50877,657.263269 C2047.00947,633.398923 1999.61412,588.061429 1960.90466,537.266528" id="Fill-402" fill="#F5B400"></path>
                <path d="M1912.72177,316.470575 C1913.57177,306.489018 1914.37492,296.613141 1915.6369,286.693355 C1916.96358,276.235494 1919.63256,266.009831 1920.95031,255.568342 C1923.91303,247.506144 1926.88468,239.459574 1929.86004,231.404074 C1924.13539,247.245665 1923.03552,250.313364 1926.57606,240.619078 C1930.88852,228.800027 1935.16156,217.027863 1939.77073,205.339052 C1944.27951,193.888393 1949.46576,182.723518 1954.95319,171.71865 C1980.84725,119.836435 2019.84228,76.6676151 2070.07318,47.4053995 C2182.09214,-17.8624619 2326.92115,-13.1827699 2438.01351,52.1602583 C2505.63628,91.9398734 2557.26749,156.546118 2584.44956,229.891062 C2579.30049,237.469514 2574.01682,244.955682 2568.60971,252.351798 C2568.61938,255.776725 2567.76789,259.273098 2565.94519,262.574484 C2547.304,296.327358 2537.99418,334.142217 2521.89331,369.038222 C2488.66682,441.050258 2445.85461,521.890301 2366.6457,552.003167 C2275.22747,586.758513 2149.05379,562.371721 2073.81674,508.355066 C2046.16319,488.501353 2030.86324,459.830797 2008.53054,434.109608 C2004.67767,429.67179 2012.98578,416.228838 2008.79603,412.099129 C2006.62158,409.95427 2004.38467,407.872671 2002.09272,405.85433 C1999.95397,403.970695 1997.14742,402.281302 1995.22879,400.180352 C1995.08898,400.076905 1994.94992,399.972713 1994.80937,399.87001 C1993.65968,399.026802 1992.50032,398.197735 1991.32906,397.385784 C1988.81997,395.644296 1986.26106,393.974253 1983.65826,392.375656 C1981.16925,390.847016 1978.63711,389.389078 1976.07001,387.995887 C1964.47941,383.185956 1952.79138,378.619386 1940.92786,374.500096 C1930.07719,370.732825 1919.04284,367.561678 1907.88727,364.843766 C1908.26059,348.639737 1909.88845,332.442405 1912.72177,316.470575" id="Fill-404" fill="#FFC100"></path>
                <path d="M2250.19003,650.185532 C2294.56837,643.206926 2338.06995,630.921991 2379.6938,614.040716 C2440.76124,589.27288 2499.77918,558.503607 2554.14406,521.077979 C2504.88734,600.418406 2425.11623,660.692512 2331.80168,677.970459 C2300.6827,683.719604 2271.08301,689.513402 2239.56394,687.195139 C2189.66099,683.523873 2154.6512,675.813693 2108.08577,657.48862 C2155.67968,661.00732 2203.04975,657.598766 2250.19003,650.185532" id="Fill-406" fill="#E2A600"></path>
                <path d="M2070.07341,47.4052506 C2176.91058,-14.8462635 2313.57649,-13.4180941 2422.36649,43.5270898 C2412.58074,54.7373636 2398.29885,63.3086125 2383.20191,68.0247716 C2354.19863,77.0976287 2321.8318,69.2133003 2291.99265,75.8882618 C2264.29894,82.0846861 2237.50283,92.712231 2212.13081,105.27253 C2152.29783,134.892719 2101.26006,178.853394 2038.39446,202.558476 C2006.5876,214.550186 1969.31487,218.842137 1944.74898,193.639673 C1947.97942,186.256953 1951.3571,178.933027 1954.95341,171.718501 C1980.84747,119.83703 2019.8425,76.6674662 2070.07341,47.4052506" id="Fill-408" fill="#FFCE00"></path>
                <path d="M2154.29343,242.497132 C2168.56268,236.426482 2203.96214,231.514591 2223.38714,229.956182 C2256.1325,227.328321 2277.7788,219.50874 2310.40963,222.397825 C2332.61888,224.364814 2266.76751,254.929424 2258.50624,257.355601 C2229.51635,265.8688 2176.54061,274.072401 2148.72048,258.838843 C2134.80298,251.21797 2154.09636,242.581229 2154.29343,242.497132" id="Fill-410" fill="#FFCE00"></path>
                <path d="M2029.09795,263.726322 C2029.15075,263.720369 2029.20355,263.715903 2029.25561,263.710694 C2026.09061,264.384218 2025.79092,264.33882 2026.4022,264.161695 C2027.2998,264.012849 2028.20408,263.887075 2029.09795,263.726322" id="Fill-414" fill="#DD9200"></path>
                <path d="M1930.01941,484.098737 C1933.41196,483.691645 1936.54424,484.663604 1939.30691,486.579985 C1948.95137,493.269831 1958.59658,499.960422 1968.24103,506.650268 C1969.81461,507.741303 1970.70699,509.025837 1971.07808,510.366932 C2021.65255,546.615939 2023.00006,556.776855 2089.14964,568.741773 C2097.39677,570.233946 2167.15754,588.162346 2170.75683,595.4699 C2177.65498,609.474742 2103.01211,606.40481 2092.11682,606.359412 C2043.41561,606.158471 2045.99089,604.321722 2002.39933,585.358104 C1987.50987,570.31209 1973.72698,554.092432 1960.90488,537.26623 C1948.29101,520.718369 1938.03601,502.847274 1930.01941,484.098737" id="Fill-416" fill="#FFC100"></path>
                <path d="M2078.10005,274.82139 C2078.71654,275.281322 2079.32931,275.767301 2079.97703,276.152066 C2076.12341,273.863571 2076.91689,274.086839 2078.10005,274.82139" id="Fill-420" fill="#D2FF00"></path>
                <path d="M1926.85992,385.551328 C1927.00642,384.138788 1927.70099,381.318172 1926.85322,385.627984 C1926.85545,385.60268 1926.85768,385.576632 1926.85992,385.551328" id="Fill-422" fill="#D2FF00"></path>
                <path d="M1972.85794,170.787475 C1976.70338,173.039502 1979.51365,176.515037 1981.22555,180.574044 C1984.28717,187.835456 1983.0304,197.377175 1976.99712,202.931333 C1963.18894,215.641966 1947.87114,226.82247 1931.36051,235.761367 C1931.23335,236.15283 1931.10172,236.542804 1930.98423,236.939476 C1929.78471,240.99253 1927.26446,244.609468 1924.00131,247.293891 C1925.9534,241.997235 1927.90326,236.701324 1929.85982,231.403925 C1924.13516,247.245516 1923.0353,250.313215 1926.57584,240.619673 C1930.88829,228.800623 1935.16133,217.027714 1939.77051,205.338903 C1944.27929,193.888245 1949.46554,182.723369 1954.95296,171.718501 C1955.43039,170.762171 1955.92195,169.814772 1956.4083,168.863651 C1958.39534,168.522051 1960.42849,168.232547 1962.53601,167.992907 C1965.72257,167.631213 1970.14881,169.200785 1972.85794,170.787475" id="Fill-424" fill="#D2FF00"></path>
                <path d="M2307.57237,13.3088417 C2279.29564,19.0527767 2251.35057,27.4305269 2224.32913,37.5185081 C2192.49327,49.4030505 2161.94467,63.7338631 2132.11296,79.9244962 C2108.10629,92.9536578 2083.56197,104.98258 2058.49634,115.831904 C2029.47893,127.720168 1999.74909,137.926481 1969.42285,145.842067 C1994.55467,105.453675 2028.45194,71.6516818 2070.07356,47.4055483 C2147.76912,2.13354662 2241.23984,-9.44958426 2328.29282,9.49691702 C2321.35824,10.6482344 2314.44745,11.9119299 2307.57237,13.3088417" id="Fill-426" fill="#FFDF68"></path>
                <path d="M1912.72177,316.470575 C1913.57177,306.489018 1914.37492,296.613141 1915.6369,286.693355 C1916.96358,276.235494 1919.63256,266.009831 1920.95031,255.568342 C1923.91303,247.506144 1926.88468,239.459574 1929.86004,231.404074 C1924.13539,247.245665 1923.03552,250.313364 1926.57606,240.619078 C1930.88852,228.800027 1935.16156,217.027863 1939.77073,205.339052 C1944.27951,193.888393 1949.46576,182.723518 1954.95319,171.71865 C1976.87316,127.799651 2008.19144,90.1366142 2047.75685,61.8567767 C2040.78508,69.4166228 2034.71017,77.6983678 2028.31325,85.9845783 C2021.51699,94.7872814 2014.78691,103.306435 2008.81685,112.490181 C2000.69242,122.526067 1992.09875,133.389531 1985.50773,144.366118 C1982.89825,148.713885 1980.5654,153.226871 1978.4683,157.842559 C1975.62159,164.107453 1972.80239,170.400626 1970.06574,176.731755 C1968.97406,178.674185 1967.94632,180.653081 1966.98106,182.665468 C1962.27447,192.478086 1957.87724,202.461875 1953.78267,212.562508 C1951.67739,216.978744 1949.84874,221.556477 1948.3064,226.301661 C1938.99659,244.036563 1934.72726,263.149027 1935.49918,283.638308 C1933.25706,302.933107 1931.00825,322.248 1930.12627,341.664108 C1928.65458,374.048351 1932.6718,405.73451 1938.11684,437.744407 C1939.5164,445.972568 1941.47965,454.091328 1944.14714,462.001704 C1945.35707,465.590361 1946.6659,469.145528 1948.07215,472.661995 C1953.96115,487.385015 1960.07176,502.092405 1966.61146,516.542294 C1972.30489,529.119711 1979.31383,541.094305 1987.47767,552.224202 C2002.37085,572.52966 2017.69906,593.644091 2036.20417,611.051533 C2041.10709,615.6635 2046.22046,620.049967 2051.51007,624.210934 C2057.7657,629.131755 2064.00942,634.126255 2070.31413,639.052286 C2027.0654,613.653346 1991.3008,577.15279 1960.90466,537.266751 C1913.12855,474.588051 1899.15528,392.937547 1912.72177,316.470575" id="Fill-428" fill="#D2FF00"></path>
                <path d="M1571.82832,631.905485 C1531.2969,628.663637 1488.43338,645.695246 1465.56525,680.312166 C1438.73642,720.926802 1442.03304,784.374287 1478.59632,818.664493 C1499.72652,838.478761 1521.09693,849.984493 1550.06229,853.944518 C1565.85082,856.098308 1585.50339,853.610361 1601.87867,847.494313 C1615.42657,843.582662 1628.01293,836.404604 1638.18985,825.679565 C1638.76395,825.075254 1639.315,824.462012 1639.87646,823.851003 C1646.09787,818.347453 1651.61579,812.033441 1656.23984,804.066503 C1658.54145,800.102756 1660.67425,795.851738 1662.57429,791.42285 C1677.56042,761.859967 1680.67782,728.148026 1667.11058,694.919086 C1651.87607,657.600626 1610.36451,634.992534 1571.82832,631.905485" id="Fill-430" fill="#0091AD"></path>
                <path d="M1593.49091,786.245122 C1568.90345,796.883831 1543.70694,806.203771 1518.33864,814.788416 C1507.70661,818.388236 1497.08871,822.023779 1486.45965,825.633275 C1494.8689,832.649092 1503.46852,838.3707 1512.69133,842.873266 C1515.66818,841.953403 1518.62421,841.024609 1521.53487,840.116654 C1548.24026,831.81407 1574.56713,822.409288 1600.55563,812.079434 C1622.26217,803.453856 1644.08547,795.453429 1665.2826,785.744258 C1671.15599,772.623557 1674.70992,758.764583 1675.54802,744.558056 C1672.28635,746.638912 1668.99344,748.672137 1665.60981,750.583309 C1642.56395,763.610238 1617.78686,775.734421 1593.49091,786.245122" id="Fill-432" fill="#00638A"></path>
                <path d="M1467.54776,806.057084 C1468.16202,805.919402 1468.77405,805.788418 1469.38682,805.646271 C1493.5556,799.987178 1516.61039,789.440009 1540.06824,781.470095 C1571.24894,770.881994 1602.6453,758.061216 1630.81123,740.898624 C1638.71033,736.082738 1640.99558,734.333063 1647.57618,730.440018 C1654.20066,726.52018 1660.89653,722.724629 1667.48234,718.735578 C1669.41807,717.565655 1671.36942,716.377871 1673.31482,715.16776 C1671.89518,708.427306 1669.86203,701.661549 1667.11051,694.918863 C1660.70764,679.233559 1649.64949,666.157512 1636.13431,656.028598 C1623.0973,664.108658 1609.77398,671.669992 1597.07161,680.296314 C1576.27084,694.420976 1544.9719,706.024945 1519.20574,716.092832 C1498.59163,724.149077 1478.42594,733.687075 1458.57185,743.472901 C1455.12873,745.168991 1451.61049,746.657443 1448.07739,748.10273 C1449.11479,768.958914 1455.53476,789.483175 1467.54776,806.057084" id="Fill-434" fill="#00638A"></path>
                <path d="M1534.8979,671.687109 C1546.7525,665.50557 1558.56843,659.296494 1570.90269,654.107007 C1581.43285,649.67663 1597.21394,648.604201 1606.3728,639.782148 C1595.11089,635.505082 1583.34106,632.828846 1571.82854,631.905262 C1531.29712,628.663414 1488.4336,645.695022 1465.56548,680.311943 C1460.86335,687.429719 1457.10789,695.262695 1454.27382,703.504997 C1467.63655,703.440993 1481.30716,696.332148 1493.15804,691.215595 C1507.27782,685.117409 1521.25704,678.795955 1534.8979,671.687109" id="Fill-436" fill="#00638A"></path>
                <path d="M1730.53504,485.827424 C1730.42796,485.657741 1730.306,485.482104 1730.16545,485.300512 C1727.26668,481.545149 1723.32457,485.431496 1720.1908,484.152916 C1716.89567,482.807356 1717.10017,477.762993 1714.59629,475.640461 C1705.01504,467.529144 1708.09451,485.16804 1706.016,487.574122 C1703.17449,490.859135 1692.95891,486.028365 1693.14928,492.420521 C1693.2348,495.366167 1697.3078,497.114353 1699.59975,498.520196 C1704.58669,501.578964 1703.51583,502.692326 1702.50669,507.104841 C1701.96829,509.454362 1700.57691,515.567433 1704.1933,516.57437 C1709.22115,517.974259 1711.27513,509.654559 1715.33474,508.227133 C1720.41613,506.441736 1725.98908,511.300042 1730.82581,509.538459 C1739.14954,506.504251 1724.91152,498.221017 1727.25181,493.430435 C1728.62162,490.627681 1732.61728,489.160812 1730.53504,485.827424" id="Fill-446" fill="#FFA700"></path>
                <path d="M1491.30337,210.001776 C1490.54633,209.650501 1489.66807,209.380347 1489.09843,209.13773 C1486.53282,208.04595 1483.9107,206.762905 1481.47151,205.440416 C1478.01574,203.568688 1480.36644,201.331545 1481.21718,198.510929 C1481.96678,196.026703 1485.36975,183.818423 1479.97453,185.341109 C1476.63552,186.284043 1474.22608,190.837216 1472.47626,193.383957 C1471.16296,195.292896 1470.36279,197.44743 1468.09688,198.482648 C1465.17729,199.811836 1461.55494,198.911322 1458.46506,198.883042 C1456.56428,198.866669 1452.44666,198.589073 1452.87129,201.278705 C1453.11818,202.849766 1456.7026,204.320356 1457.90211,205.235009 C1460.5116,207.225069 1465.89343,208.698636 1465.84955,212.075189 C1465.78039,217.257234 1461.3259,222.41323 1461.66575,227.971853 C1466.34557,229.651571 1472.53575,219.678944 1474.21864,216.586686 C1476.79466,211.857875 1479.451,212.985377 1484.64691,213.195993 C1486.36104,213.264462 1490.77389,214.037713 1492.1199,212.738294 C1493.4912,211.413572 1492.56386,210.591203 1491.30337,210.001776" id="Fill-450" fill="#FFA700"></path>
                <path d="M1174.17259,709.856815 C1174.11458,709.826302 1174.0536,709.801743 1173.99485,709.771229 C1172.51498,708.560374 1170.81945,707.668791 1169.00865,707.25649 C1167.40087,706.889587 1165.84588,706.781674 1164.36006,706.88661 C1157.86572,706.131965 1151.0888,707.543761 1145.85942,711.496345 C1141.74849,714.603488 1138.86163,718.262846 1138.86163,723.706114 C1138.86163,728.233984 1141.45326,733.988338 1145.85942,735.915883 C1151.01146,738.169399 1155.9114,739.678689 1161.43824,739.951075 C1163.69821,744.882316 1168.65095,748.628749 1174.26703,748.3772 C1181.88875,748.035601 1188.43886,742.162914 1188.39668,734.236909 C1188.34367,724.372196 1183.07116,714.509715 1174.17259,709.856815" id="Fill-506" fill="#025B8B"></path>
                <path d="M1143.19527,721.953388 C1149.54683,723.047399 1155.65372,724.098246 1161.47952,727.014123 C1167.72398,730.139872 1173.16531,734.686347 1179.14355,738.264585 C1181.41541,739.624286 1183.76462,740.920727 1186.19042,741.727468 C1187.58626,739.589307 1188.41172,737.046287 1188.39704,734.236835 C1188.34405,724.372121 1183.07153,714.509641 1174.17296,709.856741 C1174.11495,709.826228 1174.05323,709.801668 1173.99523,709.771155 C1172.51461,708.560299 1170.81908,707.668717 1169.00902,707.256416 C1167.40124,706.890257 1165.84626,706.782344 1164.36043,706.886536 C1157.8661,706.131891 1151.08917,707.543687 1145.85979,711.49627 C1142.40179,714.109247 1139.81759,717.118152 1139.08138,721.245629 C1140.50399,721.518015 1141.90652,721.731608 1143.19527,721.953388" id="Fill-508" fill="#007DBF"></path>
                <path d="M2115.58702,596.971971 C2112.30824,593.197257 2107.48415,591.491492 2102.8088,590.236727 C2088.04427,586.272236 2072.77927,583.156907 2058.44012,577.799969 C2058.21851,577.71736 2058.04598,577.653357 2057.89428,577.59754 C2057.48155,577.388412 2057.06213,577.161423 2056.92232,577.092955 C2055.66852,576.476736 2054.43479,575.815863 2053.239,575.091731 C2052.52434,574.658592 2051.84985,574.15103 2051.1352,573.721612 C2050.63472,573.321218 2049.84421,572.725093 2049.2188,572.149062 C2048.91836,571.746436 2048.63429,571.333391 2048.36731,570.907694 C2047.99697,570.333896 2047.65192,569.74819 2047.33066,569.145367 C2046.63311,567.836274 2046.12817,566.428943 2045.40534,565.13399 C2042.80998,560.48109 2038.39267,556.35659 2033.03389,555.281184 C2023.93974,553.457086 2014.69462,559.137762 2006.47872,562.468173 C1998.43758,565.727882 1989.90563,568.525427 1982.19245,572.500337 C1973.75122,576.851081 1969.89463,585.152176 1965.73016,593.154092 C1961.89885,600.516719 1958.03854,607.865204 1954.23772,615.244204 C1950.35658,622.77949 1946.50519,630.636282 1944.48766,638.906864 C1943.43836,643.208489 1942.74899,647.781013 1942.7799,652.213622 C1942.82187,657.867506 1943.54099,665.778626 1947.96201,669.840611 C1952.26926,673.79766 1959.04991,675.088147 1964.51874,676.904058 L1977.59294,681.245127 C1986.53911,684.215333 1995.48379,687.189259 2004.4307,690.156488 C2014.40608,693.463827 2024.78899,695.869909 2035.2009,692.919798 C2044.53229,690.276308 2052.32356,684.370132 2059.45074,678.009978 C2061.17156,676.47464 2062.34282,674.439182 2062.98013,672.215435 C2066.11166,671.327574 2069.22609,670.366778 2072.32044,669.321885 C2080.23367,666.651603 2088.20565,663.644186 2095.70169,659.955803 C2104.7884,655.485983 2109.81105,647.755709 2112.92994,638.392604 C2115.43977,630.857317 2118.74532,622.871774 2120.06233,615.037309 C2121.18079,608.380209 2120.11067,602.180063 2115.58702,596.971971" id="Fill-516" fill="#025B8B"></path>
                <path d="M1963.81792,627.795721 C1971.80255,634.383608 1980.71748,640.047911 1990.71518,642.917646 C2002.00534,646.158005 2014.02206,645.834267 2025.53161,643.986354 C2059.07193,638.602624 2089.94996,623.789553 2120.44948,609.484044 C2120.28587,604.93608 2118.82385,600.699203 2115.58672,596.97212 C2112.30869,593.197406 2107.4846,591.491641 2102.80924,590.236132 C2088.04472,586.272385 2072.77897,583.156311 2058.44056,577.800118 C2058.21821,577.716765 2058.04568,577.653506 2057.89398,577.597689 C2057.48125,577.388561 2057.06183,577.161572 2056.92202,577.093104 C2055.66822,576.47614 2054.4345,575.816012 2053.23944,575.09188 C2052.52479,574.658741 2051.84955,574.150435 2051.1349,573.72176 C2050.63442,573.321367 2049.84466,572.725242 2049.2185,572.148467 C2048.91806,571.746585 2048.63399,571.332796 2048.36776,570.907843 C2047.99668,570.334044 2047.65162,569.747595 2047.33036,569.144772 C2046.63356,567.836423 2046.12787,566.428347 2045.40578,565.134139 C2042.80968,560.480494 2038.39237,556.355995 2033.0336,555.281333 C2023.94019,553.456491 2014.69433,559.137911 2006.47843,562.468322 C1998.43803,565.727287 1989.90608,568.524831 1982.19215,572.500486 C1973.75092,576.85123 1969.89433,585.151581 1965.7306,593.154241 C1961.89929,600.516867 1958.03898,607.865353 1954.23816,615.244352 C1953.76074,616.170169 1953.28405,617.101196 1952.81183,618.037432 C1956.38956,621.396123 1960.03644,624.675926 1963.81792,627.795721" id="Fill-518" fill="#0071AD"></path>
                <path d="M1946.50036,650.814031 C1946.61488,650.887709 1948.05237,651.99214 1948.26282,652.145451 C1948.89939,652.607615 1949.54042,653.062337 1950.1874,653.509617 C1952.04059,654.791918 1953.93468,656.014681 1955.85926,657.186092 C1959.56191,659.438864 1963.38207,661.497393 1967.28254,663.385494 C1973.9152,666.596084 1979.99755,668.942628 1987.75312,671.251961 C1991.82463,672.464305 1995.95117,673.501755 2000.1201,674.321892 C2001.65873,674.624048 2003.20553,674.871131 2004.75159,675.136075 C2004.99402,675.177752 2005.17919,675.210498 2005.32643,675.23729 C2005.46475,675.250686 2005.63356,675.268547 2005.84773,675.291618 C2006.7364,675.386879 2007.62358,675.489583 2008.51374,675.56847 C2024.70236,677.015246 2037.73863,672.54096 2051.74462,664.647701 C2059.49945,660.277607 2067.05945,655.527213 2075.12885,651.742825 C2084.32563,647.429292 2093.94555,644.068368 2103.81831,641.700985 C2106.63378,641.025973 2109.51098,640.425382 2112.41719,639.856794 C2112.59269,639.373047 2112.76522,638.886323 2112.92957,638.392902 C2114.52024,633.617949 2116.42921,628.662149 2117.94998,623.678813 C2102.82925,630.772029 2087.64753,637.758077 2071.9646,643.517641 C2055.32086,649.629967 2038.06583,654.580558 2020.39957,656.521499 C2008.08242,657.875246 1995.29304,657.257538 1983.54999,653.029591 C1969.96118,648.137795 1958.2739,639.460866 1947.50355,629.605083 C1946.29809,632.648967 1945.25846,635.747179 1944.48729,638.906417 C1943.78305,641.794758 1943.24761,644.805151 1942.97692,647.814056 C1944.12513,648.844065 1945.29861,649.847281 1946.50036,650.814031" id="Fill-520" fill="#016498"></path>
                <path d="M1983.06364,613.992118 C1982.40178,612.169509 1981.40975,610.764411 1979.80345,609.658491 C1978.54296,608.789979 1977.01921,608.392563 1975.50067,608.362794 C1973.81034,608.329304 1972.17281,609.353358 1971.30422,610.803855 C1970.00357,612.337704 1969.58266,614.572614 1970.72715,616.398944 C1972.59818,619.385523 1976.24432,620.970724 1979.68744,619.942948 C1982.04111,619.240399 1983.97313,616.497926 1983.06364,613.992118" id="Fill-522" fill="#0093DF"></path>
                <path d="M1992.60473,626.027143 C1988.77639,626.027143 1988.77044,631.98095 1992.60473,631.98095 C1996.43232,631.98095 1996.43901,626.027143 1992.60473,626.027143" id="Fill-524" fill="#0093DF"></path>
                <path d="M1978.26141,596.45518 C1975.86907,596.45518 1975.86461,600.17631 1978.26141,600.17631 C1980.65375,600.17631 1980.65821,596.45518 1978.26141,596.45518" id="Fill-526" fill="#0093DF"></path>
                <path d="M1968.86407,602.394847 C1966.47173,602.394847 1966.46727,606.115976 1968.86407,606.115976 C1971.25641,606.115976 1971.26087,602.394847 1968.86407,602.394847" id="Fill-528" fill="#0093DF"></path>
                <path d="M1842.68823,494.148167 C1839.97017,489.042033 1835.32233,486.340494 1829.88175,484.836413 C1816.57925,481.156961 1802.60226,483.426849 1790.33121,489.318141 C1779.14813,494.687731 1770.18932,503.932504 1764.76585,514.976815 C1762.27758,516.816541 1760.32102,519.399749 1759.6852,522.437679 C1758.05957,530.198466 1757.49959,539.048056 1762.07605,546.005823 C1768.15766,555.252829 1779.18308,557.239912 1789.15847,553.578321 C1803.86052,548.181195 1818.99092,542.029424 1830.22383,530.707517 C1836.03103,524.854925 1840.35167,517.999116 1843.16268,510.263633 C1845.06495,505.028004 1845.36687,499.179878 1842.68823,494.148167" id="Fill-530" fill="#025B8B"></path>
                <path d="M1766.44799,537.067075 C1776.47618,529.010831 1787.09334,521.742721 1798.24742,515.337914 C1806.25584,510.738598 1814.76994,507.115707 1822.73969,502.423363 C1824.88513,501.160411 1827.00083,499.847597 1829.07414,498.470035 C1830.116,497.777905 1831.14671,497.070146 1832.16477,496.343782 C1832.54626,496.072139 1832.9233,495.793799 1833.30182,495.519924 C1833.40072,495.448478 1833.75396,495.183534 1834.03878,494.969941 C1834.40838,494.672251 1835.1208,494.106639 1835.22937,494.018076 C1835.70457,493.625869 1836.17604,493.229197 1836.64232,492.826571 C1837.45141,492.127743 1838.24564,491.412541 1839.0235,490.678735 C1839.2347,490.479282 1839.434,490.266434 1839.64296,490.064004 C1837.01712,487.486006 1833.63869,485.874757 1829.88175,484.835818 C1816.57925,481.157109 1802.60226,483.426998 1790.33121,489.31829 C1779.14813,494.687135 1770.18932,503.932653 1764.76585,514.976964 C1762.27758,516.81669 1760.32102,519.399154 1759.6852,522.437828 C1758.33323,528.89101 1757.72938,536.093628 1760.19163,542.339171 C1762.23668,540.529958 1764.32486,538.772841 1766.44799,537.067075" id="Fill-532" fill="#016498"></path>
                <path d="M2089.37356,484.247358 C2087.09574,480.157837 2082.5007,477.378154 2077.07202,477.827666 C2069.22125,478.476631 2058.73349,485.400908 2057.17628,493.513714 C2055.14684,504.08321 2068.52147,508.61108 2076.80876,507.797641 C2086.22492,506.874056 2093.6994,499.843355 2094.13964,490.229446 C2094.30027,486.713723 2092.03138,484.723663 2089.37356,484.247358" id="Fill-552" fill="#05486E"></path>
                <path d="M1189.68984,809.05237 C1188.45314,807.915937 1186.93311,807.199247 1185.22047,807.199247 L1182.25255,807.199247 C1180.63212,807.199247 1178.92915,807.904773 1177.78318,809.05237 C1176.68703,810.149358 1175.86083,811.949641 1175.93148,813.525167 C1176.0051,815.161719 1176.54202,816.858554 1177.78318,817.998708 C1179.01988,819.134397 1180.53991,819.851086 1182.25255,819.851086 L1185.22047,819.851086 C1186.8409,819.851086 1188.54387,819.14556 1189.68984,817.998708 C1190.78599,816.901719 1191.61144,815.101437 1191.54154,813.525167 C1191.46792,811.889358 1190.931,810.192524 1189.68984,809.05237" id="Fill-558" fill="#025B8B"></path>
                <path d="M1144.03151,844.568017 C1143.98392,843.977102 1143.86494,843.393629 1143.67456,842.837692 C1142.91231,840.613945 1141.00484,838.834501 1137.94916,838.834501 C1136.42393,838.834501 1135.18425,839.279548 1134.23014,840.002192 C1133.91186,840.242577 1133.6263,840.514963 1133.37122,840.811165 C1133.11689,841.108111 1132.8938,841.428873 1132.70342,841.768984 C1132.22599,842.618145 1131.94712,843.583406 1131.86755,844.568017 C1131.85119,844.765237 1131.84301,844.962457 1131.84301,845.160421 C1131.84301,845.555605 1131.87424,845.950789 1131.9382,846.340019 C1131.96943,846.535006 1132.00885,846.72776 1132.05644,846.918282 C1132.15163,847.30007 1132.27879,847.672183 1132.43794,848.029411 C1132.51751,848.207281 1132.60451,848.382175 1132.6997,848.551858 C1132.98601,849.061653 1133.34371,849.529771 1133.7728,849.93463 C1134.20263,850.340233 1134.70311,850.683321 1135.27572,850.942311 C1135.65796,851.115716 1136.07143,851.251165 1136.51688,851.344193 C1136.96233,851.436477 1137.43976,851.48634 1137.94916,851.48634 C1138.71141,851.48634 1139.40301,851.374707 1140.02247,851.173766 C1141.67562,850.636435 1142.82084,849.456092 1143.45741,848.029411 C1143.69613,847.494313 1143.86345,846.924236 1143.95938,846.340019 C1144.02259,845.950789 1144.05457,845.555605 1144.05531,845.160421 C1144.05531,844.962457 1144.04713,844.765237 1144.03151,844.568017" id="Fill-560" fill="#05486E"></path>
            </g>
        </g>
    </g>
</svg>