<?xml version="1.0" encoding="UTF-8"?>
<svg width="1024px" height="768px" viewBox="0 0 1024 768" version="1.1" xmlns="http://www.w3.org/2000/svg" xmlns:xlink="http://www.w3.org/1999/xlink">
    <title>Background_04</title>
    <defs>
        <polygon id="path-1" points="0.651658729 0.670544497 2376.28353 0.670544497 2376.28353 773 0.651658729 773"></polygon>
        <polygon id="path-3" points="0.354145145 0.0992513473 2151.28364 0.0992513473 2151.28364 401 0.354145145 401"></polygon>
        <polygon id="path-5" points="0.511109041 0.661371935 803.945739 0.661371935 803.945739 209 0.511109041 209"></polygon>
        <polygon id="path-7" points="0.651878686 0.370841402 2376.28367 0.370841402 2376.28367 184 0.651878686 184"></polygon>
        <polygon id="path-9" points="0.651878686 0.520451908 2376.28367 0.520451908 2376.28367 96 0.651878686 96"></polygon>
        <polygon id="path-11" points="0.186935316 0.591574603 243.28859 0.591574603 243.28859 184 0.186935316 184"></polygon>
    </defs>
    <g id="Background_04" stroke="none" stroke-width="1" fill="none" fill-rule="evenodd">
        <g id="Land-1" transform="translate(-435.000000, 0.000000)">
            <g id="Group-9" transform="translate(8.000000, 0.000000)">
                <mask id="mask-2" fill="white">
                    <use xlink:href="#path-1"></use>
                </mask>
                <g id="Clip-8"></g>
                <path d="M3.18629445,0.670544497 C2.61660629,6.34043349 1.75804152,11.9553177 0.651658729,17.4983291 L0.651658729,773.00022 L2376.28353,773.00022 L2376.28353,0.670544497 L3.18629445,0.670544497 Z" id="Fill-7" fill="#FFF68F" mask="url(#mask-2)"></path>
            </g>
            <path d="M2313.86139,155.159625 C2256.72928,234.461853 2195.24358,310.389347 2120.58855,373.019434 C2014.82984,461.74307 1877.42836,521.956247 1740.30998,505.591899 C1604.49563,489.382182 1492.69791,404.695035 1378.03105,337.719932 C1204.85105,236.568772 996.961113,181.0663 799.065521,154.93904 C718.98684,144.367071 580.526301,139.529585 543.769391,230.363072 C526.417359,273.242352 537.152457,331.083321 500.028836,358.709974 C469.341726,381.546043 425.624641,367.61766 388.264857,375.871652 C339.57077,386.630496 308.606427,432.540075 276.679834,470.820043 C232.908475,523.302476 178.730592,567.083884 118.213743,598.877473 C88.0268265,614.73616 55.6367107,628.093659 31.2181586,651.885353 C11.3658919,671.227968 -8.68806588,709.222127 3.93999413,737.597011 C18.5900986,770.514779 64.952637,767.979881 97.1637978,767.94104 C859.443021,767.038913 1621.72078,766.136785 2384,765.234657 C2383.88045,528.49026 2383.76164,291.74513 2383.64282,55 C2360.71312,88.4937809 2337.6646,122.120206 2313.86139,155.159625" id="Fill-10" fill="#F6FFA5"></path>
            <path d="M1624.14262,200.470658 C1666.39936,202.4423 1706.69883,197.914338 1742.60323,182.961805 C1808.15653,155.660683 1870.05864,100.795409 1925.68985,53.9002269 C1943.9399,37.3614418 1961.55097,19.8144891 1978,1 L10.5353604,1 C9.9653445,7.94800421 9.10701936,14.8286019 8,21.6212779 L8,360 C46.8784611,319.438837 91.4233354,284.676835 137.553544,255.782135 C232.311173,196.428463 336.599145,155.049628 441.001561,123.391992 C579.639413,81.3537456 722.625378,58.0501263 866.306073,59.149879 C1010.89425,60.2562257 1155.57265,86.0656106 1296.38713,121.953008 C1390.00252,145.811999 1513.74953,195.319918 1624.14262,200.470658" id="Fill-12" fill="#FFE67D"></path>
            <g id="Group-16" transform="translate(233.000000, 372.000000)">
                <mask id="mask-4" fill="white">
                    <use xlink:href="#path-3"></use>
                </mask>
                <g id="Clip-15"></g>
                <path d="M2000.42075,246.326309 C1964.31334,264.769377 1927.79753,282.45443 1889.78082,295.235114 C1844.9371,310.310368 1798.81171,317.937432 1752.3791,323.783088 C1673.79627,333.676865 1594.23973,323.414344 1516.81099,307.498969 C1379.83307,279.342465 1249.76942,223.028722 1119.40881,168.271329 C1117.83092,160.902313 1114.87165,153.67185 1111.65574,147.113631 C1105.69247,134.950209 1097.542,123.81751 1089.86445,113.044026 C1083.33586,103.883339 1076.36661,95.1067901 1068.80198,87.0252106 C1050.58074,67.5587499 1029.57033,52.0575707 1005.68276,43.1695927 C982.548942,34.563121 955.618513,33.098408 932.393777,42.116143 C913.867513,49.309951 897.059184,61.7108943 884.161115,78.2186055 C870.186679,73.7819473 856.160185,69.5652161 842.077233,65.5867389 C835.295684,54.3455433 827.699527,43.3741247 819.357686,33.5661192 C811.203549,23.9787737 801.629898,14.7557737 790.96595,9.00468592 C785.056199,5.81794552 778.908151,2.80934589 772.428688,1.5000479 C762.567616,-0.49248958 754.958261,-0.227111152 745.093522,1.46339342 C740.485969,2.92590713 736.485522,5.56576271 733.091448,9.38222706 C729.720837,13.2236165 727.388465,17.7526439 726.097265,22.9685762 C724.476116,28.4234958 723.030206,33.9370625 721.744139,39.4931484 C667.111935,33.8417609 612.338219,34.2068395 557.733143,40.8852856 C488.446809,53.4225835 420.777957,75.2833148 355.613051,104.691203 C280.587805,142.509829 209.641461,190.015499 143.790261,245.553633 C92.0396102,292.523415 43.9293956,344.458414 0.354145145,401.000147 L2151.28364,401.000147 L2151.28364,152.506238 C2103.28121,188.327927 2052.62599,219.660176 2000.42075,246.326309" id="Fill-14" fill="#F8FFC3" mask="url(#mask-4)"></path>
            </g>
            <path d="M1527.7733,321.99152 C1526.52535,311.501122 1520.58841,303.33518 1511.30943,300.56031 C1506.4804,299.116207 1501.55971,297.982861 1496.69475,296.695965 C1487.29845,294.211377 1477.90141,291.72679 1468.50438,289.242203 C1441.97476,278.33795 1414.60707,270.351881 1386.51348,265.865293 C1384.64376,265.582322 1382.77329,265.297889 1380.90283,265.014187 C1377.99779,264.890615 1375.28705,265.574279 1372.77281,267.06664 C1368.71807,268.998447 1364.79457,272.298312 1362.68068,276.816342 C1358.10241,286.599678 1359.50874,297.474683 1365.9802,305.691809 C1377.84674,320.75727 1393.79883,330.930331 1409.83523,339.254941 C1425.93396,347.613187 1442.56061,356.437932 1460.12286,360.010531 C1471.48348,362.321095 1481.96569,362.777358 1493.33877,360.536258 C1498.6158,359.495773 1503.4529,357.235661 1508.33986,354.794945 C1514.70573,351.615727 1519.92484,346.928061 1524.01918,340.54915 C1527.42062,335.250939 1528.52999,328.354345 1527.7733,321.99152" id="Fill-17" fill="#F6FFA5"></path>
            <path d="M1300.71328,213.51741 C1290.52999,206.984012 1278.57756,203.334667 1266.8537,204.100698 C1261.25842,204.466001 1255.9862,206.534578 1251.94467,211.144782 C1248.67966,214.869402 1246.14061,220.723114 1245.79997,226.198976 C1244.81908,230.262332 1244.64986,234.574389 1245.8029,238.640696 L1247.92879,244.385924 C1249.80341,247.999846 1252.32414,250.87578 1255.49319,253.013728 C1261.91919,258.426124 1270.01908,276.316401 1277.84427,276.982065 C1285.74784,277.654371 1293.80013,259.22684 1300.71328,255.049834 C1314.70514,246.595457 1314.14986,222.137096 1300.71328,213.51741" id="Fill-19" fill="#F6FFA5"></path>
            <path d="M696.31803,651.173113 C700.356372,665.550828 706.292,678.821324 714.09995,691 L961.164957,691 C965.342805,684.012055 968.723264,676.557758 971.302663,668.637109 C980.470432,651.211975 984.673245,632.433981 983.912568,612.303127 C982.169473,599.346465 980.426378,586.389803 978.682548,573.433141 C971.726321,548.663698 959.17589,527.157253 941.029785,508.91307 C931.152736,501.292324 921.274218,493.670844 911.397169,486.050098 C888.561448,472.823597 863.929032,466.169284 837.500656,466.087159 C817.342723,465.328237 798.538736,469.525404 781.090898,478.680125 C762.938919,484.576983 747.232707,494.654876 733.970793,508.91307 C719.69342,522.156436 709.601971,537.842283 703.697182,555.969877 C694.530146,573.394278 690.327334,592.172272 691.087276,612.303127 L696.31803,651.173113 Z" id="Fill-23" fill="#FFFB8A"></path>
            <path d="M509.775295,413.401485 C505.938312,397.888447 493.779168,387.645991 480.185474,384.696984 C470.916745,382.686563 461.611271,381.052456 452.250678,379.686307 C450.137067,379.378082 448.007287,379.11232 445.868689,378.886092 C439.142026,374.859394 431.982499,371.609483 424.858983,368.726367 C417.118874,365.593596 409.436823,363.355483 401.387316,361.965907 C401.365269,361.426329 401.351305,360.886751 401.321174,360.347174 C400.598019,347.525435 398.371966,335.681085 392.990195,324.272351 C388.471212,314.69247 380.4195,305.658023 371.790146,300.802558 C360.928124,294.69003 349.735392,292.382366 337.7394,295.174698 C326.299736,297.838176 316.158665,307.205008 310.362403,318.438763 C304.585983,329.633717 303.08382,342.071089 301.913102,354.711261 C301.76759,356.281673 301.655883,357.855746 301.558139,359.431283 C287.572001,352.864837 272.583441,348.913547 257.368527,347.707734 L250.293515,348.7803 C246.830602,349.708637 243.813783,351.49942 241.243055,354.152648 C236.637353,358.1669 233.372867,363.326931 231.706083,369.745487 C228.97147,380.278598 229.18092,390.723853 231.47973,400.614888 C219.058957,402.645808 206.605113,408.67707 198.541643,419.232876 C188.5843,432.268396 182.72557,450.74728 190.784631,466.991713 C196.824885,479.168448 207.359135,484.401691 218.987671,486.275936 C235.737818,488.97602 251.942661,488.685366 268.499526,484.112501 C275.892756,482.069867 283.083149,478.971506 290.019263,475.40678 C293.492464,476.614057 296.976689,477.782532 300.481491,478.868276 C326.100575,486.805264 353.831065,490.584503 379.715453,481.824605 C387.50774,479.186751 395.058976,475.51001 402.048738,470.799505 C408.644587,472.954887 415.325685,474.754455 422.119225,475.920733 C438.779714,478.779689 456.26992,479.9057 472.424788,473.235291 C481.869896,469.335251 491.419361,464.204505 498.536263,455.932935 C508.119535,444.79216 513.590231,428.823739 509.775295,413.401485" id="Fill-25" fill="#FFD855"></path>
            <g id="Group-29" transform="translate(1450.000000, 564.000000)">
                <mask id="mask-6" fill="white">
                    <use xlink:href="#path-5"></use>
                </mask>
                <g id="Clip-28"></g>
                <path d="M759.741893,138.217735 C739.43043,118.48784 716.527076,104.134544 691.379131,93.9480021 C637.60438,72.1663754 578.899898,76.9932451 524.258002,91.8337169 C498.793597,98.7505866 473.88575,107.937756 449.151186,117.650368 C440.521586,105.169242 431.308994,93.2179739 421.588304,81.9165197 C410.905016,69.4950021 399.520523,57.8535549 387.522934,47.0900549 C373.789586,34.7715655 359.515098,21.9563331 343.746419,13.1025338 C335.021367,8.20354437 325.872654,3.91021338 316.20483,2.2485162 C310.227328,1.22191408 304.377586,0.3344 298.34061,0.778892958 C291.888052,1.25429437 285.358397,2.35448803 279.048282,3.97497394 C262.913213,8.12112183 247.062298,14.9224528 231.598331,21.5169915 C199.654199,35.1402592 168.447986,51.2060303 138.586178,69.9608366 C105.035515,91.031569 73.4761282,115.598636 43.4425063,142.618509 C40.1993392,145.535678 37.8607638,150.739337 36.5831748,155.946675 C26.239109,162.433034 16.870857,170.987315 9.48874192,180.921439 C4.73890082,187.314337 1.51188712,194.148048 1.51188712,202.776657 C1.51188712,203.692136 1.55741041,204.630428 1.64258301,205.579759 C1.24462137,206.712333 0.86942137,207.853002 0.511109041,209.000294 L803.945739,209.000294 C798.972687,195.372611 793.418846,182.452143 785.620413,170.577411 C777.881454,158.793932 769.596216,147.788315 759.741893,138.217735" id="Fill-27" fill="#B6E7EA" mask="url(#mask-6)"></path>
            </g>
            <path d="M1475.26473,773 C1477.86244,755.941539 1480.75305,738.933925 1484,722 C1474.8951,728.194368 1466.65783,735.983384 1460.02227,744.883642 C1455.24812,751.285815 1452.00633,758.127917 1452.00633,766.76805 C1452.00633,767.685489 1452.05133,768.624297 1452.13691,769.574896 C1451.73704,770.708983 1451.36077,771.851175 1451,773 L1475.26473,773 Z" id="Fill-42" fill="#C6FAFD"></path>
            <path d="M1115.15187,377.443283 C1116.76343,377.252828 1118.41804,377.021096 1120.09966,376.782846 C1121.36087,376.929127 1122.58486,376.75388 1123.74389,376.262174 C1133.74674,374.851505 1144.54442,373.701535 1153.50356,377.992922 C1156.14131,379.253689 1158.57834,379.069751 1160.57964,378.01175 C1162.47438,380 1168.31844,381.651391 1170.87079,376.989233 C1176.85353,377.818399 1180.57148,379.717153 1185.97981,377.316554 C1192.86904,374.244657 1198.43648,367.991514 1197.97301,359.177733 C1197.53728,350.805691 1190.28531,345.803901 1183.6019,344.729968 C1180.94444,344.304885 1178.26437,344.333127 1175.59523,344.673484 C1175.42299,342.888423 1175.23614,341.093949 1175.18505,339.289336 C1174.97631,332.369239 1167.97029,328.752048 1162.90719,332.149818 C1159.60454,334.3701 1156.59894,337.095124 1154.48159,340.632657 C1154.21811,329.066335 1150.07902,317.095929 1142.76281,309.384323 C1130.14484,296.093046 1110.5267,305.093661 1105.44608,322.246897 C1103.53236,328.684701 1102.57404,336.751871 1102.99518,344.777763 C1095.29068,344.158604 1087.88908,347.252226 1081.79103,352.730515 C1080.67725,353.737825 1079.82038,354.979039 1079.20948,356.335396 C1078.80805,356.218081 1078.40371,356.110181 1078.00301,355.976211 C1068.67529,352.918073 1063.80925,369.938063 1072.65891,374.124446 C1086.11112,380.48911 1100.97928,379.132754 1115.15187,377.443283" id="Fill-48" fill="#FFD855"></path>
            <path d="M1222.43518,362.01127 C1227.12979,359.887701 1231.33026,360.776156 1235.27001,362.296581 C1237.91941,363.314387 1236.04555,356.620671 1240.13967,352.454839 C1242.59112,349.95874 1245.83953,348.487098 1249.2977,348 C1254.48792,348 1259.67814,350.93737 1261.41461,357.735305 C1263.16807,356.509799 1264.95625,355.592518 1266.47261,355.119464 C1271.87998,353.426817 1277.02736,355.881524 1279.88578,361.262515 C1280.44343,362.315799 1280.78689,363.360214 1280.95307,364.371367 C1281.0358,364.371367 1281.12148,364.378019 1281.20125,364.378019 C1286.61231,360.889245 1292.90453,364.539892 1294.69862,371.162649 C1296.28072,377.020389 1291.31726,381.228353 1287.19138,382.891434 C1285.36479,383.626885 1283.25311,384.000154 1281.02693,384.054851 C1278.80076,384.119896 1276.46158,383.867108 1274.18075,383.357836 C1271.84896,383.584754 1269.61762,383.626885 1267.42838,383.572188 C1251.89023,383.277269 1238.66614,390.477299 1220.84199,384.833173 C1217.5116,383.776193 1212.97284,374.456288 1215.98859,368.124755 C1217.23684,365.366998 1219.58857,362.915986 1222.43518,362.01127" id="Fill-50" fill="#FFD855"></path>
            <path d="M794.442855,196.451087 C783.290321,187.737227 770.248785,192.877847 761.359968,202.73547 C758.268206,206.161559 756.041961,209.979307 754.254352,214.226617 C754.52106,209.059242 753.108166,204.106649 749.62479,200.363963 C745.616814,196.056455 739.696324,194.932014 734.852955,198.180481 C730.651743,201.000873 728.687064,206.030758 728.942751,211.29326 C728.926587,211.148339 728.908953,211.002675 728.892054,210.858496 C728.914831,211.067332 728.932465,211.27914 728.949364,211.487232 C728.95965,211.64999 728.974345,211.812004 728.988305,211.974762 C729.011081,212.466008 729.044144,212.948336 729.091902,213.433637 C729.185213,214.760968 729.318935,216.077894 729.673812,217.375497 C729.591522,217.39482 729.507762,217.415629 729.425472,217.434209 C727.773054,212.807874 723.903943,209.013165 720.618945,206.221014 C718.318492,204.264204 715.442006,202.765198 712.646342,202.120112 C710.095344,201.532252 708.115235,201.59245 705.560563,202.045793 C704.230694,202.252399 704.24098,202.278411 705.593626,202.126057 C704.263757,202.281383 702.976502,202.423332 701.716433,202.892282 C697.469668,204.473783 693.712236,208.394091 692.855536,213.591192 C692.143578,217.912821 692.754142,221.605714 694.319861,225.057071 C693.040689,224.966402 691.758577,224.938161 690.480874,225.004305 C682.55162,225.413057 668.004614,231.619406 669.053814,243.483632 C670.115506,255.487577 679.663379,258.568084 688.545584,259.838933 C691.659388,260.284845 694.690902,260.422334 697.818667,260.13918 C701.020639,259.85231 704.052153,259.465853 706.898515,257.546946 C702.693629,260.381459 708.769883,256.790383 708.769148,256.790383 C710.239352,255.937948 711.290757,254.798643 712.121007,253.459422 C714.233368,255.341169 716.56615,256.890713 719.118617,258.005492 C724.632064,260.412673 730.611333,260.941821 736.451002,260.531582 C742.48905,260.104994 748.654206,259.01251 754.46522,257.064618 C756.448269,256.40021 758.451155,255.444472 760.257867,254.180312 C763.529639,259.64942 768.986511,261.307469 774.48306,261.925057 C783.821534,262.974436 795.846197,252.84332 795.370824,241.588507 C795.476626,239.711961 795.251797,237.935003 794.764668,236.320802 C800.710139,231.089514 804.126654,225.379614 804.928984,216.629338 C805.70266,208.182283 800.020224,200.807645 794.442855,196.451087" id="Fill-52" fill="#FFD855"></path>
            <path d="M1416.0533,754.232 C1416.03553,754.41 1416.01857,754.59 1416,754.768 L1419,754.768 C1418.01803,754.586 1417.03526,754.413 1416.0533,754.232" id="Fill-54" fill="#FFE67D"></path>
            <path d="M502.855948,754 C501.904235,754.334646 500.951713,754.66437 500,755 L503,755 C502.953062,754.666339 502.902077,754.334646 502.855948,754" id="Fill-56" fill="#FFE67D"></path>
            <path d="M1416,754.768 L1419,754.768 C1418.01749,754.587 1417.03579,754.413 1416.05328,754.232 C1416.03552,754.41 1416.01857,754.591 1416,754.768" id="Fill-58" fill="#FFF68F"></path>
            <path d="M500,755 L503,755 C502.953062,754.666339 502.902077,754.33563 502.855948,754 C501.904235,754.33563 500.951713,754.66437 500,755" id="Fill-60" fill="#FFF68F"></path>
            <g id="Group-64" transform="translate(8.000000, 589.000000)">
                <mask id="mask-8" fill="white">
                    <use xlink:href="#path-7"></use>
                </mask>
                <g id="Clip-63"></g>
                <path d="M1407.37324,166.425956 C1407.3901,166.296717 1407.4055,166.164559 1407.42163,166.03459 C1408.31392,166.166749 1409.20548,166.293797 1410.09777,166.425956 L1407.37324,166.425956 Z M493.052341,166.425956 C493.914572,166.176971 494.776802,165.933098 495.639766,165.684114 C495.681558,165.933098 495.727749,166.178432 495.770274,166.425956 L493.052341,166.425956 Z M2376.28375,141.811575 C2363.07241,145.923098 2348.57579,139.789035 2335.4297,143.141924 L2218.39801,134.401194 C2179.2193,127.471987 1935.88181,151.064146 1896.65544,142.530051 C1742.09692,108.903321 1587.32284,80.3504635 1432.39919,56.8868127 C1124.16637,10.2033841 812.883483,-39.2721714 505.320799,49.8327492 C420.480522,74.4120825 335.865334,102.13621 250.516224,116.334876 C167.380612,130.165543 83.9634558,133.815606 0.651878686,127.823194 L0.651878686,184.000146 L2376.28375,184.000146 L2376.28375,141.811575 Z" id="Fill-62" fill="#BBB6DF" mask="url(#mask-8)"></path>
            </g>
            <g id="Group-67" transform="translate(8.000000, 677.000000)">
                <mask id="mask-10" fill="white">
                    <use xlink:href="#path-9"></use>
                </mask>
                <g id="Clip-66"></g>
                <path d="M1407.37324,78.3617954 C1407.3901,78.2320855 1407.4055,78.0994443 1407.42163,77.9690015 C1408.31392,78.1016427 1409.20548,78.2291542 1410.09777,78.3617954 L1407.37324,78.3617954 Z M493.052341,78.3617954 C493.914572,78.1119023 494.776802,77.8671389 495.639766,77.6172458 C495.681558,77.8671389 495.727749,78.1133679 495.770274,78.3617954 L493.052341,78.3617954 Z M2354.91421,66.1815206 C2341.46532,70.8877191 2328.01936,74.9204519 2314.57633,78.3617954 L2014.25462,78.3617954 C1975.07665,71.4080244 1935.88181,62.9439023 1896.65544,54.3786504 C1808.36918,35.1002382 1720.01252,17.4933985 1631.59795,1.54567328 C1626.38937,5.22811603 1620.97917,8.57199389 1614.99781,11.2944366 C1595.68267,20.0883298 1576.85216,27.0428336 1556.03398,30.8036885 C1519.0981,37.476055 1481.32492,40.3780397 1444.04004,44.5184977 C1406.39589,48.6985282 1368.76055,52.2959634 1330.90965,53.9052458 C1256.74901,57.0578565 1182.72694,55.9087878 1108.55017,53.9052458 C1100.66178,53.8803298 1093.08794,52.7034137 1085.82423,50.3906198 C1011.02865,54.5215511 936.079097,55.4932763 861.178668,55.332055 C818.343545,55.2397191 775.510621,54.7729099 732.67843,54.3222229 C688.411387,53.8568794 644.191269,53.4912 600.048135,49.7618565 C549.760141,45.5129405 499.244125,38.4990779 450.278805,26.0711084 C423.473401,19.2668336 397.052188,10.6634748 371.240989,0.520451908 C331.09667,11.5655817 290.888564,21.3465893 250.516224,28.0878412 C167.380612,41.9690015 83.9634558,45.6323908 0.651878686,39.6181008 L0.651878686,96.0001466 L2376.28375,96.0001466 L2376.28375,75.4942534 C2370.37424,66.3559328 2362.64129,63.4773985 2354.91421,66.1815206 L2354.91421,66.1815206 Z" id="Fill-65" fill="#B0ABD2" mask="url(#mask-10)"></path>
            </g>
            <path d="M1416.0533,754.232 C1416.03553,754.41 1416.01857,754.59 1416,754.768 L1419,754.768 C1418.01803,754.586 1417.03526,754.413 1416.0533,754.232" id="Fill-68" fill="#FFE67D"></path>
            <path d="M502.855948,754 C501.904235,754.334646 500.951713,754.66437 500,755 L503,755 C502.953062,754.666339 502.902077,754.334646 502.855948,754" id="Fill-70" fill="#FFE67D"></path>
            <g id="Group-74" transform="translate(786.000000, 589.000000)">
                <mask id="mask-12" fill="white">
                    <use xlink:href="#path-11"></use>
                </mask>
                <g id="Clip-73"></g>
                <path d="M242.915629,43.0130667 C241.615028,40.512273 240.107064,38.1312254 238.478932,35.824654 C236.05725,33.018654 233.405491,30.4419238 230.566884,28.0513841 C223.882896,23.3184952 216.628842,19.4837016 209.141046,16.1534476 C197.02238,11.2920508 184.509503,7.49668571 171.972446,3.85976508 C169.180734,3.05001905 166.391953,2.23370159 163.608302,1.40935238 C152.352794,1.0391619 141.099485,0.764622222 129.846175,0.591574603 C134.592818,2.06284444 139.32847,3.56478095 143.989383,5.26678095 C158.781791,10.6670349 173.245202,17.1632571 182.928998,30.0133206 C185.730968,33.7312889 185.149178,39.790146 182.928998,43.5709079 C180.409863,47.8605905 176.124109,49.9086857 171.291004,50.222654 C150.731989,51.5588444 130.119485,51.6530349 109.550944,52.8008444 C103.097034,53.1608127 96.6665718,53.8216063 90.2353766,54.4670667 C87.3476769,54.7569397 84.4607099,55.0599556 81.5774066,55.3877968 C79.9001814,55.5783683 78.2244216,55.7769714 76.5501273,55.986527 C76.2519051,56.0230349 75.9529502,56.0683048 75.6532625,56.1113841 C76.3691423,56.0588127 76.8175748,56.0902095 74.2720613,56.290273 C63.5726979,57.8396698 52.918764,59.7877333 42.5681814,62.9515111 C39.9266799,63.7597968 37.3078931,64.644019 34.7242775,65.6224317 C34.4985958,65.7078603 33.8120252,65.9772889 33.1694186,66.2291937 C32.9049021,66.3628127 30.9287219,67.2090667 30.4656348,67.4273841 C25.8025237,69.6222413 21.6904276,72.4026857 17.3592444,75.132019 C17.3189441,75.1648762 17.2786438,75.196273 17.2383435,75.2291302 C16.8426679,75.5540508 16.4506559,75.8840825 16.0623075,76.2192254 C15.0943676,77.054527 14.1520733,77.9197651 13.239821,78.8149397 C12.052794,79.9810032 11.021839,81.3493206 9.90881802,82.602273 C10.0538991,82.5110032 9.85166486,82.7818921 8.85368288,83.7186857 C8.55912432,84.1363365 8.27116036,84.5576381 7.98832553,84.9833206 C7.26511832,86.0749079 6.58147868,87.192781 5.93887207,88.334019 C5.35195315,89.3796063 4.80093814,90.4449079 4.28436156,91.526273 C4.22354474,91.6533206 4.16712432,91.7884 4.11143664,91.9242095 C4.41185706,91.4225905 4.62508228,91.5313841 3.68132252,93.0063048 C2.8166979,95.5311937 1.99457177,98.0429397 1.40398919,100.654717 C1.0705958,102.129638 0.815604805,103.614051 0.558415616,105.103575 C0.507124324,105.400019 0.469754955,105.612495 0.440445646,105.765829 C0.43898018,106.145511 0.448505706,106.50986 0.428721922,106.750813 C0.163472673,110.114654 0.112181381,113.495289 0.296097297,116.865702 C0.364241441,118.107702 0.50052973,119.34313 0.59431952,120.58294 C0.597983183,120.634051 0.600914114,120.6764 0.604577778,120.72313 C0.70716036,121.298495 0.793622823,121.876051 0.899869069,122.451416 C1.44062583,125.395416 2.1652985,128.305098 3.06216336,131.161479 C3.50546667,132.573606 3.99126847,133.97186 4.51590511,135.355511 C4.55473994,135.457733 4.65878799,135.76586 4.77309429,136.08786 C4.79654174,136.137511 4.81632553,136.1784 4.8427039,136.235352 C7.34718438,141.611511 10.226824,146.735035 13.6501514,151.58767 C14.1659952,152.317829 14.7045538,153.031194 15.2240613,153.757702 C15.3669441,153.957765 15.5090943,154.205289 15.6065477,154.398051 C16.241827,155.187352 16.976758,155.942337 17.5893225,156.665924 C19.3449502,158.742495 21.1694547,160.760654 23.0496468,162.725511 C27.0620913,166.919543 31.3258631,170.870432 35.7464396,174.63367 C38.1988961,176.721924 40.7568661,178.675829 43.2357009,180.729035 C43.6665477,181.053956 44.0959291,181.381067 44.5275087,181.705257 C45.5562655,182.477765 46.593815,183.240051 47.6335628,184.000146 L125.135437,184.000146 C119.545419,182.170368 114.003761,180.195289 108.534644,178.034749 C93.600818,172.135067 79.4766619,165.876876 66.8516769,155.851067 C60.0731664,150.467606 54.7080973,143.17186 52.0812505,134.89186 C49.0960973,125.481575 50.7799171,115.537543 55.2056228,106.906337 C59.6379231,98.2627175 68.0460312,89.9892889 76.9729141,85.8938286 C87.7396889,80.9543048 98.957827,78.370273 110.567244,76.2659556 C123.919833,73.8462095 137.364013,71.9529079 150.77522,69.8902095 C177.464277,65.784527 205.259761,61.9424317 230.534644,51.9436381 C234.323605,50.2138921 238.011449,48.2570667 241.463353,45.9337016 C242.091305,45.3736698 242.69874,44.7931937 243.28859,44.1951937 C243.175016,43.7979873 243.043857,43.4058921 242.915629,43.0130667" id="Fill-72" fill="#C9C4F0" mask="url(#mask-12)"></path>
            </g>
            <path d="M567.732214,607.383625 C566.939499,603.069446 564.915515,598.825571 561.943013,596.345888 C561.329181,595.500042 560.475876,594.830689 559.388868,594.509194 C550.573067,591.893297 543.010174,599.800307 541.197532,608.084469 C540.525275,611.15661 541.5993,613.511064 543.956527,615.029924 C542.639423,619.633375 543.172468,624.501932 547.418075,627.195456 C549.162193,628.302013 550.976998,628.761186 552.774493,628.728231 C552.720395,629.641451 552.73987,630.567854 552.736264,631.427614 C552.732657,632.197297 553.150293,632.899605 553.965369,632.992612 C554.652773,633.070971 555.511128,632.517327 555.507521,631.745447 C555.502472,630.652072 555.545029,629.464959 555.441161,628.321053 C557.908027,627.632659 560.252272,626.115263 562.238027,624.192887 C562.843924,624.434557 563.513296,624.521705 564.18916,624.398673 C568.100802,623.685379 571.449825,620.999178 573.275451,617.487637 C575.519433,613.171993 572.237491,607.330897 567.732214,607.383625" id="Fill-75" fill="#B4A0D8"></path>
            <path d="M532.795594,618.023781 C530.167316,616.17439 527.219256,617.032417 525.439159,618.991792 C524.106612,619.343591 522.867907,619.891251 521.619818,620.675453 C518.118094,622.872876 516.060082,627.381472 516.00089,631.536009 C515.953247,634.894292 517.820689,637.461592 521.059658,637.99268 C521.792342,638.111704 522.545237,638.16293 523.303908,638.159916 C523.134272,640.3144 523.060643,642.569828 523.993281,644.407165 C524.606859,645.615484 526.447592,644.79889 526.327763,643.546879 C526.203604,642.248915 525.918471,641.01197 525.875882,639.695174 C525.857113,639.107588 525.859279,638.522261 525.862166,637.935428 C528.774856,637.438993 531.624022,636.150069 533.796809,634.293899 C538.576218,630.20942 537.813938,621.554573 532.795594,618.023781" id="Fill-77" fill="#B4A0D8"></path>
            <path d="M549.536039,639.580977 C549.557177,639.448563 549.576905,639.315429 549.588179,639.180136 C549.84606,636.239675 547.576564,633.092677 544.541879,633.0056 C543.889425,632.98617 543.235562,633.017115 542.58804,633.101313 C541.769302,633.20854 540.952678,633.537417 540.2044,633.874209 C538.771961,634.521168 537.414209,635.802852 536.573628,637.134191 C534.948835,639.706195 534.360499,643.667109 535.881013,646.458604 C536.668748,647.905806 537.626996,648.921941 538.884696,649.625033 C538.702911,652.073257 538.259721,657.632499 541.234516,656.940922 C542.141328,656.730066 542.013796,655.958609 541.941223,655.277827 C541.850331,654.42505 541.543832,653.567956 541.456463,652.684954 C541.385299,651.958115 541.325408,651.229116 541.273268,650.497959 C543.159466,650.841949 544.988591,649.968302 546.561949,649.021972 C548.376278,647.932433 549.561404,645.382018 549.895382,643.361981 C550.118738,642.004015 549.977819,640.726649 549.536039,639.580977" id="Fill-79" fill="#B4A0D8"></path>
            <path d="M581.955957,631.53638 C581.750494,630.15867 581.531102,629.704464 580.895214,628.518396 C580.521202,627.822751 579.947997,627.190483 579.328824,626.740049 C578.361409,626.036859 577.458768,625.376675 576.262907,625.198614 C575.112318,625.027343 574.052967,624.908133 573.001279,625.093739 C572.70597,625.117128 572.409268,625.169188 572.11396,625.240865 C572.329173,625.175979 572.543689,625.111092 572.758903,625.047714 C572.387677,625.135236 572.02272,625.245392 571.662639,625.367621 C571.573489,625.397046 571.483643,625.421945 571.395189,625.455897 C571.432103,625.444579 571.46832,625.434016 571.505234,625.421945 C571.410512,625.455897 571.314397,625.484568 571.221069,625.520783 C570.627666,625.74336 570.116447,626.172668 569.595478,626.540862 C568.705373,627.171621 568.061823,628.433138 567.590304,629.415492 C566.697414,631.276834 566.953023,633.374332 567.467724,635.285471 C567.891881,636.856332 568.901085,637.954123 569.937451,639.063987 C570.445884,639.607224 571.046948,640.005598 571.695374,640.288534 C571.412602,641.547033 571.14167,642.874192 571.361062,644.126655 C571.550505,645.207093 572.751241,645.274998 573.20883,644.386202 C573.757659,643.323871 573.881633,642.045001 574.097542,640.854406 C574.43464,640.882322 574.771738,640.896658 575.100477,640.890622 C577.015805,640.855915 578.618412,639.648721 579.887403,638.216688 C580.937003,637.031375 581.912775,635.025924 581.955957,633.36226 C581.971976,632.725466 582.046499,632.145258 581.955957,631.53638" id="Fill-81" fill="#B4A0D8"></path>
            <path d="M526.674012,651.215343 C525.66987,648.671938 522.607095,647.353034 519.950723,648.314993 C519.271705,648.560996 518.684038,648.90347 518.139528,649.297625 C518.084142,649.314852 518.027318,649.324499 517.971932,649.343105 C517.578475,649.480232 517.231054,649.656637 516.913843,649.864051 C516.941895,649.839933 516.969948,649.817194 516.99872,649.793076 C516.600228,650.0377 516.277263,650.320224 515.994578,650.631 C515.796771,650.841171 515.614789,651.068568 515.442876,651.311125 C515.463016,651.280117 515.482438,651.24773 515.503297,651.216721 C515.466613,651.266335 515.434964,651.320083 515.398999,651.370386 C515.374543,651.40484 515.350806,651.441362 515.32635,651.476505 C515.006262,651.934056 514.712068,652.405389 514.438015,652.889814 C513.776979,654.059188 513.931629,655.760533 514.454559,656.935419 C514.832911,657.7761 515.401876,658.476208 516.160017,659.033676 C516.921755,659.586321 517.777002,659.927417 518.723599,660.054897 C519.517705,660.254042 520.401005,660.197537 521.233234,659.961871 C521.317392,660.6165 521.521673,661.228405 521.966199,661.674242 C522.486253,662.192432 523.680289,662.113877 523.846447,661.283532 C523.985991,660.593071 523.852201,659.981165 523.791061,659.292082 C523.768763,659.033676 523.735675,658.778027 523.711219,658.519621 C524.421886,657.862236 525.159168,657.216565 525.709432,656.428943 C526.80924,654.858524 527.41417,653.088959 526.674012,651.215343" id="Fill-83" fill="#B4A0D8"></path>
            <path d="M665.711986,611.894029 C664.926535,609.095184 662.781789,607.276152 660.066875,606.354739 C658.635575,605.86952 657.093327,605.720277 655.567979,605.8551 C655.16166,605.295619 654.727421,604.752 654.236606,604.241547 C649.052185,598.848616 639.643666,598.460007 634.302743,603.872405 C632.490106,605.708741 630.990474,608.093743 630.423979,610.612847 C629.894956,612.963242 629.822216,615.113926 630.427653,617.464321 C630.484963,617.687825 630.551091,617.893304 630.633384,618.110319 C631.010312,619.108877 631.412222,620.283353 632.023537,621.173043 C632.360054,621.66403 632.725227,622.126899 633.107299,622.570302 C634.030149,623.806783 635.166078,624.833458 636.537128,625.62942 C638.511411,627.12257 641.844253,627.803896 644.268205,627.713053 C644.343884,627.710169 644.418829,627.701517 644.494509,627.697191 L644.494509,630.910599 C644.494509,633.694303 648.90303,633.698629 648.90303,630.910599 L648.90303,626.827689 C649.778121,626.513342 650.620884,626.118966 651.428378,625.647445 C656.049243,625.359774 660.799424,623.061289 663.633368,619.610679 C665.496703,617.341754 666.541523,614.851489 665.711986,611.894029" id="Fill-85" fill="#B4A0D8"></path>
            <path d="M470.348718,656.855572 C470.053437,656.188515 469.664566,655.557516 469.202419,654.981323 C468.933257,652.45444 467.786233,650.022026 465.839702,648.185998 C465.146119,647.531201 464.378534,646.980248 463.564517,646.521601 C461.68836,643.179106 457.9774,641.107985 454.063299,641.003419 C449.473026,640.881546 445.560376,644.031496 444.279134,648.208353 C440.50578,650.184283 437.916451,654.441908 438.002061,658.690879 C438.105083,663.836952 441.0724,667.423193 444.96256,670.395742 C446.067504,671.2402 447.391552,671.578415 448.743168,671.553897 C449.420065,675.182685 450.097687,678.810032 450.775309,682.43882 C451.285339,685.172671 455.481662,684.014516 454.972357,681.287877 C454.325932,677.824951 453.679507,674.362025 453.033081,670.899099 C453.660643,670.997896 454.292559,671.077221 454.928827,671.111115 C457.319367,671.838748 460.2018,671.476013 462.256431,670.026517 C464.756523,669.101291 467.008491,667.600594 468.698919,665.520819 C470.752824,662.991773 471.747492,660.019224 470.348718,656.855572" id="Fill-89" fill="#B4A0D8"></path>
            <path d="M1093.60068,594.421459 C1091.54323,593.22954 1089.23896,592.777873 1086.92243,593.10178 C1084.25157,593.47604 1082.37597,594.830288 1080.74502,596.86617 C1077.5827,598.298577 1075.03452,602.160665 1076.35732,605.852157 C1077.8692,610.068214 1080.81214,613.387701 1084.86282,614.450357 C1084.98622,616.245 1085.11107,618.03889 1085.23519,619.832781 C1085.43509,622.711122 1089.7665,622.733668 1089.56516,619.832781 L1089.20938,614.700615 C1093.4347,614.106159 1097.44713,611.104567 1098.61911,606.726933 C1099.91665,601.881098 1097.81446,596.862413 1093.60068,594.421459" id="Fill-97" fill="#B4A0D8"></path>
            <path d="M1146.75234,602.511991 C1146.27028,602.374716 1145.78526,602.263134 1145.30024,602.162563 C1145.03703,599.259233 1143.89842,596.412428 1141.80456,594.12867 C1139.65156,591.779579 1135.53556,591.341326 1132.8443,592.980552 C1130.62697,594.330545 1128.62331,595.858923 1126.81632,597.549535 C1123.80936,596.505657 1120.49778,596.841871 1117.55883,598.333544 C1114.46167,599.904499 1113.5981,603.523568 1114.16075,606.623635 C1114.38773,607.874526 1114.70935,609.110735 1115.10639,610.324922 C1114.87866,613.066018 1116.06755,615.542108 1118.24569,617.067549 C1118.74254,617.808247 1119.37691,618.451311 1120.10961,618.968111 C1120.88742,619.58695 1121.75542,620.053832 1122.64635,620.296816 C1124.15907,620.709375 1125.54611,620.631561 1126.78231,620.210927 C1127.80706,620.46272 1128.8806,620.428218 1129.91644,620.179361 C1129.7878,621.905209 1129.8743,623.646473 1130.15747,625.40609 C1130.60626,628.197838 1134.88197,627.013015 1134.43539,624.235214 C1134.17884,622.645173 1134.19436,621.07275 1134.42948,619.521615 C1139.35581,619.965007 1144.47882,618.712647 1148.51866,615.928974 C1153.62097,612.413411 1153.18327,604.338409 1146.75234,602.511991" id="Fill-99" fill="#B4A0D8"></path>
            <path d="M1171.95031,620.383736 C1169.50365,617.513748 1164.63265,616.120522 1161.1141,617.594378 C1159.78754,618.149344 1158.65161,618.733365 1157.73151,619.703103 C1156.01288,620.640879 1154.6374,622.222242 1154.20577,624.134114 C1153.313,628.092242 1155.38701,631.8448 1159.23001,633.069503 C1159.77099,633.242385 1160.31845,633.373136 1160.86878,633.472652 C1160.83713,635.454985 1160.52491,637.385744 1159.90911,639.326672 C1159.05807,642.004165 1163.22407,643.150417 1164.0708,640.485272 C1164.78731,638.229089 1165.16715,635.902444 1165.19449,633.551829 C1167.03686,633.298317 1168.8375,632.69323 1170.49498,631.7925 C1172.46755,630.719614 1173.64016,628.656651 1173.92864,626.485456 C1174.24661,624.096342 1173.48693,622.185922 1171.95031,620.383736" id="Fill-101" fill="#B4A0D8"></path>
            <path d="M1090.70804,632.537857 C1090.17058,630.023427 1087.97946,628.12842 1085.64926,627.406127 C1084.55043,627.065922 1083.38207,626.896922 1082.19995,626.891779 C1082.15287,626.134951 1082.08333,625.364898 1081.96454,624.562514 C1081.60454,622.136993 1079.11571,620.022286 1076.90503,619.43005 C1070.9821,617.842183 1064.54924,620.748987 1062.14009,626.539082 C1061.58017,627.885206 1061.28754,629.270273 1061.21511,630.646523 C1059.355,631.498872 1057.53764,633.525406 1057.28049,635.41233 C1056.60976,640.319216 1057.11245,644.380365 1059.108,648.916185 C1060.33576,651.707628 1064.5123,653.244061 1067.28797,652.293251 C1067.88845,652.087511 1068.47371,651.866341 1069.05101,651.635619 L1069.05101,654.870872 C1069.05101,657.707137 1073.39705,657.712281 1073.39705,654.870872 L1073.39705,649.564264 C1075.2376,648.536302 1076.99195,647.358444 1078.72022,646.024076 C1079.11571,646.111516 1079.51989,646.182055 1079.94074,646.217324 C1082.94892,646.469355 1086.11356,644.910879 1088.11563,642.702854 C1090.68269,639.870998 1091.50409,636.256597 1090.70804,632.537857" id="Fill-103" fill="#B4A0D8"></path>
            <path d="M1310.53948,652.303131 C1310.34688,652.089784 1310.14402,651.892566 1309.93018,651.712943 C1310.92468,651.399154 1311.76394,651.288448 1311.75515,651.792857 C1311.75295,651.932889 1311.23959,652.116911 1310.53948,652.303131 M1300.0071,647.985594 C1299.69439,648.239265 1299.38974,648.500267 1299.08949,648.763469 C1298.96206,648.105098 1299.33262,647.586759 1300.0071,647.985594 M1319.68849,650.023026 C1318.5336,645.45695 1313.97484,643.020682 1309.48712,643.551485 C1308.77529,643.635798 1308.07445,643.783161 1307.38313,643.975248 C1306.67863,642.912909 1305.66948,641.959077 1304.30148,641.198797 C1299.11219,638.311641 1293.35167,641.000113 1291.44761,645.426157 C1291.29968,645.427623 1291.15102,645.427623 1291.00089,645.437154 C1287.54063,645.660766 1284.21585,648.273723 1284.01226,651.896965 C1283.86579,654.512854 1285.04411,656.729909 1286.883,658.444753 C1286.80976,659.730704 1287.37293,661.025452 1288.87127,661.837052 C1291.07193,663.029159 1293.3568,663.735185 1295.66145,663.988123 C1295.27111,666.962524 1294.88151,669.936925 1294.49191,672.911327 C1294.12575,675.709771 1298.52339,675.682645 1298.8859,672.911327 C1299.14221,670.960407 1299.39707,669.008754 1299.65338,667.057834 C1299.81596,666.785834 1299.93093,666.468379 1299.97048,666.09887 C1300.04445,665.410439 1300.11914,664.722009 1300.19311,664.033578 C1304.62078,664.154548 1309.60063,663.251304 1311.5479,660.293032 C1316.96934,658.994618 1321.20588,656.025349 1319.68849,650.023026" id="Fill-105" fill="#B4A0D8"></path>
        </g>
    </g>
</svg>