<?xml version="1.0" encoding="UTF-8"?>
<svg width="1440px" height="1024px" viewBox="0 0 1440 1024" version="1.1" xmlns="http://www.w3.org/2000/svg" xmlns:xlink="http://www.w3.org/1999/xlink">
    <!-- Generator: Sketch 55.2 (78181) - https://sketchapp.com -->
    <title>HomePage_Background_Large</title>
    <desc>Created with Sketch.</desc>
    <defs>
        <linearGradient x1="50%" y1="68.1905111%" x2="50%" y2="13.9811198%" id="linearGradient-1">
            <stop stop-color="#8083F4" offset="0%"></stop>
            <stop stop-color="#5B52B8" offset="100%"></stop>
        </linearGradient>
    </defs>
    <g id="HomePage_Background_Large" stroke="none" stroke-width="1" fill="none" fill-rule="evenodd">
        <rect id="Rectangle" fill="url(#linearGradient-1)" x="0" y="0" width="1440" height="1024"></rect>
        <path d="M-208,893.694368 C-117.511023,856.994257 -33.2839222,838.644202 44.6813025,838.644202 C161.629139,838.644202 347.721229,903.161826 467.47961,901.406699 C587.237992,899.651573 773.281414,838.644202 889.079483,838.644202 C1004.87755,838.644202 1106.37348,897.064893 1202.79583,893.694368 C1267.07739,891.44735 1376.19586,863.549228 1530.15122,810 L1548,958.745515 L1530.15122,1046 L-208,1021.49522 L-208,893.694368 Z" id="Path-5" fill="#7AC1DD"></path>
        <path d="M-32.7644435,880.367496 C3.17766348,904.278543 52.5405975,910.256305 115.324358,898.300781 C209.5,880.367496 354.691339,839 497.273438,839 C639.855536,839 741.1044,898.300781 904.235903,898.300781 C1067.36741,898.300781 1049.83387,855.458984 1208.89945,855.458984 C1314.94317,855.458984 1432.64335,879.615885 1562,927.929687 L1562,996.712582 L-76,1017.61719 L-76,873.097245 L-32.7644435,880.367496 Z" id="Path-4" fill="#42A4CB"></path>
        <path d="M-19,964.694368 C71.488977,927.994257 155.716078,909.644202 233.681302,909.644202 C350.629139,909.644202 536.721229,974.161826 656.47961,972.406699 C776.237992,970.651573 962.281414,909.644202 1078.07948,909.644202 C1193.87755,909.644202 1295.37348,968.064893 1391.79583,964.694368 C1456.07739,962.44735 1565.19586,934.549228 1719.15122,881 L1737,1029.74551 L1719.15122,1117 L-19,1092.49522 L-19,964.694368 Z" id="Path-5" fill="#7AC1DD"></path>
    </g>
</svg>