<?xml version="1.0" encoding="UTF-8"?>
<svg width="110px" height="111px" viewBox="0 0 110 111" version="1.1" xmlns="http://www.w3.org/2000/svg" xmlns:xlink="http://www.w3.org/1999/xlink">
    <title>Sidekick_6_a</title>
    <defs>
        <polygon id="path-1" points="0 0.30232455 22.4300882 0.30232455 22.4300882 23.3102106 0 23.3102106"></polygon>
    </defs>
    <g id="Student-Environmrnt---New-Treatment" stroke="none" stroke-width="1" fill="none" fill-rule="evenodd">
        <g id="Avatars" transform="translate(-1018.000000, -447.000000)">
            <g id="Sidekick_6_a" transform="translate(1018.000000, 447.062424)">
                <path d="M96.455,83.7022764 C96.04,82.4302764 94.331,75.9912764 94.646,75.2262764 C94.964,74.4602764 96.152,75.8522764 96.161,74.3982764 C96.162,74.0632764 96.018,73.3972764 95.775,72.5082764 C95.567,71.4592764 95.336,70.4202764 95.13,69.3802764 C93.525,58.7062764 90.037,49.7512764 86.511,40.0542764 C86.361,39.7472764 86.098,39.2362764 85.78,38.6302764 C84.827,36.8102764 83.388,34.1192764 83.088,33.4452764 C80.783,28.2742764 76.098,22.1372764 71.354,18.5922764 C66.297,14.8102764 60.294,13.4432764 54.873,13.5732764 C51.904,13.6442764 45.497,15.0862764 40.778,17.7642764 C29.193,24.3322764 22.739,37.8332764 22.252,39.2242764 C22.101,39.6552764 22.447,40.0912764 22.855,40.2042764 C22.34,40.7102764 21.816,41.2052764 21.294,41.7152764 C21.006,41.9942764 21.104,42.4022764 21.363,42.6172764 C21.509,42.7372764 21.738,43.2962764 21.305,44.2972764 C20.386,46.4202764 18.646,50.4232764 17.427,54.5082764 C15.664,60.4142764 15.037,66.4932764 14.654,67.4412764 C14.032,68.9802764 14.355,69.6942764 15.011,69.3712764 C16.316,68.7252764 14.855,73.0332764 14.287,75.7022764 C13.518,79.3152764 12.522,84.0332764 12.011,88.6752764 C11.883,89.8362764 11.785,90.9922764 11.729,92.1182764 C11.354,95.2832764 11.728,98.3622764 12.713,101.119276 C13.679,102.952276 15.504,101.677276 16.726,101.033276 C16.261,108.145276 25.525,108.256276 30.603,109.460276 C31.599,109.600276 32.584,109.707276 33.542,109.787276 C36.416,110.019276 39.041,109.987276 40.949,109.613276 C44.141,108.987276 48.716,108.142276 49.675,104.484276 C50.097,102.870276 48.902,101.487276 48.926,99.9242764 C48.941,98.9232764 49.601,98.0902764 50.302,97.4492764 C53.303,94.7062764 60.22,94.4702764 63.027,97.5712764 C64.1,98.7542764 64.468,100.665276 63.669,101.853276 C62.331,103.838276 61.383,105.347276 62.943,107.298276 C64.608,109.382276 73.253,109.384276 77.023,108.772276 C77.818,108.644276 79.403,108.382276 81.331,108.016276 C82.296,107.833276 83.345,107.623276 84.423,107.391276 C87.565,107.234276 89.685,105.337276 91.477,102.518276 C92.069,101.271276 94.295,104.310276 95.496,102.742276 C97.584,99.3002764 96.572,95.3072764 96.802,91.5992764 C96.795,91.2892764 97.708,90.6522764 97.6873568,89.7262764 C97.682,89.4172764 97.359,88.8072764 97.502,88.5672764 C97.405,87.7082764 97.232,86.7652764 97.039,85.9012764 C96.846,85.0352764 96.633,84.2492764 96.455,83.7022764" id="Fill-21" fill="#BCDD40"></path>
                <path d="M41.7504,14.9991764 C42.6014,20.6881764 38.6034,26.0021764 32.8204,26.8671764 C27.0384,27.7311764 21.6614,23.8201764 20.8104,18.1301764 C19.9594,12.4391764 26.1674,5.08617644 30.8234,4.65717644 C36.1744,4.16117644 40.8994,9.30917644 41.7504,14.9991764" id="Fill-23" fill="#BCDD40"></path>
                <path d="M89.54,14.3057764 C89.663,20.0567764 85.066,26.7987764 79.222,26.9237764 C73.376,27.0497764 68.495,20.5117764 68.371,14.7597764 C68.248,9.00777644 74.035,2.89377644 78.705,2.79377644 C83.157,2.69777644 89.376,6.66277644 89.54,14.3057764" id="Fill-25" fill="#BCDD40"></path>
                <path d="M65.4755,11.5157764 C65.5985,17.2667764 61.0015,24.0067764 55.1575,24.1317764 C49.3115,24.2577764 44.4305,17.7207764 44.3065,11.9697764 C44.1835,6.21677644 50.1825,0.097776443 54.6405,0.00177644305 C60.2235,-0.117223557 65.3525,5.76277644 65.4755,11.5157764" id="Fill-27" fill="#BCDD40"></path>
                <path d="M62.5527,13.0279764 C62.0137,12.3189764 62.0477,11.4369764 62.8407,10.9689764 C63.0597,10.8399764 63.2747,10.8319764 63.5227,10.8289764 C63.0527,10.8349764 63.6317,10.8229764 63.7877,10.8169764 C63.8517,10.8149764 64.1037,10.8089764 63.9497,10.8219764 C64.1537,10.8069764 64.3547,10.7879764 64.5587,10.7839764 C64.5777,10.7819764 64.6007,10.7799764 64.6337,10.7779764 C64.7527,10.7679764 64.8707,10.7529764 64.9897,10.7379764 C65.3497,10.6949764 65.6997,10.6739764 66.0657,10.7169764 C66.7857,10.8039764 67.4047,11.3029764 67.5567,12.0369764 C67.7467,12.9589764 67.1527,13.6749764 66.3167,13.9069764 C65.5737,14.1129764 64.5317,14.0649764 63.7837,13.8049764 C63.3377,13.6489764 62.8477,13.4149764 62.5527,13.0279764" id="Fill-29" fill="#9CBA2B"></path>
                <path d="M47.646,13.0279764 C48.185,12.3189764 48.151,11.4369764 47.358,10.9689764 C47.139,10.8399764 46.924,10.8319764 46.677,10.8289764 C47.146,10.8349764 46.567,10.8229764 46.411,10.8169764 C46.347,10.8149764 46.095,10.8089764 46.249,10.8219764 C46.046,10.8069764 45.844,10.7879764 45.641,10.7839764 C45.621,10.7819764 45.598,10.7799764 45.565,10.7779764 C45.446,10.7679764 45.328,10.7529764 45.21,10.7379764 C44.849,10.6949764 44.499,10.6739764 44.134,10.7169764 C43.413,10.8039764 42.795,11.3029764 42.643,12.0369764 C42.452,12.9589764 43.046,13.6749764 43.883,13.9069764 C44.625,14.1129764 45.667,14.0649764 46.415,13.8049764 C46.861,13.6489764 47.352,13.4149764 47.646,13.0279764" id="Fill-33" fill="#9CBA2B"></path>
                <path d="M46.0893,10.4957764 C45.3443,15.5297764 48.5913,20.1827764 53.3423,20.8847764 C58.0923,21.5877764 63.6233,18.1847764 64.3673,13.1497764 C65.1123,8.11577644 61.2283,3.09177644 56.4763,2.38877644 C51.7263,1.68577644 46.8353,5.46077644 46.0893,10.4957764" id="Fill-37" fill="#9CBA2B"></path>
                <path d="M36.7124,30.6856764 C34.4224,33.6706764 35.6294,41.5236764 51.4114,42.6736764 C67.1944,43.8246764 76.8034,36.1796764 74.8054,32.6736764 C73.9864,31.2356764 66.6024,31.5246764 54.6224,30.7496764 C42.6404,29.9736764 37.4514,29.7256764 36.7124,30.6856764" id="Fill-39" fill="#992897"></path>
                <path d="M47.2895,36.6172764 C49.0895,35.1662764 51.3555,34.6012764 53.6365,34.5202764 C59.6625,34.3072764 65.1635,36.3632764 70.3755,39.0832764 C74.0815,36.9362764 75.7555,34.3392764 74.8055,32.6742764 C73.9865,31.2362764 66.6025,31.5242764 54.6225,30.7502764 C42.6405,29.9732764 37.4515,29.7252764 36.7125,30.6852764 C34.9055,33.0402764 35.2765,38.4212764 43.2555,41.1532764 C44.4865,39.5412764 45.7085,37.8912764 47.2895,36.6172764" id="Fill-41" fill="#1B1464"></path>
                <path d="M40.3139,30.0411764 C39.4859,30.1371764 39.2849,34.9371764 44.2569,34.9571764 C49.2279,34.9761764 49.1749,30.7911764 48.2109,30.4571764 C47.2479,30.1221764 41.1429,29.9451764 40.3139,30.0411764" id="Fill-43" fill="#F9F9F9"></path>
                <path d="M27.3564,50.3433764 C26.2144,50.9023764 26.0284,52.4833764 25.7794,53.6033764 C25.3914,55.3483764 24.7644,57.0393764 24.6694,58.8353764 C24.5414,61.2533764 27.9384,61.2963764 28.6364,59.2843764 C29.3294,57.2913764 29.6814,54.9793764 29.6984,52.8713764 C29.7084,51.7433764 28.8124,49.6283764 27.3564,50.3433764" id="Fill-45" fill="#00D494"></path>
                <path d="M36.5493,49.8047764 C36.2723,49.6077764 35.7963,49.6417764 35.5243,49.8267764 C34.8723,50.2697764 34.6753,50.9777764 34.6203,51.7327764 C34.5573,52.5487764 34.3693,53.3027764 34.7073,54.0857764 C35.1323,55.0757764 36.2353,55.1757764 36.8673,54.3207764 C37.3893,53.6157764 37.3803,52.7727764 37.4223,51.9297764 C37.4653,51.0677764 37.2773,50.3227764 36.5493,49.8047764" id="Fill-47" fill="#00D494"></path>
                <path d="M23.5146,43.5308764 C23.5276,43.2468764 23.1416,43.0918764 22.9316,43.2458764 C22.1036,43.8548764 21.3736,44.4768764 20.7676,45.3138764 C20.1346,46.1908764 19.5096,46.8258764 19.6346,47.9658764 C19.6756,48.3328764 19.9846,48.6238764 20.3646,48.5938764 C22.5986,48.4178764 23.4266,45.3978764 23.5146,43.5308764" id="Fill-49" fill="#00D494"></path>
                <path d="M25.623,71.0308764 C25.178,70.4148764 24.351,70.4288764 23.935,71.0668764 C23.503,71.7288764 23.352,72.6138764 23.185,73.3818764 C22.967,74.3878764 22.637,75.3218764 22.923,76.3438764 C23.253,77.5198764 24.893,77.6568764 25.478,76.6228764 C25.972,75.7498764 25.98,74.6918764 26.085,73.7098764 C26.178,72.8238764 26.159,71.7748764 25.623,71.0308764" id="Fill-51" fill="#00D494"></path>
                <path d="M19.4741,66.6763764 C19.4021,66.0113764 18.6191,65.9533764 18.2281,66.3493764 C17.1671,67.4273764 16.6691,68.7823764 16.0981,70.1723764 C15.4741,71.6873764 15.1121,72.7773764 15.5961,74.3423764 C15.7511,74.8433764 16.5101,74.8953764 16.7931,74.4933764 C17.6471,73.2803764 18.0101,72.0113764 18.5631,70.6243764 C19.1041,69.2723764 19.6301,68.1423764 19.4741,66.6763764" id="Fill-53" fill="#00D494"></path>
                <path d="M32.6914,77.4429764 C32.6404,76.4319764 31.1904,76.2529764 30.9254,77.2429764 C30.3164,79.5089764 29.8654,82.3279764 30.5964,84.5949764 C30.8074,85.2499764 31.5824,85.2409764 31.9424,84.7409764 C33.4214,82.6979764 32.8094,79.8079764 32.6914,77.4429764" id="Fill-55" fill="#00D494"></path>
                <path d="M35.0351,62.6656764 C34.7821,61.7166764 33.3011,61.7356764 33.0981,62.7076764 C32.8691,63.7976764 32.7571,64.8506764 32.6681,65.9586764 C32.5761,67.0996764 32.1041,68.4286764 32.8611,69.4356764 C33.1151,69.7736764 33.5641,70.0496764 34.0051,69.8716764 C36.5971,68.8336764 35.5771,64.7076764 35.0351,62.6656764" id="Fill-57" fill="#00D494"></path>
                <path d="M50.4863,51.1129764 C50.2663,50.3679764 49.1463,50.3829764 48.9653,51.1459764 C48.6373,52.5199764 48.5893,53.8369764 48.5113,55.2439764 C48.4273,56.7599764 48.2493,58.2299764 48.8893,59.6419764 C49.1023,60.1109764 49.8443,60.1359764 50.1603,59.7789764 C52.0353,57.6479764 51.2113,53.5919764 50.4863,51.1129764" id="Fill-59" fill="#00D494"></path>
                <path d="M20.6884,83.3292764 C21.1674,82.0622764 19.1994,81.1392764 18.5314,82.3172764 C17.4554,84.2112764 13.2864,89.1432764 16.0114,91.0722764 C18.5634,92.8782764 20.1944,84.6332764 20.6884,83.3292764" id="Fill-61" fill="#00D494"></path>
                <path d="M39.9736,82.6500764 C40.1356,81.6530764 38.9576,81.2280764 38.3866,82.0210764 C37.3736,83.4300764 37.0456,84.5450764 36.8516,86.2860764 C36.6786,87.8460764 36.7266,89.6420764 37.8686,90.8300764 C38.1586,91.1310764 38.6326,91.1480764 38.9796,90.9500764 C41.8996,89.2810764 39.5696,85.1590764 39.9736,82.6500764" id="Fill-63" fill="#00D494"></path>
                <path d="M25.5297,93.8336764 C25.3747,92.9836764 25.1897,92.0006764 24.4707,91.4396764 C24.1607,91.1986764 23.6377,91.1006764 23.3557,91.4636764 C22.8597,92.1046764 22.7437,92.8376764 22.6907,93.6326764 C22.6277,94.5866764 22.4377,95.6956764 22.8037,96.6036764 C23.3467,97.9486764 25.0807,97.9166764 25.5637,96.5446764 C25.8567,95.7086764 25.6857,94.6866764 25.5297,93.8336764" id="Fill-65" fill="#00D494"></path>
                <path d="M75.8486,48.8272764 C75.5266,48.3862764 74.7806,48.4132764 74.6416,49.0112764 C74.3066,50.4492764 74.4316,51.7952764 74.5136,53.2562764 C74.5846,54.5632764 74.6466,56.1222764 75.4396,57.2062764 C75.8706,57.7972764 76.6776,57.7982764 77.0796,57.1712764 C78.5006,54.9532764 77.2866,50.7872764 75.8486,48.8272764" id="Fill-67" fill="#00D494"></path>
                <path d="M58.4091,66.2740764 C58.3181,64.9640764 58.2611,63.4910764 57.5821,62.3370764 C57.2781,61.8210764 56.4721,61.8380764 56.1891,62.3680764 C55.5611,63.5480764 55.5671,65.0240764 55.5341,66.3360764 C55.4981,67.6620764 55.3721,69.0130764 56.4291,69.9820764 C56.7861,70.3130764 57.3261,70.3010764 57.6711,69.9560764 C58.6841,68.9420764 58.5011,67.5970764 58.4091,66.2740764" id="Fill-69" fill="#00D494"></path>
                <path d="M47.6669,93.6812764 C47.4539,92.0992764 45.3189,92.1282764 45.1909,93.7342764 C45.1049,94.8242764 45.0489,95.9082764 45.0139,97.0012764 C44.9799,98.0202764 44.9539,98.9262764 45.7499,99.6722764 C46.0649,99.9702764 46.4889,99.9862764 46.8609,99.7922764 C48.8959,98.7352764 47.9049,95.4472764 47.6669,93.6812764" id="Fill-71" fill="#00D494"></path>
                <path d="M80.8476,81.3834764 C80.7686,80.0354764 80.7496,78.5784764 80.0046,77.4154764 C79.4126,76.4944764 78.0966,76.7544764 77.7816,77.7544764 C77.4096,78.9374764 77.6176,80.2274764 77.6216,81.4524764 C77.6286,82.9224764 77.4576,84.3784764 77.7706,85.8234764 C78.0996,87.3474764 80.5266,87.2594764 80.8156,85.7584764 C81.0956,84.3174764 80.9336,82.8404764 80.8476,81.3834764" id="Fill-73" fill="#00D494"></path>
                <path d="M74.1777,85.9693764 C73.8007,85.0153764 72.4857,85.2173764 72.4227,86.2453764 C72.2667,88.7613764 71.1147,91.3503764 71.4817,93.8813764 C71.7297,95.5903764 74.0007,95.9983764 74.5587,94.2303764 C75.4037,91.5543764 75.1917,88.5303764 74.1777,85.9693764" id="Fill-75" fill="#00D494"></path>
                <path d="M74.7978,65.2989764 C74.6118,63.9979764 74.0628,62.2279764 72.7238,61.6929764 C72.2308,61.4959764 71.6408,61.6439764 71.4978,62.2229764 C71.2238,63.3359764 71.3838,64.6499764 71.4438,65.7839764 C71.5168,67.1419764 71.2348,68.5249764 72.0208,69.7259764 C72.6338,70.6629764 73.9528,70.6109764 74.5308,69.6729764 C75.3318,68.3719764 75.0008,66.7309764 74.7978,65.2989764" id="Fill-77" fill="#00D494"></path>
                <path d="M88.8476,55.2139764 C87.7646,54.4449764 86.2856,55.6399764 87.0836,56.8179764 C87.9506,58.0999764 88.8846,59.3239764 89.7536,60.6019764 C90.6806,61.9619764 91.3986,63.0329764 92.7876,63.9209764 C93.2246,64.1999764 93.8166,63.8109764 93.9026,63.3579764 C94.5456,59.9589764 91.3816,57.0149764 88.8476,55.2139764" id="Fill-79" fill="#00D494"></path>
                <path d="M80.9697,61.0137764 C80.7647,61.0487764 80.6027,61.2607764 80.5537,61.4477764 C80.2147,62.7107764 80.8067,64.4607764 80.8557,65.7667764 C80.9157,67.4027764 80.5417,69.1817764 81.7027,70.5087764 C82.1567,71.0267764 83.1057,70.9697764 83.5427,70.4697764 C85.1767,68.6077764 84.6017,60.3817764 80.9697,61.0137764" id="Fill-81" fill="#00D494"></path>
                <path d="M90.1162,80.6158764 C89.9652,79.3998764 89.5462,78.2828764 89.2882,77.0898764 C89.0962,76.2108764 87.6282,76.2238764 87.4892,77.1288764 C87.1882,79.1068764 87.0642,81.0708764 86.8192,83.0548764 C86.7062,83.9668764 87.0682,84.8578764 88.0422,85.1048764 C88.8492,85.3078764 89.9792,84.7958764 90.0932,83.8808764 C90.2312,82.7608764 90.2562,81.7388764 90.1162,80.6158764" id="Fill-83" fill="#00D494"></path>
                <path d="M95.081,74.2398764 C94.647,72.7548764 94.37,71.3348764 93.254,70.2128764 C92.919,69.8738764 92.26,69.9488764 92.048,70.3948764 C91.372,71.8118764 91.585,73.1628764 91.853,74.6718764 C92.107,76.0888764 92.347,77.8938764 93.81,78.5558764 C94.35,78.8008764 94.904,78.6638764 95.226,78.1538764 C95.99,76.9348764 95.451,75.5068764 95.081,74.2398764" id="Fill-85" fill="#00D494"></path>
                <path d="M51.0639,104.551376 C50.9459,103.837376 50.4289,103.241376 49.9639,102.721376 C49.7169,102.445376 49.4119,102.148376 49.0669,101.952376 C48.9679,101.685376 48.7649,101.459376 48.4659,101.418376 C48.1969,101.379376 47.9839,101.380376 47.7199,101.450376 C46.9009,101.671376 46.8199,102.632376 47.2989,103.198376 C47.9439,103.958376 48.3109,104.893376 49.0169,105.614376 C49.3559,105.961376 49.8369,106.223376 50.3349,106.075376 C51.0519,105.858376 51.1689,105.190376 51.0639,104.551376" id="Fill-97" fill="#BF9C6A"></path>
                <path d="M53.0966,26.2012764 C52.9826,26.1132764 52.8676,26.0252764 52.7466,25.9482764 C52.7426,25.9442764 52.7416,25.9442764 52.7376,25.9412764 C52.7276,25.9312764 52.7116,25.9162764 52.6806,25.8902764 C52.5506,25.7782764 52.4336,25.6462764 52.3086,25.5282764 C52.0416,25.2752764 51.8006,25.0232764 51.4826,24.8292764 C50.9576,24.5082764 50.1596,25.0812764 50.4116,25.6912764 C50.7936,26.6202764 51.1526,27.5022764 52.1566,27.8982764 C53.0816,28.2632764 53.8676,26.8002764 53.0966,26.2012764" id="Fill-99" fill="#1B1464"></path>
                <path d="M59.9628,25.0298764 C59.9108,24.5088764 59.4268,24.2618764 58.9648,24.4868764 C58.4848,24.7198764 58.1908,25.1648764 57.8818,25.5858764 C57.5798,25.9998764 57.1078,26.2978764 56.8998,26.7748764 C56.5168,27.6528764 57.1808,28.4078764 58.0918,28.2588764 C58.8188,28.1378764 59.2288,27.4098764 59.5168,26.8028764 C59.7748,26.2568764 60.0218,25.6408764 59.9628,25.0298764" id="Fill-101" fill="#1B1464"></path>
                <path d="M62.4189,11.1251764 C62.5099,15.3421764 59.1149,19.6271764 55.1359,19.7131764 C51.1569,19.7981764 48.1009,15.6501764 48.0099,11.4341764 C47.9199,7.21617644 51.0719,3.72917644 55.0509,3.64417644 C59.0299,3.55917644 62.3279,6.90817644 62.4189,11.1251764" id="Fill-103" fill="#F9F9F9"></path>
                <path d="M58.0361,11.7642764 C58.0721,13.4102764 56.7671,14.7732764 55.1211,14.8082764 C53.4751,14.8432764 52.1121,13.5382764 52.0771,11.8922764 C52.0411,10.2472764 53.3481,8.88427644 54.9931,8.84827644 C56.6401,8.81327644 58.0011,10.1192764 58.0361,11.7642764" id="Fill-105" fill="#1E2D6A"></path>
                <path d="M86.1738,15.4254764 C85.6348,14.7164764 85.6688,13.8344764 86.4618,13.3664764 C86.6808,13.2384764 86.8958,13.2294764 87.1428,13.2264764 C86.6738,13.2324764 87.2528,13.2204764 87.4078,13.2154764 C87.4728,13.2124764 87.7248,13.2064764 87.5708,13.2204764 C87.7738,13.2044764 87.9758,13.1864764 88.1798,13.1814764 C88.1978,13.1794764 88.2218,13.1774764 88.2548,13.1754764 C88.3728,13.1654764 88.4918,13.1514764 88.6098,13.1364764 C88.9708,13.0924764 89.3208,13.0714764 89.6868,13.1144764 C90.4068,13.2014764 91.0248,13.7004764 91.1768,14.4354764 C91.3678,15.3564764 90.7738,16.0724764 89.9368,16.3044764 C89.1948,16.5114764 88.1528,16.4634764 87.4048,16.2024764 C86.9588,16.0464764 86.4688,15.8134764 86.1738,15.4254764" id="Fill-107" fill="#9CBA2B"></path>
                <path d="M86.1953,12.6329764 C85.3283,12.3339764 84.8663,11.4849764 85.2993,10.5089764 C85.4193,10.2399764 85.6013,10.0859764 85.8173,9.91497644 C85.4093,10.2389764 85.9103,9.83497644 86.0433,9.72397644 C86.0973,9.67797644 86.3143,9.50197644 86.1883,9.61797644 C86.3563,9.46597644 86.5233,9.31297644 86.6993,9.16997644 C86.7153,9.15497644 86.7343,9.13697644 86.7613,9.11197644 C86.8593,9.02297644 86.9553,8.92897644 87.0503,8.83497644 C87.3413,8.54897644 87.6363,8.29097644 87.9803,8.08497644 C88.6603,7.67697644 89.4793,7.72497644 90.0223,8.30997644 C90.7043,9.04297644 90.5833,10.1179764 89.9803,10.9029764 C89.4463,11.5989764 88.5063,12.2619764 87.7073,12.5249764 C87.2293,12.6819764 86.6703,12.7959764 86.1953,12.6329764" id="Fill-109" fill="#9CBA2B"></path>
                <path d="M69.7119,12.8799764 C68.9589,17.9129764 72.1989,22.5699764 76.9489,23.2799764 C81.6989,23.9899764 87.2339,20.5949764 87.9859,15.5609764 C88.7379,10.5279764 84.8619,5.49897644 80.1109,4.78797644 C75.3619,4.07897644 70.4659,7.84597644 69.7119,12.8799764" id="Fill-111" fill="#9CBA2B"></path>
                <path d="M85.5732,13.2608764 C85.6632,17.4778764 82.8172,21.6118764 78.8382,21.6968764 C74.8582,21.7818764 70.6812,17.7978764 70.5912,13.5818764 C70.5012,9.36487644 74.2262,5.86487644 78.2052,5.77987644 C82.1842,5.69487644 85.4822,9.04387644 85.5732,13.2608764" id="Fill-113" fill="#F9F9F9"></path>
                <path d="M80.9335,13.4053764 C80.9685,15.0513764 79.6625,16.4143764 78.0165,16.4493764 C76.3715,16.4853764 75.0085,15.1783764 74.9735,13.5333764 C74.9385,11.8873764 76.2435,10.5253764 77.8885,10.4893764 C79.5355,10.4543764 80.8975,11.7593764 80.9335,13.4053764" id="Fill-115" fill="#1E2D6A"></path>
                <path d="M23.9257,16.5074764 C24.4727,15.8044764 24.4497,14.9224764 23.6627,14.4444764 C23.4457,14.3134764 23.2307,14.3024764 22.9827,14.2964764 C23.4527,14.3084764 22.8737,14.2894764 22.7177,14.2814764 C22.6537,14.2784764 22.4017,14.2694764 22.5547,14.2844764 C22.3527,14.2664764 22.1517,14.2464764 21.9467,14.2384764 C21.9277,14.2364764 21.9047,14.2344764 21.8717,14.2314764 C21.7537,14.2204764 21.6347,14.2044764 21.5177,14.1884764 C21.1567,14.1404764 20.8067,14.1144764 20.4417,14.1534764 C19.7197,14.2324764 19.0957,14.7234764 18.9347,15.4554764 C18.7327,16.3744764 19.3187,17.0984764 20.1517,17.3404764 C20.8907,17.5564764 21.9347,17.5204764 22.6847,17.2694764 C23.1337,17.1184764 23.6267,16.8914764 23.9257,16.5074764" id="Fill-117" fill="#9CBA2B"></path>
                <path d="M23.9379,13.7144764 C24.8089,13.4254764 25.2809,12.5824764 24.8599,11.6014764 C24.7439,11.3314764 24.5629,11.1744764 24.3499,11.0014764 C24.7529,11.3304764 24.2579,10.9204764 24.1259,10.8074764 C24.0719,10.7614764 23.8559,10.5814764 23.9809,10.7004764 C23.8149,10.5464764 23.6509,10.3904764 23.4769,10.2454764 C23.4609,10.2304764 23.4419,10.2124764 23.4149,10.1874764 C23.3179,10.0964764 23.2229,10.0014764 23.1289,9.90647644 C22.8409,9.61647644 22.5489,9.35547644 22.2079,9.14447644 C21.5339,8.72847644 20.7139,8.76647644 20.1639,9.34447644 C19.4739,10.0694764 19.5819,11.1464764 20.1739,11.9384764 C20.6999,12.6414764 21.6319,13.3154764 22.4279,13.5884764 C22.9039,13.7514764 23.4609,13.8714764 23.9379,13.7144764" id="Fill-119" fill="#9CBA2B"></path>
                <path d="M40.4169,14.1622764 C41.1079,19.2042764 37.8119,23.8222764 33.0539,24.4732764 C28.2959,25.1252764 22.8019,21.6632764 22.1119,16.6202764 C21.4199,11.5792764 25.3579,6.59727644 30.1169,5.94427644 C34.8749,5.29227644 39.7249,9.12027644 40.4169,14.1622764" id="Fill-121" fill="#9CBA2B"></path>
                <path d="M98.2421,66.9039764 C98.6151,66.6869764 98.9891,66.5249764 99.3751,66.3369764 C99.3761,66.3609764 99.3791,66.3849764 99.3831,66.4089764 C99.4001,66.3429764 99.4151,66.2749764 99.4261,66.2039764 C99.4341,66.1539764 99.4391,66.0999764 99.4451,66.0469764 C99.3821,65.9989764 99.3131,65.9449764 99.2441,65.8839764 C97.8981,64.6759764 97.0001,63.9239764 96.0431,62.5129764 C95.3841,61.5379764 94.7311,60.5639764 94.0271,59.6119764 C92.3131,57.2989764 91.3141,53.6969764 89.0021,51.9259764 C86.8721,50.2949764 85.6621,48.0169764 88.3231,47.8009764 C93.6031,47.3689764 98.1201,51.4649764 101.5801,55.4959764 C102.9441,57.0869764 104.3591,58.9039764 105.1201,60.7629764 C105.5471,60.2769764 106.0741,59.9409764 106.8651,59.9859764 C107.3931,60.0159764 107.6801,60.1319764 108.1861,60.3479764 C108.8951,60.6519764 109.3461,61.2929764 109.6411,61.9459764 C109.9191,62.5569764 109.9251,63.1819764 109.5711,63.6349764 C109.2101,64.1009764 108.6291,64.2029764 107.9761,64.0849764 C107.7651,64.0469764 107.6181,64.0119764 107.5001,63.9769764 C107.3881,64.0109764 106.2631,63.2759764 105.6601,63.7619764 C105.6241,64.1999764 105.5331,64.6349764 105.3691,65.0639764 C105.3501,65.1159764 105.3241,65.1719764 105.2991,65.2249764 C105.3011,65.2279764 105.3031,65.2279764 105.3051,65.2299764 C106.0921,65.6769764 106.7481,66.1009764 107.2531,66.8649764 C107.4491,67.1599764 107.5601,67.4999764 107.6661,67.8179764 C107.9201,68.5799764 107.7221,69.1909764 107.2531,69.6669764 C106.4451,70.4799764 105.0351,69.9109764 104.4511,68.7659764 C104.2551,68.3339764 104.1651,67.9139764 104.1871,67.5069764 C104.1811,67.6699764 104.1681,67.2759764 104.0551,67.1899764 C103.9291,67.0909764 103.9061,66.9169764 103.6021,66.9069764 C103.1701,67.1279764 102.6951,67.2389764 102.2251,67.1679764 C102.2311,67.2499764 102.2381,67.3329764 102.2401,67.4149764 C102.2691,67.9179764 102.2231,68.3219764 102.0391,68.7459764 C101.5931,69.7739764 100.3821,69.9999764 99.2141,69.7019764 C97.8911,69.3669764 97.1891,67.5199764 98.2421,66.9039764" id="Fill-123" fill="#9CBA2B"></path>
                <g id="Group-127" transform="translate(0.000000, 48.937576)">
                    <mask id="mask-2" fill="white">
                        <use xlink:href="#path-1"></use>
                    </mask>
                    <g id="Clip-126"></g>
                    <path d="M11.768,19.8204 C11.386,19.6194 11.005,19.4734 10.612,19.3024 C10.612,19.3254 10.61,19.3514 10.607,19.3754 C10.587,19.3104 10.569,19.2424 10.555,19.1724 C10.544,19.1224 10.538,19.0684 10.529,19.0154 C10.59,18.9654 10.656,18.9084 10.723,18.8444 C12.016,17.5794 12.881,16.7894 13.776,15.3394 C14.393,14.3374 15.004,13.3354 15.667,12.3544 C17.279,9.9694 18.123,6.3294 20.357,4.4604 C22.415,2.7394 23.527,0.4124 20.858,0.3094 C15.565,0.1044 11.228,4.3894 7.944,8.5664 C6.649,10.2134 5.313,12.0904 4.633,13.9794 C4.186,13.5124 3.645,13.1994 2.856,13.2784 C2.33,13.3304 2.048,13.4594 1.551,13.6964 C0.856,14.0304 0.433,14.6904 0.166,15.3554 C-0.084,15.9784 -0.064,16.6024 0.31,17.0404 C0.69,17.4904 1.275,17.5674 1.921,17.4214 C2.131,17.3734 2.276,17.3324 2.393,17.2934 C2.506,17.3224 3.598,16.5394 4.223,16.9994 C4.277,17.4354 4.386,17.8664 4.568,18.2874 C4.59,18.3394 4.618,18.3934 4.646,18.4454 C4.644,18.4484 4.642,18.4484 4.639,18.4514 C3.873,18.9304 3.236,19.3824 2.764,20.1674 C2.58,20.4714 2.483,20.8154 2.392,21.1374 C2.171,21.9094 2.394,22.5114 2.884,22.9664 C3.725,23.7444 5.109,23.1154 5.644,21.9464 C5.822,21.5064 5.893,21.0834 5.854,20.6774 C5.867,20.8404 5.863,20.4454 5.972,20.3554 C6.094,20.2514 6.109,20.0754 6.413,20.0534 C6.854,20.2554 7.333,20.3464 7.8,20.2544 C7.797,20.3364 7.794,20.4204 7.796,20.5024 C7.788,21.0064 7.851,21.4074 8.053,21.8234 C8.543,22.8314 9.762,23.0054 10.917,22.6574 C12.224,22.2664 12.846,20.3904 11.768,19.8204" id="Fill-125" fill="#9CBA2B" mask="url(#mask-2)"></path>
                </g>
                <path d="M39.7363,13.8585764 C40.3603,18.0295764 37.6743,21.8895764 33.7383,22.4775764 C29.8023,23.0655764 25.5773,20.4695764 24.9543,16.2985764 C24.3303,12.1275764 27.5433,7.95957644 31.4803,7.37057644 C35.4153,6.78257644 39.1113,9.68757644 39.7363,13.8585764" id="Fill-128" fill="#F9F9F9"></path>
                <path d="M35.2788,15.3165764 C35.3138,16.9635764 34.0078,18.3265764 32.3618,18.3615764 C30.7168,18.3965764 29.3538,17.0915764 29.3188,15.4445764 C29.2828,13.7985764 30.5888,12.4355764 32.2338,12.4005764 C33.8808,12.3645764 35.2428,13.6705764 35.2788,15.3165764" id="Fill-130" fill="#1E2D6A"></path>
            </g>
        </g>
    </g>
</svg>