<?xml version="1.0" encoding="UTF-8"?>
<svg width="111px" height="113px" viewBox="0 0 111 113" version="1.1" xmlns="http://www.w3.org/2000/svg" xmlns:xlink="http://www.w3.org/1999/xlink">
    <title>Sidekick_6_b</title>
    <g id="Student-Environmrnt---New-Treatment" stroke="none" stroke-width="1" fill="none" fill-rule="evenodd">
        <g id="Avatars" transform="translate(-1133.000000, -447.000000)">
            <g id="Sidekick_6_b" transform="translate(1133.287773, 447.062424)">
                <path d="M96.4543271,83.7022764 C96.0403271,82.4302764 94.3303271,75.9912764 94.6453271,75.2262764 C94.9633271,74.4602764 96.1523271,75.8522764 96.1613271,74.3982764 C96.1623271,74.0632764 96.0183271,73.3972764 95.7743271,72.5082764 C95.5663271,71.4592764 95.3363271,70.4202764 95.1303271,69.3802764 C93.5253271,58.7062764 90.0373271,49.7512764 86.5113271,40.0542764 C86.3613271,39.7472764 86.0983271,39.2362764 85.7793271,38.6302764 C84.8263271,36.8102764 83.3883271,34.1192764 83.0883271,33.4452764 C80.7833271,28.2742764 76.0983271,22.1372764 71.3533271,18.5922764 C66.2973271,14.8102764 60.2943271,13.4432764 54.8733271,13.5732764 C51.9033271,13.6442764 45.4973271,15.0862764 40.7773271,17.7642764 C29.1923271,24.3322764 22.7383271,37.8332764 22.2513271,39.2242764 C22.1003271,39.6552764 22.4463271,40.0912764 22.8543271,40.2042764 C22.3403271,40.7102764 21.8163271,41.2052764 21.2943271,41.7152764 C21.0063271,41.9942764 21.1033271,42.4022764 21.3623271,42.6172764 C21.5093271,42.7372764 21.7373271,43.2962764 21.3053271,44.2972764 C20.3863271,46.4202764 18.6453271,50.4232764 17.4273271,54.5082764 C15.6643271,60.4142764 15.0363271,66.4932764 14.6543271,67.4412764 C14.0313271,68.9802764 14.3553271,69.6942764 15.0103271,69.3712764 C16.3153271,68.7252764 14.8543271,73.0332764 14.2863271,75.7022764 C13.5173271,79.3152764 12.5223271,84.0332764 12.0113271,88.6752764 C11.8833271,89.8362764 11.7853271,90.9922764 11.7293271,92.1182764 C11.3533271,95.2832764 11.7283271,98.3622764 12.7133271,101.119276 C13.6793271,102.952276 15.5043271,101.677276 16.7253271,101.033276 C16.2613271,108.145276 25.5253271,108.256276 30.6033271,109.460276 C31.5993271,109.600276 32.5843271,109.707276 33.5423271,109.787276 C36.4163271,110.019276 39.0413271,109.987276 40.9493271,109.613276 C44.1413271,108.987276 48.7163271,108.142276 49.6753271,104.484276 C50.0973271,102.870276 48.9013271,101.487276 48.9263271,99.9242764 C48.9403271,98.9232764 49.6003271,98.0902764 50.3023271,97.4492764 C53.3033271,94.7062764 60.2203271,94.4702764 63.0273271,97.5712764 C64.0993271,98.7542764 64.4683271,100.665276 63.6693271,101.853276 C62.3303271,103.838276 61.3823271,105.347276 62.9423271,107.298276 C64.6083271,109.382276 73.2533271,109.384276 77.0223271,108.772276 C77.8173271,108.644276 79.4033271,108.382276 81.3313271,108.016276 C82.2953271,107.833276 83.3443271,107.623276 84.4233271,107.391276 C87.5653271,107.234276 89.6843271,105.337276 91.4773271,102.518276 C92.0693271,101.271276 94.2943271,104.310276 95.4963271,102.742276 C97.5843271,99.3002764 96.5713271,95.3072764 96.8013271,91.5992764 C96.7953271,91.2892764 97.7073271,90.6522764 97.6876513,89.7262764 C97.6813271,89.4172764 97.3583271,88.8072764 97.5023271,88.5672764 C97.4053271,87.7082764 97.2313271,86.7652764 97.0383271,85.9012764 C96.8463271,85.0352764 96.6323271,84.2492764 96.4543271,83.7022764" id="Fill-132" fill="#BCDD40"></path>
                <path d="M42.3264271,14.4229764 C43.1784271,20.1119764 39.1794271,25.4259764 33.3964271,26.2909764 C27.6144271,27.1559764 22.2364271,23.2439764 21.3864271,17.5539764 C20.5354271,11.8639764 26.7434271,4.50997644 31.3984271,4.08097644 C36.7504271,3.58597644 41.4744271,8.73397644 42.3264271,14.4229764" id="Fill-134" fill="#BCDD40"></path>
                <path d="M24.1565271,16.1343764 C24.6955271,15.4243764 24.6615271,14.5433764 23.8685271,14.0753764 C23.6495271,13.9463764 23.4345271,13.9383764 23.1875271,13.9353764 C23.6575271,13.9413764 23.0785271,13.9293764 22.9225271,13.9233764 C22.8575271,13.9213764 22.6055271,13.9143764 22.7595271,13.9283764 C22.5565271,13.9133764 22.3555271,13.8943764 22.1515271,13.8903764 C22.1325271,13.8883764 22.1085271,13.8863764 22.0765271,13.8843764 C21.9575271,13.8743764 21.8395271,13.8593764 21.7205271,13.8443764 C21.3595271,13.8013764 21.0095271,13.7803764 20.6445271,13.8233764 C19.9235271,13.9103764 19.3055271,14.4093764 19.1535271,15.1433764 C18.9625271,16.0653764 19.5565271,16.7813764 20.3935271,17.0133764 C21.1355271,17.2193764 22.1775271,17.1713764 22.9255271,16.9113764 C23.3725271,16.7553764 23.8625271,16.5213764 24.1565271,16.1343764" id="Fill-136" fill="#9CBA2B"></path>
                <path d="M24.1350271,13.3414764 C25.0020271,13.0424764 25.4640271,12.1934764 25.0310271,11.2174764 C24.9120271,10.9484764 24.7290271,10.7944764 24.5140271,10.6234764 C24.9210271,10.9474764 24.4210271,10.5444764 24.2870271,10.4324764 C24.2330271,10.3864764 24.0160271,10.2104764 24.1420271,10.3274764 C23.9740271,10.1744764 23.8080271,10.0214764 23.6310271,9.87847644 C23.6150271,9.86347644 23.5970271,9.84547644 23.5700271,9.82047644 C23.4710271,9.73147644 23.3750271,9.63747644 23.2810271,9.54347644 C22.9890271,9.25847644 22.6940271,8.99947644 22.3500271,8.79347644 C21.6700271,8.38547644 20.8510271,8.43347644 20.3080271,9.01847644 C19.6260271,9.75147644 19.7470271,10.8264764 20.3500271,11.6114764 C20.8840271,12.3084764 21.8240271,12.9704764 22.6230271,13.2334764 C23.1020271,13.3904764 23.6600271,13.5044764 24.1350271,13.3414764" id="Fill-138" fill="#9CBA2B"></path>
                <path d="M40.6184271,13.5884764 C41.3714271,18.6214764 38.1314271,23.2784764 33.3814271,23.9884764 C28.6324271,24.6984764 23.0964271,21.3034764 22.3444271,16.2694764 C21.5924271,11.2364764 25.4684271,6.20747644 30.2194271,5.49647644 C34.9684271,4.78747644 39.8644271,8.55447644 40.6184271,13.5884764" id="Fill-140" fill="#9CBA2B"></path>
                <path d="M88.9641271,13.7300764 C89.0871271,19.4810764 84.4901271,26.2230764 78.6461271,26.3480764 C72.8001271,26.4730764 67.9181271,19.9350764 67.7951271,14.1840764 C67.6721271,8.43207644 73.4591271,2.31707644 78.1281271,2.21707644 C82.5811271,2.12207644 88.8001271,6.08607644 88.9641271,13.7300764" id="Fill-142" fill="#BCDD40"></path>
                <path d="M85.5012271,14.7603764 C84.9632271,14.0513764 84.9972271,13.1693764 85.7902271,12.7013764 C86.0082271,12.5723764 86.2232271,12.5643764 86.4712271,12.5613764 C86.0012271,12.5673764 86.5802271,12.5553764 86.7362271,12.5493764 C86.8012271,12.5473764 87.0532271,12.5413764 86.8992271,12.5553764 C87.1022271,12.5393764 87.3032271,12.5213764 87.5072271,12.5163764 C87.5262271,12.5143764 87.5502271,12.5123764 87.5822271,12.5103764 C87.7012271,12.5003764 87.8192271,12.4863764 87.9382271,12.4713764 C88.2992271,12.4273764 88.6492271,12.4063764 89.0142271,12.4493764 C89.7342271,12.5363764 90.3532271,13.0353764 90.5052271,13.7703764 C90.6962271,14.6913764 90.1012271,15.4073764 89.2652271,15.6393764 C88.5232271,15.8463764 87.4802271,15.7983764 86.7322271,15.5373764 C86.2862271,15.3813764 85.7962271,15.1483764 85.5012271,14.7603764" id="Fill-144" fill="#9CBA2B"></path>
                <path d="M85.5237271,11.9678764 C84.6557271,11.6688764 84.1937271,10.8198764 84.6277271,9.84387644 C84.7467271,9.57487644 84.9297271,9.42087644 85.1447271,9.24987644 C84.7377271,9.57387644 85.2377271,9.16987644 85.3717271,9.05887644 C85.4257271,9.01287644 85.6427271,8.83587644 85.5167271,8.95287644 C85.6847271,8.80087644 85.8507271,8.64787644 86.0267271,8.50487644 C86.0437271,8.48987644 86.0617271,8.47187644 86.0887271,8.44687644 C86.1877271,8.35787644 86.2837271,8.26387644 86.3777271,8.16987644 C86.6697271,7.88387644 86.9647271,7.62587644 87.3087271,7.41987644 C87.9887271,7.01187644 88.8067271,7.05987644 89.3507271,7.64487644 C90.0317271,8.37787644 89.9107271,9.45287644 89.3087271,10.2378764 C88.7747271,10.9338764 87.8347271,11.5968764 87.0357271,11.8598764 C86.5567271,12.0168764 85.9977271,12.1308764 85.5237271,11.9678764" id="Fill-146" fill="#9CBA2B"></path>
                <path d="M69.0403271,12.2149764 C68.2873271,17.2479764 71.5273271,21.9049764 76.2773271,22.6149764 C81.0263271,23.3249764 86.5623271,19.9299764 87.3133271,14.8959764 C88.0663271,9.86297644 84.1903271,4.83397644 79.4393271,4.12297644 C74.6903271,3.41397644 69.7933271,7.18097644 69.0403271,12.2149764" id="Fill-148" fill="#BCDD40"></path>
                <path d="M66.0510271,11.5157764 C66.1750271,17.2667764 61.5780271,24.0067764 55.7330271,24.1317764 C49.8880271,24.2577764 45.0060271,17.7207764 44.8830271,11.9697764 C44.7590271,6.21677644 50.7580271,0.097776443 55.2160271,0.00177644305 C60.7990271,-0.117223557 65.9280271,5.76277644 66.0510271,11.5157764" id="Fill-150" fill="#BCDD40"></path>
                <path d="M62.5461271,12.8062764 C62.0071271,12.0972764 62.0411271,11.2152764 62.8341271,10.7472764 C63.0531271,10.6182764 63.2681271,10.6102764 63.5151271,10.6072764 C63.0461271,10.6132764 63.6251271,10.6012764 63.7801271,10.5952764 C63.8451271,10.5932764 64.0971271,10.5872764 63.9431271,10.6002764 C64.1461271,10.5852764 64.3481271,10.5662764 64.5521271,10.5622764 C64.5701271,10.5602764 64.5941271,10.5582764 64.6271271,10.5562764 C64.7451271,10.5462764 64.8641271,10.5312764 64.9821271,10.5162764 C65.3431271,10.4732764 65.6931271,10.4522764 66.0581271,10.4952764 C66.7791271,10.5822764 67.3971271,11.0812764 67.5491271,11.8152764 C67.7401271,12.7372764 67.1461271,13.4532764 66.3091271,13.6852764 C65.5671271,13.8912764 64.5251271,13.8432764 63.7771271,13.5832764 C63.3301271,13.4272764 62.8401271,13.1932764 62.5461271,12.8062764" id="Fill-152" fill="#9CBA2B"></path>
                <path d="M62.1448271,8.92057644 C61.2768271,8.62157644 60.8148271,7.77257644 61.2488271,6.79557644 C61.3678271,6.52757644 61.5508271,6.37357644 61.7658271,6.20257644 C61.3588271,6.52657644 61.8588271,6.12257644 61.9918271,6.01157644 C62.0468271,5.96557644 62.2638271,5.78857644 62.1368271,5.90557644 C62.3058271,5.75357644 62.4718271,5.59957644 62.6478271,5.45757644 C62.6648271,5.44257644 62.6828271,5.42457644 62.7098271,5.39957644 C62.8088271,5.31057644 62.9048271,5.21657644 62.9988271,5.12257644 C63.2908271,4.83657644 63.5858271,4.57857644 63.9298271,4.37257644 C64.6098271,3.96457644 65.4278271,4.01257644 65.9718271,4.59657644 C66.6528271,5.33057644 66.5318271,6.40457644 65.9288271,7.19057644 C65.3958271,7.88657644 64.4558271,8.54957644 63.6558271,8.81257644 C63.1778271,8.96957644 62.6188271,9.08357644 62.1448271,8.92057644" id="Fill-154" fill="#9CBA2B"></path>
                <path d="M47.6389271,12.8062764 C48.1779271,12.0972764 48.1439271,11.2152764 47.3509271,10.7472764 C47.1319271,10.6182764 46.9169271,10.6102764 46.6699271,10.6072764 C47.1389271,10.6132764 46.5599271,10.6012764 46.4049271,10.5952764 C46.3399271,10.5932764 46.0879271,10.5872764 46.2419271,10.6002764 C46.0389271,10.5852764 45.8369271,10.5662764 45.6329271,10.5622764 C45.6149271,10.5602764 45.5909271,10.5582764 45.5579271,10.5562764 C45.4399271,10.5462764 45.3209271,10.5312764 45.2029271,10.5162764 C44.8419271,10.4732764 44.4919271,10.4522764 44.1269271,10.4952764 C43.4059271,10.5822764 42.7879271,11.0812764 42.6359271,11.8152764 C42.4449271,12.7372764 43.0389271,13.4532764 43.8759271,13.6852764 C44.6179271,13.8912764 45.6599271,13.8432764 46.4079271,13.5832764 C46.8549271,13.4272764 47.3449271,13.1932764 47.6389271,12.8062764" id="Fill-156" fill="#9CBA2B"></path>
                <path d="M48.0403271,8.92057644 C48.9083271,8.62157644 49.3703271,7.77257644 48.9363271,6.79557644 C48.8173271,6.52757644 48.6343271,6.37357644 48.4193271,6.20257644 C48.8263271,6.52657644 48.3263271,6.12257644 48.1933271,6.01157644 C48.1383271,5.96557644 47.9213271,5.78857644 48.0483271,5.90557644 C47.8793271,5.75357644 47.7133271,5.59957644 47.5373271,5.45757644 C47.5203271,5.44257644 47.5023271,5.42457644 47.4753271,5.39957644 C47.3763271,5.31057644 47.2803271,5.21657644 47.1863271,5.12257644 C46.8943271,4.83657644 46.5993271,4.57857644 46.2553271,4.37257644 C45.5753271,3.96457644 44.7573271,4.01257644 44.2133271,4.59657644 C43.5323271,5.33057644 43.6533271,6.40457644 44.2553271,7.19057644 C44.7893271,7.88657644 45.7293271,8.54957644 46.5283271,8.81257644 C47.0073271,8.96957644 47.5663271,9.08357644 48.0403271,8.92057644" id="Fill-158" fill="#9CBA2B"></path>
                <path d="M46.0823271,10.2740764 C45.3373271,15.3080764 48.5843271,19.9610764 53.3353271,20.6630764 C58.0863271,21.3660764 63.6163271,17.9630764 64.3603271,12.9280764 C65.1053271,7.89407644 61.2223271,2.87007644 56.4703271,2.16707644 C51.7203271,1.46407644 46.8283271,5.23907644 46.0823271,10.2740764" id="Fill-160" fill="#9CBA2B"></path>
                <path d="M39.7356271,13.8585764 C40.3596271,18.0295764 37.6736271,21.8895764 33.7386271,22.4775764 C29.8016271,23.0655764 25.5776271,20.4695764 24.9546271,16.2985764 C24.3306271,12.1275764 27.5436271,7.95957644 31.4796271,7.37057644 C35.4156271,6.78257644 39.1116271,9.68757644 39.7356271,13.8585764" id="Fill-162" fill="#F9F9F9"></path>
                <path d="M62.6614271,11.1251764 C62.7524271,15.3421764 59.3574271,19.6271764 55.3784271,19.7131764 C51.3994271,19.7981764 48.3434271,15.6501764 48.2534271,11.4341764 C48.1624271,7.21617644 51.3144271,3.72917644 55.2944271,3.64417644 C59.2724271,3.55917644 62.5714271,6.90817644 62.6614271,11.1251764" id="Fill-164" fill="#F9F9F9"></path>
                <path d="M84.9973271,13.2608764 C85.0873271,17.4778764 82.2413271,21.6118764 78.2613271,21.6968764 C74.2823271,21.7818764 70.1053271,17.7978764 70.0153271,13.5818764 C69.9253271,9.36487644 73.6503271,5.86487644 77.6293271,5.77987644 C81.6073271,5.69487644 84.9063271,9.04387644 84.9973271,13.2608764" id="Fill-166" fill="#F9F9F9"></path>
                <path d="M37.0520271,17.6441764 C37.0870271,19.2911764 35.7810271,20.6541764 34.1350271,20.6891764 C32.4900271,20.7251764 31.1270271,19.4191764 31.0920271,17.7721764 C31.0570271,16.1261764 32.3630271,14.7631764 34.0070271,14.7281764 C35.6540271,14.6931764 37.0170271,15.9981764 37.0520271,17.6441764" id="Fill-168" fill="#1E2D6A"></path>
                <path d="M58.5002271,14.2032764 C58.5362271,15.8492764 57.2312271,17.2112764 55.5852271,17.2472764 C53.9392271,17.2822764 52.5762271,15.9772764 52.5412271,14.3302764 C52.5062271,12.6852764 53.8122271,11.3232764 55.4572271,11.2872764 C57.1042271,11.2522764 58.4652271,12.5582764 58.5002271,14.2032764" id="Fill-170" fill="#1E2D6A"></path>
                <path d="M78.7913271,16.7979764 C78.8263271,18.4439764 77.5203271,19.8069764 75.8753271,19.8419764 C74.2293271,19.8779764 72.8673271,18.5709764 72.8323271,16.9259764 C72.7963271,15.2799764 74.1023271,13.9179764 75.7473271,13.8819764 C77.3933271,13.8469764 78.7563271,15.1519764 78.7913271,16.7979764" id="Fill-172" fill="#1E2D6A"></path>
                <path d="M27.3567271,50.3433764 C26.2147271,50.9023764 26.0287271,52.4833764 25.7797271,53.6033764 C25.3907271,55.3483764 24.7647271,57.0393764 24.6687271,58.8353764 C24.5417271,61.2533764 27.9387271,61.2963764 28.6357271,59.2843764 C29.3297271,57.2913764 29.6817271,54.9793764 29.6987271,52.8713764 C29.7087271,51.7433764 28.8117271,49.6283764 27.3567271,50.3433764" id="Fill-174" fill="#00D494"></path>
                <path d="M36.5491271,49.8047764 C36.2731271,49.6077764 35.7961271,49.6417764 35.5241271,49.8267764 C34.8721271,50.2697764 34.6761271,50.9777764 34.6191271,51.7327764 C34.5581271,52.5487764 34.3691271,53.3027764 34.7071271,54.0857764 C35.1331271,55.0757764 36.2361271,55.1757764 36.8671271,54.3207764 C37.3891271,53.6157764 37.3791271,52.7727764 37.4221271,51.9297764 C37.4641271,51.0677764 37.2771271,50.3227764 36.5491271,49.8047764" id="Fill-176" fill="#00D494"></path>
                <path d="M23.5139271,43.5308764 C23.5279271,43.2468764 23.1409271,43.0918764 22.9319271,43.2458764 C22.1039271,43.8548764 21.3729271,44.4768764 20.7679271,45.3138764 C20.1339271,46.1908764 19.5099271,46.8258764 19.6349271,47.9658764 C19.6759271,48.3328764 19.9849271,48.6238764 20.3649271,48.5938764 C22.5989271,48.4178764 23.4269271,45.3978764 23.5139271,43.5308764" id="Fill-178" fill="#00D494"></path>
                <path d="M25.6223271,71.0308764 C25.1783271,70.4148764 24.3513271,70.4288764 23.9353271,71.0668764 C23.5033271,71.7288764 23.3513271,72.6138764 23.1843271,73.3818764 C22.9673271,74.3878764 22.6363271,75.3218764 22.9233271,76.3438764 C23.2533271,77.5198764 24.8923271,77.6568764 25.4773271,76.6228764 C25.9723271,75.7498764 25.9803271,74.6918764 26.0853271,73.7098764 C26.1783271,72.8238764 26.1593271,71.7748764 25.6223271,71.0308764" id="Fill-180" fill="#00D494"></path>
                <path d="M19.4739271,66.6763764 C19.4029271,66.0113764 18.6189271,65.9533764 18.2289271,66.3493764 C17.1659271,67.4273764 16.6689271,68.7823764 16.0979271,70.1723764 C15.4749271,71.6873764 15.1119271,72.7773764 15.5959271,74.3423764 C15.7509271,74.8433764 16.5099271,74.8953764 16.7929271,74.4933764 C17.6479271,73.2803764 18.0099271,72.0113764 18.5629271,70.6243764 C19.1049271,69.2723764 19.6299271,68.1423764 19.4739271,66.6763764" id="Fill-182" fill="#00D494"></path>
                <path d="M32.6916271,77.4429764 C32.6406271,76.4319764 31.1906271,76.2529764 30.9256271,77.2429764 C30.3166271,79.5089764 29.8656271,82.3279764 30.5956271,84.5949764 C30.8066271,85.2499764 31.5826271,85.2409764 31.9426271,84.7409764 C33.4206271,82.6979764 32.8086271,79.8079764 32.6916271,77.4429764" id="Fill-184" fill="#00D494"></path>
                <path d="M35.0344271,62.6656764 C34.7824271,61.7166764 33.3014271,61.7356764 33.0974271,62.7076764 C32.8694271,63.7976764 32.7574271,64.8506764 32.6684271,65.9586764 C32.5754271,67.0996764 32.1034271,68.4286764 32.8614271,69.4356764 C33.1144271,69.7736764 33.5634271,70.0496764 34.0054271,69.8716764 C36.5964271,68.8336764 35.5764271,64.7076764 35.0344271,62.6656764" id="Fill-186" fill="#00D494"></path>
                <path d="M50.4856271,51.1129764 C50.2666271,50.3679764 49.1456271,50.3829764 48.9646271,51.1459764 C48.6376271,52.5199764 48.5886271,53.8369764 48.5106271,55.2439764 C48.4266271,56.7599764 48.2486271,58.2299764 48.8896271,59.6419764 C49.1026271,60.1109764 49.8446271,60.1359764 50.1606271,59.7789764 C52.0356271,57.6479764 51.2116271,53.5919764 50.4856271,51.1129764" id="Fill-188" fill="#00D494"></path>
                <path d="M20.6887271,83.3292764 C21.1677271,82.0622764 19.1997271,81.1392764 18.5317271,82.3172764 C17.4557271,84.2112764 13.2867271,89.1432764 16.0117271,91.0722764 C18.5637271,92.8782764 20.1947271,84.6332764 20.6887271,83.3292764" id="Fill-190" fill="#00D494"></path>
                <path d="M39.9739271,82.6500764 C40.1349271,81.6530764 38.9569271,81.2280764 38.3869271,82.0210764 C37.3739271,83.4300764 37.0449271,84.5450764 36.8519271,86.2860764 C36.6779271,87.8460764 36.7269271,89.6420764 37.8689271,90.8300764 C38.1589271,91.1310764 38.6329271,91.1480764 38.9799271,90.9500764 C41.8999271,89.2810764 39.5699271,85.1590764 39.9739271,82.6500764" id="Fill-192" fill="#00D494"></path>
                <path d="M25.5295271,93.8336764 C25.3745271,92.9836764 25.1895271,92.0006764 24.4695271,91.4396764 C24.1605271,91.1986764 23.6375271,91.1006764 23.3555271,91.4636764 C22.8585271,92.1046764 22.7435271,92.8376764 22.6905271,93.6326764 C22.6275271,94.5866764 22.4375271,95.6956764 22.8035271,96.6036764 C23.3465271,97.9486764 25.0805271,97.9166764 25.5625271,96.5446764 C25.8565271,95.7086764 25.6855271,94.6866764 25.5295271,93.8336764" id="Fill-194" fill="#00D494"></path>
                <path d="M75.8489271,48.8272764 C75.5259271,48.3862764 74.7809271,48.4132764 74.6409271,49.0112764 C74.3059271,50.4492764 74.4309271,51.7952764 74.5139271,53.2562764 C74.5849271,54.5632764 74.6469271,56.1222764 75.4399271,57.2062764 C75.8699271,57.7972764 76.6769271,57.7982764 77.0789271,57.1712764 C78.4999271,54.9532764 77.2869271,50.7872764 75.8489271,48.8272764" id="Fill-196" fill="#00D494"></path>
                <path d="M58.4084271,66.2740764 C58.3174271,64.9640764 58.2604271,63.4910764 57.5824271,62.3370764 C57.2784271,61.8210764 56.4714271,61.8380764 56.1894271,62.3680764 C55.5614271,63.5480764 55.5674271,65.0240764 55.5334271,66.3360764 C55.4984271,67.6620764 55.3724271,69.0130764 56.4284271,69.9820764 C56.7864271,70.3130764 57.3264271,70.3010764 57.6714271,69.9560764 C58.6834271,68.9420764 58.5004271,67.5970764 58.4084271,66.2740764" id="Fill-198" fill="#00D494"></path>
                <path d="M47.6672271,93.6812764 C47.4532271,92.0992764 45.3182271,92.1282764 45.1902271,93.7342764 C45.1042271,94.8242764 45.0482271,95.9082764 45.0142271,97.0012764 C44.9802271,98.0202764 44.9542271,98.9262764 45.7492271,99.6722764 C46.0652271,99.9702764 46.4882271,99.9862764 46.8602271,99.7922764 C48.8962271,98.7352764 47.9052271,95.4472764 47.6672271,93.6812764" id="Fill-200" fill="#00D494"></path>
                <path d="M80.8479271,81.3834764 C80.7689271,80.0354764 80.7499271,78.5784764 80.0049271,77.4154764 C79.4129271,76.4944764 78.0959271,76.7544764 77.7809271,77.7544764 C77.4099271,78.9374764 77.6169271,80.2274764 77.6219271,81.4524764 C77.6289271,82.9224764 77.4569271,84.3784764 77.7709271,85.8234764 C78.0999271,87.3474764 80.5269271,87.2594764 80.8159271,85.7584764 C81.0949271,84.3174764 80.9339271,82.8404764 80.8479271,81.3834764" id="Fill-202" fill="#00D494"></path>
                <path d="M74.1780271,85.9693764 C73.8000271,85.0153764 72.4860271,85.2173764 72.4230271,86.2453764 C72.2670271,88.7613764 71.1150271,91.3503764 71.4820271,93.8813764 C71.7300271,95.5903764 74.0010271,95.9983764 74.5590271,94.2303764 C75.4030271,91.5543764 75.1910271,88.5303764 74.1780271,85.9693764" id="Fill-204" fill="#00D494"></path>
                <path d="M74.7971271,65.2989764 C74.6121271,63.9979764 74.0631271,62.2279764 72.7241271,61.6929764 C72.2311271,61.4959764 71.6411271,61.6439764 71.4981271,62.2229764 C71.2241271,63.3359764 71.3831271,64.6499764 71.4431271,65.7839764 C71.5171271,67.1419764 71.2341271,68.5249764 72.0201271,69.7259764 C72.6341271,70.6629764 73.9521271,70.6109764 74.5311271,69.6729764 C75.3311271,68.3719764 75.0011271,66.7309764 74.7971271,65.2989764" id="Fill-206" fill="#00D494"></path>
                <path d="M88.8469271,55.2139764 C87.7649271,54.4449764 86.2859271,55.6399764 87.0829271,56.8179764 C87.9499271,58.0999764 88.8839271,59.3239764 89.7539271,60.6019764 C90.6809271,61.9619764 91.3989271,63.0329764 92.7869271,63.9209764 C93.2249271,64.1999764 93.8169271,63.8109764 93.9029271,63.3579764 C94.5459271,59.9589764 91.3809271,57.0149764 88.8469271,55.2139764" id="Fill-208" fill="#00D494"></path>
                <path d="M80.9700271,61.0137764 C80.7640271,61.0487764 80.6030271,61.2607764 80.5530271,61.4477764 C80.2140271,62.7107764 80.8070271,64.4607764 80.8560271,65.7667764 C80.9150271,67.4027764 80.5410271,69.1817764 81.7020271,70.5087764 C82.1570271,71.0267764 83.1050271,70.9697764 83.5430271,70.4697764 C85.1760271,68.6077764 84.6020271,60.3817764 80.9700271,61.0137764" id="Fill-210" fill="#00D494"></path>
                <path d="M90.1165271,80.6158764 C89.9655271,79.3998764 89.5465271,78.2828764 89.2875271,77.0898764 C89.0965271,76.2108764 87.6275271,76.2238764 87.4895271,77.1288764 C87.1885271,79.1068764 87.0645271,81.0708764 86.8185271,83.0548764 C86.7065271,83.9668764 87.0675271,84.8578764 88.0425271,85.1048764 C88.8495271,85.3078764 89.9795271,84.7958764 90.0935271,83.8808764 C90.2305271,82.7608764 90.2565271,81.7388764 90.1165271,80.6158764" id="Fill-212" fill="#00D494"></path>
                <path d="M95.0813271,74.2398764 C94.6463271,72.7548764 94.3703271,71.3348764 93.2543271,70.2128764 C92.9193271,69.8738764 92.2593271,69.9488764 92.0483271,70.3948764 C91.3723271,71.8118764 91.5853271,73.1628764 91.8533271,74.6718764 C92.1063271,76.0888764 92.3473271,77.8938764 93.8103271,78.5558764 C94.3493271,78.8008764 94.9043271,78.6638764 95.2263271,78.1538764 C95.9893271,76.9348764 95.4513271,75.5068764 95.0813271,74.2398764" id="Fill-214" fill="#00D494"></path>
                <path d="M65.1008271,103.164176 C63.4768271,101.629176 60.6758271,104.779176 60.9908271,106.404176 C61.4758271,108.911176 66.7628271,104.734176 65.1008271,103.164176 C64.8118271,102.892176 65.9568271,103.973176 65.1008271,103.164176" id="Fill-216" fill="#BF9C6A"></path>
                <path d="M68.0100271,105.141776 C67.6370271,105.080776 66.4940271,104.923776 65.6760271,105.806776 C64.7490271,106.808776 63.7900271,108.511776 64.6640271,109.366776 C66.0020271,110.672776 68.0770271,108.392776 68.5760271,106.701776 C68.8090271,105.912776 68.6970271,105.251776 68.0100271,105.141776 C67.9250271,105.126776 68.5680271,105.230776 68.0100271,105.141776" id="Fill-218" fill="#BF9C6A"></path>
                <path d="M73.5725271,106.056276 C73.5405271,105.742276 73.3975271,105.367276 73.0765271,105.234276 C73.0535271,105.225276 73.0315271,105.215276 73.0085271,105.205276 C72.6325271,105.050276 72.2995271,105.077276 71.9885271,105.344276 C71.2995271,105.537276 70.7415271,106.303276 70.3855271,106.847276 C69.8275271,107.708276 69.4935271,108.778276 69.6565271,109.797276 C69.7255271,110.223276 70.1985271,110.444276 70.5755271,110.465276 C72.6095271,110.585276 73.7405271,107.728276 73.5725271,106.056276" id="Fill-220" fill="#BF9C6A"></path>
                <path d="M41.0295271,109.055276 C40.6475271,107.980276 39.5625271,105.783276 38.1015271,106.239276 C37.1255271,106.541276 36.9595271,107.564276 37.2895271,108.415276 C37.5755271,109.146276 38.0685271,110.152276 38.7455271,110.587276 C38.7575271,110.595276 38.7705271,110.598276 38.7825271,110.607276 C38.8845271,110.724276 38.9915271,110.839276 39.1055271,110.940276 C39.6945271,111.463276 40.5485271,111.589276 41.0335271,110.851276 C41.3525271,110.365276 41.2085271,109.563276 41.0295271,109.055276" id="Fill-222" fill="#BF9C6A"></path>
                <path d="M46.1125271,105.601676 C45.6185271,105.009676 44.4165271,103.938676 43.7005271,104.890676 C43.4285271,105.249676 43.3535271,105.651676 43.5265271,106.019676 C43.5085271,106.202676 43.5265271,106.398676 43.5705271,106.569676 C43.5895271,106.643676 43.6085271,106.715676 43.6255271,106.788676 C43.5235271,106.368676 43.6775271,106.975676 43.7105271,107.064676 C43.9255271,107.664676 44.2115271,108.262676 44.6875271,108.699676 C45.6255271,109.554676 47.0945271,109.177676 47.2055271,107.857676 C47.2745271,107.049676 46.5925271,106.180676 46.1125271,105.601676" id="Fill-224" fill="#BF9C6A"></path>
                <path d="M51.0637271,104.551376 C50.9457271,103.837376 50.4287271,103.241376 49.9637271,102.721376 C49.7167271,102.445376 49.4127271,102.148376 49.0667271,101.952376 C48.9677271,101.685376 48.7637271,101.459376 48.4657271,101.418376 C48.1977271,101.379376 47.9847271,101.380376 47.7197271,101.450376 C46.9007271,101.671376 46.8197271,102.632376 47.2987271,103.198376 C47.9437271,103.958376 48.3107271,104.893376 49.0167271,105.614376 C49.3557271,105.961376 49.8367271,106.223376 50.3347271,106.075376 C51.0517271,105.858376 51.1687271,105.190376 51.0637271,104.551376" id="Fill-226" fill="#00D494"></path>
                <path d="M53.0969271,26.2012764 C52.9819271,26.1132764 52.8679271,26.0252764 52.7469271,25.9482764 C52.7429271,25.9442764 52.7419271,25.9442764 52.7369271,25.9412764 C52.7279271,25.9312764 52.7109271,25.9162764 52.6809271,25.8902764 C52.5499271,25.7782764 52.4339271,25.6462764 52.3089271,25.5282764 C52.0409271,25.2752764 51.8009271,25.0232764 51.4829271,24.8292764 C50.9569271,24.5082764 50.1589271,25.0812764 50.4109271,25.6912764 C50.7929271,26.6202764 51.1529271,27.5022764 52.1569271,27.8982764 C53.0809271,28.2632764 53.8669271,26.8002764 53.0969271,26.2012764" id="Fill-228" fill="#1B1464"></path>
                <path d="M59.9622271,25.0298764 C59.9112271,24.5088764 59.4272271,24.2618764 58.9652271,24.4868764 C58.4842271,24.7198764 58.1912271,25.1648764 57.8812271,25.5858764 C57.5792271,25.9998764 57.1082271,26.2978764 56.8992271,26.7748764 C56.5162271,27.6528764 57.1812271,28.4078764 58.0922271,28.2588764 C58.8182271,28.1378764 59.2292271,27.4098764 59.5172271,26.8028764 C59.7752271,26.2568764 60.0212271,25.6408764 59.9622271,25.0298764" id="Fill-230" fill="#1B1464"></path>
                <path d="M35.0930271,27.1451764 C41.0500271,31.4771764 47.6720271,32.9241764 54.2240271,33.4421764 C61.1570271,33.9931764 68.5310271,33.5821764 75.2480271,30.7661764 C76.0680271,30.4201764 75.8560271,28.3251764 74.9890271,28.5261764 C68.3310271,30.0771764 61.7440271,31.1351764 54.9940271,30.8771764 C48.5160271,30.6331764 41.5650271,29.6411764 35.6090271,25.5261764 C34.9910271,25.0981764 34.4790271,26.7001764 35.0930271,27.1451764" id="Fill-232" fill="#1B1464"></path>
                <path d="M37.9231271,29.0611764 C39.2261271,29.9321764 40.6201271,30.5121764 42.0261271,31.0321764 C42.4031271,29.7581764 42.5161271,28.6451764 42.3061271,27.2371764 C42.3111271,27.2761764 42.3171271,27.3131764 42.3211271,27.3521764 C42.3171271,27.3131764 42.3121271,27.2841764 42.3061271,27.2351764 C42.2941271,27.1651764 42.2861271,27.1121764 42.2771271,27.0591764 C42.2861271,27.1161764 42.2951271,27.1741764 42.3061271,27.2351764 C42.0811271,25.7391764 41.5311271,24.5121764 40.4501271,24.2291764 C39.2391271,23.9131764 38.0601271,25.1661764 37.8481271,26.9811764 C37.7891271,27.4771764 37.7191271,27.9651764 37.7191271,28.4691764 C37.7191271,28.6411764 37.7281271,28.7901764 37.7331271,28.9461764 C37.7971271,28.9851764 37.8611271,29.0181764 37.9231271,29.0611764" id="Fill-234" fill="#FFFFFF"></path>
                <path d="M98.2415271,66.9039764 C98.6155271,66.6869764 98.9895271,66.5249764 99.3755271,66.3369764 C99.3765271,66.3609764 99.3795271,66.3849764 99.3825271,66.4089764 C99.3995271,66.3429764 99.4155271,66.2749764 99.4265271,66.2039764 C99.4345271,66.1539764 99.4385271,66.0999764 99.4455271,66.0469764 C99.3825271,65.9989764 99.3135271,65.9449764 99.2445271,65.8839764 C97.8985271,64.6759764 97.0005271,63.9239764 96.0435271,62.5129764 C95.3845271,61.5379764 94.7315271,60.5639764 94.0265271,59.6119764 C92.3135271,57.2989764 91.3145271,53.6969764 89.0025271,51.9259764 C86.8725271,50.2949764 85.6615271,48.0169764 88.3235271,47.8009764 C93.6035271,47.3689764 98.1205271,51.4649764 101.579527,55.4959764 C102.943527,57.0869764 104.359527,58.9039764 105.120527,60.7629764 C105.547527,60.2769764 106.073527,59.9409764 106.864527,59.9859764 C107.392527,60.0159764 107.679527,60.1319764 108.186527,60.3479764 C108.894527,60.6519764 109.346527,61.2929764 109.641527,61.9459764 C109.918527,62.5569764 109.925527,63.1819764 109.570527,63.6349764 C109.210527,64.1009764 108.628527,64.2029764 107.976527,64.0849764 C107.765527,64.0469764 107.618527,64.0119764 107.500527,63.9769764 C107.387527,64.0109764 106.263527,63.2759764 105.659527,63.7619764 C105.624527,64.1999764 105.533527,64.6349764 105.369527,65.0639764 C105.349527,65.1159764 105.324527,65.1719764 105.298527,65.2249764 C105.301527,65.2279764 105.303527,65.2279764 105.304527,65.2299764 C106.092527,65.6769764 106.747527,66.1009764 107.252527,66.8649764 C107.448527,67.1599764 107.560527,67.4999764 107.665527,67.8179764 C107.920527,68.5799764 107.722527,69.1909764 107.253527,69.6669764 C106.445527,70.4799764 105.035527,69.9109764 104.450527,68.7659764 C104.254527,68.3339764 104.165527,67.9139764 104.186527,67.5069764 C104.181527,67.6699764 104.168527,67.2759764 104.055527,67.1899764 C103.928527,67.0909764 103.906527,66.9169764 103.602527,66.9069764 C103.170527,67.1279764 102.695527,67.2389764 102.224527,67.1679764 C102.231527,67.2499764 102.237527,67.3329764 102.239527,67.4149764 C102.269527,67.9179764 102.222527,68.3219764 102.039527,68.7459764 C101.593527,69.7739764 100.382527,69.9999764 99.2135271,69.7019764 C97.8905271,69.3669764 97.1885271,67.5199764 98.2415271,66.9039764" id="Fill-236" fill="#9CBA2B"></path>
                <path d="M11.7678271,68.7579764 C11.3858271,68.5569764 11.0048271,68.4109764 10.6118271,68.2399764 C10.6118271,68.2629764 10.6098271,68.2889764 10.6078271,68.3129764 C10.5868271,68.2479764 10.5688271,68.1799764 10.5548271,68.1099764 C10.5438271,68.0599764 10.5378271,68.0059764 10.5298271,67.9529764 C10.5898271,67.9029764 10.6568271,67.8459764 10.7228271,67.7819764 C12.0158271,66.5169764 12.8808271,65.7269764 13.7768271,64.2769764 C14.3928271,63.2749764 15.0028271,62.2729764 15.6658271,61.2919764 C17.2788271,58.9069764 18.1218271,55.2669764 20.3578271,53.3979764 C22.4148271,51.6769764 23.5278271,49.3499764 20.8588271,49.2469764 C15.5648271,49.0419764 11.2278271,53.3269764 7.94482707,57.5039764 C6.64982707,59.1509764 5.31282707,61.0279764 4.63282707,62.9169764 C4.18582707,62.4499764 3.64482707,62.1369764 2.85682707,62.2159764 C2.32982707,62.2679764 2.04782707,62.3969764 1.55082707,62.6339764 C0.856827067,62.9679764 0.432827067,63.6279764 0.165827067,64.2929764 C-0.0841729327,64.9159764 -0.0631729327,65.5399764 0.308827067,65.9779764 C0.689827067,66.4279764 1.27582707,66.5049764 1.92082707,66.3589764 C2.12982707,66.3109764 2.27582707,66.2699764 2.39282707,66.2309764 C2.50582707,66.2599764 3.59782707,65.4769764 4.22182707,65.9369764 C4.27682707,66.3729764 4.38582707,66.8039764 4.56782707,67.2249764 C4.58982707,67.2769764 4.61782707,67.3309764 4.64582707,67.3829764 C4.64382707,67.3859764 4.64182707,67.3859764 4.63882707,67.3889764 C3.87182707,67.8679764 3.23582707,68.3199764 2.76382707,69.1049764 C2.57982707,69.4089764 2.48382707,69.7529764 2.39182707,70.0749764 C2.17082707,70.8469764 2.39382707,71.4489764 2.88282707,71.9039764 C3.72482707,72.6819764 5.10982707,72.0529764 5.64482707,70.8839764 C5.82282707,70.4439764 5.89382707,70.0209764 5.85382707,69.6149764 C5.86682707,69.7779764 5.86382707,69.3829764 5.97182707,69.2929764 C6.09382707,69.1889764 6.10882707,69.0129764 6.41282707,68.9909764 C6.85382707,69.1929764 7.33282707,69.2839764 7.79882707,69.1919764 C7.79682707,69.2739764 7.79382707,69.3579764 7.79482707,69.4399764 C7.78782707,69.9439764 7.85082707,70.3449764 8.05282707,70.7609764 C8.54282707,71.7689764 9.76182707,71.9429764 10.9168271,71.5949764 C12.2238271,71.2039764 12.8458271,69.3279764 11.7678271,68.7579764" id="Fill-238" fill="#9CBA2B"></path>
            </g>
        </g>
    </g>
</svg>