<?xml version="1.0" encoding="UTF-8"?>
<svg width="111px" height="113px" viewBox="0 0 111 113" version="1.1" xmlns="http://www.w3.org/2000/svg" xmlns:xlink="http://www.w3.org/1999/xlink">
    <title>Sidekick_6_c</title>
    <g id="Student-Environmrnt---New-Treatment" stroke="none" stroke-width="1" fill="none" fill-rule="evenodd">
        <g id="Avatars" transform="translate(-1248.000000, -447.000000)">
            <g id="Sidekick_6_c" transform="translate(1248.893354, 447.062424)">
                <path d="M42.3263457,14.4229764 C43.1783457,20.1119764 39.1803457,25.4259764 33.3963457,26.2909764 C27.6143457,27.1559764 22.2373457,23.2439764 21.3863457,17.5539764 C20.5353457,11.8639764 26.7433457,4.50997644 31.3983457,4.08097644 C36.7503457,3.58597644 41.4743457,8.73397644 42.3263457,14.4229764" id="Fill-240" fill="#BCDD40"></path>
                <path d="M88.9640457,13.7300764 C89.0870457,19.4810764 84.4900457,26.2230764 78.6460457,26.3480764 C72.8000457,26.4730764 67.9180457,19.9350764 67.7950457,14.1840764 C67.6720457,8.43207644 73.4590457,2.31707644 78.1290457,2.21707644 C82.5810457,2.12207644 88.8000457,6.08607644 88.9640457,13.7300764" id="Fill-242" fill="#BCDD40"></path>
                <path d="M66.0509457,11.5157764 C66.1749457,17.2667764 61.5779457,24.0067764 55.7339457,24.1317764 C49.8879457,24.2577764 45.0059457,17.7207764 44.8829457,11.9697764 C44.7589457,6.21677644 50.7579457,0.097776443 55.2159457,0.00177644305 C60.7999457,-0.117223557 65.9279457,5.76277644 66.0509457,11.5157764" id="Fill-244" fill="#BCDD40"></path>
                <path d="M96.4542457,83.7022764 C96.0402457,82.4302764 94.3302457,75.9912764 94.6452457,75.2262764 C94.9632457,74.4602764 96.1522457,75.8522764 96.1612457,74.3982764 C96.1622457,74.0632764 96.0182457,73.3972764 95.7752457,72.5082764 C95.5662457,71.4592764 95.3362457,70.4202764 95.1302457,69.3802764 C93.5252457,58.7062764 90.0372457,49.7512764 86.5112457,40.0542764 C86.3612457,39.7472764 86.0982457,39.2362764 85.7802457,38.6302764 C84.8272457,36.8102764 83.3882457,34.1192764 83.0882457,33.4452764 C80.7832457,28.2742764 76.0982457,22.1372764 71.3532457,18.5922764 C66.2972457,14.8102764 60.2942457,13.4432764 54.8732457,13.5732764 C51.9032457,13.6442764 45.4972457,15.0862764 40.7772457,17.7642764 C29.1922457,24.3322764 22.7382457,37.8332764 22.2512457,39.2242764 C22.1002457,39.6552764 22.4462457,40.0912764 22.8542457,40.2042764 C22.3402457,40.7102764 21.8162457,41.2052764 21.2942457,41.7152764 C21.0062457,41.9942764 21.1032457,42.4022764 21.3632457,42.6172764 C21.5092457,42.7372764 21.7382457,43.2962764 21.3052457,44.2972764 C20.3862457,46.4202764 18.6452457,50.4232764 17.4272457,54.5082764 C15.6642457,60.4142764 15.0362457,66.4932764 14.6542457,67.4412764 C14.0322457,68.9802764 14.3552457,69.6942764 15.0112457,69.3712764 C16.3152457,68.7252764 14.8542457,73.0332764 14.2872457,75.7022764 C13.5172457,79.3152764 12.5222457,84.0332764 12.0112457,88.6752764 C11.8832457,89.8362764 11.7852457,90.9922764 11.7292457,92.1182764 C11.3532457,95.2832764 11.7282457,98.3622764 12.7132457,101.119276 C13.6792457,102.952276 15.5042457,101.677276 16.7252457,101.033276 C16.2612457,108.145276 25.5252457,108.256276 30.6032457,109.460276 C31.5992457,109.600276 32.5842457,109.707276 33.5422457,109.787276 C36.4162457,110.019276 39.0412457,109.987276 40.9492457,109.613276 C44.1412457,108.987276 48.7162457,108.142276 49.6752457,104.484276 C50.0972457,102.870276 48.9012457,101.487276 48.9262457,99.9242764 C48.9402457,98.9232764 49.6002457,98.0902764 50.3022457,97.4492764 C53.3032457,94.7062764 60.2202457,94.4702764 63.0272457,97.5712764 C64.0992457,98.7542764 64.4682457,100.665276 63.6692457,101.853276 C62.3312457,103.838276 61.3822457,105.347276 62.9422457,107.298276 C64.6082457,109.382276 73.2532457,109.384276 77.0222457,108.772276 C77.8172457,108.644276 79.4032457,108.382276 81.3312457,108.016276 C82.2962457,107.833276 83.3452457,107.623276 84.4232457,107.391276 C87.5652457,107.234276 89.6842457,105.337276 91.4772457,102.518276 C92.0692457,101.271276 94.2952457,104.310276 95.4962457,102.742276 C97.5842457,99.3002764 96.5712457,95.3072764 96.8022457,91.5992764 C96.7952457,91.2892764 97.7072457,90.6522764 97.6875699,89.7262764 C97.6812457,89.4172764 97.3582457,88.8072764 97.5022457,88.5672764 C97.4052457,87.7082764 97.2312457,86.7652764 97.0392457,85.9012764 C96.8462457,85.0352764 96.6332457,84.2492764 96.4542457,83.7022764" id="Fill-246" fill="#BCDD40"></path>
                <path d="M27.3566457,50.3433764 C26.2146457,50.9023764 26.0286457,52.4833764 25.7796457,53.6033764 C25.3906457,55.3483764 24.7646457,57.0393764 24.6686457,58.8353764 C24.5416457,61.2533764 27.9386457,61.2963764 28.6356457,59.2843764 C29.3296457,57.2913764 29.6816457,54.9793764 29.6986457,52.8713764 C29.7086457,51.7433764 28.8116457,49.6283764 27.3566457,50.3433764" id="Fill-248" fill="#00D494"></path>
                <path d="M36.5490457,49.8047764 C36.2730457,49.6077764 35.7960457,49.6417764 35.5240457,49.8267764 C34.8720457,50.2697764 34.6760457,50.9777764 34.6200457,51.7327764 C34.5580457,52.5487764 34.3690457,53.3027764 34.7070457,54.0857764 C35.1330457,55.0757764 36.2360457,55.1757764 36.8670457,54.3207764 C37.3890457,53.6157764 37.3800457,52.7727764 37.4220457,51.9297764 C37.4650457,51.0677764 37.2770457,50.3227764 36.5490457,49.8047764" id="Fill-250" fill="#00D494"></path>
                <path d="M23.5148457,43.5308764 C23.5278457,43.2468764 23.1418457,43.0918764 22.9318457,43.2458764 C22.1038457,43.8548764 21.3728457,44.4768764 20.7678457,45.3138764 C20.1348457,46.1908764 19.5098457,46.8258764 19.6348457,47.9658764 C19.6758457,48.3328764 19.9848457,48.6238764 20.3648457,48.5938764 C22.5988457,48.4178764 23.4268457,45.3978764 23.5148457,43.5308764" id="Fill-252" fill="#00D494"></path>
                <path d="M25.6232457,71.0308764 C25.1782457,70.4148764 24.3512457,70.4288764 23.9352457,71.0668764 C23.5032457,71.7288764 23.3522457,72.6138764 23.1852457,73.3818764 C22.9672457,74.3878764 22.6372457,75.3218764 22.9232457,76.3438764 C23.2532457,77.5198764 24.8932457,77.6568764 25.4772457,76.6228764 C25.9722457,75.7498764 25.9802457,74.6918764 26.0852457,73.7098764 C26.1782457,72.8238764 26.1592457,71.7748764 25.6232457,71.0308764" id="Fill-254" fill="#00D494"></path>
                <path d="M19.4737457,66.6763764 C19.4027457,66.0113764 18.6187457,65.9533764 18.2287457,66.3493764 C17.1667457,67.4273764 16.6687457,68.7823764 16.0977457,70.1723764 C15.4747457,71.6873764 15.1117457,72.7773764 15.5957457,74.3423764 C15.7507457,74.8433764 16.5097457,74.8953764 16.7927457,74.4933764 C17.6477457,73.2803764 18.0097457,72.0113764 18.5627457,70.6243764 C19.1047457,69.2723764 19.6297457,68.1423764 19.4737457,66.6763764" id="Fill-256" fill="#00D494"></path>
                <path d="M32.6915457,77.4429764 C32.6405457,76.4319764 31.1905457,76.2529764 30.9255457,77.2429764 C30.3165457,79.5089764 29.8655457,82.3279764 30.5955457,84.5949764 C30.8075457,85.2499764 31.5825457,85.2409764 31.9425457,84.7409764 C33.4205457,82.6979764 32.8085457,79.8079764 32.6915457,77.4429764" id="Fill-258" fill="#00D494"></path>
                <path d="M35.0353457,62.6656764 C34.7823457,61.7166764 33.3013457,61.7356764 33.0983457,62.7076764 C32.8693457,63.7976764 32.7573457,64.8506764 32.6683457,65.9586764 C32.5753457,67.0996764 32.1033457,68.4286764 32.8613457,69.4356764 C33.1143457,69.7736764 33.5643457,70.0496764 34.0053457,69.8716764 C36.5973457,68.8336764 35.5763457,64.7076764 35.0353457,62.6656764" id="Fill-260" fill="#00D494"></path>
                <path d="M50.4865457,51.1129764 C50.2665457,50.3679764 49.1455457,50.3829764 48.9655457,51.1459764 C48.6375457,52.5199764 48.5895457,53.8369764 48.5115457,55.2439764 C48.4275457,56.7599764 48.2485457,58.2299764 48.8895457,59.6419764 C49.1025457,60.1109764 49.8445457,60.1359764 50.1605457,59.7789764 C52.0355457,57.6479764 51.2115457,53.5919764 50.4865457,51.1129764" id="Fill-262" fill="#00D494"></path>
                <path d="M20.6886457,83.3292764 C21.1676457,82.0622764 19.1996457,81.1392764 18.5316457,82.3172764 C17.4556457,84.2112764 13.2866457,89.1432764 16.0116457,91.0722764 C18.5636457,92.8782764 20.1946457,84.6332764 20.6886457,83.3292764" id="Fill-264" fill="#00D494"></path>
                <path d="M39.9738457,82.6500764 C40.1348457,81.6530764 38.9568457,81.2280764 38.3868457,82.0210764 C37.3738457,83.4300764 37.0458457,84.5450764 36.8518457,86.2860764 C36.6788457,87.8460764 36.7268457,89.6420764 37.8688457,90.8300764 C38.1588457,91.1310764 38.6328457,91.1480764 38.9798457,90.9500764 C41.8998457,89.2810764 39.5698457,85.1590764 39.9738457,82.6500764" id="Fill-266" fill="#00D494"></path>
                <path d="M25.5294457,93.8336764 C25.3744457,92.9836764 25.1894457,92.0006764 24.4694457,91.4396764 C24.1604457,91.1986764 23.6374457,91.1006764 23.3554457,91.4636764 C22.8584457,92.1046764 22.7434457,92.8376764 22.6904457,93.6326764 C22.6274457,94.5866764 22.4374457,95.6956764 22.8034457,96.6036764 C23.3464457,97.9486764 25.0804457,97.9166764 25.5634457,96.5446764 C25.8564457,95.7086764 25.6854457,94.6866764 25.5294457,93.8336764" id="Fill-268" fill="#00D494"></path>
                <path d="M75.8488457,48.8272764 C75.5258457,48.3862764 74.7808457,48.4132764 74.6418457,49.0112764 C74.3058457,50.4492764 74.4308457,51.7952764 74.5138457,53.2562764 C74.5848457,54.5632764 74.6468457,56.1222764 75.4398457,57.2062764 C75.8708457,57.7972764 76.6768457,57.7982764 77.0788457,57.1712764 C78.5008457,54.9532764 77.2868457,50.7872764 75.8488457,48.8272764" id="Fill-270" fill="#00D494"></path>
                <path d="M58.4093457,66.2740764 C58.3173457,64.9640764 58.2613457,63.4910764 57.5823457,62.3370764 C57.2783457,61.8210764 56.4723457,61.8380764 56.1893457,62.3680764 C55.5613457,63.5480764 55.5673457,65.0240764 55.5333457,66.3360764 C55.4983457,67.6620764 55.3723457,69.0130764 56.4293457,69.9820764 C56.7863457,70.3130764 57.3263457,70.3010764 57.6713457,69.9560764 C58.6833457,68.9420764 58.5003457,67.5970764 58.4093457,66.2740764" id="Fill-272" fill="#00D494"></path>
                <path d="M47.6671457,93.6812764 C47.4541457,92.0992764 45.3181457,92.1282764 45.1901457,93.7342764 C45.1041457,94.8242764 45.0491457,95.9082764 45.0141457,97.0012764 C44.9801457,98.0202764 44.9541457,98.9262764 45.7491457,99.6722764 C46.0651457,99.9702764 46.4881457,99.9862764 46.8601457,99.7922764 C48.8961457,98.7352764 47.9051457,95.4472764 47.6671457,93.6812764" id="Fill-274" fill="#00D494"></path>
                <path d="M80.8478457,81.3834764 C80.7688457,80.0354764 80.7498457,78.5784764 80.0048457,77.4154764 C79.4128457,76.4944764 78.0958457,76.7544764 77.7818457,77.7544764 C77.4098457,78.9374764 77.6168457,80.2274764 77.6218457,81.4524764 C77.6288457,82.9224764 77.4568457,84.3784764 77.7708457,85.8234764 C78.0998457,87.3474764 80.5268457,87.2594764 80.8158457,85.7584764 C81.0948457,84.3174764 80.9338457,82.8404764 80.8478457,81.3834764" id="Fill-276" fill="#00D494"></path>
                <path d="M74.1779457,85.9693764 C73.7999457,85.0153764 72.4859457,85.2173764 72.4229457,86.2453764 C72.2669457,88.7613764 71.1149457,91.3503764 71.4819457,93.8813764 C71.7299457,95.5903764 74.0009457,95.9983764 74.5589457,94.2303764 C75.4039457,91.5543764 75.1919457,88.5303764 74.1779457,85.9693764" id="Fill-278" fill="#00D494"></path>
                <path d="M74.7980457,65.2989764 C74.6120457,63.9979764 74.0630457,62.2279764 72.7240457,61.6929764 C72.2310457,61.4959764 71.6410457,61.6439764 71.4980457,62.2229764 C71.2240457,63.3359764 71.3830457,64.6499764 71.4440457,65.7839764 C71.5170457,67.1419764 71.2350457,68.5249764 72.0200457,69.7259764 C72.6340457,70.6629764 73.9520457,70.6109764 74.5310457,69.6729764 C75.3310457,68.3719764 75.0010457,66.7309764 74.7980457,65.2989764" id="Fill-280" fill="#00D494"></path>
                <path d="M88.8468457,55.2139764 C87.7648457,54.4449764 86.2858457,55.6399764 87.0828457,56.8179764 C87.9498457,58.0999764 88.8838457,59.3239764 89.7538457,60.6019764 C90.6808457,61.9619764 91.3988457,63.0329764 92.7868457,63.9209764 C93.2248457,64.1999764 93.8168457,63.8109764 93.9028457,63.3579764 C94.5458457,59.9589764 91.3818457,57.0149764 88.8468457,55.2139764" id="Fill-282" fill="#00D494"></path>
                <path d="M80.9699457,61.0137764 C80.7649457,61.0487764 80.6029457,61.2607764 80.5529457,61.4477764 C80.2139457,62.7107764 80.8069457,64.4607764 80.8559457,65.7667764 C80.9159457,67.4027764 80.5409457,69.1817764 81.7019457,70.5087764 C82.1569457,71.0267764 83.1049457,70.9697764 83.5429457,70.4697764 C85.1759457,68.6077764 84.6019457,60.3817764 80.9699457,61.0137764" id="Fill-284" fill="#00D494"></path>
                <path d="M90.1163457,80.6158764 C89.9653457,79.3998764 89.5463457,78.2828764 89.2873457,77.0898764 C89.0963457,76.2108764 87.6273457,76.2238764 87.4893457,77.1288764 C87.1883457,79.1068764 87.0643457,81.0708764 86.8183457,83.0548764 C86.7063457,83.9668764 87.0673457,84.8578764 88.0423457,85.1048764 C88.8493457,85.3078764 89.9793457,84.7958764 90.0933457,83.8808764 C90.2313457,82.7608764 90.2563457,81.7388764 90.1163457,80.6158764" id="Fill-286" fill="#00D494"></path>
                <path d="M95.0812457,74.2398764 C94.6462457,72.7548764 94.3702457,71.3348764 93.2542457,70.2128764 C92.9192457,69.8738764 92.2602457,69.9488764 92.0482457,70.3948764 C91.3722457,71.8118764 91.5852457,73.1628764 91.8532457,74.6718764 C92.1072457,76.0888764 92.3472457,77.8938764 93.8102457,78.5558764 C94.3492457,78.8008764 94.9042457,78.6638764 95.2262457,78.1538764 C95.9892457,76.9348764 95.4512457,75.5068764 95.0812457,74.2398764" id="Fill-288" fill="#00D494"></path>
                <path d="M65.1007457,103.164176 C63.4767457,101.629176 60.6757457,104.779176 60.9907457,106.404176 C61.4767457,108.911176 66.7627457,104.734176 65.1007457,103.164176 C64.8117457,102.892176 65.9567457,103.973176 65.1007457,103.164176" id="Fill-290" fill="#BF9C6A"></path>
                <path d="M68.0099457,105.141776 C67.6369457,105.080776 66.4939457,104.923776 65.6769457,105.806776 C64.7499457,106.808776 63.7899457,108.511776 64.6639457,109.366776 C66.0019457,110.672776 68.0769457,108.392776 68.5759457,106.701776 C68.8089457,105.912776 68.6969457,105.251776 68.0099457,105.141776 C67.9249457,105.126776 68.5679457,105.230776 68.0099457,105.141776" id="Fill-292" fill="#BF9C6A"></path>
                <path d="M73.5724457,106.056276 C73.5404457,105.742276 73.3974457,105.367276 73.0764457,105.234276 C73.0534457,105.225276 73.0314457,105.215276 73.0084457,105.205276 C72.6324457,105.050276 72.2994457,105.077276 71.9884457,105.344276 C71.2994457,105.537276 70.7414457,106.303276 70.3854457,106.847276 C69.8274457,107.708276 69.4934457,108.778276 69.6564457,109.797276 C69.7254457,110.223276 70.1984457,110.444276 70.5754457,110.465276 C72.6094457,110.585276 73.7404457,107.728276 73.5724457,106.056276" id="Fill-294" fill="#BF9C6A"></path>
                <path d="M41.0294457,109.055276 C40.6474457,107.980276 39.5624457,105.783276 38.1014457,106.239276 C37.1254457,106.541276 36.9594457,107.564276 37.2904457,108.415276 C37.5754457,109.146276 38.0684457,110.152276 38.7454457,110.587276 C38.7574457,110.595276 38.7704457,110.598276 38.7834457,110.607276 C38.8844457,110.724276 38.9914457,110.839276 39.1054457,110.940276 C39.6944457,111.463276 40.5484457,111.589276 41.0334457,110.851276 C41.3524457,110.365276 41.2084457,109.563276 41.0294457,109.055276" id="Fill-296" fill="#BF9C6A"></path>
                <path d="M46.1124457,105.601676 C45.6184457,105.009676 44.4164457,103.938676 43.7014457,104.890676 C43.4284457,105.249676 43.3544457,105.651676 43.5264457,106.019676 C43.5084457,106.202676 43.5264457,106.398676 43.5714457,106.569676 C43.5894457,106.643676 43.6084457,106.715676 43.6254457,106.788676 C43.5234457,106.368676 43.6774457,106.975676 43.7104457,107.064676 C43.9254457,107.664676 44.2114457,108.262676 44.6884457,108.699676 C45.6254457,109.554676 47.0944457,109.177676 47.2064457,107.857676 C47.2744457,107.049676 46.5934457,106.180676 46.1124457,105.601676" id="Fill-298" fill="#BF9C6A"></path>
                <path d="M51.0636457,104.551376 C50.9456457,103.837376 50.4286457,103.241376 49.9636457,102.721376 C49.7166457,102.445376 49.4126457,102.148376 49.0676457,101.952376 C48.9676457,101.685376 48.7646457,101.459376 48.4656457,101.418376 C48.1976457,101.379376 47.9846457,101.380376 47.7196457,101.450376 C46.9006457,101.671376 46.8196457,102.632376 47.2986457,103.198376 C47.9436457,103.958376 48.3106457,104.893376 49.0166457,105.614376 C49.3556457,105.961376 49.8366457,106.223376 50.3346457,106.075376 C51.0516457,105.858376 51.1686457,105.190376 51.0636457,104.551376" id="Fill-300" fill="#BF9C6A"></path>
                <path d="M53.0968457,26.2012764 C52.9828457,26.1132764 52.8678457,26.0252764 52.7468457,25.9482764 C52.7428457,25.9442764 52.7418457,25.9442764 52.7378457,25.9412764 C52.7278457,25.9312764 52.7118457,25.9162764 52.6808457,25.8902764 C52.5498457,25.7782764 52.4338457,25.6462764 52.3088457,25.5282764 C52.0408457,25.2752764 51.8008457,25.0232764 51.4828457,24.8292764 C50.9568457,24.5082764 50.1588457,25.0812764 50.4108457,25.6912764 C50.7928457,26.6202764 51.1528457,27.5022764 52.1568457,27.8982764 C53.0818457,28.2632764 53.8678457,26.8002764 53.0968457,26.2012764" id="Fill-302" fill="#1B1464"></path>
                <path d="M59.9620457,25.0298764 C59.9110457,24.5088764 59.4270457,24.2618764 58.9650457,24.4868764 C58.4850457,24.7198764 58.1910457,25.1648764 57.8820457,25.5858764 C57.5790457,25.9998764 57.1080457,26.2978764 56.8990457,26.7748764 C56.5170457,27.6528764 57.1810457,28.4078764 58.0920457,28.2588764 C58.8190457,28.1378764 59.2290457,27.4098764 59.5170457,26.8028764 C59.7750457,26.2568764 60.0220457,25.6408764 59.9620457,25.0298764" id="Fill-304" fill="#1B1464"></path>
                <path d="M69.4044457,30.4234764 C65.8574457,32.8494764 63.5114457,35.2024764 59.1314457,36.3454764 C55.3464457,37.3334764 51.2464457,37.1964764 47.4074457,36.6654764 C44.7514457,36.2984764 44.3804457,40.3704764 46.7344457,41.1404764 C55.1054457,43.8744764 69.2824457,42.8684764 73.7544457,33.8104764 C75.0914457,31.0994764 71.6164457,28.9134764 69.4044457,30.4234764" id="Fill-306" fill="#1B1464"></path>
                <path d="M52.0284457,37.1480764 C52.0344457,37.1810764 52.0374457,37.2140764 52.0444457,37.2460764 C51.9794457,37.3860764 52.1354457,37.7930764 52.4324457,38.3900764 C52.5964457,38.7220764 52.8764457,39.0000764 53.1214457,39.2590764 C53.6534457,39.8220764 54.3854457,40.2050764 55.0764457,40.4020764 C57.0514457,40.9660764 59.2574457,40.1250764 59.9204457,37.7010764 C60.0734457,37.1400764 60.0494457,36.5330764 59.8754457,35.9900764 C57.2754457,36.5170764 54.6694457,36.7220764 52.0284457,37.1480764" id="Fill-308" fill="#FFFFFF"></path>
                <path d="M61.0226457,42.3179764 C63.5806457,41.9229764 66.0756457,40.9699764 68.4496457,39.6929764 C67.7566457,38.4699764 66.7246457,37.5969764 65.4076457,37.1909764 C64.4736457,36.9039764 63.5346457,37.1729764 62.6686457,37.6519764 C61.4616457,38.3199764 60.8566457,39.8389764 60.8766457,41.2089764 C60.8826457,41.6029764 60.9266457,41.9739764 61.0226457,42.3179764" id="Fill-310" fill="#FFFFFF"></path>
                <path d="M24.4972457,16.3560764 C25.0362457,15.6470764 25.0022457,14.7650764 24.2092457,14.2970764 C23.9902457,14.1680764 23.7752457,14.1600764 23.5272457,14.1570764 C23.9972457,14.1630764 23.4182457,14.1510764 23.2622457,14.1450764 C23.1982457,14.1430764 22.9462457,14.1360764 23.1002457,14.1500764 C22.8972457,14.1350764 22.6952457,14.1160764 22.4912457,14.1120764 C22.4732457,14.1100764 22.4492457,14.1080764 22.4162457,14.1060764 C22.2982457,14.0960764 22.1792457,14.0810764 22.0602457,14.0660764 C21.7002457,14.0230764 21.3502457,14.0020764 20.9842457,14.0450764 C20.2642457,14.1320764 19.6452457,14.6310764 19.4942457,15.3650764 C19.3032457,16.2870764 19.8972457,17.0030764 20.7332457,17.2350764 C21.4762457,17.4410764 22.5182457,17.3930764 23.2662457,17.1330764 C23.7122457,16.9770764 24.2022457,16.7430764 24.4972457,16.3560764" id="Fill-312" fill="#9CBA2B"></path>
                <path d="M24.4757457,13.5630764 C25.3427457,13.2640764 25.8047457,12.4150764 25.3717457,11.4390764 C25.2517457,11.1700764 25.0687457,11.0160764 24.8537457,10.8450764 C25.2617457,11.1690764 24.7607457,10.7660764 24.6277457,10.6540764 C24.5737457,10.6080764 24.3567457,10.4320764 24.4827457,10.5490764 C24.3147457,10.3960764 24.1477457,10.2430764 23.9717457,10.1000764 C23.9557457,10.0850764 23.9367457,10.0670764 23.9097457,10.0420764 C23.8117457,9.95307644 23.7157457,9.85907644 23.6207457,9.76507644 C23.3297457,9.48007644 23.0347457,9.22107644 22.6907457,9.01507644 C22.0107457,8.60707644 21.1917457,8.65507644 20.6487457,9.24007644 C19.9667457,9.97307644 20.0877457,11.0480764 20.6907457,11.8330764 C21.2247457,12.5300764 22.1637457,13.1920764 22.9637457,13.4550764 C23.4417457,13.6120764 24.0007457,13.7260764 24.4757457,13.5630764" id="Fill-314" fill="#9CBA2B"></path>
                <path d="M40.9591457,13.8101764 C41.7111457,18.8431764 38.4711457,23.5001764 33.7221457,24.2101764 C28.9721457,24.9201764 23.4371457,21.5251764 22.6851457,16.4911764 C21.9321457,11.4581764 25.8091457,6.42917644 30.5601457,5.71817644 C35.3091457,5.00917644 40.2051457,8.77617644 40.9591457,13.8101764" id="Fill-316" fill="#9CBA2B"></path>
                <path d="M85.3986457,15.2037764 C84.8596457,14.4947764 84.8936457,13.6127764 85.6866457,13.1447764 C85.9056457,13.0157764 86.1206457,13.0077764 86.3686457,13.0047764 C85.8986457,13.0107764 86.4776457,12.9987764 86.6336457,12.9927764 C86.6976457,12.9907764 86.9496457,12.9847764 86.7956457,12.9987764 C86.9986457,12.9827764 87.2006457,12.9647764 87.4046457,12.9597764 C87.4236457,12.9577764 87.4466457,12.9557764 87.4796457,12.9537764 C87.5986457,12.9437764 87.7166457,12.9297764 87.8356457,12.9147764 C88.1956457,12.8707764 88.5456457,12.8497764 88.9116457,12.8927764 C89.6316457,12.9797764 90.2506457,13.4787764 90.4026457,14.2137764 C90.5926457,15.1347764 89.9986457,15.8507764 89.1626457,16.0827764 C88.4196457,16.2897764 87.3776457,16.2417764 86.6296457,15.9807764 C86.1836457,15.8247764 85.6936457,15.5917764 85.3986457,15.2037764" id="Fill-318" fill="#9CBA2B"></path>
                <path d="M85.4210457,12.4112764 C84.5530457,12.1122764 84.0910457,11.2632764 84.5250457,10.2872764 C84.6440457,10.0182764 84.8270457,9.86427644 85.0420457,9.69327644 C84.6340457,10.0172764 85.1350457,9.61327644 85.2680457,9.50227644 C85.3220457,9.45627644 85.5400457,9.28027644 85.4130457,9.39627644 C85.5820457,9.24427644 85.7480457,9.09127644 85.9240457,8.94827644 C85.9400457,8.93327644 85.9590457,8.91527644 85.9860457,8.89027644 C86.0850457,8.80127644 86.1810457,8.70727644 86.2750457,8.61327644 C86.5670457,8.32727644 86.8620457,8.06927644 87.2060457,7.86327644 C87.8850457,7.45527644 88.7040457,7.50327644 89.2470457,8.08827644 C89.9290457,8.82127644 89.8080457,9.89627644 89.2050457,10.6812764 C88.6710457,11.3772764 87.7320457,12.0402764 86.9320457,12.3032764 C86.4540457,12.4602764 85.8950457,12.5742764 85.4210457,12.4112764" id="Fill-320" fill="#9CBA2B"></path>
                <path d="M68.9366457,12.6583764 C68.1846457,17.6913764 71.4246457,22.3483764 76.1736457,23.0583764 C80.9236457,23.7683764 86.4586457,20.3733764 87.2106457,15.3393764 C87.9636457,10.3063764 84.0866457,5.27737644 79.3356457,4.56637644 C74.5866457,3.85737644 69.6906457,7.62437644 68.9366457,12.6583764" id="Fill-322" fill="#9CBA2B"></path>
                <path d="M62.4425457,13.2496764 C61.9045457,12.5406764 61.9385457,11.6586764 62.7315457,11.1906764 C62.9495457,11.0616764 63.1645457,11.0536764 63.4125457,11.0506764 C62.9425457,11.0566764 63.5215457,11.0446764 63.6775457,11.0386764 C63.7425457,11.0366764 63.9945457,11.0306764 63.8405457,11.0436764 C64.0435457,11.0286764 64.2445457,11.0096764 64.4485457,11.0056764 C64.4675457,11.0036764 64.4915457,11.0016764 64.5235457,10.9996764 C64.6425457,10.9896764 64.7605457,10.9746764 64.8795457,10.9596764 C65.2405457,10.9166764 65.5905457,10.8956764 65.9555457,10.9386764 C66.6755457,11.0256764 67.2945457,11.5246764 67.4465457,12.2586764 C67.6375457,13.1806764 67.0425457,13.8966764 66.2065457,14.1286764 C65.4645457,14.3346764 64.4215457,14.2866764 63.6735457,14.0266764 C63.2275457,13.8706764 62.7375457,13.6366764 62.4425457,13.2496764" id="Fill-324" fill="#9CBA2B"></path>
                <path d="M62.0411457,9.36387644 C61.1741457,9.06487644 60.7121457,8.21587644 61.1451457,7.23987644 C61.2651457,6.97087644 61.4481457,6.81687644 61.6631457,6.64587644 C61.2551457,6.96987644 61.7561457,6.56587644 61.8891457,6.45487644 C61.9431457,6.40887644 62.1611457,6.23187644 62.0341457,6.34887644 C62.2021457,6.19687644 62.3691457,6.04287644 62.5451457,5.90087644 C62.5611457,5.88587644 62.5801457,5.86787644 62.6071457,5.84287644 C62.7051457,5.75387644 62.8011457,5.65987644 62.8961457,5.56587644 C63.1871457,5.27987644 63.4831457,5.02187644 63.8261457,4.81587644 C64.5061457,4.40787644 65.3251457,4.45587644 65.8681457,5.03987644 C66.5501457,5.77387644 66.4291457,6.84787644 65.8261457,7.63387644 C65.2921457,8.32987644 64.3531457,8.99287644 63.5531457,9.25587644 C63.0751457,9.41287644 62.5161457,9.52687644 62.0411457,9.36387644" id="Fill-326" fill="#9CBA2B"></path>
                <path d="M47.5363457,13.2496764 C48.0753457,12.5406764 48.0413457,11.6586764 47.2483457,11.1906764 C47.0293457,11.0616764 46.8143457,11.0536764 46.5663457,11.0506764 C47.0363457,11.0566764 46.4573457,11.0446764 46.3013457,11.0386764 C46.2373457,11.0366764 45.9853457,11.0306764 46.1393457,11.0436764 C45.9353457,11.0286764 45.7343457,11.0096764 45.5303457,11.0056764 C45.5113457,11.0036764 45.4883457,11.0016764 45.4553457,10.9996764 C45.3363457,10.9896764 45.2183457,10.9746764 45.0993457,10.9596764 C44.7393457,10.9166764 44.3893457,10.8956764 44.0233457,10.9386764 C43.3033457,11.0256764 42.6843457,11.5246764 42.5323457,12.2586764 C42.3423457,13.1806764 42.9363457,13.8966764 43.7723457,14.1286764 C44.5153457,14.3346764 45.5573457,14.2866764 46.3053457,14.0266764 C46.7513457,13.8706764 47.2413457,13.6366764 47.5363457,13.2496764" id="Fill-328" fill="#9CBA2B"></path>
                <path d="M47.9376457,9.36387644 C48.8046457,9.06487644 49.2666457,8.21587644 48.8336457,7.23987644 C48.7136457,6.97087644 48.5316457,6.81687644 48.3166457,6.64587644 C48.7236457,6.96987644 48.2236457,6.56587644 48.0896457,6.45487644 C48.0356457,6.40887644 47.8186457,6.23187644 47.9446457,6.34887644 C47.7766457,6.19687644 47.6106457,6.04287644 47.4336457,5.90087644 C47.4176457,5.88587644 47.3996457,5.86787644 47.3726457,5.84287644 C47.2736457,5.75387644 47.1776457,5.65987644 47.0826457,5.56587644 C46.7916457,5.27987644 46.4966457,5.02187644 46.1526457,4.81587644 C45.4726457,4.40787644 44.6536457,4.45587644 44.1106457,5.03987644 C43.4286457,5.77387644 43.5496457,6.84787644 44.1526457,7.63387644 C44.6866457,8.32987644 45.6266457,8.99287644 46.4256457,9.25587644 C46.9036457,9.41287644 47.4626457,9.52687644 47.9376457,9.36387644" id="Fill-330" fill="#9CBA2B"></path>
                <path d="M45.9796457,10.7173764 C45.2346457,15.7513764 48.4816457,20.4043764 53.2326457,21.1063764 C57.9826457,21.8093764 63.5136457,18.4063764 64.2576457,13.3713764 C65.0026457,8.33737644 61.1186457,3.31337644 56.3666457,2.61037644 C51.6166457,1.90737644 46.7256457,5.68237644 45.9796457,10.7173764" id="Fill-332" fill="#9CBA2B"></path>
                <path d="M98.2413457,66.9039764 C98.6153457,66.6869764 98.9893457,66.5249764 99.3753457,66.3369764 C99.3763457,66.3609764 99.3793457,66.3849764 99.3823457,66.4089764 C99.4003457,66.3429764 99.4153457,66.2749764 99.4263457,66.2039764 C99.4343457,66.1539764 99.4383457,66.0999764 99.4453457,66.0469764 C99.3823457,65.9989764 99.3133457,65.9449764 99.2443457,65.8839764 C97.8983457,64.6759764 97.0003457,63.9239764 96.0433457,62.5129764 C95.3843457,61.5379764 94.7313457,60.5639764 94.0263457,59.6119764 C92.3133457,57.2989764 91.3143457,53.6969764 89.0023457,51.9259764 C86.8723457,50.2949764 85.6613457,48.0169764 88.3233457,47.8009764 C93.6033457,47.3689764 98.1203457,51.4649764 101.580346,55.4959764 C102.944346,57.0869764 104.359346,58.9039764 105.120346,60.7629764 C105.547346,60.2769764 106.073346,59.9409764 106.865346,59.9859764 C107.393346,60.0159764 107.680346,60.1319764 108.186346,60.3479764 C108.894346,60.6519764 109.346346,61.2929764 109.641346,61.9459764 C109.918346,62.5569764 109.925346,63.1819764 109.570346,63.6349764 C109.210346,64.1009764 108.628346,64.2029764 107.976346,64.0849764 C107.765346,64.0469764 107.618346,64.0119764 107.500346,63.9769764 C107.387346,64.0109764 106.263346,63.2759764 105.659346,63.7619764 C105.624346,64.1999764 105.533346,64.6349764 105.369346,65.0639764 C105.349346,65.1159764 105.324346,65.1719764 105.298346,65.2249764 C105.301346,65.2279764 105.303346,65.2279764 105.305346,65.2299764 C106.092346,65.6769764 106.748346,66.1009764 107.253346,66.8649764 C107.448346,67.1599764 107.560346,67.4999764 107.665346,67.8179764 C107.920346,68.5799764 107.722346,69.1909764 107.253346,69.6669764 C106.445346,70.4799764 105.035346,69.9109764 104.451346,68.7659764 C104.254346,68.3339764 104.165346,67.9139764 104.186346,67.5069764 C104.181346,67.6699764 104.168346,67.2759764 104.055346,67.1899764 C103.928346,67.0909764 103.906346,66.9169764 103.602346,66.9069764 C103.170346,67.1279764 102.695346,67.2389764 102.225346,67.1679764 C102.231346,67.2499764 102.238346,67.3329764 102.239346,67.4149764 C102.269346,67.9179764 102.222346,68.3219764 102.039346,68.7459764 C101.593346,69.7739764 100.382346,69.9999764 99.2143457,69.7019764 C97.8903457,69.3669764 97.1893457,67.5199764 98.2413457,66.9039764" id="Fill-334" fill="#9CBA2B"></path>
                <path d="M11.7677457,68.7579764 C11.3857457,68.5569764 11.0047457,68.4109764 10.6117457,68.2399764 C10.6117457,68.2629764 10.6097457,68.2889764 10.6077457,68.3129764 C10.5867457,68.2479764 10.5687457,68.1799764 10.5547457,68.1099764 C10.5437457,68.0599764 10.5377457,68.0059764 10.5297457,67.9529764 C10.5897457,67.9029764 10.6567457,67.8459764 10.7227457,67.7819764 C12.0157457,66.5169764 12.8807457,65.7269764 13.7767457,64.2769764 C14.3937457,63.2749764 15.0037457,62.2729764 15.6667457,61.2919764 C17.2797457,58.9069764 18.1227457,55.2669764 20.3577457,53.3979764 C22.4147457,51.6769764 23.5277457,49.3499764 20.8587457,49.2469764 C15.5647457,49.0419764 11.2277457,53.3269764 7.94474568,57.5039764 C6.64974568,59.1509764 5.31274568,61.0279764 4.63274568,62.9169764 C4.18574568,62.4499764 3.64474568,62.1369764 2.85674568,62.2159764 C2.32974568,62.2679764 2.04774568,62.3969764 1.55074568,62.6339764 C0.856745681,62.9679764 0.432745681,63.6279764 0.165745681,64.2929764 C-0.0842543189,64.9159764 -0.0632543189,65.5399764 0.309745681,65.9779764 C0.689745681,66.4279764 1.27574568,66.5049764 1.92074568,66.3589764 C2.13074568,66.3109764 2.27674568,66.2699764 2.39274568,66.2309764 C2.50574568,66.2599764 3.59774568,65.4769764 4.22274568,65.9369764 C4.27674568,66.3729764 4.38574568,66.8039764 4.56874568,67.2249764 C4.58974568,67.2769764 4.61874568,67.3309764 4.64574568,67.3829764 C4.64374568,67.3859764 4.64174568,67.3859764 4.63874568,67.3889764 C3.87274568,67.8679764 3.23574568,68.3199764 2.76374568,69.1049764 C2.57974568,69.4089764 2.48374568,69.7529764 2.39174568,70.0749764 C2.17074568,70.8469764 2.39374568,71.4489764 2.88374568,71.9039764 C3.72474568,72.6819764 5.10974568,72.0529764 5.64474568,70.8839764 C5.82274568,70.4439764 5.89374568,70.0209764 5.85474568,69.6149764 C5.86674568,69.7779764 5.86374568,69.3829764 5.97174568,69.2929764 C6.09374568,69.1889764 6.10974568,69.0129764 6.41274568,68.9909764 C6.85374568,69.1929764 7.33274568,69.2839764 7.79974568,69.1919764 C7.79674568,69.2739764 7.79374568,69.3579764 7.79574568,69.4399764 C7.78774568,69.9439764 7.85074568,70.3449764 8.05274568,70.7609764 C8.54274568,71.7689764 9.76174568,71.9429764 10.9167457,71.5949764 C12.2237457,71.2039764 12.8457457,69.3279764 11.7677457,68.7579764" id="Fill-336" fill="#9CBA2B"></path>
                <path d="M39.7365457,13.8585764 C40.3595457,18.0295764 37.6735457,21.8895764 33.7385457,22.4775764 C29.8025457,23.0655764 25.5775457,20.4695764 24.9545457,16.2985764 C24.3305457,12.1275764 27.5435457,7.95957644 31.4795457,7.37057644 C35.4155457,6.78257644 39.1115457,9.68757644 39.7365457,13.8585764" id="Fill-338" fill="#F9F9F9"></path>
                <path d="M62.6622457,11.1251764 C62.7522457,15.3421764 59.3572457,19.6271764 55.3792457,19.7131764 C51.3992457,19.7981764 48.3442457,15.6501764 48.2532457,11.4341764 C48.1622457,7.21617644 51.3142457,3.72917644 55.2942457,3.64417644 C59.2722457,3.55917644 62.5712457,6.90817644 62.6622457,11.1251764" id="Fill-340" fill="#F9F9F9"></path>
                <path d="M84.9972457,13.2608764 C85.0872457,17.4778764 82.2412457,21.6118764 78.2622457,21.6968764 C74.2822457,21.7818764 70.1052457,17.7978764 70.0152457,13.5818764 C69.9252457,9.36487644 73.6502457,5.86487644 77.6292457,5.77987644 C81.6072457,5.69487644 84.9062457,9.04387644 84.9972457,13.2608764" id="Fill-342" fill="#F9F9F9"></path>
                <path d="M35.3546457,15.5113764 C35.3896457,17.1583764 34.0836457,18.5213764 32.4376457,18.5563764 C30.7926457,18.5913764 29.4296457,17.2863764 29.3946457,15.6393764 C29.3596457,13.9933764 30.6646457,12.6303764 32.3096457,12.5953764 C33.9566457,12.5603764 35.3196457,13.8653764 35.3546457,15.5113764" id="Fill-344" fill="#1E2D6A"></path>
                <path d="M58.5216457,11.6319764 C58.5566457,13.2779764 57.2516457,14.6409764 55.6066457,14.6759764 C53.9596457,14.7109764 52.5966457,13.4059764 52.5616457,11.7599764 C52.5266457,10.1149764 53.8336457,8.75197644 55.4786457,8.71597644 C57.1246457,8.68097644 58.4866457,9.98697644 58.5216457,11.6319764" id="Fill-346" fill="#1E2D6A"></path>
                <path d="M80.9122457,13.7379764 C80.9472457,15.3839764 79.6412457,16.7469764 77.9962457,16.7819764 C76.3502457,16.8179764 74.9882457,15.5119764 74.9532457,13.8659764 C74.9172457,12.2199764 76.2232457,10.8579764 77.8682457,10.8219764 C79.5152457,10.7869764 80.8772457,12.0919764 80.9122457,13.7379764" id="Fill-348" fill="#1E2D6A"></path>
                <path d="M47.2950457,9.67147644 C49.9770457,10.3394764 52.2820457,9.70547644 54.9800457,9.60847644 C57.9330457,9.50447644 60.9230457,9.85647644 63.8460457,10.1874764 C64.0890457,10.2144764 64.3320457,10.2434764 64.5750457,10.2724764 C64.5730457,9.90447644 64.5290457,9.51947644 64.4530457,9.12447644 C64.4830457,9.19947644 64.4820457,9.15347644 64.3970457,8.80047644 C64.3050457,8.54447644 64.2740457,8.46847644 64.2700457,8.48447644 C60.6210457,-1.09152356 47.5240457,0.332476443 46.7840457,9.57647644 C46.9520457,9.59947644 47.1200457,9.62847644 47.2950457,9.67147644" id="Fill-350" fill="#9CBA2B"></path>
                <path d="M86.9025457,13.3326764 C85.1265457,2.64267644 74.1045457,1.21067644 70.2255457,10.0956764 C75.8505457,10.8356764 81.3855457,12.0216764 86.9025457,13.3326764" id="Fill-352" fill="#9CBA2B"></path>
                <path d="M23.7267457,15.5450764 C28.8447457,15.2770764 33.8887457,14.4710764 38.9717457,13.9190764 C39.6617457,13.8430764 40.2707457,13.9330764 40.7907457,14.1360764 C40.7877457,14.0800764 40.7797457,13.9870764 40.7647457,13.8410764 C40.7117457,13.5660764 40.6917457,13.4870764 40.6857457,13.5030764 C38.2737457,2.48607644 24.0427457,3.20907644 23.6747457,14.5530764 C23.6647457,14.8980764 23.6877457,15.2270764 23.7267457,15.5450764" id="Fill-354" fill="#9CBA2B"></path>
            </g>
        </g>
    </g>
</svg>