<?xml version="1.0" encoding="UTF-8"?>
<svg width="127px" height="139px" viewBox="0 0 127 139" version="1.1" xmlns="http://www.w3.org/2000/svg" xmlns:xlink="http://www.w3.org/1999/xlink">
    <title>Sidekick_6_ship</title>
    <defs>
        <path d="M118.551091,43.829148 C113.082151,16.7812251 78.8365485,-3.12294885 54.4875018,0.405781556 C41.9189332,2.22691527 26.7964513,7.54725976 17.9775587,16.9640197 C8.81572167,26.7475042 3.31157889,40.8431246 0.103573251,53.5286152 C-0.550519227,56.1218006 1.99090259,57.4183933 4.9808774,57.5796158 C6.17550464,58.8864269 7.95949645,59.7720156 10.5281721,60.0161202 C12.8333939,60.236382 15.0625319,60.135334 17.3598047,59.886688 C20.78357,59.5176927 24.3072661,60.7007484 27.6685746,61.110617 C35.268993,62.0359437 42.8807671,62.3754193 50.5254729,62.6899169 C62.9407386,63.2031042 75.1913456,62.7001352 87.5259854,62.4344586 C89.5007542,63.2031042 91.9059067,63.3427547 94.8129844,62.6342837 C95.2229278,62.5355065 95.6101596,62.4231049 95.9917135,62.3061618 C96.2619809,62.3050264 96.5299771,62.3004849 96.7979734,62.2993495 C102.84038,62.2675592 115.069411,63.65044 118.887221,58.3823225 C121.954415,54.1485273 119.537907,48.712375 118.551091,43.829148" id="path-1"></path>
        <polygon id="path-3" points="0 0.214146556 15.6035396 0.214146556 15.6035396 16.5113992 0 16.5113992"></polygon>
    </defs>
    <g id="Student-Environmrnt---New-Treatment" stroke="none" stroke-width="1" fill="none" fill-rule="evenodd">
        <g id="Avatars" transform="translate(-1687.000000, -559.000000)">
            <g id="Sidekick_6_ship" transform="translate(1687.000000, 559.000000)">
                <g id="Group-20">
                    <path d="M30.93385,105.610622 C27.9943997,110.794382 23.687737,118.717999 23.133829,125.690008 C28.0612312,128.945509 30.3822075,130.425283 35.222389,132.58689 C36.5239028,133.168555 37.8401421,133.724039 39.1631779,134.262449 C39.386327,133.964218 39.6253343,133.678507 39.8303595,133.370032 C43.545734,131.19818 44.3714987,123.725324 45.159883,119.988327 C45.3377226,119.148272 45.5019693,118.345779 45.6526232,117.558084 C46.1872747,115.673081 46.6188471,113.67994 46.4387421,111.903074 C46.4126892,111.650374 46.3753089,111.396536 46.3333976,111.139283 C46.366247,110.846743 46.3775743,110.557618 46.3945654,110.266217 C49.5854831,110.959434 52.6268796,112.061296 55.6830016,113.142668 C55.6365594,113.272433 55.5844536,113.40106 55.5391441,113.531963 C55.282013,113.982724 55.0441385,114.451699 54.8323168,114.944577 C53.9125351,115.182479 53.2804683,115.843824 53.4934227,117.213183 C53.5636523,117.671913 53.633882,118.137473 53.7052444,118.607585 C53.5036173,119.575129 53.3518307,120.567716 53.2589463,121.588759 C52.036724,126.890901 51.6391337,133.350681 53.7822704,138.386463 C54.4154699,138.470696 55.0452712,138.569727 55.6796034,138.63461 C56.389829,138.697216 62.3774721,138.870235 60.3170251,139 C64.7822709,138.72112 69.2520477,138.326134 73.6867096,137.702353 C74.595164,135.605628 74.9984181,133.086598 75.273673,131.352987 C75.8978106,127.428173 75.2838676,121.420293 73.1520582,116.573466 C75.0992316,116.631519 77.0498032,116.615583 78.9969766,116.518828 C79.0286932,116.51769 79.0615426,116.511998 79.0955247,116.509722 C79.1612234,119.140304 79.5984595,121.851704 79.7502461,123.439614 C79.986988,125.930187 81.0155124,128.305792 82.4495563,130.452602 C83.335356,132.226053 84.455632,133.859495 85.7662077,135.290322 C91.332473,133.802581 96.6438727,131.806025 101.505576,129.152678 C101.23825,126.815774 100.421548,124.487977 99.403218,122.300189 C99.0520698,121.544366 98.6556121,120.779437 98.2421634,120.014508 C97.9487848,119.105017 97.621424,118.211461 97.2680104,117.340671 C96.8024558,116.191001 96.1386724,115.31452 95.4137213,114.329902 C94.5800275,113.197306 93.9219078,110.910487 94.3772678,113.471633 C94.1813044,112.37091 92.5841465,110.648681 91.032298,109.743743 C89.78289,107.975983 87.6646735,106.393764 86.0743119,106.589549 C85.9678347,106.603209 85.8692867,106.614591 85.7628095,106.628251 C84.9211866,106.451816 84.0931565,106.48938 83.459957,106.907131 C76.8606363,107.698241 70.8639312,108.26397 64.1660625,107.763123 C62.5258606,106.929897 61.1688427,106.839972 60.0361066,107.26 C53.7437574,106.104639 48.0200417,102.791085 41.6812504,101.4388 C40.2902504,100.597605 38.7633221,100.232215 37.4108352,100.974378 C36.2044712,101.635723 35.1136463,102.608959 34.1292986,103.773427 C33.4972318,103.578779 32.8957489,103.554875 32.3826195,103.799607 C31.6621993,103.93734 31.1343443,104.448431 30.9587702,105.478581 C30.9531065,105.519559 30.9417791,105.568505 30.93385,105.610622" id="Fill-1" fill="#6E2FC9"></path>
                    <g id="Group-33" transform="translate(1.416357, 2.372014)">
                        <mask id="mask-2" fill="white">
                            <use xlink:href="#path-1"></use>
                        </mask>
                        <use id="Mask" fill="#35338E" xlink:href="#path-1"></use>
                        <g mask="url(#mask-2)">
                            <g transform="translate(23.583643, 11.627986)">
                                <path d="M67.1412289,58.7624944 C66.852035,57.878146 65.6611138,53.4014797 65.8806224,52.8696192 C66.1022215,52.3370635 66.9300825,53.304841 66.9363542,52.2939585 C66.937051,52.0610522 66.8367042,51.5980207 66.667369,50.9799502 C66.5224237,50.2506408 66.3614507,49.5282839 66.2178991,48.8052318 C65.0994505,41.3842136 62.6688284,35.1583173 60.2117259,28.4165511 C60.107198,28.2031117 59.9239257,27.8478428 59.7023266,27.4265259 C59.038226,26.1611846 58.035455,24.2902871 57.8263992,23.8216937 C56.2201537,20.2265949 52.955399,15.9598918 49.6495299,13.4952573 C46.1255459,10.8658503 41.9423393,9.91545382 38.1647009,10.0058353 C36.0957453,10.0551976 31.6310102,11.0577372 28.3425625,12.9195965 C20.2695242,17.4859491 15.772037,26.8724176 15.4326698,27.8394999 C15.327445,28.1391494 15.5685561,28.4422751 15.852872,28.5208375 C15.4939928,28.8726302 15.128842,29.2167752 14.7650849,29.5713489 C14.5643914,29.7653215 14.6326829,30.0489805 14.8131678,30.1984576 C14.9149083,30.2818867 15.0744875,30.6705272 14.7727503,31.3664649 C14.1323427,32.8424647 12.919819,35.6255203 12.0703556,38.4655858 C10.8418044,42.5716878 10.4048777,46.7980667 10.1379832,47.4571566 C9.7045408,48.5271348 9.92962421,49.0235379 10.3867596,48.7989746 C11.2961523,48.3498479 10.2780506,51.3449525 9.88223823,53.2005546 C9.34635852,55.7124657 8.65229326,58.9926196 8.29620154,62.2199352 C8.2070044,63.0271117 8.13871284,63.830812 8.09968909,64.613655 C7.83836933,66.8140974 8.09899224,68.954749 8.78539212,70.8715324 C9.4585518,72.1459119 10.7303079,71.2594777 11.5818619,70.8117416 C11.2578254,75.756306 17.7134686,75.8334779 21.2520865,76.6705499 C21.9461517,76.7678838 22.6325516,76.8422748 23.3001365,76.8978942 C25.3028911,77.0591904 27.1321294,77.0369426 28.4617243,76.776922 C30.686078,76.3417002 33.874179,75.7542203 34.5424607,73.2110233 C34.8365325,72.088902 34.0037936,71.1273817 34.0205181,70.0407177 C34.0309708,69.34478 34.4908936,68.765643 34.9793873,68.3199926 C37.0706422,66.4129425 41.8907722,66.2488653 43.8468376,68.4048122 C44.5945606,69.227284 44.8510023,70.5558924 44.294217,71.3818404 C43.3618282,72.7618967 42.7012118,73.8110176 43.788302,75.1674356 C44.9485617,76.616321 50.9728531,76.6177114 53.5999877,76.192223 C54.1539856,76.103232 55.258497,75.9210785 56.602029,75.6666197 C57.2744918,75.5393904 58.0054903,75.3933895 58.7566975,75.2320932 C60.9462086,75.1229401 62.4235363,73.8040652 63.6722962,71.8441767 C64.084833,70.9772093 65.6360271,73.0900512 66.4729472,71.999911 C67.9279755,69.6068864 67.2227606,66.8307832 67.3830367,64.2528241 C67.3781588,64.037299 68.0143853,63.5944295 68,62.950635 C67.9962671,62.7358051 67.7711837,62.3117072 67.8708336,62.144849 C67.8032389,61.5476357 67.6826834,60.8920221 67.5481908,60.2913326 C67.4136983,59.6892526 67.2652686,59.142792 67.1412289,58.7624944" id="Fill-21" fill="#BCDD40"></path>
                                <path d="M28.9189605,10.4231713 C29.5229888,14.4935192 26.6852626,18.2955633 22.5805676,18.9144508 C18.4765824,19.5326228 14.6600607,16.7343928 14.0560325,12.6633294 C13.4520042,8.59155049 17.8583584,3.33064904 21.1631241,3.02370946 C24.9611913,2.66883293 28.3149323,6.35210788 28.9189605,10.4231713" id="Fill-23" fill="#BCDD40"></path>
                                <path d="M62.9982915,10.1104266 C63.0854293,14.1615181 59.8287395,18.910685 55.6886274,18.9987369 C51.5470984,19.0874932 48.0892121,14.482027 48.0013658,10.430231 C47.9142279,6.37843512 52.0139591,2.07164091 55.3223649,2.00119939 C58.4763312,1.93357554 62.8821076,4.7265816 62.9982915,10.1104266" id="Fill-25" fill="#BCDD40"></path>
                                <path d="M45.9982914,8.11186248 C46.0854296,12.1629416 42.8287295,16.9106851 38.6886044,16.9987367 C34.5470623,17.0874928 31.0891652,12.4827451 31.0013186,8.43166597 C30.9141804,4.37917806 35.1641138,0.0688749963 38.3223407,0.00125134955 C42.277563,-0.0825737959 45.9111533,4.05937457 45.9982914,8.11186248" id="Fill-27" fill="#BCDD40"></path>
                                <path d="M43.2686501,9.39718861 C42.8695686,8.97287369 42.8947425,8.44502354 43.4818885,8.16493979 C43.6440386,8.08773722 43.803227,8.08294946 43.9868489,8.08115405 C43.6388557,8.08474487 44.0675537,8.07756324 44.1830579,8.07397242 C44.2304442,8.07277548 44.4170278,8.06918466 44.3030045,8.07696477 C44.4540483,8.06798772 44.6028709,8.0566168 44.7539148,8.05422292 C44.7679826,8.05302599 44.7850121,8.05182905 44.8094456,8.05063211 C44.8975546,8.04464741 44.9849231,8.03567037 45.073032,8.02669333 C45.33958,8.00095913 45.5987239,7.98839127 45.8697143,8.01412546 C46.4028103,8.06619232 46.8611248,8.36482862 46.9736673,8.80410528 C47.1143454,9.35589421 46.6745412,9.78439841 46.0555575,9.92324334 C45.5054321,10.0465281 44.7339237,10.0178015 44.1800962,9.86219945 C43.8498729,9.7688382 43.4870714,9.62879632 43.2686501,9.39718861" id="Fill-29" fill="#9CBA2B"></path>
                                <path d="M33.7313167,9.39718861 C34.1304476,8.97287369 34.1052705,8.44502354 33.5180519,8.16493979 C33.3558819,8.08773722 33.1966738,8.08294946 33.0137697,8.08115405 C33.3610654,8.08474487 32.9323144,8.07756324 32.816796,8.07397242 C32.7694038,8.07277548 32.5827972,8.06918466 32.6968346,8.07696477 C32.5465125,8.06798772 32.396931,8.0566168 32.246609,8.05422292 C32.2317989,8.05302599 32.2147674,8.05182905 32.1903308,8.05063211 C32.102211,8.04464741 32.0148317,8.03567037 31.9274524,8.02669333 C31.6601309,8.00095913 31.400955,7.98839127 31.1306716,8.01412546 C30.5967692,8.06619232 30.1391386,8.36482862 30.0265822,8.80410528 C29.8851462,9.35589421 30.3250048,9.78439841 30.9448054,9.92324334 C31.4942584,10.0465281 32.265862,10.0178015 32.819758,9.86219945 C33.1500221,9.7688382 33.5136089,9.62879632 33.7313167,9.39718861" id="Fill-33" fill="#9CBA2B"></path>
                                <path d="M32.0748567,7.70300737 C31.5506739,11.2077737 33.8352665,14.4472805 37.178075,14.9360262 C40.5201799,15.4254682 44.4117973,13.056235 44.9352764,9.55077252 C45.4594592,6.04600623 42.7266728,2.54820213 39.3831607,2.05876019 C36.0410557,1.56931826 32.5997431,4.19754487 32.0748567,7.70300737" id="Fill-37" fill="#9CBA2B"></path>
                                <path d="M25.6132983,21.441334 C24.0378505,23.5518574 24.8682284,29.1042662 35.725747,29.9173657 C46.5839536,30.7311722 53.1946427,25.3258283 51.8200817,22.8469355 C51.2566355,21.8302076 46.1766762,22.0345431 37.9348138,21.4865847 C29.6915755,20.9379194 26.121707,20.7625727 25.6132983,21.441334" id="Fill-39" fill="#992897"></path>
                                <path d="M32.8900234,25.7284831 C34.1283587,24.6819727 35.6872853,24.2744755 37.2565313,24.2160556 C41.4022029,24.0624328 45.1866933,25.5452897 48.772362,27.5070458 C51.3219569,25.9585567 52.4736088,24.0855123 51.8200429,22.8846578 C51.2566003,21.8475235 46.1766736,22.0552388 37.9348639,21.4970038 C29.6916784,20.9366051 26.1218328,20.7577391 25.6134273,21.4501236 C24.3702762,23.1486294 24.6255109,27.029589 30.1147763,29 C30.9616601,27.837371 31.8023522,26.647335 32.8900234,25.7284831" id="Fill-41" fill="#1B1464"></path>
                                <path d="M28.30727,21.0157716 C27.746687,21.074047 27.6106034,23.9878201 30.9768098,23.9999608 C34.3423391,24.0114945 34.3064564,21.4710486 33.6537969,21.2682986 C33.0018145,21.0649415 28.8685301,20.9574961 28.30727,21.0157716" id="Fill-43" fill="#F9F9F9"></path>
                                <path d="M19.1384735,35.0959989 C18.2307928,35.4677008 18.0829569,36.5189724 17.8850476,37.2637062 C17.5766587,38.424028 17.0783086,39.548443 17.002801,40.7426769 C16.9010645,42.3505039 19.6010568,42.3790964 20.1558388,41.0412353 C20.7066468,39.7160081 20.9864223,38.1786648 20.9999342,36.7769694 C21.0078823,36.0269161 20.2957266,34.6205661 19.1384735,35.0959989" id="Fill-45" fill="#00D494"></path>
                                <path d="M25.3974583,35.1017506 C25.2075302,34.9510551 24.8811555,34.9770635 24.6946557,35.1185796 C24.2476047,35.4574533 24.1125294,35.9990392 24.0748181,36.5765778 C24.0316214,37.2007786 23.9027171,37.7775523 24.1344706,38.3765096 C24.4258765,39.1338119 25.1821607,39.2103071 25.6154985,38.5562733 C25.9734136,38.0169822 25.9672427,37.3721278 25.9960404,36.7272734 C26.0255238,36.0678848 25.8966196,35.4979957 25.3974583,35.1017506" id="Fill-47" fill="#00D494"></path>
                                <path d="M16.9997535,30.255565 C17.0097627,30.0456158 16.7125656,29.9310308 16.550878,30.0448765 C15.913367,30.4950844 15.3513103,30.9549027 14.8847261,31.5736614 C14.3973536,32.2219903 13.9161406,32.6914189 14.0123832,33.5341727 C14.0439508,33.8054802 14.2818625,34.0206042 14.57444,33.9984265 C16.2944877,33.8683171 16.9319987,31.635759 16.9997535,30.255565" id="Fill-49" fill="#00D494"></path>
                                <path d="M17.6955018,49.3355852 C17.4271255,48.8786806 16.9283677,48.8890648 16.677481,49.3622874 C16.4169449,49.8533114 16.3258778,50.5097408 16.2251613,51.079388 C16.0936871,51.8255665 15.8946664,52.5183406 16.067151,53.2763867 C16.2661716,54.148659 17.255244,54.2502758 17.6080534,53.4833289 C17.9059813,52.8358002 17.910806,52.0510519 17.9741308,51.3226748 C18.0302184,50.6655037 18.0187596,49.8874309 17.6955018,49.3355852" id="Fill-51" fill="#00D494"></path>
                                <path d="M13.9797653,46.3981448 C13.9274618,45.9373521 13.3586617,45.8971626 13.0746249,46.1715595 C12.3038754,46.9185287 11.9421099,47.8574372 11.5273145,48.8205979 C11.0740179,49.8703738 10.8110477,50.6256581 11.1626432,51.71008 C11.2752409,52.0572336 11.8266064,52.0932655 12.0321881,51.8147111 C12.6525651,50.9741975 12.9162617,50.0948803 13.3179813,49.1337983 C13.7109836,48.1969687 14.0930894,47.4139675 13.9797653,46.3981448" id="Fill-53" fill="#00D494"></path>
                                <path d="M22.8328578,54.6038023 C22.7950569,53.8915565 21.7203246,53.7654516 21.523908,54.462903 C21.0725205,56.0592918 20.7382417,58.0452671 21.280055,59.6423603 C21.4364471,60.1038054 22.0108729,60.097465 22.277703,59.7452168 C23.3739299,58.3059307 22.9203188,56.2699362 22.8328578,54.6038023" id="Fill-55" fill="#00D494"></path>
                                <path d="M24.5945627,43.5272175 C24.4392046,42.8120082 23.5297764,42.8263274 23.4051215,43.5588706 C23.264501,44.3803439 23.1957258,45.1739323 23.1410742,46.0089712 C23.0845803,46.8688804 22.7947423,47.8704749 23.2595885,48.6293957 C23.4155606,48.8841278 23.6912752,49.0921339 23.9620772,48.957985 C25.55373,48.1757013 24.9273851,45.066161 24.5945627,43.5272175" id="Fill-57" fill="#00D494"></path>
                                <path d="M35.4308276,35.4063694 C35.2782451,34.8550648 34.5014611,34.8661649 34.3759272,35.4307896 C34.1484405,36.4475583 34.1151497,37.4221465 34.0610523,38.4633354 C34.0027935,39.5851849 33.8793403,40.6729941 34.3232169,41.717883 C34.4709445,42.0649459 34.9855639,42.0834461 35.204728,41.8192638 C36.5051476,40.2423104 35.9336565,37.240845 35.4308276,35.4063694" id="Fill-59" fill="#00D494"></path>
                                <path d="M14.9474897,58.1392192 C15.286,57.2110606 13.8952103,56.5349041 13.4231333,57.3978644 C12.6627218,58.7853406 9.7164807,62.3983461 11.642244,63.8114619 C13.4457477,65.1344724 14.5983789,59.0944826 14.9474897,58.1392192" id="Fill-61" fill="#00D494"></path>
                                <path d="M28.5935549,57.7700184 C28.724986,57.0332693 27.7692715,56.7192087 27.3060177,57.3052088 C26.4841682,58.3464119 26.2180609,59.170359 26.0606682,60.4568989 C25.9203129,61.6096859 25.9592554,62.9368689 26.885763,63.8147605 C27.1210407,64.0371893 27.5055982,64.0497517 27.7871202,63.9034364 C30.1561237,62.6701021 28.2657887,59.6240842 28.5935549,57.7700184" id="Fill-63" fill="#00D494"></path>
                                <path d="M17.876652,65.6387755 C17.7778679,65.1049399 17.6599644,64.4875747 17.2017337,64.1352432 C17.0041655,63.9838851 16.6708489,63.922337 16.4911256,64.1503162 C16.1750166,64.5528911 16.1010878,65.0132458 16.06731,65.5125391 C16.0271591,66.1116911 15.9060689,66.8081895 16.1393268,67.3784516 C16.4853898,68.223168 17.5904968,68.2030706 17.8983208,67.3413971 C18.0850546,66.8163541 17.9760734,66.1744953 17.876652,65.6387755" id="Fill-65" fill="#00D494"></path>
                                <path d="M52.8671249,34.1984578 C52.6715114,33.9083261 52.2183199,33.9260893 52.133878,34.3195105 C51.9303671,35.2655637 52.006304,36.1510906 52.0561186,37.1122753 C52.0992508,37.9721442 52.1369155,38.9978027 52.6186593,39.710961 C52.8804898,40.099777 53.3707385,40.1004349 53.6149517,39.6879347 C54.4782025,38.2287233 53.7407032,35.4879323 52.8671249,34.1984578" id="Fill-67" fill="#00D494"></path>
                                <path d="M40.9496477,46.132617 C40.8884478,45.1813491 40.8501138,44.1117174 40.3934685,43.2737302 C40.1890205,42.8990323 39.6469643,42.911377 39.4566394,43.2962411 C39.0342929,44.1531084 39.038328,45.2249186 39.0161347,46.1776388 C38.9919237,47.1405253 38.9071854,48.1215657 39.6180457,48.8252134 C39.8581376,49.065572 40.2213017,49.0568581 40.4533233,48.8063333 C41.1345924,48.0700084 41.0115201,47.0933249 40.9496477,46.132617" id="Fill-69" fill="#00D494"></path>
                                <path d="M33.7107475,65.7891191 C33.5740644,64.72139 32.2040247,64.7409628 32.1218865,65.8248901 C32.0666999,66.5605567 32.0307644,67.2921739 32.0083048,68.0298654 C31.9864868,68.7176125 31.9698025,69.3290932 32.4805995,69.8325862 C32.6827365,70.0337134 32.9548193,70.0445122 33.1935335,69.913577 C34.4994027,69.2001828 33.8634733,66.9810341 33.7107475,65.7891191" id="Fill-71" fill="#00D494"></path>
                                <path d="M55.9265879,57.150507 C55.8802919,56.2142828 55.8691574,55.202355 55.4325687,54.3946185 C55.0856417,53.7549579 54.3144326,53.9355352 54.1298346,54.6300636 C53.9118332,55.4516907 54.0337265,56.3476322 54.0360706,57.1984295 C54.0401728,58.2193862 53.9399624,59.2306195 54.1233883,60.234213 C54.3161906,61.2926742 55.7384738,61.2315557 55.9078351,60.1890686 C56.0719222,59.1882533 55.9769861,58.1624349 55.9265879,57.150507" id="Fill-73" fill="#00D494"></path>
                                <path d="M52.2606347,60.4302578 C51.9527126,59.7639021 50.878661,59.9049962 50.8272045,60.62304 C50.6997885,62.380431 49.7588702,64.1888115 50.0586246,65.9566798 C50.2611834,67.1503926 52.1160665,67.4353749 52.5718238,66.2004515 C53.2619938,64.3313027 53.0888387,62.2190807 52.2606347,60.4302578" id="Fill-75" fill="#00D494"></path>
                                <path d="M52.8025898,45.5169676 C52.6517201,44.6291798 52.2064111,43.4213517 51.1203114,43.0562737 C50.7204255,42.9218431 50.2418603,43.0228366 50.125869,43.4179397 C49.9036201,44.1774384 50.0334005,45.0740973 50.0820682,45.8479262 C50.1412805,46.7746101 49.9125425,47.7183538 50.5500887,48.5379027 C51.0473099,49.177301 52.1171871,49.1418168 52.5860188,48.5017361 C53.2357319,47.6139483 52.9672487,46.4941483 52.8025898,45.5169676" id="Fill-77" fill="#00D494"></path>
                                <path d="M62.3961252,39.1615119 C61.6366903,38.6513579 60.5995674,39.44412 61.1591509,40.2256043 C61.7671196,41.0760821 62.4220708,41.8880828 63.0314419,42.735907 C63.6814845,43.63813 64.1849694,44.3486306 65.1589815,44.9377291 C65.4654201,45.1228175 65.8805498,44.8647552 65.9408558,44.5642353 C66.3917483,42.3093413 64.1730485,40.356294 62.3961252,39.1615119" id="Fill-79" fill="#00D494"></path>
                                <path d="M56.3940459,43.0244431 C56.2387769,43.049209 56.1160765,43.1992195 56.0789634,43.3315401 C55.8222015,44.2252347 56.2705881,45.4635289 56.3077012,46.3876502 C56.3531458,47.5452784 56.0698745,48.8040929 56.9492273,49.7430738 C57.2930914,50.1096089 58.0118734,50.0692758 58.3428615,49.7154775 C59.5804691,48.3979324 59.1449585,42.577242 56.3940459,43.0244431" id="Fill-81" fill="#00D494"></path>
                                <path d="M62.9451553,56.8768416 C62.8566042,56.0390688 62.6108895,55.2695028 62.4595902,54.447576 C62.3469954,53.8419821 61.4861144,53.8509385 61.4046005,54.4744454 C61.2280847,55.8372041 61.1553672,57.1903174 61.0116915,58.5572099 C60.9454248,59.1855395 61.1577129,59.7994009 61.7288969,59.9695735 C62.2021469,60.109432 62.8648142,59.7566856 62.9316674,59.1262891 C63.0125949,58.3546562 63.0272557,57.6505413 62.9451553,56.8768416" id="Fill-83" fill="#00D494"></path>
                                <path d="M66.6023437,51.9322301 C66.2782207,50.9048314 66.0713495,49.9224031 65.2378902,49.1461463 C64.9877031,48.9116088 64.4955439,48.9634977 64.3372165,49.2720632 C63.8323612,50.252416 63.9914354,51.1871066 64.1915852,52.2311097 C64.3812793,53.2114625 64.5605179,54.4602534 65.6531262,54.9182588 C66.056413,55.0877622 66.4701553,54.9929787 66.7106337,54.6401347 C67.2812098,53.7967684 66.8786699,52.8088052 66.6023437,51.9322301" id="Fill-85" fill="#00D494"></path>
                                <path d="M35.9755637,73.0055842 C35.8890736,72.5522551 35.5101297,72.1738459 35.1693001,71.8436903 C34.9882573,71.6684538 34.7647024,71.4798842 34.5118288,71.3554409 C34.4392651,71.1859187 34.2904728,71.0424279 34.0713158,71.0163964 C33.8741477,70.9916348 33.7180257,70.9922697 33.5245225,71.0367137 C32.9242226,71.1770298 32.8648523,71.7871829 33.2159434,72.1465446 C33.6887071,72.6290798 33.9577059,73.222725 34.4751805,73.6804985 C34.7236563,73.9008139 35.0762133,74.0671616 35.4412308,73.9731942 C35.9667681,73.8354177 36.0525252,73.4112947 35.9755637,73.0055842" id="Fill-97" fill="#BF9C6A"></path>
                                <path d="M36.7946997,17.9097492 C36.7198371,17.8550716 36.6443179,17.800394 36.5648586,17.7525511 C36.5622318,17.7500658 36.5615751,17.7500658 36.5589484,17.7482018 C36.5523815,17.7419884 36.5418745,17.7326684 36.5215171,17.7165136 C36.4361476,17.646924 36.359315,17.5649076 36.2772289,17.4915899 C36.101893,17.3343918 35.943631,17.177815 35.734804,17.0572758 C35.3900424,16.8578268 34.8660048,17.2138525 35.0314903,17.5928677 C35.2823454,18.1700892 35.5180967,18.7181078 36.1774122,18.964157 C36.7848493,19.1909448 37.3010067,18.2819297 36.7946997,17.9097492" id="Fill-99" fill="#1B1464"></path>
                                <path d="M41.9944592,17.4850105 C41.9617793,17.0815753 41.6576053,16.8903114 41.3672574,17.0645396 C41.0655972,17.2449627 40.8808303,17.5895474 40.6866365,17.9155478 C40.496842,18.2361278 40.2002095,18.4668834 40.0694901,18.8362473 C39.8287904,19.5161246 40.246087,20.1007572 40.8186129,19.9853793 C41.2755024,19.8916833 41.5331705,19.3279581 41.7141666,18.857929 C41.8763089,18.4351352 42.0315382,17.9581369 41.9944592,17.4850105" id="Fill-101" fill="#1B1464"></path>
                                <path d="M43.9987593,8.12127249 C44.0618982,11.0074959 41.7063317,13.9402603 38.945566,13.9991209 C36.1848004,14.0572971 34.0644435,11.2182991 34.0013047,8.33276005 C33.9388596,5.44585218 36.1258245,3.05925955 38.8865901,3.00108336 C41.6473558,2.94290717 43.9356204,5.23504905 43.9987593,8.12127249" id="Fill-103" fill="#F9F9F9"></path>
                                <path d="M40.9995119,7.95705672 C41.0236712,9.06149986 40.1478989,9.97605393 39.0432849,9.99953844 C37.938671,10.023023 37.0239755,9.14738608 37.0004873,8.04294294 C36.9763281,6.93917078 37.8534426,6.02461671 38.9573854,6.00046121 C40.0626705,5.9769767 40.9760238,6.85328456 40.9995119,7.95705672" id="Fill-105" fill="#1E2D6A"></path>
                                <path d="M60.2686833,10.3968729 C59.8695524,9.97264359 59.8947295,9.44489996 60.4819481,9.16487272 C60.6441181,9.08828407 60.8033262,9.08289893 60.9862303,9.08110389 C60.6389346,9.08469398 61.0676856,9.0775138 61.1824635,9.07452205 C61.2305962,9.072727 61.4172028,9.06913691 61.3031654,9.0775138 C61.4534875,9.06794021 61.603069,9.05716994 61.7541315,9.05417819 C61.7674606,9.05298149 61.7852326,9.0517848 61.8096692,9.0505881 C61.8970485,9.04460461 61.9851683,9.03622773 62.0725476,9.0272525 C62.3398691,9.00092515 62.599045,8.98835982 62.8700689,9.01408882 C63.4032308,9.06614517 63.8608614,9.36472122 63.9734178,9.80450758 C64.1148538,10.3555868 63.6749952,10.7840046 63.0551946,10.9228215 C62.5057416,11.0466797 61.734138,11.0179589 61.180242,10.8617899 C60.8499779,10.7684475 60.4871316,10.6290322 60.2686833,10.3968729" id="Fill-107" fill="#9CBA2B"></path>
                                <path d="M59.7930601,8.95132886 C59.1449145,8.76805602 58.7995359,8.24765923 59.1232349,7.64941746 C59.2129437,7.4845332 59.3490019,7.3901385 59.5104776,7.28532359 C59.2054679,7.48392025 59.5800019,7.23628738 59.679429,7.16824964 C59.719798,7.14005382 59.8820212,7.03217416 59.7878271,7.10327666 C59.9134193,7.01010786 60.0382639,6.91632611 60.1698367,6.82867388 C60.1817979,6.81947959 60.1960018,6.80844644 60.2161863,6.79312263 C60.2894484,6.73856984 60.3612154,6.6809523 60.4322348,6.62333475 C60.6497784,6.44803029 60.8703124,6.28988851 61.1274774,6.16362027 C61.6358268,5.9135356 62.2480889,5.94295732 62.6540209,6.30153461 C63.1638655,6.7508289 63.0734092,7.40975298 62.6226228,7.8909208 C62.223419,8.31753583 61.5207006,8.72392343 60.92339,8.88512997 C60.5660503,8.98136354 60.1481571,9.05124014 59.7930601,8.95132886" id="Fill-109" fill="#9CBA2B"></path>
                                <path d="M49.0764666,8.69379793 C48.5466569,12.1979861 50.8263165,15.4403871 54.1684101,15.9347192 C57.5105037,16.4290513 61.4049222,14.0653083 61.9340284,10.5604239 C62.4631346,7.05623573 59.7359862,3.55483255 56.393189,3.05980418 C53.051799,2.5661683 49.60698,5.18891353 49.0764666,8.69379793" id="Fill-111" fill="#9CBA2B"></path>
                                <path d="M59.9986149,9.17015266 C60.0586722,12.0839238 58.1595251,14.9403453 55.5043225,14.9990768 C52.8484527,15.0578083 50.0611239,12.3050304 50.0010665,9.39195027 C49.9410092,6.47817917 52.4267165,4.05982515 55.0819191,4.0010937 C57.7371217,3.94236224 59.9378902,6.25638155 59.9986149,9.17015266" id="Fill-113" fill="#F9F9F9"></path>
                                <path d="M56.9995388,8.95704431 C57.0230233,10.0614803 56.1467154,10.9760284 55.0422723,10.9995127 C53.9385001,11.0236681 53.0239461,10.1466949 53.0004616,9.04292998 C52.976977,7.93849403 53.8526139,7.02461689 54.9563861,7.00046155 C56.0615002,6.97697719 56.9753833,7.85260837 56.9995388,8.95704431" id="Fill-115" fill="#1E2D6A"></path>
                                <path d="M16.7228581,11.4175857 C17.1276245,10.9976141 17.1106051,10.470708 16.5282446,10.1851512 C16.36767,10.1068919 16.2085753,10.1003206 16.0250615,10.0967362 C16.3728498,10.103905 15.9444042,10.0925544 15.8289681,10.0877752 C15.7816097,10.085983 15.5951359,10.0806064 15.7083521,10.0895674 C15.5588771,10.0788142 15.4101421,10.0668662 15.2584472,10.062087 C15.2443877,10.0608922 15.2273682,10.0596974 15.2029491,10.0579052 C15.115632,10.0513338 15.0275749,10.0417754 14.9409978,10.0322171 C14.6738668,10.0035419 14.4148755,9.98800951 14.1447845,10.0113081 C13.6105225,10.0585026 13.1487779,10.3518256 13.0296419,10.7891218 C12.8801669,11.3381316 13.3137924,11.7706486 13.9301917,11.9152192 C14.4770334,12.0442574 15.2495675,12.0227511 15.8045489,11.8728039 C16.1367978,11.7825966 16.5016055,11.646987 16.7228581,11.4175857" id="Fill-117" fill="#9CBA2B"></path>
                                <path d="M17.1907712,8.9552914 C17.844574,8.77912398 18.1988736,8.26525154 17.8828564,7.66725763 C17.7957828,7.50267215 17.6599179,7.40696874 17.5000327,7.30151212 C17.8025385,7.50206257 17.4309743,7.25213647 17.3318905,7.1832544 C17.2913563,7.15521391 17.1292192,7.04549026 17.2230485,7.11802979 C17.0984431,7.0241551 16.9753391,6.92906127 16.8447286,6.84067277 C16.8327185,6.83152914 16.8184564,6.82055677 16.7981893,6.80531737 C16.7253777,6.74984597 16.6540674,6.69193627 16.5835077,6.63402656 C16.367325,6.45724956 16.1481396,6.29815027 15.8921732,6.16952976 C15.3862454,5.91594621 14.770725,5.93911009 14.3578759,6.29144493 C13.839938,6.73338742 13.9210065,7.38990061 14.3653823,7.87268469 C14.7602161,8.30121651 15.4598076,8.71207064 16.0573128,8.87848484 C16.4146149,8.97784571 16.8327185,9.05099481 17.1907712,8.9552914" id="Fill-119" fill="#9CBA2B"></path>
                                <path d="M27.9355942,9.76951665 C28.4217986,13.2783495 26.1026532,16.492112 22.7548093,16.9451565 C19.4069654,17.3988968 15.5412541,14.9896189 15.0557535,11.4800901 C14.5688455,7.97195311 17.3397176,4.50487548 20.6882651,4.05043917 C24.036109,3.59669878 27.4486863,6.26068376 27.9355942,9.76951665" id="Fill-121" fill="#9CBA2B"></path>
                                <path d="M68.945062,46.7411539 C69.204034,46.585318 69.4637003,46.4689797 69.7316981,46.3339699 C69.7323924,46.3512052 69.7344753,46.3684405 69.7372525,46.3856758 C69.7490555,46.3382787 69.7594699,46.2894453 69.7671071,46.2384575 C69.7726615,46.2025507 69.776133,46.1637712 69.7802987,46.1257099 C69.7365582,46.0912393 69.6886518,46.0524599 69.6407455,46.0086535 C68.7062245,45.1411432 68.0827477,44.6011037 67.4183075,43.5878115 C66.9607671,42.8876273 66.5073926,42.1881613 66.018609,41.5044942 C64.8285875,39.8434419 64.1349869,37.2567101 62.5297771,35.9848883 C61.0509289,34.8136058 60.2108321,33.1776883 62.0583508,33.0225705 C65.7242279,32.7123351 68.860358,35.6538269 71.2626184,38.5486397 C72.2096366,39.6911967 73.1920639,40.9960528 73.7204223,42.3310706 C74.0168862,41.9820557 74.3827797,41.7407615 74.9319669,41.7730777 C75.2985546,41.7946218 75.4978173,41.8779258 75.8491305,42.0330435 C76.3413856,42.2513574 76.6545126,42.7116836 76.8593296,43.1806275 C77.0523436,43.6194096 77.0565093,44.0682456 76.8107289,44.3935619 C76.5600885,44.7282141 76.1567031,44.8014641 75.7033286,44.7167239 C75.5568323,44.6894347 75.454771,44.6642998 75.3728442,44.639165 C75.2950832,44.6635817 74.5140014,44.1357505 74.0953416,44.4847654 C74.070347,44.7993097 74.0071661,45.1116996 73.8933018,45.4197806 C73.8801102,45.4571238 73.8620585,45.4973395 73.8447011,45.5354008 C73.8460897,45.5375552 73.8474783,45.5375552 73.8488669,45.5389915 C74.395277,45.859999 74.8507344,46.1644894 75.2013534,46.7131465 C75.3374352,46.9249971 75.4145019,47.1691639 75.4880971,47.3975317 C75.6644481,47.9447526 75.5269777,48.3835347 75.2013534,48.7253682 C74.6403631,49.3092141 73.6614073,48.9005938 73.255939,48.0783262 C73.1198572,47.7680907 73.0573707,47.4664729 73.0726452,47.1741909 C73.0684794,47.2912473 73.0594536,47.0083011 72.9809982,46.9465413 C72.8935171,46.8754456 72.8775483,46.7504897 72.6664827,46.7433083 C72.3665473,46.9020167 72.0367572,46.98173 71.7104386,46.9307422 C71.7146043,46.9896295 71.7194644,47.0492349 71.720853,47.1081222 C71.7409876,47.4693455 71.70905,47.7594731 71.5812997,48.0639634 C71.2716442,48.8022089 70.4308531,48.964508 69.6199166,48.750503 C68.7013645,48.5099269 68.2139694,47.1835267 68.945062,46.7411539" id="Fill-123" fill="#9CBA2B"></path>
                                <g id="Group-127" stroke-width="1" fill="none" transform="translate(0.000000, 34.000000)">
                                    <mask id="mask-4" fill="white">
                                        <use xlink:href="#path-3"></use>
                                    </mask>
                                    <g id="Clip-126"></g>
                                    <path d="M8.18643478,14.03945 C7.92069565,13.897075 7.65565217,13.7936583 7.38226087,13.6725333 C7.38226087,13.688825 7.38086957,13.7072417 7.37878261,13.7242417 C7.36486957,13.6782 7.35234783,13.6300333 7.3426087,13.58045 C7.33495652,13.5450333 7.33078261,13.5067833 7.32452174,13.4692417 C7.36695652,13.433825 7.41286957,13.39345 7.45947826,13.3481167 C8.35895652,12.452075 8.96069565,11.8924917 9.58330435,10.8654083 C10.0125217,10.1556583 10.4375652,9.44590833 10.8987826,8.75103333 C12.0201739,7.06165833 12.6073043,4.483325 14.1613913,3.15945 C15.5930435,1.94040833 16.3666087,0.292116667 14.509913,0.219158333 C10.8278261,0.07395 7.81078261,3.10915833 5.52626087,6.06786667 C4.6253913,7.23449167 3.696,8.56403333 3.22295652,9.902075 C2.912,9.57128333 2.53565217,9.349575 1.98678261,9.40553333 C1.62086957,9.44236667 1.42469565,9.53374167 1.07895652,9.70161667 C0.595478261,9.9382 0.301217391,10.4057 0.115478261,10.8767417 C-0.0584347826,11.3180333 -0.0445217391,11.7600333 0.215652174,12.0702833 C0.48,12.3890333 0.886956522,12.443575 1.33634783,12.3401583 C1.48243478,12.3061583 1.58330435,12.2771167 1.66469565,12.2494917 C1.74330435,12.2700333 2.50295652,11.7154083 2.93773913,12.0412417 C2.97530435,12.350075 3.05113043,12.6553667 3.17773913,12.953575 C3.19304348,12.9904083 3.21252174,13.0286583 3.232,13.0654917 C3.2306087,13.0676167 3.22921739,13.0676167 3.22713043,13.0697417 C2.69426087,13.4090333 2.25113043,13.7292 1.92278261,14.2852417 C1.79478261,14.500575 1.72730435,14.7442417 1.664,14.972325 C1.51026087,15.5191583 1.6653913,15.945575 2.00626087,16.2678667 C2.59130435,16.81895 3.55408696,16.3734083 3.92626087,15.5453667 C4.05008696,15.2337 4.09947826,14.934075 4.07234783,14.6464917 C4.0813913,14.76195 4.0786087,14.4821583 4.15443478,14.4184083 C4.23930435,14.3447417 4.24973913,14.220075 4.46121739,14.2044917 C4.768,14.347575 5.10121739,14.4120333 5.42608696,14.3468667 C5.424,14.40495 5.42191304,14.46445 5.42330435,14.5225333 C5.41773913,14.8795333 5.46156522,15.163575 5.60208696,15.4582417 C5.94295652,16.1722417 6.79095652,16.2954917 7.59443478,16.0489917 C8.50365217,15.7720333 8.93634783,14.4432 8.18643478,14.03945" id="Fill-125" fill="#9CBA2B" mask="url(#mask-4)"></path>
                                </g>
                                <path d="M27.9397768,9.72964663 C28.3571708,12.7352066 26.5605038,15.5166646 23.9277112,15.9403686 C21.2949185,16.3640725 18.4688136,14.4934339 18.0520885,11.487874 C17.6346946,8.48231402 19.7838721,5.47891582 22.4173337,5.05449127 C25.0494574,4.6307873 27.5217139,6.72408667 27.9397768,9.72964663" id="Fill-128" fill="#F9F9F9"></path>
                                <path d="M24.9995388,10.956742 C25.0230232,12.0616635 24.146721,12.9760581 23.0422851,12.9995385 C21.9385201,13.0230189 21.023972,12.1475347 21.0004876,11.0426132 C20.9763323,9.93836261 21.8526344,9.02396796 22.9563994,9.00048754 C24.0615063,8.97633625 24.9753834,9.85249136 24.9995388,10.956742" id="Fill-130" fill="#1E2D6A"></path>
                            </g>
                        </g>
                    </g>
                    <path d="M90.2085803,73.0745061 C89.3578789,71.3322923 87.4337551,69.7338479 85.8414165,68.7489707 C83.4351138,67.2716549 79.8853581,69.8096948 80.9151546,72.5741432 C81.3755207,73.8114659 81.9805405,74.7680421 82.753175,75.8015971 C82.7876163,75.8491429 82.8209096,75.8978208 82.856499,75.9442345 C82.8404264,75.93065 82.8909404,76.008761 83.0068929,76.1808315 C83.314569,76.6596856 83.6096167,77.1294833 83.999952,77.5573955 C85.1709581,78.8298115 87.1697048,79.1026339 88.6736439,78.2898271 C90.5931755,77.2483478 91.1281645,74.9593573 90.2085803,73.0745061" id="Fill-5" fill="#E59900"></path>
                    <path d="M52.7812537,74.1844801 C52.4038206,71.8220036 49.641645,70.7284951 47.8394869,72.5385573 C46.1903422,74.193536 45.1226485,76.5209206 44.4777253,78.7260496 C44.0175516,80.3063165 45.2405255,82.0869468 46.6618502,82.7129409 C48.460608,83.5019423 50.9586938,82.7355808 51.6965586,80.8406188 C52.4922284,78.7996293 53.1258173,76.3398012 52.7812537,74.1844801" id="Fill-7" fill="#E59900"></path>
                    <path d="M55.2379182,72.7751603 C48.6589847,75.8170951 41.325576,76.4574432 34.5671138,75.4828536 C33.4660798,75.2138849 32.4070874,74.8042422 31.4128617,74.2460477 C30.418636,73.6923548 29.4880408,72.9889848 28.6517549,72.137063 C26.8837376,70.3308087 27.0234973,67.116689 28.6972052,65.3712059 C29.4755419,64.5597982 30.6833841,64.0691272 31.8775912,64.0443686 C33.7171928,64.5327888 35.2386422,65.5760272 36.849856,66.5528675 C41.1460472,68.5121751 45.4865526,69.8390124 50.2202032,70.4208401 C52.6097536,71.1613481 54.60275,72.0245238 55.2379182,72.7751603" id="Fill-33" fill="#FFB000"></path>
                    <path d="M29.4515964,69.7593888 C30.5950114,67.9668763 32.0332215,66.3121596 32.5762082,64.1926742 C32.432062,64.1412927 32.2879159,64.0887435 32.1405183,64.0443686 C31.0014385,64.0700593 29.8504368,64.5792029 29.1069461,65.4211583 C27.7207587,66.9952996 27.4389692,69.7185172 28.4967635,71.6348123 C28.7492903,70.992544 29.0657615,70.3666243 29.4515964,69.7593888" id="Fill-35" fill="#FFD41D"></path>
                    <path d="M36.7683532,66.5023439 C36.2031347,66.1566684 35.6469597,65.804215 35.0873933,65.4675768 C33.7071297,68.2928524 31.5423428,70.8255465 30.6877323,73.8180116 C30.909298,73.9592189 31.1319941,74.0992965 31.3592119,74.2246886 C32.3099095,74.7635357 33.3205202,75.1611754 34.3706962,75.4300341 C34.9980888,73.9117733 35.1043499,72.2240636 35.4819159,70.6233377 C35.7260903,69.6021265 36.2268739,68.7706979 36.7977446,67.9460473 C37.0893974,67.5246847 37.2329629,67.1259153 37.2973978,66.7350535 C37.1210496,66.6548478 36.943571,66.5836793 36.7683532,66.5023439" id="Fill-37" fill="#FFD41D"></path>
                    <path d="M40.2042848,67.8395904 C39.9005275,68.93513 39.493163,70.0090993 39.0846212,71.0762569 C39.0457685,71.3101234 39.0092705,71.5417193 38.9869008,71.7812621 C38.8550371,73.1413205 38.7820412,74.5025142 38.7137546,75.8648431 C39.9440896,75.9170657 41.1803113,75.9193362 42.4224198,75.8614373 C42.5448646,75.2359012 42.6084417,74.6092299 42.5625249,73.9893703 C42.4400801,72.2149368 43.1099945,70.5563014 43.4349442,68.8931248 C42.3458918,68.5809244 41.2733223,68.2301247 40.2042848,67.8395904" id="Fill-39" fill="#FFD41D"></path>
                    <path d="M64.3472109,78.8890566 C63.3922581,76.6534812 61.9459326,74.565344 60.9554053,72.2794796 C60.3195113,70.8119546 58.6408399,68.4175116 57.3145783,68.8369677 C55.5736515,69.3844322 54.3618954,73.2383997 54.891066,75.1459536 C55.7604176,78.2775879 57.1778389,84.026537 60.7475169,84.4231345 C63.4689656,84.7271545 65.5089405,81.6000919 64.3472109,78.8890566" id="Fill-41" fill="#E59900"></path>
                    <path d="M80.2275127,71.4474304 C80.0928936,70.8356394 80.0883686,70.3534845 79.8462806,69.7291848 C78.2828899,65.6786283 73.7816369,67.2615521 73.7352556,71.2472906 C73.203567,72.8552319 72.728441,74.4927393 72.369834,76.1836932 C71.7849766,78.9356153 73.1492669,81.943398 75.3518151,82.7883064 C76.4185861,83.1988204 77.570201,83.0612243 78.5249779,82.4050841 C79.9209433,81.4487343 80.4096443,79.8601247 80.6019572,77.954248 C80.6596511,77.3640631 80.6981136,76.7704666 80.7218699,76.1711844 C80.7829576,74.5382256 80.5714134,73.0326285 80.2275127,71.4474304" id="Fill-43" fill="#E59900"></path>
                    <path d="M48.5265472,70.7211412 C48.1187,69.2493812 47.7840561,67.7522858 47.4482502,66.2540387 C47.1449791,64.8951367 45.9098177,64.2214438 45.0278915,64.6440854 C44.0100163,65.1312172 43.7323083,66.5315772 44.0065304,67.8973889 C44.2714568,69.2217425 44.5061724,70.5553091 44.7583173,71.8808143 C45.0325394,73.329542 46.1619626,74.2577412 47.1775139,73.946806 C48.1279956,73.6554482 48.9158032,72.1261076 48.5265472,70.7211412" id="Fill-53" fill="#FFD41D"></path>
                    <path d="M65.6968311,69.8570687 C65.8734911,70.3670256 66.0868164,70.8658481 66.2590321,71.3802587 C66.6479064,72.5504873 67.6978669,73.3187629 68.8456015,72.9758225 C70.1555522,72.5838906 70.7499742,70.8992513 70.0477784,69.6232457 C69.4855774,68.6066723 68.9111546,67.6123677 68.2522905,66.6659411 C67.7767528,65.9822872 66.8712313,65.7618254 66.1668134,66.0947449 C65.2490702,66.5289877 64.9524147,67.6246155 65.2835133,68.6088991 C65.4101752,69.0297806 65.5501699,69.4428679 65.6968311,69.8570687" id="Fill-57" fill="#FFD41D"></path>
                    <path d="M60.4570859,82.0800216 C60.0451567,81.9910729 59.8097686,82.6347807 60.0651425,82.967168 C60.2072636,83.1509174 60.3482744,83.3299852 60.4748511,83.5266087 C60.5925451,83.7080172 60.6547231,83.9268779 60.7724171,84.1071161 C60.9334137,84.3470435 61.155478,84.5050445 61.4297273,84.4207773 C61.7494998,84.3248063 61.8971726,83.9666707 61.8327739,83.6097055 C61.6928735,82.8513006 61.1143961,82.2251485 60.4570859,82.0800216" id="Fill-67" fill="#C17B00"></path>
                    <path d="M62.6656652,80.7533061 C62.2228209,80.4386739 61.6231619,80.886855 61.9330275,81.374648 C62.1337502,81.694939 62.3244367,82.0276794 62.5201413,82.3491022 C62.7359181,82.7101369 62.7735536,83.2092476 63.1950712,83.4061756 C63.4986642,83.5476469 63.8976005,83.5431198 64.0795054,83.2205653 C64.6114204,82.281196 63.36694,81.2467579 62.6656652,80.7533061" id="Fill-69" fill="#C17B00"></path>
                    <path d="M65.1051685,80.2734282 C65.0930474,80.2399283 65.0688053,80.2131284 65.0526439,80.1807453 C65.0304219,80.1293788 65.0041596,80.0802457 64.9677965,80.0322292 C64.8950701,79.933963 64.8172933,79.8468634 64.7364862,79.7631138 C64.4405302,79.4627318 64.1082111,79.2874159 63.7284178,79.2293495 C63.3264025,79.1645831 63.0718602,79.8859466 63.4476132,80.1483621 C63.7516498,80.3616445 63.9829601,80.61736 64.2243713,80.9233253 C64.6243663,81.4258231 65.1980966,80.8853588 65.1011281,80.3381946 C65.167794,80.4878272 65.1698142,80.4677273 65.1051685,80.2734282" id="Fill-71" fill="#C17B00"></path>
                    <path d="M73.5477538,77.8175795 C73.1503435,77.9400563 72.9173789,78.2957717 72.7002263,78.6589422 C72.4430165,79.0924037 72.2458926,79.4736794 72.2342971,80.0147076 C72.225864,80.4758595 72.7729619,80.8763056 73.1134487,80.4982249 C73.4307444,80.1425095 73.6247059,79.7569737 73.8429126,79.3245772 C74.0147372,78.981642 74.1802369,78.6088864 74.1032848,78.2031153 C74.059011,77.9411213 73.7838808,77.7440934 73.5477538,77.8175795" id="Fill-73" fill="#C17B00"></path>
                    <path d="M74.6272117,79.8746486 C74.0365725,80.534724 73.4313752,81.6046658 73.7287746,82.6340976 C73.8587568,83.0832825 74.3682871,83.147622 74.5908166,82.7913719 C74.8008679,82.4541853 74.8518209,82.0693399 75.0005206,81.6940262 C75.1346623,81.3532652 75.3124779,81.044674 75.4632573,80.7170192 C75.7689755,80.0533693 75.0805897,79.3694644 74.6272117,79.8746486" id="Fill-75" fill="#C17B00"></path>
                    <path d="M77.2650774,81.4079776 C76.8776616,80.8572935 76.0455272,81.1730332 76.0405444,81.7715567 C76.0355615,81.9884285 75.9857331,82.2956634 76.0280873,82.5614376 C76.1127956,83.1004277 76.8166218,83.1440147 77.1442436,82.8006344 C77.4481968,82.4817054 77.5366423,81.7938818 77.2650774,81.4079776" id="Fill-77" fill="#C17B00"></path>
                    <path d="M44.7066238,78.2828838 C44.1442311,78.2482965 43.7640047,78.3508657 43.3312069,78.6466464 C43.0341168,78.8482067 42.9742098,79.1547215 42.9632064,79.5053648 C42.9497579,79.8691275 43.2945291,80.1923395 43.6295195,80.1732569 C44.0989951,80.1529816 44.1381181,80.0205958 44.420537,79.8190356 C44.5953678,79.6926131 44.7970956,79.6186679 44.9927105,79.5339888 C45.6003391,79.2739879 45.2910231,78.3174711 44.7066238,78.2828838" id="Fill-79" fill="#C17B00"></path>
                    <path d="M45.9560041,80.2228397 C45.6214893,80.3994383 45.3482842,80.5102453 45.0471133,80.739939 C44.8556546,80.8853732 44.6803301,81.0781313 44.5383496,81.2858944 C44.0059224,82.063852 44.9298718,82.988398 45.5375917,82.3108593 C45.8893163,81.9138008 46.2819141,81.5744544 46.6185801,81.1589281 C46.9982706,80.6822271 46.4045337,79.9827578 45.9560041,80.2228397" id="Fill-81" fill="#C17B00"></path>
                    <path d="M47.5713705,80.7934684 C47.1774482,81.1213149 46.9343633,81.5050444 46.7797862,82.006749 C46.5092763,82.8685881 47.6835635,83.4187245 48.1098971,82.663684 C48.3118446,82.307275 48.4676683,81.9297548 48.5923272,81.5311231 C48.8017543,80.8580442 48.0475677,80.401046 47.5713705,80.7934684" id="Fill-83" fill="#C17B00"></path>
                    <path d="M89.994482,76.5463876 C89.881121,76.4112872 89.7687906,76.2574228 89.645124,76.1360825 C89.418402,75.9159188 89.2102299,75.6882495 88.9639274,75.5056137 C88.5104833,75.1678626 88.0869254,76.0435137 88.3868168,76.5263727 C88.5949888,76.8678767 88.8083136,77.2781818 89.0886245,77.524615 C89.2947354,77.7047489 89.5472213,77.8748755 89.7966155,77.7697973 C89.9810848,77.6922396 90.1222708,77.488338 90.163493,77.238152 C90.2026541,76.9892169 90.1377291,76.7227688 89.994482,76.5463876" id="Fill-85" fill="#C17B00"></path>
                    <path d="M90.719584,74.355552 C90.4384088,74.2125448 90.158372,74.0749546 89.8487378,74.0153683 C89.4981226,73.9481982 89.1884884,74.2883819 89.2351612,74.6415663 C89.2590668,74.8409096 89.3877016,75.015335 89.5641476,75.096589 C89.5869148,75.1063395 89.7349017,75.1247571 89.8703667,75.1225903 C89.7952348,75.1507584 89.720103,75.1789265 89.6415561,75.2070946 C89.7371784,75.2731812 89.8350775,75.3403512 89.9329765,75.4021043 C90.0866553,75.5061095 90.2426107,75.6133649 90.4053964,75.7065362 C90.6774647,75.8603773 90.96547,75.9968841 91.2659973,75.8235421 C91.5004997,75.6870353 91.6109207,75.4909421 91.5881535,75.2049278 C91.5483108,74.7369044 91.0519854,74.5299774 90.719584,74.355552" id="Fill-87" fill="#C17B00"></path>
                    <path d="M90.9504824,72.1093418 C90.6818008,71.8453955 90.406374,71.6694313 90.0387637,71.6404616 C89.6902645,71.6147107 89.3901056,71.6769419 89.0730838,71.8282283 C88.532348,72.083591 88.7279572,73.0267163 89.3586282,72.9108374 C89.7498466,72.8389496 90.123078,72.9623391 90.5086754,73.0460294 C91.0302999,73.1565435 91.3248379,72.4762916 90.9504824,72.1093418" id="Fill-89" fill="#C17B00"></path>
                    <path d="M115.369425,65.2870404 C100.415758,67.8531213 85.4779365,66.6531145 70.4382509,65.6828721 C56.0753964,64.7547152 41.5280545,64.5249508 27.1369044,64.0984082 C17.9329065,63.8265583 8.89075959,63.5808697 8.5093347,52.2018481 C8.21958759,43.4855904 12.2104012,33.3259123 17.9883659,27.4714717 C32.902419,12.3604859 53.9883118,-1.12167544 76.135856,6.34111548 C88.3505074,10.4563994 99.4820025,18.4037428 107.419489,28.3074953 C113.544924,35.9522778 119.706577,46.7489264 119.848055,57.0212118 C119.85145,57.2407391 119.840132,57.4511669 119.82655,57.6604571 C120.763701,60.9488169 119.707709,64.5420125 115.369425,65.2870404 M111.937733,25.0760079 C82.6981752,-9.96873957 31.2318459,-9.20664996 8.94395535,33.2189922 C5.86765602,39.8309727 3.3063369,46.6761298 2.44954566,53.0879195 C0.420184104,68.2648772 3.88130381,84.2835457 13.0705879,96.625985 C25.1562113,112.793659 48.9686695,122.877128 66.3795277,122.870311 C87.5321982,122.863479 105.415027,111.908725 116.024751,93.6708973 C116.874752,94.2054974 123.302384,76.0996133 123.850187,73.7132491 C125.653183,65.8512142 126.291532,57.7901261 124.588136,49.8609819 C122.520293,40.7329683 117.85378,32.2032519 111.937733,25.0760079 Z" id="Fill-91" fill="#AC3AE8"></path>
                    <path d="M124.582997,49.9393684 C122.504477,40.8104895 117.813871,32.2821648 111.86728,25.1539958 C99.691955,10.6383277 83.681551,2.28630207 67.5130112,0.47440273 C67.6973134,1.86545916 67.8645506,3.25196593 68.0192735,4.62709857 C70.6188452,4.95581101 73.2434457,5.53475436 75.8805605,6.41966189 C88.1582752,10.5359605 99.3472415,18.483067 107.325708,28.3865243 C113.482768,36.0299415 119.676234,46.8262683 119.818442,57.0993849 C119.821855,57.3177682 119.810479,57.5293271 119.795689,57.7374737 C120.738816,61.0268729 119.677372,64.618824 115.316689,65.3649671 C100.963868,67.8138179 86.6281115,66.8310928 72.2024793,65.8915895 C71.7280717,80.8064897 70.1239596,95.6417709 69.3150775,110.538473 C69.0943699,114.644534 68.8372569,118.773345 68.3935663,122.870307 C88.6349582,122.094591 105.702256,111.316463 115.975399,93.7468404 C116.829788,94.2825621 123.290606,76.1772177 123.841237,73.7909246 C125.653542,65.9291241 126.295187,57.8682763 124.582997,49.9393684" id="Fill-93" fill="#8A3CE5"></path>
                    <path d="M70.8101326,100.978664 C71.0554528,93.2968758 72.132525,85.6604682 72.2342007,77.9843526 C72.2458395,77.0948943 69.8825889,77.1141811 69.8931026,78.0104464 C70.103377,92.7806724 68.3359039,107.979744 67.0427163,122.689841 C66.9913159,123.265039 68.0403515,123.350128 68.4013226,123.34471 C68.7038841,123.341052 68.9655589,123.294536 69.2038698,123.196968 C69.7622652,123.073306 70.2482327,122.781737 70.2715965,122.335873 C70.3066423,121.726639 70.3229969,121.103792 70.3148196,120.492289 C70.3089786,120.008987 70.0648267,119.502994 70.1851504,119.025364 C70.2482327,118.772367 70.0823496,118.62715 69.8370294,118.548868 C71.7960859,113.345991 70.6512586,105.953504 70.8101326,100.978664" id="Fill-107" fill="#8A30C4"></path>
                    <path d="M79.1207144,81.6409085 C78.6001908,80.6829829 76.5088012,81.193646 76.1393223,82.0397559 C75.8767367,82.6403326 75.1865782,83.8852899 75.7617103,84.4512845 C76.4634877,85.1452329 78.3178532,85.0841378 78.8476719,84.1423506 C79.2380646,83.4472494 79.5238879,82.3809664 79.1207144,81.6409085" id="Fill-109" fill="#8A30C4"></path>
                    <path d="M78.3434941,91.7843271 C78.3209206,91.4273068 78.092929,91.1339588 78.0726129,90.7985417 C78.013922,89.8741546 76.0917948,89.9980884 75.7678661,90.6768819 C75.3829892,91.4830201 74.7170732,92.5529441 75.2904382,93.4341249 C75.8739612,94.3278127 77.8920255,93.917353 78.250943,92.996377 C78.415729,92.5756843 78.3739682,92.226623 78.3434941,91.7843271" id="Fill-111" fill="#8A30C4"></path>
                    <path d="M77.4825134,99.4810405 C77.0339604,98.9369474 75.7175548,99.1164067 75.3177576,99.6387818 C74.8811226,100.206879 74.7001846,100.842416 74.6070069,101.552252 C74.5289977,102.140924 74.8345338,102.713594 75.2440822,103.086229 C75.6384622,103.445148 76.6634166,103.605175 77.0317935,103.096516 C77.7219584,102.140924 78.3373645,100.523505 77.4825134,99.4810405" id="Fill-113" fill="#8A30C4"></path>
                    <path d="M76.2741874,109.595 C75.8939354,108.885305 74.3620002,109.052354 73.883407,109.496047 C73.2551169,110.082317 72.9579084,111.237834 73.3654775,112.00605 C73.6113301,112.467831 74.4734534,112.466767 74.9017833,112.40399 C75.4306397,112.327381 76.0294275,112.096491 76.2512412,111.584701 C76.513484,110.973959 76.5954349,110.196166 76.2741874,109.595" id="Fill-115" fill="#8A30C4"></path>
                    <path d="M75.5201733,117.639631 C75.7673904,116.300917 73.5112656,116.609944 73.0232805,117.254555 C72.7588657,117.605831 72.5729154,118.002979 72.4804777,118.449619 C72.4063126,118.799689 72.1515715,119.403257 72.2612069,119.749705 C72.6051611,120.832506 74.2615157,120.58625 74.8881574,119.980268 C75.2374859,119.641062 75.4567567,119.289786 75.4933018,118.764682 C75.5180236,118.409784 75.4567567,117.983665 75.5201733,117.639631" id="Fill-117" fill="#8A30C4"></path>
                    <path d="M125.469245,54.7933375 C125.408004,54.4736486 125.053031,54.2695918 124.775177,54.1970383 C124.548357,54.1358213 124.319269,54.0768715 124.090181,54.0156545 C123.553753,53.875082 122.179226,54.0303919 122.043134,54.7672636 C122.019318,54.8840295 122.01705,55.0053299 122.000038,55.124363 C113.874225,56.1514488 91.1446278,58.4924335 85.604558,58.5071709 C71.4328665,58.5479823 59.0428433,58.9277546 44.9029065,58.1670763 C38.4306079,57.8190461 31.5874592,56.0403512 25.1242334,55.2048521 C18.8923636,54.3976941 12.6355437,53.7515143 6.39573521,52.990836 C5.74816512,52.9126142 5.06203569,52.8763375 4.36002889,52.8706692 C4.2863125,52.5691186 4.17403678,52.2811719 3.95402172,52.0340364 C3.4527503,51.4694793 1.63932723,51.6406603 1.60417019,52.5611831 C1.55086757,53.875082 0.730914547,55.2490644 0.434914909,56.5266865 C-0.0527473304,58.6375406 0.0436510193,60.9241101 0.00849397411,63.0757755 C-0.0448086428,66.2307201 0.0935513414,70.7913891 2.18482848,73.3137576 C3.01725658,74.3159031 5.504334,73.2593425 5.55536842,72.4045713 C13.5689065,73.7422769 21.9124672,74.1254502 29.8602276,74.9428109 C44.4424627,76.4448956 59.0666594,77.4617785 73.7589019,77.3132705 C87.1049699,77.1817673 101.757519,76.4256235 114.781503,73.9089232 C116.15036,73.6436494 118.813222,73.0654885 121.778889,72.2061828 C121.732391,72.3456216 121.694966,72.4850604 121.645066,72.6244992 C121.18689,74.1458558 124.805797,73.5302845 125.267375,72.2639989 C127.28607,66.7238573 126.517152,60.4615814 125.469245,54.7933375" id="Fill-95" fill="#8E2CCE"></path>
                </g>
            </g>
        </g>
    </g>
</svg>