<?xml version="1.0" encoding="utf-8"?>
<!-- Generator: Adobe Illustrator 22.0.0, SVG Export Plug-In . SVG Version: 6.00 Build 0)  -->
<svg version="1.1" id="Layer_1" xmlns="http://www.w3.org/2000/svg" xmlns:xlink="http://www.w3.org/1999/xlink" x="0px" y="0px"
	 viewBox="0 0 475 454" style="enable-background:new 0 0 475 454;" xml:space="preserve">
<style type="text/css">
	.st0{fill:#EF652B;}
	.st1{fill:#15768B;}
	.st2{fill:#EA473C;}
	.st3{fill:#F59328;}
	.st4{fill:#FBB918;}
	.st5{fill:#2E388F;}
	.st6{fill:#40998C;}
	.st7{fill:#42A5C7;}
	.st8{fill:#6E6F71;}
</style>
<g>
	<path class="st0" d="M373.4,32.8c-16.9-2-34.7,13.1-53,38.7c-18.4,25.6-45.8,66.1-82.8,66.1h-0.2c-37,0-64.5-40.5-82.8-66.1
		c-18.4-25.6-36.1-40.8-53-38.7c-3.5,0.4-11.3,2.4-11.1,5.6C91,49.9,103,75.6,103,75.6c6.7,14,13.2,26.8,19.4,38.5
		c96.1,52.5,112,88.6,114.6,105.3c0.4,2.8,0.5,5.1,0.5,6.8v0c0-1.7,0.1-4,0.5-6.8c2.6-16.6,18.5-52.8,114.6-105.3
		c6.2-11.7,12.7-24.4,19.4-38.5c0,0,12-25.8,12.6-37.2C384.7,35.2,377,33.2,373.4,32.8z"/>
	<path class="st1" d="M372,378.4c-7.1-14.9-14-28.5-20.6-40.7c-92.1-50.5-109.8-85.8-113.1-103c-0.7-3.6-0.8-6.4-0.8-8.4v0
		c0,2-0.1,4.8-0.8,8.4c-3.3,17.2-21,52.5-113.1,103c-6.6,12.3-13.5,25.8-20.6,40.7c0,0-12,25.8-12.6,37.2c-0.2,3.2,7.6,5.2,11.1,5.6
		c16.9,2,34.7-13.1,53-38.7c18.4-25.6,45.8-66.1,82.8-66.1h0.2c37,0,64.5,40.5,82.8,66.1c18.4,25.6,36.1,40.8,53,38.7
		c3.5-0.4,11.3-2.4,11.1-5.6C384,404.1,372,378.4,372,378.4z"/>
	<path class="st2" d="M400.6,309.1c-25.6-18.4-66.1-45.8-66.1-82.8v-0.2c0-37,40.5-64.5,66.1-82.8c25.6-18.4,40.8-36.1,38.7-53
		c-0.4-3.5-2.4-11.3-5.6-11.1c-11.5,0.6-37.2,12.6-37.2,12.6c-16.3,7.8-30.8,15.2-43.9,22.4c-38.8,72.4-68.9,101.4-89.1,112.9
		c20,11.4,49.7,39.9,87.9,110.7c13.4,7.4,28.4,15,45.2,23c0,0,25.8,12,37.2,12.6c3.2,0.2,5.2-7.6,5.6-11.1
		C441.4,345.2,426.2,327.5,400.6,309.1z"/>
	<path class="st3" d="M263.5,227c-12,6.9-20.5,7.6-25.2,7.6c3.3,17.2,21,52.5,113.1,103C313.2,266.9,283.5,238.4,263.5,227z"/>
	<path class="st4" d="M238,219.4c-0.4,2.8-0.5,5.1-0.5,6.8v0v0.1c0,2,0.1,4.8,0.8,8.4c4.7-0.1,13.2-0.8,25.2-7.6
		c20.2-11.5,50.3-40.5,89.1-112.9C256.5,166.5,240.6,202.7,238,219.4z"/>
	<path class="st5" d="M211.5,227c-20.2-11.5-50.3-40.5-89.1-112.9c-13.1-7.2-27.7-14.6-43.9-22.4c0,0-25.8-12-37.2-12.6
		c-3.2-0.2-5.2,7.6-5.6,11.1c-2,16.9,13.1,34.7,38.7,53c25.6,18.4,66.1,45.8,66.1,82.8v0.2c0,37-40.5,64.5-66.1,82.8
		c-25.6,18.4-40.8,36.1-38.7,53c0.4,3.5,2.4,11.3,5.6,11.1c11.4-0.6,37.2-12.6,37.2-12.6c16.8-8,31.7-15.7,45.2-23
		C161.8,266.9,191.5,238.4,211.5,227z"/>
	<path class="st6" d="M236.7,234.6c-4.7-0.1-13.2-0.8-25.2-7.6c-20,11.4-49.7,39.9-87.9,110.7C215.7,287.2,233.4,251.8,236.7,234.6z
		"/>
	<path class="st7" d="M237,219.4c-2.6-16.6-18.5-52.8-114.6-105.3c38.8,72.4,68.9,101.4,89.1,112.9c12,6.9,20.5,7.6,25.2,7.6
		c0.7-3.6,0.8-6.4,0.8-8.4v0v-0.1C237.5,224.5,237.4,222.2,237,219.4z"/>
</g>
<g>
	<path class="st8" d="M439.5,48.5c0,9-7.1,16.1-16.3,16.1c-9.1,0-16.4-7.1-16.4-16.1c0-8.8,7.3-15.9,16.4-15.9
		C432.4,32.6,439.5,39.7,439.5,48.5z M410.9,48.5c0,7.1,5.2,12.7,12.4,12.7c7,0,12.1-5.6,12.1-12.6c0-7.1-5.2-12.8-12.2-12.8
		C416.1,35.8,410.9,41.6,410.9,48.5z M420.7,56.9H417V41c1.5-0.3,3.5-0.5,6.1-0.5c3,0,4.4,0.5,5.5,1.2c0.9,0.7,1.6,1.9,1.6,3.5
		c0,1.7-1.4,3.1-3.3,3.7V49c1.6,0.6,2.4,1.7,2.9,3.9c0.5,2.4,0.8,3.4,1.2,4h-4c-0.5-0.6-0.8-2-1.3-3.9c-0.3-1.7-1.3-2.5-3.3-2.5
		h-1.7V56.9z M420.8,47.9h1.7c2,0,3.7-0.7,3.7-2.3c0-1.5-1.1-2.4-3.4-2.4c-1,0-1.7,0.1-2,0.2V47.9z"/>
</g>
</svg>
