<svg version="1.2" xmlns="http://www.w3.org/2000/svg" xmlns:xlink="http://www.w3.org/1999/xlink" overflow="visible" preserveAspectRatio="none" viewBox="0 0 19 18" height="16" width="17"><g transform="translate(1, 1)"><g fill-rule="evenodd" fill="none" stroke-width="1" stroke="none" id="Standard-2_1589497707293"><g fill-rule="nonzero" fill="#8781BD" transform="translate(-124.000000, -208.000000)" id="Theme-2_1589497707293"><g transform="translate(110.000000, 194.500000)" id="Content-filters_1589497707293"><g transform="translate(0.000000, 1.000000)" id="BTN-Filters_1589497707293"><path id="_1589497707293" d="M22.125,28.21875 C22.625,28.5729167 23.1510417,28.6145833 23.703125,28.34375 C24.2552083,28.0729167 24.53125,27.6354167 24.53125,27.03125 L24.53125,27.03125 L24.53125,20.125 L29.59375,15.0625 C30.0729167,14.5833333 30.1822917,14.0364583 29.921875,13.421875 C29.6614583,12.8072917 29.1979167,12.5 28.53125,12.5 L28.53125,12.5 L15.53125,12.5 C14.8645833,12.5 14.4010417,12.8072917 14.140625,13.421875 C13.8802083,14.0364583 13.9895833,14.5833333 14.46875,15.0625 L14.46875,15.0625 L19.53125,20.125 L19.53125,25.5 C19.53125,25.9791667 19.7291667,26.3958333 20.125,26.75 L20.125,26.75 L22.125,28.21875 Z M23.03125,27 L21.03125,25.5 L21.03125,19.5 L15.53125,14 L28.53125,14 L23.03125,19.5 L23.03125,27 Z" vector-effect="non-scaling-stroke" style="fill: rgb(46, 49, 146);"/></g></g></g></g></g></svg>