<svg version="1.2" xmlns="http://www.w3.org/2000/svg" xmlns:xlink="http://www.w3.org/1999/xlink" overflow="visible" preserveAspectRatio="none" viewBox="0 0 22 23" height="21" width="20"><g transform="translate(1, 1)"><desc>Created with Sketch.</desc><g fill-rule="evenodd" fill="none" stroke-width="1" stroke="none" id="Alerts/Snackbar_1589297549002"><g fill-rule="nonzero" fill="#FFFFFF" transform="translate(-70.000000, -374.000000)" id="Desktop-HD_1589297549002"><g transform="translate(49.000000, 47.000000)" id="Alerts/Snackbar-v1_1589297549002"><g transform="translate(0.000000, 307.000000)" id="Snackbar-Warning_1589297549002"><path style="fill:#fdba16;" id="ïª_1589297549002" d="M31,40.1875 C33.6822917,40.1875 35.9674479,39.2434896 37.8554688,37.3554688 C39.7434896,35.4674479 40.6875,33.1822917 40.6875,30.5 C40.6875,27.8177083 39.7434896,25.5325521 37.8554688,23.6445312 C35.9674479,21.7565104 33.6822917,20.8125 31,20.8125 C28.3177083,20.8125 26.0260417,21.7630208 24.125,23.6640625 C22.25,25.5390625 21.3125,27.8177083 21.3125,30.5 C21.3125,33.1822917 22.2565104,35.4674479 24.1445312,37.3554688 C26.0325521,39.2434896 28.3177083,40.1875 31,40.1875 Z M31,38.3125 C28.8385417,38.3125 26.9895833,37.5572917 25.453125,36.046875 C23.9427083,34.5104167 23.1875,32.6614583 23.1875,30.5 C23.1875,28.3385417 23.9492188,26.4960938 25.4726562,24.9726562 C26.9960938,23.4492188 28.8385417,22.6875 31,22.6875 C33.1614583,22.6875 35.0039062,23.4492188 36.5273438,24.9726562 C38.0507812,26.4960938 38.8125,28.3385417 38.8125,30.5 C38.8125,32.6614583 38.0507812,34.5039062 36.5273438,36.0273438 C35.0039062,37.5507812 33.1614583,38.3125 31,38.3125 Z M31.8203125,31.75 C32.1067708,31.75 32.2630208,31.6067708 32.2890625,31.3203125 L32.2890625,31.3203125 L32.5234375,26.0078125 C32.5494792,25.8515625 32.5169271,25.7278646 32.4257812,25.6367188 C32.3346354,25.5455729 32.2109375,25.5 32.0546875,25.5 L32.0546875,25.5 L29.9453125,25.5 C29.7890625,25.5 29.6653646,25.5455729 29.5742188,25.6367188 C29.4830729,25.7278646 29.4505208,25.8515625 29.4765625,26.0078125 L29.4765625,26.0078125 L29.7109375,31.3203125 C29.7369792,31.6067708 29.8932292,31.75 30.1796875,31.75 L30.1796875,31.75 L31.8203125,31.75 Z M31,35.890625 C31.4427083,35.890625 31.8268229,35.7278646 32.1523438,35.4023438 C32.4778646,35.0768229 32.640625,34.6927083 32.640625,34.25 C32.640625,33.8072917 32.4713542,33.4296875 32.1328125,33.1171875 C31.8203125,32.7786458 31.4427083,32.609375 31,32.609375 C30.5572917,32.609375 30.1731771,32.7721354 29.8476562,33.0976562 C29.5221354,33.4231771 29.359375,33.8072917 29.359375,34.25 C29.359375,34.6927083 29.5221354,35.0768229 29.8476562,35.4023438 C30.1731771,35.7278646 30.5572917,35.890625 31,35.890625 Z" vector-effect="non-scaling-stroke"/></g></g></g></g></g></svg>