<svg version="1.2" xmlns="http://www.w3.org/2000/svg" xmlns:xlink="http://www.w3.org/1999/xlink" overflow="visible" preserveAspectRatio="none" viewBox="0 0 11.625 11.625" width="11.625" height="11.625"><g transform="translate(0, 0)"><defs><path id="path-15974849983951006" d="M6 12.3125 C7.484375 12.3125 8.78125 11.8125 9.890625 10.8125 C10.046875 10.6875 10.0546875 10.5546875 9.9140625 10.4140625 C9.9140625 10.4140625 9.9140625 10.4140625 9.9140625 10.4140625 C9.9140625 10.4140625 9.4453125 9.9453125 9.4453125 9.9453125 C9.3203125 9.8203125 9.1875 9.8125 9.046875 9.921875 C8.1875 10.703125 7.171875 11.09375 6 11.09375 C4.734375 11.09375 3.652343799999997 10.644531200000003 2.753906200000003 9.746093799999997 C1.855468799999997 8.847656200000003 1.40625 7.765625 1.40625 6.5 C1.40625 5.234375 1.855468799999997 4.152343799999997 2.753906200000003 3.253906200000003 C3.652343799999997 2.355468799999997 4.734375 1.90625 6 1.90625 C7.265625 1.90625 8.3515625 2.3515625 9.2578125 3.2421875 C9.2578125 3.2421875 9.2578125 3.2421875 9.2578125 3.2421875 C9.2578125 3.2421875 7.96875 4.53125 7.96875 4.53125 C7.890625 4.609375 7.875 4.707031200000003 7.921875 4.824218799999997 C7.96875 4.941406200000003 8.0546875 5 8.1796875 5 C8.1796875 5 8.1796875 5 8.1796875 5 C8.1796875 5 11.53125 5 11.53125 5 C11.71875 5 11.8125 4.90625 11.8125 4.71875 C11.8125 4.71875 11.8125 4.71875 11.8125 4.71875 C11.8125 4.71875 11.8125 1.3671875 11.8125 1.3671875 C11.8125 1.2421875 11.753906200000017 1.15625 11.636718799999983 1.109375 C11.519531200000017 1.0625 11.421875 1.078125 11.34375 1.15625 C11.34375 1.15625 11.34375 1.15625 11.34375 1.15625 C11.34375 1.15625 10.1015625 2.3984375 10.1015625 2.3984375 C8.9765625 1.2578125 7.609375 0.6875 6 0.6875 C4.40625 0.6875 3.0390625 1.2578125 1.8984375 2.3984375 C0.7578125 3.5390625 0.1875 4.910156200000003 0.1875 6.511718799999997 C0.1875 8.113281200000003 0.753906200000003 9.480468799999997 1.886718799999997 10.613281200000003 C3.019531200000003 11.746093799999997 4.390625 12.3125 6 12.3125 Z" vector-effect="non-scaling-stroke"/></defs><g transform="translate(-0.1875, -0.6875)"><path d="M6 12.3125 C7.484375 12.3125 8.78125 11.8125 9.890625 10.8125 C10.046875 10.6875 10.0546875 10.5546875 9.9140625 10.4140625 C9.9140625 10.4140625 9.9140625 10.4140625 9.9140625 10.4140625 C9.9140625 10.4140625 9.4453125 9.9453125 9.4453125 9.9453125 C9.3203125 9.8203125 9.1875 9.8125 9.046875 9.921875 C8.1875 10.703125 7.171875 11.09375 6 11.09375 C4.734375 11.09375 3.652343799999997 10.644531200000003 2.753906200000003 9.746093799999997 C1.855468799999997 8.847656200000003 1.40625 7.765625 1.40625 6.5 C1.40625 5.234375 1.855468799999997 4.152343799999997 2.753906200000003 3.253906200000003 C3.652343799999997 2.355468799999997 4.734375 1.90625 6 1.90625 C7.265625 1.90625 8.3515625 2.3515625 9.2578125 3.2421875 C9.2578125 3.2421875 9.2578125 3.2421875 9.2578125 3.2421875 C9.2578125 3.2421875 7.96875 4.53125 7.96875 4.53125 C7.890625 4.609375 7.875 4.707031200000003 7.921875 4.824218799999997 C7.96875 4.941406200000003 8.0546875 5 8.1796875 5 C8.1796875 5 8.1796875 5 8.1796875 5 C8.1796875 5 11.53125 5 11.53125 5 C11.71875 5 11.8125 4.90625 11.8125 4.71875 C11.8125 4.71875 11.8125 4.71875 11.8125 4.71875 C11.8125 4.71875 11.8125 1.3671875 11.8125 1.3671875 C11.8125 1.2421875 11.753906200000017 1.15625 11.636718799999983 1.109375 C11.519531200000017 1.0625 11.421875 1.078125 11.34375 1.15625 C11.34375 1.15625 11.34375 1.15625 11.34375 1.15625 C11.34375 1.15625 10.1015625 2.3984375 10.1015625 2.3984375 C8.9765625 1.2578125 7.609375 0.6875 6 0.6875 C4.40625 0.6875 3.0390625 1.2578125 1.8984375 2.3984375 C0.7578125 3.5390625 0.1875 4.910156200000003 0.1875 6.511718799999997 C0.1875 8.113281200000003 0.753906200000003 9.480468799999997 1.886718799999997 10.613281200000003 C3.019531200000003 11.746093799999997 4.390625 12.3125 6 12.3125 Z" style="stroke-width: 0; stroke-linecap: butt; stroke-linejoin: miter; fill: rgb(135, 129, 189);" vector-effect="non-scaling-stroke"/></g></g></svg>