<?xml version="1.0" encoding="utf-8"?>
<!-- Generator: Adobe Illustrator 22.0.1, SVG Export Plug-In . SVG Version: 6.00 Build 0)  -->
<svg version="1.1" id="Layer_1" xmlns="http://www.w3.org/2000/svg" xmlns:xlink="http://www.w3.org/1999/xlink" x="0px" y="0px"
	 viewBox="0 0 155 155" style="enable-background:new 0 0 155 155;" xml:space="preserve">
<style type="text/css">
	.st0{fill:#1C7185;}
	.st1{fill:#37BCA5;}
	.st2{fill:#FFFFFF;}
</style>
<g>
	<circle class="st0" cx="77.5" cy="77.5" r="72"/>
	<path class="st1" d="M88,122.8v-22.2c0-1,0.7-1.9,1.6-2c1.2-0.2,2.3,0.7,2.3,1.9V123c0,2.5,2.4,4.2,4.8,3.4l22.1-7.6
		c2.4-0.8,4.1-3.1,4.1-5.7V34.6c0-3-2.1-5.8-5.2-6.2c-0.9-0.1-1.9,0-2.8,0.3l-20.6,7c-1.5,0.5-2.4,1.9-2.4,3.4v37.1
		c0,1-0.7,1.9-1.6,2c-1.2,0.2-2.3-0.7-2.3-1.9V39c0-1.5-0.9-2.9-2.4-3.4l-16.9-6.3c-2.4-0.9-4.9,0.9-4.9,3.4v28.7c0,1-0.7,1.9-1.6,2
		c-1.2,0.2-2.3-0.7-2.3-1.9v-29c0-2.4-2.4-4.2-4.7-3.4l-19,6.1C33.7,36,32,38.3,32,40.9v78.6c0,2.7,1.7,5.2,4.2,5.9
		c1.2,0.4,2.4,0.3,3.6,0l17.5-5.6c1.5-0.5,2.5-1.9,2.5-3.4V84c0-1,0.7-1.9,1.6-2c1.2-0.2,2.3,0.7,2.3,1.9v32.8
		c0,1.5,0.9,2.9,2.3,3.4l16.9,6.3C85.5,127.1,88,125.4,88,122.8z"/>
	<g>
		<g>
			<path class="st2" d="M58.9,70.7c-0.5,0-1.1,0.1-1.5,0.1c-2.1,0.4-3.9,1.2-5.6,2.3c-0.8,0.6-1.4,1.8-1.2,2.8
				c0.1,0.9,0.8,1.2,1.5,0.9c0.1,0,0.2-0.1,0.3-0.2c1.5-0.9,3-1.7,4.8-2c0.4-0.1,0.8-0.1,1.3-0.1c1,0,1.9-0.9,2-1.9
				C60.7,71.6,59.9,70.7,58.9,70.7z"/>
			<path class="st2" d="M44,80.5c-3.4,3.9-5.2,7.1-5.2,7.3c-0.5,1-0.1,2.2,0.9,2.6c0.3,0.1,0.5,0.2,0.8,0.1c0.7-0.1,1.3-0.6,1.6-1.3
				c0,0,1.3-2.8,3.9-6.2c0.7-0.9,0.8-2.2,0.3-2.8C45.8,79.5,44.7,79.6,44,80.5z"/>
			<path class="st2" d="M94.3,84.5c-2.5,0.9-4.9,1.1-7.4,0.6c-1.1-0.2-2.1,0.4-2.2,1.4c0,1.1,0.9,2.2,2,2.5c0.3,0.1,0.7,0.1,1,0.2
				c2.5,0.4,4.9-0.1,7.4-1c1-0.4,1.7-1.6,1.5-2.6S95.4,84.1,94.3,84.5z"/>
			<path class="st2" d="M77.1,80.4c-2.1-1.4-4.2-3-6.2-4.4c-0.6-0.4-1.2-0.8-1.8-1.2c-1.1-0.7-2.3-0.6-2.8,0.3s0,2.1,1.1,2.8
				c0.6,0.4,1.2,0.8,1.7,1.2c2,1.4,4.2,3,6.4,4.5c0.2,0.2,0.5,0.3,0.7,0.4c0.9,0.3,1.8,0.1,2.1-0.6C78.8,82.5,78.2,81.2,77.1,80.4z"
				/>
			<path class="st2" d="M117,71.5L117,71.5c-0.1-0.1-0.1-0.2-0.3-0.4c-0.9-1.1-2.8-1.6-5.8-1c-0.5,0.1-1.1,0.2-1.7,0.4
				c-0.4,0.1-1.2,0.4-1.7,0.7c-0.6,0.4-1,1.2-0.6,2.1c0.4,1,2.6,0.4,3.4,0.3c-2.2,1.8-5.3,4.3-7.4,5.8c-1,0.7-1.4,2-0.9,2.8
				c0.3,0.6,1,0.8,1.8,0.6c0.3-0.1,0.6-0.2,0.8-0.4c2.1-1.6,5.3-4,7.5-5.8c-0.3,0.8-1.6,2.7-1,3.5c0.4,0.5,0.9,0.6,1.3,0.5
				c0.2,0,0.5-0.1,0.7-0.3c0.5-0.3,1-1,1.2-1.4c0.4-0.5,0.7-1,1-1.5l0,0C117.2,74.8,117.8,72.9,117,71.5z"/>
		</g>
	</g>
</g>
</svg>
