<?xml version="1.0" encoding="UTF-8"?>
<svg width="86px" height="106px" viewBox="0 0 86 106" version="1.1" xmlns="http://www.w3.org/2000/svg" xmlns:xlink="http://www.w3.org/1999/xlink">
    <title>Sidekick_7_a</title>
    <g id="Student-Environmrnt---New-Treatment" stroke="none" stroke-width="1" fill="none" fill-rule="evenodd">
        <g id="Avatars" transform="translate(-1030.000000, -585.000000)">
            <g id="Sidekick_7_a" transform="translate(1030.679683, 585.355462)">
                <path d="M84.2343171,62.674838 C83.8683171,57.668838 82.2413171,53.219838 80.2513171,49.324838 C79.7663171,48.377838 79.2633171,47.458838 78.7403171,46.570838 C79.8843171,45.931838 80.6593171,43.938838 80.0243171,42.112838 C78.0173171,36.344838 73.8163171,33.116838 69.9833171,30.811838 C69.9233171,30.776838 69.8633171,30.744838 69.8043171,30.718838 C69.2943171,29.736838 68.7713171,28.765838 68.2323171,27.812838 C66.1283171,24.096838 63.7413171,20.528838 61.1013171,17.489838 C61.5983171,17.049838 62.0373171,16.454838 62.3743171,15.641838 C63.7213171,12.388838 61.8003171,8.47383802 59.7643171,7.52883802 C56.9813171,6.23983802 53.8973171,6.79183802 50.9993171,7.53583802 C51.2093171,6.55583802 51.3853171,5.54983802 51.5303171,4.52383802 C51.8673171,2.12383802 49.8473171,0.327838022 48.5383171,1.39483802 C47.0013171,2.64583802 45.8233171,4.38683802 44.8263171,6.37483802 C44.4933171,7.03883802 44.1813171,7.72883802 43.8833171,8.43783802 C42.6463171,4.93083802 40.9943171,2.27483802 38.8373171,0.356838022 C37.1503171,-0.804161978 34.9013171,1.01983802 34.5923171,3.63483802 C34.5563171,5.13083802 35.2533171,6.64183802 35.9523171,8.15483802 C31.2813171,8.80183802 25.4323171,7.55183802 22.3303171,14.223838 C21.0323171,17.189838 23.9153171,19.496838 25.8653171,19.913838 C25.1123171,20.645838 24.1253171,20.997838 23.1273171,21.725838 C20.1063171,25.028838 19.2253171,30.997838 15.6643171,32.419838 C14.8383171,33.078838 14.0523171,33.774838 13.3613171,34.404838 C10.9693171,36.581838 8.15631706,39.454838 6.73731706,43.239838 C6.25431706,44.531838 6.23931706,46.591838 7.06231706,47.566838 C3.97931706,51.782838 1.70631706,56.924838 1.51831706,63.443838 C1.46331706,65.321838 2.49731706,67.097838 3.71731706,67.159838 C2.26331706,69.931838 0.701317063,73.053838 0.139317063,76.525838 C-0.429682937,80.043838 0.749317063,84.489838 3.58331706,83.846838 C4.12931706,83.721838 4.63231706,83.412838 5.09231706,82.969838 C5.13031706,84.097838 5.19231706,85.193838 5.27031706,86.224838 C5.60131706,90.645838 6.32531706,95.658838 8.94931706,98.147838 C9.63431706,98.797838 10.8863171,98.561838 11.3943171,97.507838 C11.6853171,96.903838 11.9183171,96.299838 12.1003171,95.693838 C12.8693171,97.691838 13.8353171,99.695838 15.2443171,100.618838 C16.5963171,101.504838 18.3733171,101.333838 19.3393171,99.657838 C19.7533171,100.155838 20.1613171,100.600838 20.5343171,100.974838 C21.6533171,102.092838 22.9293171,103.095838 24.3003171,103.197838 C24.9653171,103.247838 25.5913171,103.134838 26.2173171,102.755838 C26.4553171,102.611838 26.6963171,102.464838 26.9063171,102.235838 C26.9193171,102.221838 26.9693171,102.167838 27.0333171,102.099838 C27.8133171,102.627838 28.6213171,103.041838 29.4793171,103.246838 C31.7873171,103.801838 33.4763171,102.769838 35.2873171,100.512838 C35.3373171,100.448838 35.3853171,100.375838 35.4303171,100.300838 C36.2363171,101.107838 37.0553171,101.813838 37.8423171,102.379838 C39.3603171,103.473838 41.2973171,104.296838 42.9643171,103.356838 C43.8133171,102.877838 44.6303171,102.178838 45.2243171,101.095838 C45.2803171,100.992838 45.3353171,100.887838 45.3903171,100.781838 C45.5503171,101.310838 45.7213171,101.802838 45.7753171,101.934838 C45.8473171,102.111838 45.9263171,102.285838 46.0053171,102.457838 C46.2323171,102.960838 46.4453171,103.261838 46.7763171,103.652838 C47.4053171,104.386838 48.3793171,104.212838 48.9703171,103.429838 C49.4583171,102.787838 49.6373171,101.942838 49.5803171,101.109838 C50.5603171,101.021838 51.5163171,100.540838 52.4273171,99.788838 C52.4133171,99.856838 52.3973171,99.925838 52.3873171,99.987838 C52.2653171,100.753838 52.3823171,101.380838 52.5713171,102.072838 C52.8093171,102.942838 53.4513171,103.810838 54.1343171,103.567838 C55.5223171,103.074838 55.8113171,102.340838 56.1083171,101.063838 C56.5863171,101.434838 57.1203171,101.644838 57.7193171,101.641838 C59.8463171,101.632838 61.9963171,99.560838 63.8663171,97.369838 C64.1193171,97.311838 64.3723171,97.253838 64.6253171,97.191838 C64.6603171,97.255838 64.6993171,97.312838 64.7363171,97.372838 C64.6183171,97.549838 64.5023171,97.723838 64.3843171,97.897838 C63.5493171,99.164838 63.8773171,101.477838 64.6963171,102.467838 C65.6713171,103.640838 66.8713171,103.162838 67.6963171,101.883838 C68.7153171,100.309838 69.6253171,98.398838 70.1903171,96.316838 L70.1923171,96.314838 C70.4973171,96.922838 70.8563171,97.437838 71.2893171,97.804838 C74.4053171,100.453838 76.3283171,94.487838 76.9953171,90.782838 C77.2483171,89.375838 77.4863171,87.910838 77.6833171,86.426838 C77.9923171,85.682838 78.2753171,84.925838 78.5263171,84.157838 C78.5833171,84.243838 78.6313171,84.333838 78.6893171,84.416838 C79.1853171,85.160838 79.9333171,85.881838 80.6903171,85.515838 C80.8113171,85.453838 80.9323171,85.395838 81.0523171,85.337838 C82.0173171,84.867838 82.6213171,83.882838 82.7493171,82.325838 C83.2023171,76.806838 82.6573171,70.996838 81.3703171,65.687838 C81.6213171,65.764838 81.8753171,65.828838 82.1373171,65.862838 C83.1623171,66.002838 84.3503171,64.270838 84.2343171,62.674838" id="Fill-684" fill="#B328EB"></path>
                <path d="M18.2431171,38.880938 C18.2291171,38.880938 18.2291171,38.902938 18.2431171,38.902938 C18.2571171,38.902938 18.2571171,38.880938 18.2431171,38.880938" id="Fill-686" fill="#B035E4"></path>
                <path d="M17.9985171,20.587038 C17.9845171,20.587038 17.9845171,20.609038 17.9985171,20.609038 C18.0125171,20.609038 18.0125171,20.587038 17.9985171,20.587038" id="Fill-688" fill="#2E5BF9"></path>
                <path d="M47.7421171,51.293038 C46.5601171,52.158038 44.7221171,52.595038 43.1571171,52.419038 C42.5321171,52.350038 41.9161171,52.231038 41.2931171,52.147038 C40.7421171,52.073038 40.2301171,51.692038 39.7011171,52.034038 C38.7801171,52.628038 39.4581171,53.694038 40.0961171,54.231038 C40.8341171,54.854038 41.9951171,54.962038 42.9221171,55.117038 C44.3761171,55.359038 45.9341171,54.984038 47.3181171,54.664038 C48.3291171,54.431038 49.5831171,53.906038 49.9711171,52.948038 C50.4591171,51.743038 48.9161171,50.434038 47.7421171,51.293038" id="Fill-692" fill="#8200A6"></path>
                <path d="M65.9081171,37.049838 C65.7491171,36.778838 65.5761171,36.517838 65.3901171,36.263838 C65.3911171,36.262838 65.3931171,36.260838 65.3941171,36.259838 C66.1431171,35.242838 65.6501171,33.809838 64.8391171,33.034838 C63.5331171,31.789838 61.5631171,31.424838 59.7601171,31.450838 C59.9221171,30.679838 59.4531171,29.754838 58.8021171,29.352838 C56.1701171,27.731838 53.1611171,27.874838 50.1581171,28.042838 C49.3931171,27.902838 48.6191171,27.791838 47.8371171,27.708838 C47.8471171,27.684838 47.8581171,27.662838 47.8691171,27.637838 C48.3191171,26.556838 47.2201171,25.517838 46.2141171,25.700838 C44.4971171,26.012838 42.7051171,26.613838 41.2711171,27.691838 C41.0841171,27.710838 40.8961171,27.728838 40.7101171,27.750838 C40.6641171,27.716838 40.6181171,27.683838 40.5691171,27.655838 C39.1631171,26.839838 37.5021171,25.870838 35.6091171,25.944838 C34.0241171,26.005838 33.1171171,27.509838 33.2921171,29.008838 C33.2971171,29.053838 33.3071171,29.096838 33.3171171,29.141838 C30.8641171,28.938838 28.4091171,29.455838 26.0081171,30.164838 C24.7991171,30.523838 24.5591171,32.021838 25.2141171,32.888838 C22.9271171,34.125838 20.7831171,36.163838 19.8311171,38.616838 C19.4891171,39.498838 19.9351171,40.740838 20.9701171,40.836838 C21.1221171,40.850838 21.2681171,40.851838 21.4101171,40.845838 C21.4981171,41.271838 21.6231171,41.675838 21.7831171,42.058838 C21.7541171,42.268838 21.7351171,42.477838 21.7331171,42.687838 C21.7151171,44.055838 22.4021171,45.344838 23.4811171,46.118838 C24.3441171,46.737838 25.2881171,46.737838 26.1231171,46.363838 C26.7501171,46.686838 27.4101171,46.965838 28.0831171,47.201838 C28.5311171,47.761838 29.0591171,48.240838 29.7001171,48.581838 C30.5441171,49.028838 31.4501171,48.721838 32.1381171,48.164838 C32.1401171,48.162838 32.1411171,48.161838 32.1421171,48.159838 C32.1911171,48.166838 32.2381171,48.172838 32.2861171,48.178838 C32.8481171,49.111838 32.6141171,49.347838 33.9561171,48.818838 C34.3111171,48.678838 34.1171171,48.522838 34.4491171,48.307838 C36.0911171,48.435838 39.5021171,48.801838 40.9511171,49.093838 C41.5151171,49.123838 42.0731171,49.144838 42.6291171,49.153838 C44.2281171,49.260838 45.8351171,49.319838 47.4381171,49.294838 C49.4091171,49.263838 54.3151171,48.440838 56.2811171,48.170838 C56.6771171,48.882838 56.5101171,49.263838 57.5661171,49.084838 C58.6371171,48.903838 58.1541171,48.615838 58.7571171,47.835838 C59.7531171,49.139838 61.7011171,49.083838 62.8901171,47.902838 C63.4861171,47.311838 63.8181171,46.471838 64.0181171,45.600838 C64.3371171,45.374838 64.6381171,45.126838 64.9221171,44.856838 C66.3451171,45.445838 67.8921171,44.858838 68.5101171,43.257838 C69.4851171,40.728838 67.9421171,38.579838 65.9081171,37.049838" id="Fill-698" fill="#9A06D6"></path>
                <path d="M54.0937171,44.576738 C51.5517171,43.221738 50.8577171,39.367738 52.3137171,36.944738 C53.7607171,34.535738 57.0287171,33.419738 59.6137171,34.311738 C61.8607171,35.085738 63.2767171,37.370738 63.0567171,39.754738 C63.0577171,40.357738 62.9157171,40.959738 62.5867171,41.528738 C62.5617171,41.570738 62.5337171,41.609738 62.5087171,41.650738 C61.7037171,43.207738 60.1527171,44.253738 58.4907171,44.705738 C57.0527171,45.249738 55.4937171,45.324738 54.0937171,44.576738" id="Fill-700" fill="#FFFFFF"></path>
                <path d="M56.0273171,38.887338 C55.9053171,38.900338 55.7823171,38.920338 55.6663171,38.958338 C55.3573171,39.060338 55.4653171,38.937338 56.0273171,38.887338" id="Fill-702" fill="#000000"></path>
                <path d="M56.1240171,38.878038 C56.0880171,38.880038 56.0610171,38.884038 56.0270171,38.887038 C56.0610171,38.884038 56.0920171,38.880038 56.1240171,38.878038" id="Fill-704" fill="#000000"></path>
                <path d="M54.4697171,39.634838 C56.5997171,37.582838 60.2747171,39.996838 59.0267171,42.880838 C57.2557171,46.975838 51.2507171,42.734838 54.4697171,39.634838 C55.0177171,39.107838 53.9347171,40.149838 54.4697171,39.634838" id="Fill-706" fill="#333333"></path>
                <path d="M56.1621171,38.876038 C56.1481171,38.877038 56.1371171,38.877038 56.1241171,38.878038 C56.1371171,38.877038 56.1481171,38.877038 56.1621171,38.876038" id="Fill-708" fill="#000000"></path>
                <polygon id="Fill-710" fill="#000000" points="56.4570171 38.866738 56.4450171 38.866738 56.4360171 38.866738"></polygon>
                <path d="M56.4355171,38.866738 C56.3355171,38.867738 56.2455171,38.870738 56.1625171,38.875738 C56.2525171,38.870738 56.3445171,38.867738 56.4355171,38.866738" id="Fill-712" fill="#333333"></path>
                <path d="M28.7289171,33.155838 C31.2349171,31.419838 34.6389171,31.812838 37.0469171,33.507838 C39.6730227,35.356838 40.3739171,39.093838 38.9489171,41.939838 C38.4229171,42.988838 37.6539171,43.810838 36.7459171,44.395838 C36.6029171,44.533838 36.4369171,44.655838 36.2419171,44.748838 C35.8029171,44.959838 35.3719171,45.140838 34.8919171,45.208838 C33.9019171,45.468838 32.8459171,45.503838 31.8069171,45.297838 C30.7339171,45.083838 29.7989171,44.614838 29.0289171,43.965838 C28.1909171,43.369838 27.4749171,42.592838 26.8719171,41.663838 C25.0579171,38.860838 26.1629171,34.932838 28.7289171,33.155838" id="Fill-714" fill="#FFFFFF"></path>
                <path d="M33.5981171,38.447338 C33.4621171,38.461338 33.3251171,38.485338 33.1931171,38.527338 C32.8491171,38.640338 32.9701171,38.503338 33.5981171,38.447338" id="Fill-716" fill="#000000"></path>
                <path d="M33.7070171,38.437138 C33.6660171,38.440138 33.6360171,38.444138 33.5980171,38.447138 C33.6330171,38.443138 33.6710171,38.440138 33.7070171,38.437138" id="Fill-718" fill="#000000"></path>
                <path d="M31.8535171,39.285238 C34.2395171,36.987238 38.3535171,39.688238 36.9585171,42.919238 C34.9745171,47.502238 28.2515171,42.755238 31.8535171,39.285238 C32.4675171,38.692238 31.2545171,39.862238 31.8535171,39.285238" id="Fill-720" fill="#333333"></path>
                <path d="M33.7499171,38.434638 C33.7339171,38.434638 33.7199171,38.436638 33.7069171,38.436638 C33.7199171,38.436638 33.7339171,38.434638 33.7499171,38.434638" id="Fill-722" fill="#000000"></path>
                <path d="M34.0805171,38.422938 C34.0755171,38.422938 34.0695171,38.424938 34.0645171,38.424938 L34.0565171,38.424938 C34.0645171,38.424938 34.0705171,38.422938 34.0805171,38.422938" id="Fill-724" fill="#000000"></path>
                <path d="M34.0566171,38.424838 C33.9426171,38.425838 33.8416171,38.429838 33.7496171,38.434838 C33.8506171,38.428838 33.9536171,38.425838 34.0566171,38.424838" id="Fill-726" fill="#000000"></path>
                <path d="M19.0976171,27.520638 C18.2156171,26.232638 17.0376171,25.131638 15.8976171,24.090638 C14.9886171,23.261638 14.1026171,22.353638 13.0876171,21.661638 C11.8546171,20.822638 10.2476171,20.437638 8.87361706,21.066638 C7.25561706,21.807638 6.89661706,23.462638 7.38361706,25.091638 C7.76861706,26.381638 8.96361706,27.537638 9.86561706,28.465638 C10.7796171,29.407638 11.9266171,30.175638 13.1026171,30.717638 C14.2816171,31.260638 15.6536171,31.652638 16.9386171,31.728638 C18.5836171,31.826638 21.2026171,31.188638 20.4266171,28.890638 C20.1856171,28.180638 19.6946171,27.777638 19.0976171,27.520638" id="Fill-728" fill="#A606E7"></path>
                <path d="M17.3222171,51.739338 C17.4242171,50.928338 16.9602171,49.841338 16.0192171,50.001338 C15.4602171,50.096338 15.0772171,50.575338 14.6782171,50.944338 C14.2072171,51.379338 13.7602171,51.989338 13.4832171,52.563338 C13.1312171,53.291338 13.0862171,54.069338 13.6422171,54.701338 C13.9542171,55.056338 14.3692171,55.286338 14.8502171,55.264338 C15.4052171,55.239338 16.0892171,55.005338 16.3612171,54.443338 C16.7912171,53.552338 17.1982171,52.728338 17.3222171,51.739338" id="Fill-730" fill="#A11EE9"></path>
                <path d="M17.6069171,66.739338 C17.4619171,65.935338 16.6949171,65.036338 15.8439171,65.470338 C15.3389171,65.729338 15.1169171,66.300338 14.8459171,66.771338 C14.5269171,67.327338 14.2829171,68.043338 14.1899171,68.674338 C14.0709171,69.473338 14.2609171,70.229338 14.9809171,70.667338 C15.3849171,70.912338 15.8489171,71.008338 16.3019171,70.843338 C16.8249171,70.652338 17.4059171,70.224338 17.4979171,69.607338 C17.6429171,68.629338 17.7839171,67.720338 17.6069171,66.739338" id="Fill-732" fill="#A11EE9"></path>
                <path d="M30.8359171,75.448338 C30.5779171,74.424338 29.6769171,73.342338 28.8779171,73.996338 C28.4029171,74.386338 28.2579171,75.148338 28.0499171,75.788338 C27.8049171,76.541338 27.6579171,77.495338 27.6509171,78.321338 C27.6429171,79.369338 27.9399171,80.328338 28.7279171,80.816338 C29.1709171,81.090338 29.6529171,81.164338 30.0879171,80.901338 C30.5899171,80.598338 31.1179171,79.982338 31.1249171,79.173338 C31.1349171,77.890338 31.1519171,76.700338 30.8359171,75.448338" id="Fill-734" fill="#A11EE9"></path>
                <path d="M60.8876171,83.896538 C60.6076171,82.876538 59.6826171,81.815538 58.8986171,82.487538 C58.4326171,82.885538 58.3036171,83.651538 58.1096171,84.295538 C57.8806171,85.054538 57.7546171,86.010538 57.7656171,86.836538 C57.7796171,87.884538 58.0976171,88.836538 58.8966171,89.307538 C59.3446171,89.572538 59.8286171,89.635538 60.2576171,89.364538 C60.7526171,89.050538 61.2676171,88.422538 61.2566171,87.613538 C61.2396171,86.331538 61.2306171,85.140538 60.8876171,83.896538" id="Fill-736" fill="#A11EE9"></path>
                <path d="M11.7509171,74.805738 C11.3569171,73.985738 10.2509171,73.248738 9.44591706,73.969738 C8.96791706,74.398738 8.89091706,75.077738 8.73191706,75.665738 C8.54491706,76.357738 8.48691706,77.200738 8.56891706,77.905738 C8.67291706,78.799738 9.10291706,79.555738 10.0209171,79.809738 C10.5359171,79.951738 11.0729171,79.915738 11.5219171,79.602738 C12.0389171,79.242738 12.5519171,78.608738 12.4709171,77.917738 C12.3439171,76.824738 12.2329171,75.805738 11.7509171,74.805738" id="Fill-738" fill="#A11EE9"></path>
                <path d="M75.1630171,80.496138 C74.7070171,79.494138 73.4880171,78.565138 72.6480171,79.403138 C72.1490171,79.901138 72.0930171,80.717138 71.9430171,81.418138 C71.7680171,82.244138 71.7370171,83.256138 71.8520171,84.108138 C71.9990171,85.188138 72.4890171,86.114138 73.4870171,86.455138 C74.0480171,86.646138 74.6250171,86.622138 75.0970171,86.263138 C75.6400171,85.849138 76.1690171,85.105138 76.0560171,84.270138 C75.8770171,82.948138 75.7190171,81.719138 75.1630171,80.496138" id="Fill-740" fill="#A11EE9"></path>
                <path d="M22.8823171,84.931738 C22.1943171,84.034738 20.8353171,83.360738 20.3073171,84.350738 C19.9933171,84.939738 20.1663171,85.752738 20.2253171,86.472738 C20.2953171,87.320738 20.5473171,88.323738 20.8863171,89.139738 C21.3163171,90.173738 22.0163171,90.989738 23.0123171,91.127738 C23.5723171,91.205738 24.0883171,91.069738 24.4153171,90.622738 C24.7923171,90.107738 25.0653171,89.271738 24.7323171,88.472738 C24.2053171,87.205738 23.7233171,86.026738 22.8823171,84.931738" id="Fill-742" fill="#A11EE9"></path>
                <path d="M25.1503171,52.070438 C24.9473171,52.224438 24.8053171,52.455438 24.7333171,52.704438 C24.7383171,52.684438 24.6083171,53.516438 24.6513171,53.291438 C24.6133171,53.490438 24.5923171,53.681438 24.5733171,53.879438 C24.5673171,53.901438 24.5603171,53.937438 24.5483171,53.992438 C24.5143171,54.174438 24.4873171,54.357438 24.4683171,54.542438 C24.5133171,54.138438 24.4243171,54.830438 24.4333171,54.961438 C24.4993171,55.401438 24.5033171,55.496438 24.4433171,55.245438 C24.4383171,55.497438 24.4953171,55.734438 24.6133171,55.957438 C24.9713171,56.621438 25.7903171,56.874438 26.4363171,56.512438 C27.4543171,55.943438 27.6803171,54.781438 27.5523171,53.690438 C27.4093171,52.481438 26.3513171,51.155438 25.1503171,52.070438" id="Fill-744" fill="#A11EE9"></path>
                <path d="M53.3408171,62.778438 C53.1988171,63.032438 53.1578171,63.363438 53.2018171,63.695438 C53.1978171,63.670438 53.4628171,64.751438 53.3988171,64.456438 C53.4548171,64.715438 53.5258171,64.962438 53.6008171,65.215438 C53.6058171,65.244438 53.6138171,65.292438 53.6278171,65.363438 C53.6798171,65.601438 53.7388171,65.839438 53.8088171,66.075438 C53.6618171,65.556438 53.9018171,66.448438 53.9738171,66.610438 C54.2578171,67.141438 54.3078171,67.258438 54.1228171,66.963438 C54.2388171,67.279438 54.4148171,67.560438 54.6488171,67.803438 C55.3528171,68.527438 56.3498171,68.599438 56.8648171,67.954438 C57.6768171,66.938438 57.3568171,65.417438 56.6918171,64.090438 C55.9528171,62.618438 54.1808171,61.274438 53.3408171,62.778438" id="Fill-746" fill="#A11EE9"></path>
                <path d="M15.0082171,40.119738 C14.9432171,39.231738 14.3342171,38.592738 13.4302171,38.766738 C13.1812171,38.814738 13.0142171,38.950738 12.8262171,39.112738 C13.1822171,38.806738 12.7402171,39.180738 12.6192171,39.279738 C12.5702171,39.319738 12.3772171,39.481738 12.5012171,39.390738 C12.3392171,39.513738 12.1752171,39.632738 12.0192171,39.764738 C12.0042171,39.775738 11.9852171,39.789738 11.9592171,39.808738 C11.8632171,39.880738 11.7652171,39.948738 11.6672171,40.015738 C11.3672171,40.221738 11.0902171,40.436738 10.8452171,40.711738 C10.3622171,41.253738 10.2292171,42.036738 10.6012171,42.687738 C11.0672171,43.504738 11.9872171,43.648738 12.7682171,43.268738 C13.4612171,42.932738 14.2112171,42.206738 14.5992171,41.516738 C14.8302171,41.104738 15.0442171,40.605738 15.0082171,40.119738" id="Fill-748" fill="#A11EE9"></path>
                <path d="M24.3354171,36.323838 C25.1834171,36.050838 25.6604171,35.308838 25.2774171,34.470838 C25.1724171,34.240838 25.0014171,34.110838 24.7994171,33.965838 C25.1814171,34.239838 24.7134171,33.898838 24.5884171,33.803838 C24.5374171,33.765838 24.3354171,33.615838 24.4524171,33.715838 C24.2954171,33.586838 24.1404171,33.455838 23.9764171,33.335838 C23.9614171,33.323838 23.9434171,33.307838 23.9184171,33.286838 C23.8264171,33.210838 23.7374171,33.131838 23.6494171,33.051838 C23.3784171,32.808838 23.1034171,32.590838 22.7794171,32.417838 C22.1384171,32.075838 21.3464171,32.131838 20.8004171,32.646838 C20.1164171,33.291838 20.1934171,34.219838 20.7464171,34.888838 C21.2364171,35.483838 22.1194171,36.040838 22.8804171,36.255838 C23.3354171,36.383838 23.8714171,36.472838 24.3354171,36.323838" id="Fill-750" fill="#A900D7"></path>
                <path d="M25.1513171,42.077238 C25.6513171,41.339238 25.5693171,40.461238 24.7523171,40.037238 C24.5273171,39.920238 24.3123171,39.923238 24.0653171,39.933238 C24.5333171,39.914238 23.9553171,39.933238 23.7983171,39.936238 C23.7343171,39.937238 23.4833171,39.945238 23.6363171,39.951238 C23.4343171,39.946238 23.2313171,39.938238 23.0273171,39.945238 C23.0083171,39.944238 22.9843171,39.943238 22.9523171,39.942238 C22.8333171,39.939238 22.7133171,39.931238 22.5953171,39.922238 C22.2323171,39.898238 21.8813171,39.896238 21.5193171,39.959238 C20.8043171,40.085238 20.2143171,40.616238 20.1023171,41.358238 C19.9603171,42.288238 20.5933171,42.972238 21.4413171,43.158238 C22.1933171,43.324238 23.2323171,43.220238 23.9633171,42.919238 C24.4013171,42.740238 24.8783171,42.480238 25.1513171,42.077238" id="Fill-752" fill="#A900D7"></path>
                <path d="M24.3354171,36.323838 C25.1834171,36.050838 25.6604171,35.308838 25.2774171,34.470838 C25.1724171,34.240838 25.0014171,34.110838 24.7994171,33.965838 C25.1814171,34.239838 24.7134171,33.898838 24.5884171,33.803838 C24.5374171,33.765838 24.3354171,33.615838 24.4524171,33.715838 C24.2954171,33.586838 24.1404171,33.455838 23.9764171,33.335838 C23.9614171,33.323838 23.9434171,33.307838 23.9184171,33.286838 C23.8264171,33.210838 23.7374171,33.131838 23.6494171,33.051838 C23.3784171,32.808838 23.1034171,32.590838 22.7794171,32.417838 C22.1384171,32.075838 21.3464171,32.131838 20.8004171,32.646838 C20.1164171,33.291838 20.1934171,34.219838 20.7464171,34.888838 C21.2364171,35.483838 22.1194171,36.040838 22.8804171,36.255838 C23.3354171,36.383838 23.8714171,36.472838 24.3354171,36.323838" id="Fill-754" fill="#8200A6"></path>
                <path d="M25.1513171,42.077238 C25.6513171,41.339238 25.5693171,40.461238 24.7523171,40.037238 C24.5273171,39.920238 24.3123171,39.923238 24.0653171,39.933238 C24.5333171,39.914238 23.9553171,39.933238 23.7983171,39.936238 C23.7343171,39.937238 23.4833171,39.945238 23.6363171,39.951238 C23.4343171,39.946238 23.2313171,39.938238 23.0273171,39.945238 C23.0083171,39.944238 22.9843171,39.943238 22.9523171,39.942238 C22.8333171,39.939238 22.7133171,39.931238 22.5953171,39.922238 C22.2323171,39.898238 21.8813171,39.896238 21.5193171,39.959238 C20.8043171,40.085238 20.2143171,40.616238 20.1023171,41.358238 C19.9603171,42.288238 20.5933171,42.972238 21.4413171,43.158238 C22.1933171,43.324238 23.2323171,43.220238 23.9633171,42.919238 C24.4013171,42.740238 24.8783171,42.480238 25.1513171,42.077238" id="Fill-756" fill="#8200A6"></path>
                <path d="M74.3671171,41.953738 C74.2571171,41.586738 74.1371171,41.279738 73.8861171,40.982738 C73.8381171,40.927738 73.7911171,40.869738 73.7441171,40.812738 C73.8211171,40.902738 73.5911171,40.598738 73.5821171,40.587738 C73.3971171,40.332738 73.3161171,40.224738 73.3391171,40.262738 C73.2851171,40.180738 73.2351171,40.094738 73.1881171,40.007738 C73.1581171,39.931738 73.1211171,39.860738 73.0771171,39.792738 C73.0271171,39.725738 72.9771171,39.659738 72.9281171,39.593738 C72.9201171,39.580738 72.9131171,39.567738 72.8991171,39.546738 C72.5431171,38.928738 71.7321171,38.845738 71.2351171,39.328738 C70.0371171,40.494738 70.8911171,42.979738 72.2241171,43.656738 C73.3141171,44.209738 74.7701171,43.297738 74.3671171,41.953738" id="Fill-758" fill="#A11EE9"></path>
                <path d="M71.9023171,51.237338 C71.7753171,50.618338 71.4583171,50.104338 71.2003171,49.540338 C70.8633171,48.803338 70.2563171,48.353338 69.4673171,48.698338 C68.4023171,49.166338 68.6723171,50.752338 68.6743171,51.692338 C68.6773171,52.615338 69.4243171,53.384338 70.3213171,53.383339 C71.4383171,53.381338 72.1233171,52.304338 71.9023171,51.237338" id="Fill-760" fill="#A11EE9"></path>
                <path d="M62.3945171,55.730538 C62.2665171,55.111538 61.9495171,54.597538 61.6915171,54.033538 C61.3555171,53.296538 60.7485171,52.846538 59.9595171,53.191538 C58.8935171,53.659538 59.1645171,55.245538 59.1665171,56.185538 C59.1695171,57.108538 59.9155171,57.876538 60.8135171,57.876538 C61.9305171,57.874538 62.6155171,56.796538 62.3945171,55.730538" id="Fill-762" fill="#A11EE9"></path>
                <path d="M71.8398171,68.062538 C71.6818171,67.294538 71.2888171,66.656538 70.9698171,65.955538 C70.5528171,65.041538 69.8018171,64.482538 68.8268171,64.911538 C67.5078171,65.491538 67.8418171,67.459538 67.8458171,68.627538 C67.8498171,69.774538 68.7738171,70.728538 69.8828171,70.7265412 C71.2658171,70.724538 72.1118171,69.387538 71.8398171,68.062538" id="Fill-764" fill="#A11EE9"></path>
                <path d="M17.8134171,27.225638 C16.7644171,26.463638 15.7484171,25.609638 14.5424171,25.166638 C13.5864171,24.815638 11.9164171,24.668638 11.8324171,26.084638 C11.7574171,27.329638 12.6394171,28.009638 13.6204171,28.568638 C13.9984171,28.897638 14.4264171,29.175638 14.8554171,29.420638 C15.7904171,29.954638 17.0474171,29.850638 17.8134171,29.214638 C18.3624171,28.758638 18.5274171,27.744638 17.8134171,27.225638" id="Fill-766" fill="#B700DC"></path>
                <path d="M22.3622171,70.051838 C21.7862171,67.469838 19.8232171,65.234838 18.3832171,63.092838 C17.2002171,61.331838 15.5542171,58.835838 13.8302171,57.524838 C12.0132171,56.142838 9.94121706,56.976838 9.78121706,59.345838 C9.68221706,60.806838 10.0082171,64.559838 10.9672171,67.365838 C11.7572171,69.675838 12.9542171,72.062838 14.4072171,74.003838 C15.7672171,75.819838 17.9642171,77.126838 20.2272171,76.101838 C22.6672171,74.995838 22.8792171,72.367838 22.3622171,70.051838" id="Fill-768" fill="#8A05C0"></path>
                <path d="M18.0380171,74.916138 C17.4870171,74.785138 16.7960171,74.936138 16.5110171,75.486138 C16.3400171,75.815138 16.1820171,76.223138 16.3180171,76.600138 C16.3670171,76.738138 16.4200171,76.876138 16.4760171,77.013138 C16.2340171,76.453138 16.5480171,77.193138 16.5630171,77.235138 C16.7240171,77.589138 16.9340171,77.884138 17.2560171,78.112138 C17.6900171,78.423138 18.2310171,78.273138 18.6140171,77.978138 C19.5800171,77.230138 19.2510171,75.204138 18.0380171,74.916138" id="Fill-770" fill="#6813E9"></path>
                <path d="M16.5629171,77.235438 C16.5619171,77.231438 16.5599171,77.228438 16.5579171,77.224438 C16.5639171,77.238438 16.5649171,77.239438 16.5629171,77.235438" id="Fill-772" fill="#7930E9"></path>
                <path d="M22.5263171,74.504038 C22.0903171,73.933038 21.3143171,73.707038 20.6433171,73.981038 C20.3853171,74.086038 20.1693171,74.248038 19.9933171,74.466038 C19.9223171,74.584038 19.8513171,74.703038 19.7793171,74.821038 C19.6633171,75.091038 19.6233171,75.372038 19.6583171,75.663038 C19.6553171,76.073038 19.9753171,76.618038 20.3263171,76.854038 C20.6823171,77.091038 21.0423171,77.232038 21.4793171,77.176038 C21.8893171,77.125038 22.2243171,76.915038 22.4913171,76.608038 C22.9983171,76.025038 22.9843171,75.105038 22.5263171,74.504038" id="Fill-774" fill="#6813E9"></path>
                <path d="M24.5043171,71.986438 C24.4943171,71.952438 24.4833171,71.920438 24.4703171,71.886438 C24.4653171,71.874438 24.4613171,71.862438 24.4553171,71.849438 C24.4003171,71.719438 24.3453171,71.590438 24.2903171,71.461438 C24.1453171,71.215438 23.9503171,71.021438 23.7053171,70.877438 C23.6573171,70.842438 23.6023171,70.821438 23.5483171,70.797438 C23.2063171,70.641438 22.9773171,70.541438 22.5893171,70.549438 C21.8493171,70.568438 21.1903171,71.046438 20.9923171,71.770438 C20.7943171,72.495438 21.1193171,73.258438 21.7573171,73.642438 C22.1073171,73.851438 22.4583171,73.884438 22.8513171,73.917438 C23.2283171,73.948438 23.5493171,73.777438 23.8533171,73.591438 C24.3913171,73.265438 24.6883171,72.602438 24.5043171,71.986438" id="Fill-776" fill="#6813E9"></path>
                <path d="M64.2451171,76.241338 C66.3971171,77.482338 68.7111171,76.395338 70.2411171,74.720338 C71.8771171,72.929338 73.3011171,70.671338 74.3111171,68.448338 C75.5401171,65.749338 76.2291171,62.045338 76.2731171,60.583338 C76.3451171,58.209338 74.3631171,57.177338 72.4201171,58.376338 C70.5771171,59.512338 68.6951171,61.836338 67.3471171,63.472338 C65.7051171,65.465338 63.5341171,67.498338 62.7091171,70.012338 C61.9691171,72.267338 61.9251171,74.903338 64.2451171,76.241338" id="Fill-778" fill="#8A05C0"></path>
                <path d="M67.5312171,78.332138 C66.9942171,78.514138 66.2922171,78.429138 65.9562171,77.907138 C65.7562171,77.596138 65.5602171,77.205138 65.6602171,76.817138 C65.6962171,76.675138 65.7352171,76.532138 65.7782171,76.392138 C65.5902171,76.971138 65.8332171,76.205138 65.8442171,76.162138 C65.9702171,75.793138 66.1522171,75.481138 66.4512171,75.223138 C66.8542171,74.873138 67.4072171,74.971138 67.8162171,75.229138 C68.8472171,75.883138 68.7122171,77.932138 67.5312171,78.332138" id="Fill-780" fill="#7014FC"></path>
                <path d="M65.8437171,76.162238 C65.8427171,76.166238 65.8417171,76.169238 65.8397171,76.173238 C65.8447171,76.159238 65.8457171,76.157238 65.8437171,76.162238" id="Fill-782" fill="#8334FC"></path>
                <path d="M62.3642171,74.802838 C62.8542171,74.276838 63.6472171,74.126838 64.2892171,74.464838 C64.5352171,74.594838 64.7352171,74.777838 64.8882171,75.011838 C64.9482171,75.135838 65.0082171,75.260838 65.0672171,75.385838 C65.1562171,75.664838 65.1692171,75.948838 65.1052171,76.235838 C65.0682171,76.644838 64.6972171,77.154838 64.3242171,77.354838 C63.9482171,77.556838 63.5762171,77.660838 63.1452171,77.563838 C62.7422171,77.472838 62.4292171,77.230838 62.1932171,76.899838 C61.7462171,76.269838 61.8492171,75.355838 62.3642171,74.802838" id="Fill-784" fill="#7014FC"></path>
                <path d="M63.6738171,72.564538 C63.6498171,72.589538 63.6238171,72.613538 63.5968171,72.636538 C63.5868171,72.644538 63.5758171,72.653538 63.5668171,72.662538 L63.2378171,72.928538 C62.9948171,73.076538 62.7328171,73.156538 62.4478171,73.169538 C62.3898171,73.177538 62.3308171,73.170538 62.2728171,73.167538 C61.8968171,73.144538 61.6468171,73.126538 61.3098171,72.935538 C60.6638171,72.574538 60.3058171,71.842538 60.4698171,71.109538 C60.6338171,70.376538 61.2788171,69.854538 62.0228171,69.814538 C62.4298171,69.793538 62.7558171,69.928538 63.1178171,70.084538 C63.4648171,70.233538 63.6688171,70.535538 63.8508171,70.840538 C64.1728171,71.380538 64.1238171,72.106538 63.6738171,72.564538" id="Fill-786" fill="#7014FC"></path>
                <path d="M64.7431171,37.044038 C63.8951171,36.771038 63.4191171,36.028038 63.8011171,35.191038 C63.9061171,34.961038 64.0771171,34.831038 64.2781171,34.686038 C63.8971171,34.960038 64.3651171,34.619038 64.4901171,34.524038 C64.5411171,34.486038 64.7441171,34.336038 64.6261171,34.436038 C64.7831171,34.307038 64.9371171,34.176038 65.1021171,34.056038 C65.1171171,34.043038 65.1351171,34.028038 65.1601171,34.007038 C65.2521171,33.931038 65.3411171,33.852038 65.4301171,33.772038 C65.7001171,33.529038 65.9751171,33.311038 66.3001171,33.138038 C66.9401171,32.796038 67.7321171,32.852038 68.2781171,33.366038 C68.9621171,34.012038 68.8851171,34.940038 68.3321171,35.609038 C67.8431171,36.203038 66.9601171,36.761038 66.1981171,36.976038 C65.7421171,37.104038 65.2071171,37.193038 64.7431171,37.044038" id="Fill-788" fill="#8200A6"></path>
                <path d="M63.9277171,42.797438 C63.4277171,42.059438 63.5097171,41.181438 64.3257171,40.757438 C64.5517171,40.640438 64.7667171,40.643438 65.0137171,40.653438 C64.5447171,40.634438 65.1237171,40.653438 65.2807171,40.656438 C65.3437171,40.657438 65.5957171,40.665438 65.4427171,40.670438 C65.6447171,40.665438 65.8477171,40.658438 66.0507171,40.665438 C66.0707171,40.664438 66.0937171,40.663438 66.1267171,40.662438 C66.2457171,40.659438 66.3657171,40.651438 66.4837171,40.642438 C66.8467171,40.618438 67.1977171,40.616438 67.5597171,40.679438 C68.2747171,40.805438 68.8647171,41.336438 68.9767171,42.078438 C69.1177171,43.008438 68.4857171,43.692438 67.6377171,43.878438 C66.8857171,44.044438 65.8467171,43.940438 65.1147171,43.639438 C64.6777171,43.460438 64.1997171,43.200438 63.9277171,42.797438" id="Fill-790" fill="#8200A6"></path>
                <path d="M33.1938171,14.366738 C33.0538171,14.231738 32.8988171,14.105738 32.7218171,13.990738 C31.7978171,13.386738 30.8578171,13.362738 30.0458171,13.716738 C29.3658171,13.761738 28.6868171,13.878738 28.0548171,14.003738 C26.0148171,14.405738 24.0138171,15.137738 22.0618171,15.851738 C20.3098171,16.492738 18.6018171,17.332738 16.9428171,18.204738 C14.8178171,19.321738 12.9558171,21.384738 13.4218171,24.022738 C13.7668171,25.980738 15.5298171,27.296738 17.3408171,27.641738 C19.7058171,28.091738 21.8628171,27.273738 24.0008171,26.264738 C26.0188171,25.310738 27.9888171,24.067738 29.7258171,22.649738 C30.6028171,21.931738 31.5078171,21.137738 32.1958171,20.226738 C31.7498171,20.817738 32.5338171,19.855738 32.6238171,19.754738 C32.9968171,19.331738 33.4308171,18.887738 33.6688171,18.361738 C33.8998171,17.849738 34.0428171,17.314738 34.0778171,16.788738 C34.8028171,15.864738 34.2048171,14.616738 33.1938171,14.366738" id="Fill-794" fill="#8D28D1"></path>
                <path d="M41.9736171,13.958538 C41.7356171,12.307538 40.5966171,10.906538 38.5606171,10.9095332 C37.0736171,10.912538 35.7256171,11.833538 35.2976171,13.072538 C34.8646171,13.277538 34.4476171,13.536538 34.0396171,13.809538 C33.1866171,14.382538 32.4296171,14.902538 31.7846171,15.669538 C31.2666171,16.284538 30.7826171,16.918538 30.3136171,17.563538 C30.2386171,17.669538 30.1626171,17.774538 30.0876171,17.879538 C30.4346171,17.591538 30.2996171,17.764538 29.6826171,18.400538 C29.4786171,18.639538 29.2816171,18.880538 29.0906171,19.127538 C28.5646171,19.804538 28.2206171,20.565538 27.8926171,21.332538 C27.0836171,23.221538 27.7466171,25.985538 29.8316171,27.009538 C33.9166171,29.016538 37.0786171,25.454538 38.7626171,22.564538 C39.4426171,21.395538 39.9976171,20.165538 40.6356171,18.976538 C41.4696171,17.419538 42.2276171,15.720538 41.9736171,13.958538" id="Fill-796" fill="#A622F1"></path>
                <path d="M72.3701171,13.529338 C70.6211171,12.290338 68.3081171,13.862338 66.9721171,14.882338 C65.3841171,16.093338 63.3491171,17.598338 62.5981171,19.399338 C62.5691171,19.407338 62.6261171,19.390338 62.5981171,19.399338 C61.2021171,19.823338 60.6321171,20.992338 60.9781171,22.424338 C61.3651171,24.020338 63.3041171,24.800338 64.8711171,24.118338 C66.2091171,23.536338 67.3681171,22.630338 68.4311171,21.697338 C69.3871171,20.859338 70.3971171,20.073338 71.3091171,19.191338 C72.8001171,17.749338 74.7401171,15.208338 72.3701171,13.529338" id="Fill-798" fill="#A606E7"></path>
                <path d="M67.4042171,16.786738 C66.6412171,16.873738 65.8322171,17.616738 65.1412171,18.428738 C64.9372171,18.668738 64.7512171,18.926738 64.5472171,19.165738 C64.5312171,19.179738 64.5102171,19.198738 64.4862171,19.222738 C64.4802171,19.225738 64.4762171,19.228738 64.4702171,19.231738 C63.9082171,19.448738 63.2422171,20.209738 63.1302171,20.929738 C62.8912171,22.453738 64.0282171,22.811738 65.2012171,22.063738 C65.6192171,21.796738 65.9852171,21.500738 66.3772171,21.126738 C66.4612171,21.046738 66.6652171,20.890738 66.7062171,20.849738 C66.7692171,20.813738 66.8332171,20.777738 66.8942171,20.747738 C67.4272171,20.488738 68.1352171,19.697738 68.3662171,18.998738 C68.4252171,18.818738 68.5042171,18.633738 68.5392171,18.455738 C68.7812171,17.249738 68.2672171,16.688738 67.4042171,16.786738" id="Fill-800" fill="#B700DC"></path>
                <path d="M61.8535171,13.420538 C60.3275171,12.191538 58.4545171,11.368538 56.5495171,10.663538 C55.2495171,10.182538 53.7645171,9.63353802 52.2795171,9.38853802 C51.4575171,8.70453802 50.4505171,8.24953802 49.0955171,8.30053802 C47.1245171,8.37653802 44.9965171,9.77553802 45.2005171,11.643538 C45.2795171,12.371538 45.3425171,12.961538 45.7865171,13.606538 C45.9255171,13.760538 46.0655171,13.915538 46.2055171,14.068538 C46.2115171,14.081538 46.2735171,14.158538 46.3955171,14.307538 C46.5765171,14.535538 46.7385171,14.775538 46.9115171,15.007538 C47.0945171,15.232538 47.2895171,15.449538 47.4875171,15.665538 C47.4735171,15.651538 47.6975171,15.898538 48.1625171,16.408538 C48.9635171,17.234538 49.9675171,17.864538 50.9755171,18.498538 C51.3245171,18.717538 51.6875171,18.920538 52.0445171,19.128538 C52.2575171,19.251538 52.4675171,19.376538 52.6765171,19.503538 C52.5025171,19.402538 52.5715171,19.461538 52.8825171,19.681538 C54.7825171,21.135538 56.6085171,22.215538 59.2385171,22.306538 C62.3475171,22.411538 64.2385171,20.705538 64.6125171,18.189538 C64.8765171,16.401538 63.2635171,14.554538 61.8535171,13.420538" id="Fill-802" fill="#942ADB"></path>
                <path d="M50.7744171,13.382438 C50.5664171,11.959438 49.9594171,10.607438 49.2244171,9.39343802 C48.4594171,8.12743802 47.4374171,6.59443802 46.2834171,5.67243802 C44.8744171,4.54543802 43.0264171,4.25743802 41.6504171,5.67943802 C40.8004171,6.55843802 40.4974171,7.94143802 40.8454171,9.11443802 C40.5864171,9.70443802 40.4534171,10.438438 40.3654171,11.034438 C40.1214171,12.684438 40.1864171,14.231438 40.5954171,15.852438 C40.6584171,16.084438 40.7324171,16.312438 40.8154171,16.537438 C40.8924171,16.757438 41.4094171,18.270438 41.1744171,17.414438 C41.3624171,18.098438 41.6984171,18.809438 42.1014171,19.391438 C43.3144171,21.142438 45.1334171,22.096438 47.2324171,21.528438 C50.6774171,20.598438 51.2204171,16.431438 50.7744171,13.382438" id="Fill-804" fill="#7014FC"></path>
                <path d="M42.4243171,6.75443802 C41.2063171,5.50443802 39.4953171,5.42043802 38.0173171,6.17543802 C37.6873171,6.32343802 37.3923171,6.52743802 37.1263171,6.78043802 C37.1083171,6.79243802 37.0903171,6.80543802 37.0673171,6.82243802 C36.2613171,6.56643802 35.4353171,6.39243802 34.6503171,6.27043802 C31.6173171,5.79743802 28.5503171,5.65243802 25.4943171,5.41243802 C22.9623171,5.21243802 20.3733171,4.94543802 17.8953171,5.71543802 C14.4733171,6.77943802 12.0583171,10.733438 14.2933171,14.120438 C17.7083171,19.294438 24.3223171,17.832438 29.2483171,16.589438 C33.9863171,15.394438 39.7343171,15.698438 43.0003171,11.292438 C43.9763171,9.97543802 43.4743171,7.83243802 42.4243171,6.75443802" id="Fill-808" fill="#7014FC"></path>
            </g>
        </g>
    </g>
</svg>