<?xml version="1.0" encoding="UTF-8"?>
<svg width="86px" height="114px" viewBox="0 0 86 114" version="1.1" xmlns="http://www.w3.org/2000/svg" xmlns:xlink="http://www.w3.org/1999/xlink">
    <title>Sidekick_7_b</title>
    <g id="Student-Environmrnt---New-Treatment" stroke="none" stroke-width="1" fill="none" fill-rule="evenodd">
        <g id="Avatars" transform="translate(-1144.000000, -577.000000)">
            <g id="Sidekick_7_b" transform="translate(1144.408597, 577.364407)">
                <path d="M84.2349027,70.6658927 C83.8679027,65.6598927 82.2419027,61.2108927 80.2509027,57.3158927 C79.7659027,56.3688927 79.2639027,55.4498927 78.7399027,54.5618927 C79.8849027,53.9228927 80.6589027,51.9298927 80.0249027,50.1038927 C78.0169027,44.3358927 73.8169027,41.1078927 69.9839027,38.8028927 C69.9229027,38.7678927 69.8629027,38.7358927 69.8039027,38.7098927 C69.2939027,37.7278927 68.7719027,36.7568927 68.2329027,35.8038927 C66.1289027,32.0878927 63.7409027,28.5198927 61.1019027,25.4808927 C61.5989027,25.0408927 62.0369027,24.4458927 62.3739027,23.6328927 C63.7219027,20.3798927 61.7999027,16.4648927 59.7639027,15.5198927 C56.9819027,14.2308927 53.8969027,14.7828927 50.9989027,15.5268927 C51.2099027,14.5468927 51.3849027,13.5408927 51.5309027,12.5148927 C51.8669027,10.1148927 49.8479027,8.3188927 48.5379027,9.3858927 C47.0009027,10.6368927 45.8229027,12.3778927 44.8269027,14.3658927 C44.4939027,15.0298927 44.1819027,15.7198927 43.8829027,16.4288927 C42.6459027,12.9218927 40.9949027,10.2658927 38.8379027,8.3478927 C37.1509027,7.1868927 34.9019027,9.0108927 34.5929027,11.6258927 C34.5559027,13.1218927 35.2539027,14.6328927 35.9529027,16.1458927 C31.2819027,16.7928927 25.4319027,15.5428927 22.3309027,22.2148927 C21.0319027,25.1808927 23.9159027,27.4878927 25.8659027,27.9048927 C25.1129027,28.6368927 24.1249027,28.9888927 23.1279027,29.7168927 C20.1059027,33.0198927 19.2259027,38.9888927 15.6649027,40.4108927 C14.8389027,41.0698927 14.0519027,41.7658927 13.3609027,42.3958927 C10.9689027,44.5728927 8.15590267,47.4458927 6.73790267,51.2308927 C6.25390267,52.5228927 6.23990267,54.5828927 7.06190267,55.5578927 C3.97990267,59.7738927 1.70590267,64.9158927 1.51790267,71.4348927 C1.46390267,73.3128927 2.49790267,75.0888927 3.71690267,75.1508927 C2.26390267,77.9228927 0.701902668,81.0448927 0.138902668,84.5168927 C-0.429097332,88.0348927 0.749902668,92.4808927 3.58390267,91.8378927 C4.12990267,91.7128927 4.63190267,91.4038927 5.09190267,90.9608927 C5.13090267,92.0888927 5.19290267,93.1848927 5.26990267,94.2158927 C5.60090267,98.6368927 6.32590267,103.649893 8.94990267,106.138893 C9.63390267,106.788893 10.8859027,106.552893 11.3949027,105.498893 C11.6849027,104.894893 11.9189027,104.290893 12.1009027,103.684893 C12.8699027,105.682893 13.8349027,107.686893 15.2449027,108.609893 C16.5959027,109.495893 18.3739027,109.324893 19.3399027,107.648893 C19.7539027,108.146893 20.1609027,108.591893 20.5339027,108.965893 C21.6529027,110.083893 22.9299027,111.086893 24.3009027,111.188893 C24.9649027,111.238893 25.5909027,111.125893 26.2179027,110.746893 C26.4559027,110.602893 26.6959027,110.455893 26.9069027,110.226893 C26.9199027,110.212893 26.9689027,110.158893 27.0329027,110.090893 C27.8129027,110.618893 28.6219027,111.032893 29.4799027,111.237893 C31.7879027,111.792893 33.4759027,110.760893 35.2879027,108.503893 C35.3379027,108.439893 35.3859027,108.366893 35.4299027,108.291893 C36.2369027,109.098893 37.0549027,109.804893 37.8419027,110.370893 C39.3609027,111.464893 41.2969027,112.287893 42.9639027,111.347893 C43.8129027,110.868893 44.6309027,110.169893 45.2239027,109.086893 C45.2809027,108.983893 45.3359027,108.878893 45.3909027,108.772893 C45.5499027,109.301893 45.7219027,109.793893 45.7759027,109.925893 C45.8479027,110.102893 45.9259027,110.276893 46.0059027,110.448893 C46.2329027,110.951893 46.4459027,111.252893 46.7759027,111.643893 C47.4059027,112.377893 48.3799027,112.203893 48.9709027,111.420893 C49.4589027,110.778893 49.6369027,109.933893 49.5809027,109.100893 C50.5599027,109.012893 51.5159027,108.531893 52.4279027,107.779893 C52.4139027,107.847893 52.3979027,107.916893 52.3879027,107.978893 C52.2649027,108.744893 52.3829027,109.371893 52.5709027,110.063893 C52.8089027,110.933893 53.4509027,111.801893 54.1349027,111.558893 C55.5229027,111.065893 55.8109027,110.331893 56.1079027,109.054893 C56.5859027,109.425893 57.1209027,109.635893 57.7189027,109.632893 C59.8459027,109.623893 61.9959027,107.551893 63.8659027,105.360893 C64.1189027,105.302893 64.3729027,105.244893 64.6249027,105.182893 C64.6609027,105.246893 64.6989027,105.303893 64.7359027,105.363893 C64.6189027,105.540893 64.5019027,105.714893 64.3849027,105.888893 C63.5499027,107.155893 63.8769027,109.468893 64.6959027,110.458893 C65.6719027,111.631893 66.8719027,111.153893 67.6969027,109.874893 C68.7149027,108.300893 69.6259027,106.389893 70.1909027,104.307893 C70.1909027,104.306893 70.1909027,104.306893 70.1919027,104.305893 C70.4969027,104.913893 70.8559027,105.428893 71.2899027,105.795893 C74.4049027,108.444893 76.3279027,102.478893 76.9949027,98.7738927 C77.2489027,97.3668927 77.4859027,95.9018927 77.6839027,94.4178927 C77.9929027,93.6738927 78.2759027,92.9168927 78.5269027,92.1488927 C78.5839027,92.2348927 78.6319027,92.3248927 78.6899027,92.4078927 C79.1859027,93.1518927 79.9339027,93.8728927 80.6909027,93.5068927 C80.8109027,93.4448927 80.9329027,93.3868927 81.0519027,93.3288927 C82.0169027,92.8588927 82.6209027,91.8738927 82.7499027,90.3168927 C83.2019027,84.7978927 82.6579027,78.9878927 81.3709027,73.6788927 C81.6219027,73.7558927 81.8759027,73.8198927 82.1379027,73.8538927 C83.1619027,73.9938927 84.3509027,72.2618927 84.2349027,70.6658927" id="Fill-810" fill="#B328EB"></path>
                <path d="M18.2427027,46.8719927 C18.2287027,46.8719927 18.2287027,46.8939927 18.2427027,46.8939927 C18.2577027,46.8939927 18.2577027,46.8719927 18.2427027,46.8719927" id="Fill-812" fill="#B035E4"></path>
                <path d="M17.9986027,28.5780927 C17.9846027,28.5780927 17.9846027,28.6000927 17.9986027,28.6000927 C18.0126027,28.6000927 18.0126027,28.5780927 17.9986027,28.5780927" id="Fill-814" fill="#2E5BF9"></path>
                <path d="M17.7525027,9.7064927 L17.7525027,9.7284927 L17.7525027,9.7064927 Z" id="Fill-816" fill="#4D7FDC"></path>
                <path d="M57.3013027,2.6087927 C56.9203027,0.502792704 54.6843027,-0.286207296 52.8933027,0.0907927041 C51.1163027,0.465792704 49.6213027,2.1797927 48.4403027,3.4847927 C46.8943027,5.1927927 45.4053027,6.8527927 44.3923027,8.9687927 C43.7553027,10.2957927 43.3753027,11.8797927 43.4853027,13.3807927 C43.2783027,13.5997927 43.0673027,13.8117927 42.8393027,14.0007927 C41.5093027,15.1027927 41.7383027,17.4187927 42.8463027,18.5557927 C44.3363027,20.0857927 46.6543027,19.6127927 47.7563027,17.8957927 C47.9173027,17.6447927 48.0773027,17.3967927 48.2453027,17.1507927 C48.3323027,17.0247927 48.4203027,16.8997927 48.5093027,16.7757927 C48.2403027,17.1657927 48.9853027,16.2037927 48.9343027,16.2507927 C49.7383027,15.3077927 50.7453027,14.5477927 51.6263027,13.6867927 C52.5303027,12.8047927 53.3063027,11.8167927 54.0623027,10.8027927 C55.7533027,8.5317927 57.8473027,5.6297927 57.3013027,2.6087927" id="Fill-818" fill="#942ADB"></path>
                <path d="M65.3443027,15.9027927 C65.3093027,15.3707927 65.2453027,14.9517927 64.9603027,14.4837927 C64.8653027,14.3187927 64.7483027,14.1677927 64.6213027,14.0237927 C64.5523027,13.9397927 64.4433027,13.8067927 64.2843027,13.6147927 C63.7663027,13.0657927 63.0803027,12.6557927 62.4013027,12.3097927 C60.9723027,11.5807927 59.3683027,11.0657927 57.7793027,10.7867927 C55.5293027,10.3927927 53.4123027,10.5547927 51.1983027,11.0337927 C50.6003027,11.1627927 50.0043027,11.2837927 49.4123027,11.4207927 C48.3073027,11.3007927 47.2263027,11.4237927 46.3093027,12.0797927 C45.9193027,12.3597927 45.5763027,12.6967927 45.3033027,13.0707927 C45.0983027,13.2177927 44.8913027,13.3777927 44.6763027,13.5547927 C44.1973027,13.9517927 44.3063027,14.5427927 44.6703027,14.9237927 C44.6803027,15.3977927 44.8233027,15.8817927 45.1363027,16.3497927 C46.6003027,18.5347927 49.5383027,18.7257927 51.9653027,19.3847927 C53.6853027,19.8517927 55.7173027,20.3577927 57.5053027,20.1617927 C60.0533027,19.8817927 65.5733027,19.4067927 65.3443027,15.9027927" id="Fill-820" fill="#A622F1"></path>
                <path d="M65.9087027,45.0408927 C65.7497027,44.7698927 65.5757027,44.5088927 65.3897027,44.2548927 C65.3917027,44.2538927 65.3927027,44.2518927 65.3937027,44.2508927 C66.1437027,43.2338927 65.6507027,41.8008927 64.8397027,41.0258927 C63.5327027,39.7808927 61.5637027,39.4158927 59.7607027,39.4418927 C59.9227027,38.6708927 59.4537027,37.7458927 58.8017027,37.3438927 C56.1707027,35.7228927 53.1617027,35.8658927 50.1577027,36.0338927 C49.3937027,35.8938927 48.6197027,35.7828927 47.8377027,35.6998927 C47.8467027,35.6758927 47.8587027,35.6538927 47.8687027,35.6288927 C48.3197027,34.5478927 47.2197027,33.5088927 46.2147027,33.6918927 C44.4967027,34.0038927 42.7047027,34.6048927 41.2717027,35.6828927 C41.0847027,35.7018927 40.8967027,35.7198927 40.7107027,35.7418927 C40.6647027,35.7078927 40.6187027,35.6748927 40.5687027,35.6468927 C39.1627027,34.8308927 37.5017027,33.8618927 35.6087027,33.9358927 C34.0237027,33.9968927 33.1177027,35.5008927 33.2917027,36.9998927 C33.2977027,37.0448927 33.3067027,37.0878927 33.3167027,37.1328927 C30.8637027,36.9298927 28.4087027,37.4468927 26.0087027,38.1558927 C24.7997027,38.5148927 24.5597027,40.0128927 25.2137027,40.8798927 C22.9277027,42.1168927 20.7837027,44.1548927 19.8307027,46.6078927 C19.4887027,47.4898927 19.9347027,48.7318927 20.9707027,48.8278927 C21.1217027,48.8418927 21.2677027,48.8428927 21.4107027,48.8368927 C21.4987027,49.2628927 21.6237027,49.6668927 21.7827027,50.0498927 C21.7547027,50.2598927 21.7357027,50.4688927 21.7327027,50.6788927 C21.7157027,52.0468927 22.1627027,52.4328927 23.2407027,53.2068927 C24.1037027,53.8258927 25.3047027,53.3038927 26.1387027,52.9308927 C26.7667027,53.2528927 27.4267027,53.5318927 28.0997027,53.7688927 C28.5477027,54.3278927 29.0757027,54.8078927 29.7177027,55.1478927 C30.5597027,55.5958927 31.5427027,55.7288927 32.2307027,55.1718927 C32.2327027,55.1698927 32.3307027,55.1798927 32.3787027,55.1868927 C32.9407027,56.1188927 34.0487027,55.8258927 34.0487027,55.8258927 C34.0487027,55.8258927 34.2917027,55.7338927 34.6237027,55.5188927 C36.2647027,55.6458927 38.0367027,56.1458927 41.0737027,56.6988927 C41.6377027,56.7288927 45.8347027,57.3108927 47.4387027,57.2858927 C49.4097027,57.2548927 54.3157027,56.4318927 56.2807027,56.1618927 C56.6777027,56.8738927 56.5097027,57.2548927 57.5667027,57.0758927 C58.6367027,56.8948927 58.1547027,56.6068927 58.7577027,55.8268927 C59.7527027,57.1308927 61.7007027,57.0748927 62.8897027,55.8938927 C63.4867027,55.3028927 63.8177027,54.4628927 64.0187027,53.5918927 C64.3377027,53.3658927 64.6377027,53.1178927 64.9217027,52.8478927 C66.3457027,53.4368927 67.8927027,52.8498927 68.5107027,51.2488927 C69.4847027,48.7198927 67.9427027,46.5708927 65.9087027,45.0408927" id="Fill-822" fill="#9A06D6"></path>
                <path d="M54.0943027,52.5677927 C51.5513027,51.2127927 50.8583027,47.3587927 52.3133027,44.9357927 C53.7613027,42.5267927 57.0283027,41.4107927 59.6143027,42.3027927 C61.8613027,43.0767927 63.2763027,45.3617927 63.0563027,47.7457927 C63.0573027,48.3487927 62.9153027,48.9507927 62.5873027,49.5197927 C62.5623027,49.5617927 62.5343027,49.6007927 62.5083027,49.6417927 C61.7043027,51.1987927 60.1523027,52.2447927 58.4913027,52.6967927 C57.0523027,53.2407927 55.4933027,53.3157927 54.0943027,52.5677927" id="Fill-824" fill="#FFFFFF"></path>
                <path d="M55.1968027,44.8060927 C55.0738027,44.8190927 54.9518027,44.8390927 54.8348027,44.8770927 C54.5268027,44.9790927 54.6348027,44.8560927 55.1968027,44.8060927" id="Fill-826" fill="#000000"></path>
                <path d="M55.2925027,44.7967927 C55.2565027,44.7987927 55.2295027,44.8027927 55.1965027,44.8057927 C55.2295027,44.8027927 55.2605027,44.7987927 55.2925027,44.7967927" id="Fill-828" fill="#000000"></path>
                <path d="M53.6382027,45.5535927 C55.7692027,43.5015927 59.4432027,45.9155927 58.1952027,48.7995927 C56.4252027,52.8945927 50.4192027,48.6535927 53.6382027,45.5535927 C54.1862027,45.0265927 53.1032027,46.0685927 53.6382027,45.5535927" id="Fill-830" fill="#333333"></path>
                <path d="M55.3306027,44.7948927 C55.3166027,44.7948927 55.3056027,44.7948927 55.2926027,44.7968927 C55.3056027,44.7948927 55.3166027,44.7948927 55.3306027,44.7948927" id="Fill-832" fill="#000000"></path>
                <polygon id="Fill-834" fill="#000000" points="55.6255027 44.7855927 55.6135027 44.7855927 55.6045027 44.7855927"></polygon>
                <path d="M55.6040027,44.7855927 C55.5040027,44.7855927 55.4140027,44.7895927 55.3310027,44.7945927 C55.4210027,44.7895927 55.5140027,44.7855927 55.6040027,44.7855927" id="Fill-836" fill="#333333"></path>
                <path d="M28.7290027,41.1468927 C31.2350027,39.4108927 34.6390027,39.8038927 37.0470027,41.4988927 C39.6731084,43.3478927 40.3740027,47.0848927 38.9490027,49.9308927 C38.4230027,50.9798927 37.6540027,51.8018927 36.7460027,52.3868927 C36.6030027,52.5248927 36.4370027,52.6468927 36.2420027,52.7398927 C35.8020027,52.9508927 35.3720027,53.1318927 34.8920027,53.1998927 C33.9030027,53.4598927 32.8460027,53.4948927 31.8070027,53.2888927 C30.7340027,53.0748927 29.7990027,52.6058927 29.0300027,51.9568927 C28.1910027,51.3608927 27.4750027,50.5838927 26.8720027,49.6548927 C25.0570027,46.8518927 26.1630027,42.9238927 28.7290027,41.1468927" id="Fill-838" fill="#FFFFFF"></path>
                <path d="M34.4292027,44.5203927 C34.2932027,44.5343927 34.1562027,44.5583927 34.0242027,44.6003927 C33.6802027,44.7133927 33.8012027,44.5763927 34.4292027,44.5203927" id="Fill-840" fill="#000000"></path>
                <path d="M34.5386027,44.5101927 C34.4976027,44.5131927 34.4676027,44.5171927 34.4296027,44.5201927 C34.4646027,44.5161927 34.5026027,44.5131927 34.5386027,44.5101927" id="Fill-842" fill="#000000"></path>
                <path d="M32.6851027,45.3582927 C35.0721027,43.0602927 39.1851027,45.7612927 37.7891027,48.9912927 C35.8061027,53.5752927 29.0821027,48.8282927 32.6851027,45.3582927 C33.2991027,44.7652927 32.0861027,45.9352927 32.6851027,45.3582927" id="Fill-844" fill="#333333"></path>
                <path d="M34.5816027,44.5076927 C34.5656027,44.5076927 34.5516027,44.5096927 34.5386027,44.5096927 C34.5516027,44.5096927 34.5656027,44.5076927 34.5816027,44.5076927" id="Fill-846" fill="#000000"></path>
                <path d="M34.9126027,44.4959927 C34.9066027,44.4959927 34.9006027,44.4979927 34.8966027,44.4979927 L34.8886027,44.4979927 C34.8966027,44.4979927 34.9016027,44.4959927 34.9126027,44.4959927" id="Fill-848" fill="#000000"></path>
                <path d="M34.8882027,44.4979927 C34.7752027,44.4989927 34.6732027,44.5029927 34.5812027,44.5079927 C34.6822027,44.5009927 34.7852027,44.4989927 34.8882027,44.4979927" id="Fill-850" fill="#000000"></path>
                <path d="M26.1236027,48.5516927 C26.1296027,49.7546927 28.0066027,51.8986927 29.6836027,52.6806927 C30.8446027,53.2226927 32.0196027,53.7046927 33.3386027,53.8156927 C35.2696027,53.9726927 36.5246027,53.4676927 37.8016027,52.7376927 C38.3766027,52.4076927 40.2106027,50.4036927 39.9016027,50.3666927 C35.5446027,49.7256927 32.1106027,49.6566927 28.2596027,48.9266927 C27.4476027,48.8146927 26.9356027,48.6576927 26.1236027,48.5516927" id="Fill-852" fill="#8200A6"></path>
                <path d="M63.2017027,48.8841927 C63.1947027,50.1041927 60.4077027,52.3091927 59.9167027,52.5611927 C58.7957027,53.0111927 55.6187027,53.5911927 54.3927027,53.2561927 C52.2007027,52.6581927 50.6217027,49.9721927 50.9107027,49.9481927 C54.7667027,50.0931927 60.7637027,49.5621927 63.2017027,48.8841927" id="Fill-854" fill="#8200A6"></path>
                <path d="M19.0982027,35.5116927 C18.2152027,34.2236927 17.0372027,33.1226927 15.8982027,32.0816927 C14.9892027,31.2526927 14.1032027,30.3446927 13.0872027,29.6526927 C11.8552027,28.8136927 10.2472027,28.4286927 8.87320267,29.0576927 C7.25520267,29.7986927 6.89720267,31.4536927 7.38320267,33.0826927 C7.76920267,34.3726927 8.96420267,35.5286927 9.86620267,36.4566927 C10.7802027,37.3986927 11.9262027,38.1666927 13.1022027,38.7086927 C14.2822027,39.2516927 15.6532027,39.6436927 16.9392027,39.7196927 C18.5832027,39.8176927 21.2022027,39.1796927 20.4262027,36.8816927 C20.1862027,36.1716927 19.6952027,35.7686927 19.0982027,35.5116927" id="Fill-856" fill="#A606E7"></path>
                <path d="M17.3228027,59.7303927 C17.4248027,58.9193927 16.9608027,57.8323927 16.0188027,57.9923927 C15.4608027,58.0873927 15.0778027,58.5663927 14.6778027,58.9353927 C14.2078027,59.3703927 13.7598027,59.9803927 13.4828027,60.5543927 C13.1318027,61.2823927 13.0858027,62.0603927 13.6418027,62.6923927 C13.9548027,63.0473927 14.3688027,63.2773927 14.8498027,63.2553927 C15.4058027,63.2303927 16.0898027,62.9963927 16.3608027,62.4343927 C16.7918027,61.5433927 17.1978027,60.7193927 17.3228027,59.7303927" id="Fill-858" fill="#A11EE9"></path>
                <path d="M17.6070027,74.7303927 C17.4620027,73.9263927 16.6950027,73.0273927 15.8440027,73.4613927 C15.3390027,73.7203927 15.1180027,74.2913927 14.8460027,74.7623927 C14.5280027,75.3183927 14.2840027,76.0343927 14.1900027,76.6653927 C14.0720027,77.4643927 14.2610027,78.2203927 14.9810027,78.6583927 C15.3850027,78.9033927 15.8490027,78.9993927 16.3020027,78.8343927 C16.8250027,78.6433927 17.4070027,78.2153927 17.4980027,77.5983927 C17.6430027,76.6203927 17.7850027,75.7113927 17.6070027,74.7303927" id="Fill-860" fill="#A11EE9"></path>
                <path d="M30.8365027,83.4393927 C30.5775027,82.4153927 29.6765027,81.3333927 28.8785027,81.9873927 C28.4035027,82.3773927 28.2585027,83.1393927 28.0505027,83.7793927 C27.8055027,84.5323927 27.6575027,85.4863927 27.6505027,86.3123927 C27.6435027,87.3603927 27.9405027,88.3193927 28.7285027,88.8073927 C29.1715027,89.0813927 29.6535027,89.1553927 30.0885027,88.8923927 C30.5895027,88.5893927 31.1185027,87.9733927 31.1245027,87.1643927 C31.1355027,85.8813927 31.1515027,84.6913927 30.8365027,83.4393927" id="Fill-862" fill="#A11EE9"></path>
                <path d="M60.8873027,91.8875927 C60.6073027,90.8675927 59.6833027,89.8065927 58.8983027,90.4785927 C58.4323027,90.8765927 58.3043027,91.6425927 58.1103027,92.2865927 C57.8803027,93.0455927 57.7543027,94.0015927 57.7653027,94.8275927 C57.7803027,95.8755927 58.0973027,96.8275927 58.8963027,97.2985927 C59.3453027,97.5635927 59.8283027,97.6265927 60.2573027,97.3555927 C60.7523027,97.0415927 61.2683027,96.4135927 61.2573027,95.6045927 C61.2403027,94.3225927 61.2303027,93.1315927 60.8873027,91.8875927" id="Fill-864" fill="#A11EE9"></path>
                <path d="M11.7515027,82.7967927 C11.3565027,81.9767927 10.2515027,81.2397927 9.44550267,81.9607927 C8.96750267,82.3897927 8.89150267,83.0687927 8.73150267,83.6567927 C8.54550267,84.3487927 8.48650267,85.1917927 8.56950267,85.8967927 C8.67350267,86.7907927 9.10350267,87.5467927 10.0215027,87.8007927 C10.5365027,87.9427927 11.0725027,87.9067927 11.5225027,87.5937927 C12.0395027,87.2337927 12.5525027,86.5997927 12.4715027,85.9087927 C12.3435027,84.8157927 12.2325027,83.7967927 11.7515027,82.7967927" id="Fill-866" fill="#A11EE9"></path>
                <path d="M75.1626027,88.4871927 C74.7076027,87.4851927 73.4886027,86.5561927 72.6486027,87.3941927 C72.1496027,87.8921927 72.0926027,88.7081927 71.9436027,89.4091927 C71.7676027,90.2351927 71.7376027,91.2471927 71.8526027,92.0991927 C71.9986027,93.1791927 72.4896027,94.1051927 73.4876027,94.4461927 C74.0486027,94.6371927 74.6256027,94.6131927 75.0966027,94.2541927 C75.6406027,93.8401927 76.1686027,93.0961927 76.0566027,92.2611927 C75.8766027,90.9391927 75.7196027,89.7101927 75.1626027,88.4871927" id="Fill-868" fill="#A11EE9"></path>
                <path d="M22.8824027,92.9227927 C22.1944027,92.0257927 20.8354027,91.3517927 20.3074027,92.3417927 C19.9934027,92.9307927 20.1664027,93.7437927 20.2264027,94.4637927 C20.2954027,95.3117927 20.5474027,96.3147927 20.8864027,97.1307927 C21.3174027,98.1647927 22.0164027,98.9807927 23.0134027,99.1187927 C23.5724027,99.1967927 24.0884027,99.0607927 24.4144027,98.6137927 C24.7924027,98.0987927 25.0654027,97.2627927 24.7334027,96.4637927 C24.2054027,95.1967927 23.7234027,94.0177927 22.8824027,92.9227927" id="Fill-870" fill="#A11EE9"></path>
                <path d="M25.1509027,60.0614927 C24.9479027,60.2154927 24.8049027,60.4464927 24.7329027,60.6954927 C24.7389027,60.6754927 24.6089027,61.5074927 24.6519027,61.2824927 C24.6139027,61.4814927 24.5929027,61.6724927 24.5739027,61.8704927 C24.5679027,61.8924927 24.5599027,61.9284927 24.5479027,61.9834927 C24.5139027,62.1654927 24.4869027,62.3484927 24.4679027,62.5334927 C24.5139027,62.1294927 24.4239027,62.8214927 24.4329027,62.9524927 C24.4999027,63.3924927 24.5029027,63.4874927 24.4439027,63.2364927 C24.4389027,63.4884927 24.4959027,63.7254927 24.6139027,63.9484927 C24.9709027,64.6124927 25.7909027,64.8654927 26.4359027,64.5034927 C27.4539027,63.9344927 27.6799027,62.7724927 27.5519027,61.6814927 C27.4099027,60.4724927 26.3509027,59.1464927 25.1509027,60.0614927" id="Fill-872" fill="#A11EE9"></path>
                <path d="M53.3414027,70.7694927 C53.1994027,71.0234927 53.1584027,71.3544927 53.2014027,71.6864927 C53.1984027,71.6614927 53.4624027,72.7424927 53.3994027,72.4474927 C53.4544027,72.7064927 53.5264027,72.9534927 53.6004027,73.2064927 C53.6054027,73.2354927 53.6134027,73.2834927 53.6284027,73.3544927 C53.6794027,73.5924927 53.7394027,73.8304927 53.8094027,74.0664927 C53.6614027,73.5474927 53.9014027,74.4394927 53.9744027,74.6014927 C54.2574027,75.1324927 54.3074027,75.2494927 54.1234027,74.9544927 C54.2394027,75.2704927 54.4144027,75.5514927 54.6494027,75.7944927 C55.3534027,76.5184927 56.3504027,76.5904927 56.8644027,75.9454927 C57.6774027,74.9294927 57.3574027,73.4084927 56.6914027,72.0814927 C55.9534027,70.6094927 54.1814027,69.2654927 53.3414027,70.7694927" id="Fill-874" fill="#A11EE9"></path>
                <path d="M15.0083027,48.1107927 C14.9433027,47.2227927 14.3333027,46.5837927 13.4303027,46.7577927 C13.1813027,46.8057927 13.0143027,46.9417927 12.8263027,47.1037927 C13.1823027,46.7977927 12.7403027,47.1717927 12.6193027,47.2707927 C12.5703027,47.3107927 12.3773027,47.4727927 12.5013027,47.3817927 C12.3393027,47.5047927 12.1763027,47.6237927 12.0203027,47.7557927 C12.0043027,47.7667927 11.9853027,47.7807927 11.9593027,47.7997927 C11.8633027,47.8717927 11.7653027,47.9397927 11.6663027,48.0067927 C11.3673027,48.2127927 11.0903027,48.4277927 10.8463027,48.7027927 C10.3623027,49.2447927 10.2303027,50.0277927 10.6013027,50.6787927 C11.0683027,51.4957927 11.9873027,51.6397927 12.7683027,51.2597927 C13.4613027,50.9237927 14.2113027,50.1977927 14.5993027,49.5077927 C14.8303027,49.0957927 15.0433027,48.5967927 15.0083027,48.1107927" id="Fill-876" fill="#A11EE9"></path>
                <path d="M24.3355027,44.3148927 C25.1835027,44.0418927 25.6605027,43.2998927 25.2775027,42.4618927 C25.1725027,42.2318927 25.0015027,42.1018927 24.8005027,41.9568927 C25.1815027,42.2308927 24.7135027,41.8898927 24.5895027,41.7948927 C24.5375027,41.7568927 24.3345027,41.6068927 24.4525027,41.7068927 C24.2955027,41.5778927 24.1415027,41.4468927 23.9765027,41.3268927 C23.9615027,41.3148927 23.9435027,41.2988927 23.9185027,41.2778927 C23.8265027,41.2018927 23.7375027,41.1228927 23.6485027,41.0428927 C23.3785027,40.7998927 23.1035027,40.5818927 22.7785027,40.4088927 C22.1385027,40.0668927 21.3465027,40.1228927 20.8015027,40.6378927 C20.1165027,41.2828927 20.1935027,42.2108927 20.7465027,42.8798927 C21.2365027,43.4748927 22.1195027,44.0318927 22.8805027,44.2468927 C23.3365027,44.3748927 23.8715027,44.4638927 24.3355027,44.3148927" id="Fill-878" fill="#A900D7"></path>
                <path d="M25.1519027,50.0682927 C25.6509027,49.3302927 25.5699027,48.4522927 24.7529027,48.0282927 C24.5269027,47.9112927 24.3119027,47.9142927 24.0649027,47.9242927 C24.5339027,47.9052927 23.9549027,47.9242927 23.7989027,47.9272927 C23.7349027,47.9282927 23.4829027,47.9362927 23.6369027,47.9422927 C23.4339027,47.9372927 23.2319027,47.9292927 23.0279027,47.9362927 C23.0079027,47.9352927 22.9849027,47.9342927 22.9519027,47.9332927 C22.8339027,47.9302927 22.7139027,47.9222927 22.5949027,47.9132927 C22.2329027,47.8892927 21.8809027,47.8872927 21.5189027,47.9502927 C20.8039027,48.0762927 20.2149027,48.6072927 20.1019027,49.3492927 C19.9609027,50.2792927 20.5929027,50.9632927 21.4409027,51.1492927 C22.1929027,51.3152927 23.2319027,51.2112927 23.9639027,50.9102927 C24.4009027,50.7312927 24.8789027,50.4712927 25.1519027,50.0682927" id="Fill-880" fill="#A900D7"></path>
                <path d="M24.3355027,44.3148927 C25.1835027,44.0418927 25.6605027,43.2998927 25.2775027,42.4618927 C25.1725027,42.2318927 25.0015027,42.1018927 24.8005027,41.9568927 C25.1815027,42.2308927 24.7135027,41.8898927 24.5895027,41.7948927 C24.5375027,41.7568927 24.3345027,41.6068927 24.4525027,41.7068927 C24.2955027,41.5778927 24.1415027,41.4468927 23.9765027,41.3268927 C23.9615027,41.3148927 23.9435027,41.2988927 23.9185027,41.2778927 C23.8265027,41.2018927 23.7375027,41.1228927 23.6485027,41.0428927 C23.3785027,40.7998927 23.1035027,40.5818927 22.7785027,40.4088927 C22.1385027,40.0668927 21.3465027,40.1228927 20.8015027,40.6378927 C20.1165027,41.2828927 20.1935027,42.2108927 20.7465027,42.8798927 C21.2365027,43.4748927 22.1195027,44.0318927 22.8805027,44.2468927 C23.3365027,44.3748927 23.8715027,44.4638927 24.3355027,44.3148927" id="Fill-882" fill="#8200A6"></path>
                <path d="M25.1519027,50.0682927 C25.6509027,49.3302927 25.5699027,48.4522927 24.7529027,48.0282927 C24.5269027,47.9112927 24.3119027,47.9142927 24.0649027,47.9242927 C24.5339027,47.9052927 23.9549027,47.9242927 23.7989027,47.9272927 C23.7349027,47.9282927 23.4829027,47.9362927 23.6369027,47.9422927 C23.4339027,47.9372927 23.2319027,47.9292927 23.0279027,47.9362927 C23.0079027,47.9352927 22.9849027,47.9342927 22.9519027,47.9332927 C22.8339027,47.9302927 22.7139027,47.9222927 22.5949027,47.9132927 C22.2329027,47.8892927 21.8809027,47.8872927 21.5189027,47.9502927 C20.8039027,48.0762927 20.2149027,48.6072927 20.1019027,49.3492927 C19.9609027,50.2792927 20.5929027,50.9632927 21.4409027,51.1492927 C22.1929027,51.3152927 23.2319027,51.2112927 23.9639027,50.9102927 C24.4009027,50.7312927 24.8789027,50.4712927 25.1519027,50.0682927" id="Fill-884" fill="#8200A6"></path>
                <path d="M74.3677027,49.9447927 C74.2577027,49.5777927 74.1377027,49.2707927 73.8857027,48.9737927 C73.8377027,48.9187927 73.7907027,48.8607927 73.7437027,48.8037927 C73.8217027,48.8937927 73.5907027,48.5897927 73.5827027,48.5787927 C73.3967027,48.3237927 73.3167027,48.2157927 73.3397027,48.2537927 C73.2857027,48.1717927 73.2347027,48.0857927 73.1877027,47.9987927 C73.1577027,47.9227927 73.1217027,47.8517927 73.0767027,47.7837927 C73.0267027,47.7167927 72.9767027,47.6507927 72.9287027,47.5847927 C72.9207027,47.5717927 72.9127027,47.5587927 72.8997027,47.5377927 C72.5427027,46.9197927 71.7327027,46.8367927 71.2357027,47.3197927 C70.0367027,48.4857927 70.8917027,50.9707927 72.2237027,51.6477927 C73.3137027,52.2007927 74.7707027,51.2887927 74.3677027,49.9447927" id="Fill-886" fill="#A11EE9"></path>
                <path d="M71.9029027,59.2283927 C71.7749027,58.6093927 71.4579027,58.0953927 71.1999027,57.5313927 C70.8629027,56.7943927 70.2569027,56.3443927 69.4679027,56.6893927 C68.4019027,57.1573927 68.6729027,58.7433927 68.6749027,59.6833927 C68.6779027,60.6063927 69.4239027,61.3753927 70.3219027,61.3743937 C71.4389027,61.3723927 72.1239027,60.2953927 71.9029027,59.2283927" id="Fill-888" fill="#A11EE9"></path>
                <path d="M62.3951027,63.7215927 C62.2671027,63.1025927 61.9501027,62.5885927 61.6921027,62.0245927 C61.3551027,61.2875927 60.7481027,60.8375927 59.9601027,61.1825927 C58.8941027,61.6505927 59.1651027,63.2365927 59.1671027,64.1765927 C59.1701027,65.0995927 59.9161027,65.8675927 60.8131027,65.8675927 C61.9311027,65.8655927 62.6161027,64.7875927 62.3951027,63.7215927" id="Fill-890" fill="#A11EE9"></path>
                <path d="M71.8394027,76.0535927 C71.6814027,75.2855927 71.2884027,74.6475927 70.9704027,73.9465927 C70.5534027,73.0325927 69.8024027,72.4735927 68.8274027,72.9025927 C67.5084027,73.4825927 67.8424027,75.4505927 67.8464027,76.6185927 C67.8504027,77.7655927 68.7734027,78.7195927 69.8824027,78.7175958 C71.2654027,78.7155927 72.1124027,77.3785927 71.8394027,76.0535927" id="Fill-892" fill="#A11EE9"></path>
                <path d="M17.8130027,35.2166927 C16.7640027,34.4546927 15.7490027,33.6006927 14.5430027,33.1576927 C13.5860027,32.8066927 11.9170027,32.6596927 11.8320027,34.0756927 C11.7580027,35.3206927 12.6390027,36.0006927 13.6210027,36.5596927 C13.9990027,36.8886927 14.4260027,37.1666927 14.8550027,37.4116927 C15.7900027,37.9456927 17.0470027,37.8416927 17.8130027,37.2056927 C18.3630027,36.7496927 18.5280027,35.7356927 17.8130027,35.2166927" id="Fill-894" fill="#B700DC"></path>
                <path d="M22.3628027,78.0428927 C21.7858027,75.4608927 19.8238027,73.2258927 18.3838027,71.0838927 C17.2008027,69.3228927 15.5538027,66.8268927 13.8308027,65.5158927 C12.0138027,64.1338927 9.94080267,64.9678927 9.78080267,67.3368927 C9.68180267,68.7978927 10.0088027,72.5508927 10.9668027,75.3568927 C11.7568027,77.6668927 12.9538027,80.0538927 14.4078027,81.9948927 C15.7668027,83.8108927 17.9648027,85.1178927 20.2268027,84.0928927 C22.6668027,82.9868927 22.8798027,80.3588927 22.3628027,78.0428927" id="Fill-896" fill="#8A05C0"></path>
                <path d="M18.0386027,82.9071927 C17.4866027,82.7761927 16.7956027,82.9271927 16.5106027,83.4771927 C16.3406027,83.8061927 16.1826027,84.2141927 16.3176027,84.5911927 C16.3666027,84.7291927 16.4196027,84.8671927 16.4766027,85.0041927 C16.2336027,84.4441927 16.5486027,85.1841927 16.5626027,85.2261927 C16.7246027,85.5801927 16.9336027,85.8751927 17.2556027,86.1031927 C17.6906027,86.4141927 18.2306027,86.2641927 18.6146027,85.9691927 C19.5796027,85.2211927 19.2516027,83.1951927 18.0386027,82.9071927" id="Fill-898" fill="#6813E9"></path>
                <path d="M16.5630027,85.2264927 C16.5620027,85.2224927 16.5590027,85.2194927 16.5580027,85.2154927 C16.5640027,85.2294927 16.5650027,85.2304927 16.5630027,85.2264927" id="Fill-900" fill="#7930E9"></path>
                <path d="M22.5269027,82.4950927 C22.0899027,81.9240927 21.3149027,81.6980927 20.6439027,81.9720927 C20.3849027,82.0770927 20.1689027,82.2390927 19.9939027,82.4570927 C19.9229027,82.5750927 19.8509027,82.6940927 19.7799027,82.8120927 C19.6639027,83.0820927 19.6239027,83.3630927 19.6579027,83.6540927 C19.6559027,84.0640927 19.9749027,84.6090927 20.3269027,84.8450927 C20.6819027,85.0820927 21.0429027,85.2230927 21.4789027,85.1670927 C21.8889027,85.1160927 22.2249027,84.9060927 22.4919027,84.5990927 C22.9989027,84.0160927 22.9849027,83.0960927 22.5269027,82.4950927" id="Fill-902" fill="#6813E9"></path>
                <path d="M24.5044027,79.9774927 C24.4944027,79.9434927 24.4834027,79.9114927 24.4704027,79.8774927 C24.4654027,79.8654927 24.4604027,79.8534927 24.4554027,79.8404927 C24.4004027,79.7104927 24.3454027,79.5814927 24.2904027,79.4524927 C24.1454027,79.2064927 23.9504027,79.0124927 23.7054027,78.8684927 C23.6574027,78.8334927 23.6034027,78.8124927 23.5494027,78.7884927 C23.2064027,78.6324927 22.9774027,78.5324927 22.5894027,78.5404927 C21.8504027,78.5594927 21.1904027,79.0374927 20.9924027,79.7614927 C20.7944027,80.4864927 21.1194027,81.2494927 21.7574027,81.6334927 C22.1074027,81.8424927 22.4584027,81.8754927 22.8514027,81.9084927 C23.2284027,81.9394927 23.5494027,81.7684927 23.8544027,81.5824927 C24.3914027,81.2564927 24.6884027,80.5934927 24.5044027,79.9774927" id="Fill-904" fill="#6813E9"></path>
                <path d="M64.2447027,84.2323927 C66.3967027,85.4733927 68.7117027,84.3863927 70.2417027,82.7113927 C71.8777027,80.9203927 73.3017027,78.6623927 74.3117027,76.4393927 C75.5407027,73.7403927 76.2287027,70.0363927 76.2727027,68.5743927 C76.3447027,66.2003927 74.3627027,65.1683927 72.4207027,66.3673927 C70.5777027,67.5033927 68.6957027,69.8273927 67.3467027,71.4633927 C65.7057027,73.4563927 63.5347027,75.4893927 62.7097027,78.0033927 C61.9697027,80.2583927 61.9247027,82.8943927 64.2447027,84.2323927" id="Fill-906" fill="#8A05C0"></path>
                <path d="M67.5308027,86.3231927 C66.9948027,86.5051927 66.2928027,86.4201927 65.9568027,85.8981927 C65.7568027,85.5871927 65.5598027,85.1961927 65.6598027,84.8081927 C65.6958027,84.6661927 65.7348027,84.5231927 65.7788027,84.3831927 C65.5908027,84.9621927 65.8338027,84.1961927 65.8438027,84.1531927 C65.9708027,83.7841927 66.1518027,83.4721927 66.4508027,83.2141927 C66.8548027,82.8641927 67.4078027,82.9621927 67.8158027,83.2201927 C68.8478027,83.8741927 68.7128027,85.9231927 67.5308027,86.3231927" id="Fill-908" fill="#7014FC"></path>
                <path d="M65.8443027,84.1532927 C65.8433027,84.1572927 65.8413027,84.1602927 65.8403027,84.1642927 C65.8453027,84.1502927 65.8453027,84.1482927 65.8443027,84.1532927" id="Fill-910" fill="#8334FC"></path>
                <path d="M62.3638027,82.7938927 C62.8538027,82.2678927 63.6478027,82.1178927 64.2898027,82.4558927 C64.5358027,82.5858927 64.7348027,82.7688927 64.8878027,83.0028927 C64.9478027,83.1268927 65.0078027,83.2518927 65.0668027,83.3768927 C65.1558027,83.6558927 65.1698027,83.9398927 65.1058027,84.2268927 C65.0688027,84.6358927 64.6978027,85.1458927 64.3248027,85.3458927 C63.9478027,85.5478927 63.5758027,85.6518927 63.1458027,85.5548927 C62.7428027,85.4638927 62.4298027,85.2218927 62.1938027,84.8908927 C61.7468027,84.2608927 61.8488027,83.3468927 62.3638027,82.7938927" id="Fill-912" fill="#7014FC"></path>
                <path d="M63.6734027,80.5555927 C63.6504027,80.5805927 63.6234027,80.6045927 63.5974027,80.6275927 C63.5874027,80.6355927 63.5764027,80.6445927 63.5664027,80.6535927 C63.4574027,80.7425927 63.3474027,80.8305927 63.2384027,80.9195927 C62.9954027,81.0675927 62.7324027,81.1475927 62.4474027,81.1605927 C62.3904027,81.1685927 62.3314027,81.1615927 62.2724027,81.1585927 C61.8974027,81.1355927 61.6474027,81.1175927 61.3094027,80.9265927 C60.6644027,80.5655927 60.3054027,79.8335927 60.4704027,79.1005927 C60.6344027,78.3675927 61.2784027,77.8455927 62.0234027,77.8055927 C62.4294027,77.7845927 62.7554027,77.9195927 63.1174027,78.0755927 C63.4654027,78.2245927 63.6684027,78.5265927 63.8514027,78.8315927 C64.1734027,79.3715927 64.1244027,80.0975927 63.6734027,80.5555927" id="Fill-914" fill="#7014FC"></path>
                <path d="M64.7437027,45.0350927 C63.8947027,44.7620927 63.4187027,44.0190927 63.8017027,43.1820927 C63.9067027,42.9520927 64.0777027,42.8220927 64.2787027,42.6770927 C63.8967027,42.9510927 64.3657027,42.6100927 64.4897027,42.5150927 C64.5407027,42.4770927 64.7437027,42.3270927 64.6267027,42.4270927 C64.7827027,42.2980927 64.9377027,42.1670927 65.1027027,42.0470927 C65.1177027,42.0340927 65.1357027,42.0190927 65.1607027,41.9980927 C65.2527027,41.9220927 65.3417027,41.8430927 65.4297027,41.7630927 C65.7007027,41.5200927 65.9747027,41.3020927 66.2997027,41.1290927 C66.9407027,40.7870927 67.7317027,40.8430927 68.2777027,41.3570927 C68.9627027,42.0030927 68.8857027,42.9310927 68.3327027,43.6000927 C67.8427027,44.1940927 66.9597027,44.7520927 66.1977027,44.9670927 C65.7427027,45.0950927 65.2077027,45.1840927 64.7437027,45.0350927" id="Fill-916" fill="#8200A6"></path>
                <path d="M63.9273027,50.7884927 C63.4273027,50.0504927 63.5093027,49.1724927 64.3263027,48.7484927 C64.5513027,48.6314927 64.7663027,48.6344927 65.0143027,48.6444927 C64.5443027,48.6254927 65.1233027,48.6444927 65.2803027,48.6474927 C65.3443027,48.6484927 65.5963027,48.6564927 65.4423027,48.6614927 C65.6453027,48.6564927 65.8473027,48.6494927 66.0513027,48.6564927 C66.0713027,48.6554927 66.0943027,48.6544927 66.1263027,48.6534927 C66.2453027,48.6504927 66.3653027,48.6424927 66.4843027,48.6334927 C66.8463027,48.6094927 67.1983027,48.6074927 67.5593027,48.6704927 C68.2753027,48.7964927 68.8643027,49.3274927 68.9773027,50.0694927 C69.1183027,50.9994927 68.4863027,51.6834927 67.6383027,51.8694927 C66.8863027,52.0354927 65.8473027,51.9314927 65.1143027,51.6304927 C64.6773027,51.4514927 64.2003027,51.1914927 63.9273027,50.7884927" id="Fill-918" fill="#8200A6"></path>
                <path d="M33.1939027,22.3577927 C33.0539027,22.2227927 32.8979027,22.0967927 32.7219027,21.9817927 C31.7979027,21.3777927 30.8579027,21.3537927 30.0469027,21.7077927 C29.3659027,21.7527927 28.6869027,21.8697927 28.0549027,21.9947927 C26.0149027,22.3967927 24.0129027,23.1287927 22.0619027,23.8427927 C20.3099027,24.4837927 18.6019027,25.3237927 16.9429027,26.1957927 C14.8169027,27.3127927 12.9569027,29.3757927 13.4219027,32.0137927 C13.7669027,33.9717927 15.5299027,35.2877927 17.3399027,35.6327927 C19.7059027,36.0827927 21.8639027,35.2647927 24.0009027,34.2557927 C26.0189027,33.3017927 27.9889027,32.0587927 29.7259027,30.6407927 C30.6029027,29.9227927 31.5069027,29.1287927 32.1959027,28.2177927 C31.7499027,28.8087927 32.5339027,27.8467927 32.6239027,27.7457927 C32.9979027,27.3227927 33.4299027,26.8787927 33.6689027,26.3527927 C33.8999027,25.8407927 34.0429027,25.3057927 34.0789027,24.7797927 C34.8029027,23.8557927 34.2049027,22.6077927 33.1939027,22.3577927" id="Fill-922" fill="#8D28D1"></path>
                <path d="M41.9742027,21.9495927 C41.7362027,20.2985927 40.5972027,18.8975927 38.5602027,18.9005879 C37.0742027,18.9035927 35.7262027,19.8245927 35.2972027,21.0635927 C34.8652027,21.2685927 34.4482027,21.5275927 34.0402027,21.8005927 C33.1872027,22.3735927 32.4302027,22.8935927 31.7852027,23.6605927 C31.2672027,24.2755927 30.7832027,24.9095927 30.3142027,25.5545927 C30.2392027,25.6605927 30.1622027,25.7655927 30.0872027,25.8705927 C30.4352027,25.5825927 30.2992027,25.7555927 29.6822027,26.3915927 C29.4792027,26.6305927 29.2822027,26.8715927 29.0902027,27.1185927 C28.5652027,27.7955927 28.2202027,28.5565927 27.8922027,29.3235927 C27.0832027,31.2125927 27.7462027,33.9765927 29.8322027,35.0005927 C33.9162027,37.0075927 37.0782027,33.4455927 38.7622027,30.5555927 C39.4432027,29.3865927 39.9972027,28.1565927 40.6352027,26.9675927 C41.4692027,25.4105927 42.2282027,23.7115927 41.9742027,21.9495927" id="Fill-924" fill="#A622F1"></path>
                <path d="M72.3707027,21.5203927 C70.6207027,20.2813927 68.3077027,21.8533927 66.9717027,22.8733927 C65.3837027,24.0843927 63.3497027,25.5893927 62.5977027,27.3903927 C62.5687027,27.3983927 62.6257027,27.3813927 62.5977027,27.3903927 C61.2027027,27.8143927 60.6317027,28.9833927 60.9787027,30.4153927 C61.3657027,32.0113927 63.3037027,32.7913927 64.8717027,32.1093927 C66.2097027,31.5273927 67.3677027,30.6213927 68.4307027,29.6883927 C69.3867027,28.8503927 70.3977027,28.0643927 71.3087027,27.1823927 C72.7997027,25.7403927 74.7397027,23.1993927 72.3707027,21.5203927" id="Fill-926" fill="#A606E7"></path>
                <path d="M67.4048027,24.7777927 C66.6418027,24.8647927 65.8318027,25.6077927 65.1408027,26.4197927 C64.9378027,26.6597927 64.7508027,26.9177927 64.5478027,27.1567927 C64.5318027,27.1707927 64.5108027,27.1897927 64.4858027,27.2137927 C64.4798027,27.2167927 64.4758027,27.2197927 64.4708027,27.2227927 C63.9078027,27.4397927 63.2418027,28.2007927 63.1298027,28.9207927 C62.8918027,30.4447927 64.0288027,30.8027927 65.2008027,30.0547927 C65.6188027,29.7877927 65.9848027,29.4917927 66.3778027,29.1177927 C66.4618027,29.0377927 66.6648027,28.8817927 66.7068027,28.8407927 C66.7698027,28.8047927 66.8328027,28.7687927 66.8938027,28.7387927 C67.4278027,28.4797927 68.1358027,27.6887927 68.3658027,26.9897927 C68.4258027,26.8097927 68.5038027,26.6247927 68.5398027,26.4467927 C68.7818027,25.2407927 68.2678027,24.6797927 67.4048027,24.7777927" id="Fill-928" fill="#B700DC"></path>
                <path d="M61.8540027,21.4115927 C60.3280027,20.1825927 58.4540027,19.3595927 56.5500027,18.6545927 C55.2500027,18.1735927 53.7650027,17.6245927 52.2800027,17.3795927 C51.4570027,16.6955927 50.4510027,16.2405927 49.0960027,16.2915927 C47.1250027,16.3675927 44.9960027,17.7665927 45.2000027,19.6345927 C45.2800027,20.3625927 45.3420027,20.9525927 45.7870027,21.5975927 C45.9260027,21.7515927 46.0650027,21.9065927 46.2050027,22.0595927 C46.2110027,22.0725927 46.2730027,22.1495927 46.3950027,22.2985927 C46.5770027,22.5265927 46.7380027,22.7665927 46.9120027,22.9985927 C47.0950027,23.2235927 47.2890027,23.4405927 47.4870027,23.6565927 C47.4730027,23.6425927 47.6980027,23.8895927 48.1630027,24.3995927 C48.9640027,25.2255927 49.9680027,25.8555927 50.9750027,26.4895927 C51.3240027,26.7085927 51.6870027,26.9115927 52.0450027,27.1195927 C52.2570027,27.2425927 52.4670027,27.3675927 52.6760027,27.4945927 C52.5020027,27.3935927 52.5720027,27.4525927 52.8830027,27.6725927 C54.7830027,29.1265927 56.6090027,30.2065927 59.2380027,30.2975927 C62.3480027,30.4025927 64.2390027,28.6965927 64.6120027,26.1805927 C64.8770027,24.3925927 63.2630027,22.5455927 61.8540027,21.4115927" id="Fill-930" fill="#942ADB"></path>
                <path d="M50.7749027,21.3734927 C50.5659027,19.9504927 49.9589027,18.5984927 49.2239027,17.3844927 C48.4589027,16.1184927 47.4379027,14.5854927 46.2839027,13.6634927 C44.8749027,12.5364927 43.0269027,12.2484927 41.6509027,13.6704927 C40.7999027,14.5494927 40.4979027,15.9324927 40.8449027,17.1054927 C40.5859027,17.6954927 40.4539027,18.4294927 40.3659027,19.0254927 C40.1219027,20.6754927 40.1859027,22.2224927 40.5949027,23.8434927 C40.6589027,24.0754927 40.7319027,24.3034927 40.8159027,24.5284927 C40.8919027,24.7484927 41.4099027,26.2614927 41.1749027,25.4054927 C41.3629027,26.0894927 41.6989027,26.8004927 42.1009027,27.3824927 C43.3139027,29.1334927 45.1329027,30.0874927 47.2329027,29.5194927 C50.6769027,28.5894927 51.2199027,24.4224927 50.7749027,21.3734927" id="Fill-932" fill="#7014FC"></path>
                <path d="M44.1929027,13.7747927 C42.1509027,10.6927927 39.8389027,7.7397927 36.8099027,5.6427927 C33.8539027,3.5947927 28.0899027,2.1527927 25.9489027,6.0957927 C23.6069027,10.4077927 29.0429027,13.6037927 31.7869027,15.6157927 C33.4389027,16.8257927 36.6709027,18.8297927 39.1479027,18.5297927 C39.9379027,19.1627927 40.9439027,19.4377927 42.0959027,19.1087927 C44.1769027,18.5157927 45.4909027,15.7327927 44.1929027,13.7747927" id="Fill-934" fill="#7014FC"></path>
                <path d="M42.4244027,14.7454927 C41.2064027,13.4954927 39.4954027,13.4114927 38.0174027,14.1664927 C37.6884027,14.3144927 37.3924027,14.5184927 37.1264027,14.7714927 C37.1084027,14.7834927 37.0904027,14.7964927 37.0674027,14.8134927 C36.2614027,14.5574927 35.4354027,14.3834927 34.6514027,14.2614927 C31.6174027,13.7884927 28.5504027,13.6434927 25.4934027,13.4034927 C22.9624027,13.2034927 20.3734027,12.9364927 17.8954027,13.7064927 C14.4744027,14.7704927 12.0584027,18.7244927 14.2934027,22.1114927 C17.7084027,27.2854927 24.3224027,25.8234927 29.2474027,24.5804927 C33.9864027,23.3854927 39.7354027,23.6894927 43.0004027,19.2834927 C43.9764027,17.9664927 43.4744027,15.8234927 42.4244027,14.7454927" id="Fill-936" fill="#7014FC"></path>
                <path d="M33.2769027,57.6073927 C36.1619027,57.5363927 39.3579027,59.1733927 41.5549027,61.1623927 C43.3809027,62.8153927 42.2079027,66.6363927 39.7569027,66.5843927 C37.2119027,66.5283927 33.9159027,65.6983927 31.4969027,64.2313927 C28.4159027,62.3633927 30.1279027,57.6843927 33.2769027,57.6073927" id="Fill-938" fill="#1B1464"></path>
                <path d="M29.7886027,61.6356927 C29.7886027,61.6356927 29.4706027,64.0586927 33.9716027,65.5946927 C37.5796027,66.8256927 40.2826027,66.5696927 40.2826027,66.5696927 C40.2176027,66.0086927 39.0116027,64.2236927 36.4346027,62.6986927 C33.0666027,60.7066927 29.7886027,61.6356927 29.7886027,61.6356927" id="Fill-940" fill="#992897"></path>
                <path d="M33.5220027,57.5853927 C35.8500027,57.6963927 37.4580027,58.5003927 37.4580027,58.5003927 C37.4580027,58.5003927 37.1850027,60.1733927 35.8770027,60.6333927 C35.1290027,60.8973927 34.1720027,61.1483927 33.1130027,60.4463927 C31.5960027,59.4423927 31.4530027,58.2653927 31.4530027,58.2653927 C31.4530027,58.2653927 31.8600027,57.6683927 33.5220027,57.5853927" id="Fill-942" fill="#FFFFFF"></path>
            </g>
        </g>
    </g>
</svg>