<?xml version="1.0" encoding="UTF-8"?>
<svg width="127px" height="139px" viewBox="0 0 127 139" version="1.1" xmlns="http://www.w3.org/2000/svg" xmlns:xlink="http://www.w3.org/1999/xlink">
    <title>Sidekick_7_ship</title>
    <defs>
        <path d="M118.551091,43.829148 C113.082151,16.7812251 78.8365485,-3.12294885 54.4875018,0.405781556 C41.9189332,2.22691527 26.7964513,7.54725976 17.9775587,16.9640197 C8.81572167,26.7475042 3.31157889,40.8431246 0.103573251,53.5286152 C-0.550519227,56.1218006 1.99090259,57.4183933 4.9808774,57.5796158 C6.17550464,58.8864269 7.95949645,59.7720156 10.5281721,60.0161202 C12.8333939,60.236382 15.0625319,60.135334 17.3598047,59.886688 C20.78357,59.5176927 24.3072661,60.7007484 27.6685746,61.110617 C35.268993,62.0359437 42.8807671,62.3754193 50.5254729,62.6899169 C62.9407386,63.2031042 75.1913456,62.7001352 87.5259854,62.4344586 C89.5007542,63.2031042 91.9059067,63.3427547 94.8129844,62.6342837 C95.2229278,62.5355065 95.6101596,62.4231049 95.9917135,62.3061618 C96.2619809,62.3050264 96.5299771,62.3004849 96.7979734,62.2993495 C102.84038,62.2675592 115.069411,63.65044 118.887221,58.3823225 C121.954415,54.1485273 119.537907,48.712375 118.551091,43.829148" id="path-1"></path>
    </defs>
    <g id="Student-Environmrnt---New-Treatment" stroke="none" stroke-width="1" fill="none" fill-rule="evenodd">
        <g id="Avatars" transform="translate(-1849.000000, -559.000000)">
            <g id="Sidekick_7_ship" transform="translate(1849.000000, 559.000000)">
                <g id="Group-20">
                    <path d="M30.93385,105.610622 C27.9943997,110.794382 23.687737,118.717999 23.133829,125.690008 C28.0612312,128.945509 30.3822075,130.425283 35.222389,132.58689 C36.5239028,133.168555 37.8401421,133.724039 39.1631779,134.262449 C39.386327,133.964218 39.6253343,133.678507 39.8303595,133.370032 C43.545734,131.19818 44.3714987,123.725324 45.159883,119.988327 C45.3377226,119.148272 45.5019693,118.345779 45.6526232,117.558084 C46.1872747,115.673081 46.6188471,113.67994 46.4387421,111.903074 C46.4126892,111.650374 46.3753089,111.396536 46.3333976,111.139283 C46.366247,110.846743 46.3775743,110.557618 46.3945654,110.266217 C49.5854831,110.959434 52.6268796,112.061296 55.6830016,113.142668 C55.6365594,113.272433 55.5844536,113.40106 55.5391441,113.531963 C55.282013,113.982724 55.0441385,114.451699 54.8323168,114.944577 C53.9125351,115.182479 53.2804683,115.843824 53.4934227,117.213183 C53.5636523,117.671913 53.633882,118.137473 53.7052444,118.607585 C53.5036173,119.575129 53.3518307,120.567716 53.2589463,121.588759 C52.036724,126.890901 51.6391337,133.350681 53.7822704,138.386463 C54.4154699,138.470696 55.0452712,138.569727 55.6796034,138.63461 C56.389829,138.697216 62.3774721,138.870235 60.3170251,139 C64.7822709,138.72112 69.2520477,138.326134 73.6867096,137.702353 C74.595164,135.605628 74.9984181,133.086598 75.273673,131.352987 C75.8978106,127.428173 75.2838676,121.420293 73.1520582,116.573466 C75.0992316,116.631519 77.0498032,116.615583 78.9969766,116.518828 C79.0286932,116.51769 79.0615426,116.511998 79.0955247,116.509722 C79.1612234,119.140304 79.5984595,121.851704 79.7502461,123.439614 C79.986988,125.930187 81.0155124,128.305792 82.4495563,130.452602 C83.335356,132.226053 84.455632,133.859495 85.7662077,135.290322 C91.332473,133.802581 96.6438727,131.806025 101.505576,129.152678 C101.23825,126.815774 100.421548,124.487977 99.403218,122.300189 C99.0520698,121.544366 98.6556121,120.779437 98.2421634,120.014508 C97.9487848,119.105017 97.621424,118.211461 97.2680104,117.340671 C96.8024558,116.191001 96.1386724,115.31452 95.4137213,114.329902 C94.5800275,113.197306 93.9219078,110.910487 94.3772678,113.471633 C94.1813044,112.37091 92.5841465,110.648681 91.032298,109.743743 C89.78289,107.975983 87.6646735,106.393764 86.0743119,106.589549 C85.9678347,106.603209 85.8692867,106.614591 85.7628095,106.628251 C84.9211866,106.451816 84.0931565,106.48938 83.459957,106.907131 C76.8606363,107.698241 70.8639312,108.26397 64.1660625,107.763123 C62.5258606,106.929897 61.1688427,106.839972 60.0361066,107.26 C53.7437574,106.104639 48.0200417,102.791085 41.6812504,101.4388 C40.2902504,100.597605 38.7633221,100.232215 37.4108352,100.974378 C36.2044712,101.635723 35.1136463,102.608959 34.1292986,103.773427 C33.4972318,103.578779 32.8957489,103.554875 32.3826195,103.799607 C31.6621993,103.93734 31.1343443,104.448431 30.9587702,105.478581 C30.9531065,105.519559 30.9417791,105.568505 30.93385,105.610622" id="Fill-1" fill="#6E2FC9"></path>
                    <g id="Group-36" transform="translate(1.416357, 2.372014)">
                        <mask id="mask-2" fill="white">
                            <use xlink:href="#path-1"></use>
                        </mask>
                        <use id="Mask" fill="#35338E" xlink:href="#path-1"></use>
                        <g mask="url(#mask-2)">
                            <g transform="translate(31.583643, 8.627986)">
                                <path d="M60.9942988,45.7481136 C60.7292772,42.0940945 59.5511621,38.8466452 58.1101976,36.003576 C57.7590078,35.3123343 57.3947841,34.6415305 57.0160784,33.9933545 C57.8444519,33.5269306 58.4056316,32.0721843 57.9458263,30.7393359 C56.4925521,26.5291117 53.4505966,24.1729044 50.6751108,22.4904206 C50.6316647,22.4648731 50.5882185,22.4415154 50.5454964,22.4225373 C50.176204,21.7057481 49.7974983,20.9969881 49.407207,20.3013668 C47.8836948,17.5889546 46.1552616,14.9845719 44.2436304,12.7663209 C44.6035095,12.4451527 44.9213905,12.0108455 45.1654132,11.4174142 C46.1407795,9.04295866 44.7497782,6.18529089 43.275505,5.49550901 C41.2603272,4.55463193 39.0271943,4.95755214 36.9287446,5.50061851 C37.0808062,4.78528915 37.2082483,4.05098168 37.3132432,3.30207564 C37.5572658,1.55024865 36.0945783,0.239298122 35.1467278,1.0181312 C34.0337819,1.93127102 33.1807889,3.20207551 32.4588585,4.6531722 C32.2177323,5.13784434 31.9918122,5.64149459 31.7760296,6.15901348 C30.8803145,3.5991563 29.6840968,1.66046777 28.1222072,0.260466032 C26.9006459,-0.586980273 25.2721389,0.744408237 25.0483912,2.65316973 C25.0223235,3.74514188 25.5270231,4.84806295 26.0331709,5.95244388 C22.650887,6.42470724 18.4156102,5.51229735 16.1694435,10.3823764 C15.2295582,12.5473426 17.3171463,14.2312863 18.7291467,14.5356662 C18.1838973,15.0699734 17.4692079,15.3269081 16.7465534,15.8582956 C14.559039,18.2692475 13.9211045,22.6261872 11.3425747,23.6641447 C10.7444659,24.1451671 10.1753211,24.653197 9.67496614,25.1130516 C7.94291241,26.7021046 5.90601144,28.7991875 4.87850967,31.5619647 C4.52876805,32.5050315 4.51790651,34.008683 5.11384305,34.7203627 C2.88143434,37.7977388 1.23554884,41.5510281 1.09941753,46.3094282 C1.05959188,47.6802328 1.8083141,48.9765848 2.69171943,49.0218403 C1.63887406,51.0452005 0.507825599,53.3240354 0.100879866,55.8583451 C-0.311134587,58.4262315 0.54258253,61.671491 2.59468966,61.2021474 C2.99004975,61.1109064 3.35427342,60.8853586 3.68736068,60.5620006 C3.71487658,61.3853593 3.75977095,62.1853602 3.81625097,62.9379159 C4.05592897,66.1649272 4.58017934,69.8240558 6.4802249,71.6408464 C6.97623527,72.1152996 7.88281189,71.9430366 8.25065607,71.1736925 C8.46136997,70.7328161 8.6300859,70.2919396 8.7618726,69.8496033 C9.3187076,71.3079993 10.0181908,72.7707748 11.0384516,73.4444983 C12.0174385,74.0912144 13.304169,73.9663967 14.0036523,72.7430376 C14.3034308,73.1065417 14.5988647,73.4313596 14.868955,73.7043526 C15.679226,74.520412 16.603181,75.2525297 17.5959259,75.3269824 C18.0774542,75.3634788 18.5307425,75.2809969 18.9840308,75.0043542 C19.1563673,74.8992446 19.330876,74.7919452 19.4829376,74.6247917 C19.4923509,74.6145727 19.5285561,74.5751566 19.5748986,74.5255215 C20.1396988,74.9109235 20.7247738,75.2131136 21.3460539,75.3627488 C23.017283,75.7678588 24.2402925,75.0145732 25.5516426,73.3671259 C25.5878477,73.3204105 25.6226046,73.2671258 25.6551893,73.2123812 C26.2388161,73.801433 26.8318562,74.3167621 27.401725,74.7299013 C28.500913,75.5284425 29.9035,76.1291731 31.1105792,75.4430409 C31.7253424,75.0934054 32.3169344,74.5831858 32.7470514,73.7926739 C32.7876011,73.7174913 32.8274268,73.6408489 32.8672524,73.5634765 C32.9831089,73.9496084 33.1069304,74.3087329 33.146032,74.4050834 C33.1981674,74.5342807 33.2553715,74.6612881 33.3125756,74.7868357 C33.4769469,75.1539894 33.6311808,75.3736978 33.8708588,75.6590996 C34.3263194,76.1948667 35.0315955,76.0678592 35.4595402,75.4963256 C35.8129023,75.0277119 35.9425167,74.4109228 35.9012429,73.8028929 C36.6108635,73.7386592 37.3031057,73.3875639 37.9627633,72.8386581 C37.9526259,72.8882932 37.9410402,72.9386582 37.9337992,72.9839138 C37.8454587,73.5430385 37.9301787,74.0007033 38.0670341,74.5058135 C38.2393706,75.1408507 38.7042445,75.7744282 39.1988067,75.5970557 C40.2038613,75.2372012 40.413127,74.7014341 40.6281855,73.7693162 C40.9743066,74.0401195 41.3609774,74.1934043 41.794715,74.1912145 C43.3348815,74.1846452 44.8917023,72.6722346 46.2457744,71.0729625 C46.4289724,71.0306267 46.6121704,70.9882909 46.7953684,70.9430353 C46.820712,70.9897507 46.848952,71.0313566 46.8757438,71.0751523 C46.7902997,71.2043495 46.7063038,71.331357 46.6208597,71.4583644 C46.0162339,72.3831831 46.2537396,74.0715064 46.8467797,74.794135 C47.5527799,75.6503404 48.4217031,75.3014349 49.0190879,74.3678571 C49.7569486,73.2189506 50.4158821,71.8240583 50.8250001,70.3043484 L50.8264483,70.3028886 C51.0472996,70.7466847 51.3072525,71.1225976 51.620789,71.3904811 C53.8770931,73.3240602 55.2695426,68.9693103 55.7525192,66.2649273 C55.9357172,65.2379188 56.1080536,64.1685744 56.2507018,63.0853614 C56.4744496,62.542295 56.6793707,61.9897396 56.8611204,61.4291549 C56.9023943,61.4919287 56.9371512,61.5576222 56.9791492,61.6182063 C57.3383041,62.1612726 57.879933,62.6875507 58.4280787,62.420397 C58.5156952,62.3751415 58.6033116,62.3328057 58.6902039,62.2904699 C59.3889631,61.9474037 59.8263211,61.2284248 59.9190063,60.091927 C60.2470248,56.0634549 59.8523888,51.8225737 58.9204686,47.9473864 C59.1022184,48.0035909 59.2861405,48.0503062 59.4758554,48.0751238 C60.2180607,48.1773137 61.0782947,46.9130786 60.9942988,45.7481136" id="Fill-684" fill="#B328EB"></path>
                                <path d="M13.5,28.489 C13.486,28.489 13.486,28.511 13.5,28.511 C13.514,28.511 13.514,28.489 13.5,28.489" id="Fill-686" fill="#B035E4"></path>
                                <path d="M13.5,15.489 C13.486,15.489 13.486,15.511 13.5,15.511 C13.514,15.511 13.514,15.489 13.5,15.489" id="Fill-688" fill="#2E5BF9"></path>
                                <path d="M35.2822394,37.1985096 C34.4076811,37.8196584 33.0477503,38.1334643 31.8898115,38.0070802 C31.4273758,37.9575319 30.9715993,37.8720791 30.5106434,37.8117594 C30.1029602,37.7586207 29.7241329,37.4850279 29.3327273,37.7306151 C28.6512822,38.1571613 29.1529324,38.9226465 29.6249867,39.3082614 C30.1710307,39.7556322 31.0300511,39.8331861 31.7159357,39.9444902 C32.791746,40.1182683 33.9445055,39.8489841 34.968523,39.6191949 C35.7165589,39.4518796 36.6443898,39.0748818 36.9314698,38.3869505 C37.2925396,37.5216506 36.1508785,36.5816693 35.2822394,37.1985096" id="Fill-692" fill="#8200A6"></path>
                                <path d="M47.8719972,27.1831041 C47.7554006,26.988064 47.6285377,26.800221 47.4921417,26.6174159 C47.492875,26.6166962 47.4943416,26.6152567 47.4950749,26.614537 C48.0443254,25.8825969 47.6828027,24.8512594 47.0880869,24.2934878 C46.1303817,23.3974549 44.6857576,23.1347625 43.3635965,23.1534748 C43.482393,22.5985821 43.1384697,21.9328549 42.6610838,21.6435334 C40.7310072,20.4768913 38.5244721,20.5798091 36.3223369,20.7007196 C35.7613534,20.5999609 35.1937701,20.5200736 34.6203203,20.4603381 C34.6276534,20.4430651 34.6357198,20.4272316 34.6437863,20.409239 C34.9737766,19.6312377 34.1678669,18.883464 33.4301553,19.0151701 C32.171059,19.2397181 30.8569643,19.6722609 29.8053953,20.4481031 C29.668266,20.4617775 29.5304033,20.4747322 29.3940074,20.4905657 C29.360275,20.4660957 29.3265427,20.4423454 29.2906104,20.4221937 C28.2595741,19.8349143 27.0415432,19.1375199 25.6533841,19.1907781 C24.4910849,19.2346801 23.8259711,20.3171167 23.9543007,21.3959548 C23.9579673,21.4283415 23.9653004,21.4592888 23.9726335,21.4916756 C22.1738197,21.3455754 20.3735394,21.717663 18.6128578,22.227934 C17.7262839,22.4863081 17.5502891,23.5644265 18.0306083,24.1884109 C16.3535243,25.0786862 14.7813038,26.5454453 14.083191,28.3108821 C13.8323984,28.9456621 14.1594555,29.8395359 14.9184331,29.9086276 C15.0298965,29.9187035 15.13696,29.9194232 15.2410903,29.915105 C15.3056218,30.2216994 15.3972857,30.5124603 15.5146156,30.7881074 C15.4933496,30.9392455 15.4794166,31.0896638 15.47795,31.2408019 C15.4647504,32.2253586 15.9685356,33.1530586 16.759779,33.7101104 C17.392627,34.1556079 18.0848733,34.1556079 18.6971887,33.8864382 C19.1569751,34.1189029 19.6409609,34.3197007 20.1344797,34.4895511 C20.4630034,34.892586 20.850192,35.2373248 21.3202448,35.4827443 C21.93916,35.8044525 22.6035404,35.583503 23.1080589,35.1826272 C23.1095255,35.1811878 23.1102589,35.1804681 23.1109922,35.1790287 C23.1469244,35.1840666 23.1813901,35.1883848 23.2165891,35.1927031 C23.6287103,35.864188 23.4571153,36.0340384 24.4412197,35.6533144 C24.7015454,35.5525557 24.5592829,35.4402816 24.8027424,35.285545 C26.0068403,35.3776673 28.5081667,35.6410794 29.5707355,35.8512333 C29.9843233,35.8728245 30.3935113,35.8879383 30.8012326,35.8944156 C31.9737981,35.9714241 33.1522301,36.0138867 34.3277289,35.995894 C35.7730864,35.9735832 39.3707139,35.3812658 40.8124048,35.1869454 C41.1027963,35.6993755 40.9803332,35.9735832 41.7547104,35.844756 C42.5400873,35.7144893 42.1858978,35.5072142 42.6280848,34.9458442 C43.3584633,35.8843397 44.7869546,35.8440363 45.6588623,34.9940644 C46.0959161,34.5687187 46.3393756,33.9641663 46.4860379,33.3373031 C46.7199644,33.1746497 46.9406912,32.9961629 47.1489518,32.8018425 C48.1924544,33.2257488 49.3268877,32.8032819 49.7800744,31.6510339 C50.4950534,29.8308995 49.3635533,28.2842531 47.8719972,27.1831041" id="Fill-698" fill="#9A06D6"></path>
                                <path d="M39.7585488,32.6048741 C37.9928288,31.6300309 37.5107637,28.8573035 38.522128,27.1140969 C39.5272408,25.3809624 41.7972537,24.5780657 43.5928422,25.2198075 C45.1536497,25.7766552 46.1372293,27.4205789 45.9844133,29.1357274 C45.9851079,29.5695506 45.8864721,30.0026543 45.6579427,30.4120165 C45.6405772,30.4422331 45.6211279,30.4702913 45.6037624,30.4997884 C45.0445946,31.6199587 43.9672415,32.3724945 42.8127858,32.6976821 C41.8139245,33.0890582 40.7310145,33.1430163 39.7585488,32.6048741" id="Fill-700" fill="#FFFFFF"></path>
                                <path d="M40.7654458,28.4448481 C40.6434458,28.4578481 40.5204458,28.4778481 40.4044458,28.5158481 C40.0954458,28.6178481 40.2034458,28.4948481 40.7654458,28.4448481" id="Fill-702" fill="#000000"></path>
                                <path d="M40.5485,28.4955 C40.5125,28.4975 40.4855,28.5015 40.4515,28.5045 C40.4855,28.5015 40.5165,28.4975 40.5485,28.4955" id="Fill-704" fill="#000000"></path>
                                <path d="M39.6497304,29.536703 C41.133495,28.0972434 43.6935114,29.7906427 42.8241507,31.8137428 C41.5904666,34.6863485 37.407365,31.7113251 39.6497304,29.536703 C40.0314689,29.1670172 39.2770477,29.8979709 39.6497304,29.536703" id="Fill-706" fill="#333333"></path>
                                <path d="M40.519,28.499 C40.505,28.5 40.494,28.5 40.481,28.501 C40.494,28.5 40.505,28.5 40.519,28.499" id="Fill-708" fill="#000000"></path>
                                <polygon id="Fill-710" fill="#000000" points="41.5105 28.5 41.4985 28.5 41.4895 28.5"></polygon>
                                <path d="M41.6365,28.4955 C41.5365,28.4965 41.4465,28.4995 41.3635,28.5045 C41.4535,28.4995 41.5455,28.4965 41.6365,28.4955" id="Fill-712" fill="#333333"></path>
                                <path d="M21.0094923,23.8399828 C22.8391724,22.5445571 25.3245,22.8378188 27.0826284,24.1026498 C29,25.4823976 29.5117368,28.2709956 28.4713161,30.3947177 C28.0872732,31.1774952 27.5258111,31.7908822 26.8628623,32.2274168 C26.7584552,32.3303942 26.6372553,32.4214322 26.494882,32.49083 C26.1743594,32.648281 25.8596778,32.7833455 25.5092203,32.834088 C24.7864018,33.0281034 24.0153953,33.0542208 23.2568009,32.900501 C22.4733824,32.7408114 21.7907205,32.3908375 21.2285283,31.9065453 C20.6166879,31.4618023 20.0939222,30.8819948 19.65366,30.188763 C18.3292228,28.0971279 19.1360051,25.1660033 21.0094923,23.8399828" id="Fill-714" fill="#FFFFFF"></path>
                                <path d="M24.7968952,28.4383043 C24.6608952,28.4523043 24.5238952,28.4763043 24.3918952,28.5183043 C24.0478952,28.6313043 24.1688952,28.4943043 24.7968952,28.4383043" id="Fill-716" fill="#000000"></path>
                                <path d="M24.5545,28.495 C24.5135,28.498 24.4835,28.502 24.4455,28.505 C24.4805,28.501 24.5185,28.498 24.5545,28.495" id="Fill-718" fill="#000000"></path>
                                <path d="M22.811248,28.6713978 C24.6665792,26.8714793 27.8655871,28.9870493 26.7808481,31.5177441 C25.2381083,35.1073988 20.0103666,31.3892904 22.811248,28.6713978 C23.2886887,28.206928 22.3454712,29.1233356 22.811248,28.6713978" id="Fill-720" fill="#333333"></path>
                                <path d="M24.5215,28.499 C24.5055,28.499 24.4915,28.501 24.4785,28.501 C24.4915,28.501 24.5055,28.499 24.5215,28.499" id="Fill-722" fill="#000000"></path>
                                <path d="M24.512,28.499 C24.507,28.499 24.501,28.501 24.496,28.501 L24.488,28.501 C24.496,28.501 24.502,28.499 24.512,28.499" id="Fill-724" fill="#000000"></path>
                                <path d="M24.6535,28.495 C24.5395,28.496 24.4385,28.5 24.3465,28.505 C24.4475,28.499 24.5505,28.496 24.6535,28.495" id="Fill-726" fill="#000000"></path>
                                <path d="M13.9021825,19.9280924 C13.243222,18.9899563 12.3631139,18.1880248 11.5113963,17.4297952 C10.8322636,16.8259794 10.1703147,16.1646226 9.41198721,15.6605929 C8.49078742,15.0494934 7.29016449,14.7690723 6.26362068,15.2272148 C5.05477943,15.7669344 4.78656311,16.9723811 5.15041087,18.1588901 C5.43805233,19.098483 6.33086154,19.9404747 7.00476439,20.6163988 C7.68763269,21.3025201 8.5445801,21.8619056 9.42319402,22.2566802 C10.3040493,22.6521833 11.3290989,22.9377029 12.2891489,22.9930588 C13.5181624,23.0644387 15.4748715,22.5997409 14.8951058,20.9259546 C14.7150498,20.4088143 14.3482135,20.1152826 13.9021825,19.9280924" id="Fill-728" fill="#A606E7"></path>
                                <path d="M12.9899018,38.3285857 C13.0642602,37.7142238 12.7260023,36.890782 12.0400094,37.0119878 C11.6324961,37.0839538 11.3532876,37.4468136 11.0624149,37.7263444 C10.719054,38.0558727 10.3931891,38.5179697 10.191255,38.9527955 C9.93464555,39.5042818 9.90184036,40.0936449 10.3071667,40.5724078 C10.5346159,40.8413331 10.8371526,41.0155664 11.1878036,40.9989007 C11.5924009,40.9799622 12.0910397,40.8026988 12.2893289,40.3769635 C12.6028006,39.7019987 12.8995053,39.0777889 12.9899018,38.3285857" id="Fill-730" fill="#A11EE9"></path>
                                <path d="M12.9298275,48.9928477 C12.8066876,48.4152935 12.1553199,47.769496 11.4326159,48.0812603 C11.0037493,48.2673132 10.8152178,48.6774916 10.5850735,49.0158349 C10.3141657,49.4152381 10.1069509,49.9295774 10.0279715,50.3828569 C9.92691187,50.9568193 10.0882676,51.4998927 10.699721,51.8145304 C11.0428143,51.9905264 11.4368621,52.0594881 11.8215682,51.9409602 C12.2657212,51.8037551 12.7591301,51.4963009 12.8372603,51.0530784 C12.9604002,50.3505311 13.0801431,49.69755 12.9298275,48.9928477" id="Fill-732" fill="#A11EE9"></path>
                                <path d="M22.7471789,55.1359046 C22.5246554,54.4313696 21.7475483,53.6869293 21.0584156,54.136896 C20.6487309,54.4052247 20.5236693,54.9294979 20.3442705,55.3698322 C20.1329595,55.8879131 20.0061728,56.5442865 20.0001354,57.1125931 C19.9932354,57.8336406 20.2493962,58.4934541 20.9290415,58.8292091 C21.3111263,59.0177272 21.7268484,59.0686409 22.1020333,58.887691 C22.5350053,58.6792202 22.9904022,58.2553984 22.9964397,57.6987882 C23.0050646,56.8160554 23.019727,55.9973087 22.7471789,55.1359046" id="Fill-734" fill="#A11EE9"></path>
                                <path d="M44.6828262,61.11513 C44.4422652,60.4129201 43.6475547,59.6824842 42.9739839,60.1451165 C42.5736217,60.4191161 42.4627918,60.9464619 42.2961174,61.3898179 C42.0993729,61.9123447 41.9911204,62.5704943 42.000571,63.1391466 C42.0125991,63.8606328 42.2858076,64.5160287 42.9722656,64.8402844 C43.3571632,65.0227213 43.7729901,65.0660931 44.1415639,64.8795256 C44.5668414,64.6633551 45.0093018,64.2310141 44.9998512,63.6740653 C44.9852457,62.7914839 44.9775134,61.9715506 44.6828262,61.11513" id="Fill-736" fill="#A11EE9"></path>
                                <path d="M8.44627222,54.9086521 C8.14678787,54.2486973 7.30610338,53.6555428 6.69421277,54.2358202 C6.33087897,54.5810892 6.2723503,55.1275639 6.15149241,55.6007998 C6.00935136,56.1577372 5.96526483,56.8362029 6.02759406,57.403603 C6.10664577,58.1231147 6.43349417,58.7315608 7.13127749,58.9359858 C7.52273546,59.0502707 7.9309159,59.021297 8.27220644,58.7693875 C8.66518464,58.4796512 9.05512238,57.9693935 8.99355326,57.4132609 C8.89701897,56.5335895 8.81264647,55.713475 8.44627222,54.9086521" id="Fill-738" fill="#A11EE9"></path>
                                <path d="M54.3643924,58.946308 C54.0453205,58.2779543 53.1923629,57.658293 52.6045988,58.2172555 C52.255439,58.5494313 52.2162547,59.0937193 52.1112968,59.5613001 C51.988846,60.1122584 51.9671547,60.7872823 52.0476224,61.355583 C52.1504811,62.0759642 52.4933435,62.6936245 53.1916631,62.9210782 C53.5842056,63.0484789 53.9879435,63.0324704 54.3182109,62.7930104 C54.6981584,62.5168642 55.0683098,62.0206016 54.9892415,61.4636402 C54.8639918,60.5818402 54.7534362,59.762073 54.3643924,58.946308" id="Fill-740" fill="#A11EE9"></path>
                                <path d="M16.7389278,62.7346551 C16.3051159,62.1192206 15.4482114,61.656787 15.115286,62.3360292 C14.9172963,62.7401439 15.0263798,63.2979458 15.0635817,63.7919401 C15.1077196,64.3737556 15.2666158,65.0619171 15.480369,65.6217773 C15.7515014,66.3312079 16.1928797,66.8910681 16.820898,66.9857504 C17.1740007,67.0392664 17.4993596,66.9459564 17.7055463,66.6392683 C17.9432601,66.2859251 18.1153976,65.7123429 17.9054276,65.1641464 C17.5731328,64.2948537 17.2692123,63.4859381 16.7389278,62.7346551" id="Fill-742" fill="#A11EE9"></path>
                                <path d="M18.4553401,38.2479125 C18.3265381,38.3733232 18.2364401,38.5614393 18.1907567,38.7642138 C18.1939291,38.7479267 18.1114451,39.4254703 18.1387283,39.2422403 C18.1146176,39.404297 18.1012932,39.5598389 18.0892378,39.7210812 C18.0854309,39.7389971 18.0809894,39.7683139 18.0733755,39.8131034 C18.0518028,39.9613161 18.0346715,40.1103431 18.0226161,40.2609988 C18.0511683,39.9319993 17.9946984,40.4955331 18.0004089,40.6022137 C18.0422854,40.96053 18.0448234,41.0378938 18.0067538,40.8334906 C18.0035813,41.0387081 18.0397474,41.2317103 18.1146176,41.4133116 C18.3417659,41.9540435 18.8614154,42.1600754 19.2712976,41.8652788 C19.9172111,41.4019106 20.0606064,40.4556297 19.9793914,39.5671681 C19.8886589,38.5826125 19.2173657,37.5027774 18.4553401,38.2479125" id="Fill-744" fill="#A11EE9"></path>
                                <path d="M39.1123072,45.5247598 C39.0099572,45.7271196 38.9804055,45.9908247 39.0121195,46.2553266 C39.0092364,46.2354093 39.2002418,47.0966336 39.1541122,46.8616094 C39.1944756,47.0679526 39.2456506,47.2647356 39.2997087,47.4662988 C39.3033126,47.4894028 39.3090788,47.5276441 39.3191696,47.5842092 C39.3566499,47.773822 39.3991756,47.9634347 39.4496299,48.1514541 C39.343676,47.7379708 39.5166619,48.4486203 39.5685577,48.5776844 C39.7732578,49.000728 39.8092965,49.093941 39.6759532,48.8589168 C39.7595631,49.1106715 39.8864194,49.334542 40.0550807,49.5281382 C40.5625062,50.1049434 41.2811187,50.1623053 41.6523178,49.6484388 C42.2375869,48.8389995 42.006939,47.6272306 41.5276237,46.57002 C40.9949711,45.397289 39.7177581,44.3265347 39.1123072,45.5247598" id="Fill-746" fill="#A11EE9"></path>
                                <path d="M10.9974186,29.8761822 C10.9552563,29.3130565 10.5602282,28.9078342 9.97384822,29.0181764 C9.81233427,29.0486157 9.70400965,29.1348601 9.58206337,29.2375925 C9.81298292,29.0435425 9.52627943,29.2807148 9.44779273,29.3434957 C9.41600886,29.3688617 9.29081933,29.4715941 9.37125198,29.4138864 C9.26617061,29.4918869 9.15979194,29.5673508 9.05860247,29.6510587 C9.04887272,29.6580344 9.03654836,29.6669125 9.01968345,29.6789613 C8.95741301,29.7246202 8.89384527,29.7677424 8.83027753,29.8102305 C8.6356824,29.9408655 8.45600623,30.0772079 8.29708688,30.2515993 C7.98378872,30.595309 7.89751822,31.0918489 8.13881617,31.5046809 C8.44108727,32.0227819 9.03784566,32.1140996 9.54444164,31.8731224 C9.99395639,31.6600478 10.4804442,31.1996545 10.7321206,30.7620906 C10.8819588,30.5008205 11.02077,30.1843794 10.9974186,29.8761822" id="Fill-748" fill="#A11EE9"></path>
                                <path d="M18.156448,26.9444769 C18.8213075,26.7494546 19.195291,26.2193939 18.8950066,25.620754 C18.8126832,25.4564495 18.6786136,25.3635817 18.5202391,25.2599984 C18.8197395,25.4557351 18.4528123,25.2121358 18.3548082,25.1442709 C18.3148226,25.1171249 18.156448,25.0099698 18.2481798,25.0814065 C18.1250867,24.9892531 18.0035617,24.895671 17.8749804,24.8099469 C17.8632199,24.8013745 17.8491073,24.7899446 17.8295065,24.7749429 C17.7573755,24.7206509 17.6875966,24.6642159 17.6186018,24.6070665 C17.406129,24.4334752 17.1905201,24.2777431 16.9364935,24.1541575 C16.4339287,23.9098438 15.8129751,23.9498484 15.3848933,24.3177477 C14.8486151,24.7785147 14.9089856,25.4414477 15.3425556,25.9193596 C15.7267315,26.3444082 16.4190321,26.7423109 17.0156808,26.8958999 C17.3724156,26.987339 17.792657,27.0509177 18.156448,26.9444769" id="Fill-750" fill="#A900D7"></path>
                                <path d="M18.768798,30.3034809 C19.14055,29.8602778 19.0795827,29.3329983 18.4721398,29.0783667 C18.3048514,29.0081028 18.144998,29.0099045 17.9613525,29.0159099 C18.3093124,29.0044995 17.879567,29.0159099 17.7628369,29.0177116 C17.7152526,29.0183121 17.5286331,29.0231165 17.6423892,29.0267198 C17.4922014,29.023717 17.34127,29.0189127 17.1895952,29.0231165 C17.1754686,29.0225159 17.1576245,29.0219154 17.1338324,29.0213148 C17.0453554,29.0195132 16.9561349,29.0147088 16.8684014,29.0093039 C16.5985094,28.9948908 16.3375394,28.9936897 16.0683909,29.0315241 C15.5367855,29.1071929 15.098118,29.4260829 15.0148456,29.8716882 C14.909268,30.4301961 15.3799061,30.8409697 16.0103976,30.9526713 C16.5695127,31.0523619 17.3420135,30.9899051 17.8855151,30.8091408 C18.2111699,30.701643 18.5658213,30.545501 18.768798,30.3034809" id="Fill-752" fill="#A900D7"></path>
                                <path d="M18.156448,26.9444769 C18.8213075,26.7494546 19.195291,26.2193939 18.8950066,25.620754 C18.8126832,25.4564495 18.6786136,25.3635817 18.5202391,25.2599984 C18.8197395,25.4557351 18.4528123,25.2121358 18.3548082,25.1442709 C18.3148226,25.1171249 18.156448,25.0099698 18.2481798,25.0814065 C18.1250867,24.9892531 18.0035617,24.895671 17.8749804,24.8099469 C17.8632199,24.8013745 17.8491073,24.7899446 17.8295065,24.7749429 C17.7573755,24.7206509 17.6875966,24.6642159 17.6186018,24.6070665 C17.406129,24.4334752 17.1905201,24.2777431 16.9364935,24.1541575 C16.4339287,23.9098438 15.8129751,23.9498484 15.3848933,24.3177477 C14.8486151,24.7785147 14.9089856,25.4414477 15.3425556,25.9193596 C15.7267315,26.3444082 16.4190321,26.7423109 17.0156808,26.8958999 C17.3724156,26.987339 17.792657,27.0509177 18.156448,26.9444769" id="Fill-754" fill="#8200A6"></path>
                                <path d="M18.768798,30.3034809 C19.14055,29.8602778 19.0795827,29.3329983 18.4721398,29.0783667 C18.3048514,29.0081028 18.144998,29.0099045 17.9613525,29.0159099 C18.3093124,29.0044995 17.879567,29.0159099 17.7628369,29.0177116 C17.7152526,29.0183121 17.5286331,29.0231165 17.6423892,29.0267198 C17.4922014,29.023717 17.34127,29.0189127 17.1895952,29.0231165 C17.1754686,29.0225159 17.1576245,29.0219154 17.1338324,29.0213148 C17.0453554,29.0195132 16.9561349,29.0147088 16.8684014,29.0093039 C16.5985094,28.9948908 16.3375394,28.9936897 16.0683909,29.0315241 C15.5367855,29.1071929 15.098118,29.4260829 15.0148456,29.8716882 C14.909268,30.4301961 15.3799061,30.8409697 16.0103976,30.9526713 C16.5695127,31.0523619 17.3420135,30.9899051 17.8855151,30.8091408 C18.2111699,30.701643 18.5658213,30.545501 18.768798,30.3034809" id="Fill-756" fill="#8200A6"></path>
                                <path d="M53.9453948,30.4451707 C53.8579299,30.1395847 53.7625137,29.8839583 53.5629349,29.6366585 C53.5247684,29.5908622 53.4873971,29.542568 53.4500257,29.4951064 C53.5112511,29.5700457 53.3283701,29.3169173 53.3212139,29.307758 C53.1741139,29.0954299 53.109708,29.0055026 53.1279961,29.0371437 C53.0850588,28.9688656 53.0453021,28.8972569 53.0079307,28.8248156 C52.9840767,28.7615334 52.9546567,28.7024146 52.9196707,28.6457938 C52.879914,28.5900056 52.8401572,28.5350501 52.8011956,28.4800946 C52.7948346,28.46927 52.7892686,28.4584454 52.7781367,28.4409596 C52.4950687,27.9263761 51.8502143,27.8572654 51.4550322,28.2594398 C50.5024606,29.2303207 51.1815058,31.2994793 52.2414207,31.8631897 C53.1081177,32.3236503 54.2658341,31.5642649 53.9453948,30.4451707" id="Fill-758" fill="#A11EE9"></path>
                                <path d="M51.9749583,37.2128229 C51.8980193,36.6973233 51.7059747,36.2692671 51.5496734,35.7995711 C51.3455125,35.1858018 50.9777804,34.8110444 50.4997892,35.0983584 C49.8545921,35.4881061 50.0181632,36.8089177 50.0193748,37.5917442 C50.0211923,38.3604133 50.473739,39.000832 51.0171586,39 C51.6938583,38.9983336 52.1088443,38.1014143 51.9749583,37.2128229" id="Fill-760" fill="#A11EE9"></path>
                                <path d="M44.97496,41.2128233 C44.8974206,40.6973236 44.7053892,40.2692673 44.5490987,39.7995713 C44.3455575,39.1858019 43.9778507,38.8110444 43.4998925,39.0983585 C42.854134,39.4881062 43.0182996,40.8089181 43.0195111,41.5917447 C43.0213285,42.3604139 43.4732383,43 44.0172262,43 C44.6938794,42.9983344 45.1088368,42.1005821 44.97496,41.2128233" id="Fill-762" fill="#A11EE9"></path>
                                <path d="M51.9627468,50.2126711 C51.8467215,49.6974057 51.558127,49.2693598 51.3238734,48.7990459 C51.0176547,48.1858265 50.4661674,47.810783 49.7501885,48.0986071 C48.7815976,48.4877398 49.0268662,49.8081073 49.0298036,50.5917401 C49.0327409,51.3612835 49.7112686,52.0013397 50.5256487,52 C51.5412372,51.9986561 52.1624866,51.1016381 51.9627468,50.2126711" id="Fill-764" fill="#A11EE9"></path>
                                <path d="M12.6319283,19.8997962 C11.8201458,19.2693428 11.0339008,18.5627717 10.1006217,18.1962483 C9.36080852,17.9058426 8.06845698,17.7842197 8.00345247,18.9557708 C7.94541273,19.9858423 8.62796007,20.5484516 9.38711987,21.0109496 C9.67964016,21.2831532 10.0108536,21.5131611 10.3428409,21.7158659 C11.066403,22.1576797 12.0391491,22.0716336 12.6319283,21.5454284 C13.0567792,21.1681492 13.1844666,20.3291994 12.6319283,19.8997962" id="Fill-766" fill="#B700DC"></path>
                                <path d="M15.8386592,51.4226272 C15.4345415,49.5789038 14.0573138,47.9829619 13.0470193,46.4534284 C12.2170344,45.1959548 11.0622118,43.4136412 9.85266487,42.4774982 C8.57786977,41.4906563 7.12416837,42.0861889 7.01191344,43.7778159 C6.9424557,44.8210691 7.17117513,47.5009661 7.84400314,49.5046407 C8.39826188,51.1541376 9.2380691,52.8586178 10.2574842,54.2446236 C11.2116512,55.541371 12.7530517,56.4746578 14.3407575,55.7427381 C16.0526452,54.952979 16.201383,53.0764085 15.8386592,51.4226272" id="Fill-768" fill="#8A05C0"></path>
                                <path d="M13.2169097,55.0389197 C12.8383881,54.923756 12.3636905,55.056502 12.1679034,55.5400138 C12.0504312,55.8292418 11.9418896,56.1879197 12.0353178,56.5193451 C12.0689795,56.6406626 12.105389,56.7619801 12.1438594,56.8824185 C11.9776122,56.3901156 12.1933214,57.0406588 12.203626,57.0775815 C12.3142285,57.3887873 12.4584926,57.6481255 12.6796976,57.8485631 C12.9778434,58.1219671 13.3494953,57.9901002 13.6126055,57.7307621 C14.2762205,57.0731859 14.0502067,55.2921041 13.2169097,55.0389197" id="Fill-770" fill="#6813E9"></path>
                                <path d="M12.502032,56.5044791 C12.501032,56.5004791 12.499032,56.4974791 12.497032,56.4934791 C12.503032,56.5074791 12.504032,56.5084791 12.502032,56.5044791" id="Fill-772" fill="#7930E9"></path>
                                <path d="M16.7863847,54.3845758 C16.5159682,54.0409384 16.0346764,53.9049279 15.6185079,54.0698256 C15.4584908,54.1330164 15.324523,54.2305107 15.215364,54.3617068 C15.1713283,54.4327211 15.1272926,54.5043373 15.0826366,54.5753517 C15.010691,54.7378422 14.9858821,54.9069527 15.0075899,55.0820814 C15.0057292,55.3288262 15.2042,55.6568163 15.4218977,55.7988451 C15.6426965,55.9414756 15.8659762,56.0263318 16.1370129,55.99263 C16.3913037,55.9619374 16.5990778,55.8355559 16.7646769,55.6507981 C17.0791292,55.299939 17.0704461,54.7462676 16.7863847,54.3845758" id="Fill-774" fill="#6813E9"></path>
                                <path d="M17.9548034,52.8525519 C17.9465261,52.8323865 17.9374209,52.8134072 17.9266603,52.7932418 C17.9225216,52.7861246 17.9192107,52.7790074 17.9142443,52.771297 C17.8687187,52.6941939 17.8231931,52.6176838 17.7776675,52.5411737 C17.6576454,52.3952707 17.4962365,52.2802091 17.2934407,52.1948025 C17.2537092,52.1740439 17.2081836,52.1615888 17.1634858,52.1473543 C16.8803994,52.0548305 16.6908473,51.9955204 16.3696849,52.0002652 C15.7571587,52.0115341 15.2116793,52.2950366 15.0477872,52.724442 C14.883895,53.1544406 15.1529099,53.6069769 15.6810068,53.8347279 C15.9707152,53.9586861 16.2612512,53.9782584 16.5865523,53.9978308 C16.8986096,54.0162169 17.1643135,53.9147966 17.4159459,53.8044797 C17.861269,53.6111287 18.1071072,53.2179024 17.9548034,52.8525519" id="Fill-776" fill="#6813E9"></path>
                                <path d="M47.417617,55.6035169 C48.9528984,56.5226592 50.6037539,55.7175765 51.6952876,54.4769937 C52.8624439,53.1504959 53.878355,51.4781162 54.59891,49.8316591 C55.475704,47.8326543 55.9672509,45.0892999 55.9986414,44.0064747 C56.0500077,42.2481801 54.6360079,41.4838329 53.2498314,42.371868 C51.934997,43.2132424 50.5923392,44.9345048 49.6306481,46.1462024 C48.4592113,47.6223107 46.9103749,49.128045 46.3218028,50.9900302 C45.7938715,52.6601879 45.762481,54.612532 47.417617,55.6035169" id="Fill-778" fill="#8A05C0"></path>
                                <path d="M49.3192074,57.9235557 C48.9459566,58.0830712 48.4580197,58.0085722 48.2244772,57.5510608 C48.0854638,57.2784822 47.9492307,56.9357868 48.0187374,56.5957209 C48.0437598,56.4712637 48.0708674,56.3459302 48.1007553,56.2232259 C47.9700827,56.7306955 48.138984,56.0593282 48.1466297,56.0216404 C48.2342081,55.6982272 48.3607103,55.4247721 48.5685353,55.1986458 C48.8486472,54.8918852 49.2330192,54.9777782 49.5173015,55.2039045 C50.2339154,55.7771085 50.1400813,57.5729723 49.3192074,57.9235557" id="Fill-780" fill="#7014FC"></path>
                                <path d="M48.5015171,55.4957429 C48.5005171,55.4997429 48.4995171,55.5027429 48.4975171,55.5067429 C48.5025171,55.4927429 48.5035171,55.4907429 48.5015171,55.4957429" id="Fill-782" fill="#8334FC"></path>
                                <path d="M45.2804263,55.3127234 C45.5834111,54.9954969 46.0737518,54.9050331 46.4707238,55.1088782 C46.6228345,55.1872802 46.7465018,55.2976461 46.8411072,55.4387697 C46.8782074,55.5135532 46.9153076,55.5889397 46.9517894,55.6643262 C47.0068214,55.832589 47.0148598,56.0038672 46.9752862,56.1769546 C46.9524078,56.4236194 46.723005,56.7311964 46.4923655,56.8518149 C46.2598711,56.9736395 46.0298499,57.0363611 45.763347,56.9778612 C45.5141574,56.9229798 45.3206181,56.7770314 45.1746907,56.5774079 C44.8982944,56.1974598 44.961983,55.6462334 45.2804263,55.3127234" id="Fill-784" fill="#7014FC"></path>
                                <path d="M46.6822764,52.6377693 C46.6624297,52.6526464 46.6409292,52.6669284 46.6186017,52.6806154 C46.6103323,52.6853761 46.6012359,52.6907318 46.5937934,52.6960876 L46.3217289,52.85438 C46.1207816,52.9424525 45.9041224,52.9900592 45.6684434,52.9977953 C45.6204807,53.002556 45.571691,52.9983904 45.5237283,52.9966052 C45.2127975,52.9829182 45.0060616,52.9722067 44.7273816,52.8585456 C44.193176,52.6437202 43.8971301,52.2081184 44.0327489,51.7719216 C44.1683677,51.3357247 44.7017463,51.0250907 45.3169924,51.0012873 C45.6535585,50.9887906 45.9231421,51.0691269 46.2224957,51.1619601 C46.5094451,51.2506277 46.6781416,51.4303431 46.8286454,51.6118439 C47.0949212,51.9331894 47.054401,52.3652207 46.6822764,52.6377693" id="Fill-786" fill="#7014FC"></path>
                                <path d="M46.8432951,26.9444779 C46.1783815,26.7494589 45.8051517,26.218693 46.1046765,25.6207777 C46.1870066,25.456476 46.321087,25.3636098 46.4786904,25.2600283 C46.1799497,25.4557616 46.5469067,25.2121665 46.6449188,25.1443028 C46.6849077,25.1171573 46.8440792,25.010004 46.7515559,25.0814395 C46.874659,24.9892877 46.9954098,24.8957072 47.1247857,24.8099845 C47.1365471,24.8006979 47.1506609,24.7899826 47.1702633,24.7749811 C47.2424001,24.7206901 47.3121847,24.6642561 47.3819692,24.6071077 C47.5936752,24.4335194 47.8093017,24.2777899 48.064133,24.1542065 C48.5659546,23.909897 49.1869588,23.9499009 49.6150753,24.3170795 C50.1513972,24.7785529 50.0910218,25.4414745 49.6574165,25.9193782 C49.2739935,26.3437052 48.5816365,26.7423154 47.9841552,26.8959017 C47.6266073,26.9873392 47.2071158,27.0509168 46.8432951,26.9444779" id="Fill-788" fill="#8200A6"></path>
                                <path d="M46.2312595,31.3034809 C45.8594961,30.8602778 45.9204653,30.3329983 46.5271833,30.0783667 C46.6952203,30.0081028 46.8550786,30.0099045 47.0387298,30.0159099 C46.6900157,30.0044995 47.1205177,30.0159099 47.2372515,30.0177116 C47.2840937,30.0183121 47.4714625,30.0231165 47.3577028,30.0261192 C47.5078953,30.0231165 47.6588312,30.0189127 47.8097672,30.0231165 C47.8246377,30.0225159 47.8417389,30.0219154 47.8662753,30.0213148 C47.954755,30.0195132 48.0439782,30.0147088 48.1317144,30.0093039 C48.4016146,29.9948908 48.6625926,29.9936897 48.9317493,30.0315241 C49.4633711,30.1071929 49.902052,30.4260829 49.985327,30.8716882 C50.0901643,31.4301961 49.6202553,31.8409697 48.9897444,31.9526713 C48.4306122,32.0523619 47.6580877,31.9899051 47.113826,31.8091408 C46.7889047,31.701643 46.4334989,31.545501 46.2312595,31.3034809" id="Fill-790" fill="#8200A6"></path>
                                <path d="M24.1419802,10.6168594 C24.042209,10.522339 23.9317481,10.43412 23.8056088,10.3536027 C23.1471191,9.93071152 22.477227,9.9139079 21.8985542,10.1617613 C21.4139514,10.1932681 20.9300612,10.2751858 20.4796656,10.3627046 C19.0258572,10.6441653 17.5998421,11.1566757 16.208747,11.6565835 C14.960182,12.1053802 13.7429738,12.6935069 12.5606854,13.3040385 C11.0463016,14.0861071 9.71934506,15.5305184 10.0514405,17.3775164 C10.2973052,18.7484119 11.5537093,19.6698104 12.8443206,19.9113625 C14.5297407,20.2264304 16.0669294,19.653707 17.5905776,18.9472547 C19.0287078,18.2793108 20.4326307,17.4090232 21.6705058,16.4162092 C22.2955009,15.9135009 22.9404503,15.3575811 23.4307543,14.7197436 C23.1129119,15.1335328 23.6716304,14.4599876 23.735769,14.3892724 C24.0015879,14.0931086 24.3108785,13.7822416 24.4804895,13.4139622 C24.645112,13.0554849 24.7470211,12.6809042 24.7719639,12.3126249 C25.288636,11.6656854 24.8624706,10.7918971 24.1419802,10.6168594" id="Fill-794" fill="#8D28D1"></path>
                                <path d="M30.9620954,10.19274 C30.7811112,9.00539724 29.9149728,7.99784596 28.3667219,8 C27.2359513,8.00216096 26.2108814,8.66451265 25.8854142,9.55555907 C25.5561447,9.70298805 25.2390422,9.88925199 24.9287837,10.0855843 C24.2801305,10.4976663 23.7044792,10.8716325 23.213997,11.4232326 C22.8200903,11.8655196 22.4520386,12.3214707 22.0953934,12.7853326 C22.0383605,12.8615642 21.9805673,12.9370766 21.9235345,13.012589 C22.1874063,12.8054693 22.0847472,12.929885 21.6155572,13.3872744 C21.460428,13.559155 21.3106218,13.732474 21.1653782,13.9101079 C20.7653881,14.3969832 20.5037975,14.9442683 20.254374,15.4958685 C19.63918,16.8543727 20.1433501,18.8421469 21.7288624,19.5785727 C24.8352499,21.0219385 27.2397535,18.4602699 28.5203303,16.3818808 C29.0374279,15.541176 29.4594707,14.656602 29.9446299,13.8015139 C30.5788348,12.6817728 31.1552465,11.4599101 30.9620954,10.19274" id="Fill-796" fill="#A622F1"></path>
                                <path d="M53.2073318,10.3226826 C51.9580864,9.44489123 50.3059969,10.5586023 49.351742,11.2812393 C48.217493,12.1391935 46.7639685,13.2054373 46.2275572,14.4813874 C46.2068436,14.4870552 46.2475566,14.4750112 46.2275572,14.4813874 C45.2304466,14.7817777 44.8233169,15.6099763 45.0704518,16.6245019 C45.3468714,17.7552162 46.7318267,18.3078209 47.8510762,17.824646 C48.8067596,17.4123179 49.63459,16.7704462 50.3938512,16.109446 C51.0766863,15.5157501 51.7980916,14.9588946 52.4494991,14.3340262 C53.5144647,13.3124159 54.9001342,11.5121997 53.2073318,10.3226826" id="Fill-798" fill="#A606E7"></path>
                                <path d="M49.1311434,12.0077217 C48.5763311,12.0691509 47.98807,12.5937704 47.4856122,13.1671097 C47.3372744,13.3365696 47.2020252,13.518739 47.0536875,13.6874927 C47.0420531,13.6973779 47.0267831,13.7107935 47.0093316,13.7277395 C47.0049687,13.7298577 47.0020601,13.731976 46.9976972,13.7340942 C46.5890412,13.8873142 46.104762,14.4246432 46.0233217,14.9330229 C45.8495338,16.0090931 46.6762987,16.2618708 47.5292409,15.7337208 C47.8331879,15.5451967 48.0993233,15.3361962 48.3843645,15.0721212 C48.4454448,15.0156346 48.5937826,14.9054856 48.6235955,14.8765362 C48.6694057,14.8511173 48.7159431,14.8256983 48.760299,14.8045158 C49.1478678,14.6216403 49.6626871,14.0631288 49.8306578,13.5695769 C49.8735594,13.442482 49.9310039,13.3118567 49.9564541,13.1861739 C50.1324234,12.334638 49.7586704,11.9385256 49.1311434,12.0077217" id="Fill-800" fill="#B700DC"></path>
                                <path d="M44.9939234,9.65614045 C43.8957554,8.77919045 42.5478729,8.19194077 41.176962,7.68888971 C40.2414322,7.34567332 39.1727694,6.95393568 38.1041065,6.77911652 C37.5125639,6.29104996 36.7878881,5.9663858 35.8127783,6.00277673 C34.3943712,6.05700635 32.862981,7.05525944 33.0097872,8.38816636 C33.0666386,8.90762902 33.1119758,9.3286221 33.4314952,9.7888603 C33.5315249,9.89874663 33.6322743,10.0093465 33.7330237,10.1185193 C33.7373415,10.1277954 33.7819591,10.1827386 33.8697549,10.2890572 C34,10.451746 34.1165909,10.6229975 34.2410883,10.7885405 C34.3727821,10.9490887 34.5131115,11.1039285 34.6555999,11.2580548 C34.645525,11.2480651 34.806724,11.4243114 35.1413558,11.7882207 C35.717786,12.377611 36.4403028,12.827146 37.1656982,13.2795352 C37.416852,13.4358021 37.6780807,13.5806523 37.9349915,13.7290702 C38.0882745,13.8168365 38.2393985,13.90603 38.3898029,13.9966505 C38.2645859,13.9245822 38.3142409,13.9666815 38.5380484,14.123662 C39.9053611,15.1611602 41.2194206,15.9317916 43.1120693,15.9967244 C45.3494247,16.0716469 46.7102607,14.8543347 46.9794054,13.059049 C47.1693899,11.7832259 46.0086133,10.4653034 44.9939234,9.65614045" id="Fill-802" fill="#942ADB"></path>
                                <path d="M36.8996832,10.1255561 C36.7439569,9.11962377 36.2895055,8.16388202 35.7392225,7.30569379 C35.1664789,6.41074627 34.4013235,5.32705388 33.5373417,4.67528325 C32.4824454,3.87859615 31.0988767,3.67500619 30.068687,4.68023162 C29.4323053,5.30160514 29.2054539,6.27926108 29.4659961,7.10846602 C29.2720868,7.52554267 29.1725118,8.0444143 29.1066276,8.46573241 C28.9239486,9.63213322 28.9726131,10.7257223 29.278825,11.8716228 C29.3259921,12.0356258 29.3813947,12.1968012 29.4435355,12.3558558 C29.5011842,12.5113759 29.888254,13.5809301 29.7123132,12.9758155 C29.8530659,13.4593417 30.1046238,13.9619544 30.4063436,14.3733758 C31.3144978,15.6111744 32.6763547,16.2855662 34.2478432,15.8840415 C36.8270608,15.2266156 37.2335965,12.2809234 36.8996832,10.1255561" id="Fill-804" fill="#7014FC"></path>
                                <path d="M31.1962522,5.11234255 C30.3058906,4.21781764 29.0551444,4.15770557 27.974722,4.69799861 C27.733491,4.80391036 27.5178452,4.94989682 27.3233984,5.13094866 C27.3102403,5.1395361 27.2970823,5.14883916 27.2802692,5.1610047 C26.6910808,4.977806 26.0872723,4.85328813 25.513435,4.7659825 C23.2963029,4.42749428 21.0543167,4.32372939 18.8203716,4.15198061 C16.969472,4.00885662 15.0769052,3.8177861 13.2654798,4.36881344 C10.7639876,5.13023305 8.99861537,7.95979423 10.6324071,10.3835989 C13.1287823,14.0862164 17.9636361,13.0399801 21.5645568,12.1504645 C25.028049,11.2952987 29.2298542,11.5128472 31.6173099,8.35982577 C32.3307689,7.41735433 31.9638054,5.88378083 31.1962522,5.11234255" id="Fill-808" fill="#7014FC"></path>
                            </g>
                        </g>
                    </g>
                    <path d="M90.2085803,73.0745061 C89.3578789,71.3322923 87.4337551,69.7338479 85.8414165,68.7489707 C83.4351138,67.2716549 79.8853581,69.8096948 80.9151546,72.5741432 C81.3755207,73.8114659 81.9805405,74.7680421 82.753175,75.8015971 C82.7876163,75.8491429 82.8209096,75.8978208 82.856499,75.9442345 C82.8404264,75.93065 82.8909404,76.008761 83.0068929,76.1808315 C83.314569,76.6596856 83.6096167,77.1294833 83.999952,77.5573955 C85.1709581,78.8298115 87.1697048,79.1026339 88.6736439,78.2898271 C90.5931755,77.2483478 91.1281645,74.9593573 90.2085803,73.0745061" id="Fill-5" fill="#E59900"></path>
                    <path d="M52.7812537,74.1844801 C52.4038206,71.8220036 49.641645,70.7284951 47.8394869,72.5385573 C46.1903422,74.193536 45.1226485,76.5209206 44.4777253,78.7260496 C44.0175516,80.3063165 45.2405255,82.0869468 46.6618502,82.7129409 C48.460608,83.5019423 50.9586938,82.7355808 51.6965586,80.8406188 C52.4922284,78.7996293 53.1258173,76.3398012 52.7812537,74.1844801" id="Fill-7" fill="#E59900"></path>
                    <path d="M55.2379182,72.7751603 C48.6589847,75.8170951 41.325576,76.4574432 34.5671138,75.4828536 C33.4660798,75.2138849 32.4070874,74.8042422 31.4128617,74.2460477 C30.418636,73.6923548 29.4880408,72.9889848 28.6517549,72.137063 C26.8837376,70.3308087 27.0234973,67.116689 28.6972052,65.3712059 C29.4755419,64.5597982 30.6833841,64.0691272 31.8775912,64.0443686 C33.7171928,64.5327888 35.2386422,65.5760272 36.849856,66.5528675 C41.1460472,68.5121751 45.4865526,69.8390124 50.2202032,70.4208401 C52.6097536,71.1613481 54.60275,72.0245238 55.2379182,72.7751603" id="Fill-33" fill="#FFB000"></path>
                    <path d="M29.4515964,69.7593888 C30.5950114,67.9668763 32.0332215,66.3121596 32.5762082,64.1926742 C32.432062,64.1412927 32.2879159,64.0887435 32.1405183,64.0443686 C31.0014385,64.0700593 29.8504368,64.5792029 29.1069461,65.4211583 C27.7207587,66.9952996 27.4389692,69.7185172 28.4967635,71.6348123 C28.7492903,70.992544 29.0657615,70.3666243 29.4515964,69.7593888" id="Fill-35" fill="#FFD41D"></path>
                    <path d="M36.7683532,66.5023439 C36.2031347,66.1566684 35.6469597,65.804215 35.0873933,65.4675768 C33.7071297,68.2928524 31.5423428,70.8255465 30.6877323,73.8180116 C30.909298,73.9592189 31.1319941,74.0992965 31.3592119,74.2246886 C32.3099095,74.7635357 33.3205202,75.1611754 34.3706962,75.4300341 C34.9980888,73.9117733 35.1043499,72.2240636 35.4819159,70.6233377 C35.7260903,69.6021265 36.2268739,68.7706979 36.7977446,67.9460473 C37.0893974,67.5246847 37.2329629,67.1259153 37.2973978,66.7350535 C37.1210496,66.6548478 36.943571,66.5836793 36.7683532,66.5023439" id="Fill-37" fill="#FFD41D"></path>
                    <path d="M40.2042848,67.8395904 C39.9005275,68.93513 39.493163,70.0090993 39.0846212,71.0762569 C39.0457685,71.3101234 39.0092705,71.5417193 38.9869008,71.7812621 C38.8550371,73.1413205 38.7820412,74.5025142 38.7137546,75.8648431 C39.9440896,75.9170657 41.1803113,75.9193362 42.4224198,75.8614373 C42.5448646,75.2359012 42.6084417,74.6092299 42.5625249,73.9893703 C42.4400801,72.2149368 43.1099945,70.5563014 43.4349442,68.8931248 C42.3458918,68.5809244 41.2733223,68.2301247 40.2042848,67.8395904" id="Fill-39" fill="#FFD41D"></path>
                    <path d="M64.3472109,78.8890566 C63.3922581,76.6534812 61.9459326,74.565344 60.9554053,72.2794796 C60.3195113,70.8119546 58.6408399,68.4175116 57.3145783,68.8369677 C55.5736515,69.3844322 54.3618954,73.2383997 54.891066,75.1459536 C55.7604176,78.2775879 57.1778389,84.026537 60.7475169,84.4231345 C63.4689656,84.7271545 65.5089405,81.6000919 64.3472109,78.8890566" id="Fill-41" fill="#E59900"></path>
                    <path d="M80.2275127,71.4474304 C80.0928936,70.8356394 80.0883686,70.3534845 79.8462806,69.7291848 C78.2828899,65.6786283 73.7816369,67.2615521 73.7352556,71.2472906 C73.203567,72.8552319 72.728441,74.4927393 72.369834,76.1836932 C71.7849766,78.9356153 73.1492669,81.943398 75.3518151,82.7883064 C76.4185861,83.1988204 77.570201,83.0612243 78.5249779,82.4050841 C79.9209433,81.4487343 80.4096443,79.8601247 80.6019572,77.954248 C80.6596511,77.3640631 80.6981136,76.7704666 80.7218699,76.1711844 C80.7829576,74.5382256 80.5714134,73.0326285 80.2275127,71.4474304" id="Fill-43" fill="#E59900"></path>
                    <path d="M48.5265472,70.7211412 C48.1187,69.2493812 47.7840561,67.7522858 47.4482502,66.2540387 C47.1449791,64.8951367 45.9098177,64.2214438 45.0278915,64.6440854 C44.0100163,65.1312172 43.7323083,66.5315772 44.0065304,67.8973889 C44.2714568,69.2217425 44.5061724,70.5553091 44.7583173,71.8808143 C45.0325394,73.329542 46.1619626,74.2577412 47.1775139,73.946806 C48.1279956,73.6554482 48.9158032,72.1261076 48.5265472,70.7211412" id="Fill-53" fill="#FFD41D"></path>
                    <path d="M65.6968311,69.8570687 C65.8734911,70.3670256 66.0868164,70.8658481 66.2590321,71.3802587 C66.6479064,72.5504873 67.6978669,73.3187629 68.8456015,72.9758225 C70.1555522,72.5838906 70.7499742,70.8992513 70.0477784,69.6232457 C69.4855774,68.6066723 68.9111546,67.6123677 68.2522905,66.6659411 C67.7767528,65.9822872 66.8712313,65.7618254 66.1668134,66.0947449 C65.2490702,66.5289877 64.9524147,67.6246155 65.2835133,68.6088991 C65.4101752,69.0297806 65.5501699,69.4428679 65.6968311,69.8570687" id="Fill-57" fill="#FFD41D"></path>
                    <path d="M60.4570859,82.0800216 C60.0451567,81.9910729 59.8097686,82.6347807 60.0651425,82.967168 C60.2072636,83.1509174 60.3482744,83.3299852 60.4748511,83.5266087 C60.5925451,83.7080172 60.6547231,83.9268779 60.7724171,84.1071161 C60.9334137,84.3470435 61.155478,84.5050445 61.4297273,84.4207773 C61.7494998,84.3248063 61.8971726,83.9666707 61.8327739,83.6097055 C61.6928735,82.8513006 61.1143961,82.2251485 60.4570859,82.0800216" id="Fill-67" fill="#C17B00"></path>
                    <path d="M62.6656652,80.7533061 C62.2228209,80.4386739 61.6231619,80.886855 61.9330275,81.374648 C62.1337502,81.694939 62.3244367,82.0276794 62.5201413,82.3491022 C62.7359181,82.7101369 62.7735536,83.2092476 63.1950712,83.4061756 C63.4986642,83.5476469 63.8976005,83.5431198 64.0795054,83.2205653 C64.6114204,82.281196 63.36694,81.2467579 62.6656652,80.7533061" id="Fill-69" fill="#C17B00"></path>
                    <path d="M65.1051685,80.2734282 C65.0930474,80.2399283 65.0688053,80.2131284 65.0526439,80.1807453 C65.0304219,80.1293788 65.0041596,80.0802457 64.9677965,80.0322292 C64.8950701,79.933963 64.8172933,79.8468634 64.7364862,79.7631138 C64.4405302,79.4627318 64.1082111,79.2874159 63.7284178,79.2293495 C63.3264025,79.1645831 63.0718602,79.8859466 63.4476132,80.1483621 C63.7516498,80.3616445 63.9829601,80.61736 64.2243713,80.9233253 C64.6243663,81.4258231 65.1980966,80.8853588 65.1011281,80.3381946 C65.167794,80.4878272 65.1698142,80.4677273 65.1051685,80.2734282" id="Fill-71" fill="#C17B00"></path>
                    <path d="M73.5477538,77.8175795 C73.1503435,77.9400563 72.9173789,78.2957717 72.7002263,78.6589422 C72.4430165,79.0924037 72.2458926,79.4736794 72.2342971,80.0147076 C72.225864,80.4758595 72.7729619,80.8763056 73.1134487,80.4982249 C73.4307444,80.1425095 73.6247059,79.7569737 73.8429126,79.3245772 C74.0147372,78.981642 74.1802369,78.6088864 74.1032848,78.2031153 C74.059011,77.9411213 73.7838808,77.7440934 73.5477538,77.8175795" id="Fill-73" fill="#C17B00"></path>
                    <path d="M74.6272117,79.8746486 C74.0365725,80.534724 73.4313752,81.6046658 73.7287746,82.6340976 C73.8587568,83.0832825 74.3682871,83.147622 74.5908166,82.7913719 C74.8008679,82.4541853 74.8518209,82.0693399 75.0005206,81.6940262 C75.1346623,81.3532652 75.3124779,81.044674 75.4632573,80.7170192 C75.7689755,80.0533693 75.0805897,79.3694644 74.6272117,79.8746486" id="Fill-75" fill="#C17B00"></path>
                    <path d="M77.2650774,81.4079776 C76.8776616,80.8572935 76.0455272,81.1730332 76.0405444,81.7715567 C76.0355615,81.9884285 75.9857331,82.2956634 76.0280873,82.5614376 C76.1127956,83.1004277 76.8166218,83.1440147 77.1442436,82.8006344 C77.4481968,82.4817054 77.5366423,81.7938818 77.2650774,81.4079776" id="Fill-77" fill="#C17B00"></path>
                    <path d="M44.7066238,78.2828838 C44.1442311,78.2482965 43.7640047,78.3508657 43.3312069,78.6466464 C43.0341168,78.8482067 42.9742098,79.1547215 42.9632064,79.5053648 C42.9497579,79.8691275 43.2945291,80.1923395 43.6295195,80.1732569 C44.0989951,80.1529816 44.1381181,80.0205958 44.420537,79.8190356 C44.5953678,79.6926131 44.7970956,79.6186679 44.9927105,79.5339888 C45.6003391,79.2739879 45.2910231,78.3174711 44.7066238,78.2828838" id="Fill-79" fill="#C17B00"></path>
                    <path d="M45.9560041,80.2228397 C45.6214893,80.3994383 45.3482842,80.5102453 45.0471133,80.739939 C44.8556546,80.8853732 44.6803301,81.0781313 44.5383496,81.2858944 C44.0059224,82.063852 44.9298718,82.988398 45.5375917,82.3108593 C45.8893163,81.9138008 46.2819141,81.5744544 46.6185801,81.1589281 C46.9982706,80.6822271 46.4045337,79.9827578 45.9560041,80.2228397" id="Fill-81" fill="#C17B00"></path>
                    <path d="M47.5713705,80.7934684 C47.1774482,81.1213149 46.9343633,81.5050444 46.7797862,82.006749 C46.5092763,82.8685881 47.6835635,83.4187245 48.1098971,82.663684 C48.3118446,82.307275 48.4676683,81.9297548 48.5923272,81.5311231 C48.8017543,80.8580442 48.0475677,80.401046 47.5713705,80.7934684" id="Fill-83" fill="#C17B00"></path>
                    <path d="M89.994482,76.5463876 C89.881121,76.4112872 89.7687906,76.2574228 89.645124,76.1360825 C89.418402,75.9159188 89.2102299,75.6882495 88.9639274,75.5056137 C88.5104833,75.1678626 88.0869254,76.0435137 88.3868168,76.5263727 C88.5949888,76.8678767 88.8083136,77.2781818 89.0886245,77.524615 C89.2947354,77.7047489 89.5472213,77.8748755 89.7966155,77.7697973 C89.9810848,77.6922396 90.1222708,77.488338 90.163493,77.238152 C90.2026541,76.9892169 90.1377291,76.7227688 89.994482,76.5463876" id="Fill-85" fill="#C17B00"></path>
                    <path d="M90.719584,74.355552 C90.4384088,74.2125448 90.158372,74.0749546 89.8487378,74.0153683 C89.4981226,73.9481982 89.1884884,74.2883819 89.2351612,74.6415663 C89.2590668,74.8409096 89.3877016,75.015335 89.5641476,75.096589 C89.5869148,75.1063395 89.7349017,75.1247571 89.8703667,75.1225903 C89.7952348,75.1507584 89.720103,75.1789265 89.6415561,75.2070946 C89.7371784,75.2731812 89.8350775,75.3403512 89.9329765,75.4021043 C90.0866553,75.5061095 90.2426107,75.6133649 90.4053964,75.7065362 C90.6774647,75.8603773 90.96547,75.9968841 91.2659973,75.8235421 C91.5004997,75.6870353 91.6109207,75.4909421 91.5881535,75.2049278 C91.5483108,74.7369044 91.0519854,74.5299774 90.719584,74.355552" id="Fill-87" fill="#C17B00"></path>
                    <path d="M90.9504824,72.1093418 C90.6818008,71.8453955 90.406374,71.6694313 90.0387637,71.6404616 C89.6902645,71.6147107 89.3901056,71.6769419 89.0730838,71.8282283 C88.532348,72.083591 88.7279572,73.0267163 89.3586282,72.9108374 C89.7498466,72.8389496 90.123078,72.9623391 90.5086754,73.0460294 C91.0302999,73.1565435 91.3248379,72.4762916 90.9504824,72.1093418" id="Fill-89" fill="#C17B00"></path>
                    <path d="M115.369425,65.2870404 C100.415758,67.8531213 85.4779365,66.6531145 70.4382509,65.6828721 C56.0753964,64.7547152 41.5280545,64.5249508 27.1369044,64.0984082 C17.9329065,63.8265583 8.89075959,63.5808697 8.5093347,52.2018481 C8.21958759,43.4855904 12.2104012,33.3259123 17.9883659,27.4714717 C32.902419,12.3604859 53.9883118,-1.12167544 76.135856,6.34111548 C88.3505074,10.4563994 99.4820025,18.4037428 107.419489,28.3074953 C113.544924,35.9522778 119.706577,46.7489264 119.848055,57.0212118 C119.85145,57.2407391 119.840132,57.4511669 119.82655,57.6604571 C120.763701,60.9488169 119.707709,64.5420125 115.369425,65.2870404 M111.937733,25.0760079 C82.6981752,-9.96873957 31.2318459,-9.20664996 8.94395535,33.2189922 C5.86765602,39.8309727 3.3063369,46.6761298 2.44954566,53.0879195 C0.420184104,68.2648772 3.88130381,84.2835457 13.0705879,96.625985 C25.1562113,112.793659 48.9686695,122.877128 66.3795277,122.870311 C87.5321982,122.863479 105.415027,111.908725 116.024751,93.6708973 C116.874752,94.2054974 123.302384,76.0996133 123.850187,73.7132491 C125.653183,65.8512142 126.291532,57.7901261 124.588136,49.8609819 C122.520293,40.7329683 117.85378,32.2032519 111.937733,25.0760079 Z" id="Fill-91" fill="#AC3AE8"></path>
                    <path d="M124.582997,49.9393684 C122.504477,40.8104895 117.813871,32.2821648 111.86728,25.1539958 C99.691955,10.6383277 83.681551,2.28630207 67.5130112,0.47440273 C67.6973134,1.86545916 67.8645506,3.25196593 68.0192735,4.62709857 C70.6188452,4.95581101 73.2434457,5.53475436 75.8805605,6.41966189 C88.1582752,10.5359605 99.3472415,18.483067 107.325708,28.3865243 C113.482768,36.0299415 119.676234,46.8262683 119.818442,57.0993849 C119.821855,57.3177682 119.810479,57.5293271 119.795689,57.7374737 C120.738816,61.0268729 119.677372,64.618824 115.316689,65.3649671 C100.963868,67.8138179 86.6281115,66.8310928 72.2024793,65.8915895 C71.7280717,80.8064897 70.1239596,95.6417709 69.3150775,110.538473 C69.0943699,114.644534 68.8372569,118.773345 68.3935663,122.870307 C88.6349582,122.094591 105.702256,111.316463 115.975399,93.7468404 C116.829788,94.2825621 123.290606,76.1772177 123.841237,73.7909246 C125.653542,65.9291241 126.295187,57.8682763 124.582997,49.9393684" id="Fill-93" fill="#8A3CE5"></path>
                    <path d="M70.8101326,100.978664 C71.0554528,93.2968758 72.132525,85.6604682 72.2342007,77.9843526 C72.2458395,77.0948943 69.8825889,77.1141811 69.8931026,78.0104464 C70.103377,92.7806724 68.3359039,107.979744 67.0427163,122.689841 C66.9913159,123.265039 68.0403515,123.350128 68.4013226,123.34471 C68.7038841,123.341052 68.9655589,123.294536 69.2038698,123.196968 C69.7622652,123.073306 70.2482327,122.781737 70.2715965,122.335873 C70.3066423,121.726639 70.3229969,121.103792 70.3148196,120.492289 C70.3089786,120.008987 70.0648267,119.502994 70.1851504,119.025364 C70.2482327,118.772367 70.0823496,118.62715 69.8370294,118.548868 C71.7960859,113.345991 70.6512586,105.953504 70.8101326,100.978664" id="Fill-107" fill="#8A30C4"></path>
                    <path d="M79.1207144,81.6409085 C78.6001908,80.6829829 76.5088012,81.193646 76.1393223,82.0397559 C75.8767367,82.6403326 75.1865782,83.8852899 75.7617103,84.4512845 C76.4634877,85.1452329 78.3178532,85.0841378 78.8476719,84.1423506 C79.2380646,83.4472494 79.5238879,82.3809664 79.1207144,81.6409085" id="Fill-109" fill="#8A30C4"></path>
                    <path d="M78.3434941,91.7843271 C78.3209206,91.4273068 78.092929,91.1339588 78.0726129,90.7985417 C78.013922,89.8741546 76.0917948,89.9980884 75.7678661,90.6768819 C75.3829892,91.4830201 74.7170732,92.5529441 75.2904382,93.4341249 C75.8739612,94.3278127 77.8920255,93.917353 78.250943,92.996377 C78.415729,92.5756843 78.3739682,92.226623 78.3434941,91.7843271" id="Fill-111" fill="#8A30C4"></path>
                    <path d="M77.4825134,99.4810405 C77.0339604,98.9369474 75.7175548,99.1164067 75.3177576,99.6387818 C74.8811226,100.206879 74.7001846,100.842416 74.6070069,101.552252 C74.5289977,102.140924 74.8345338,102.713594 75.2440822,103.086229 C75.6384622,103.445148 76.6634166,103.605175 77.0317935,103.096516 C77.7219584,102.140924 78.3373645,100.523505 77.4825134,99.4810405" id="Fill-113" fill="#8A30C4"></path>
                    <path d="M76.2741874,109.595 C75.8939354,108.885305 74.3620002,109.052354 73.883407,109.496047 C73.2551169,110.082317 72.9579084,111.237834 73.3654775,112.00605 C73.6113301,112.467831 74.4734534,112.466767 74.9017833,112.40399 C75.4306397,112.327381 76.0294275,112.096491 76.2512412,111.584701 C76.513484,110.973959 76.5954349,110.196166 76.2741874,109.595" id="Fill-115" fill="#8A30C4"></path>
                    <path d="M75.5201733,117.639631 C75.7673904,116.300917 73.5112656,116.609944 73.0232805,117.254555 C72.7588657,117.605831 72.5729154,118.002979 72.4804777,118.449619 C72.4063126,118.799689 72.1515715,119.403257 72.2612069,119.749705 C72.6051611,120.832506 74.2615157,120.58625 74.8881574,119.980268 C75.2374859,119.641062 75.4567567,119.289786 75.4933018,118.764682 C75.5180236,118.409784 75.4567567,117.983665 75.5201733,117.639631" id="Fill-117" fill="#8A30C4"></path>
                    <path d="M125.469245,54.7933375 C125.408004,54.4736486 125.053031,54.2695918 124.775177,54.1970383 C124.548357,54.1358213 124.319269,54.0768715 124.090181,54.0156545 C123.553753,53.875082 122.179226,54.0303919 122.043134,54.7672636 C122.019318,54.8840295 122.01705,55.0053299 122.000038,55.124363 C113.874225,56.1514488 91.1446278,58.4924335 85.604558,58.5071709 C71.4328665,58.5479823 59.0428433,58.9277546 44.9029065,58.1670763 C38.4306079,57.8190461 31.5874592,56.0403512 25.1242334,55.2048521 C18.8923636,54.3976941 12.6355437,53.7515143 6.39573521,52.990836 C5.74816512,52.9126142 5.06203569,52.8763375 4.36002889,52.8706692 C4.2863125,52.5691186 4.17403678,52.2811719 3.95402172,52.0340364 C3.4527503,51.4694793 1.63932723,51.6406603 1.60417019,52.5611831 C1.55086757,53.875082 0.730914547,55.2490644 0.434914909,56.5266865 C-0.0527473304,58.6375406 0.0436510193,60.9241101 0.00849397411,63.0757755 C-0.0448086428,66.2307201 0.0935513414,70.7913891 2.18482848,73.3137576 C3.01725658,74.3159031 5.504334,73.2593425 5.55536842,72.4045713 C13.5689065,73.7422769 21.9124672,74.1254502 29.8602276,74.9428109 C44.4424627,76.4448956 59.0666594,77.4617785 73.7589019,77.3132705 C87.1049699,77.1817673 101.757519,76.4256235 114.781503,73.9089232 C116.15036,73.6436494 118.813222,73.0654885 121.778889,72.2061828 C121.732391,72.3456216 121.694966,72.4850604 121.645066,72.6244992 C121.18689,74.1458558 124.805797,73.5302845 125.267375,72.2639989 C127.28607,66.7238573 126.517152,60.4615814 125.469245,54.7933375" id="Fill-95" fill="#8E2CCE"></path>
                </g>
            </g>
        </g>
    </g>
</svg>