<?xml version="1.0" encoding="UTF-8"?>
<svg width="121px" height="102px" viewBox="0 0 121 102" version="1.1" xmlns="http://www.w3.org/2000/svg" xmlns:xlink="http://www.w3.org/1999/xlink">
    <title>Math Icon</title>
    <g id="Student-Environment---v2" stroke="none" stroke-width="1" fill="none" fill-rule="evenodd">
        <g id="Student-Homepage---Balloons-Copy" transform="translate(-689.000000, -185.000000)">
            <g id="Group" transform="translate(542.000000, 119.000000)">
                <g id="Math-Icon" transform="translate(147.000000, 66.000000)">
                    <path d="M119,12.4559489 C119,11.5125798 118.645686,10.6256374 118.002535,9.95782848 L111.326011,3.03047469 C110.701869,2.3834834 109.878657,2.02191334 109,2 C109.978456,2.69081796 110.622663,3.85496401 110.622663,5.17250342 L110.622663,86.781059 L119,96 L119,12.4559489 Z" id="Fill-1" fill="#F69125"></path>
                    <path d="M106.522159,91.3390469 L5.88645506,91.3390469 C4.73209043,91.3390469 3.69837973,90.8177302 3,90 C3.04076146,90.8717725 3.40217977,91.7058791 4.02121052,92.327638 L10.6332633,98.9693761 C11.2952295,99.6337136 12.1751336,100 13.1115602,100 L115,100 L106.855316,91.3221246 C106.745532,91.3314046 106.634661,91.3390469 106.522159,91.3390469" id="Fill-3" fill="#F69125"></path>
                    <path d="M119,96.5861634 L119,95.907525 L110.444365,87 L110.444365,87.8956755 C110.444365,89.8294242 108.926838,91.4196189 107,91.5847789 L115.081071,100 L115.5222,100 C117.439331,100 119,98.4685642 119,96.5861634" id="Fill-5" fill="#FEFEFE"></path>
                    <path d="M108.913193,1 C107.720049,1 106.554805,1.41583074 105.633004,2.17010301 L97.2957659,8.9923431 L13.9299493,8.9923431 C11.0797517,8.9923431 8.76075222,11.3025744 8.76075222,14.1419953 L8.76075222,81.4357257 L2.88803231,86.2409415 C1.76327105,87.1614371 1.07725422,88.5201081 1.00613604,89.9687033 C0.93501787,91.4172984 1.48481605,92.8359189 2.51438837,93.8615984 L9.16940818,100.492 C10.1459154,101.464815 11.4440956,102 12.8243352,102 L115.83135,102 C118.681,102 121,99.6897687 121,96.8508928 L121,13.0405616 C121,11.6655407 120.462237,10.372269 119.486277,9.39945393 L112.569214,2.50854454 C111.59216,1.53572951 110.29398,1 108.913193,1 M108.913193,4.26996649 C109.398438,4.26996649 109.881494,4.45526459 110.247479,4.82041085 L117.165089,11.7118652 C117.518492,12.0639316 117.717623,12.5424367 117.717623,13.0405616 L117.717623,96.8508928 C117.717623,97.8885621 116.872958,98.7300335 115.83135,98.7300335 L12.8243352,98.7300335 C12.3237727,98.7300335 11.8439986,98.5322005 11.4905959,98.1795891 L4.83502907,91.5491871 C4.04671147,90.7643951 4.11017077,89.4727584 4.97179478,88.7675356 L11.3538302,83.5453991 C11.7903864,83.1884278 12.0431294,82.6554232 12.0431294,82.092444 L12.0431294,14.1419953 C12.0431294,13.103781 12.8883416,12.2623096 13.9299493,12.2623096 L97.7952343,12.2623096 C98.2323375,12.2623096 98.6552171,12.1113461 98.9927549,11.835034 L107.716219,4.69724211 C108.065793,4.41112004 108.490313,4.26996649 108.913193,4.26996649" id="Fill-7" fill="#282460"></path>
                    <path d="M114.34976,101 C113.912272,101 113.475884,100.83406 113.151207,100.50377 L105.453062,92.6844346 C104.82572,92.0471818 104.853235,91.0409374 105.514696,90.4360245 C106.176706,89.8321718 107.221726,89.8586798 107.849068,90.4959326 L115.547213,98.3152679 C116.174005,98.9525207 116.14704,99.958765 115.485029,100.563678 C115.165855,100.855266 114.756982,101 114.34976,101" id="Fill-9" fill="#282460"></path>
                    <path d="M118.324622,97 C117.88047,97 117.437434,96.83172 117.107812,96.4967728 L108.459964,87.7225552 C107.823065,87.0763169 107.851,86.055884 108.522536,85.4424414 C109.194631,84.8295365 110.256128,84.8569559 110.891909,85.5026566 L119.540316,94.2774119 C120.176655,94.9236502 120.14928,95.9440831 119.477185,96.5575257 C119.153149,96.8532254 118.738048,97 118.324622,97" id="Fill-11" fill="#282460"></path>
                    <path d="M4.83095593,92 C2.71900465,92 1,90.2837258 1,88.1739109 L1,5.82608907 C1,3.71627424 2.71900465,2 4.83095593,2 L106.169044,2 C108.280995,2 110,3.71627424 110,5.82608907 L110,88.1739109 C110,90.2837258 108.280995,92 106.169044,92 L4.83095593,92 Z" id="Fill-13" fill="#FEFEFE"></path>
                    <path d="M106.541032,0 L5.45896757,0 C2.44834696,0 0,2.44462935 0,5.44946355 L0,87.5505364 C0,90.5553707 2.44834696,93 5.45896757,93 L106.541032,93 C109.551107,93 112,90.5553707 112,87.5505364 L112,5.44946355 C112,2.44462935 109.551107,0 106.541032,0 M106.541032,3.26967813 C107.746918,3.26967813 108.724619,4.24567705 108.724619,5.44946355 L108.724619,87.5505364 C108.724619,88.7543229 107.746918,89.7303219 106.541032,89.7303219 L5.45896757,89.7303219 C4.25308164,89.7303219 3.27538054,88.7543229 3.27538054,87.5505364 L3.27538054,5.44946355 C3.27538054,4.24567705 4.25308164,3.26967813 5.45896757,3.26967813 L106.541032,3.26967813" id="Fill-15" fill="#282460"></path>
                    <path d="M48.7874548,57 C46.6994851,57 45,55.2523654 45,53.1039994 L45,39.8960006 C45,37.7476346 46.6994851,36 48.7874548,36 L70.2125452,36 C72.3005149,36 74,37.7476346 74,39.8960006 L74,53.1039994 C74,55.2523654 72.3005149,57 70.2125452,57 L48.7874548,57 Z" id="Fill-17" fill="#F69125"></path>
                    <path d="M69.6306923,35 L48.3693077,35 C45.4092084,35 43,37.4619043 43,40.4879722 L43,53.5120278 C43,56.5380957 45.4092084,59 48.3693077,59 L69.6306923,59 C72.5913286,59 75,56.5380957 75,53.5120278 L75,40.4879722 C75,37.4619043 72.5913286,35 69.6306923,35 M69.6306923,38.2927833 C70.8167724,38.2927833 71.7784154,39.2756791 71.7784154,40.4879722 L71.7784154,53.5120278 C71.7784154,54.7243209 70.8167724,55.7072167 69.6306923,55.7072167 L48.3693077,55.7072167 C47.1832276,55.7072167 46.2215846,54.7243209 46.2215846,53.5120278 L46.2215846,40.4879722 C46.2215846,39.2756791 47.1832276,38.2927833 48.3693077,38.2927833 L69.6306923,38.2927833" id="Fill-19" fill="#282460"></path>
                    <path d="M82.8958974,84 C80.7481448,84 79,82.2956589 79,80.2005134 L79,39.7994866 C79,37.7043411 80.7481448,36 82.8958974,36 L96.1041026,36 C98.2524117,36 100,37.7043411 100,39.7994866 L100,80.2005134 C100,82.2956589 98.2524117,84 96.1041026,84 L82.8958974,84 Z" id="Fill-21" fill="#F69125"></path>
                    <path d="M96.5120278,34 L83.4879722,34 C80.4619043,34 78,36.470212 78,39.5064913 L78,80.4935087 C78,83.529788 80.4619043,86 83.4879722,86 L96.5120278,86 C99.5380957,86 102,83.529788 102,80.4935087 L102,39.5064913 C102,36.470212 99.5380957,34 96.5120278,34 M96.5120278,37.3038948 C97.7243209,37.3038948 98.7072167,38.2901074 98.7072167,39.5064913 L98.7072167,80.4935087 C98.7072167,81.7098926 97.7243209,82.6961052 96.5120278,82.6961052 L83.4879722,82.6961052 C82.2756791,82.6961052 81.2927833,81.7098926 81.2927833,80.4935087 L81.2927833,39.5064913 C81.2927833,38.2901074 82.2756791,37.3038948 83.4879722,37.3038948 L96.5120278,37.3038948" id="Fill-23" fill="#282460"></path>
                    <path d="M11.6398023,31 C10.7340848,31 10,30.2525244 10,29.3302854 L10,11.6697146 C10,10.7474756 10.7340848,10 11.6398023,10 L98.3601977,10 C99.2664618,10 100,10.7474756 100,11.6697146 L100,29.3302854 C100,30.2525244 99.2664618,31 98.3601977,31 L11.6398023,31 Z" id="Fill-25" fill="#FEFEFE"></path>
                    <path d="M97.7302069,9 L11.2697931,9 C9.46323241,9 8,10.4746181 8,12.2927833 L8,29.7072167 C8,31.5259307 9.46323241,33 11.2697931,33 L97.7302069,33 C99.5356777,33 101,31.5259307 101,29.7072167 L101,12.2927833 C101,10.4746181 99.5356777,9 97.7302069,9 L97.7302069,9 Z M11.2697931,29.7072167 L97.7302069,29.7072167 L97.7302069,12.2927833 L11.2697931,12.2927833 L11.2697931,29.7072167 Z" id="Fill-27" fill="#282460"></path>
                    <path d="M13.7874548,57 C11.6994851,57 10,55.2523654 10,53.1039994 L10,39.8960006 C10,37.7476346 11.6994851,36 13.7874548,36 L35.2125452,36 C37.3005149,36 39,37.7476346 39,39.8960006 L39,53.1039994 C39,55.2523654 37.3005149,57 35.2125452,57 L13.7874548,57 Z" id="Fill-29" fill="#F69125"></path>
                    <path d="M35.6306923,35 L14.3693077,35 C11.4092084,35 9,37.4619043 9,40.4879722 L9,53.5120278 C9,56.5380957 11.4092084,59 14.3693077,59 L35.6306923,59 C38.5918655,59 41,56.5380957 41,53.5120278 L41,40.4879722 C41,37.4619043 38.5918655,35 35.6306923,35 M35.6306923,38.2927833 C36.8167724,38.2927833 37.7784154,39.2756791 37.7784154,40.4879722 L37.7784154,53.5120278 C37.7784154,54.7243209 36.8167724,55.7072167 35.6306923,55.7072167 L14.3693077,55.7072167 C13.1832276,55.7072167 12.2215846,54.7243209 12.2215846,53.5120278 L12.2215846,40.4879722 C12.2215846,39.2756791 13.1832276,38.2927833 14.3693077,38.2927833 L35.6306923,38.2927833" id="Fill-31" fill="#282460"></path>
                    <path d="M13.7874548,83 C11.6994851,83 10,81.2524117 10,79.1041026 L10,65.8958974 C10,63.7475883 11.6994851,62 13.7874548,62 L35.2125452,62 C37.3005149,62 39,63.7475883 39,65.8958974 L39,79.1041026 C39,81.2524117 37.3005149,83 35.2125452,83 L13.7874548,83 Z" id="Fill-33" fill="#F69125"></path>
                    <path d="M35.6306923,61 L14.3693077,61 C11.4092084,61 9,63.4619043 9,66.4879722 L9,79.5120278 C9,82.5380957 11.4092084,85 14.3693077,85 L35.6306923,85 C38.5918655,85 41,82.5380957 41,79.5120278 L41,66.4879722 C41,63.4619043 38.5918655,61 35.6306923,61 M35.6306923,64.2927833 C36.8167724,64.2927833 37.7784154,65.2756791 37.7784154,66.4879722 L37.7784154,79.5120278 C37.7784154,80.7243209 36.8167724,81.7072167 35.6306923,81.7072167 L14.3693077,81.7072167 C13.1832276,81.7072167 12.2215846,80.7243209 12.2215846,79.5120278 L12.2215846,66.4879722 C12.2215846,65.2756791 13.1832276,64.2927833 14.3693077,64.2927833 L35.6306923,64.2927833" id="Fill-35" fill="#282460"></path>
                    <path d="M48.7580066,83 C46.6862712,83 45,81.2524117 45,79.1041026 L45,65.8958974 C45,63.7475883 46.6862712,62 48.7580066,62 L70.2419934,62 C72.3137288,62 74,63.7475883 74,65.8958974 L74,79.1041026 C74,81.2524117 72.3137288,83 70.2419934,83 L48.7580066,83 Z" id="Fill-37" fill="#F69125"></path>
                    <path d="M70.5016495,61 L48.4983505,61 C45.4671099,61 43,63.4619043 43,66.4879722 L43,79.5120278 C43,82.5380957 45.4671099,85 48.4983505,85 L70.5016495,85 C73.53344,85 76,82.5380957 76,79.5120278 L76,66.4879722 C76,63.4619043 73.53344,61 70.5016495,61 M70.5016495,64.2927833 C71.7162351,64.2927833 72.7009897,65.2756791 72.7009897,66.4879722 L72.7009897,79.5120278 C72.7009897,80.7243209 71.7162351,81.7072167 70.5016495,81.7072167 L48.4983505,81.7072167 C47.2837649,81.7072167 46.2990103,80.7243209 46.2990103,79.5120278 L46.2990103,66.4879722 C46.2990103,65.2756791 47.2837649,64.2927833 48.4983505,64.2927833 L70.5016495,64.2927833" id="Fill-39" fill="#282460"></path>
                    <line x1="24.5" y1="41" x2="24.5" y2="52" id="Fill-41" fill="#FEFEFE"></line>
                    <path d="M24.5,54 C23.6715,54 23,53.2597929 23,52.3465218 L23,41.6534782 C23,40.7396559 23.6715,40 24.5,40 C25.3285,40 26,40.7396559 26,41.6534782 L26,52.3465218 C26,53.2597929 25.3285,54 24.5,54" id="Fill-43" fill="#282460"></path>
                    <line x1="30" y1="46.5" x2="19" y2="46.5" id="Fill-45" fill="#FEFEFE"></line>
                    <path d="M29.3464567,48 L18.6535433,48 C17.739685,48 17,47.3285 17,46.5 C17,45.6715 17.739685,45 18.6535433,45 L29.3464567,45 C30.2597638,45 31,45.6715 31,46.5 C31,47.3285 30.2597638,48 29.3464567,48" id="Fill-47" fill="#282460"></path>
                    <line x1="66" y1="72.5" x2="55" y2="72.5" id="Fill-49" fill="#FEFEFE"></line>
                    <path d="M65.3465218,74 L54.6534782,74 C53.7396559,74 53,73.3285 53,72.5 C53,71.6715 53.7396559,71 54.6534782,71 L65.3465218,71 C66.2597929,71 67,71.6715 67,72.5 C67,73.3285 66.2597929,74 65.3465218,74" id="Fill-51" fill="#282460"></path>
                    <path d="M60.5,69 C59.6714341,69 59,68.3284361 59,67.50029 C59,66.6715639 59.6714341,66 60.5,66 C61.3285659,66 62,66.6715639 62,67.50029 C62,68.3284361 61.3285659,69 60.5,69" id="Fill-53" fill="#FEFEFE"></path>
                    <path d="M60.5,66 C59.6714341,66 59,66.6715639 59,67.50029 C59,68.329016 59.6714341,69 60.5,69 C61.3285659,69 62,68.329016 62,67.50029 C62,66.6715639 61.3285659,66 60.5,66" id="Fill-55" fill="#282460"></path>
                    <path d="M60.5,79 C59.6714341,79 59,78.3285659 59,77.5 C59,76.6714341 59.6714341,76 60.5,76 C61.3285659,76 62,76.6714341 62,77.5 C62,78.3285659 61.3285659,79 60.5,79" id="Fill-57" fill="#FEFEFE"></path>
                    <path d="M60.5,76 C59.6714341,76 59,76.6714341 59,77.5 C59,78.3285659 59.6714341,79 60.5,79 C61.3285659,79 62,78.3285659 62,77.5 C62,76.6714341 61.3285659,76 60.5,76" id="Fill-59" fill="#282460"></path>
                    <line x1="28" y1="69" x2="21" y2="76" id="Fill-61" fill="#FEFEFE"></line>
                    <path d="M20.6735129,78 C20.2450936,78 19.8172321,77.8365536 19.4903393,77.5096607 C18.8365536,76.8564329 18.8365536,75.7965414 19.4903393,75.1433136 L27.1433136,67.4903393 C27.7970992,66.8365536 28.855875,66.8365536 29.5096607,67.4903393 C30.1634464,68.1435671 30.1634464,69.2034586 29.5096607,69.8566864 L21.8566864,77.5096607 C21.5297936,77.8365536 21.1019321,78 20.6735129,78" id="Fill-63" fill="#282460"></path>
                    <line x1="28" y1="76" x2="21" y2="69" id="Fill-65" fill="#FEFEFE"></line>
                    <path d="M28.3264871,78 C27.8980679,78 27.4702064,77.8365536 27.1433136,77.5096607 L19.4903393,69.8566864 C18.8365536,69.2034586 18.8365536,68.1435671 19.4903393,67.4903393 C20.144125,66.8365536 21.2029008,66.8365536 21.8566864,67.4903393 L29.5096607,75.1433136 C30.1634464,75.7965414 30.1634464,76.8564329 29.5096607,77.5096607 C29.1827679,77.8365536 28.7549064,78 28.3264871,78" id="Fill-67" fill="#282460"></path>
                    <line x1="66" y1="46.5" x2="55" y2="46.5" id="Fill-69" fill="#FEFEFE"></line>
                    <path d="M65.3465218,48 L54.6534782,48 C53.7396559,48 53,47.3285 53,46.5 C53,45.6715 53.7396559,45 54.6534782,45 L65.3465218,45 C66.2597929,45 67,45.6715 67,46.5 C67,47.3285 66.2597929,48 65.3465218,48" id="Fill-71" fill="#282460"></path>
                    <line x1="95" y1="57.5" x2="84" y2="57.5" id="Fill-73" fill="#FEFEFE"></line>
                    <path d="M95.3464567,59 L84.6535433,59 C83.739685,59 83,58.3285 83,57.5 C83,56.6715 83.739685,56 84.6535433,56 L95.3464567,56 C96.2597638,56 97,56.6715 97,57.5 C97,58.3285 96.2597638,59 95.3464567,59" id="Fill-75" fill="#282460"></path>
                    <line x1="95" y1="63.5" x2="84" y2="63.5" id="Fill-77" fill="#FEFEFE"></line>
                    <path d="M95.3464567,65 L84.6535433,65 C83.739685,65 83,64.3285 83,63.5 C83,62.6715 83.739685,62 84.6535433,62 L95.3464567,62 C96.2597638,62 97,62.6715 97,63.5 C97,64.3285 96.2597638,65 95.3464567,65" id="Fill-79" fill="#282460"></path>
                </g>
            </g>
        </g>
    </g>
</svg>