<?xml version="1.0" encoding="UTF-8"?>
<svg width="150px" height="110px" viewBox="0 0 150 110" version="1.1" xmlns="http://www.w3.org/2000/svg" xmlns:xlink="http://www.w3.org/1999/xlink">
    <title>Reading Icon</title>
    <defs>
        <polygon id="path-1" points="0 0.291859574 149.873038 0.291859574 149.873038 106.999886 0 106.999886"></polygon>
    </defs>
    <g id="Student-Environment---v2" stroke="none" stroke-width="1" fill="none" fill-rule="evenodd">
        <g id="Student-Homepage---Balloons-Copy" transform="translate(-199.000000, -177.000000)">
            <g id="Reading-Icon" transform="translate(199.000000, 177.000000)">
                <path d="M74.4164953,107 C72.7322008,107 71.0956232,106.520032 69.6828609,105.613487 L64.3635577,102.197507 L2.70417659,102.197507 C1.76290305,102.197507 1,101.442709 1,100.511436 L1,11.4655209 C1,11.0232083 1.17496213,10.5994424 1.48853062,10.2841471 L6.23466241,5.50469731 C6.5607282,5.17591343 7.00097382,5 7.45030837,5 C7.65083315,5 7.85306211,5.03540749 8.04847436,5.10734653 L20.6412032,9.77944977 L52.0639472,9.77944977 C62.2231119,9.77944977 70.9456557,15.9015742 74.5,24.7939136 C78.0549124,15.9015742 86.7774562,9.77944977 96.9366209,9.77944977 L128.358797,9.77944977 L140.951526,5.10734653 C141.146938,5.03540749 141.349167,5 141.549692,5 C141.999026,5 142.439272,5.17591343 142.765338,5.50469731 L147.511469,10.2841471 C147.825038,10.5994424 148,11.0232083 148,11.4655209 L148,100.511436 C148,101.442709 147.237097,102.197507 146.295823,102.197507 L84.2484581,102.197507 L79.2944168,105.518505 C77.8498431,106.487434 76.1627083,107 74.4170634,107 L74.4164953,107 Z" id="Fill-1" fill="#36BBA4"></path>
                <path d="M75.0828425,24.7939136 C78.609565,15.9015742 87.262377,9.77944977 97.3409812,9.77944977 L128.514548,9.77944977 L141.006855,5.10734653 C141.200718,5.03484547 141.401907,5 141.600278,5 C142.046049,5 142.483367,5.17591343 142.806848,5.50413528 L147.51478,10.2835851 C147.825862,10.5988804 148,11.0232083 148,11.4655209 L148,100.511436 C148,101.442709 147.243147,102.197507 146.309337,102.197507 L84.7534334,102.197507 L79.8386768,105.518505 C78.4055583,106.486872 76.7323658,107 75,107 L75,107" id="Fill-3" fill="#36BBA4"></path>
                <g id="Group-7" transform="translate(0.000000, 2.000000)">
                    <mask id="mask-2" fill="white">
                        <use xlink:href="#path-1"></use>
                    </mask>
                    <g id="Clip-6"></g>
                    <path d="M141.747566,0.291859574 C141.347377,0.291859574 140.943792,0.363003191 140.556057,0.509274468 L128.295679,5.13190213 L97.2932264,5.13190213 C90.8471887,5.13190213 84.6796415,7.53883298 79.9254906,11.9081894 C77.9296415,13.7425564 76.2530377,15.8569447 74.936434,18.1682585 C73.6203962,15.8569447 71.9437925,13.7425564 69.9473774,11.9081894 C65.1937925,7.53883298 59.0256792,5.13190213 52.5802075,5.13190213 L21.5771887,5.13190213 L9.31737736,0.509274468 C8.92907547,0.363003191 8.5260566,0.291859574 8.12586792,0.291859574 C7.23039623,0.291859574 6.35303774,0.648146809 5.70209434,1.31348191 L0.973415094,6.15409362 C0.349641509,6.79267872 -0.000169811321,7.65209362 -0.000169811321,8.54679574 L-0.000169811321,31.5256149 L-0.000169811321,98.7216149 C-0.000169811321,100.607774 1.52077358,102.136509 3.3960566,102.136509 L64.3328491,102.136509 L69.2120943,105.320328 C70.8954906,106.419354 72.8460566,106.999886 74.8532264,106.999886 C76.9339811,106.999886 78.9445472,106.379514 80.667,105.205929 L85.1715283,102.136509 L146.476811,102.136509 C148.35266,102.136509 149.873038,100.607774 149.873038,98.7216149 L149.873038,31.5256149 L149.873038,8.54679574 C149.873038,7.65209362 149.523226,6.79267872 148.900019,6.15409362 L144.170774,1.31348191 C143.520396,0.648146809 142.642472,0.291859574 141.747566,0.291859574 M141.748132,3.70675319 L146.476811,8.54679574 L146.476811,31.5256149 L146.476811,98.7216149 L84.1288868,98.7216149 L78.761717,102.378966 C77.5826604,103.182604 76.2179434,103.584993 74.8532264,103.584993 C73.5343585,103.584993 72.2149245,103.209354 71.0607736,102.45637 L65.3381321,98.7216149 L3.3960566,98.7216149 L3.3960566,31.5256149 L3.3960566,8.54679574 L8.12530189,3.70675319 L20.9613396,8.54679574 L52.5802075,8.54679574 C64.1998302,8.54679574 73.7460566,17.4613755 74.8311509,28.8591521 L74.936434,28.8989926 L75.042283,28.8591521 C76.1268113,17.4613755 85.6736038,8.54679574 97.2932264,8.54679574 L128.911528,8.54679574 L141.748132,3.70675319" id="Fill-5" fill="#282460" mask="url(#mask-2)"></path>
                </g>
                <polygon id="Fill-8" fill="#FEFEFE" points="135 5 142 5 142 26.228347 142 91 135 91"></polygon>
                <path d="M141.304613,91 C140.368195,91 139.609226,90.247074 139.609226,89.3181102 L139.609226,5.36377953 L98.9487645,5.36377953 C89.2675407,5.36377953 81.3907736,13.8864756 81.3907736,24.361285 L81.3907736,45.4998362 C81.3907736,46.4293606 80.6323706,47.181726 79.6953868,47.181726 C78.7589682,47.181726 78,46.4293606 78,45.4998362 L78,24.361285 C78,12.0313512 87.3975291,2 98.9487645,2 L141.304613,2 C142.241032,2 143,2.75348661 143,3.68188976 L143,89.3181102 C143,90.247074 142.241032,91 141.304613,91" id="Fill-10" fill="#282460"></path>
                <path d="M76,65.3196675 L76,72.8652087 L76,45.5458094 L76,21.8811489 C76,10.3491345 84.2551026,1 94.4372904,1 L135,1 L135,22.3447844 L135,89.791586 L92.4274641,89.791586 C87.2947202,89.791586 80.3221047,88.4827638 76,96" id="Fill-12" fill="#FEFEFE"></path>
                <path d="M74,65.2137774 L74,72.7853613 L74,45.3716718 L74,23.9532181 C74,12.3814021 64.7654574,3 53.3747903,3 L8,3 L8,24.4190218 L8,89.7701583 L55.6237355,89.7701583 C61.3651999,89.7701583 69.1649355,88.4568188 74,96" id="Fill-14" fill="#FEFEFE"></path>
                <path d="M75.3085037,98 C74.7554304,98 74.2125156,97.7290532 73.8880083,97.2290179 C70.1372683,91.4554196 64.5156732,91.6075797 59.0718517,91.7540833 C58.2744102,91.775578 57.500672,91.7965071 56.7596666,91.7965071 L8.69308155,91.7965071 C7.75793617,91.7965071 7,91.036838 7,90.0995545 L7,3.69695256 C7,2.75966909 7.75793617,2 8.69308155,2 L54.4898086,2 C66.9017894,2 77,12.120625 77,24.5609842 L77,73.1865941 C77,74.1244432 76.241956,74.8835466 75.3068106,74.8835466 C74.3716652,74.8835466 73.6137291,74.1244432 73.6137291,73.1865941 L73.6137291,24.5609842 C73.6137291,13.9923637 65.0348849,5.39390511 54.4898086,5.39390511 L10.3861631,5.39390511 L10.3861631,88.402602 L56.7596666,88.402602 C57.4713252,88.402602 58.2151524,88.3822386 58.9804253,88.3618751 C64.4507717,88.211412 71.9404001,88.010606 76.7256129,95.377077 C77.2357948,96.162766 77.0140012,97.2137453 76.2306688,97.7250937 C75.9456667,97.9111928 75.6251099,98 75.3085037,98" id="Fill-16" fill="#282460"></path>
                <path d="M134.305434,92 C133.369469,92 132.610869,91.2412802 132.610869,90.305168 L132.610869,3.38966398 L93.3229268,3.38966398 C83.9858697,3.38966398 76.3891315,11.9773777 76.3891315,22.5333563 L76.3891315,77.6385587 C76.3891315,78.5746709 75.6305309,79.3333906 74.6945657,79.3333906 C73.7586006,79.3333906 73,78.5746709 73,77.6385587 L73,22.5333563 C73,10.1085429 82.1167636,0 93.3229268,0 L134.305434,0 C135.241399,0 136,0.759284732 136,1.69483199 L136,90.305168 C136,91.2412802 135.241399,92 134.305434,92" id="Fill-18" fill="#282460"></path>
                <path d="M86.7107672,31 C86.2246644,31 85.7431206,30.7959569 85.4046153,30.3980729 C84.7948497,29.681655 84.88432,28.6081617 85.605211,28.0017004 C87.9377066,26.0377858 90.7306606,25 93.6797601,25 L127.290377,25 C128.234659,25 129,25.761194 129,26.700359 C129,27.6395239 128.234659,28.4007179 127.290377,28.4007179 L93.6797601,28.4007179 C91.5495699,28.4007179 89.5213873,29.1602116 87.8146137,30.5975817 C87.4932046,30.8679388 87.1011311,31 86.7107672,31" id="Fill-20" fill="#282460"></path>
                <path d="M86.7107672,42 C86.2246644,42 85.7431206,41.7959762 85.4046153,41.3981298 C84.7948497,40.6817795 84.88432,39.6089544 85.605211,39.0019836 C87.9377066,37.0382545 90.7300907,36 93.6797601,36 L127.290377,36 C128.234659,36 129,36.7611221 129,37.7001984 C129,38.6392746 128.234659,39.4003967 127.290377,39.4003967 L93.6797601,39.4003967 C91.5495699,39.4003967 89.5213873,40.1603854 87.8146137,41.5976197 C87.4932046,41.8679513 87.1011311,42 86.7107672,42" id="Fill-22" fill="#282460"></path>
                <path d="M86.7107672,58 C86.2246644,58 85.7431206,57.7959762 85.4046153,57.3981298 C84.7948497,56.6817795 84.88432,55.6089544 85.605211,55.0019836 C87.9377066,53.0382545 90.7300907,52 93.6797601,52 L127.290377,52 C128.234659,52 129,52.7611221 129,53.7001984 C129,54.6392746 128.234659,55.4003967 127.290377,55.4003967 L93.6797601,55.4003967 C91.5495699,55.4003967 89.5213873,56.1603854 87.8146137,57.5976197 C87.4932046,57.8679513 87.1011311,58 86.7107672,58" id="Fill-24" fill="#282460"></path>
                <path d="M86.7466456,69 C86.2503482,69 85.7587054,68.7959569 85.4131009,68.3980729 C84.7905473,67.681655 84.881894,66.6081617 85.6179036,66.0017004 C87.9993166,64.0377858 90.8508448,63 93.8617933,63 L116.254523,63 C117.218608,63 118,63.761194 118,64.700359 C118,65.6395239 117.218608,66.4007179 116.254523,66.4007179 L93.8617933,66.4007179 C91.6869284,66.4007179 89.6162104,67.1602116 87.8736422,68.5975817 C87.5454924,68.8679388 87.1451963,69 86.7466456,69" id="Fill-26" fill="#282460"></path>
                <path d="M18.7041401,39 C17.7628867,39 17,38.2300656 17,37.2801167 L17,17.7198833 C17,16.7699344 17.7628867,16 18.7041401,16 L58.2958599,16 C59.2371133,16 60,16.7699344 60,17.7198833 L60,37.2801167 C60,38.2300656 59.2371133,39 58.2958599,39 L18.7041401,39 Z" id="Fill-28" fill="#36BBA4"></path>
                <path d="M58.5482631,15 L18.4517369,15 C16.5452275,15 15,16.5148204 15,18.3825538 L15,37.6174462 C15,39.4857434 16.5452275,41 18.4517369,41 L58.5482631,41 C60.4547725,41 62,39.4857434 62,37.6174462 L62,18.3825538 C62,16.5148204 60.4547725,15 58.5482631,15 L58.5482631,15 Z M18.4517369,37.6174462 L58.5482631,37.6174462 L58.5482631,18.3825538 L18.4517369,18.3825538 L18.4517369,37.6174462 Z" id="Fill-30" fill="#282460"></path>
                <path d="M57.3018868,50 L18.6981132,50 C17.7601887,50 17,49.3285 17,48.5 C17,47.6715 17.7601887,47 18.6981132,47 L57.3018868,47 C58.2398113,47 59,47.6715 59,48.5 C59,49.3285 58.2398113,50 57.3018868,50" id="Fill-32" fill="#282460"></path>
                <path d="M40.3433804,59 L19.6566196,59 C18.7416134,59 18,58.3285 18,57.5 C18,56.6715 18.7416134,56 19.6566196,56 L40.3433804,56 C41.2583866,56 42,56.6715 42,57.5 C42,58.3285 41.2583866,59 40.3433804,59" id="Fill-34" fill="#282460"></path>
            </g>
        </g>
    </g>
</svg>