<?xml version="1.0" encoding="UTF-8"?>
<svg width="104px" height="119px" viewBox="0 0 104 119" version="1.1" xmlns="http://www.w3.org/2000/svg" xmlns:xlink="http://www.w3.org/1999/xlink">
    <title>Purple Monster 2</title>
    <g id="Student-Environmrnt---New-Treatment" stroke="none" stroke-width="1" fill="none" fill-rule="evenodd">
        <g id="Avatars" transform="translate(-326.000000, -518.000000)">
            <g id="Purple-Monster-2" transform="translate(326.000000, 518.000000)">
                <g id="Purple-Monster-1">
                    <path d="M28.2066807,4.26925353 C19.5716094,3.77059608 16.1770944,13.0636541 17.1921925,19.8896699 C18.9865805,27.4516904 23.0615706,35.6823912 30.5602711,35.3822839 C35.8390058,35.9345727 38.6002074,29.7167592 39.1740074,25.117015 C39.686048,18.9893479 40.9201109,12.0720446 36.2174218,7.33422821 C34.0771818,5.34758603 31.1610205,4.15514428 28.2066807,4.26925353" id="Fill-2225" fill="#9D63E0"></path>
                    <path d="M53.982734,0.0465299999 C46.4054659,-0.635257863 40.0124656,6.28181064 41.2910656,13.80998 C42.3537244,20.0760437 43.6800588,26.1106643 49.0524522,30.0611576 C53.5701724,33.381168 59.8097407,31.1659275 61.8759584,26.1733706 C62.8124619,21.7463099 63.7489654,17.3215295 64.687742,12.8933287 C65.4594481,6.48589095 60.2370772,0.605185607 53.982734,0.0465299999" id="Fill-2227" fill="#9D63E0"></path>
                    <path d="M76.9932944,3.8085015 C71.0257531,3.31336247 66.1377153,8.86591252 65.5665494,15.9095191 C65.2832511,19.3957942 65.103905,23.0354608 65.358645,26.502562 C65.640801,30.3756997 66.839107,33.7322686 69.7177831,35.7917763 C72.2651831,37.6166851 76.1274069,37.9798623 78.6588141,35.83238 C82.3611115,32.6867245 84.1899847,29.9606401 85.6658774,25.2709177 C86.3227182,23.1854688 86.9098767,19.995826 86.9749896,17.6577321 C87.1748977,10.5735219 82.965405,4.30138478 76.9932944,3.8085015" id="Fill-2229" fill="#9D63E0"></path>
                    <path d="M16.8571359,44.4379473 C18.78527,28.924488 34.6827473,17.591512 49.9956668,17.5982948 C52.0993948,17.4388984 54.21785,17.4298546 56.3295081,17.5756854 C60.5516913,17.8650861 64.7410216,18.7683328 68.7151076,20.2944692 C70.1629075,20.8416173 71.5608614,21.4972908 72.8908435,22.2660113 C76.8819225,24.5755644 80.2737166,27.9138466 82.665192,32.4888644 C83.3788962,33.7629057 84.0620131,35.0765135 84.7100111,36.4251659 C86.6517396,40.4745145 88.2807977,44.8392647 89.5042906,49.3656722 C89.9959535,51.1744265 90.4230431,53.0091816 90.7719652,54.8767204 C92.219765,69.7209407 90.7062591,87.0951559 80.1083185,99.1821564 C67.2367204,112.025442 49.0678514,102.960192 34.094791,105.316094 C31.7656231,104.982605 29.6913495,104.174318 27.8595088,102.988454 C24.1924288,100.618986 21.4848844,96.7425991 19.534093,92.1449718 C18.5575644,89.8489843 17.771357,87.3675996 17.1460162,84.8059513 C14.2424863,72.7415603 14.9992393,60.6534294 16.1570261,48.5777337 C16.3643402,47.0832504 16.5977101,45.7074667 16.8571359,44.4379473" id="Fill-2231" fill="#9D63E0"></path>
                    <path d="M40.4886364,112.755577 C36.1788203,112.176279 31.5001411,112.549655 27.5908697,113.805556 C25.6481146,107.033873 28.2708906,97.8680587 33.0514033,93.9566626 C34.2858505,92.9462846 35.5644254,92.8342718 36.6732781,93.2664827 C38.5040164,93.2359338 40.2781807,94.241786 40.8880496,96.5148537 C41.8090762,99.9578327 39.7701451,103.312559 39.8199303,106.702361 C39.8482174,108.7729 40.3177825,110.780079 40.4886364,112.755577" id="Fill-2233" fill="#B670F9"></path>
                    <path d="M25.4663924,117.223714 C25.4359026,117.173677 25.4065018,117.123639 25.3792788,117.071377 C25.2039628,116.737792 25.0950709,116.376409 25.0624033,115.990562 C25.0340914,115.644746 25.0852706,115.343407 25.1680285,115.043181 C25.1614949,115.067644 25.1549614,115.086547 25.1484279,115.108786 C25.1571393,115.07098 25.1712952,115.040957 25.1810955,115.004263 C25.2137631,114.890844 25.2486085,114.776313 25.2888985,114.66067 C25.2910763,114.651775 25.295432,114.641767 25.2976099,114.635095 C25.3041434,114.617304 25.3466112,114.591729 25.3520558,114.576162 C25.3553226,114.56949 25.3977904,114.552811 25.3967015,114.543915 L25.3967015,114.546139 C25.3836345,114.496102 25.4380805,114.43272 25.4598588,114.370451 C25.4402583,114.43272 25.3847234,114.504997 25.3988794,114.557259 L25.3988794,114.559483 C25.3291885,114.293727 25.6482419,113.965702 25.8453363,113.662139 C26.0707426,113.347457 26.2721927,113.101717 26.6293583,112.808162 C26.7251832,112.730325 26.8112078,112.656937 26.9092105,112.577988 C27.537517,112.078723 28.3454952,111.880796 29.1229836,111.921938 C30.1748798,111.974199 30.8619879,112.839296 31.1069947,113.803357 C31.5109838,115.393445 30.5429345,117.201475 29.2841437,118.059901 C28.2725376,118.750421 26.9037659,118.672585 25.9836291,117.853078 C25.7941571,117.681838 25.6449751,117.49503 25.5164827,117.299327 L25.5175716,117.314894 C25.497971,117.284872 25.4838151,117.253737 25.4663924,117.223714" id="Fill-2235" fill="#B670F9"></path>
                    <path d="M26.1862545,113.5345 C26.1389818,113.604389 26.0973818,113.669556 26.0529455,113.735667 C25.9763636,113.838611 25.8988364,113.949111 25.8137455,114.076611 C25.9385455,113.896222 26.0624,113.713 26.1862545,113.5345" id="Fill-2237" fill="#B670F9"></path>
                    <path d="M31.7921956,114.935304 C31.6501004,114.179294 31.5722864,113.154098 31.9275244,112.474834 C32.6210842,111.151816 34.051058,110.470262 35.3896848,111.404965 C36.6719247,112.304159 37.5335178,114.782957 37.3102253,116.320178 C36.9741589,118.622573 34.0995508,119.2984 32.7135588,117.510321 C32.1271343,116.754311 31.9647398,115.86199 31.7921956,114.935304" id="Fill-2239" fill="#B670F9"></path>
                    <path d="M38.3870761,111.424892 L38.158604,111.559962 C38.458981,111.302742 38.8022691,111.138308 39.1884681,111.061964 C39.5758269,111.005587 39.9388307,110.943337 40.3412664,110.986795 C40.9698546,111.056092 41.5601708,111.186464 42.1620846,111.403751 C43.6454135,111.938159 45.1136657,112.897745 45.3560548,114.592584 C45.5636513,116.053691 44.4897165,117.316305 43.1061266,117.547686 C41.7677672,117.769671 40.7135483,116.909919 39.6616489,116.214601 C38.6944117,115.574486 37.6169976,114.923799 37.3850462,113.658837 C37.2180412,112.741534 37.5845244,111.894702 38.3870761,111.424892" id="Fill-2241" fill="#B670F9"></path>
                    <path d="M64.4562883,112.757843 C68.7672069,112.176283 73.4458549,112.551921 77.3539686,113.805556 C79.2978421,107.033891 76.6750837,97.8681003 71.8957345,93.9567143 C70.6590327,92.9486018 69.3804662,92.8343264 68.2727525,93.2642734 C66.4420264,93.2359874 64.667874,94.241837 64.0580091,96.5160302 C63.1358573,99.9578688 65.1736432,103.310324 65.1261213,106.702379 C65.0967029,108.771782 64.6271409,110.782349 64.4562883,112.757843" id="Fill-2243" fill="#B670F9"></path>
                    <path d="M79.005838,116.753449 C79.0374235,116.703409 79.0668307,116.653369 79.0918813,116.601105 C79.271592,116.265281 79.3783293,115.906105 79.4099148,115.518016 C79.439322,115.172184 79.3870425,114.873056 79.3042667,114.575039 C79.3118908,114.595055 79.3184257,114.616183 79.3249606,114.638423 C79.3151582,114.600615 79.3020884,114.570591 79.292286,114.536119 C79.2596113,114.420471 79.2247583,114.305935 79.1866379,114.190287 C79.1811921,114.183615 79.1779246,114.173607 79.1746571,114.164711 C79.1692114,114.146919 79.1267343,114.121343 79.1212885,114.107999 C79.1191102,114.099103 79.075544,114.080199 79.0766331,114.073527 C79.0766331,114.075751 79.075544,114.075751 79.075544,114.075751 C79.0907922,114.027935 79.0374235,113.960103 79.0145513,113.900055 C79.0341561,113.962327 79.0875247,114.034607 79.0733657,114.086871 L79.0733657,114.089095 C79.1430716,113.823327 78.8250382,113.495286 78.6289901,113.19171 C78.4024457,112.877014 78.2009519,112.631262 77.8437088,112.337693 C77.7478631,112.259853 77.6607307,112.188685 77.564885,112.109733 C76.9375313,111.608221 76.1282885,111.410285 75.3517205,111.449205 C74.2963286,111.503693 73.6101605,112.368829 73.3661896,113.33071 C72.9610237,114.923096 73.9292831,116.731209 75.1883471,117.58745 C76.2001728,118.278003 77.5670633,118.200163 78.488489,117.382842 C78.6812696,117.211594 78.8304839,117.024778 78.9557368,116.826841 L78.9557368,116.842409 C78.9731633,116.814609 78.9895007,116.783473 79.005838,116.753449" id="Fill-2245" fill="#B670F9"></path>
                    <path d="M78.7596727,113.062278 C78.8069455,113.132167 78.8485455,113.197333 78.8929818,113.263444 C78.9676727,113.366389 79.0461455,113.476889 79.1312364,113.604389 C79.0083273,113.424 78.8825818,113.242667 78.7596727,113.062278" id="Fill-2247" fill="#B670F9"></path>
                    <path d="M72.6803733,114.937474 C72.8224644,114.179196 72.9014039,113.154032 72.542793,112.474789 C71.8503809,111.151811 70.4227036,110.470277 69.0818598,111.404952 C67.8007845,112.304119 66.9392163,114.78055 67.1625023,116.317724 C67.498559,118.620049 70.3753399,119.300437 71.7579089,117.510122 C72.3443166,116.754135 72.5089618,115.85955 72.6803733,114.937474" id="Fill-2249" fill="#B670F9"></path>
                    <path d="M66.5573001,110.950429 L66.7881238,111.087881 C66.4853851,110.830598 66.1432093,110.668475 65.7581164,110.589764 C65.3695438,110.533373 65.0064894,110.471108 64.6051577,110.514576 C63.9741622,110.585064 63.3849237,110.716642 62.7829262,110.931632 C61.3005507,111.466168 59.8286144,112.425983 59.5896713,114.121226 C59.380886,115.580334 60.4549703,116.845598 61.8387527,117.074685 C63.1749785,117.299073 64.231664,116.441466 65.2837099,115.743632 C66.2499217,115.103363 67.3274858,114.450172 67.5594694,113.187257 C67.7288175,112.269734 67.3622833,111.42505 66.5573001,110.950429" id="Fill-2251" fill="#B670F9"></path>
                    <path d="M74.9361473,33.1397511 C71.1256087,34.8902948 37.7371734,41.058661 30.3494636,34.1893957 C25.7993648,29.9601458 23.4138324,56.4977522 27.9966251,63.3011307 C35.485799,74.4166856 43.7596282,77.8575661 51.6648048,78.3301334 C59.7932022,78.8095166 69.8460343,76.7000035 76.9676829,58.999178 C79.828969,51.8811333 78.3092631,31.5891397 74.9361473,33.1397511" id="Fill-2253" fill="#662D91"></path>
                    <path d="M53.6132977,60.4453637 C48.1231587,60.4476204 37.9310466,67.2573606 43.877196,71.5135892 C48.1231587,75.7709462 55.7683687,74.917895 61.7133921,73.2163063 C65.9604808,71.5135892 66.8105741,64.7049774 61.7944606,62.8341325 C59.0730361,61.2544082 55.5454303,60.4126408 53.6132977,60.4453637" id="Fill-2255" fill="#A73FAF"></path>
                    <path d="M34.8959377,39.9297502 C35.02639,39.9749742 35.145787,40.0224042 35.2463901,40.0720403 C34.1541286,39.4344921 32.6174449,39.5955337 31.5793543,40.2308759 C30.1300074,41.1188106 29.4478967,42.9222558 29.9409621,44.5448049 C30.1366405,45.180147 30.474932,45.7272472 30.9547311,46.1861054 C31.2300075,46.3824438 31.5030729,46.5798852 31.7783493,46.7784296 C32.3819675,47.0972037 33.0253847,47.2439059 33.7063898,47.2196394 C34.0236763,47.1677973 34.3431738,47.1148521 34.6604603,47.0608039 C35.2961388,46.8644655 35.8433751,46.528043 36.3054857,46.0482273 C37.0019682,45.315819 37.3833753,44.3142727 37.3424708,43.3039023 C37.2816668,41.7585649 36.2667922,40.4592019 34.8959377,39.9297502" id="Fill-2257" fill="#FFFFFF"></path>
                    <path d="M35.2567874,40.0268582 C35.2917692,40.045747 35.3305328,40.0599137 35.3626783,40.0825804 C35.8240601,40.3848026 35.6935874,40.2261359 35.2567874,40.0268582" id="Fill-2259" fill="#FFFFFF"></path>
                    <path d="M44.1829799,40.1720485 C42.8314369,40.0162449 41.6922626,40.4197649 40.6015639,41.1662769 C39.3942932,41.9934928 39.0226477,43.4035709 38.798737,44.7295824 C38.6106059,45.8448668 39.2061621,47.1776036 39.929832,47.9980942 C40.7458362,48.927311 41.9369485,49.502327 43.1846155,49.5751848 C44.3930404,49.6469216 45.6026195,49.2422808 46.5201915,48.4688675 C47.1561439,47.9263573 47.609736,47.2650329 47.8832763,46.4837734 C47.9721481,46.2248481 48.0275487,45.9692854 48.0714075,45.7081183 C48.2226048,45.1331024 48.2606927,44.5289433 48.1683584,43.937114 C47.8636553,41.960987 46.2074091,40.3995889 44.1829799,40.1720485" id="Fill-2261" fill="#FFFFFF"></path>
                    <path d="M53.4293791,40.6127713 C48.7415974,40.7566626 48.1966116,49.7255117 52.9330124,49.5816204 C57.6230555,49.437729 58.1669105,40.4711459 53.4293791,40.6127713" id="Fill-2263" fill="#FFFFFF"></path>
                    <path d="M62.4330195,40.1410989 C57.0872279,40.3080582 57.4856163,49.2735424 62.8392414,49.1088703 C68.1872712,48.9430545 67.7855255,39.9775703 62.4330195,40.1410989" id="Fill-2265" fill="#FFFFFF"></path>
                    <path d="M71.5562641,39.3184558 C66.9089688,40.500877 67.9343387,48.292168 72.6276801,47.0982109 C77.2716062,45.9157896 76.2473593,38.1244987 71.5562641,39.3184558" id="Fill-2267" fill="#FFFFFF"></path>
                    <path d="M75.8401884,33.5489227 C71.9962553,33.9784983 68.3273544,35.1768468 64.5093938,35.7715579 C60.8212957,36.3473007 57.0801235,36.5581833 53.3502436,36.6217828 C45.670282,36.7523291 38.3121538,35.5450544 30.8546525,33.9349829 C26.2597748,32.9408223 23.8725613,39.2650672 28.5013163,40.8729072 C36.0649661,43.4972234 44.4168255,44.2905435 52.392648,44.3798059 C60.5954477,44.4713 70.7360234,43.9379568 77.9078269,39.7013375 C80.7896476,37.9986562 79.2414594,33.1695573 75.8401884,33.5489227" id="Fill-2269" fill="#9D63E0"></path>
                    <path d="M101.99082,81.8235055 C100.029565,73.7390257 96.7765601,63.4489631 89.6640569,58.6051071 C87.5047635,57.1328208 84.7828611,58.9876966 85.1193013,61.5325997 C85.6447781,65.4974108 87.2268347,69.0841871 88.23503,72.9613215 C89.1239523,76.3727442 89.8834744,79.8126335 90.6868801,83.2513841 C91.4002683,86.3075452 93.715967,88.6782335 97.044362,88.2569297 C99.8551566,87.901668 102.732339,84.8796667 101.99082,81.8235055" id="Fill-2271" fill="#B670F9"></path>
                    <path d="M3.42740441,81.8235055 C5.38765974,73.7390257 8.64199867,63.4489631 15.753832,58.6051071 C17.9132637,57.1328208 20.6353404,58.9876966 20.2988787,61.5325997 C19.7733682,65.4974108 18.1923356,69.0841871 17.1829504,72.9613215 C16.2950965,76.3727442 15.5332752,79.8126335 14.7309433,83.2513841 C14.0186347,86.3075452 11.7016624,88.6782335 8.37417963,88.2569297 C5.5620797,87.901668 2.68583824,84.8796667 3.42740441,81.8235055" id="Fill-2273" fill="#B670F9"></path>
                    <path d="M3.80575386,81.7357865 C2.81035318,81.9893203 1.79075491,82.2914771 0.921841612,82.886529 C-0.0361628012,83.5406231 -0.281438328,84.957634 0.346599008,85.9463001 C1.03513031,87.0264236 2.2439097,87.1063041 3.25580874,86.5494559 C3.49888448,86.4186371 3.82775167,86.1558417 3.98723576,85.9567193 C4.36339822,85.5480552 4.6933653,85.1000297 4.9760371,84.6114851 C5.04093062,84.5119239 5.12122261,84.4216242 5.20811394,84.3429013 C6.3640986,83.3009815 5.16081866,81.3896376 3.80575386,81.7357865" id="Fill-2275" fill="#B670F9"></path>
                    <path d="M8.97395367,84.449229 C8.32992674,83.8594789 7.42498635,83.9688945 6.81949096,84.5345731 C5.90684426,85.3847323 5.12190205,86.3366479 4.78832913,87.5522552 C4.26540129,89.4604631 7.24994314,90.6399631 8.08552679,88.8061578 C8.32001864,88.2962812 8.46643843,87.789687 8.64918795,87.2469857 C8.68882038,87.1266285 8.74276451,87.0117421 8.79891045,86.8979499 C8.8792762,86.7918168 8.96844916,86.6911544 9.05762212,86.5883038 C9.60587068,85.9690115 9.59376077,85.0192842 8.97395367,84.449229" id="Fill-2277" fill="#B670F9"></path>
                    <path d="M9.97218182,85.3192222 C9.93341818,85.4174444 9.89938182,85.5185 9.88236364,85.6252222 C9.92869091,85.459 9.95610909,85.3655 9.97218182,85.3192222" id="Fill-2279" fill="#B670F9"></path>
                    <path d="M13.5051986,86.5575556 C13.3654627,86.0758608 13.2213938,85.6079946 13.1033224,85.1170808 C12.9310897,84.3945386 12.0796754,83.983139 11.440573,84.0661104 C10.8534654,84.1398627 10.3941783,84.5547194 10.1764502,85.105557 C10.1818663,85.1032522 10.175367,85.1458903 10.1493696,85.2726521 C10.0778768,85.5284804 10.0226324,85.7900706 9.98580274,86.055118 C9.95113956,86.3996796 9.93164152,86.7396316 9.92727273,87.0818885 C9.9218925,88.1582112 10.5295814,89.46501 11.5835586,89.6862669 C12.3623969,89.8522096 13.1726488,89.431591 13.5279463,88.6756298 C13.8344988,88.0268399 13.700179,87.2236312 13.5051986,86.5575556" id="Fill-2281" fill="#B670F9"></path>
                    <path d="M9.92254545,85.4849722 C9.92538182,85.4774167 9.93010909,85.4679722 9.932,85.4594722 C9.93010909,85.4613611 9.92821818,85.4679722 9.92254545,85.4849722" id="Fill-2283" fill="#B670F9"></path>
                    <path d="M93.3140737,84.1311218 C92.8850538,83.1022977 91.1370635,82.6753411 90.3913016,83.6922148 C90.1880195,83.9725069 90.0107385,84.1952196 89.8334576,84.4722525 C89.820457,84.4918078 89.8180932,84.4961534 89.811002,84.511363 C89.7944558,84.5276591 89.7720002,84.5559056 89.7259071,84.6123986 C89.6313573,84.7297301 89.5332618,84.8438025 89.4375301,84.9589613 C89.1113331,85.3554986 89.0002371,85.7737639 88.8974141,86.2550407 C88.721315,87.0828801 89.5178975,87.9509165 90.3144799,88.2007893 C91.2599783,88.4984639 92.1239275,88.1334323 92.7302284,87.4642078 C92.985513,87.1828293 93.1261559,86.8275753 93.2786175,86.4886174 C93.3117099,86.414742 93.3400749,86.3376073 93.3648942,86.2615591 C93.5409933,85.8693674 93.617815,85.4619661 93.5965413,85.041528 C93.5599033,84.7232117 93.4665353,84.4201051 93.3140737,84.1311218" id="Fill-2285" fill="#B670F9"></path>
                    <path d="M98.6729332,87.343965 C98.1118777,86.0143722 97.4832667,84.7937071 96.6439736,83.606731 C95.9329217,82.6039216 94.0310583,83.2428897 94.0734237,84.4534481 C94.1180792,85.7033103 94.2875408,86.9295902 94.4432623,88.1659768 C94.5314282,88.872323 94.9127169,89.6336946 95.6249137,89.925666 L95.8917013,90.0368397 C96.6954991,90.365869 97.6103629,90.1738417 98.1771434,89.5157831 C98.1954635,89.4933237 98.2137837,89.4731103 98.2309589,89.451774 C98.7107185,88.8925364 98.971781,88.0525572 98.6729332,87.343965" id="Fill-2287" fill="#B670F9"></path>
                    <path d="M102.643645,83.1315163 C101.734486,82.6535507 100.778907,82.4536539 99.7938897,82.2090874 C98.3888254,81.8595471 97.1309475,83.755775 98.3424051,84.7541424 C99.2017474,85.4610401 100.136947,86.1768717 101.272547,86.3767686 C102.069618,86.5208283 102.858764,86.2807287 103.289001,85.5593134 C103.767923,84.7496754 103.510913,83.587147 102.643645,83.1315163" id="Fill-2289" fill="#B670F9"></path>
                    <path d="M20.2063575,46.2777778 C17.6878402,46.2777778 17.9366119,50.0555556 20.4468368,50.0555556 C22.9677234,50.0555556 22.7177671,46.2777778 20.2063575,46.2777778" id="Fill-2291" fill="#8B43C9"></path>
                    <path d="M31.3523612,85.4722222 C29.4842856,85.4722222 29.1606265,88.3055556 31.0462923,88.3055556 C32.9155406,88.3055556 33.2403724,85.4722222 31.3523612,85.4722222" id="Fill-2293" fill="#8B43C9"></path>
                    <path d="M44.1176681,99.6388889 C42.2475595,99.6388889 41.9239545,102.472222 43.8104779,102.472222 C45.679414,102.472222 46.003019,99.6388889 44.1176681,99.6388889" id="Fill-2295" fill="#8B43C9"></path>
                    <path d="M26.2560611,67.2223655 C25.9035329,66.5538833 25.2820301,66.2675502 24.5643833,66.1316254 C23.8146885,65.9912442 23.0329457,66.5939923 22.7925855,67.2479907 C22.5774059,67.8340267 22.7193329,68.3955517 23.0718611,68.8233803 C23.3133659,69.422786 23.9669166,69.8528429 24.6135999,69.886267 C25.5887755,69.9386314 26.3899761,69.1999586 26.4666624,68.2685401 C26.4964213,67.9298425 26.4151567,67.5265249 26.2560611,67.2223655" id="Fill-2297" fill="#8B43C9"></path>
                    <path d="M22.5347794,79.8467473 C22.1627377,79.9193138 21.9303513,80.0820031 21.6275786,80.2950208 C20.6924468,80.9551415 20.4522397,82.5855461 21.4175371,83.3627095 C22.0141445,83.8449254 22.0666548,83.8858903 22.7247106,84.0005921 C22.8118555,84.0169781 22.8990004,84.027512 22.985028,84.0438979 C23.4721457,84.1211461 24.073222,83.8016196 24.4150981,83.4657071 C24.8106019,83.0771254 25.0429883,82.5235135 25.0541607,81.9546861 C25.0798573,80.5209132 23.8140218,79.5951056 22.5347794,79.8467473" id="Fill-2299" fill="#8B43C9"></path>
                    <path d="M81.0010872,88.5573134 C80.4778017,87.8168444 79.3563059,87.5826993 78.6130027,88.1460738 C78.743824,88.0795148 78.8746454,88.0093901 79.0078453,87.9416425 C78.8449133,87.9998817 78.6962526,88.0818919 78.564242,88.1864846 C78.4441242,88.2768147 78.3311421,88.3849731 78.2169707,88.4848116 C77.4974532,89.1052367 77.271489,90.1333358 77.8744566,90.9296668 C78.5939741,91.8864526 79.9069449,91.784237 80.6550052,90.9439295 C80.7453909,90.8417138 80.8441015,90.7418753 80.9273515,90.6325284 C81.3899834,90.0216117 81.4530155,89.1979439 81.0010872,88.5573134" id="Fill-2301" fill="#8B43C9"></path>
                    <path d="M76.9576845,74.1388889 C74.7730837,74.1388889 74.4703572,77.4444444 76.6786791,77.4444444 C78.8632799,77.4444444 79.1660064,74.1388889 76.9576845,74.1388889" id="Fill-2303" fill="#8B43C9"></path>
                    <path d="M85.3710897,75.0833333 C81.9014748,75.0833333 81.8207593,80.2777778 85.2834557,80.2777778 C88.7530706,80.2777778 88.8337862,75.0833333 85.3710897,75.0833333" id="Fill-2305" fill="#8B43C9"></path>
                    <path d="M82.8804965,48.6388889 C81.0118236,48.6388889 80.6870919,51.4722222 82.5745219,51.4722222 C84.4431947,51.4722222 84.7667542,48.6388889 82.8804965,48.6388889" id="Fill-2307" fill="#8B43C9"></path>
                    <path d="M84.8225299,38.3017781 C84.706034,38.2908616 84.5883848,38.2766702 84.4707355,38.2635704 C83.3888235,38.1358476 82.3841909,38.9262007 82.2665416,39.9392499 C82.123517,41.1870035 83.281555,42.1585701 84.5572423,42.013381 C84.6310615,42.0079227 84.706034,41.9970062 84.7786998,41.9882731 C85.6529954,41.8856582 86.3646582,41.2361277 86.4903814,40.4064753 C86.6391732,39.415259 85.8836802,38.4338675 84.8225299,38.3017781" id="Fill-2309" fill="#8B43C9"></path>
                    <path d="M36.8698909,25.5 L36.8755636,25.5 L36.8698909,25.5 Z" id="Fill-2311" fill="#8B43C9"></path>
                    <path d="M37.1001412,26.0858699 C36.9998823,26.0592334 36.8895974,26.0291224 36.840582,26.0152251 C35.8368785,25.7465429 34.9044702,26.7853701 34.9869054,27.7825053 C35.021439,28.2167977 35.2230709,28.6232953 35.5450135,28.907033 C36.0050907,29.3112144 36.5409191,29.3436415 37.1001412,29.2000355 C37.1335609,29.1919287 37.1658665,29.1826638 37.1970582,29.1733989 C37.8598813,28.9811522 38.3155025,28.2955494 38.2898808,27.5879424 C38.265373,26.8479082 37.7674202,26.2758005 37.1001412,26.0858699" id="Fill-2313" fill="#8B43C9"></path>
                    <path d="M47.5719661,29.2777778 C45.0559225,29.2777778 45.417356,33.0555556 47.9194086,33.0555556 C50.4342863,33.0555556 50.0740187,29.2777778 47.5719661,29.2777778" id="Fill-2315" fill="#8B43C9"></path>
                    <path d="M62.7881887,23.1388889 C60.8965824,23.1388889 61.0752922,26.4444444 62.9564477,26.4444444 C64.8501442,26.4444444 64.6693442,23.1388889 62.7881887,23.1388889" id="Fill-2317" fill="#8B43C9"></path>
                    <path d="M19.3234639,90.1944444 C16.5051295,90.1944444 17.1228619,94.4444444 19.9132699,94.4444444 C22.7316042,94.4444444 22.1127547,90.1944444 19.3234639,90.1944444" id="Fill-2319" fill="#8B43C9"></path>
                    <path d="M19.3557804,37.7564552 C19.2688462,36.9992237 18.5494661,36.416133 17.8452994,36.365576 C16.9118438,36.2970432 16.188117,37.0261874 16.0794493,37.9519423 C16.0642358,38.0676616 16.0794493,38.1889984 16.0805359,38.3069648 C16.1098762,39.2349666 16.6401746,40.0652249 17.6094905,40.1348812 C18.475572,40.19892 19.3514337,39.4877516 19.3775139,38.5575028 C19.384034,38.2856185 19.387294,38.0305865 19.3557804,37.7564552" id="Fill-2321" fill="#8B43C9"></path>
                    <path d="M17.0058799,54.0814392 C16.6472588,53.6622697 16.1198747,53.4010145 15.5631915,53.3650193 C14.9092353,53.3220573 14.0408096,53.6344025 13.7150034,54.2474814 C13.6165584,54.4437131 13.5204573,54.6387837 13.4231842,54.8338542 C13.0083088,55.79179 13.2825485,56.9076401 14.2646548,57.4034445 C14.7158612,57.6333491 15.250277,57.6739888 15.7342984,57.5172356 C16.0015063,57.4313117 16.2265235,57.2838476 16.4304453,57.1003884 C16.3976303,57.1584451 16.3624714,57.2153407 16.3296564,57.2722363 C17.5520154,56.7172141 17.862586,55.0765313 17.0058799,54.0814392" id="Fill-2323" fill="#8B43C9"></path>
                    <path d="M90.2750388,51.7254018 C89.7835653,51.1575066 89.0014608,50.8900538 88.2642505,51.0420424 C87.3013876,51.2376246 86.7484799,52.0011019 86.5960758,52.9177461 C86.408229,53.4974234 86.5275531,54.1619315 86.9256939,54.634392 C87.3959018,55.1905052 88.077585,55.3495629 88.7155555,55.1928616 C88.7025598,55.1999308 88.6895641,55.207 88.675387,55.2117129 C88.819521,55.1928616 88.9624737,55.1728321 89.1042449,55.1516244 C90.6956268,54.9218742 91.2615302,52.8623704 90.2750388,51.7254018" id="Fill-2325" fill="#8B43C9"></path>
                    <path d="M85.9843926,94.0859738 C85.9973844,94.0233426 86.0068329,93.9618501 86.0103761,93.8992188 C86.0174625,93.83431 86.0363636,93.7830663 86.0363636,93.7079087 C86.0399027,91.9325971 83.7533593,90.9054444 82.3986768,92.1774284 C82.2250602,92.3379922 82.0856944,92.5247472 81.9427854,92.7115023 C81.9427854,92.7137798 81.9416044,92.7160573 81.9392422,92.7160573 C81.9297937,92.7274448 81.9203452,92.739971 81.9120777,92.7513585 C81.110134,93.6031437 81.0888749,94.919539 81.9640446,95.7405779 C82.8037824,96.5285931 84.2635797,96.5479519 85.0726098,95.6961667 C85.4765343,95.2736903 85.7588091,94.855769 85.93715,94.3057526 C85.9525039,94.2567864 85.9584092,94.2078201 85.9690388,94.1565763 C85.9773062,94.1372176 85.9784873,94.1087488 85.9843926,94.0859738" id="Fill-2327" fill="#8B43C9"></path>
                    <path d="M61.7350255,12.1063936 C58.0040555,-0.744831735 42.9135038,1.98437866 44.0216458,15.4368778 C44.906808,26.1991061 64.0380239,23.3805636 61.7350255,12.1063936 C61.3329862,10.7171648 62.0368366,13.5849545 61.7350255,12.1063936" id="Fill-2329" fill="#8B43C9"></path>
                    <path d="M85.5636364,16.2336421 C84.8769368,3.42512017 69.6801739,2.52431089 67.6936098,15.1457245 C66.1063949,25.2204471 85.2242461,27.173321 85.5636364,16.2336421 C85.4901018,14.8611404 85.5183843,17.6621643 85.5636364,16.2336421" id="Fill-2331" fill="#8B43C9"></path>
                    <path d="M36.6792607,13.5922314 C32.91572,1.31859635 17.8604195,4.02043151 18.9670756,16.7443725 C19.8496709,26.9008979 38.9903864,24.2976372 36.6792607,13.5922314 C36.2766335,12.2771591 36.9817998,14.9901959 36.6792607,13.5922314" id="Fill-2333" fill="#8B43C9"></path>
                    <path d="M71.6498373,9.75589385 C72.111345,9.43078273 72.5717187,9.10567161 73.0343603,8.78282608 C74.0934467,8.2311567 75.2183008,7.98420818 76.4134583,8.034051 C78.1234179,8.034051 79.8639935,8.94141687 80.997919,10.1829562 C82.1760676,11.4732055 82.8008605,13.1961812 82.7203518,14.9418126 C82.640977,16.6851785 81.8597023,18.3469834 80.5692952,19.521688 C80.1066536,19.8467991 79.6451459,20.1696447 79.1847721,20.4947558 C78.1256857,21.0441596 77.0008317,21.2945065 75.8056742,21.2435309 C74.0957146,21.2435309 72.3528711,20.336165 71.2212135,19.0946257 C70.0430649,17.8043763 69.418272,16.0814007 69.4976468,14.3357692 C69.5781555,12.5924034 70.3582962,10.9305985 71.6498373,9.75589385" id="Fill-2335" fill="#FFFFFF"></path>
                    <path d="M45.884376,11.6296527 C46.059645,9.74213939 47.0054152,7.9649205 48.480407,6.77442263 C48.9936951,6.45945805 49.5103974,6.14221936 50.0236855,5.82498068 C51.1617964,5.31557949 52.3522605,5.11545759 53.5950777,5.22234087 C54.2130719,5.36674702 54.829928,5.50887904 55.4479223,5.65101107 C56.6429388,6.10697062 57.6456145,6.83013838 58.4548114,7.81824025 C59.6088559,9.24638287 60.1756352,11.1009216 60.0071948,12.929308 C59.8307876,14.8145472 58.8850174,16.5906291 57.4100256,17.7834011 C56.8944613,18.0983656 56.3811733,18.4167414 55.865609,18.7317059 C54.7286362,19.2399701 53.5381721,19.440092 52.2953549,19.3332087 C51.6762226,19.1888026 51.0605046,19.0489446 50.4425103,18.9045385 C49.2474938,18.449716 48.2448181,17.7276853 47.4367593,16.7395834 C46.2815767,15.3114408 45.7136593,13.4569021 45.884376,11.6296527" id="Fill-2337" fill="#FFFFFF"></path>
                    <path d="M22.3601426,11.5352143 C23.1000744,9.92792473 24.464252,8.64551288 26.1239443,8.00601684 C27.2945484,7.55688771 28.5579304,7.44973507 29.766333,7.65720081 C29.7617514,7.65264113 29.7571697,7.64808144 29.7537335,7.64352175 C29.7858049,7.65264113 29.820167,7.66404034 29.8545292,7.67429964 C30.3871426,7.7723329 30.9105928,7.93078201 31.4065533,8.14850704 C31.4214436,8.15534657 31.4374792,8.15990626 31.4523695,8.16446595 C31.5016219,8.18612446 31.5440019,8.21576242 31.5932544,8.23970078 C31.8017181,8.34001388 32.0101819,8.44716652 32.2106278,8.57141797 C32.2358267,8.58737688 32.2587348,8.60333578 32.2804975,8.61587492 C32.5072878,8.75836512 32.7272056,8.91453439 32.9356693,9.08438272 C33.3892498,9.45143749 33.7912871,9.87434842 34.1486535,10.3576752 C34.2723573,10.5241038 34.3834616,10.7007916 34.4876934,10.8763395 C35.0054166,11.7381203 35.3204031,12.6751359 35.4257804,13.6930859 C35.4234895,13.6908061 35.4189079,13.6862464 35.4189079,13.6839666 C35.5403209,14.8797444 35.3524744,16.1040202 34.8404783,17.2143039 C34.3365,18.2949496 33.6022952,19.192068 32.637864,19.8976795 C31.6356344,20.6192499 30.5177188,21.0421608 29.2852628,21.1686921 C28.3471759,21.3362606 27.4251246,21.2450668 26.5213999,20.8928311 C26.2854464,20.8232958 26.0632378,20.7241227 25.8444654,20.6124103 C24.7723661,20.2339563 23.7059938,19.2878214 23.0519674,18.3929829 C21.6064659,16.4220584 21.3372957,13.7546417 22.3601426,11.5352143" id="Fill-2339" fill="#FFFFFF"></path>
                    <path d="M74.5307972,9.91666667 C75.4377399,9.91666667 76.2701092,10.1710667 76.9456554,10.7993909 C77.5740449,11.3816599 77.9545879,12.2062669 77.9962612,13.0626739 C78.0828978,14.797419 76.6528456,16.5277778 74.8510236,16.5277778 C73.9462743,16.5277778 73.1117116,16.2711846 72.4361655,15.643957 C71.807776,15.0583983 71.4272329,14.2381775 71.3855596,13.3817705 C71.298923,11.6470255 72.7278786,9.91666667 74.5307972,9.91666667" id="Fill-2341" fill="#1E2D6A"></path>
                    <path d="M52.2402066,8.05799231 C53.153633,7.93671451 54.097283,8.18380387 54.8349644,8.74032165 C55.8804794,9.53032754 56.3528642,10.7827759 56.2375665,12.0737611 C56.2319695,12.1429008 56.2252531,12.213174 56.2185367,12.2823136 C56.15697,12.9057042 55.9465237,13.4769567 55.5905561,13.9904039 C55.2144393,14.5242529 54.7308607,14.9254897 54.1420588,15.1952478 C53.8666876,15.2949903 53.5913164,15.392466 53.318184,15.4899416 C52.5939354,15.7483653 51.7375982,15.4253356 51.1196921,15.0705697 C49.3879878,14.0776785 49.3152272,13.3205423 49.1853773,12.1020971 C48.9771698,10.1548516 50.2846233,8.31868292 52.2402066,8.05799231" id="Fill-2343" fill="#1E2D6A"></path>
                    <path d="M27.9136,14.6894167 C27.8975273,14.6563611 27.8824,14.6233056 27.8682182,14.5883611 C27.8824,14.6214167 27.8965818,14.6563611 27.9136,14.6894167" id="Fill-2345" fill="#1E2D6A"></path>
                    <path d="M27.8772,14.0755278 C27.8819273,14.1359722 27.8942182,14.1973611 27.9046182,14.2578056 C27.8913818,14.1954722 27.8809818,14.1331389 27.8772,14.0755278" id="Fill-2347" fill="#1E2D6A"></path>
                    <path d="M27.8176364,14.4155278 C27.8488364,14.5628611 27.9017818,14.7158611 27.9641818,14.86225 C27.8961091,14.7158611 27.8469455,14.56475 27.8176364,14.4155278" id="Fill-2349" fill="#1E2D6A"></path>
                    <path d="M28.4010463,15.1554392 C28.4209009,15.1922725 28.4407554,15.2272169 28.4596645,15.2621614 C28.6336282,15.5539947 28.4019918,15.2640503 28.2062827,14.8418836 C28.2620645,14.9504947 28.3282463,15.0562725 28.4010463,15.1554392" id="Fill-2351" fill="#1E2D6A"></path>
                    <path d="M27.9171577,13.7596891 C27.9084082,13.4656478 27.8996586,13.1716065 27.8909091,12.8775653 C27.9488748,12.287149 28.1413645,11.7492402 28.4650973,11.2708397 C28.9364785,10.580076 29.6528467,10.1040091 30.4424922,9.96282265 C31.2572926,9.81463518 32.1092786,10.0269983 32.7753369,10.5462379 C32.966733,10.7399318 33.1581291,10.931292 33.3495252,11.1226522 C33.690757,11.5718819 33.9084017,12.0841205 34.0013655,12.6547006 C34.0057403,12.6663689 34.006834,12.6768704 34.0112087,12.6862051 C34.0199583,12.98258 34.0276141,13.2766213 34.0363636,13.5729962 C33.978398,14.1634125 33.7848145,14.6989877 33.4578006,15.1797218 C32.9842321,15.8658182 32.2667702,16.3442187 31.4771247,16.4830715 C30.6612306,16.6289253 29.8081509,16.4142285 29.1409989,15.8926553 C28.8752318,15.6826258 28.6127457,15.3955855 28.3972884,15.0700398 C28.3754146,15.026867 28.3524471,14.9836943 28.3272921,14.9428553 C28.1348024,14.57297 27.9455937,14.1995842 27.9171577,13.7596891" id="Fill-2356" fill="#1E2D6A"></path>
                </g>
            </g>
        </g>
    </g>
</svg>