<?xml version="1.0" encoding="UTF-8"?>
<svg width="101px" height="121px" viewBox="0 0 101 121" version="1.1" xmlns="http://www.w3.org/2000/svg" xmlns:xlink="http://www.w3.org/1999/xlink">
    <title>Group 6</title>
    <g id="Student-Environmrnt---New-Treatment" stroke="none" stroke-width="1" fill="none" fill-rule="evenodd">
        <g id="Avatars" transform="translate(-448.000000, -523.000000)">
            <g id="Group-6" transform="translate(448.000000, 523.000000)">
                <path d="M78.5428999,94 C75.2064645,94 75.1277384,99 78.4575209,99 C81.7939563,99 81.8715736,94 78.5428999,94" id="Fill-1974" fill="#8B43C9"></path>
                <path d="M18.7232784,91 C16.0736824,91 16.65338,95 19.2767216,95 C21.9263176,95 21.34662,91 18.7232784,91" id="Fill-1976" fill="#8B43C9"></path>
                <path d="M17.9759705,36.4771429 C17.8962103,35.6753677 17.2453275,35.057977 16.6072458,35.004446 C15.7613936,34.9342609 15.1046026,35.7039175 15.0051485,36.6841293 C14.9933322,36.8066558 15.0051485,36.9351302 15.0081026,37.0600358 C15.0346894,38.0426268 15.5142354,38.9193453 16.3925825,38.9954783 C17.1783683,39.0656633 17.971047,38.3102817 17.9956644,37.3229324 C18.0025573,37.0374338 18.0045266,36.7673998 17.9759705,36.4771429" id="Fill-1978" fill="#8B43C9"></path>
                <path d="M14.5449405,51.6800418 C14.205606,51.2855738 13.7098251,51.0397142 13.1876025,51.0036548 C12.5717324,50.9632246 11.7564482,51.2593488 11.4512675,51.8362992 C11.3587218,52.0209671 11.2683794,52.2045422 11.1758337,52.3881173 C10.7858193,53.2896024 11.0425237,54.3375105 11.9668797,54.8040973 C12.3921496,55.0204537 12.8934392,55.0586986 13.3495576,54.9133682 C13.5985498,54.8325078 13.8122865,54.6937337 14.0039884,54.5210856 C13.9709364,54.5735357 13.9400878,54.6292639 13.9070357,54.6828066 C15.0572475,54.1583062 15.3492074,52.6164936 14.5449405,51.6800418" id="Fill-1980" fill="#8B43C9"></path>
                <path d="M89.5401603,53.6815217 C89.0781531,53.1473381 88.3440503,52.8979786 87.65215,53.0387282 C86.7447945,53.2249167 86.226147,53.9408557 86.0817697,54.8053022 C85.9051853,55.3483519 86.0173553,55.9756297 86.3916255,56.4178273 C86.8336421,56.9431448 87.4755655,57.0949771 88.0741759,56.9453613 C88.0619593,56.9520109 88.0497428,56.9586605 88.0364157,56.9630936 C88.1730187,56.9431448 88.3062901,56.9243043 88.440672,56.9065721 C89.9355319,56.6904604 90.4686171,54.7509972 89.5401603,53.6815217" id="Fill-1982" fill="#8B43C9"></path>
                <path d="M25.3397414,4.0191507 C16.5870972,3.52315567 13.1475015,12.7665961 14.1764209,19.5584364 C15.996379,27.0778118 20.1268531,35.2645672 27.7265158,34.9660622 C33.0759862,35.5131322 35.8747837,29.3307869 36.4563963,24.7556017 C36.9765469,18.6629214 38.2285507,11.7802811 33.4606928,7.06776084 C31.2901736,5.09172575 28.3331685,3.90792069 25.3397414,4.0191507" id="Fill-1984" fill="#9D63E0"></path>
                <path d="M51.0518429,0.0455902982 C43.3602906,-0.622428444 36.8689205,6.15494565 38.1660405,13.531079 C39.2450505,19.6705957 40.5929474,25.5833436 46.0468523,29.4540542 C50.6340872,32.707015 56.9696644,30.5365126 59.0665212,25.6470176 C60.0197428,21.3093641 60.9718105,16.9717107 61.922724,12.6329401 C62.7074586,6.35490444 57.4047305,0.595197691 51.0518429,0.0455902982" id="Fill-1986" fill="#9D63E0"></path>
                <path d="M74.8950149,4.03087008 C68.8572963,3.53107783 63.9129317,9.16374792 63.3338933,16.3026569 C63.0472634,19.8412318 62.866964,23.5296299 63.1223882,27.045331 C63.409018,30.9750477 64.621416,34.3763798 67.5351006,36.4670439 C70.1124575,38.315246 74.0177889,38.6835139 76.5789651,36.5059294 C80.3248009,33.3150361 82.1774929,30.5518826 83.6707418,25.7987096 C84.3353069,23.684028 84.9293703,20.4473871 84.9929374,18.0765191 C85.1975079,10.8930062 80.9373565,4.53523709 74.8950149,4.03087008" id="Fill-1988" fill="#9D63E0"></path>
                <path d="M14.0162448,44.3845264 C18.2586377,19.5951905 48.0739532,9.36614204 68.5180635,20.4496834 C78.739554,26.4175702 82.9988848,38.3556044 86.2814603,49.4967901 C86.7636274,51.3165434 87.1882054,53.1509905 87.5371273,55.0182157 C88.499203,64.9104402 88.149152,75.9306857 84.680259,85.7584842 C83.8119066,88.2134558 82.7482031,90.59835 81.4654354,92.8690857 C70.2208925,112.537116 36.1473753,111.684883 22.5179685,98.0423846 C15.1364082,90.6514732 12.6747589,80.6089212 12.2072714,70.2487601 C12.0909641,67.6570244 12.0988685,65.0472042 12.1869458,62.453208 C11.4439343,57.9682506 13.1478924,52.848075 13.2619413,48.5993465 C13.4877807,47.0779875 13.7384624,45.6786988 14.0162448,44.3845264" id="Fill-1990" fill="#9D63E0"></path>
                <path d="M68.3711908,114.938874 C64.1155364,114.353425 59.4968668,114.728478 55.6377366,116 C53.7187827,109.154136 56.3079184,99.8910085 61.0271153,95.9403721 C62.2468461,94.9192669 63.5090219,94.803778 64.6047691,95.2405777 C66.4097921,95.2097044 68.1612005,96.2262358 68.7632472,98.5257234 C69.6735774,102.005256 67.6619151,105.393313 67.7088278,108.819104 C67.737869,110.91277 68.2025284,112.940115 68.3711908,114.938874" id="Fill-1992" fill="#B670F9"></path>
                <path d="M54.4014464,119.621582 C54.3738097,119.566246 54.3429843,119.513265 54.3185365,119.460284 C54.1442133,119.107076 54.0389816,118.72208 54.0070932,118.313536 C53.9805196,117.945023 54.031541,117.630668 54.111262,117.312782 C54.1059473,117.336329 54.0985066,117.356344 54.091066,117.379891 C54.1016955,117.341038 54.1144508,117.308072 54.1229544,117.271574 C54.1559057,117.151483 54.18992,117.030215 54.2281861,116.90777 C54.2324379,116.898351 54.2356267,116.887755 54.2388156,116.878336 C54.2451932,116.861853 54.2855852,116.834774 54.2908999,116.818291 C54.2930258,116.808872 54.3355437,116.791212 54.3344807,116.784148 L54.3344807,116.786502 C54.3217254,116.733521 54.3748727,116.664057 54.3950687,116.60048 C54.3748727,116.664057 54.3238513,116.740585 54.3376696,116.798276 C54.2685781,116.516887 54.5789584,116.169566 54.7713517,115.848147 C54.9935075,115.514955 55.1890896,115.254759 55.538799,114.946291 C55.6312754,114.863876 55.7152481,114.78617 55.8098503,114.700223 C56.4231704,114.171589 57.2129396,113.962019 57.9718833,114.005581 C58.9986896,114.063272 59.6694088,114.976902 59.9096347,115.997672 C60.3029248,117.68365 59.3579655,119.598035 58.1302624,120.504601 C57.1417222,121.23574 55.8055986,121.153325 54.9063459,120.285612 C54.7213932,120.104299 54.5747066,119.904148 54.4514048,119.699287 L54.4524678,119.71577 C54.4333347,119.683982 54.4195164,119.65337 54.4014464,119.621582" id="Fill-1994" fill="#B670F9"></path>
                <path d="M54.6965,115.213 C54.6455,115.287 54.6015,115.356 54.5555,115.426 C54.4755,115.535 54.3925,115.652 54.3035,115.787 C54.4335,115.596 54.5665,115.404 54.6965,115.213" id="Fill-1996" fill="#B670F9"></path>
                <path d="M60.1263372,117.198027 C59.9760722,116.394992 59.8937843,115.309319 60.2694467,114.589984 C61.0040753,113.191345 62.5138804,112.467158 63.9306643,113.459428 C65.285434,114.409241 66.1989496,117.036692 65.9628189,118.66217 C65.6062378,121.100387 62.5651613,121.816083 61.1006742,119.922522 C60.4817257,119.121914 60.3076092,118.176953 60.1263372,117.198027" id="Fill-1998" fill="#B670F9"></path>
                <path d="M67.0366512,113.479262 L66.80805,113.624764 C67.1082334,113.349927 67.4499807,113.17831 67.8344465,113.097476 C68.2200667,113.035295 68.5814414,112.969384 68.9820708,113.015398 C69.6101469,113.091258 70.1955046,113.229298 70.7958715,113.459365 C72.270234,114.022718 73.7342055,115.038743 73.9743523,116.833266 C74.181017,118.38031 73.1119022,119.717186 71.734522,119.962176 C70.4021694,120.197218 69.3538365,119.289386 68.3055035,118.550684 C67.343762,117.875407 66.272338,117.183962 66.0402731,115.847087 C65.8717086,114.873344 66.2377015,113.976704 67.0366512,113.479262" id="Fill-2000" fill="#B670F9"></path>
                <path d="M33,114.122384 C37.3965894,113.8318 42.101651,114.506848 45.9718882,116 C48.3926498,109.452932 46.3548983,100.248142 41.7828582,96.0782699 C40.6028659,95.0031111 39.316227,94.8086438 38.1660499,95.1595791 C36.3175099,95.0109345 34.4575026,95.8849201 33.6868954,98.0888837 C32.5229574,101.420535 34.3588833,104.860596 34.0825197,108.197835 C33.9139493,110.236389 33.305032,112.184416 33,114.122384" id="Fill-2002" fill="#B670F9"></path>
                <path d="M47.4974161,118.79673 C47.5286662,118.7467 47.5620715,118.69667 47.592244,118.644313 C47.789443,118.308065 47.9165986,117.938076 47.9747884,117.535509 C48.0254352,117.175991 47.9941851,116.860685 47.9306073,116.544216 C47.9349176,116.567486 47.9413832,116.588429 47.9467711,116.610535 C47.939228,116.57214 47.9284521,116.540726 47.9219865,116.49884 C47.897202,116.379001 47.8691846,116.257998 47.8368569,116.135832 C47.8336242,116.124197 47.831469,116.112562 47.8293138,116.105581 C47.8250034,116.088129 47.7851326,116.057878 47.7808223,116.040426 C47.7775895,116.033445 47.7377187,116.010175 47.7387963,116.004358 L47.7377187,116.006684 C47.7528049,115.956654 47.7032358,115.883355 47.6881495,115.817036 C47.7032358,115.885682 47.7506497,115.962472 47.7323307,116.017156 C47.8196155,115.747227 47.526511,115.383055 47.3519415,115.05146 C47.1493546,114.705904 46.9661643,114.435975 46.6310338,114.106708 C46.5405163,114.018282 46.4618522,113.933348 46.3702571,113.844923 C45.7829705,113.27714 44.9984851,113.015355 44.2280083,113.00023 C43.1838237,112.983941 42.4499849,113.835615 42.1482597,114.826907 C41.6461028,116.455791 42.4855454,118.415106 43.6741271,119.39709 C44.6277942,120.189426 45.9844799,120.205715 46.9446125,119.41687 C47.1461218,119.253981 47.3045275,119.06666 47.4413814,118.871193 L47.4392263,118.887482 C47.4607781,118.858395 47.4769419,118.828144 47.4974161,118.79673" id="Fill-2004" fill="#B670F9"></path>
                <path d="M48.323,115.201 C48.369,115.277 48.408,115.349 48.45,115.422 C48.523,115.537 48.597,115.658 48.677,115.799 C48.56,115.599 48.441,115.398 48.323,115.201" id="Fill-2006" fill="#B670F9"></path>
                <path d="M41.78794,116.387474 C41.9858365,115.591243 42.1336768,114.505584 41.812386,113.759422 C41.187266,112.301293 39.7612474,111.474532 38.3200956,112.373345 C36.9383126,113.236743 35.8824768,115.812283 36.0105274,117.463364 C36.2002752,119.933879 39.1175019,120.862001 40.6634225,119.05949 C41.318809,118.297452 41.546972,117.358339 41.78794,116.387474" id="Fill-2008" fill="#B670F9"></path>
                <path d="M36.0888208,111.61894 L36.3041798,111.783836 C36.0272896,111.484722 35.7014024,111.278921 35.3276577,111.16899 C34.951634,111.076955 34.5983996,110.982364 34.203005,111.002816 C33.5808567,111.032216 32.9940318,111.129364 32.390115,111.322382 C30.9019727,111.791506 29.4001569,112.727197 29.0537593,114.550004 C28.7563587,116.122271 29.7294625,117.570546 31.0694742,117.923348 C32.3661862,118.262088 33.4555155,117.408207 34.5323106,116.729447 C35.5190879,116.105654 36.6198118,115.47419 36.9274676,114.120507 C37.1530818,113.134963 36.8465655,112.190325 36.0888208,111.61894" id="Fill-2010" fill="#B670F9"></path>
                <path d="M98.8821104,82.5659932 C96.9240639,74.5385676 93.6722679,64.3262627 86.568448,59.5179456 C84.4125736,58.0564613 81.691316,59.897728 82.0285226,62.4239595 C82.553441,66.3596812 84.132692,69.9201417 85.1398159,73.7665694 C86.0289174,77.1552235 86.7876323,80.5721353 87.5901841,83.9833955 C88.3028142,87.0148733 90.6160517,89.3681682 93.9409092,88.952216 C96.7498405,88.5995608 99.621717,85.5997316 98.8821104,82.5659932" id="Fill-2012" fill="#B670F9"></path>
                <path d="M0.118468166,82.5659932 C2.07646745,74.5385676 5.32593698,64.3262627 12.4307094,59.5179456 C14.5876557,58.0564613 17.3077236,59.897728 16.9716491,62.4239595 C16.4467435,66.3596812 14.8664065,69.9201417 13.859307,73.7665694 C12.9713509,77.1552235 12.2115303,80.5721353 11.4089979,83.9833955 C10.6963851,87.0148733 8.38320337,89.3681682 5.05955017,88.952216 C2.25068667,88.5995608 -0.623368531,85.5997316 0.118468166,82.5659932" id="Fill-2014" fill="#B670F9"></path>
                <path d="M6.4907271,84.4167851 C5.81081798,83.7924122 4.85382261,83.9082513 4.21349724,84.5071396 C3.24835228,85.4072097 2.41825775,86.4150101 2.06433245,87.7042997 C1.51248841,89.7245341 4.66754614,90.9709632 5.55235938,89.0294993 C5.7991757,88.489689 5.95518225,87.9533538 6.14844409,87.3787917 C6.19152052,87.2490519 6.24623924,87.1297376 6.30677909,87.0092649 C6.39176773,86.8969009 6.48490596,86.7903289 6.58037266,86.6837569 C7.16015817,86.0257906 7.14735167,85.020307 6.4907271,84.4167851" id="Fill-2018" fill="#B670F9"></path>
                <path d="M6.547,85.338 C6.507,85.443 6.472,85.549 6.453,85.662 C6.501,85.486 6.531,85.387 6.547,85.338" id="Fill-2020" fill="#B670F9"></path>
                <path d="M10.7836224,86.6485006 C10.6346638,86.138601 10.4834136,85.6433396 10.3573717,85.1236811 C10.1751839,84.3588317 9.27570309,83.9233432 8.59851439,84.0111728 C7.97861745,84.0892436 7.49163742,84.5283916 7.26361618,85.1139223 C7.26934536,85.1090429 7.26132451,85.1541775 7.23382446,85.2883616 C7.15705349,85.5591696 7.09976173,85.8360768 7.06080332,86.1190833 C7.02299076,86.4789407 7.00121988,86.8412378 7.00007405,87.2035349 C6.9920532,88.34288 7.63601268,89.7261962 8.75091049,89.9628482 C9.57476612,90.1360677 10.4307051,89.6908204 10.8088308,88.8930349 C11.1331022,88.2038165 10.9898728,87.3535771 10.7836224,86.6485006" id="Fill-2022" fill="#B670F9"></path>
                <path d="M7.494,85.5125 C7.497,85.5045 7.502,85.4945 7.506,85.4875 C7.503,85.4895 7.501,85.4945 7.494,85.5125" id="Fill-2024" fill="#B670F9"></path>
                <path d="M90.6980273,84.1804452 C90.2441204,82.9873279 88.3959815,82.4967823 87.6082092,83.6735899 C87.390634,83.9947656 87.2043196,84.251957 87.0167548,84.571878 C87.0030001,84.5944607 87.0004992,84.6019882 86.9904957,84.6170434 C86.9742401,84.6358622 86.9504819,84.6684816 86.9029655,84.7337204 C86.8016805,84.8692164 86.699145,85.0009486 86.5966096,85.1364446 C86.2514903,85.5893524 86.1352001,86.0748797 86.0264125,86.6306641 C85.8388477,87.5866634 86.6828894,88.5865735 87.5244303,88.877639 C88.5272769,89.2239065 89.438842,88.8023634 90.0815642,88.0270254 C90.352908,87.6995768 90.5017094,87.2943434 90.6617647,86.9029106 C90.6967768,86.8150891 90.7255368,86.7285223 90.7530463,86.6381916 C90.9381102,86.1852838 91.0206388,85.7148117 90.9956301,85.2292844 C90.9593676,84.8616889 90.859333,84.5141668 90.6980273,84.1804452" id="Fill-2026" fill="#B670F9"></path>
                <path d="M96.8651173,87.1829162 C96.2731107,85.8690094 95.6084652,84.6605259 94.7210607,83.4897728 C93.968038,82.4987941 91.955942,83.130224 92.000736,84.3265006 C92.0479512,85.5638368 92.2295483,86.77343 92.3941964,87.9974496 C92.4862056,88.6954626 92.8893512,89.4456324 93.6435845,89.7363786 L93.9256653,89.8440213 C94.7731185,90.1691689 95.7428471,89.9805167 96.3409069,89.3291119 C96.3614879,89.309137 96.378437,89.2869426 96.3978074,89.265858 C96.9050686,88.7154375 97.1823069,87.8831486 96.8651173,87.1829162" id="Fill-2028" fill="#B670F9"></path>
                <path d="M100.065764,82.9074561 C99.102969,82.4577053 98.0934718,82.2696086 97.0516419,82.0394791 C95.5655374,81.7126742 94.2351086,83.4948642 95.5152421,84.4342969 C96.4241489,85.0994657 97.4120911,85.773041 98.6143867,85.9632394 C99.4562332,86.0966934 100.29329,85.8728689 100.747144,85.1919378 C101.256084,84.4300936 100.980658,83.3361904 100.065764,82.9074561" id="Fill-2030" fill="#B670F9"></path>
                <path d="M17.8721827,46 C15.2080694,46 15.4712226,50 18.1278173,50 C20.7919306,50 20.5287774,46 17.8721827,46" id="Fill-2032" fill="#8B43C9"></path>
                <path d="M27.6610852,55 C25.685817,55 25.3421302,58 27.3384912,58 C29.3150001,58 29.6574461,55 27.6610852,55" id="Fill-2034" fill="#8B43C9"></path>
                <path d="M41.1086121,51 C39.7899458,51 39.5617628,54 40.8920036,54 C42.2098432,54 42.4380262,51 41.1086121,51" id="Fill-2036" fill="#8B43C9"></path>
                <path d="M23.7712474,67.1771156 C23.3984558,66.4688447 22.7424393,66.1654686 21.9811213,66.0214536 C21.1883339,65.8738971 20.3604459,66.5113409 20.1074802,67.201905 C19.879932,67.8275443 20.030017,68.420131 20.404019,68.8734243 C20.6581951,69.5085072 21.3493121,69.9641615 22.0331669,69.9972142 C23.0656061,70.0526954 23.9116495,69.2724169 23.9939541,68.2879204 C24.0242132,67.9267023 23.9394878,67.4993788 23.7712474,67.1771156" id="Fill-2038" fill="#8B43C9"></path>
                <path d="M19.6311923,80.0387687 C19.2814396,80.1092697 19.0629754,80.2623891 18.7783418,80.4628763 C17.8981833,81.0841664 17.6734173,82.6186649 18.5808838,83.3479096 C19.1417486,83.8017598 19.1911131,83.8381119 19.8097448,83.9482697 C19.8916688,83.9636918 19.9735929,83.9758092 20.0544667,83.9890281 C20.5124012,84.0617323 21.0774671,83.7610014 21.3978112,83.4448485 C21.7706708,83.0769214 21.9891349,82.5558749 21.999638,82.0227111 C22.0237951,80.6732778 20.8348459,79.8019294 19.6311923,80.0387687" id="Fill-2040" fill="#8B43C9"></path>
                <path d="M80.755491,86.575697 C80.3395314,85.9855181 79.4510192,85.8013822 78.8615073,86.2489739 C78.9643182,86.1942053 79.0699587,86.1384924 79.1727696,86.0846681 C79.0444918,86.1309381 78.9275326,86.1960939 78.8209489,86.2791911 C78.7275702,86.3528454 78.6398509,86.4378312 78.5474154,86.5171512 C77.976768,87.011013 77.7975564,87.825932 78.2738819,88.4586038 C78.8464158,89.2187543 79.8886727,89.1375456 80.480071,88.4699352 C80.5517557,88.3887266 80.6300428,88.3094066 80.6960682,88.2225322 C81.0648668,87.7371691 81.1139141,87.0827787 80.755491,86.575697" id="Fill-2042" fill="#8B43C9"></path>
                <path d="M82.6640571,75.5788813 C81.4715157,74.0456059 79.1291593,75.8717775 80.3359429,77.4217302 C81.5284843,78.9539632 83.8708407,77.1277916 82.6640571,75.5788813" id="Fill-2044" fill="#8B43C9"></path>
                <path d="M80.6613745,49 C78.6858548,49 78.3423401,52 80.3377018,52 C82.3144617,52 82.6579764,49 80.6613745,49" id="Fill-2046" fill="#8B43C9"></path>
                <path d="M83.4139109,39.0589948 C83.3033282,39.0428202 83.1938298,39.027801 83.0832472,39.0139371 C82.0663208,38.8810746 81.122032,39.71522 81.0114494,40.7873626 C80.8759314,42.1079003 81.9644113,43.1384512 83.1645579,42.9847928 C83.2328589,42.9743948 83.3022441,42.9674629 83.3727134,42.9582203 C84.194494,42.847309 84.8634104,42.15989 84.9826662,41.2818422 C85.1214365,40.2328061 84.4113227,39.1941679 83.4139109,39.0589948" id="Fill-2048" fill="#8B43C9"></path>
                <path d="M34.497,25.5 L34.503,25.5 L34.497,25.5 Z" id="Fill-2050" fill="#8B43C9"></path>
                <path d="M33.9207784,26.1032098 C33.8289018,26.0790353 33.7299578,26.0496054 33.6865436,26.0390947 C32.7748455,25.7952473 31.9307927,26.7359519 32.0044959,27.6430224 C32.0368041,28.0371724 32.2185379,28.4081989 32.5113314,28.661506 C32.9293192,29.0304303 33.4129332,29.0598602 33.9207784,28.9295279 C33.9500577,28.9242726 33.9793371,28.9158641 34.0076068,28.9053534 C34.6103574,28.7308764 35.0222875,28.1086449 34.9990659,27.4643411 C34.976854,26.7969138 34.5265579,26.2755847 33.9207784,26.1032098" id="Fill-2052" fill="#8B43C9"></path>
                <path d="M45.362492,29 C43.3665596,29 43.6532783,33 45.6371871,33 C47.6331195,33 47.3473256,29 45.362492,29" id="Fill-2054" fill="#8B43C9"></path>
                <path d="M60.4110147,23 C58.4102266,23 58.5981459,26 60.5889853,26 C62.5897734,26 62.4018541,23 60.4110147,23" id="Fill-2056" fill="#8B43C9"></path>
                <path d="M78.9655342,64.5717065 C78.9728452,64.5323926 78.9801561,64.4930788 78.9812005,64.4537649 C78.987467,64.4124349 79,64.3811854 79,64.3317911 C79,63.2058015 77.5493047,62.5515783 76.6907938,63.3590248 C76.5821744,63.4608376 76.4923546,63.5818034 76.4014903,63.699745 C76.4004459,63.699745 76.3994015,63.699745 76.3994015,63.7037772 C76.393135,63.7098255 76.3879129,63.7168818 76.3806019,63.7229301 C75.8740597,64.266268 75.8604822,65.1009317 76.4161121,65.6231006 C76.9477204,66.1230924 77.873074,66.1372051 78.3869272,65.5958833 C78.6417649,65.3257264 78.8224491,65.0596017 78.9362906,64.7118252 C78.9446459,64.6815837 78.9477791,64.6503343 78.9561345,64.6170687 C78.9603122,64.6049721 78.9613566,64.5858192 78.9655342,64.5717065" id="Fill-2058" fill="#8B43C9"></path>
                <path d="M69.1192916,9.6990652 C69.5725643,9.37941919 70.0269507,9.06200067 70.4802235,8.74458216 C71.5192983,8.19995881 72.6251947,7.9571615 73.7979126,8.00616646 C75.4773604,8.00616646 77.190219,8.89827954 78.3016839,10.1189486 C79.4576964,11.3875089 80.0713408,13.0837489 79.9933823,14.7978089 C79.9154239,16.5118689 79.14809,18.1457389 77.8795945,19.3029243 C77.4263218,19.6181153 76.9741628,19.9377613 76.5197763,20.2574073 C75.4795878,20.7998032 74.3748051,21.0437142 73.2032009,20.9935955 C71.5226394,20.9935955 69.8120081,20.1014824 68.6994296,18.8808134 C67.5423034,17.6144806 66.928659,15.9182406 67.0066175,14.2019531 C67.0845759,12.4878931 67.8519098,10.8540231 69.1192916,9.6990652" id="Fill-2060" fill="#FFFFFF"></path>
                <path d="M43.0291008,11.3588084 C43.2009998,9.49333223 44.1357711,7.73911039 45.5929806,6.56026432 C46.0996895,6.24897704 46.609769,5.93544219 47.1164779,5.62303113 C48.240001,5.11845355 49.4152062,4.92066812 50.6409699,5.02855108 C51.251043,5.16902368 51.8599925,5.30949628 52.4700656,5.44996888 C53.6508884,5.90285255 54.6395887,6.61532958 55.4384137,7.5918951 C56.5776661,9.0033638 57.1383041,10.8362503 56.9708992,12.6410423 C56.7978766,14.508766 55.8631054,16.261864 54.4070194,17.4384625 C53.899187,17.7519974 53.390231,18.0644085 52.8835221,18.3779433 C51.759999,18.8802733 50.5859173,19.0780587 49.3579065,18.9724233 C48.748957,18.8319507 48.138884,18.6892306 47.5288109,18.5510055 C46.3491116,18.0992457 45.3592878,17.3856448 44.5615863,16.4068318 C43.4223339,14.9976106 42.8616959,13.1647241 43.0291008,11.3588084" id="Fill-2062" fill="#FFFFFF"></path>
                <path d="M19.6265823,11.0704841 C20.3834275,9.42512305 21.776631,8.11419448 23.4716367,7.46047809 C24.6683177,7.00136178 25.9562414,6.89182641 27.191525,7.10390552 C27.1868459,7.09924444 27.1821668,7.09225282 27.1798273,7.08992228 C27.2137508,7.09924444 27.2465045,7.11089714 27.2815978,7.11905403 C27.8267135,7.22159778 28.3589617,7.38357028 28.8678143,7.60846736 C28.8830214,7.6107979 28.8982285,7.61778952 28.9134356,7.62478114 C28.963736,7.64692127 29.0070177,7.67488775 29.0561483,7.69935841 C29.2713871,7.80190216 29.4831166,7.91376806 29.6854879,8.03845194 C29.7135625,8.05476571 29.7357883,8.07107949 29.7603536,8.08389746 C29.9896297,8.23188673 30.2165663,8.38919816 30.4294656,8.56515391 C30.8903574,8.93804026 31.3021186,9.37268591 31.6670888,9.86442978 C31.7922548,10.0345592 31.9068929,10.215176 32.0145123,10.3969581 C32.5432512,11.2779021 32.8637698,12.2334234 32.9713893,13.2740093 L32.962031,13.2646872 C33.0895367,14.4847247 32.8965236,15.7362245 32.3736336,16.8735279 C31.8601019,17.9782037 31.1091055,18.8952711 30.1229842,19.6165731 C29.1005998,20.3541889 27.9588982,20.786504 26.700219,20.915849 C25.7410025,21.0894742 24.8005025,20.9939221 23.877549,20.6338537 C23.6377449,20.5627722 23.4084688,20.4613937 23.1850415,20.3471973 C22.0924705,19.9603277 21.0022391,18.9931537 20.3331271,18.0784169 C18.8592091,16.0636653 18.5831419,13.3369339 19.6265823,11.0704841" id="Fill-2064" fill="#FFFFFF"></path>
                <path d="M73.3306972,11 C74.2888161,11 75.1703782,11.2694541 75.8837475,11.9326365 C76.548399,12.5516841 76.9520616,13.4250871 76.9961397,14.329849 C77.0866158,16.1672474 75.5752008,18 73.6694027,18 C72.7124438,18 71.8285618,17.7305459 71.1140325,17.0662021 C70.4517009,16.445993 70.0468783,15.5772358 70.0039602,14.670151 C69.9123241,12.8327526 71.4225792,11 73.3306972,11" id="Fill-2066" fill="#1E2D6A"></path>
                <path d="M49.0383374,8.03316594 C49.9389841,7.90236728 50.8716782,8.16156463 51.5999311,8.75555857 C52.6309781,9.58955005 53.0962201,10.9179365 52.9835011,12.2847225 C52.9779757,12.3579218 52.9713452,12.429921 52.9647146,12.5055203 C52.9028297,13.1655135 52.6961783,13.7679074 52.3447603,14.3139018 C51.9734508,14.8766961 51.497158,15.3014917 50.9136716,15.5870888 C50.642925,15.6926877 50.3721785,15.7958867 50.1003269,15.9014856 C49.3875452,16.1750828 48.5410479,15.8306863 47.9299343,15.4562901 C46.2214685,14.4063009 46.1496378,13.6023091 46.0214476,12.3123222 C45.8159012,10.2507433 47.1077489,8.30796314 49.0383374,8.03316594" id="Fill-2068" fill="#1E2D6A"></path>
                <path d="M23.5245,16.5535 C23.5065,16.5165 23.4925,16.4835 23.4755,16.4465 C23.4925,16.4815 23.5055,16.5165 23.5245,16.5535" id="Fill-2070" fill="#1E2D6A"></path>
                <path d="M23.486,15.4035 C23.49,15.4675 23.503,15.5325 23.514,15.5965 C23.501,15.5305 23.489,15.4655 23.486,15.4035" id="Fill-2072" fill="#1E2D6A"></path>
                <path d="M23.423,16.2625 C23.457,16.4185 23.513,16.5825 23.577,16.7375 C23.507,16.5805 23.453,16.4225 23.423,16.2625" id="Fill-2074" fill="#1E2D6A"></path>
                <path d="M23.5400038,16.5466702 C23.5620038,16.5836702 23.5820038,16.6226702 23.6030038,16.6596702 C23.7850038,16.9706702 23.5420038,16.6596702 23.3330038,16.2146702 C23.3930038,16.3296702 23.4640038,16.4396702 23.5400038,16.5466702" id="Fill-2076" fill="#1E2D6A"></path>
                <path d="M23.0311388,15.4869876 C23.0224199,15.2221625 23.0099644,14.9531001 23,14.6861564 C23.0660142,14.1501503 23.2839858,13.6639313 23.6551601,13.2274994 C24.1919929,12.6003935 25.0078292,12.1681988 25.9046263,12.042142 C26.8338078,11.9076109 27.8040925,12.098285 28.563879,12.5696737 C28.7818505,12.7455176 28.9998221,12.9213615 29.216548,13.0950868 C29.6051601,13.5029176 29.8530249,13.9679506 29.9601423,14.48383 C29.963879,14.494423 29.9676157,14.5060753 29.9688612,14.5145497 C29.9800712,14.7814934 29.9900356,15.0505558 30,15.3174995 C29.9327402,15.8556243 29.7122776,16.3397246 29.3398577,16.7782751 C28.8005338,17.4011439 27.983452,17.8333385 27.0841637,17.9593953 C26.1562278,18.0918079 25.183452,17.8968966 24.424911,17.4255078 C24.1209964,17.2327151 23.8233096,16.9742457 23.5779359,16.6787008 C23.5505338,16.6395067 23.5256228,16.6003126 23.4982206,16.5611185 C23.2790036,16.2274388 23.061032,15.8884626 23.0311388,15.4869876" id="Fill-2081" fill="#1E2D6A"></path>
                <path d="M41.5170201,11.2794536 C44.2297256,12.0826315 46.5629163,11.3202185 49.2910224,11.2045344 C52.2787386,11.0789346 55.3038563,11.5009059 58.2618713,11.8986387 C58.5071808,11.9316913 58.7535904,11.9658457 59,12 C58.9977999,11.5592988 58.9537982,11.0965626 58.8756952,10.6228089 C58.9064964,10.7131526 58.9053963,10.658065 58.8184929,10.2338901 C58.7260893,9.92539931 58.6941881,9.83505557 58.6897879,9.85488712 C54.9991444,-1.64080253 41.7491291,0.0680162046 41,11.1648713 C41.1705066,11.1935169 41.3399132,11.2276712 41.5170201,11.2794536" id="Fill-2083" fill="#8B43C9"></path>
                <path d="M84,17 C81.9754752,2.84595488 69.41932,0.95076589 65,12.7133727 C71.4085267,13.6943575 77.714517,15.2637029 84,17" id="Fill-2085" fill="#8B43C9"></path>
                <path d="M16.243918,18 C21.5907233,16.9264545 26.7868359,15.2276445 32.0588529,13.8222547 C32.7743649,13.6312987 33.4262509,13.6475998 34,13.8106111 C33.9877213,13.7454066 33.9687452,13.6359562 33.9341416,13.4647944 C33.8426097,13.1492512 33.8091224,13.0584306 33.8057737,13.0782248 C29.8196689,0.415744366 14.9524245,3.37439842 16.0586216,16.835634 C16.0921089,17.2454908 16.1601997,17.6297316 16.243918,18" id="Fill-2087" fill="#8B43C9"></path>
                <path d="M67.6894587,30.551268 C63.6364368,33.2582159 60.955752,35.8837098 55.9508928,37.1590772 C51.6259174,38.2614945 46.9410035,38.108629 42.5543244,37.5161354 C39.5194143,37.1066343 39.0954867,41.6502005 41.7864556,42.5093719 C51.3505359,45.5599883 67.5500539,44.4374864 72.660038,34.3305064 C74.187777,31.3055536 70.2170269,28.8663994 67.6894587,30.551268" id="Fill-2089" fill="#53247C"></path>
                <path d="M48,38.2640846 C48.0067555,38.3001077 48.0101333,38.3361309 48.0180147,38.3710624 C47.9448301,38.5238878 48.1204731,38.9681732 48.4548704,39.6198644 C48.6406466,39.982279 48.9547774,40.2857467 49.230627,40.5684737 C49.8296148,41.1830502 50.6537858,41.6011369 51.4317943,41.8161841 C53.65548,42.4318523 56.1392524,41.5138081 56.8857352,38.867745 C57.0580004,38.2553517 57.0309784,37.5927443 56.8350689,37 C53.9076853,37.5752786 50.9724203,37.7990587 48,38.2640846" id="Fill-2091" fill="#FFFFFF"></path>
                <path d="M58.1741261,44 C61.2139249,43.5481339 64.1788576,42.4579355 67,40.9970924 C66.1764736,39.5980235 64.9500966,38.5993423 63.3850399,38.1348926 C62.2751212,37.8065747 61.1592608,38.1143012 60.1301498,38.6622603 C58.6958116,39.4264288 57.9756717,41.1641113 58.000627,42.7313431 C58.0077571,43.1820652 58.0600445,43.6064761 58.1741261,44" id="Fill-2093" fill="#FFFFFF"></path>
            </g>
        </g>
    </g>
</svg>