<?xml version="1.0" encoding="UTF-8"?>
<svg width="104px" height="119px" viewBox="0 0 104 119" version="1.1" xmlns="http://www.w3.org/2000/svg" xmlns:xlink="http://www.w3.org/1999/xlink">
    <title>Group 7</title>
    <g id="Student-Environmrnt---New-Treatment" stroke="none" stroke-width="1" fill="none" fill-rule="evenodd">
        <g id="Avatars" transform="translate(-563.000000, -519.000000)">
            <g id="Group-7" transform="translate(563.000000, 519.000000)">
                <path d="M40.3696741,112.941082 C36.1152175,112.353302 31.4966356,112.73067 27.6375788,114 C25.7186613,107.155911 28.3088648,97.8920906 33.027972,93.9388716 C34.2465627,92.9199772 35.5075975,92.8044796 36.6033239,93.2390249 C38.4105465,93.2081494 40.1608047,94.2270438 40.7628399,96.5255599 C41.6742699,100.00421 39.6615288,103.39252 39.7084406,106.818567 C39.7374813,108.912389 40.2010149,110.942173 40.3696741,112.941082" id="Fill-2095" fill="#B670F9"></path>
                <path d="M25.4667397,117.62366 C25.4344837,117.568313 25.3997465,117.515321 25.3712123,117.459975 C25.1702325,117.106696 25.0449303,116.721622 25.0089525,116.312997 C24.9766965,115.946765 25.0350054,115.629992 25.1292922,115.314396 C25.1218485,115.337948 25.1144048,115.357967 25.1044799,115.381519 C25.1168861,115.342659 25.1317735,115.309686 25.1441796,115.270825 C25.1801575,115.150711 25.2198572,115.029418 25.26576,114.906949 C25.2707224,114.898705 25.2732037,114.889285 25.2781661,114.879864 C25.2843692,114.861022 25.3315126,114.833938 25.3389563,114.817451 C25.3414375,114.810386 25.3898215,114.790367 25.3898215,114.783301 L25.3898215,114.785656 C25.3749342,114.73502 25.4357243,114.663186 25.459296,114.599596 C25.4369649,114.663186 25.3761748,114.742085 25.3910622,114.797432 C25.3910622,114.799787 25.3910622,114.799787 25.3935434,114.799787 C25.3129034,114.518342 25.6764038,114.170952 25.8997146,113.849468 C26.1577627,113.513854 26.3872767,113.25596 26.792958,112.945075 C26.9033728,112.862644 27.0026221,112.787278 27.1117963,112.701313 C27.8276316,112.170218 28.7494092,111.962961 29.6339682,112.005355 C30.8324031,112.061879 31.6152317,112.978048 31.8931296,113.999023 C32.3558793,115.682984 31.2517313,117.598931 29.8163388,118.504501 C28.6650473,119.235788 27.1068338,119.153356 26.0585135,118.285469 C25.8414057,118.106474 25.6702007,117.906283 25.5275299,117.701381 L25.5275299,117.715513 C25.5064394,117.686073 25.4890708,117.6531 25.4667397,117.62366" id="Fill-2097" fill="#B670F9"></path>
                <path d="M26.6975,113.214 C26.6465,113.286 26.6035,113.357 26.5565,113.427 C26.4755,113.536 26.3915,113.653 26.3025,113.786 C26.4335,113.597 26.5665,113.403 26.6975,113.214" id="Fill-2099" fill="#8B43C9"></path>
                <path d="M32.1247244,115.199057 C31.9744496,114.396068 31.8957343,113.310457 32.2714212,112.591163 C33.0025199,111.190178 34.514809,110.468458 35.9304929,111.458245 C37.2865439,112.41043 38.1989265,115.035306 37.9627804,116.660691 C37.606176,119.098769 34.5672859,119.81685 33.1015105,117.923397 C32.4813288,117.122834 32.3095862,116.177927 32.1247244,115.199057" id="Fill-2101" fill="#B670F9"></path>
                <path d="M39.0366541,111.407916 L38.8092068,111.532682 C39.1082365,111.299146 39.4499848,111.149853 39.8309879,111.080538 C40.2200729,111.029352 40.580294,110.972834 40.9809245,111.014423 C41.6078478,111.075207 42.1943617,111.193574 42.7947303,111.390854 C44.2679423,111.876055 45.734227,112.747285 45.9743744,114.283933 C46.1810397,115.610505 45.1107674,116.75686 43.7345379,116.966936 C42.401027,117.170614 41.3515367,116.392159 40.3055099,115.758732 C39.3414566,115.179689 38.2711842,114.584651 38.0402733,113.440429 C37.8717082,112.605457 38.2377021,111.836599 39.0366541,111.407916" id="Fill-2103" fill="#B670F9"></path>
                <path d="M61.6292399,113.940994 C65.8850705,113.355454 70.5039312,113.730566 74.3621041,115 C76.2811375,108.155347 73.6930116,98.8930511 68.9725024,94.9395065 C67.7538381,93.9182409 66.4916101,93.805021 65.3958175,94.2396022 C63.5907198,94.208724 61.8381219,95.2254151 61.2371673,97.5241206 C60.3256823,101.005344 62.338545,104.393933 62.2927473,107.820262 C62.2614709,109.914257 61.7990263,111.944209 61.6292399,113.940994" id="Fill-2105" fill="#B670F9"></path>
                <path d="M76.5989,117.622351 C76.62761,117.567007 76.6563201,117.514019 76.6829034,117.461031 C76.8562271,117.10542 76.9604339,116.722726 76.9923339,116.314126 C77.0199807,115.945563 76.9700039,115.62881 76.8881271,115.313235 C76.8945071,115.336785 76.9030138,115.359158 76.9093938,115.382708 C76.8987605,115.341495 76.8870638,115.308525 76.8774938,115.272022 C76.8445304,115.149559 76.811567,115.028275 76.7722236,114.908168 C76.7690336,114.89757 76.7669069,114.88815 76.7626536,114.881085 C76.7573369,114.862245 76.7169302,114.835162 76.7105501,114.816321 C76.7073601,114.809256 76.6658901,114.789238 76.6669534,114.782173 C76.6669534,114.784528 76.6658901,114.784528 76.6658901,114.784528 C76.6786501,114.733895 76.6254833,114.664421 76.6063433,114.600835 C76.62442,114.664421 76.6765234,114.74096 76.6637634,114.798659 C76.7328802,114.517231 76.4223863,114.169863 76.2288594,113.8484 C76.0076857,113.515162 75.812032,113.257285 75.4632581,112.94642 C75.3686213,112.863994 75.2856811,112.786278 75.189981,112.700319 C74.5785633,112.171612 73.7853153,111.962014 73.0292841,112.005582 C71.9999757,112.06328 71.3300746,112.977036 71.0908242,113.997945 C70.6963269,115.681798 71.6416318,117.597623 72.8697838,118.50549 C73.8576221,119.234375 75.1942343,119.154304 76.0927525,118.286472 C76.2798994,118.105134 76.4255763,117.907311 76.5499865,117.700067 L76.5478599,117.714197 C76.5680632,117.684759 76.5818866,117.651789 76.5989,117.622351" id="Fill-2107" fill="#B670F9"></path>
                <path d="M76.3035,114.214 C76.3545,114.286 76.3985,114.355 76.4445,114.425 C76.5245,114.536 76.6055,114.651 76.6965,114.786 C76.5655,114.595 76.4335,114.403 76.3035,114.214" id="Fill-2109" fill="#B670F9"></path>
                <path d="M70.8743151,115.197465 C71.0245958,114.396855 71.1056996,113.308753 70.7288053,112.589417 C69.9964853,111.18835 68.4841372,110.469014 67.0672054,111.458859 C65.7134868,112.408674 64.8010686,115.033704 65.0372239,116.661611 C65.3914569,119.099832 68.4340437,119.815529 69.8962982,117.924391 C70.5176968,117.123781 70.6918315,116.173967 70.8743151,115.197465" id="Fill-2111" fill="#B670F9"></path>
                <path d="M63.9638807,111.478311 L64.1924986,111.621346 C63.8922932,111.348957 63.5505209,111.177315 63.1683363,111.096469 C62.7803786,111.034279 62.4178228,110.970846 62.0171641,111.014379 C61.3913512,111.09025 60.8036414,111.22831 60.2032306,111.455923 C58.7299148,112.021846 57.2646815,113.038019 57.0256718,114.832804 C56.8189919,116.380074 57.8870304,117.717145 59.265666,117.962171 C60.5969615,118.197246 61.6476805,117.289282 62.6937809,116.550473 C63.6567474,115.875097 64.7282498,115.183551 64.9591771,113.846481 C65.1289086,112.872596 64.7640436,111.978313 63.9638807,111.478311" id="Fill-2113" fill="#B670F9"></path>
                <path d="M28.3396781,4.0191507 C19.5890374,3.52315567 16.1475056,12.7665961 17.1763233,19.5584364 C18.9961015,27.0755418 23.1273053,35.2622972 30.7262165,34.9660622 C36.0762962,35.5131322 38.8759549,29.3307869 39.456372,24.7556017 C39.9776093,18.6606514 41.2272131,11.7802811 36.4598267,7.06549084 C34.2906601,5.09172575 31.3362235,3.90565069 28.3396781,4.0191507" id="Fill-2115" fill="#9D63E0"></path>
                <path d="M54.0519624,0.0467558358 C46.3591996,-0.640464339 39.8689358,6.35511418 41.1660654,13.9687296 C42.2450832,20.3059143 43.5918361,26.4090291 49.0469351,30.4043611 C53.6365117,33.7620543 59.9709814,31.5216704 62.0678536,26.472447 C63.0199282,21.9974445 63.9720028,17.5201359 64.9229234,13.0416742 C65.7065097,6.55920474 60.4048966,0.616364504 54.0519624,0.0467558358" id="Fill-2117" fill="#9D63E0"></path>
                <path d="M77.8939677,4.0308706 C71.8557569,3.53106988 66.9119357,9.16383542 66.3341165,16.3028654 C66.0463625,19.8415002 65.8672385,23.5299609 66.1226346,27.0457216 C66.409233,30.9755048 67.6214977,34.3768946 70.5337065,36.4653067 C73.1107802,38.3158275 77.0179938,38.6841017 79.5788885,36.5041928 C83.323157,33.3155329 85.1744898,30.5523326 86.6675746,25.7967916 C87.3320667,23.6820742 87.9272205,20.4453784 87.9930919,18.0767576 C88.1953287,10.893123 83.936801,4.53295874 77.8939677,4.0308706" id="Fill-2119" fill="#9D63E0"></path>
                <path d="M17.7280852,44.0366708 C19.6523058,28.482409 35.5268425,17.1235481 50.8176652,17.1280812 C52.9194887,16.9660222 55.0348869,16.956956 57.1446291,17.1054156 C61.3584571,17.3955352 65.541742,18.3010255 69.5112247,19.8309529 C70.9569353,20.3817268 72.352872,21.0344958 73.6809348,21.8073924 C77.6662546,24.120416 81.0531543,27.4692571 83.4411788,32.0556394 C84.1549843,33.3305789 84.8359842,34.6474497 85.4830471,36.0017188 C87.4208425,40.0611261 89.0464186,44.438985 90.2704083,48.9743698 C90.7602305,50.7876171 91.1878351,52.6269298 91.5373848,54.4991076 C92.9808331,69.3779348 91.4695111,86.7953082 80.8868637,98.9145996 C68.0349708,111.789789 49.8911886,102.70202 34.9408659,105.063774 C32.6127966,104.72719 30.5437787,103.919162 28.7145814,102.730352 C25.0527931,100.354998 22.3491557,96.4689824 20.4011794,91.8599345 C19.4249287,89.5559771 18.6398558,87.0706951 18.0176798,84.5004171 C15.1160774,72.4083243 15.8717384,60.2901661 17.0289857,48.1844739 C17.2337381,46.6862784 17.4667713,45.3070772 17.7280852,44.0366708" id="Fill-2121" fill="#9D63E0"></path>
                <path d="M76.3927283,33.0205511 C72.5062547,33.4446009 68.7945573,34.6564963 64.9333802,35.2499386 C61.2032854,35.825191 57.4202977,36.0286894 53.6511081,36.0821219 C45.8862097,36.1912607 38.4536162,34.940712 30.9163869,33.2763452 C26.2779151,32.2497584 23.8448446,38.6889477 28.5178118,40.3385353 C36.1562273,43.0351732 44.5949345,43.871904 52.6587925,43.9855903 C60.9480199,44.1026871 71.2011814,43.5899621 78.4647477,39.2960323 C81.3842024,37.5680013 79.8319126,32.6431128 76.3927283,33.0205511" id="Fill-2123" fill="#662D91"></path>
                <path d="M34.5221496,31.3170474 C34.6577839,31.374295 34.7828948,31.4268693 34.8881283,31.4817803 C33.7527758,30.7737793 32.1239951,30.8929477 31.0061814,31.5343546 C29.4440486,32.4257817 28.6653207,34.3126161 29.1365329,36.0475692 C29.3224455,36.7251939 29.6615312,37.3140265 30.1549594,37.8152351 C30.4379205,38.034879 30.7208817,38.2521863 31.0050122,38.4706618 C31.6329054,38.826999 32.3087383,39.0045834 33.0301724,38.9999101 C33.3680889,38.9543457 33.7060053,38.9087813 34.0415833,38.8608802 C34.720924,38.6739492 35.3125701,38.3363052 35.8141831,37.8432748 C36.5742028,37.0897093 37.0103372,36.0405592 36.9998138,34.9703795 C36.9857827,33.3323969 35.9544944,31.924573 34.5221496,31.3170474" id="Fill-2125" fill="#FFFFFF"></path>
                <path d="M34.2942656,31.3753626 C34.3312656,31.3963626 34.3692656,31.4123626 34.4042656,31.4373626 C34.8832656,31.7713626 34.7502656,31.6003626 34.2942656,31.3753626" id="Fill-2127" fill="#FFFFFF"></path>
                <path d="M43.2968938,32.0477322 C42.0180266,31.8660672 40.9256152,32.2144366 39.8672045,32.8972835 C38.69363,33.6506592 38.2965889,34.9842944 38.0476156,36.2431264 C37.8359335,37.2989209 38.3602032,38.5866056 39.0237664,39.3902063 C39.7728799,40.2963943 40.8861305,40.8766539 42.0684794,40.982447 C43.2157307,41.0850344 44.3772405,40.7345277 45.2700346,40.0206909 C45.8897258,39.5237835 46.3416068,38.9061223 46.6234841,38.1698446 C46.716712,37.9272683 46.7781327,37.6825548 46.825295,37.4367726 C46.9854276,36.8917775 47.0391708,36.3179296 46.9711692,35.7483562 C46.7408415,33.8569025 45.213001,32.3255729 43.2968938,32.0477322" id="Fill-2129" fill="#FFFFFF"></path>
                <path d="M52.877322,33 C48.2676355,33 47.4641631,42 52.122747,42 C56.7335448,42 57.5347946,33 52.877322,33" id="Fill-2131" fill="#FFFFFF"></path>
                <path d="M62.9305934,33 C57.6014791,33 57.7330346,42 63.0710679,42 C68.3990674,42 68.2652821,33 62.9305934,33" id="Fill-2133" fill="#FFFFFF"></path>
                <path d="M71.0842921,32.0962728 C66.4774163,33.1341897 67.2596116,40.9508573 71.9140608,39.9037145 C76.5231493,38.8669508 75.740954,31.04913 71.0842921,32.0962728" id="Fill-2135" fill="#FFFFFF"></path>
                <path d="M75.3819703,25.021167 C71.4984755,25.4561562 67.7884938,26.6718661 63.9289712,27.2763316 C60.1995834,27.8570703 56.4188266,28.0683508 52.6483436,28.1350115 C44.8847787,28.267203 37.4465506,27.0469736 29.9067262,25.4120923 C25.261829,24.4054031 22.8497701,30.811607 27.5289132,32.4374496 C35.1749003,35.0970976 43.6176772,35.9004152 51.6814653,35.9908026 C59.9735599,36.0834496 70.2233834,35.5433852 77.4732585,31.2533753 C80.3864503,29.5292364 78.8214088,24.6392804 75.3819703,25.021167" id="Fill-2137" fill="#9D63E0"></path>
                <path d="M102.882116,81.5659932 C100.924161,73.5385676 97.6725163,63.3240021 90.5690277,58.5179456 C88.4110058,57.0564613 85.6932471,58.897728 86.02819,61.4239595 C86.5530839,65.3596812 88.1345093,68.9190114 89.1415861,72.7665694 C90.0283983,76.1529629 90.7882018,79.5721353 91.5907162,82.9833955 C92.302189,86.0148733 94.6164426,88.3681682 97.9411451,87.952216 C100.749945,87.5995608 103.621688,84.5997316 102.882116,81.5659932" id="Fill-2139" fill="#B670F9"></path>
                <path d="M4.11815228,81.5659932 C6.07629874,73.5385676 9.32713659,63.3240021 16.4313189,58.5179456 C18.5873033,57.0564613 21.3086998,58.897728 20.9714759,61.4239595 C20.4465308,65.3596812 18.8660751,68.9190114 17.8600239,72.7665694 C16.9720011,76.1529629 16.2121234,79.5721353 15.4095307,82.9833955 C14.6968643,86.0148733 12.3846328,88.3681682 9.0584816,87.952216 C6.25165513,87.5995608 3.3773839,84.5997316 4.11815228,81.5659932" id="Fill-2141" fill="#B670F9"></path>
                <path d="M4.02533082,82.0397354 C2.97356784,82.2858997 1.89388195,82.5766186 0.975916246,83.1469177 C-0.0374527336,83.7784795 -0.29806657,85.1418508 0.366266022,86.093092 C1.09458862,87.1323285 2.3720618,87.2091852 3.44244006,86.6734159 C3.69956353,86.5475491 4.04859992,86.2947016 4.21613738,86.1053445 C4.61403886,85.7099222 4.96423871,85.2766286 5.26208309,84.8110328 C5.33189037,84.7130126 5.41682256,84.6261311 5.50873547,84.5503883 C6.73152628,83.5479093 5.45754347,81.7066896 4.02533082,82.0397354" id="Fill-2143" fill="#B670F9"></path>
                <path d="M8.46870465,85.3962918 C7.76946975,84.7881879 6.80699349,84.9185783 6.17004338,85.5243744 C5.21226785,86.4394149 4.39198893,87.4536906 4.05706129,88.7449016 C3.53527929,90.7665296 6.74118314,91.9573516 7.60024316,90.0072652 C7.84115602,89.4637796 7.98687892,88.9283713 8.17138292,88.3537304 C8.21251438,88.2244939 8.26774806,88.1033347 8.32533212,87.9833294 C8.4111206,87.8690936 8.50160982,87.7606273 8.59679978,87.6521609 C9.16793954,86.9875161 9.13855993,85.9870872 8.46870465,85.3962918" id="Fill-2145" fill="#B670F9"></path>
                <path d="M10.5475,86.339 C10.5055,86.443 10.4715,86.55 10.4525,86.661 C10.5015,86.487 10.5295,86.388 10.5475,86.339" id="Fill-2147" fill="#B670F9"></path>
                <path d="M13.7847447,87.6485039 C13.6358307,87.1386036 13.4834802,86.6433416 13.359767,86.1236825 C13.1753428,85.3588321 12.2761313,84.9233432 11.6002908,85.0111729 C10.9794339,85.0916834 10.4948907,85.5283923 10.2646467,86.1139237 C10.2703742,86.1090442 10.2623557,86.1541789 10.2348639,86.2908029 C10.1604069,86.5616112 10.1008413,86.836079 10.0618945,87.1190859 C10.0240933,87.4813834 10.0046199,87.8388016 10,88.2035388 C9.9943105,89.3428853 10.6369317,90.7262033 11.7526413,90.9628555 C12.5751048,91.1360752 13.4296421,90.6908274 13.8088,89.8906012 C14.1329744,89.2038216 13.9897878,88.3535812 13.7847447,87.6485039" id="Fill-2149" fill="#B670F9"></path>
                <path d="M10.4945,86.5125 C10.4975,86.5045 10.5015,86.4945 10.5055,86.4875 C10.5035,86.4895 10.5015,86.4945 10.4945,86.5125" id="Fill-2151" fill="#B670F9"></path>
                <path d="M93.7587373,84.9814088 C93.3946778,83.9910613 91.9154359,83.5800723 91.2853329,84.5610078 C91.1123046,84.8287258 90.9632802,85.0431094 90.8142558,85.3097816 C90.8022539,85.326514 90.7992534,85.3348802 90.7932524,85.3474295 C90.7792501,85.3652076 90.760247,85.3903062 90.7212406,85.4425949 C90.6422277,85.55763 90.5592141,85.6674362 90.4782009,85.7782882 C90.2001554,86.157904 90.1081404,86.5647098 90.0211261,87.025896 C89.8711016,87.8227754 90.546212,88.6583484 91.2193221,88.8988763 C92.0214532,89.1854182 92.7515726,88.8361299 93.2656567,88.1898419 C93.481692,87.916895 93.5997113,87.5791101 93.7287324,87.2528288 C93.756737,87.1796247 93.7797408,87.1053747 93.8017444,87.0321706 C93.9507687,86.6546464 94.0157794,86.2624813 93.9967763,85.857767 C93.9667714,85.5513553 93.8867583,85.2595845 93.7587373,84.9814088" id="Fill-2153" fill="#B670F9"></path>
                <path d="M99.8658797,88.1809752 C99.2739184,86.8692005 98.6081132,85.6617463 97.7207765,84.4898054 C96.9678114,83.4987607 94.9582904,84.1302326 95.0006599,85.3265889 C95.049082,86.5640076 95.2294547,87.7736814 95.3940902,88.9977825 C95.4860923,89.6936224 95.8904176,90.4460617 96.6433828,90.7368273 L96.9242315,90.8444772 C97.774041,91.1696464 98.7436954,90.9787621 99.3417095,90.3295335 C99.3598678,90.3073376 99.3804472,90.2873614 99.3986055,90.2684949 C99.9046175,89.7135987 100.181835,88.8834739 99.8658797,88.1809752" id="Fill-2155" fill="#B670F9"></path>
                <path d="M103.648289,85.1977975 C103.012989,84.4158233 102.230741,83.8716488 101.437444,83.2754902 C100.307162,82.4282593 98.4476659,83.681409 99.1569924,85.0506934 C99.6597083,86.0206954 100.226507,87.0271969 101.17117,87.6432644 C101.834092,88.0757282 102.635123,88.1553635 103.29915,87.6565369 C104.040518,87.0990899 104.252653,85.9410602 103.648289,85.1977975" id="Fill-2157" fill="#B670F9"></path>
                <path d="M20.8717226,46 C18.208264,46 18.4713526,50 21.1272943,50 C23.7932585,50 23.5276644,46 20.8717226,46" id="Fill-2159" fill="#8B43C9"></path>
                <path d="M30.6612205,55 C28.6856496,55 28.342126,58 30.3387795,58 C32.3143504,58 32.657874,55 30.6612205,55" id="Fill-2161" fill="#8B43C9"></path>
                <path d="M44.6620636,51 C42.6855827,51 42.3421164,54 44.3384366,54 C46.3149175,54 46.6571438,51 44.6620636,51" id="Fill-2163" fill="#8B43C9"></path>
                <path d="M26.7696527,67.176688 C26.3969243,66.4688452 25.7410193,66.1656526 24.982251,66.0217245 C24.1871779,65.8730775 23.361851,66.5113158 23.107718,67.2014625 C22.8802085,67.8243641 23.0290578,68.4189521 23.4042065,68.8707917 C23.6583394,69.5066705 24.349339,69.9596899 25.0330776,69.9974415 C26.0665515,70.0505297 26.911241,69.2707229 26.9935317,68.284462 C27.0249957,67.9258216 26.9402848,67.4987565 26.7696527,67.176688" id="Fill-2165" fill="#8B43C9"></path>
                <path d="M22.6313637,80.0395286 C22.2814812,80.1067763 22.0639867,80.2589105 21.7781968,80.4595512 C20.8977117,81.0835218 20.6739129,82.6169902 21.5806655,83.3489981 C22.1417384,83.8009909 22.1900705,83.8395757 22.8110331,83.9498178 C22.8919369,83.9630469 22.9738914,83.9773783 23.0537444,83.9884026 C23.5139503,84.0633672 24.0792259,83.7624061 24.3986382,83.4460112 C24.7716361,83.0778024 24.9891306,82.556357 24.9996376,82.0205801 C25.0238036,80.6701137 23.8354639,79.8003031 22.6313637,80.0395286" id="Fill-2167" fill="#8B43C9"></path>
                <path d="M81.6733526,88.5749254 C81.1199859,87.9869058 79.9340206,87.8009671 79.1479884,88.2483527 C79.2875877,88.1936093 79.4259294,88.1398098 79.564271,88.0860102 C79.3944881,88.132259 79.236024,88.1973847 79.095167,88.2804437 C78.9694019,88.3540641 78.8511826,88.4380669 78.7304481,88.5164066 C77.9695689,89.0100409 77.7293575,89.8264725 78.3657292,90.4588531 C79.127866,91.2186536 80.5163132,91.1374823 81.3061183,90.4701793 C81.4029575,90.389008 81.5073426,90.3078368 81.5953782,90.2210025 C82.0858623,89.7377505 82.1525178,89.0817736 81.6733526,88.5749254" id="Fill-2169" fill="#8B43C9"></path>
                <path d="M77.6256802,74 C75.6461928,74 75.3717476,78 77.37274,78 C79.3532514,78 79.6297447,74 77.6256802,74" id="Fill-2171" fill="#8B43C9"></path>
                <path d="M86.5413686,75 C83.2065831,75 83.1278697,80 86.4582207,80 C89.7941149,80 89.8717196,75 86.5413686,75" id="Fill-2173" fill="#8B43C9"></path>
                <path d="M83.108389,49 C81.7909707,49 81.5610634,52 82.8917138,52 C84.2107861,52 84.4373853,49 83.108389,49" id="Fill-2175" fill="#8B43C9"></path>
                <path d="M85.41398,38.0589662 C85.3033863,38.0427993 85.1938768,38.0300967 85.083283,38.0139297 C84.0662542,37.8811297 83.1218703,38.7148828 83.0112766,39.7888308 C82.8768293,41.106438 83.9654187,42.1365042 85.1656862,41.9852277 C85.2350784,41.9748346 85.3033863,41.9679059 85.3727784,41.9586677 C86.1946418,41.8478085 86.8657941,41.1607128 86.9828933,40.2830779 C87.1205934,39.2345351 86.4114923,38.1940758 85.41398,38.0589662" id="Fill-2177" fill="#8B43C9"></path>
                <path d="M37.4090497,25.4752991 C37.4100497,25.4752991 37.4120497,25.4772991 37.4140497,25.4772991 C37.5800497,25.5222991 37.7130497,25.5572991 37.4090497,25.4752991" id="Fill-2179" fill="#8B43C9"></path>
                <path d="M37.5598129,26.1032098 C37.4400047,26.0790353 37.3067348,26.0496054 37.24885,26.0390947 C36.0332674,25.7952473 34.9065314,26.7359519 35.0061472,27.6430224 C35.0478782,28.0371724 35.290187,28.4060968 35.6805735,28.661506 C36.2378837,29.0304303 36.8840406,29.0598602 37.5598129,28.9295279 C37.6001977,28.9221705 37.6392364,28.9137619 37.6769289,28.9053534 C38.4792403,28.7287742 39.0284736,28.1086449 38.9988581,27.4664432 C38.9705887,26.7969138 38.367509,26.2755847 37.5598129,26.1032098" id="Fill-2181" fill="#8B43C9"></path>
                <path d="M47.8168152,29 C45.1564777,29 45.5363497,33 48.1831203,33 C50.8446912,33 50.4623525,29 47.8168152,29" id="Fill-2183" fill="#8B43C9"></path>
                <path d="M63.4108112,23 C61.4103116,23 61.5982038,26 63.5887562,26 C65.5903611,26 65.4013636,23 63.4108112,23" id="Fill-2185" fill="#8B43C9"></path>
                <path d="M19.7223341,90 C17.0738987,90 17.6535721,94 20.2768044,94 C22.92734,94 22.3455664,90 19.7223341,90" id="Fill-2187" fill="#8B43C9"></path>
                <path d="M19.977332,36.4750485 C19.8975353,35.6732715 19.2473399,35.0582586 18.6079811,35.0047275 C17.7607568,34.9321631 17.1056356,35.7042006 17.0051509,36.6844146 C16.9933292,36.8069413 17.0051509,36.935416 17.0081063,37.0579427 C17.0337201,38.0405359 17.5154558,38.9196356 18.3932196,38.9957687 C19.1793649,39.0635748 19.9733915,38.3081914 19.9960498,37.3232191 C20.0019607,37.0377199 20.0049161,36.765306 19.977332,36.4750485" id="Fill-2189" fill="#8B43C9"></path>
                <path d="M17.5444233,53.6782783 C17.2062562,53.2837863 16.7094699,53.0379118 16.1895516,53.0040358 C15.5726995,52.9614175 14.7575734,53.2575597 14.4524519,53.8345452 C14.3599241,54.0181315 14.2673962,54.2028105 14.1748684,54.3863968 C13.7860313,55.2879366 14.0437873,56.3359083 14.9668625,56.804709 C15.3942529,57.018893 15.8943438,57.0593257 16.3492723,56.9139866 C16.6004192,56.8309356 16.8130129,56.6921532 17.0024746,56.5216802 C16.9705305,56.5719478 16.9396879,56.6276794 16.9088453,56.6812254 C18.0566309,56.1566931 18.3496357,54.6169724 17.5444233,53.6782783" id="Fill-2191" fill="#8B43C9"></path>
                <path d="M90.5401547,51.6803591 C90.0780991,51.1461497 89.3428087,50.8967781 88.6519468,51.0397512 C87.745607,51.223732 87.2257945,51.9397055 87.0825128,52.8041937 C86.9059099,53.3494862 87.0147595,53.9745777 87.3901796,54.4190132 C87.8333531,54.9421394 88.4742331,55.093979 89.0740168,54.9465727 C89.061799,54.951006 89.0484705,54.9576559 89.0362526,54.9620891 C89.17287,54.9443561 89.307266,54.9255146 89.4394406,54.9055649 C90.9355676,54.6916595 91.4687087,52.7521027 90.5401547,51.6803591" id="Fill-2193" fill="#8B43C9"></path>
                <path d="M85.9550301,94.6187783 C85.9660223,94.5548821 85.975016,94.4897804 85.9760153,94.423473 C85.9840097,94.3547545 86,94.300503 86,94.2209342 C86.001997,92.3414225 84.0683559,91.2515709 82.9211622,92.6006239 C82.7752647,92.7706118 82.6573476,92.9683282 82.5364325,93.1636335 C82.5354332,93.1660447 82.5344339,93.1684559 82.5324353,93.170867 C82.5254403,93.1829229 82.5174459,93.1961844 82.5084522,93.2082403 C81.8309283,94.1124313 81.8149396,95.5036799 82.5544199,96.3729089 C83.2639213,97.2059702 84.5000526,97.2276708 85.1845715,96.3258909 C85.525332,95.8786178 85.7661628,95.436167 85.9160574,94.8538679 C85.9290483,94.8020277 85.9330455,94.7501874 85.9420392,94.6959359 C85.9490343,94.6754409 85.9500336,94.6440956 85.9550301,94.6187783" id="Fill-2195" fill="#8B43C9"></path>
                <path d="M61.807555,12.1401856 C58.0692283,-0.420288031 42.9477927,2.24717553 44.0581197,15.3953194 C44.9450273,25.9140584 64.113966,23.1592839 61.807555,12.1401856 C61.4035945,10.7823873 62.1099611,13.5852949 61.807555,12.1401856" id="Fill-2197" fill="#8B43C9"></path>
                <path d="M86,16.3987982 C85.310815,3.20574962 70.086401,2.27542616 68.0936588,15.2780239 C66.5044526,25.6570172 85.6610751,27.671179 86,16.3987982 C85.9274542,14.9871535 85.9557924,17.8727722 86,16.3987982" id="Fill-2199" fill="#8B43C9"></path>
                <path d="M36.8061431,13.1628604 C33.0350073,0.521100586 17.948185,3.3044803 19.0582141,16.4124447 C19.9425904,26.8778139 39.1219327,24.1913679 36.8061431,13.1628604 C36.4027033,11.8104056 37.1104323,14.605325 36.8061431,13.1628604" id="Fill-2201" fill="#8B43C9"></path>
                <path d="M72.1183559,9.69830688 C72.5727419,9.38092838 73.0237868,9.06354989 73.4804002,8.74394418 C74.5183604,8.20384394 75.6231421,7.95885001 76.7980863,8.00562158 C78.4786462,8.00562158 80.1870485,8.8998494 81.3007397,10.1203646 C82.4578648,11.3865377 83.070395,13.0847911 82.9935503,14.7986349 C82.9133645,16.5124788 82.147145,18.1461428 80.8797644,19.3009551 C80.4264921,19.6205608 79.9743335,19.9379393 79.5210612,20.257545 C78.4797599,20.7976453 77.3749783,21.0437528 76.2000341,20.9936404 C74.5217015,20.9936404 72.8110718,20.0994126 71.6984943,18.8811246 C70.5413692,17.6127242 69.9277254,15.9189253 70.0067974,14.2028543 C70.0847558,12.4890104 70.8509754,10.8553464 72.1183559,9.69830688" id="Fill-2203" fill="#FFFFFF"></path>
                <path d="M46.0290606,11.359423 C46.2009602,9.49413825 47.1357342,7.74009641 48.5918245,6.56137131 C49.0996585,6.24786863 49.6097395,5.93661329 50.11645,5.62311062 C51.2399765,5.11970847 52.4163087,4.92194335 53.6398291,5.0275679 C54.2510275,5.17027342 54.8588553,5.31073161 55.4689302,5.45118979 C56.6497566,5.90402699 57.6395834,6.61418358 58.4372872,7.59289623 C59.5776666,9.00197276 60.1383063,10.8369185 59.9709009,12.6437726 C59.7990013,14.50681 58.8619802,16.2597282 57.4058899,17.4384533 C56.8980559,17.751956 56.3913455,18.0665823 55.8835115,18.3778377 C54.759985,18.8823635 53.5847763,19.0778813 52.3590089,18.9722567 C51.7478105,18.8295512 51.1399826,18.6913403 50.5287842,18.5486348 C49.3479579,18.0969213 48.3603781,17.385641 47.5615507,16.4091757 C46.4234184,14.9978519 45.8616552,13.1629061 46.0290606,11.359423" id="Fill-2205" fill="#FFFFFF"></path>
                <path d="M22.5822855,11.0715193 C23.2850594,9.42615833 24.5787282,8.11522978 26.1526376,7.46151341 C27.2638242,7.0023971 28.4608209,6.8905312 29.6056798,7.10494084 C29.6024212,7.10027976 29.5980764,7.09561869 29.5937315,7.09095761 C29.6252315,7.10027976 29.65999,7.11193246 29.6914899,7.12008935 C30.1976609,7.2226331 30.6918837,7.3846056 31.1632962,7.60717214 C31.1774168,7.61416376 31.1926237,7.6164943 31.2056581,7.62348592 C31.2512787,7.64679131 31.2936406,7.67592306 31.3392612,7.69806318 C31.5369503,7.80293747 31.7335532,7.91247283 31.9236389,8.03948724 C31.9475354,8.05580102 31.9692594,8.0721148 31.9909835,8.08493277 C32.2060519,8.23059149 32.4135168,8.39023346 32.6122921,8.56385866 C33.0413427,8.94140609 33.4236864,9.37139065 33.7614958,9.86546506 C33.8766334,10.0355945 33.9852538,10.2162113 34.0840984,10.3956628 C34.5739763,11.2766068 34.8737686,12.2344586 34.9736994,13.272714 C34.971527,13.272714 34.9671821,13.2680529 34.9660959,13.2657224 C35.0812336,14.4857599 34.9041823,15.7372597 34.4186492,16.874563 C33.9407195,17.9792388 33.2444628,18.8963062 32.3309653,19.6152777 C31.3805369,20.3528935 30.3204019,20.7875391 29.1516466,20.9168841 C28.2609594,21.0881787 27.3865653,20.9949571 26.5306366,20.6348888 C26.3057924,20.5638073 26.0939826,20.4624288 25.8865177,20.3482324 C24.8720033,19.9613628 23.8607475,18.9918583 23.2383526,18.079452 C21.8697357,16.0647005 21.6123054,13.3379691 22.5822855,11.0715193" id="Fill-2207" fill="#FFFFFF"></path>
                <path d="M75.3311522,10 C76.2882689,10 77.1711366,10.2693647 77.8857838,10.9346492 C78.5493847,11.5511693 78.9531139,12.4219605 78.9960392,13.3310665 C79.0876903,15.1655333 77.5771861,17 75.6699135,17 C74.7127968,17 73.828769,16.7283132 73.1141218,16.0641897 C72.451681,15.4465085 72.0479518,14.5757174 72.0038664,13.6689335 C71.9133754,11.8321446 73.4227195,10 75.3311522,10" id="Fill-2209" fill="#1E2D6A"></path>
                <path d="M53.4721085,7.03216035 C54.5025996,6.90374546 55.5671878,7.16297553 56.3994104,7.75464416 C57.5789186,8.59114119 58.1118441,9.91729502 57.980507,11.2842536 C57.9741928,11.3574621 57.9666156,11.4318707 57.9603013,11.5050792 C57.8895814,12.1651558 57.6521643,12.7676256 57.2518387,13.313689 C56.826256,13.8789546 56.2832276,14.3038038 55.6164392,14.5870367 C55.3057765,14.6926489 54.9951137,14.7958609 54.6869766,14.9014732 C53.8699083,15.1751049 52.9050858,14.830665 52.2054631,14.4562215 C50.2543495,13.4060997 50.1710009,12.6020064 50.0245095,11.3118568 C49.7896182,9.25241789 51.2658977,7.30819237 53.4721085,7.03216035" id="Fill-2211" fill="#1E2D6A"></path>
                <path d="M28.5235,15.5535 C28.5055,15.5165 28.4905,15.4835 28.4765,15.4465 C28.4905,15.4815 28.5045,15.5165 28.5235,15.5535" id="Fill-2213" fill="#1E2D6A"></path>
                <path d="M28.4855,14.4035 C28.4905,14.4675 28.5035,14.5325 28.5145,14.5965 C28.5005,14.5305 28.4885,14.4645 28.4855,14.4035" id="Fill-2215" fill="#1E2D6A"></path>
                <path d="M28.4225,15.2635 C28.4545,15.4195 28.5115,15.5815 28.5775,15.7365 C28.5045,15.5815 28.4525,15.4235 28.4225,15.2635" id="Fill-2217" fill="#1E2D6A"></path>
                <path d="M28.5395652,15.5474773 C28.5605652,15.5844773 28.5815652,15.6214773 28.6025652,15.6584773 C28.7845652,15.9694773 28.5405652,15.6604773 28.3335652,15.2154773 C28.3915652,15.3304773 28.4645652,15.4404773 28.5395652,15.5474773" id="Fill-2219" fill="#1E2D6A"></path>
                <path d="M28.5,15.501 L28.5,15.499 L28.5,15.501 Z" id="Fill-2221" fill="#1E2D6A"></path>
                <path d="M28.0311443,15.069092 C28.0211781,14.7577552 28.0099662,14.4464184 28,14.1350815 C28.0647802,13.5099369 28.2815448,12.9428591 28.6552767,12.4313772 C29.1909592,11.7024536 30.005695,11.1983845 30.9076348,11.0488934 C31.8344901,10.8919895 32.8061933,11.1168439 33.5636234,11.6641543 L34.2176544,12.2794152 C34.6063356,12.7525977 34.8567361,13.2949663 34.9601353,13.899108 C34.9626268,13.9114626 34.9676099,13.9225818 34.972593,13.9349364 C34.9800676,14.2438023 34.9900338,14.5576101 35,14.8714178 C34.9327282,15.4965624 34.7147179,16.0636402 34.3397402,16.5726512 C33.8028119,17.2991039 32.9830931,17.8081149 32.0848905,17.9526641 C31.1567895,18.1070971 30.1838405,17.8797718 29.4239188,17.3275195 C29.1211959,17.1051361 28.8222104,16.801212 28.576793,16.4589886 C28.5518776,16.4132764 28.5244705,16.3650934 28.4983093,16.3218521 C28.2778074,15.9302102 28.0610429,15.5348618 28.0311443,15.069092" id="Fill-2223" fill="#1E2D6A"></path>
            </g>
        </g>
    </g>
</svg>