<?xml version="1.0" encoding="UTF-8"?>
<svg width="127px" height="144px" viewBox="0 0 127 144" version="1.1" xmlns="http://www.w3.org/2000/svg" xmlns:xlink="http://www.w3.org/1999/xlink">
    <title>Group 22</title>
    <defs>
        <ellipse id="path-1" cx="33" cy="28.5" rx="33" ry="28.5"></ellipse>
        <ellipse id="path-3" cx="51" cy="34" rx="51" ry="34"></ellipse>
    </defs>
    <g id="Student-Environmrnt---New-Treatment" stroke="none" stroke-width="1" fill="none" fill-rule="evenodd">
        <g id="Group-22">
            <g id="Group-20-Copy-2" transform="translate(1.000000, 5.000000)">
                <path d="M29.93385,105.610622 C26.9943997,110.794382 22.687737,118.717999 22.133829,125.690008 C27.0612312,128.945509 29.3822075,130.425283 34.222389,132.58689 C35.5239028,133.168555 36.8401421,133.724039 38.1631779,134.262449 C38.386327,133.964218 38.6253343,133.678507 38.8303595,133.370032 C42.545734,131.19818 43.3714987,123.725324 44.159883,119.988327 C44.3377226,119.148272 44.5019693,118.345779 44.6526232,117.558084 C45.1872747,115.673081 45.6188471,113.67994 45.4387421,111.903074 C45.4126892,111.650374 45.3753089,111.396536 45.3333976,111.139283 C45.366247,110.846743 45.3775743,110.557618 45.3945654,110.266217 C48.5854831,110.959434 51.6268796,112.061296 54.6830016,113.142668 C54.6365594,113.272433 54.5844536,113.40106 54.5391441,113.531963 C54.282013,113.982724 54.0441385,114.451699 53.8323168,114.944577 C52.9125351,115.182479 52.2804683,115.843824 52.4934227,117.213183 C52.5636523,117.671913 52.633882,118.137473 52.7052444,118.607585 C52.5036173,119.575129 52.3518307,120.567716 52.2589463,121.588759 C51.036724,126.890901 50.6391337,133.350681 52.7822704,138.386463 C53.4154699,138.470696 54.0452712,138.569727 54.6796034,138.63461 C55.389829,138.697216 61.3774721,138.870235 59.3170251,139 C63.7822709,138.72112 68.2520477,138.326134 72.6867096,137.702353 C73.595164,135.605628 73.9984181,133.086598 74.273673,131.352987 C74.8978106,127.428173 74.2838676,121.420293 72.1520582,116.573466 C74.0992316,116.631519 76.0498032,116.615583 77.9969766,116.518828 C78.0286932,116.51769 78.0615426,116.511998 78.0955247,116.509722 C78.1612234,119.140304 78.5984595,121.851704 78.7502461,123.439614 C78.986988,125.930187 80.0155124,128.305792 81.4495563,130.452602 C82.335356,132.226053 83.455632,133.859495 84.7662077,135.290322 C90.332473,133.802581 95.6438727,131.806025 100.505576,129.152678 C100.23825,126.815774 99.4215477,124.487977 98.403218,122.300189 C98.0520698,121.544366 97.6556121,120.779437 97.2421634,120.014508 C96.9487848,119.105017 96.621424,118.211461 96.2680104,117.340671 C95.8024558,116.191001 95.1386724,115.31452 94.4137213,114.329902 C93.5800275,113.197306 92.9219078,110.910487 93.3772678,113.471633 C93.1813044,112.37091 91.5841465,110.648681 90.032298,109.743743 C88.78289,107.975983 86.6646735,106.393764 85.0743119,106.589549 C84.9678347,106.603209 84.8692867,106.614591 84.7628095,106.628251 C83.9211866,106.451816 83.0931565,106.48938 82.459957,106.907131 C75.8606363,107.698241 69.8639312,108.26397 63.1660625,107.763123 C61.5258606,106.929897 60.1688427,106.839972 59.0361066,107.26 C52.7437574,106.104639 47.0200417,102.791085 40.6812504,101.4388 C39.2902504,100.597605 37.7633221,100.232215 36.4108352,100.974378 C35.2044712,101.635723 34.1136463,102.608959 33.1292986,103.773427 C32.4972318,103.578779 31.8957489,103.554875 31.3826195,103.799607 C30.6621993,103.93734 30.1343443,104.448431 29.9587702,105.478581 C29.9531065,105.519559 29.9417791,105.568505 29.93385,105.610622" id="Fill-1" fill="#6E2FC9"></path>
                <path d="M118.967447,46.2011617 C113.498508,19.1532388 79.2529054,-0.750935196 54.9038587,2.77779521 C42.33529,4.59892892 27.2128082,9.91927341 18.3939155,19.3360334 C9.23207855,29.1195179 3.72793577,43.2151382 0.519930128,55.9006288 C-0.134162349,58.4938142 2.40725946,59.7904069 5.39723428,59.9516295 C6.59186151,61.2584405 8.37585332,62.1440292 10.944529,62.3881338 C13.2497507,62.6083956 15.4788888,62.5073477 17.7761615,62.2587016 C21.1999268,61.8897063 24.723623,63.072762 28.0849315,63.4826306 C35.6853498,64.4079573 43.2971239,64.747433 50.9418298,65.0619305 C63.3570955,65.5751178 75.6077025,65.0721488 87.9423423,64.8064722 C89.917111,65.5751178 92.3222636,65.7147683 95.2293413,65.0062974 C95.6392846,64.9075202 96.0265165,64.7951185 96.4080704,64.6781754 C96.6783378,64.67704 96.946334,64.6724986 97.2143302,64.6713632 C103.256737,64.6395728 115.485768,66.0224537 119.303578,60.7543362 C122.370772,56.5205409 119.954264,51.0843887 118.967447,46.2011617" id="Fill-3" fill="#35338E"></path>
                <path d="M89.2085803,73.0745061 C88.3578789,71.3322923 86.4337551,69.7338479 84.8414165,68.7489707 C82.4351138,67.2716549 78.8853581,69.8096948 79.9151546,72.5741432 C80.3755207,73.8114659 80.9805405,74.7680421 81.753175,75.8015971 C81.7876163,75.8491429 81.8209096,75.8978208 81.856499,75.9442345 C81.8404264,75.93065 81.8909404,76.008761 82.0068929,76.1808315 C82.314569,76.6596856 82.6096167,77.1294833 82.999952,77.5573955 C84.1709581,78.8298115 86.1697048,79.1026339 87.6736439,78.2898271 C89.5931755,77.2483478 90.1281645,74.9593573 89.2085803,73.0745061" id="Fill-5" fill="#E59900"></path>
                <path d="M51.7812537,74.1844801 C51.4038206,71.8220036 48.641645,70.7284951 46.8394869,72.5385573 C45.1903422,74.193536 44.1226485,76.5209206 43.4777253,78.7260496 C43.0175516,80.3063165 44.2405255,82.0869468 45.6618502,82.7129409 C47.460608,83.5019423 49.9586938,82.7355808 50.6965586,80.8406188 C51.4922284,78.7996293 52.1258173,76.3398012 51.7812537,74.1844801" id="Fill-7" fill="#E59900"></path>
                <path d="M54.2379182,72.7751603 C47.6589847,75.8170951 40.325576,76.4574432 33.5671138,75.4828536 C32.4660798,75.2138849 31.4070874,74.8042422 30.4128617,74.2460477 C29.418636,73.6923548 28.4880408,72.9889848 27.6517549,72.137063 C25.8837376,70.3308087 26.0234973,67.116689 27.6972052,65.3712059 C28.4755419,64.5597982 29.6833841,64.0691272 30.8775912,64.0443686 C32.7171928,64.5327888 34.2386422,65.5760272 35.849856,66.5528675 C40.1460472,68.5121751 44.4865526,69.8390124 49.2202032,70.4208401 C51.6097536,71.1613481 53.60275,72.0245238 54.2379182,72.7751603" id="Fill-33" fill="#FFB000"></path>
                <path d="M28.4515964,69.7593888 C29.5950114,67.9668763 31.0332215,66.3121596 31.5762082,64.1926742 C31.432062,64.1412927 31.2879159,64.0887435 31.1405183,64.0443686 C30.0014385,64.0700593 28.8504368,64.5792029 28.1069461,65.4211583 C26.7207587,66.9952996 26.4389692,69.7185172 27.4967635,71.6348123 C27.7492903,70.992544 28.0657615,70.3666243 28.4515964,69.7593888" id="Fill-35" fill="#FFD41D"></path>
                <path d="M35.7683532,66.5023439 C35.2031347,66.1566684 34.6469597,65.804215 34.0873933,65.4675768 C32.7071297,68.2928524 30.5423428,70.8255465 29.6877323,73.8180116 C29.909298,73.9592189 30.1319941,74.0992965 30.3592119,74.2246886 C31.3099095,74.7635357 32.3205202,75.1611754 33.3706962,75.4300341 C33.9980888,73.9117733 34.1043499,72.2240636 34.4819159,70.6233377 C34.7260903,69.6021265 35.2268739,68.7706979 35.7977446,67.9460473 C36.0893974,67.5246847 36.2329629,67.1259153 36.2973978,66.7350535 C36.1210496,66.6548478 35.943571,66.5836793 35.7683532,66.5023439" id="Fill-37" fill="#FFD41D"></path>
                <path d="M39.2042848,67.8395904 C38.9005275,68.93513 38.493163,70.0090993 38.0846212,71.0762569 C38.0457685,71.3101234 38.0092705,71.5417193 37.9869008,71.7812621 C37.8550371,73.1413205 37.7820412,74.5025142 37.7137546,75.8648431 C38.9440896,75.9170657 40.1803113,75.9193362 41.4224198,75.8614373 C41.5448646,75.2359012 41.6084417,74.6092299 41.5625249,73.9893703 C41.4400801,72.2149368 42.1099945,70.5563014 42.4349442,68.8931248 C41.3458918,68.5809244 40.2733223,68.2301247 39.2042848,67.8395904" id="Fill-39" fill="#FFD41D"></path>
                <path d="M63.3472109,78.8890566 C62.3922581,76.6534812 60.9459326,74.565344 59.9554053,72.2794796 C59.3195113,70.8119546 57.6408399,68.4175116 56.3145783,68.8369677 C54.5736515,69.3844322 53.3618954,73.2383997 53.891066,75.1459536 C54.7604176,78.2775879 56.1778389,84.026537 59.7475169,84.4231345 C62.4689656,84.7271545 64.5089405,81.6000919 63.3472109,78.8890566" id="Fill-41" fill="#E59900"></path>
                <path d="M79.2275127,71.4474304 C79.0928936,70.8356394 79.0883686,70.3534845 78.8462806,69.7291848 C77.2828899,65.6786283 72.7816369,67.2615521 72.7352556,71.2472906 C72.203567,72.8552319 71.728441,74.4927393 71.369834,76.1836932 C70.7849766,78.9356153 72.1492669,81.943398 74.3518151,82.7883064 C75.4185861,83.1988204 76.570201,83.0612243 77.5249779,82.4050841 C78.9209433,81.4487343 79.4096443,79.8601247 79.6019572,77.954248 C79.6596511,77.3640631 79.6981136,76.7704666 79.7218699,76.1711844 C79.7829576,74.5382256 79.5714134,73.0326285 79.2275127,71.4474304" id="Fill-43" fill="#E59900"></path>
                <path d="M47.5265472,70.7211412 C47.1187,69.2493812 46.7840561,67.7522858 46.4482502,66.2540387 C46.1449791,64.8951367 44.9098177,64.2214438 44.0278915,64.6440854 C43.0100163,65.1312172 42.7323083,66.5315772 43.0065304,67.8973889 C43.2714568,69.2217425 43.5061724,70.5553091 43.7583173,71.8808143 C44.0325394,73.329542 45.1619626,74.2577412 46.1775139,73.946806 C47.1279956,73.6554482 47.9158032,72.1261076 47.5265472,70.7211412" id="Fill-53" fill="#FFD41D"></path>
                <path d="M64.6968311,69.8570687 C64.8734911,70.3670256 65.0868164,70.8658481 65.2590321,71.3802587 C65.6479064,72.5504873 66.6978669,73.3187629 67.8456015,72.9758225 C69.1555522,72.5838906 69.7499742,70.8992513 69.0477784,69.6232457 C68.4855774,68.6066723 67.9111546,67.6123677 67.2522905,66.6659411 C66.7767528,65.9822872 65.8712313,65.7618254 65.1668134,66.0947449 C64.2490702,66.5289877 63.9524147,67.6246155 64.2835133,68.6088991 C64.4101752,69.0297806 64.5501699,69.4428679 64.6968311,69.8570687" id="Fill-57" fill="#FFD41D"></path>
                <path d="M59.4570859,82.0800216 C59.0451567,81.9910729 58.8097686,82.6347807 59.0651425,82.967168 C59.2072636,83.1509174 59.3482744,83.3299852 59.4748511,83.5266087 C59.5925451,83.7080172 59.6547231,83.9268779 59.7724171,84.1071161 C59.9334137,84.3470435 60.155478,84.5050445 60.4297273,84.4207773 C60.7494998,84.3248063 60.8971726,83.9666707 60.8327739,83.6097055 C60.6928735,82.8513006 60.1143961,82.2251485 59.4570859,82.0800216" id="Fill-67" fill="#C17B00"></path>
                <path d="M61.6656652,80.7533061 C61.2228209,80.4386739 60.6231619,80.886855 60.9330275,81.374648 C61.1337502,81.694939 61.3244367,82.0276794 61.5201413,82.3491022 C61.7359181,82.7101369 61.7735536,83.2092476 62.1950712,83.4061756 C62.4986642,83.5476469 62.8976005,83.5431198 63.0795054,83.2205653 C63.6114204,82.281196 62.36694,81.2467579 61.6656652,80.7533061" id="Fill-69" fill="#C17B00"></path>
                <path d="M64.1051685,80.2734282 C64.0930474,80.2399283 64.0688053,80.2131284 64.0526439,80.1807453 C64.0304219,80.1293788 64.0041596,80.0802457 63.9677965,80.0322292 C63.8950701,79.933963 63.8172933,79.8468634 63.7364862,79.7631138 C63.4405302,79.4627318 63.1082111,79.2874159 62.7284178,79.2293495 C62.3264025,79.1645831 62.0718602,79.8859466 62.4476132,80.1483621 C62.7516498,80.3616445 62.9829601,80.61736 63.2243713,80.9233253 C63.6243663,81.4258231 64.1980966,80.8853588 64.1011281,80.3381946 C64.167794,80.4878272 64.1698142,80.4677273 64.1051685,80.2734282" id="Fill-71" fill="#C17B00"></path>
                <path d="M72.5477538,77.8175795 C72.1503435,77.9400563 71.9173789,78.2957717 71.7002263,78.6589422 C71.4430165,79.0924037 71.2458926,79.4736794 71.2342971,80.0147076 C71.225864,80.4758595 71.7729619,80.8763056 72.1134487,80.4982249 C72.4307444,80.1425095 72.6247059,79.7569737 72.8429126,79.3245772 C73.0147372,78.981642 73.1802369,78.6088864 73.1032848,78.2031153 C73.059011,77.9411213 72.7838808,77.7440934 72.5477538,77.8175795" id="Fill-73" fill="#C17B00"></path>
                <path d="M73.6272117,79.8746486 C73.0365725,80.534724 72.4313752,81.6046658 72.7287746,82.6340976 C72.8587568,83.0832825 73.3682871,83.147622 73.5908166,82.7913719 C73.8008679,82.4541853 73.8518209,82.0693399 74.0005206,81.6940262 C74.1346623,81.3532652 74.3124779,81.044674 74.4632573,80.7170192 C74.7689755,80.0533693 74.0805897,79.3694644 73.6272117,79.8746486" id="Fill-75" fill="#C17B00"></path>
                <path d="M76.2650774,81.4079776 C75.8776616,80.8572935 75.0455272,81.1730332 75.0405444,81.7715567 C75.0355615,81.9884285 74.9857331,82.2956634 75.0280873,82.5614376 C75.1127956,83.1004277 75.8166218,83.1440147 76.1442436,82.8006344 C76.4481968,82.4817054 76.5366423,81.7938818 76.2650774,81.4079776" id="Fill-77" fill="#C17B00"></path>
                <path d="M43.7066238,78.2828838 C43.1442311,78.2482965 42.7640047,78.3508657 42.3312069,78.6466464 C42.0341168,78.8482067 41.9742098,79.1547215 41.9632064,79.5053648 C41.9497579,79.8691275 42.2945291,80.1923395 42.6295195,80.1732569 C43.0989951,80.1529816 43.1381181,80.0205958 43.420537,79.8190356 C43.5953678,79.6926131 43.7970956,79.6186679 43.9927105,79.5339888 C44.6003391,79.2739879 44.2910231,78.3174711 43.7066238,78.2828838" id="Fill-79" fill="#C17B00"></path>
                <path d="M44.9560041,80.2228397 C44.6214893,80.3994383 44.3482842,80.5102453 44.0471133,80.739939 C43.8556546,80.8853732 43.6803301,81.0781313 43.5383496,81.2858944 C43.0059224,82.063852 43.9298718,82.988398 44.5375917,82.3108593 C44.8893163,81.9138008 45.2819141,81.5744544 45.6185801,81.1589281 C45.9982706,80.6822271 45.4045337,79.9827578 44.9560041,80.2228397" id="Fill-81" fill="#C17B00"></path>
                <path d="M46.5713705,80.7934684 C46.1774482,81.1213149 45.9343633,81.5050444 45.7797862,82.006749 C45.5092763,82.8685881 46.6835635,83.4187245 47.1098971,82.663684 C47.3118446,82.307275 47.4676683,81.9297548 47.5923272,81.5311231 C47.8017543,80.8580442 47.0475677,80.401046 46.5713705,80.7934684" id="Fill-83" fill="#C17B00"></path>
                <path d="M88.994482,76.5463876 C88.881121,76.4112872 88.7687906,76.2574228 88.645124,76.1360825 C88.418402,75.9159188 88.2102299,75.6882495 87.9639274,75.5056137 C87.5104833,75.1678626 87.0869254,76.0435137 87.3868168,76.5263727 C87.5949888,76.8678767 87.8083136,77.2781818 88.0886245,77.524615 C88.2947354,77.7047489 88.5472213,77.8748755 88.7966155,77.7697973 C88.9810848,77.6922396 89.1222708,77.488338 89.163493,77.238152 C89.2026541,76.9892169 89.1377291,76.7227688 88.994482,76.5463876" id="Fill-85" fill="#C17B00"></path>
                <path d="M89.719584,74.355552 C89.4384088,74.2125448 89.158372,74.0749546 88.8487378,74.0153683 C88.4981226,73.9481982 88.1884884,74.2883819 88.2351612,74.6415663 C88.2590668,74.8409096 88.3877016,75.015335 88.5641476,75.096589 C88.5869148,75.1063395 88.7349017,75.1247571 88.8703667,75.1225903 C88.7952348,75.1507584 88.720103,75.1789265 88.6415561,75.2070946 C88.7371784,75.2731812 88.8350775,75.3403512 88.9329765,75.4021043 C89.0866553,75.5061095 89.2426107,75.6133649 89.4053964,75.7065362 C89.6774647,75.8603773 89.96547,75.9968841 90.2659973,75.8235421 C90.5004997,75.6870353 90.6109207,75.4909421 90.5881535,75.2049278 C90.5483108,74.7369044 90.0519854,74.5299774 89.719584,74.355552" id="Fill-87" fill="#C17B00"></path>
                <path d="M89.9504824,72.1093418 C89.6818008,71.8453955 89.406374,71.6694313 89.0387637,71.6404616 C88.6902645,71.6147107 88.3901056,71.6769419 88.0730838,71.8282283 C87.532348,72.083591 87.7279572,73.0267163 88.3586282,72.9108374 C88.7498466,72.8389496 89.123078,72.9623391 89.5086754,73.0460294 C90.0302999,73.1565435 90.3248379,72.4762916 89.9504824,72.1093418" id="Fill-89" fill="#C17B00"></path>
                <path d="M114.369425,65.2870404 C99.4157579,67.8531213 84.4779365,66.6531145 69.4382509,65.6828721 C55.0753964,64.7547152 40.5280545,64.5249508 26.1369044,64.0984082 C16.9329065,63.8265583 7.89075959,63.5808697 7.5093347,52.2018481 C7.21958759,43.4855904 11.2104012,33.3259123 16.9883659,27.4714717 C31.902419,12.3604859 52.9883118,-1.12167544 75.135856,6.34111548 C87.3505074,10.4563994 98.4820025,18.4037428 106.419489,28.3074953 C112.544924,35.9522778 118.706577,46.7489264 118.848055,57.0212118 C118.85145,57.2407391 118.840132,57.4511669 118.82655,57.6604571 C119.763701,60.9488169 118.707709,64.5420125 114.369425,65.2870404 M110.937733,25.0760079 C81.6981752,-9.96873957 30.2318459,-9.20664996 7.94395535,33.2189922 C4.86765602,39.8309727 2.3063369,46.6761298 1.44954566,53.0879195 C-0.579815896,68.2648772 2.88130381,84.2835457 12.0705879,96.625985 C24.1562113,112.793659 47.9686695,122.877128 65.3795277,122.870311 C86.5321982,122.863479 104.415027,111.908725 115.024751,93.6708973 C115.874752,94.2054974 122.302384,76.0996133 122.850187,73.7132491 C124.653183,65.8512142 125.291532,57.7901261 123.588136,49.8609819 C121.520293,40.7329683 116.85378,32.2032519 110.937733,25.0760079 Z" id="Fill-91" fill="#AC3AE8"></path>
                <path d="M123.582997,49.9393684 C121.504477,40.8104895 116.813871,32.2821648 110.86728,25.1539958 C98.691955,10.6383277 82.681551,2.28630207 66.5130112,0.47440273 C66.6973134,1.86545916 66.8645506,3.25196593 67.0192735,4.62709857 C69.6188452,4.95581101 72.2434457,5.53475436 74.8805605,6.41966189 C87.1582752,10.5359605 98.3472415,18.483067 106.325708,28.3865243 C112.482768,36.0299415 118.676234,46.8262683 118.818442,57.0993849 C118.821855,57.3177682 118.810479,57.5293271 118.795689,57.7374737 C119.738816,61.0268729 118.677372,64.618824 114.316689,65.3649671 C99.963868,67.8138179 85.6281115,66.8310928 71.2024793,65.8915895 C70.7280717,80.8064897 69.1239596,95.6417709 68.3150775,110.538473 C68.0943699,114.644534 67.8372569,118.773345 67.3935663,122.870307 C87.6349582,122.094591 104.702256,111.316463 114.975399,93.7468404 C115.829788,94.2825621 122.290606,76.1772177 122.841237,73.7909246 C124.653542,65.9291241 125.295187,57.8682763 123.582997,49.9393684" id="Fill-93" fill="#8A3CE5"></path>
                <path d="M69.8101326,100.978664 C70.0554528,93.2968758 71.132525,85.6604682 71.2342007,77.9843526 C71.2458395,77.0948943 68.8825889,77.1141811 68.8931026,78.0104464 C69.103377,92.7806724 67.3359039,107.979744 66.0427163,122.689841 C65.9913159,123.265039 67.0403515,123.350128 67.4013226,123.34471 C67.7038841,123.341052 67.9655589,123.294536 68.2038698,123.196968 C68.7622652,123.073306 69.2482327,122.781737 69.2715965,122.335873 C69.3066423,121.726639 69.3229969,121.103792 69.3148196,120.492289 C69.3089786,120.008987 69.0648267,119.502994 69.1851504,119.025364 C69.2482327,118.772367 69.0823496,118.62715 68.8370294,118.548868 C70.7960859,113.345991 69.6512586,105.953504 69.8101326,100.978664" id="Fill-107" fill="#8A30C4"></path>
                <path d="M78.1207144,81.6409085 C77.6001908,80.6829829 75.5088012,81.193646 75.1393223,82.0397559 C74.8767367,82.6403326 74.1865782,83.8852899 74.7617103,84.4512845 C75.4634877,85.1452329 77.3178532,85.0841378 77.8476719,84.1423506 C78.2380646,83.4472494 78.5238879,82.3809664 78.1207144,81.6409085" id="Fill-109" fill="#8A30C4"></path>
                <path d="M77.3434941,91.7843271 C77.3209206,91.4273068 77.092929,91.1339588 77.0726129,90.7985417 C77.013922,89.8741546 75.0917948,89.9980884 74.7678661,90.6768819 C74.3829892,91.4830201 73.7170732,92.5529441 74.2904382,93.4341249 C74.8739612,94.3278127 76.8920255,93.917353 77.250943,92.996377 C77.415729,92.5756843 77.3739682,92.226623 77.3434941,91.7843271" id="Fill-111" fill="#8A30C4"></path>
                <path d="M76.4825134,99.4810405 C76.0339604,98.9369474 74.7175548,99.1164067 74.3177576,99.6387818 C73.8811226,100.206879 73.7001846,100.842416 73.6070069,101.552252 C73.5289977,102.140924 73.8345338,102.713594 74.2440822,103.086229 C74.6384622,103.445148 75.6634166,103.605175 76.0317935,103.096516 C76.7219584,102.140924 77.3373645,100.523505 76.4825134,99.4810405" id="Fill-113" fill="#8A30C4"></path>
                <path d="M75.2741874,109.595 C74.8939354,108.885305 73.3620002,109.052354 72.883407,109.496047 C72.2551169,110.082317 71.9579084,111.237834 72.3654775,112.00605 C72.6113301,112.467831 73.4734534,112.466767 73.9017833,112.40399 C74.4306397,112.327381 75.0294275,112.096491 75.2512412,111.584701 C75.513484,110.973959 75.5954349,110.196166 75.2741874,109.595" id="Fill-115" fill="#8A30C4"></path>
                <path d="M74.5201733,117.639631 C74.7673904,116.300917 72.5112656,116.609944 72.0232805,117.254555 C71.7588657,117.605831 71.5729154,118.002979 71.4804777,118.449619 C71.4063126,118.799689 71.1515715,119.403257 71.2612069,119.749705 C71.6051611,120.832506 73.2615157,120.58625 73.8881574,119.980268 C74.2374859,119.641062 74.4567567,119.289786 74.4933018,118.764682 C74.5180236,118.409784 74.4567567,117.983665 74.5201733,117.639631" id="Fill-117" fill="#8A30C4"></path>
                <g id="Group-9" transform="translate(29.000000, 5.000000)">
                    <mask id="mask-2" fill="white">
                        <use xlink:href="#path-1"></use>
                    </mask>
                    <g id="Mask"></g>
                </g>
            </g>
            <g id="Group-7" transform="translate(14.000000, 0.000000)">
                <mask id="mask-4" fill="white">
                    <use xlink:href="#path-3"></use>
                </mask>
                <g id="Mask"></g>
                <g mask="url(#mask-4)">
                    <g transform="translate(14.000000, 22.000000)">
                        <g>
                            <path d="M26.5947905,76.2940544 C23.8597827,75.9022013 20.8906943,76.1537801 18.4098721,77 C17.1762823,72.437274 18.8414131,66.2613938 21.8751248,63.6259144 C22.6585046,62.9466515 23.4691698,62.8696531 24.1735654,63.15935 C25.3353513,63.1387662 26.4605173,63.8180292 26.84754,65.3503733 C27.4334592,67.6694731 26.1395542,69.9283465 26.1697118,72.2123777 C26.1883808,73.6082593 26.4863667,74.9614487 26.5947905,76.2940544" id="Fill-2095" fill="#B670F9"></path>
                            <path d="M17.3333855,79.0169002 C17.3103455,78.9773666 17.2855332,78.9395153 17.2651516,78.8999818 C17.1215947,78.64764 17.0320931,78.3725875 17.0063946,78.0807121 C16.9833546,77.8191178 17.0250039,77.5928514 17.0923516,77.367426 C17.0870347,77.3842488 17.0817177,77.3985482 17.0746285,77.415371 C17.08349,77.3876134 17.0941239,77.3640615 17.1029854,77.3363039 C17.1286839,77.2505077 17.1570408,77.1638703 17.1898285,77.0763919 C17.1933732,77.0705039 17.1951455,77.0637748 17.1986901,77.0570457 C17.2031209,77.0435874 17.2367947,77.0242412 17.2421116,77.0124653 C17.2438839,77.0074184 17.278444,76.9931191 17.278444,76.9880722 L17.278444,76.9897545 C17.2678101,76.9535855 17.3112317,76.902276 17.3280686,76.8568545 C17.3121178,76.902276 17.2686963,76.9586324 17.2793301,76.9981659 C17.2793301,76.9998482 17.2793301,76.9998482 17.2811024,76.9998482 C17.2235024,76.7988159 17.4831456,76.5506798 17.6426533,76.3210488 C17.8269734,76.0813241 17.9909119,75.8971146 18.2806843,75.6750538 C18.359552,75.6161741 18.4304444,75.5623412 18.5084259,75.500938 C19.0197369,75.1215842 19.6781494,74.9735437 20.3099773,75.0038247 C21.1660022,75.0441994 21.7251655,75.6986057 21.923664,76.4278735 C22.2541995,77.6307026 21.4655223,78.9992362 20.440242,79.6460723 C19.6178909,80.1684198 18.5048813,80.1095401 17.756081,79.4896204 C17.6010041,79.3617673 17.4787148,79.2187736 17.3768071,79.0724153 L17.3768071,79.082509 C17.3617424,79.0614805 17.3493363,79.0379286 17.3333855,79.0169002" id="Fill-2097" fill="#B670F9"></path>
                            <path d="M17.6975,76.214 C17.6465,76.286 17.6035,76.357 17.5565,76.427 C17.4755,76.536 17.3915,76.653 17.3025,76.786 C17.4335,76.597 17.5665,76.403 17.6975,76.214" id="Fill-2099" fill="#8B43C9"></path>
                            <path d="M22.0831496,77.6244108 C21.9829664,77.1225428 21.9304895,76.4440354 22.1809475,75.9944768 C22.6683466,75.1188611 23.6765394,74.6677864 24.6203286,75.2864032 C25.5243626,75.8815186 26.1326177,77.5220661 25.9751869,78.5379319 C25.7374506,80.0617307 23.711524,80.5105311 22.7343403,79.3271232 C22.3208859,78.8267714 22.2063908,78.2362046 22.0831496,77.6244108" id="Fill-2101" fill="#B670F9"></path>
                            <path d="M26.6479088,75.271944 L26.5057543,75.3551213 C26.6926478,75.1994304 26.9062405,75.0999019 27.1443674,75.0536923 C27.3875455,75.0195682 27.6126837,74.9818896 27.8630778,75.0096154 C28.2549049,75.0501377 28.6214761,75.1290495 28.9967064,75.2605693 C29.9174639,75.5840368 30.8338919,76.1648565 30.983984,77.1892887 C31.1131498,78.0736702 30.4442296,78.8379066 29.5840862,78.9779574 C28.7506419,79.1137427 28.0947104,78.5947728 27.4409437,78.1724878 C26.8384104,77.7864595 26.1694901,77.3897675 26.0251708,76.6269529 C25.9198177,76.0703044 26.1485638,75.5577329 26.6479088,75.271944" id="Fill-2103" fill="#B670F9"></path>
                            <path d="M41.4045114,76.2939963 C44.1404024,75.9036357 47.1096701,76.1537104 49.5899241,77 C50.8235884,72.4368982 49.1597932,66.2620341 46.1251801,63.6263377 C45.341753,62.9454939 44.5303208,62.870014 43.8258827,63.1597348 C42.6654627,63.1391494 41.5387926,63.8169434 41.1524647,65.3494137 C40.5665101,67.6702294 41.8604932,69.9292888 41.8310519,72.2135082 C41.8109456,73.6095048 41.5136598,74.9628057 41.4045114,76.2939963" id="Fill-2105" fill="#B670F9"></path>
                            <path d="M51.7326,79.0159648 C51.75174,78.9764338 51.77088,78.938585 51.7886023,78.9007361 C51.9041514,78.6467283 51.9736226,78.3733755 51.9948893,78.0815189 C52.0133204,77.8182591 51.9800026,77.5920071 51.9254181,77.3665962 C51.9296714,77.3834179 51.9353425,77.3993986 51.9395959,77.4162203 C51.932507,77.3867823 51.9247092,77.3632319 51.9183292,77.3371582 C51.8963536,77.2496853 51.874378,77.1630535 51.8481491,77.0772628 C51.8460224,77.0696931 51.8446046,77.0629644 51.841769,77.0579179 C51.8382246,77.0444605 51.8112868,77.0251155 51.8070334,77.0116582 C51.8049068,77.0066116 51.77726,76.9923132 51.7779689,76.9872667 C51.7779689,76.9889489 51.77726,76.9889489 51.77726,76.9889489 C51.7857667,76.9527822 51.7503222,76.9031581 51.7375622,76.8577395 C51.7496133,76.9031581 51.7843489,76.9578287 51.7758423,76.9990419 C51.8219201,76.7980225 51.6149242,76.5499022 51.4859062,76.3202859 C51.3384571,76.0822587 51.2080213,75.898061 50.9755054,75.6760144 C50.9124142,75.6171385 50.8571208,75.5616268 50.7933206,75.5002276 C50.3857089,75.1225802 49.8568769,74.972867 49.352856,75.0039872 C48.6666505,75.0452003 48.2200497,75.6978827 48.0605495,76.4271038 C47.7975513,77.629856 48.4277545,78.998302 49.2465225,79.6467789 C49.9050814,80.1674108 50.7961562,80.110217 51.3951683,79.490337 C51.519933,79.3608099 51.6170509,79.2195075 51.699991,79.0714765 L51.6985733,79.0815695 C51.7120422,79.0605424 51.7212577,79.036992 51.7326,79.0159648" id="Fill-2107" fill="#B670F9"></path>
                            <path d="M51.3035,76.214 C51.3545,76.286 51.3985,76.355 51.4445,76.425 C51.5245,76.536 51.6055,76.651 51.6965,76.786 C51.5655,76.595 51.4335,76.403 51.3035,76.214" id="Fill-2109" fill="#B670F9"></path>
                            <path d="M47.9162101,77.6234157 C48.0163972,77.1230345 48.0704664,76.4429709 47.8192035,75.9933859 C47.3309902,75.1177187 46.3227581,74.6681338 45.3781369,75.2867869 C44.4756579,75.8804211 43.8673791,77.521065 44.0248159,78.5385069 C44.2609712,80.0623953 46.2893624,80.5097058 47.2641988,79.3277446 C47.6784645,78.8273634 47.7945543,78.2337292 47.9162101,77.6234157" id="Fill-2111" fill="#B670F9"></path>
                            <path d="M43.3524254,74.3416507 L43.4953116,74.4438189 C43.3076833,74.2492551 43.0940756,74.1266533 42.8552102,74.0689061 C42.6127366,74.0244851 42.3861393,73.9791758 42.1357275,74.0102704 C41.7445945,74.064464 41.3772759,74.1630785 41.0020191,74.3256592 C40.0811968,74.7298898 39.1654259,75.4557282 39.0160449,76.7377168 C38.88687,77.8429101 39.554394,78.7979605 40.4160413,78.972979 C41.248101,79.1408902 41.9048003,78.4923443 42.558613,77.9646235 C43.1604672,77.4822119 43.8301561,76.988251 43.9744857,76.0332005 C44.0805679,75.3375684 43.8525272,74.6987952 43.3524254,74.3416507" id="Fill-2113" fill="#B670F9"></path>
                            <path d="M19.3954423,3.01297305 C13.6885026,2.67697642 11.4440254,8.93866188 12.1149935,13.539586 C13.3018053,18.6318186 15.9960687,24.1776852 20.9518803,23.9770099 C24.4410627,24.3476057 26.2669271,20.1595653 26.64546,17.0602463 C26.9853974,12.931409 27.8003564,8.27051298 24.6911913,5.07662283 C23.2765175,3.73955615 21.349711,2.93608595 19.3954423,3.01297305" id="Fill-2115" fill="#9D63E0"></path>
                            <path d="M36.7013083,0.0321446371 C31.5727997,-0.440319233 27.2459572,4.369141 28.1107102,9.60350163 C28.8300555,13.9603161 29.7278907,18.1562075 33.3646234,20.9029983 C36.4243411,23.2114123 40.6473209,21.6711484 42.0452357,18.1998073 C42.6799522,15.1232431 43.3146686,12.0450934 43.9486156,8.96615104 C44.4710064,4.50945326 40.9365978,0.423750596 36.7013083,0.0321446371" id="Fill-2117" fill="#9D63E0"></path>
                            <path d="M52.1095234,3.02088305 C47.9925615,2.68278257 44.6217743,6.49318279 44.2278067,11.3225266 C44.0316108,13.716309 43.9094808,16.2114441 44.0836145,18.5897528 C44.2790225,21.2481356 45.1055666,23.5490757 47.0911635,24.9618251 C48.8482592,26.213648 51.5122685,26.4627747 53.2583331,24.9881304 C55.8112434,22.8310958 57.0735158,20.961872 58.0915282,17.7448884 C58.544591,16.3143443 58.9503776,14.1248148 58.99529,12.5225125 C59.1331786,7.662995 56.2296371,3.36053091 52.1095234,3.02088305" id="Fill-2119" fill="#9D63E0"></path>
                            <path d="M12.1596361,29.2269691 C13.4508894,18.7409499 24.1035391,11.0832908 34.3644858,11.0863469 C35.77492,10.9770936 37.1944636,10.9709816 38.6102116,11.0710667 C41.437912,11.2666529 44.2451164,11.8770959 46.9088481,12.9085076 C47.8789961,13.2798158 48.815743,13.7198848 49.7069431,14.2409387 C52.3813025,15.8002805 54.6540904,18.0579261 56.2565805,21.1498693 C56.7355816,22.009379 57.1925683,22.8971571 57.6267816,23.8101475 C58.9271443,26.5468266 60.0179914,29.4981922 60.839353,32.5557549 C61.1680494,33.7781688 61.4549946,35.0181549 61.6895609,36.2802972 C62.6581906,46.3109673 61.644014,58.0530167 54.5425006,66.2233256 C45.9182041,74.9032283 33.7427713,68.7766426 23.7103179,70.3688367 C22.1480609,70.1419261 20.759641,69.597188 19.5321533,68.7957428 C17.0749006,67.1943806 15.2606177,64.5745949 13.953423,61.4673715 C13.2983074,59.9141419 12.7714822,58.2386708 12.3539694,56.5058991 C10.4068414,48.3539265 10.9139297,40.1843816 11.6905035,32.0232409 C11.8279032,31.0132214 11.9842807,30.0834228 12.1596361,29.2269691" id="Fill-2121" fill="#9D63E0"></path>
                            <path d="M51.5951522,22.013078 C49.0041698,22.2829278 46.5297049,23.054134 43.9555868,23.4317791 C41.4688569,23.7978488 38.9468651,23.9273478 36.4340721,23.9613503 C31.2574731,24.0308023 26.3024108,23.2349985 21.2775913,22.175856 C18.1852767,21.5225735 16.5632297,25.6202395 19.6785412,26.669977 C24.7708182,28.3860193 30.396623,28.9184844 35.7725283,28.9908302 C41.29868,29.0653463 48.1341209,28.7390668 52.9764985,26.006566 C54.9228016,24.9069099 53.8879417,21.77289 51.5951522,22.013078" id="Fill-2123" fill="#662D91"></path>
                            <path d="M23.4513435,21.1981546 C23.5361149,21.2339344 23.6143093,21.2667933 23.6800802,21.3011127 C22.9704849,20.858612 21.9524969,20.9330923 21.2538634,21.3339716 C20.2775304,21.8911135 19.7908254,23.0703851 20.0853331,24.1547307 C20.2015284,24.5782462 20.413457,24.9462665 20.7218496,25.2595219 C20.8987003,25.3967994 21.0755511,25.5326164 21.2531326,25.6691636 C21.6455659,25.8918744 22.0679614,26.0028646 22.5188578,25.9999438 C22.7300555,25.9714661 22.9412533,25.9429883 23.1509895,25.9130501 C23.5755775,25.7962183 23.9453563,25.5851907 24.2588644,25.2770467 C24.7338768,24.8060683 25.0064607,24.1503495 24.9998837,23.4814872 C24.9911142,22.457748 24.346559,21.5778581 23.4513435,21.1981546" id="Fill-2125" fill="#FFFFFF"></path>
                            <path d="M23.2942656,21.3753626 C23.3312656,21.3963626 23.3692656,21.4123626 23.4042656,21.4373626 C23.8832656,21.7713626 23.7502656,21.6003626 23.2942656,21.3753626" id="Fill-2127" fill="#FFFFFF"></path>
                            <path d="M29.5312626,22.0318215 C28.6786844,21.9107115 27.9504101,22.1429578 27.244803,22.598189 C26.46242,23.1004395 26.1977259,23.9895296 26.0317437,24.8287509 C25.8906223,25.5326139 26.2401355,26.3910704 26.6825109,26.9268042 C27.1819199,27.5309295 27.924087,27.9177692 28.7123196,27.988298 C29.4771538,28.0566896 30.2514937,27.8230184 30.8466897,27.3471272 C31.2598172,27.0158557 31.5610712,26.6040816 31.7489894,26.1132297 C31.8111413,25.9515122 31.8520885,25.7883698 31.88353,25.6245151 C31.9902851,25.261185 32.0261138,24.8786197 31.9807795,24.4989042 C31.8272277,23.237935 30.8086674,22.2170486 29.5312626,22.0318215" id="Fill-2129" fill="#FFFFFF"></path>
                            <path d="M35.7695157,22 C32.4768825,22 31.9029737,28 35.2305336,28 C38.5239606,28 39.0962818,22 35.7695157,22" id="Fill-2131" fill="#FFFFFF"></path>
                            <path d="M42.4566209,22 C39.1259244,22 39.2081466,28 42.5444175,28 C45.8744171,28 45.7908013,22 42.4566209,22" id="Fill-2133" fill="#FFFFFF"></path>
                            <path d="M48.2030658,22.0601705 C44.9124402,22.7088686 45.4711511,27.5942858 48.7957577,26.9398216 C52.0879638,26.2918443 51.5292528,21.4057062 48.2030658,22.0601705" id="Fill-2135" fill="#FFFFFF"></path>
                            <path d="M50.5879802,17.0134699 C47.9989837,17.2902812 45.5256625,18.0639148 42.9526475,18.4485746 C40.4663889,18.8181357 37.9458844,18.9525869 35.4322291,18.9950073 C30.2565191,19.0791292 25.2977004,18.3026196 20.2711508,17.2622406 C17.1745527,16.6216202 15.5665134,20.6982954 18.6859422,21.7329225 C23.7832668,23.4254257 29.4117848,23.9366279 34.7876435,23.9941471 C40.3157066,24.0531043 47.1489222,23.7094269 51.9821723,20.9794206 C53.9243002,19.8822414 52.8809392,16.7704512 50.5879802,17.0134699" id="Fill-2137" fill="#9D63E0"></path>
                            <path d="M68.9237221,54.7106621 C67.6568099,49.3590451 65.5528047,42.5493347 60.9564297,39.345297 C59.5600626,38.3709742 57.8015128,39.5984853 58.0182406,41.2826397 C58.3578778,43.9064542 59.3811531,46.279341 60.032791,48.8443796 C60.6066106,51.1019753 61.0982482,53.3814235 61.6175222,55.655597 C62.077887,57.6765822 63.5753452,59.2454455 65.7266233,58.968144 C67.5440823,58.7330406 69.4022687,56.7331544 68.9237221,54.7106621" id="Fill-2139" fill="#B670F9"></path>
                            <path d="M3.07645148,54.7106621 C4.34348742,49.3590451 6.44697074,42.5493347 11.0437946,39.345297 C12.4388433,38.3709742 14.1997469,39.5984853 13.9815432,41.2826397 C13.6418729,43.9064542 12.619225,46.279341 11.9682508,48.8443796 C11.3936478,51.1019753 10.9019622,53.3814235 10.3826375,55.655597 C9.92150041,57.6765822 8.42535062,59.2454455 6.27313515,58.968144 C4.45695332,58.7330406 2.59713076,56.7331544 3.07645148,54.7106621" id="Fill-2141" fill="#B670F9"></path>
                            <path d="M2.68355388,55.0238413 C1.98237856,55.1715398 1.26258796,55.3459712 0.650610831,55.6881506 C-0.024968489,56.0670877 -0.198711047,56.8851105 0.244177348,57.4558552 C0.729725746,58.0793971 1.58137453,58.1255111 2.29496004,57.8040495 C2.46637569,57.7285294 2.69906661,57.576821 2.81075825,57.4632067 C3.07602591,57.2259533 3.30949247,56.9659771 3.50805539,56.6866197 C3.55459358,56.6278076 3.61121504,56.5756787 3.67249031,56.530233 C4.48768419,55.9287456 3.63836231,54.8240138 2.68355388,55.0238413" id="Fill-2143" fill="#B670F9"></path>
                            <path d="M5.68122279,57.2641945 C5.26168185,56.858792 4.68419609,56.9457189 4.30202603,57.3495829 C3.72736071,57.9596099 3.23519336,58.6357937 3.03423678,59.4966011 C2.72116757,60.8443531 4.64470989,61.6382344 5.16014589,60.3381768 C5.30469361,59.9758531 5.39212735,59.6189142 5.50282975,59.2358203 C5.52750863,59.1496626 5.56064884,59.0688898 5.59519927,58.9888863 C5.64667236,58.9127291 5.70096589,58.8404182 5.75807987,58.7681073 C6.10076373,58.3250107 6.08313596,57.6580581 5.68122279,57.2641945" id="Fill-2145" fill="#B670F9"></path>
                            <path d="M7.5475,58.339 C7.5055,58.443 7.4715,58.55 7.4525,58.661 C7.5015,58.487 7.5295,58.388 7.5475,58.339" id="Fill-2147" fill="#B670F9"></path>
                            <path d="M9.83855853,58.7656692 C9.72687302,58.4257357 9.61261016,58.0955611 9.51982528,57.7491217 C9.38150708,57.2392214 8.70709845,56.9488954 8.20021809,57.0074486 C7.73457544,57.0611223 7.37116799,57.3522615 7.19848502,57.7426158 C7.20278062,57.7393628 7.19676678,57.7694526 7.17614792,57.8605353 C7.12030517,58.0410741 7.07563097,58.2240527 7.04642091,58.4127239 C7.01806998,58.6542556 7.00346495,58.8925344 7,59.1356926 C6.99573288,59.8952569 7.47769878,60.8174688 8.31448095,60.975237 C8.93132858,61.0907168 9.57223155,60.7938849 9.85660003,60.2604008 C10.0997308,59.8025478 9.99234087,59.2357208 9.83855853,58.7656692" id="Fill-2149" fill="#B670F9"></path>
                            <path d="M7.4945,58.5125 C7.4975,58.5045 7.5015,58.4945 7.5055,58.4875 C7.5035,58.4895 7.5015,58.4945 7.4945,58.5125" id="Fill-2151" fill="#B670F9"></path>
                            <path d="M62.819053,57.5888453 C62.5460084,56.9946368 61.4365769,56.7480434 60.9639997,57.3366047 C60.8342284,57.4972355 60.7224602,57.6258656 60.6106919,57.785869 C60.6016904,57.7959084 60.59944,57.8009281 60.5949393,57.8084577 C60.5844376,57.8191246 60.5701853,57.8341837 60.5409305,57.8655569 C60.4816708,57.934578 60.4194106,58.0004617 60.3586507,58.0669729 C60.1501166,58.2947424 60.0811053,58.5388259 60.0158446,58.8155376 C59.9033262,59.2936652 60.409659,59.795009 60.9144916,59.9393258 C61.5160899,60.1112509 62.0636795,59.9016779 62.4492425,59.5139051 C62.611269,59.350137 62.6997835,59.1474661 62.7965493,58.9516973 C62.8175528,58.9077748 62.8348056,58.8632248 62.8513083,58.8193024 C62.9630766,58.5927878 63.0118345,58.3574888 62.9975822,58.1146602 C62.9750785,57.9308132 62.9150687,57.7557507 62.819053,57.5888453" id="Fill-2153" fill="#B670F9"></path>
                            <path d="M66.9195278,58.9864109 C66.564351,58.0494289 66.1648679,57.1869616 65.6324659,56.349861 C65.1806869,55.6419719 63.9749743,56.0930233 64.0003959,56.9475635 C64.0294492,57.831434 64.1376728,58.6954867 64.2364541,59.5698446 C64.2916554,60.0668731 64.5342506,60.6043298 64.9860297,60.8120195 L65.1545389,60.8889123 C65.6644246,61.121176 66.2462172,60.9848301 66.6050257,60.5210954 C66.6159207,60.5052412 66.6282683,60.4909724 66.6391633,60.4774964 C66.9427705,60.0811419 67.1091007,59.4881956 66.9195278,58.9864109" id="Fill-2155" fill="#B670F9"></path>
                            <path d="M69.7889734,57.3186785 C69.4077932,56.849494 68.9384445,56.5229893 68.4624665,56.1652941 C67.7842973,55.6569556 66.6685995,56.4088454 67.0941955,57.2304161 C67.395825,57.8124173 67.7359039,58.4163182 68.3027023,58.7859586 C68.7004555,59.0454369 69.1810739,59.0932181 69.57949,58.7939221 C70.0243107,58.4594539 70.1515917,57.7646361 69.7889734,57.3186785" id="Fill-2157" fill="#B670F9"></path>
                            <path d="M14.4037919,31 C12.406198,31 12.6035144,34 14.5954708,34 C16.5949439,34 16.3957483,31 14.4037919,31" id="Fill-2159" fill="#8B43C9"></path>
                            <path d="M21.1074803,37 C19.7904331,37 19.5614173,39 20.8925197,39 C22.2095669,39 22.4385827,37 21.1074803,37" id="Fill-2161" fill="#8B43C9"></path>
                            <path d="M30.1080424,34 C28.7903885,34 28.561411,36 29.8922911,36 C31.209945,36 31.4380959,34 30.1080424,34" id="Fill-2163" fill="#8B43C9"></path>
                            <path d="M17.8272395,44.882516 C17.5476933,44.3516339 17.0557645,44.1242394 16.4866882,44.0162934 C15.8903835,43.9048081 15.2713882,44.3834868 15.0807885,44.9010969 C14.9101564,45.3682731 15.0217934,45.8142141 15.3031548,46.1530938 C15.4937546,46.6300029 16.0120042,46.9697674 16.5248082,46.9980811 C17.2999136,47.0378973 17.9334308,46.4530422 17.9951488,45.7133465 C18.0187468,45.4443662 17.9552136,45.1240673 17.8272395,44.882516" id="Fill-2165" fill="#8B43C9"></path>
                            <path d="M15.2235228,54.0296464 C14.9611109,54.0800822 14.79799,54.1941829 14.5836476,54.3446634 C13.9232837,54.8126413 13.7554347,55.9627426 14.4354991,56.5117485 C14.8563038,56.8507432 14.8925529,56.8796817 15.3582749,56.9623634 C15.4189527,56.9722851 15.4804185,56.9830338 15.5403083,56.9913019 C15.8854627,57.0475254 16.3094194,56.8218046 16.5489786,56.5845084 C16.828727,56.3083518 16.9918479,55.9172677 16.9997282,55.5154351 C17.0178527,54.5025853 16.1265979,53.8502273 15.2235228,54.0296464" id="Fill-2167" fill="#8B43C9"></path>
                            <path d="M54.7550144,59.3832836 C54.3399894,58.9912706 53.4505154,58.8673114 52.8609913,59.1655685 C52.9656908,59.1290729 53.069447,59.0932065 53.1732033,59.0573402 C53.0458661,59.0881726 52.927018,59.1315898 52.8213753,59.1869624 C52.7270514,59.2360427 52.638387,59.2920446 52.5478361,59.344271 C51.9771767,59.6733606 51.7970181,60.2176483 52.2742969,60.6392354 C52.8458995,61.145769 53.8872349,61.0916549 54.4795887,60.6467862 C54.5522181,60.592672 54.6305069,60.5385579 54.6965336,60.4806683 C55.0643967,60.1585003 55.1143883,59.7211824 54.7550144,59.3832836" id="Fill-2169" fill="#8B43C9"></path>
                            <path d="M52.0837868,50 C50.7641286,50 50.5811651,53 51.91516,53 C53.2355009,53 53.4198298,50 52.0837868,50" id="Fill-2171" fill="#8B43C9"></path>
                            <path d="M58.5248212,51 C56.5239499,51 56.4767218,54 58.4749324,54 C60.4764689,54 60.5230318,51 58.5248212,51" id="Fill-2173" fill="#8B43C9"></path>
                            <path d="M55.5541945,33 C54.8954853,33 54.7805317,35 55.4458569,35 C56.105393,35 56.2186927,33 55.5541945,33" id="Fill-2175" fill="#8B43C9"></path>
                            <path d="M57.810485,25.0442247 C57.7275397,25.0320995 57.6454076,25.0225725 57.5624623,25.0104473 C56.7996907,24.9108473 56.0914027,25.5361621 56.0084574,26.3416231 C55.907622,27.3298285 56.7240641,28.1023782 57.6242647,27.9889208 C57.6763088,27.981126 57.7275397,27.9759294 57.7795838,27.9690008 C58.3959814,27.8858564 58.8993456,27.3705346 58.98717,26.7123084 C59.0904451,25.9259013 58.5586192,25.1455569 57.810485,25.0442247" id="Fill-2177" fill="#8B43C9"></path>
                            <path d="M25.4090497,17.4752991 C25.4100497,17.4752991 25.4120497,17.4772991 25.4140497,17.4772991 C25.5800497,17.5222991 25.7130497,17.5572991 25.4090497,17.4752991" id="Fill-2179" fill="#8B43C9"></path>
                            <path d="M24.9198597,17.0688065 C24.8300035,17.0526902 24.7300511,17.0330703 24.6866375,17.0260631 C23.7749505,16.8634982 22.9298986,17.4906346 23.0046104,18.0953483 C23.0359087,18.3581149 23.2176403,18.6040645 23.5104301,18.7743373 C23.9284128,19.0202869 24.4130304,19.0399068 24.9198597,18.9530186 C24.9501483,18.9481137 24.9794273,18.942508 25.0076967,18.9369023 C25.6094302,18.8191828 26.0213552,18.4057633 25.9991436,17.9776288 C25.9779415,17.5312758 25.5256317,17.1837231 24.9198597,17.0688065" id="Fill-2181" fill="#8B43C9"></path>
                            <path d="M32.3626114,19 C30.3673582,19 30.6522623,22 32.6373403,22 C34.6335184,22 34.3467644,19 32.3626114,19" id="Fill-2183" fill="#8B43C9"></path>
                            <path d="M42.9405408,15 C41.6068744,15 41.7321359,17 43.0591708,17 C44.3935741,17 44.2675758,15 42.9405408,15" id="Fill-2185" fill="#8B43C9"></path>
                            <path d="M13.2917506,60 C11.305424,60 11.7401791,63 13.7076033,63 C15.695505,63 15.2591748,60 13.2917506,60" id="Fill-2187" fill="#8B43C9"></path>
                            <path d="M12.984888,24.1062864 C12.9316902,23.5049536 12.4982266,23.043694 12.0719874,23.0035456 C11.5071712,22.9491224 11.0704238,23.5281505 11.0034339,24.2633109 C10.9955528,24.355206 11.0034339,24.451562 11.0054042,24.5434571 C11.0224801,25.2804019 11.3436372,25.9397267 11.9288131,25.9968265 C12.45291,26.0476811 12.982261,25.4811436 12.9973665,24.7424143 C13.0013071,24.5282899 13.0032774,24.3239795 12.984888,24.1062864" id="Fill-2189" fill="#8B43C9"></path>
                            <path d="M11.6583175,35.5087087 C11.4046921,35.2128397 11.0321024,35.0284339 10.6421637,35.0030268 C10.1795246,34.9710631 9.56818005,35.1931698 9.33933892,35.6259089 C9.26994305,35.7635986 9.20054718,35.9021079 9.13115131,36.0397976 C8.83952344,36.7159525 9.0328405,37.5019313 9.72514689,37.8535318 C10.0456897,38.0141698 10.4207579,38.0444943 10.7619542,37.9354899 C10.9503144,37.8732017 11.1097597,37.7691149 11.251856,37.6412601 C11.2278979,37.6789609 11.2047659,37.7207595 11.181634,37.7609191 C12.0424732,37.3675199 12.2622268,36.2127293 11.6583175,35.5087087" id="Fill-2191" fill="#8B43C9"></path>
                            <path d="M60.655116,34.5102693 C60.3085743,34.1096123 59.7571066,33.9225836 59.2389601,34.0298134 C58.5592053,34.167799 58.1693459,34.7047791 58.0618846,35.3531453 C57.9294324,35.7621147 58.0110696,36.2309333 58.2926347,36.5642599 C58.6250149,36.9566046 59.1056748,37.0704843 59.5555126,36.9599295 C59.5463492,36.9632545 59.5363528,36.9682419 59.5271895,36.9715669 C59.6296525,36.958267 59.7304495,36.944136 59.8295804,36.9291737 C60.9516757,36.7687446 61.3515315,35.3140771 60.655116,34.5102693" id="Fill-2193" fill="#8B43C9"></path>
                            <path d="M57.9662725,63.571267 C57.9745167,63.5329293 57.981262,63.4938682 57.9820115,63.4540838 C57.9880073,63.4128527 58,63.3803018 58,63.3325605 C58.0014978,62.2048535 56.551267,61.5509425 55.6908716,62.3603743 C55.5814485,62.4623671 55.4930107,62.5809969 55.4023244,62.6981801 C55.4015749,62.6996268 55.4008255,62.7010735 55.3993265,62.7025202 C55.3940802,62.7097538 55.3880844,62.7177106 55.3813391,62.7249442 C54.8731963,63.2674588 54.8612047,64.1022079 55.4158149,64.6237453 C55.947941,65.1235821 56.8750394,65.1366025 57.3884286,64.5955346 C57.643999,64.3271707 57.8246221,64.0617002 57.9370431,63.7123208 C57.9467862,63.6812166 57.9497841,63.6501124 57.9565294,63.6175615 C57.9617757,63.6052645 57.9625252,63.5864574 57.9662725,63.571267" id="Fill-2195" fill="#8B43C9"></path>
                            <path d="M41.8717033,8.42679037 C39.3794855,0.0531413129 29.2985284,1.83145035 30.0387465,10.5968796 C30.6300182,17.6093723 43.4093107,15.7728559 41.8717033,8.42679037 C41.6023963,7.52159152 42.0733074,9.39019657 41.8717033,8.42679037" id="Fill-2197" fill="#8B43C9"></path>
                            <path d="M58,10.9325321 C57.5405433,2.13716641 47.390934,1.51695077 46.0624392,10.1853493 C45.0029684,17.1046781 57.7740501,18.4474527 58,10.9325321 C57.9516361,9.9914357 57.9705283,11.9151815 58,10.9325321" id="Fill-2199" fill="#8B43C9"></path>
                            <path d="M24.870762,8.44190695 C22.3566715,0.0140670574 12.29879,1.86965353 13.0388094,10.6082965 C13.6283936,17.5852093 26.4146218,15.7942452 24.870762,8.44190695 C24.6018022,7.54027041 25.0736216,9.40355003 24.870762,8.44190695" id="Fill-2201" fill="#8B43C9"></path>
                            <path d="M48.4665541,6.17575091 C48.781129,5.95602734 49.0933909,5.73630377 49.4095079,5.51503828 C50.1280957,5.14112273 50.8929445,4.97151155 51.7063674,5.00389186 C52.869832,5.00389186 54.0525721,5.62297266 54.823589,6.46794472 C55.6246757,7.34452613 56.048735,8.52023998 55.9955348,9.70674727 C55.9400216,10.8932546 55.4095619,12.0242527 54.5321446,12.8237382 C54.2183407,13.0450036 53.9053078,13.2647272 53.5915039,13.4859927 C52.870603,13.8599083 52.1057542,14.0302904 51.2923313,13.9955972 C50.1304087,13.9955972 48.9461267,13.3765164 48.1758807,12.5330863 C47.3747941,11.6549629 46.9499637,10.4823329 47.0047059,9.29428372 C47.0586771,8.10777643 47.5891368,6.97677825 48.4665541,6.17575091" id="Fill-2203" fill="#FFFFFF"></path>
                            <path d="M31.0186818,8.08820048 C31.1291887,6.88908888 31.7301148,5.76149055 32.6661729,5.0037387 C32.9926376,4.80220126 33.3205469,4.60210854 33.6462893,4.40057111 C34.3685563,4.07695545 35.1247699,3.94982072 35.9113187,4.01772222 C36.304232,4.10946148 36.6949784,4.19975603 37.0871694,4.29005058 C37.8462721,4.58116021 38.4825893,5.03768945 38.9953989,5.66686186 C39.7285,6.57269678 40.0889112,7.75230476 39.9812934,8.91385384 C39.8707866,10.1115207 39.2684159,11.2383967 38.3323578,11.9961486 C38.0058931,12.197686 37.6801507,12.3999458 37.353686,12.6000385 C36.6314189,12.9243765 35.8759276,13.0500665 35.0879343,12.982165 C34.695021,12.8904258 34.3042746,12.8015759 33.9113613,12.7098367 C33.1522586,12.4194494 32.5173859,11.9621978 32.0038541,11.3344701 C31.2721975,10.4271905 30.911064,9.24758249 31.0186818,8.08820048" id="Fill-2205" fill="#FFFFFF"></path>
                            <path d="M15.4031207,7.61740528 C15.8896565,6.55967321 16.7852734,5.71693343 17.874903,5.29668719 C18.644186,5.00154099 19.472876,4.9296272 20.2654706,5.06746197 C20.2632147,5.06446556 20.2602067,5.06146915 20.2571988,5.05847275 C20.2790064,5.06446556 20.30307,5.07195658 20.3248776,5.0772003 C20.6753037,5.14312128 21.0174579,5.24724646 21.3438204,5.39032495 C21.3535962,5.39481956 21.3641241,5.39631776 21.3731479,5.40081237 C21.4047314,5.41579441 21.4340589,5.43452197 21.4656424,5.4487549 C21.602504,5.51617409 21.7386137,5.58658968 21.8702115,5.6682418 C21.8867552,5.67872923 21.901795,5.68921666 21.9168347,5.69745678 C22.0657282,5.79109453 22.2093578,5.89372151 22.3469715,6.00533771 C22.6440065,6.24804677 22.908706,6.52446542 23.142574,6.84208468 C23.2222847,6.95145358 23.2974834,7.06756439 23.3659143,7.1829261 C23.7050605,7.74924724 23.912609,8.36500911 23.9817919,9.03245901 C23.9802879,9.03245901 23.9772799,9.02946261 23.976528,9.0279644 C24.0562386,9.81227423 23.9336647,10.6168098 23.5975264,11.3479334 C23.2666519,12.0580821 22.7846281,12.6476254 22.1522068,13.1098214 C21.4942179,13.5840029 20.7602783,13.863418 19.9511399,13.9465683 C19.3345103,14.0566863 18.7291606,13.9967582 18.1365946,13.7652856 C17.9809332,13.7195904 17.8342957,13.6544185 17.6906661,13.5810065 C16.98831,13.3323047 16.2882098,12.7090518 15.8573211,12.1225049 C14.9098171,10.8273075 14.7315961,9.07440873 15.4031207,7.61740528" id="Fill-2207" fill="#FFFFFF"></path>
                            <path d="M50.3793944,7 C51.0630492,7 51.693669,7.19240338 52.2041313,7.66760657 C52.6781319,8.10797811 52.9665099,8.7299718 52.9971708,9.37933322 C53.062636,10.6896666 51.9837044,12 50.6213668,12 C49.937712,12 49.3062636,11.805938 48.7958013,11.3315641 C48.3226293,10.8903632 48.0342513,10.2683695 48.0027617,9.62066678 C47.9381253,8.30867474 49.0162282,7 50.3793944,7" id="Fill-2209" fill="#1E2D6A"></path>
                            <path d="M36.1700678,5.02010022 C36.8141247,4.93984091 37.4794924,5.1018597 37.9996315,5.4716526 C38.7368241,5.99446324 39.0699026,6.82330939 38.9878169,7.67765849 C38.9838705,7.7234138 38.9791348,7.76991919 38.9751883,7.8156745 C38.9309883,8.22822235 38.7826027,8.60476603 38.5323992,8.94605562 C38.26641,9.2993466 37.9270172,9.5648774 37.5102745,9.74189793 C37.3161103,9.80790559 37.1219461,9.87241307 36.9293604,9.93842073 C36.4186927,10.1094406 35.8156786,9.8941656 35.3784145,9.66013845 C34.1589684,9.00381232 34.1068756,8.50125402 34.0153185,7.69491049 C33.8685114,6.40776118 34.7911861,5.19262023 36.1700678,5.02010022" id="Fill-2211" fill="#1E2D6A"></path>
                            <path d="M19.5235,10.5535 C19.5055,10.5165 19.4905,10.4835 19.4765,10.4465 C19.4905,10.4815 19.5045,10.5165 19.5235,10.5535" id="Fill-2213" fill="#1E2D6A"></path>
                            <path d="M19.4855,9.4035 C19.4905,9.4675 19.5035,9.5325 19.5145,9.5965 C19.5005,9.5305 19.4885,9.4645 19.4855,9.4035" id="Fill-2215" fill="#1E2D6A"></path>
                            <path d="M19.4225,10.2635 C19.4545,10.4195 19.5115,10.5815 19.5775,10.7365 C19.5045,10.5815 19.4525,10.4235 19.4225,10.2635" id="Fill-2217" fill="#1E2D6A"></path>
                            <path d="M19.5395652,10.5474773 C19.5605652,10.5844773 19.5815652,10.6214773 19.6025652,10.6584773 C19.7845652,10.9694773 19.5405652,10.6604773 19.3335652,10.2154773 C19.3915652,10.3304773 19.4645652,10.4404773 19.5395652,10.5474773" id="Fill-2219" fill="#1E2D6A"></path>
                            <path d="M19.5,10.501 L19.5,10.499 L19.5,10.501 Z" id="Fill-2221" fill="#1E2D6A"></path>
                            <path d="M19.022246,9.9064943 C19.0151272,9.68411085 19.0071187,9.46172739 19,9.23934394 C19.0462716,8.79281209 19.2011034,8.38775652 19.4680548,8.02241227 C19.8506852,7.5017526 20.4326393,7.1417032 21.076882,7.03492385 C21.7389215,6.92284965 22.4329952,7.08345992 22.9740167,7.47439591 L23.4411817,7.91386797 C23.7188112,8.25185552 23.8976686,8.63926161 23.9715252,9.0707914 C23.9733049,9.07961615 23.9768642,9.08755841 23.9804236,9.09638315 C23.9857626,9.31700166 23.9928813,9.54115006 24,9.76529846 C23.9519487,10.2118303 23.7962271,10.6168859 23.5283858,10.9804652 C23.1448656,11.4993599 22.5593522,11.8629392 21.917779,11.9661887 C21.2548496,12.0764979 20.5598861,11.9141227 20.0170849,11.5196568 C19.8008542,11.3608115 19.5872931,11.1437229 19.411995,10.8992776 C19.3941983,10.866626 19.3746218,10.8322095 19.3559352,10.801323 C19.1984339,10.5215787 19.0436021,10.239187 19.022246,9.9064943" id="Fill-2223" fill="#1E2D6A"></path>
                        </g>
                    </g>
                </g>
            </g>
            <path d="M125.469245,59.7933375 C125.408004,59.4736486 125.053031,59.2695918 124.775177,59.1970383 C124.548357,59.1358213 124.319269,59.0768715 124.090181,59.0156545 C123.553753,58.875082 122.179226,59.0303919 122.043134,59.7672636 C122.019318,59.8840295 122.01705,60.0053299 122.000038,60.124363 C113.874225,61.1514488 91.1446278,63.4924335 85.604558,63.5071709 C71.4328665,63.5479823 59.0428433,63.9277546 44.9029065,63.1670763 C38.4306079,62.8190461 31.5874592,61.0403512 25.1242334,60.2048521 C18.8923636,59.3976941 12.6355437,58.7515143 6.39573521,57.990836 C5.74816512,57.9126142 5.06203569,57.8763375 4.36002889,57.8706692 C4.2863125,57.5691186 4.17403678,57.2811719 3.95402172,57.0340364 C3.4527503,56.4694793 1.63932723,56.6406603 1.60417019,57.5611831 C1.55086757,58.875082 0.730914547,60.2490644 0.434914909,61.5266865 C-0.0527473304,63.6375406 0.0436510193,65.9241101 0.00849397411,68.0757755 C-0.0448086428,71.2307201 0.0935513414,75.7913891 2.18482848,78.3137576 C3.01725658,79.3159031 5.504334,78.2593425 5.55536842,77.4045713 C13.5689065,78.7422769 21.9124672,79.1254502 29.8602276,79.9428109 C44.4424627,81.4448956 59.0666594,82.4617785 73.7589019,82.3132705 C87.1049699,82.1817673 101.757519,81.4256235 114.781503,78.9089232 C116.15036,78.6436494 118.813222,78.0654885 121.778889,77.2061828 C121.732391,77.3456216 121.694966,77.4850604 121.645066,77.6244992 C121.18689,79.1458558 124.805797,78.5302845 125.267375,77.2639989 C127.28607,71.7238573 126.517152,65.4615814 125.469245,59.7933375" id="Fill-95" fill="#8E2CCE"></path>
        </g>
    </g>
</svg>