<?xml version="1.0" encoding="UTF-8"?>
<svg width="97px" height="116px" viewBox="0 0 97 116" version="1.1" xmlns="http://www.w3.org/2000/svg" xmlns:xlink="http://www.w3.org/1999/xlink">
    <title>Sidekick_5_a</title>
    <g id="Student-Environmrnt---New-Treatment" stroke="none" stroke-width="1" fill="none" fill-rule="evenodd">
        <g id="Avatars" transform="translate(-1026.000000, -321.000000)">
            <g id="Sidekick_5_a" transform="translate(1026.217584, 321.687902)">
                <path d="M33.8908161,103.991398 C32.2508161,102.099398 32.2328161,99.587398 31.4178161,97.333398 C30.8338161,95.720398 30.6988161,91.074398 26.4568161,91.360398 C21.8658161,91.670398 19.4688161,95.838398 17.9588161,98.215398 C15.5268161,102.046398 14.8078161,106.380398 17.5728161,110.164398 C22.7228161,117.210398 39.9228161,110.950398 33.8908161,103.991398" id="Fill-1" fill="#009CD3"></path>
                <path d="M19.7701161,109.923998 C19.1861161,108.848998 17.1301161,109.234998 15.9921161,109.803998 C14.7281161,110.059998 13.6971161,110.544998 13.6471161,111.515998 C13.6221161,111.986998 14.0621161,112.446998 14.6801161,112.681998 C15.5571161,113.013998 16.4641161,112.854998 17.2071161,112.469998 C17.4351161,112.352998 17.6111161,112.221998 17.7691161,112.055998 C17.7701161,112.054998 17.7701161,112.054998 17.7721161,112.051998 C17.7941161,112.040998 17.8171161,112.027998 17.8571161,112.002998 C17.9851161,111.920998 18.1281161,111.847998 18.2671161,111.773998 C18.5021161,111.620998 18.6651161,111.440998 18.7541161,111.232998 C18.7601161,111.219998 18.7631161,111.215998 18.7681161,111.205998 C18.7821161,111.185998 18.7951161,111.167998 18.8011161,111.156998 C18.8221161,111.145998 18.8491161,111.127998 18.8981161,111.091998 C19.0681161,110.968998 19.2251161,110.870998 19.3771161,110.731998 C19.2031161,110.889998 19.6271161,110.509998 19.6481161,110.510998 C19.7841161,110.345998 19.8691161,110.104998 19.7701161,109.923998" id="Fill-3" fill="#00C9FF"></path>
                <path d="M19.6285161,110.538198 C19.6455161,110.518198 19.6505161,110.511198 19.6485161,110.511198 C19.6405161,110.519198 19.6355161,110.530198 19.6285161,110.538198" id="Fill-5" fill="#09987C"></path>
                <path d="M20.8893161,110.899598 C19.7113161,111.360598 18.6523161,112.066598 18.6963161,113.030598 C18.7223161,113.554598 19.2323161,114.020598 20.0273161,114.161598 C20.8903161,114.314598 22.1093161,113.976598 22.2553161,113.342598 C22.3313161,113.008598 22.3153161,112.729598 22.3153161,112.400598 C22.3153161,112.364598 22.3403161,112.015598 22.3073161,112.159598 C22.3263161,112.077598 22.3463161,111.935598 22.3953161,111.875598 C22.8963161,111.262598 21.8703161,110.515598 20.8893161,110.899598" id="Fill-7" fill="#00C9FF"></path>
                <path d="M28.5260161,111.835098 C28.4560161,111.717098 28.3480161,111.615098 28.2150161,111.523098 C28.2300161,111.529098 28.2060161,111.500098 28.1300161,111.422098 C27.9840161,111.255098 27.8410161,111.099098 27.6240161,110.964098 C27.1440161,110.666098 26.4000161,110.666098 25.9210161,110.964098 C25.7520161,111.069098 25.6200161,111.185098 25.5060161,111.316098 C25.4450161,111.388098 25.3830161,111.458098 25.3220161,111.528098 C25.5060161,111.387098 25.4300161,111.452098 25.0960161,111.724098 C24.7720161,112.184098 24.4390161,112.681098 24.5010161,113.200098 C24.5950161,113.999098 25.4620161,114.670098 26.7730161,114.670098 C28.0830161,114.670098 28.9490161,113.999098 29.0440161,113.200098 C29.1010161,112.721098 28.8180161,112.263098 28.5260161,111.835098" id="Fill-9" fill="#00C9FF"></path>
                <path d="M64.0353161,103.641298 C65.6753161,101.749298 65.6933161,99.237298 66.5093161,96.983298 C67.0923161,95.370298 67.2273161,90.724298 71.4703161,91.010298 C76.0603161,91.320298 78.4583161,95.489298 79.9673161,97.865298 C82.3983161,101.696298 83.1193161,106.031298 80.3533161,109.814298 C75.2043161,116.860298 58.0033161,110.601298 64.0353161,103.641298" id="Fill-11" fill="#009CD3"></path>
                <path d="M79.1476161,109.574398 C79.7316161,108.499398 81.7876161,108.885398 82.9256161,109.454398 C84.1896161,109.709398 85.2196161,110.194398 85.2706161,111.166398 C85.2946161,111.637398 84.8556161,112.096398 84.2376161,112.332398 C83.3616161,112.663398 82.4536161,112.504398 81.7106161,112.120398 C81.4826161,112.003398 81.3066161,111.872398 81.1486161,111.706398 C81.1466161,111.704398 81.1466161,111.704398 81.1446161,111.702398 C81.1236161,111.690398 81.0996161,111.677398 81.0606161,111.652398 C80.9316161,111.570398 80.7896161,111.498398 80.6506161,111.424398 C80.4156161,111.271398 80.2526161,111.090398 80.1636161,110.882398 C80.1576161,110.870398 80.1546161,110.866398 80.1496161,110.856398 C80.1346161,110.836398 80.1226161,110.818398 80.1166161,110.807398 C80.0956161,110.796398 80.0686161,110.778398 80.0196161,110.742398 C79.8486161,110.618398 79.6926161,110.521398 79.5406161,110.382398 C79.7146161,110.540398 79.2906161,110.160398 79.2696161,110.161398 C79.1336161,109.996398 79.0476161,109.755398 79.1476161,109.574398" id="Fill-13" fill="#00C9FF"></path>
                <path d="M79.2892161,110.188598 C79.2722161,110.168598 79.2672161,110.161598 79.2692161,110.161598 C79.2762161,110.169598 79.2812161,110.180598 79.2892161,110.188598" id="Fill-15" fill="#09987C"></path>
                <path d="M77.5324161,110.549998 C78.7104161,111.010998 79.7694161,111.716998 79.7254161,112.679998 C79.7004161,113.203998 79.1894161,113.669998 78.3944161,113.811998 C77.5314161,113.964998 76.3124161,113.625998 76.1674161,112.992998 C76.0914161,112.658998 76.1064161,112.379998 76.1064161,112.049998 C76.1064161,112.014998 76.0814161,111.665998 76.1144161,111.808998 C76.0954161,111.726998 76.0754161,111.585998 76.0264161,111.525998 C75.5254161,110.911998 76.5514161,110.165998 77.5324161,110.549998" id="Fill-17" fill="#00C9FF"></path>
                <path d="M69.8956161,111.484998 C69.9656161,111.366998 70.0746161,111.264998 70.2066161,111.173998 C70.1916161,111.179998 70.2156161,111.149998 70.2916161,111.072998 C70.4376161,110.904998 70.5816161,110.749998 70.7976161,110.613998 C71.2786161,110.315998 72.0216161,110.315998 72.5006161,110.613998 C72.6696161,110.719998 72.8016161,110.834998 72.9166161,110.966998 C72.9766161,111.037998 73.0386161,111.108998 73.0996161,111.177998 C72.9166161,111.036998 72.9916161,111.101998 73.3256161,111.374998 C73.6506161,111.834998 73.9826161,112.330998 73.9206161,112.849998 C73.8266161,113.648998 72.9596161,114.319998 71.6496161,114.319998 C70.3386161,114.319998 69.4726161,113.648998 69.3776161,112.849998 C69.3216161,112.370998 69.6036161,111.912998 69.8956161,111.484998" id="Fill-19" fill="#00C9FF"></path>
                <path d="M49.8058161,23.412698 C49.6148161,23.612698 48.4858161,20.962698 48.3888161,20.637698 C48.1888161,19.957698 48.0918161,19.263698 48.0518161,18.564698 C47.9728161,17.212698 48.2988161,15.886698 48.8608161,14.647698 C49.8928161,12.372698 52.0468161,10.681698 54.4168161,9.59669797 C56.8248161,8.49569797 59.5678161,8.24469797 62.2338161,8.45869797 C65.3598161,8.70769797 69.9728161,10.239698 70.9338161,13.221698 C71.3278161,14.450698 70.1308161,15.581698 68.7638161,15.307698 C67.1978161,14.992698 65.7978161,13.924698 64.3298161,13.337698 C63.6178161,13.052698 62.6008161,12.838698 61.6038161,12.718698 C60.0308161,12.524698 58.2878161,12.775698 56.6898161,13.342698 C55.0458161,13.925698 53.6648161,14.981698 52.8958161,16.430698 C51.9048161,18.295698 52.5068161,20.203698 52.8548161,22.146698 C52.9528161,22.697698 52.5108161,23.311698 52.0278161,23.592698 C51.7448161,23.753698 51.4368161,23.839698 51.1028161,23.8507006 C51.0268161,23.851698 49.6568161,23.568698 49.8058161,23.412698" id="Fill-944" fill="#009CD3"></path>
                <path d="M19.2394161,95.413698 C22.4604161,101.876698 34.9224161,104.698698 53.0584161,103.544698 C66.1724161,102.710698 73.5334161,100.208698 77.6754161,93.954698 C81.8154161,87.699698 82.6224161,64.664698 81.7094161,59.894698 C80.6414161,54.318698 78.9794161,48.736698 76.5084161,43.479698 C72.2954161,34.517698 65.2854161,24.032698 52.7084161,21.314698 C44.6164161,19.565698 36.0824161,21.394698 30.1944161,26.450698 C23.8524161,31.892698 20.6414161,39.034698 18.4104161,46.036698 C15.9634161,53.723698 14.8394161,61.682698 14.3554161,69.538698 C14.1484161,72.877698 14.0624161,76.218698 14.1784161,79.552698 C14.3154161,83.446698 15.5964161,88.103698 19.2394161,95.413698" id="Fill-946" fill="#00C9FF"></path>
                <path d="M48.5529161,22.825298 C50.6469161,17.147298 48.7609161,9.69329797 45.0899161,4.83229797 C43.5629161,2.80629797 41.4769161,1.26129797 39.1359161,0.481297973 C36.2569161,-0.476702027 32.4539161,-0.0867020272 30.5679161,2.39729797 C29.7229161,3.51129797 30.5749161,5.54629797 32.0289161,5.61429797 C33.5199161,5.68529797 35.0349161,5.18829797 36.5329161,5.14629797 C36.8189161,5.13829797 37.6269161,5.23729797 38.2179161,5.45129797 C39.5219161,5.92829797 40.5609161,6.88129797 41.4609161,7.94929797 C44.4979161,11.554298 45.8669161,17.180298 45.0969161,21.784298 C44.7509161,23.854298 47.8549161,24.720298 48.5529161,22.825298" id="Fill-948" fill="#00C9FF"></path>
                <path d="M80.8439161,89.299998 C83.1269161,92.106998 84.3709161,94.938998 86.9539161,97.149998 C89.1679161,99.048998 92.5139161,94.981998 91.9969161,91.681998 C90.6459161,83.030998 85.5629161,77.120998 80.2579161,74.355998 C76.8089161,72.557998 70.6669161,76.002998 75.0549161,82.770998 C75.0549161,82.770998 78.9739161,87.003998 80.8439161,89.299998" id="Fill-950" fill="#009CD3"></path>
                <path d="M9.52891609,80.399098 C6.57691609,84.710098 2.94091609,89.898098 2.74091609,95.430098 C2.56991609,100.147098 7.94491609,101.584098 10.5849161,98.368098 C12.6279161,95.879098 13.3709161,92.228098 15.4069161,89.765098 C19.3969161,84.941098 22.0239161,78.808098 18.5759161,76.534098 C14.5409161,73.873098 11.3269161,77.773098 9.52891609,80.399098" id="Fill-952" fill="#009CD3"></path>
                <path d="M86.6564161,95.681298 C86.4504161,96.803298 86.0854161,97.951298 85.4614161,98.874298 C84.3564161,100.514298 82.2964161,98.631298 83.4124161,97.001298 C83.9064161,96.282298 84.2854161,95.472298 84.7234161,94.704298 C85.0004161,94.218298 85.5044161,93.967298 85.9694161,94.116298 C86.5764161,94.310298 86.7844161,94.994298 86.6564161,95.681298" id="Fill-954" fill="#00C9FF"></path>
                <path d="M90.9064161,99.579298 C90.9554161,99.890298 91.0004161,100.176298 90.9684161,100.474298 C90.8364161,101.417298 90.3554161,101.739298 89.5264161,101.436298 C89.3764161,101.300298 89.2264161,101.153298 89.0784161,101.006298 C88.1914161,100.133298 87.6884161,98.231298 87.5014161,96.758298 C87.3494161,95.576298 87.8094161,95.329298 88.8484161,95.974298 C89.8874161,96.618298 90.8004161,98.900298 90.9064161,99.579298" id="Fill-956" fill="#00C9FF"></path>
                <path d="M94.0353161,95.133898 C94.8843161,96.047898 93.6743161,98.067898 92.4173161,97.544898 C91.0513161,96.976898 90.0963161,96.498898 90.0573161,95.169898 C90.0263161,94.061898 90.8913161,93.335898 91.7763161,93.838898 C91.7763161,93.838898 93.8093161,94.890898 94.0353161,95.133898" id="Fill-958" fill="#00C9FF"></path>
                <path d="M93.0333161,90.767198 C93.3273161,90.807198 93.6133161,90.853198 93.8993161,90.902198 C94.0023161,90.917198 94.1013161,90.930198 94.1933161,90.957198 C94.5153161,91.059198 94.6863161,91.213198 94.8893161,91.415198 C95.2813161,91.797198 95.0823161,93.021198 94.2673161,93.280198 C92.9933161,93.682198 92.3973161,93.324198 91.5653161,93.074198 C91.0513161,92.917198 90.6233161,92.204198 90.9263161,91.712198 C91.4423161,90.868198 92.3283161,90.666198 93.0333161,90.767198" id="Fill-960" fill="#00C9FF"></path>
                <path d="M13.8864161,93.899598 C13.9494161,94.226598 15.0634161,94.834598 15.4484161,95.107598 C15.6984161,95.284598 15.9454161,95.466598 16.1774161,95.661598 C16.8954161,96.270598 16.8104161,97.423598 16.1434161,98.045598 C15.4284161,98.717598 14.3234161,98.679598 13.6224161,98.055598 C13.1784161,97.657598 12.6664161,97.313598 12.2834161,96.857598 C11.5244161,95.941598 11.3214161,95.137598 11.3184132,93.977598 C11.3154161,92.534598 13.6274161,92.597598 13.8864161,93.899598" id="Fill-962" fill="#00C9FF"></path>
                <path d="M11.1124161,97.641798 C11.4584161,98.793798 11.7234161,99.078798 12.0844161,100.261798 C12.7904161,102.575798 10.6634161,104.067798 9.46541609,102.861798 C8.13141609,101.517798 8.66041609,99.795798 8.44741609,98.135798 C8.25941609,96.672798 10.6964161,96.268798 11.1124161,97.641798" id="Fill-964" fill="#00C9FF"></path>
                <path d="M7.27111609,98.235498 C7.15911609,99.330498 6.70911609,100.377498 6.22711609,101.368498 C5.58511609,102.672498 3.41211609,102.260498 3.65011609,100.771498 C3.81711609,99.729498 4.48511609,98.866498 4.71011609,97.845498 C5.02211609,96.435498 7.41811609,96.837498 7.27111609,98.235498" id="Fill-966" fill="#00C9FF"></path>
                <path d="M3.76431609,97.092898 C4.33031609,96.673898 3.63131609,97.190898 3.55631609,97.246898 C3.33431609,97.408898 3.12831609,97.589898 2.90631609,97.752898 C2.40631609,98.124898 2.02631609,98.397898 1.39231609,98.495898 C0.45131609,98.642898 -0.23768391,97.809898 0.0773160901,96.927898 C0.42931609,95.946898 1.41831609,95.362898 2.29431609,94.898898 C2.97031609,94.543898 3.76031609,94.573898 4.19331609,95.218898 C4.60931609,95.840898 4.37531609,96.637898 3.76431609,97.092898" id="Fill-968" fill="#00C9FF"></path>
                <path d="M54.2101161,62.677898 C53.9641161,63.127898 53.6431161,63.528898 53.2471161,63.875898 C52.7171161,64.346898 52.3411161,64.505898 51.6141161,64.886898 C50.6021161,65.419898 49.2711161,65.326898 48.2031161,65.024898 C47.5901161,64.854898 47.0351161,64.545898 46.5311161,64.187898 C45.3991161,63.386898 45.0601161,62.444898 44.8701161,61.184898 C44.6401161,59.663898 46.9471161,58.305898 48.1711161,59.505898 C50.6711161,61.961898 51.7791161,59.018898 52.9241161,59.143898 C53.6281161,59.220898 54.3291161,59.738898 54.6241161,60.372898 C54.8161161,60.781898 54.3291161,62.335898 54.2101161,62.677898" id="Fill-970" fill="#1B1464"></path>
                <path d="M47.8585161,63.897598 C49.8665161,62.935598 50.8095161,63.419598 51.6615161,64.863598 C51.6445161,64.871598 51.6305161,64.878598 51.6145161,64.887598 C50.6015161,65.419598 49.2705161,65.326598 48.2035161,65.024598 C47.7405161,64.896598 47.3105161,64.687598 46.9095161,64.439598 C47.2135161,64.240598 47.5285161,64.055598 47.8585161,63.897598" id="Fill-972" fill="#992897"></path>
                <path d="M35.6271161,42.917098 C31.7701161,37.888098 32.8001161,31.578098 37.1251161,27.221098 C40.0091161,24.607098 44.7481161,22.642098 48.5931161,23.513098 C55.8031161,25.256098 62.3261161,32.778098 58.9621161,39.747098 C62.3261161,38.004098 66.3771161,38.323098 70.2231161,40.017098 C71.1311161,40.404098 71.9721161,40.926098 72.7061161,41.585098 C73.4411161,42.245098 74.0671161,43.042098 74.5491161,43.986098 C77.9131161,50.521098 75.9911161,60.104098 66.8581161,61.410098 C62.5321161,62.066098 58.0861161,60.323098 55.2021161,57.436098 C54.2411161,56.473098 53.4531161,55.382098 52.9021161,54.208098 C51.9571161,51.392098 51.4771161,48.778098 52.9191161,46.600098 C50.0351161,48.343098 46.5751161,49.169098 43.9141161,48.337098 C45.9931161,49.834098 46.0761161,52.328098 45.9931161,54.739098 C45.9211161,56.818098 44.0811161,63.634098 38.9801161,65.332098 C36.0951161,66.203098 33.2111161,66.203098 30.3751161,65.181098 C29.0331161,64.708098 27.7561161,64.039098 26.6091161,63.242098 C25.4601161,62.446098 24.4391161,61.521098 23.5981161,60.540098 C20.7141161,57.274098 20.5331161,52.781098 22.5371161,49.214098 C23.2031161,48.025098 24.1131161,46.938098 25.2461161,46.036098 C26.6911161,44.822098 28.3971161,43.859098 30.1931161,43.281098 C31.9901161,42.702098 33.8651161,42.524098 35.6271161,42.917098" id="Fill-974" fill="#009CD3"></path>
                <path d="M34.7828161,30.743798 C35.6308161,30.470798 36.1078161,29.728798 35.7258161,28.890798 C35.6198161,28.660798 35.4488161,28.530798 35.2478161,28.385798 C35.6298161,28.659798 35.1608161,28.318798 35.0368161,28.223798 C34.9858161,28.185798 34.7828161,28.035798 34.8998161,28.135798 C34.7428161,28.006798 34.5888161,27.876798 34.4238161,27.755798 C34.4088161,27.743798 34.3908161,27.727798 34.3658161,27.706798 C34.2748161,27.631798 34.1848161,27.551798 34.0968161,27.471798 C33.8258161,27.229798 33.5508161,27.010798 33.2268161,26.837798 C32.5858161,26.495798 31.7938161,26.551798 31.2488161,27.066798 C30.5648161,27.711798 30.6418161,28.639798 31.1948161,29.309798 C31.6838161,29.903798 32.5668161,30.460798 33.3288161,30.675798 C33.7838161,30.803798 34.3198161,30.892798 34.7828161,30.743798" id="Fill-976" fill="#009CD3"></path>
                <path d="M34.7384161,33.870798 C35.3144161,33.190798 35.3274161,32.308798 34.5604161,31.799798 C34.3494161,31.659798 34.1344161,31.639798 33.8874161,31.622798 C34.3564161,31.654798 33.7794161,31.611798 33.6234161,31.597798 C33.5594161,31.591798 33.3084161,31.571798 33.4604161,31.594798 C33.2594161,31.567798 33.0594161,31.538798 32.8554161,31.522798 C32.8364161,31.520798 32.8134161,31.516798 32.7804161,31.512798 C32.6624161,31.496798 32.5454161,31.475798 32.4274161,31.454798 C32.0704161,31.391798 31.7204161,31.351798 31.3544161,31.375798 C30.6304161,31.424798 29.9864161,31.889798 29.7954161,32.614798 C29.5554161,33.524798 30.1114161,34.271798 30.9334161,34.548798 C31.6634161,34.793798 32.7074161,34.801798 33.4674161,34.580798 C33.9214161,34.449798 34.4244161,34.242798 34.7384161,33.870798" id="Fill-978" fill="#009CD3"></path>
                <path d="M22.7296161,53.363398 C23.2686161,52.654398 23.2346161,51.772398 22.4416161,51.304398 C22.2226161,51.176398 22.0076161,51.167398 21.7606161,51.164398 C22.2296161,51.170398 21.6506161,51.158398 21.4946161,51.152398 C21.4306161,51.150398 21.1786161,51.144398 21.3316161,51.158398 C21.1296161,51.142398 20.9276161,51.124398 20.7236161,51.119398 C20.7046161,51.117398 20.6816161,51.115398 20.6486161,51.113398 C20.5296161,51.103398 20.4116161,51.089398 20.2936161,51.074398 C19.9326161,51.030398 19.5816161,51.009398 19.2176161,51.052398 C18.4966161,51.139398 17.8786161,51.638398 17.7266161,52.373398 C17.5346161,53.294398 18.1296161,54.010398 18.9666161,54.242398 C19.7086161,54.449398 20.7506161,54.401398 21.4986161,54.140398 C21.9446161,53.984398 22.4356161,53.751398 22.7296161,53.363398" id="Fill-980" fill="#009CD3"></path>
                <path d="M74.2433161,45.177898 C73.5553161,44.611898 73.3853161,43.745898 74.0483161,43.107898 C74.2313161,42.932898 74.4383161,42.874898 74.6793161,42.814898 C74.2233161,42.927898 74.7843161,42.783898 74.9343161,42.741898 C74.9963161,42.724898 75.2403161,42.660898 75.0943161,42.709898 C75.2873161,42.647898 75.4793161,42.582898 75.6773161,42.531898 C75.6953161,42.525898 75.7173161,42.517898 75.7483161,42.507898 C75.8613161,42.470898 75.9733161,42.429898 76.0853161,42.387898 C76.4263161,42.261898 76.7633161,42.160898 77.1273161,42.118898 C77.8483161,42.037898 78.5653161,42.379898 78.8833161,43.059898 C79.2813161,43.911898 78.8673161,44.746898 78.1073161,45.165898 C77.4333161,45.536898 76.4073161,45.730898 75.6203161,45.649898 C75.1493161,45.600898 74.6193161,45.486898 74.2433161,45.177898" id="Fill-982" fill="#009CD3"></path>
                <path d="M23.5328161,49.913198 C24.3778161,49.631198 24.8458161,48.883198 24.4548161,48.050198 C24.3468161,47.821198 24.1748161,47.692198 23.9718161,47.550198 C24.3558161,47.820198 23.8848161,47.484198 23.7588161,47.391198 C23.7068161,47.353198 23.5028161,47.205198 23.6208161,47.304198 C23.4628161,47.177198 23.3068161,47.048198 23.1408161,46.929198 C23.1258161,46.917198 23.1078161,46.902198 23.0828161,46.881198 C22.9898161,46.806198 22.8998161,46.727198 22.8108161,46.649198 C22.5368161,46.409198 22.2598161,46.194198 21.9338161,46.024198 C21.2898161,45.690198 20.4978161,45.753198 19.9578161,46.274198 C19.2818161,46.928198 19.3688161,47.855198 19.9288161,48.518198 C20.4248161,49.106198 21.3138161,49.655198 22.0778161,49.860198 C22.5338161,49.983198 23.0708161,50.067198 23.5328161,49.913198" id="Fill-984" fill="#009CD3"></path>
                <path d="M72.3605161,42.306298 C71.4725161,42.226298 70.8445161,41.607298 71.0335161,40.706298 C71.0855161,40.458298 71.2235161,40.293298 71.3875161,40.108298 C71.0765161,40.459298 71.4585161,40.023298 71.5585161,39.904298 C71.5995161,39.855298 71.7645161,39.664298 71.6725161,39.787298 C71.7975161,39.627298 71.9195161,39.466298 72.0525161,39.312298 C72.0645161,39.296298 72.0795161,39.278298 72.0985161,39.252298 C72.1725161,39.158298 72.2415161,39.060298 72.3095161,38.963298 C72.5205161,38.667298 72.7405161,38.393298 73.0185161,38.153298 C73.5685161,37.679298 74.3535161,37.558298 74.9995161,37.941298 C75.8085161,38.420298 75.9375161,39.343298 75.5455161,40.117298 C75.1985161,40.804298 74.4605161,41.542298 73.7635161,41.919298 C73.3475161,42.144298 72.8445161,42.349298 72.3605161,42.306298" id="Fill-986" fill="#009CD3"></path>
                <path d="M58.2345161,30.743798 C57.3865161,30.470798 56.9095161,29.728798 57.2925161,28.890798 C57.3975161,28.660798 57.5685161,28.530798 57.7695161,28.385798 C57.3885161,28.659798 57.8565161,28.318798 57.9805161,28.223798 C58.0325161,28.185798 58.2355161,28.035798 58.1175161,28.135798 C58.2745161,28.006798 58.4285161,27.876798 58.5935161,27.755798 C58.6085161,27.743798 58.6265161,27.727798 58.6515161,27.706798 C58.7435161,27.631798 58.8325161,27.551798 58.9215161,27.471798 C59.1915161,27.229798 59.4665161,27.010798 59.7915161,26.837798 C60.4315161,26.495798 61.2235161,26.551798 61.7685161,27.066798 C62.4535161,27.711798 62.3765161,28.639798 61.8235161,29.309798 C61.3335161,29.903798 60.4505161,30.460798 59.6885161,30.675798 C59.2335161,30.803798 58.6985161,30.892798 58.2345161,30.743798" id="Fill-988" fill="#009CD3"></path>
                <path d="M59.2950161,33.779898 C58.5910161,33.233898 58.3960161,32.373898 59.0410161,31.716898 C59.2190161,31.535898 59.4240161,31.471898 59.6620161,31.404898 C59.2100161,31.531898 59.7670161,31.370898 59.9160161,31.324898 C59.9780161,31.305898 60.2190161,31.234898 60.0740161,31.287898 C60.2660161,31.220898 60.4560161,31.150898 60.6510161,31.092898 C60.6700161,31.086898 60.6910161,31.078898 60.7230161,31.067898 C60.8350161,31.027898 60.9450161,30.982898 61.0560161,30.937898 C61.3940161,30.802898 61.7270161,30.691898 62.0900161,30.638898 C62.8090161,30.536898 63.5340161,30.858898 63.8720161,31.528898 C64.2950161,32.368898 63.9050161,33.215898 63.1570161,33.655898 C62.4940161,34.047898 61.4740161,34.269898 60.6860161,34.211898 C60.2140161,34.176898 59.6800161,34.077898 59.2950161,33.779898" id="Fill-990" fill="#009CD3"></path>
                <path d="M74.0245161,48.686698 C74.2585161,50.415698 74.2585161,52.660698 71.2145161,56.678698 C69.6995161,58.679698 66.9555161,59.577698 64.3365161,59.681698 C62.6145161,59.744698 60.9855161,59.415698 59.4495161,58.697698 C58.7605161,58.261698 58.0725161,57.828698 57.3825161,57.391698 C54.1395161,54.406698 53.7025161,51.493698 53.5975161,50.374698 C53.1165161,45.240698 57.3125161,40.575698 62.8945161,40.114698 C65.5925161,39.890698 68.3075161,40.674698 70.3845161,42.274698 C70.9785161,42.865698 71.5725161,43.457698 72.1665161,44.048698 C73.2335161,45.440698 73.8515161,46.987698 74.0245161,48.686698" id="Fill-992" fill="#FFFFFF"></path>
                <path d="M68.9025161,50.895698 C68.8235161,52.743698 68.1135161,54.288698 66.7705161,55.533698 C65.9875161,56.203698 65.0725161,56.653698 64.0225161,56.879698 C62.0295161,57.298698 59.8795161,56.719698 58.4625161,55.380698 C57.7205161,54.671698 56.9155161,53.211698 56.8605161,53.101698 C56.8435161,53.066698 56.8285161,53.035698 56.8125161,53.002698 C56.4595161,52.038698 56.3935161,51.058698 56.6175161,50.064698 C56.8425161,49.104698 57.3085161,48.250698 58.0185161,47.506698 C59.4755161,45.991698 61.7885161,45.285698 63.9605161,45.695698 C65.0205161,45.900698 65.9615161,46.323698 66.7835161,46.964698 C67.1375161,47.330698 67.4935161,47.693698 67.8485161,48.059698 C68.4805161,48.918698 68.8315161,49.864698 68.9025161,50.895698" id="Fill-994" fill="#000000"></path>
                <path d="M41.6173161,60.984498 C40.0083161,62.831498 37.4263161,63.791498 34.8463161,63.895498 C33.1533161,63.952498 31.5493161,63.634498 30.0363161,62.938498 C29.3583161,62.518498 28.6793161,62.095498 28.0023161,61.674498 C26.7113161,60.620498 25.7943161,59.340498 25.2543161,57.839498 C24.5313161,56.763498 24.3783161,55.962498 24.2753161,54.878498 C23.8023161,49.906498 27.9333161,45.385498 33.4273161,44.939498 C36.0823161,44.722498 38.7543161,45.481498 40.7993161,47.031498 C41.3853161,47.605498 41.9703161,48.177498 42.5543161,48.751498 C43.6043161,50.099498 45.8263161,56.152498 41.6173161,60.984498" id="Fill-996" fill="#FFFFFF"></path>
                <path d="M39.9620161,50.178398 C39.5780161,49.785398 39.1960161,49.392398 38.8120161,48.999398 C37.9270161,48.306398 36.9150161,47.851398 35.7720161,47.632398 C33.4310161,47.189398 30.9390161,47.948398 29.3690161,49.583398 C28.6060161,50.384398 28.1020161,51.304398 27.8590161,52.338398 C27.6180161,53.411398 27.4540161,53.814398 28.0360161,55.435398 C28.4100161,56.443398 29.0490161,57.303398 29.8470161,58.067398 C31.3750161,59.509398 33.6900161,60.134398 35.8390161,59.681398 C36.9680161,59.437398 37.9560161,58.954398 38.7980161,58.229398 C40.2450161,56.888398 41.0110161,55.222398 41.0950161,53.233398 C41.0190161,52.123398 40.6420161,51.104398 39.9620161,50.178398" id="Fill-998" fill="#000000"></path>
                <path d="M56.4279161,33.797998 C56.2449161,35.077998 56.0659161,36.360998 55.8839161,37.641998 C55.5079161,39.153998 54.7529161,40.490998 53.6199161,41.651998 C51.8749161,43.424998 49.3609161,44.500998 46.7419161,44.603998 C45.0189161,44.664998 43.3889161,44.340998 41.8539161,43.635998 C41.1659161,43.207998 40.4769161,42.779998 39.7879161,42.351998 C38.4749161,41.282998 37.4889161,39.559998 36.9969161,38.461998 C36.5049161,37.363998 36.1059161,36.554998 36.0029161,35.456998 C35.5199161,30.410998 39.7179161,25.823998 45.2989161,25.372998 C47.9969161,25.151998 50.7109161,25.922998 52.7889161,27.495998 C53.3829161,28.075998 53.9779161,28.658998 54.5719161,29.238998 C55.6379161,30.607998 56.2569161,32.126998 56.4279161,33.797998" id="Fill-1000" fill="#FFFFFF"></path>
                <path d="M52.8536161,35.648098 C52.7796161,37.388098 52.1096161,38.844098 50.8436161,40.018098 C50.1056161,40.650098 49.2446161,41.074098 48.2566161,41.287098 C46.3776161,41.682098 44.2906161,41.199098 43.0176161,39.875098 C41.5386161,38.336098 41.0676161,35.802098 41.2786161,34.866098 C41.4916161,33.960098 41.9316161,33.156098 42.5986161,32.456098 C43.9726161,31.027098 46.1496161,30.362098 48.1976161,30.750098 C49.1976161,30.942098 50.0826161,31.341098 50.8566161,31.945098 C51.1916161,32.289098 51.5266161,32.632098 51.8616161,32.976098 C52.4566161,33.786098 52.7886161,34.676098 52.8536161,35.648098" id="Fill-1002" fill="#000000"></path>
                <path d="M20.2902161,66.440098 C20.7532161,66.167098 21.2062161,65.954098 21.7572161,65.962098 C23.1312161,65.974098 24.2882161,67.238098 24.3732161,68.744098 C24.4552161,70.206098 23.2422161,71.473098 21.8302161,71.528098 C20.5082161,71.575098 18.9922161,70.401098 19.0952161,68.939098 C19.1642161,67.969098 19.3782161,66.973098 20.2902161,66.440098" id="Fill-1004" fill="#1DD4FF"></path>
                <path d="M70.1075161,80.535298 C70.5595161,80.188298 71.0015161,79.918298 71.5385161,79.929298 C72.8775161,79.944298 74.0045161,81.548298 74.0885161,83.458298 C74.1685161,85.313298 72.9855161,86.921298 71.6085161,86.991298 C70.3205161,87.050298 68.8425161,85.561298 68.9425161,83.706298 C69.0095161,82.475298 69.2185161,81.211298 70.1075161,80.535298" id="Fill-1006" fill="#1DD4FF"></path>
                <path d="M64.6671161,91.570498 C64.9431161,91.378498 65.2141161,91.229498 65.5431161,91.235498 C66.3641161,91.243498 67.0561161,92.130498 67.1061161,93.186498 C67.1551161,94.212498 66.4311161,95.100498 65.5871161,95.139498 C64.7971161,95.172498 63.8921161,94.348498 63.9531161,93.323498 C63.9941161,92.643498 64.1221161,91.944498 64.6671161,91.570498" id="Fill-1008" fill="#1DD4FF"></path>
                <path d="M28.5260161,80.988898 C28.7150161,80.857898 28.9010161,80.756898 29.1260161,80.759898 C29.6880161,80.765898 30.1600161,81.369898 30.1950161,82.089898 C30.2290161,82.787898 29.7330161,83.393898 29.1550161,83.419898 C28.6150161,83.442898 27.9960161,82.881898 28.0380161,82.182898 C28.0660161,81.718898 28.1530161,81.242898 28.5260161,80.988898" id="Fill-1010" fill="#1DD4FF"></path>
                <path d="M22.0846161,72.920598 C22.7406161,72.458598 23.3816161,72.100598 24.1606161,72.114598 C26.1056161,72.134598 27.7426161,74.266598 27.8636161,76.806598 C27.9786161,79.273598 26.2626161,81.410598 24.2646161,81.503598 C22.3936161,81.582598 20.2486161,79.602598 20.3946161,77.136598 C20.4916161,75.500598 20.7946161,73.819598 22.0846161,72.920598" id="Fill-1012" fill="#1DD4FF"></path>
            </g>
        </g>
    </g>
</svg>