<?xml version="1.0" encoding="UTF-8"?>
<svg width="91px" height="116px" viewBox="0 0 91 116" version="1.1" xmlns="http://www.w3.org/2000/svg" xmlns:xlink="http://www.w3.org/1999/xlink">
    <title>Sidekick_5_b</title>
    <defs>
        <polygon id="path-1" points="0.0178928112 0.356 19.2089841 0.356 19.2089841 24.2305301 0.0178928112 24.2305301"></polygon>
    </defs>
    <g id="Student-Environmrnt---New-Treatment" stroke="none" stroke-width="1" fill="none" fill-rule="evenodd">
        <g id="Avatars" transform="translate(-1136.000000, -321.000000)">
            <g id="Sidekick_5_b" transform="translate(1136.521460, 321.000000)">
                <path d="M31.26464,104.6793 C29.62464,102.7873 29.60764,100.2753 28.79164,98.0213 C28.20764,96.4083 28.07364,91.7623 23.83064,92.0483 C19.24064,92.3583 16.84264,96.5263 15.33264,98.9033 C12.90164,102.7343 12.18164,107.0683 14.94664,110.8523 C20.09664,117.8983 37.29664,111.6383 31.26464,104.6793" id="Fill-1014" fill="#009CD3"></path>
                <path d="M17.14454,110.6119 C16.56054,109.5369 14.50354,109.9229 13.36654,110.4919 C12.10154,110.7479 11.07154,111.2329 11.02154,112.2039 C10.99654,112.6749 11.43654,113.1349 12.05354,113.3699 C12.93054,113.7019 13.83854,113.5429 14.58154,113.1579 C14.80854,113.0409 14.98554,112.9099 15.14254,112.7439 C15.14454,112.7429 15.14454,112.7429 15.14654,112.7399 C15.16854,112.7289 15.19154,112.7159 15.23154,112.6909 C15.35954,112.6089 15.50254,112.5359 15.64154,112.4619 C15.87654,112.3089 16.03954,112.1289 16.12854,111.9209 C16.13454,111.9079 16.13654,111.9039 16.14154,111.8939 C16.15654,111.8739 16.16854,111.8559 16.17554,111.8449 C16.19654,111.8339 16.22354,111.8159 16.27254,111.7799 C16.44354,111.6569 16.59854,111.5589 16.75054,111.4199 C16.57754,111.5779 17.00154,111.1979 17.02254,111.1989 C17.15854,111.0339 17.24354,110.7929 17.14454,110.6119" id="Fill-1016" fill="#00C9FF"></path>
                <path d="M17.00294,111.2261 C17.01994,111.2061 17.02394,111.1991 17.02294,111.1991 C17.01494,111.2071 17.00994,111.2181 17.00294,111.2261" id="Fill-1018" fill="#09987C"></path>
                <path d="M18.26364,111.5875 C17.08564,112.0485 16.02664,112.7545 16.07064,113.7185 C16.09564,114.2425 16.60664,114.7085 17.40164,114.8495 C18.26464,115.0025 19.48364,114.6645 19.62864,114.0305 C19.70464,113.6965 19.68964,113.4175 19.68964,113.0885 C19.68964,113.0525 19.71464,112.7035 19.68164,112.8475 C19.70064,112.7655 19.72064,112.6235 19.76964,112.5635 C20.27064,111.9505 19.24464,111.2035 18.26364,111.5875" id="Fill-1020" fill="#00C9FF"></path>
                <path d="M25.90034,112.523 C25.83034,112.405 25.72134,112.303 25.58934,112.211 C25.60434,112.217 25.58034,112.188 25.50434,112.11 C25.35834,111.943 25.21434,111.787 24.99834,111.652 C24.51734,111.354 23.77434,111.354 23.29534,111.652 C23.12634,111.757 22.99434,111.873 22.87934,112.004 C22.81934,112.076 22.75734,112.146 22.69634,112.216 C22.87934,112.075 22.80434,112.14 22.47034,112.412 C22.14534,112.872 21.81334,113.369 21.87534,113.888 C21.96934,114.687 22.83634,115.358 24.14634,115.358 C25.45734,115.358 26.32334,114.687 26.41834,113.888 C26.47434,113.409 26.19234,112.951 25.90034,112.523" id="Fill-1022" fill="#00C9FF"></path>
                <path d="M61.41014,104.3292 C63.04914,102.4372 63.06714,99.9252 63.88314,97.6712 C64.46714,96.0582 64.60114,91.4122 68.84414,91.6982 C73.43414,92.0082 75.83214,96.1772 77.34214,98.5532 C79.77314,102.3842 80.49314,106.7192 77.72714,110.5022 C72.57814,117.5482 55.37814,111.2892 61.41014,104.3292" id="Fill-1024" fill="#009CD3"></path>
                <path d="M76.52144,110.2623 C77.10544,109.1873 79.16244,109.5733 80.29944,110.1423 C81.56444,110.3973 82.59344,110.8823 82.64444,111.8543 C82.66844,112.3253 82.22944,112.7843 81.61244,113.0203 C80.73544,113.3513 79.82744,113.1923 79.08444,112.8083 C78.85744,112.6913 78.68044,112.5603 78.52244,112.3943 C78.52144,112.3923 78.52144,112.3923 78.51944,112.3903 C78.49744,112.3783 78.47444,112.3653 78.43444,112.3403 C78.30544,112.2583 78.16344,112.1863 78.02444,112.1123 C77.78944,111.9593 77.62644,111.7783 77.53744,111.5703 C77.53144,111.5583 77.52844,111.5543 77.52444,111.5443 C77.50944,111.5243 77.49644,111.5063 77.49044,111.4953 C77.46944,111.4843 77.44244,111.4663 77.39344,111.4303 C77.22244,111.3063 77.06744,111.2093 76.91444,111.0703 C77.08844,111.2283 76.66444,110.8483 76.64344,110.8493 C76.50744,110.6843 76.42244,110.4433 76.52144,110.2623" id="Fill-1026" fill="#00C9FF"></path>
                <path d="M76.66304,110.8765 C76.64604,110.8565 76.64104,110.8495 76.64304,110.8495 C76.65104,110.8575 76.65504,110.8685 76.66304,110.8765" id="Fill-1028" fill="#09987C"></path>
                <path d="M74.90724,111.2379 C76.08524,111.6989 77.14324,112.4049 77.09924,113.3679 C77.07424,113.8919 76.56324,114.3579 75.76824,114.4999 C74.90624,114.6529 73.68624,114.3139 73.54124,113.6809 C73.46524,113.3469 73.48124,113.0679 73.48124,112.7379 C73.48124,112.7029 73.45524,112.3539 73.48824,112.4969 C73.47024,112.4149 73.45024,112.2739 73.40024,112.2139 C72.89924,111.5999 73.92624,110.8539 74.90724,111.2379" id="Fill-1030" fill="#00C9FF"></path>
                <path d="M67.27044,112.1729 C67.33944,112.0549 67.44844,111.9529 67.58044,111.8619 C67.56544,111.8679 67.59044,111.8379 67.66644,111.7609 C67.81144,111.5929 67.95544,111.4379 68.17244,111.3019 C68.65244,111.0039 69.39644,111.0039 69.87444,111.3019 C70.04344,111.4079 70.17644,111.5229 70.29044,111.6549 C70.35044,111.7259 70.41244,111.7969 70.47344,111.8659 C70.29044,111.7249 70.36544,111.7899 70.69944,112.0629 C71.02444,112.5229 71.35744,113.0189 71.29544,113.5379 C71.20144,114.3369 70.33344,115.0079 69.02344,115.0079 C67.71344,115.0079 66.84644,114.3369 66.75144,113.5379 C66.69544,113.0589 66.97844,112.6009 67.27044,112.1729" id="Fill-1032" fill="#00C9FF"></path>
                <path d="M56.08694,70.3497 C56.08694,76.1117 52.64394,80.7837 48.39694,80.7837 C44.14894,80.7837 40.70694,76.1117 40.70694,70.3497 C40.70694,64.5877 44.14894,59.9157 48.39694,59.9157 C52.64394,59.9157 56.08694,64.5877 56.08694,70.3497" id="Fill-1034" fill="#1B1464"></path>
                <path d="M47.06934,23.7681 C46.87834,23.9681 45.74934,21.3181 45.65234,20.9931 C45.45234,20.3131 45.35534,19.6191 45.31534,18.9201 C45.23634,17.5681 45.56134,16.2421 46.12434,15.0021 C47.15634,12.7281 49.30934,11.0371 51.68034,9.9521 C54.08734,8.8511 56.83134,8.6001 59.49634,8.8141 C62.62334,9.0631 67.23634,10.5951 68.19634,13.5771 C68.59134,14.8061 67.39434,15.9371 66.02734,15.6631 C64.46034,15.3481 63.06034,14.2801 61.59234,13.6931 C60.88034,13.4081 59.86434,13.1941 58.86734,13.0731 C57.29434,12.8801 55.55134,13.1311 53.95334,13.6981 C52.30934,14.2811 50.92834,15.3371 50.15934,16.7861 C49.16834,18.6511 49.77034,20.5591 50.11834,22.5021 C50.21634,23.0531 49.77434,23.6671 49.29134,23.9481 C49.00834,24.1091 48.70034,24.1951 48.36534,24.2061026 C48.29034,24.2071 46.92034,23.9241 47.06934,23.7681" id="Fill-1036" fill="#009CD3"></path>
                <path d="M16.50294,95.7691 C19.72394,102.2321 32.18594,105.0541 50.32094,103.9001 C63.43594,103.0661 70.79694,100.5641 74.93894,94.3101 C79.07894,88.0551 79.88494,65.0201 78.97194,60.2501 C77.90494,54.6741 76.24294,49.0921 73.77194,43.8351 C69.55894,34.8731 62.54894,24.3881 49.97194,21.6701 C41.87994,19.9211 33.34594,21.7501 27.45694,26.8061 C21.11494,32.2481 17.90494,39.3901 15.67394,46.3921 C13.22694,54.0791 12.10294,62.0381 11.61794,69.8941 C11.41194,73.2331 11.32594,76.5741 11.44194,79.9081 C11.57894,83.8021 12.85994,88.4591 16.50294,95.7691" id="Fill-1038" fill="#00C9FF"></path>
                <g id="Group-1042" transform="translate(27.478540, 0.000000)">
                    <mask id="mask-2" fill="white">
                        <use xlink:href="#path-1"></use>
                    </mask>
                    <g id="Clip-1041"></g>
                    <path d="M18.3378,23.1807 C20.4318,17.5027 18.5448,10.0487 14.8748,5.1877 C13.3478,3.1617 11.2618,1.6167 8.9208,0.8367 C6.0418,-0.1213 2.2378,0.2687 0.3528,2.7527 C-0.4922,3.8667 0.3598,5.9017 1.8138,5.9697 C3.3048,6.0407 4.8198,5.5437 6.3178,5.5017 C6.6038,5.4937 7.4108,5.5927 8.0028,5.8067 C9.3068,6.2837 10.3458,7.2367 11.2458,8.3047 C14.2828,11.9097 15.6508,17.5357 14.8818,22.1397 C14.5358,24.2097 17.6398,25.0757 18.3378,23.1807" id="Fill-1040" fill="#00C9FF" mask="url(#mask-2)"></path>
                </g>
                <path d="M78.10744,89.6553 C80.39044,92.4623 81.63444,95.2943 84.21744,97.5053 C86.43144,99.4043 89.77744,95.3373 89.26044,92.0373 C87.90944,83.3863 82.82544,77.4763 77.52144,74.7113 C74.07144,72.9133 67.93044,76.3583 72.31844,83.1263 C72.31844,83.1263 76.23644,87.3593 78.10744,89.6553" id="Fill-1043" fill="#009CD3"></path>
                <path d="M6.79193999,80.7545 C3.83993999,85.0655 0.203939987,90.2535 0.00393998666,95.7855 C-0.166060013,100.5025 5.20793999,101.9395 7.84893999,98.7235 C9.89193999,96.2345 10.63394,92.5835 12.67094,90.1205 C16.65994,85.2965 19.28694,79.1635 15.83894,76.8895 C11.80494,74.2285 8.59093999,78.1285 6.79193999,80.7545" id="Fill-1045" fill="#009CD3"></path>
                <path d="M83.91994,96.0367 C83.71394,97.1587 83.34894,98.3067 82.72494,99.2297 C81.61894,100.8697 79.55994,98.9867 80.67494,97.3567 C81.16994,96.6377 81.54894,95.8277 81.98694,95.0597 C82.26394,94.5737 82.76794,94.3227 83.23294,94.4717 C83.83994,94.6657 84.04794,95.3497 83.91994,96.0367" id="Fill-1047" fill="#00C9FF"></path>
                <path d="M88.16894,99.9346 C88.21794,100.2456 88.26294,100.5316 88.23094,100.8296 C88.09994,101.7726 87.61794,102.0946 86.78994,101.7916 C86.63994,101.6556 86.48894,101.5086 86.34194,101.3616 C85.45394,100.4886 84.95194,98.5866 84.76494,97.1136 C84.61294,95.9316 85.07294,95.6846 86.11194,96.3296 C87.15094,96.9736 88.06394,99.2556 88.16894,99.9346" id="Fill-1049" fill="#00C9FF"></path>
                <path d="M11.14944,94.2549 C11.21244,94.5819 12.32644,95.1899 12.71144,95.4629 C12.96144,95.6399 13.20944,95.8219 13.44044,96.0169 C14.15844,96.6259 14.07344,97.7789 13.40744,98.4009 C12.69244,99.0729 11.58644,99.0349 10.88544,98.4109 C10.44144,98.0129 9.92943999,97.6689 9.54643999,97.2129 C8.78743999,96.2969 8.58543999,95.4929 8.58243707,94.3329 C8.57943999,92.8899 10.89044,92.9529 11.14944,94.2549" id="Fill-1055" fill="#00C9FF"></path>
                <path d="M8.37593999,97.9971 C8.72193999,99.1491 8.98693999,99.4341 9.34793999,100.6171 C10.05394,102.9311 7.92693999,104.4231 6.72893999,103.2171 C5.39493999,101.8731 5.92393999,100.1511 5.71093999,98.4911 C5.52193999,97.0281 7.95993999,96.6241 8.37593999,97.9971" id="Fill-1057" fill="#00C9FF"></path>
                <path d="M4.53413999,98.5904 C4.42313999,99.6854 3.97213999,100.7324 3.49013999,101.7234 C2.84813999,103.0274 0.676139987,102.6154 0.914139987,101.1264 C1.08013999,100.0844 1.74913999,99.2214 1.97313999,98.2004 C2.28613999,96.7904 4.68113999,97.1924 4.53413999,98.5904" id="Fill-1059" fill="#00C9FF"></path>
                <path d="M32.89064,43.2725 C29.03364,38.2435 30.06364,31.9335 34.38864,27.5765 C37.27264,24.9625 42.01064,22.9975 45.85664,23.8685 C53.06664,25.6115 59.58964,33.1335 56.22564,40.1025 C59.58964,38.3585 63.64064,38.6785 67.48664,40.3725 C68.39464,40.7595 69.23564,41.2815 69.96964,41.9405 C70.70464,42.6005 71.33064,43.3975 71.81264,44.3415 C75.17664,50.8765 73.25464,60.4595 64.12064,61.7655 C59.79464,62.4215 55.34964,60.6785 52.46464,57.7915 C51.50464,56.8285 50.71564,55.7375 50.16564,54.5635 C49.22064,51.7475 48.74064,49.1335 50.18164,46.9555 C47.29764,48.6985 43.83764,49.5245 41.17764,48.6925 C43.25564,50.1895 43.33864,52.6835 43.25564,55.0945 C43.18464,57.1735 41.34364,63.9895 36.24364,65.6875 C33.35864,66.5585 30.47464,66.5585 27.63764,65.5365 C26.29564,65.0635 25.01964,64.3945 23.87264,63.5975 C22.72364,62.8015 21.70264,61.8765 20.86164,60.8955 C17.97764,57.6295 17.79664,53.1365 19.79964,49.5695 C20.46664,48.3805 21.37664,47.2935 22.50964,46.3915 C23.95464,45.1775 25.66064,44.2145 27.45564,43.6365 C29.25264,43.0575 31.12864,42.8795 32.89064,43.2725" id="Fill-1063" fill="#009CD3"></path>
                <path d="M32.04584,31.0992 C32.89484,30.8262 33.37084,30.0842 32.98884,29.2462 C32.88384,29.0162 32.71184,28.8862 32.51084,28.7412 C32.89284,29.0152 32.42484,28.6742 32.29984,28.5792 C32.24884,28.5412 32.04584,28.3912 32.16284,28.4912 C32.00684,28.3622 31.85184,28.2312 31.68784,28.1112 C31.67284,28.0992 31.65384,28.0832 31.62884,28.0622 C31.53784,27.9862 31.44784,27.9072 31.35984,27.8272 C31.08984,27.5842 30.81484,27.3662 30.48984,27.1932 C29.84984,26.8512 29.05784,26.9072 28.51184,27.4222 C27.82784,28.0672 27.90484,28.9952 28.45784,29.6652 C28.94684,30.2592 29.82984,30.8162 30.59184,31.0312 C31.04684,31.1592 31.58284,31.2482 32.04584,31.0992" id="Fill-1065" fill="#009CD3"></path>
                <path d="M32.00194,34.2261 C32.57794,33.5461 32.59094,32.6641 31.82394,32.1551 C31.61194,32.0151 31.39794,31.9951 31.15094,31.9781 C31.61994,32.0091 31.04194,31.9671 30.88694,31.9531 C30.82294,31.9471 30.57094,31.9271 30.72394,31.9501 C30.52294,31.9231 30.32194,31.8941 30.11894,31.8781 C30.09994,31.8751 30.07594,31.8721 30.04394,31.8681 C29.92594,31.8521 29.80894,31.8311 29.69094,31.8101 C29.33294,31.7471 28.98394,31.7071 28.61794,31.7311 C27.89394,31.7801 27.24994,32.2451 27.05894,32.9701 C26.81794,33.8801 27.37394,34.6271 28.19694,34.9041 C28.92694,35.1491 29.97094,35.1571 30.73094,34.9361 C31.18494,34.8051 31.68794,34.5981 32.00194,34.2261" id="Fill-1067" fill="#009CD3"></path>
                <path d="M19.99314,53.7188 C20.53214,53.0098 20.49814,52.1278 19.70514,51.6598 C19.48614,51.5308 19.27114,51.5228 19.02314,51.5198 C19.49314,51.5258 18.91414,51.5138 18.75814,51.5078 C18.69414,51.5058 18.44214,51.4998 18.59514,51.5138 C18.39214,51.4978 18.19114,51.4798 17.98714,51.4748 C17.96814,51.4728 17.94414,51.4708 17.91214,51.4688 C17.79314,51.4588 17.67514,51.4448 17.55614,51.4298 C17.19514,51.3858 16.84514,51.3648 16.48014,51.4078 C15.76014,51.4948 15.14114,51.9938 14.98914,52.7288 C14.79814,53.6498 15.39314,54.3658 16.22914,54.5978 C16.97214,54.8048 18.01414,54.7568 18.76214,54.4958 C19.20814,54.3398 19.69814,54.1068 19.99314,53.7188" id="Fill-1069" fill="#009CD3"></path>
                <path d="M71.50584,45.5333 C70.81884,44.9673 70.64884,44.1013 71.31184,43.4633 C71.49484,43.2883 71.70184,43.2303 71.94284,43.1703 C71.48584,43.2833 72.04784,43.1393 72.19784,43.0973 C72.25984,43.0803 72.50284,43.0163 72.35784,43.0653 C72.55084,43.0033 72.74184,42.9383 72.94084,42.8873 C72.95784,42.8813 72.98084,42.8733 73.01184,42.8633 C73.12484,42.8263 73.23684,42.7853 73.34884,42.7433 C73.68984,42.6173 74.02584,42.5163 74.39084,42.4743 C75.11184,42.3933 75.82784,42.7353 76.14684,43.4153 C76.54484,44.2673 76.13084,45.1023 75.37084,45.5203 C74.69584,45.8923 73.67084,46.0863 72.88384,46.0053 C72.41284,45.9563 71.88184,45.8423 71.50584,45.5333" id="Fill-1071" fill="#009CD3"></path>
                <path d="M20.79584,50.2686 C21.64084,49.9866 22.10884,49.2386 21.71884,48.4056 C21.60984,48.1766 21.43784,48.0476 21.23484,47.9056 C21.61884,48.1756 21.14784,47.8396 21.02284,47.7466 C20.97084,47.7086 20.76584,47.5606 20.88484,47.6596 C20.72684,47.5326 20.56984,47.4036 20.40384,47.2846 C20.38984,47.2716 20.37084,47.2576 20.34584,47.2366 C20.25284,47.1616 20.16284,47.0826 20.07384,47.0046 C19.80084,46.7646 19.52384,46.5496 19.19684,46.3796 C18.55284,46.0456 17.76184,46.1086 17.22184,46.6296 C16.54484,47.2836 16.63184,48.2106 17.19184,48.8736 C17.68884,49.4616 18.57684,50.0106 19.34084,50.2156 C19.79784,50.3386 20.33384,50.4226 20.79584,50.2686" id="Fill-1073" fill="#009CD3"></path>
                <path d="M69.62404,42.6617 C68.73604,42.5817 68.10704,41.9627 68.29604,41.0617 C68.34904,40.8137 68.48704,40.6487 68.65104,40.4637 C68.34004,40.8147 68.72104,40.3787 68.82104,40.2597 C68.86304,40.2107 69.02804,40.0197 68.93604,40.1427 C69.06004,39.9827 69.18304,39.8217 69.31604,39.6677 C69.32804,39.6517 69.34204,39.6337 69.36204,39.6077 C69.43504,39.5137 69.50404,39.4157 69.57204,39.3187 C69.78404,39.0227 70.00404,38.7487 70.28204,38.5087 C70.83204,38.0347 71.61704,37.9137 72.26304,38.2967 C73.07104,38.7757 73.20004,39.6987 72.80904,40.4727 C72.46204,41.1597 71.72304,41.8977 71.02704,42.2747 C70.61104,42.4997 70.10804,42.7047 69.62404,42.6617" id="Fill-1075" fill="#009CD3"></path>
                <path d="M55.49804,31.0992 C54.64904,30.8262 54.17304,30.0842 54.55604,29.2462 C54.66104,29.0162 54.83204,28.8862 55.03304,28.7412 C54.65104,29.0152 55.12004,28.6742 55.24404,28.5792 C55.29504,28.5412 55.49804,28.3912 55.38104,28.4912 C55.53704,28.3622 55.69204,28.2312 55.85704,28.1112 C55.87204,28.0992 55.89004,28.0832 55.91504,28.0622 C56.00704,27.9862 56.09604,27.9072 56.18404,27.8272 C56.45504,27.5842 56.73004,27.3662 57.05404,27.1932 C57.69504,26.8512 58.48604,26.9072 59.03204,27.4222 C59.71704,28.0672 59.64004,28.9952 59.08704,29.6652 C58.59704,30.2592 57.71404,30.8162 56.95204,31.0312 C56.49704,31.1592 55.96204,31.2482 55.49804,31.0992" id="Fill-1077" fill="#009CD3"></path>
                <path d="M56.55764,34.1353 C55.85464,33.5893 55.65964,32.7293 56.30364,32.0723 C56.48264,31.8913 56.68764,31.8273 56.92564,31.7603 C56.47364,31.8873 57.03064,31.7263 57.17964,31.6803 C57.24064,31.6613 57.48264,31.5903 57.33764,31.6433 C57.52964,31.5753 57.71864,31.5063 57.91464,31.4483 C57.93364,31.4423 57.95464,31.4343 57.98664,31.4233 C58.09864,31.3833 58.20864,31.3383 58.31964,31.2933 C58.65664,31.1583 58.99064,31.0473 59.35364,30.9943 C60.07264,30.8923 60.79764,31.2143 61.13464,31.8843 C61.55764,32.7243 61.16864,33.5713 60.42064,34.0113 C59.75764,34.4033 58.73764,34.6253 57.94864,34.5673 C57.47664,34.5323 56.94364,34.4333 56.55764,34.1353" id="Fill-1079" fill="#009CD3"></path>
                <path d="M71.28704,49.0421 C71.52204,50.7711 71.52204,53.0161 68.47804,57.0341 C66.96304,59.0351 64.21904,59.9331 61.60004,60.0371 C59.87704,60.1001 58.24904,59.7711 56.71304,59.0531 C56.02404,58.6171 55.33504,58.1841 54.64604,57.7471 C51.40304,54.7621 50.96604,51.8491 50.86104,50.7301 C50.38004,45.5961 54.57604,40.9311 60.15804,40.4701 C62.85504,40.2461 65.57004,41.0301 67.64804,42.6301 C68.24204,43.2211 68.83604,43.8131 69.43004,44.4041 C70.49704,45.7961 71.11504,47.3431 71.28704,49.0421" id="Fill-1081" fill="#FFFFFF"></path>
                <path d="M66.16604,51.251 C66.08704,53.099 65.37604,54.644 64.03304,55.889 C63.25104,56.559 62.33604,57.009 61.28604,57.235 C59.29304,57.654 57.14304,57.075 55.72604,55.736 C54.98304,55.027 54.17804,53.567 54.12304,53.457 C54.10704,53.422 54.09204,53.391 54.07604,53.358 C53.72204,52.394 53.65704,51.414 53.88004,50.42 C54.10604,49.46 54.57204,48.606 55.28104,47.862 C56.73904,46.347 59.05204,45.641 61.22404,46.051 C62.28404,46.256 63.22504,46.679 64.04704,47.32 C64.40104,47.686 64.75704,48.049 65.11104,48.415 C65.74404,49.274 66.09504,50.22 66.16604,51.251" id="Fill-1083" fill="#000000"></path>
                <path d="M38.88084,61.3399 C37.27184,63.1869 34.68984,64.1459 32.10984,64.2509 C30.41584,64.3079 28.81284,63.9899 27.29984,63.2939 C26.62084,62.8739 25.94284,62.4509 25.26584,62.0299 C23.97484,60.9759 23.05784,59.6959 22.51784,58.1949 C21.79384,57.1189 21.64184,56.3179 21.53884,55.2339 C21.06584,50.2619 25.19584,45.7409 30.69084,45.2949 C33.34584,45.0779 36.01784,45.8369 38.06284,47.3869 C38.64884,47.9599 39.23384,48.5329 39.81784,49.1069 C40.86784,50.4549 43.08984,56.5079 38.88084,61.3399" id="Fill-1085" fill="#FFFFFF"></path>
                <path d="M37.22554,50.5338 C36.84154,50.1408 36.45854,49.7478 36.07554,49.3548 C35.19054,48.6618 34.17854,48.2068 33.03554,47.9878 C30.69454,47.5448 28.20254,48.3038 26.63254,49.9388 C25.86954,50.7398 25.36554,51.6598 25.12154,52.6938 C24.88054,53.7668 24.71654,54.1698 25.29854,55.7908 C25.67254,56.7988 26.31254,57.6588 27.11054,58.4228 C28.63754,59.8648 30.95354,60.4898 33.10354,60.0368 C34.23154,59.7928 35.21854,59.3098 36.06154,58.5848 C37.50854,57.2438 38.27454,55.5778 38.35854,53.5888 C38.28254,52.4788 37.90554,51.4598 37.22554,50.5338" id="Fill-1087" fill="#000000"></path>
                <path d="M53.69134,34.1534 C53.50834,35.4334 53.32834,36.7164 53.14734,37.9974 C52.77134,39.5094 52.01634,40.8464 50.88234,42.0074 C49.13734,43.7804 46.62434,44.8564 44.00434,44.9594 C42.28234,45.0204 40.65234,44.6964 39.11734,43.9914 C38.42934,43.5634 37.74034,43.1354 37.05034,42.7074 C35.73934,41.6384 34.75234,39.9154 34.25934,38.8174 C33.76834,37.7194 33.36934,36.9104 33.26534,35.8124 C32.78334,30.7664 36.98134,26.1794 42.56234,25.7274 C45.26034,25.5074 47.97434,26.2784 50.05134,27.8514 C50.64634,28.4314 51.24134,29.0134 51.83534,29.5944 C52.90134,30.9634 53.52034,32.4824 53.69134,34.1534" id="Fill-1089" fill="#FFFFFF"></path>
                <path d="M50.11714,36.0035 C50.04314,37.7435 49.37314,39.1995 48.10714,40.3735 C47.36914,41.0055 46.50814,41.4295 45.52014,41.6425 C43.64114,42.0375 41.55414,41.5545 40.28114,40.2305 C38.80214,38.6915 38.33114,36.1575 38.54214,35.2215 C38.75514,34.3155 39.19414,33.5115 39.86214,32.8115 C41.23514,31.3825 43.41314,30.7175 45.46114,31.1055 C46.46114,31.2975 47.34614,31.6965 48.11914,32.3005 C48.45514,32.6445 48.78914,32.9875 49.12514,33.3315 C49.72014,34.1415 50.05114,35.0315 50.11714,36.0035" id="Fill-1091" fill="#000000"></path>
                <path d="M20.84274,55.6153 C20.79374,55.6173 20.74774,55.6153 20.70274,55.6113 C21.36974,65.6613 39.12274,68.4533 41.86574,57.2383 C42.02674,56.5873 42.11574,55.9573 42.14874,55.3503 C35.04374,55.2883 27.93374,55.1093 20.84274,55.6153" id="Fill-1093" fill="#009CD3"></path>
                <path d="M32.92574,37.6583 C32.87674,37.6603 32.82974,37.6573 32.78474,37.6543 C33.45174,47.7043 51.20474,50.4963 53.94874,39.2813 C54.10874,38.6303 54.19774,38.0003 54.23074,37.3933 C47.12574,37.3313 40.01674,37.1523 32.92574,37.6583" id="Fill-1095" fill="#009CD3"></path>
                <path d="M51.61424,53.9605 C51.56724,53.9725 51.52224,53.9785 51.47824,53.9845 C54.14524,63.6925 71.86124,62.8565 72.25624,51.3195 C72.27924,50.6495 72.23924,50.0145 72.14824,49.4145 C65.27024,50.7825 58.36424,52.0375 51.61424,53.9605" id="Fill-1097" fill="#009CD3"></path>
                <path d="M37.33004,66.2701 C35.26704,68.7161 38.07804,77.0801 46.72704,77.4071 C55.37804,77.7361 59.61804,69.6561 58.11004,66.2801 C57.49104,64.8961 54.13304,67.3001 47.57904,67.1491 C41.02404,66.9961 39.48704,63.7131 37.33004,66.2701" id="Fill-1099" fill="#992897"></path>
                <path d="M43.76074,71.6104 C44.55274,70.0784 45.70474,69.4004 46.92474,69.2024 C50.14774,68.6814 53.36574,70.4384 56.50974,72.8684 C58.24374,70.5474 59.42674,67.4434 58.11074,66.2804 C54.45174,63.0474 52.56774,66.7054 47.57874,67.0384 C42.81874,67.3554 39.32174,63.4914 37.32974,66.2704 C35.52474,68.7894 37.50674,74.0194 42.14374,76.3194 C42.60974,74.6564 43.06574,72.9564 43.76074,71.6104" id="Fill-1101" fill="#1B1464"></path>
                <path d="M39.12694,65.209 C38.69194,65.347 39.23894,70.356 41.92194,70.119 C44.60494,69.882 43.92794,66.683 43.36694,66.401 C42.80694,66.118 39.56194,65.071 39.12694,65.209" id="Fill-1103" fill="#F9F9F9"></path>
                <path d="M17.66404,67.128 C18.12804,66.855 18.58004,66.642 19.13204,66.65 C20.50604,66.662 21.66204,67.926 21.74804,69.432 C21.82904,70.894 20.61604,72.161 19.20404,72.216 C17.88304,72.263 16.36704,71.089 16.47004,69.627 C16.53804,68.657 16.75304,67.661 17.66404,67.128" id="Fill-1105" fill="#1DD4FF"></path>
                <path d="M67.48144,81.2232 C67.93344,80.8762 68.37544,80.6062 68.91244,80.6172 C70.25244,80.6322 71.37844,82.2362 71.46244,84.1462 C71.54244,86.0012 70.35944,87.6092 68.98344,87.6792 C67.69444,87.7382 66.21644,86.2492 66.31744,84.3942 C66.38344,83.1632 66.59244,81.8992 67.48144,81.2232" id="Fill-1107" fill="#1DD4FF"></path>
                <path d="M62.04104,92.2584 C62.31704,92.0664 62.58904,91.9174 62.91804,91.9234 C63.73804,91.9314 64.43004,92.8184 64.48104,93.8744 C64.52904,94.9004 63.80504,95.7884 62.96104,95.8274 C62.17104,95.8604 61.26604,95.0364 61.32704,94.0114 C61.36804,93.3314 61.49604,92.6324 62.04104,92.2584" id="Fill-1109" fill="#1DD4FF"></path>
                <path d="M25.90034,81.6768 C26.08934,81.5458 26.27434,81.4448 26.50034,81.4478 C27.06134,81.4538 27.53434,82.0578 27.56934,82.7778 C27.60234,83.4758 27.10734,84.0818 26.53034,84.1078 C25.98934,84.1308 25.37034,83.5698 25.41234,82.8708 C25.43934,82.4068 25.52734,81.9308 25.90034,81.6768" id="Fill-1111" fill="#1DD4FF"></path>
                <path d="M19.45894,73.6085 C20.11494,73.1465 20.75594,72.7885 21.53494,72.8025 C23.47994,72.8225 25.11594,74.9545 25.23794,77.4945 C25.35294,79.9615 23.63694,82.0985 21.63894,82.1915 C19.76794,82.2705 17.62294,80.2905 17.76894,77.8245 C17.86494,76.1885 18.16894,74.5075 19.45894,73.6085" id="Fill-1113" fill="#1DD4FF"></path>
            </g>
        </g>
    </g>
</svg>