<?xml version="1.0" encoding="UTF-8"?>
<svg width="97px" height="116px" viewBox="0 0 97 116" version="1.1" xmlns="http://www.w3.org/2000/svg" xmlns:xlink="http://www.w3.org/1999/xlink">
    <title>Sidekick_5_c</title>
    <defs>
        <polygon id="path-1" points="0.892376875 0.356 20.0836236 0.356 20.0836236 24.2305301 0.892376875 24.2305301"></polygon>
    </defs>
    <g id="Student-Environmrnt---New-Treatment" stroke="none" stroke-width="1" fill="none" fill-rule="evenodd">
        <g id="Avatars" transform="translate(-1241.000000, -321.000000)">
            <g id="Sidekick_5_c" transform="translate(1241.658906, 321.000000)">
                <path d="M34.0021938,104.6793 C32.3621938,102.7873 32.3441938,100.2753 31.5281938,98.0213 C30.9451938,96.4083 30.8101938,91.7623 26.5671938,92.0483 C21.9771938,92.3583 19.5791938,96.5263 18.0701938,98.9033 C15.6391938,102.7343 14.9191938,107.0683 17.6841938,110.8523 C22.8331938,117.8983 40.0341938,111.6383 34.0021938,104.6793" id="Fill-1115" fill="#009CD3"></path>
                <path d="M19.8810938,110.6119 C19.2970938,109.5369 17.2410938,109.9229 16.1030938,110.4919 C14.8390938,110.7479 13.8090938,111.2329 13.7580938,112.2039 C13.7340938,112.6749 14.1730938,113.1349 14.7910938,113.3699 C15.6680938,113.7019 16.5750938,113.5429 17.3180938,113.1579 C17.5460938,113.0409 17.7220938,112.9099 17.8800938,112.7439 C17.8820938,112.7429 17.8820938,112.7429 17.8840938,112.7399 C17.9050938,112.7289 17.9290938,112.7159 17.9680938,112.6909 C18.0970938,112.6089 18.2400938,112.5359 18.3780938,112.4619 C18.6130938,112.3089 18.7760938,112.1289 18.8660938,111.9209 C18.8710938,111.9079 18.8740938,111.9039 18.8790938,111.8939 C18.8940938,111.8739 18.9060938,111.8559 18.9130938,111.8449 C18.9330938,111.8339 18.9600938,111.8159 19.0090938,111.7799 C19.1800938,111.6569 19.3360938,111.5589 19.4880938,111.4199 C19.3140938,111.5779 19.7390938,111.1979 19.7590938,111.1989 C19.8950938,111.0339 19.9810938,110.7929 19.8810938,110.6119" id="Fill-1117" fill="#00C9FF"></path>
                <path d="M19.7404938,111.2261 C19.7564938,111.2061 19.7614938,111.1991 19.7594938,111.1991 C19.7524938,111.2071 19.7474938,111.2181 19.7404938,111.2261" id="Fill-1119" fill="#09987C"></path>
                <path d="M21.0001938,111.5875 C19.8221938,112.0485 18.7631938,112.7545 18.8081938,113.7185 C18.8331938,114.2425 19.3441938,114.7085 20.1391938,114.8495 C21.0011938,115.0025 22.2211938,114.6645 22.3661938,114.0305 C22.4421938,113.6965 22.4261938,113.4175 22.4261938,113.0885 C22.4261938,113.0525 22.4511938,112.7035 22.4191938,112.8475 C22.4371938,112.7655 22.4571938,112.6235 22.5071938,112.5635 C23.0081938,111.9505 21.9811938,111.2035 21.0001938,111.5875" id="Fill-1121" fill="#00C9FF"></path>
                <path d="M28.6369938,112.523 C28.5679938,112.405 28.4589938,112.303 28.3269938,112.211 C28.3419938,112.217 28.3169938,112.188 28.2409938,112.11 C28.0959938,111.943 27.9519938,111.787 27.7349938,111.652 C27.2549938,111.354 26.5109938,111.354 26.0329938,111.652 C25.8639938,111.757 25.7309938,111.873 25.6169938,112.004 C25.5569938,112.076 25.4949938,112.146 25.4339938,112.216 C25.6169938,112.075 25.5419938,112.14 25.2069938,112.412 C24.8829938,112.872 24.5499938,113.369 24.6119938,113.888 C24.7059938,114.687 25.5729938,115.358 26.8839938,115.358 C28.1939938,115.358 29.0609938,114.687 29.1559938,113.888 C29.2119938,113.409 28.9289938,112.951 28.6369938,112.523" id="Fill-1123" fill="#00C9FF"></path>
                <path d="M64.1466938,104.3292 C65.7866938,102.4372 65.8046938,99.9252 66.6196938,97.6712 C67.2036938,96.0582 67.3386938,91.4122 71.5806938,91.6982 C76.1716938,92.0082 78.5696938,96.1772 80.0786938,98.5532 C82.5096938,102.3842 83.2296938,106.7192 80.4646938,110.5022 C75.3146938,117.5482 58.1146938,111.2892 64.1466938,104.3292" id="Fill-1125" fill="#009CD3"></path>
                <path d="M79.2589938,110.2623 C79.8429938,109.1873 81.8989938,109.5733 83.0369938,110.1423 C84.3009938,110.3973 85.3309938,110.8823 85.3819938,111.8543 C85.4059938,112.3253 84.9669938,112.7843 84.3489938,113.0203 C83.4719938,113.3513 82.5649938,113.1923 81.8219938,112.8083 C81.5939938,112.6913 81.4179938,112.5603 81.2599938,112.3943 C81.2579938,112.3923 81.2579938,112.3923 81.2559938,112.3903 C81.2349938,112.3783 81.2109938,112.3653 81.1719938,112.3403 C81.0429938,112.2583 80.8999938,112.1863 80.7619938,112.1123 C80.5269938,111.9593 80.3639938,111.7783 80.2739938,111.5703 C80.2689938,111.5583 80.2659938,111.5543 80.2609938,111.5443 C80.2459938,111.5243 80.2339938,111.5063 80.2269938,111.4953 C80.2069938,111.4843 80.1799938,111.4663 80.1309938,111.4303 C79.9599938,111.3063 79.8039938,111.2093 79.6519938,111.0703 C79.8259938,111.2283 79.4009938,110.8483 79.3809938,110.8493 C79.2449938,110.6843 79.1589938,110.4433 79.2589938,110.2623" id="Fill-1127" fill="#00C9FF"></path>
                <path d="M79.3996938,110.8765 C79.3836938,110.8565 79.3786938,110.8495 79.3806938,110.8495 C79.3876938,110.8575 79.3926938,110.8685 79.3996938,110.8765" id="Fill-1129" fill="#09987C"></path>
                <path d="M77.6437938,111.2379 C78.8217938,111.6989 79.8807938,112.4049 79.8367938,113.3679 C79.8117938,113.8919 79.3007938,114.3579 78.5057938,114.4999 C77.6427938,114.6529 76.4237938,114.3139 76.2777938,113.6809 C76.2017938,113.3469 76.2177938,113.0679 76.2177938,112.7379 C76.2177938,112.7029 76.1927938,112.3539 76.2257938,112.4969 C76.2067938,112.4149 76.1867938,112.2739 76.1377938,112.2139 C75.6357938,111.5999 76.6627938,110.8539 77.6437938,111.2379" id="Fill-1131" fill="#00C9FF"></path>
                <path d="M70.0070938,112.1729 C70.0770938,112.0549 70.1860938,111.9529 70.3180938,111.8619 C70.3030938,111.8679 70.3270938,111.8379 70.4030938,111.7609 C70.5490938,111.5929 70.6920938,111.4379 70.9090938,111.3019 C71.3900938,111.0039 72.1330938,111.0039 72.6120938,111.3019 C72.7810938,111.4079 72.9130938,111.5229 73.0280938,111.6549 C73.0880938,111.7259 73.1500938,111.7969 73.2110938,111.8659 C73.0280938,111.7249 73.1030938,111.7899 73.4370938,112.0629 C73.7620938,112.5229 74.0940938,113.0189 74.0320938,113.5379 C73.9380938,114.3369 73.0710938,115.0079 71.7610938,115.0079 C70.4500938,115.0079 69.5840938,114.3369 69.4890938,113.5379 C69.4330938,113.0589 69.7150938,112.6009 70.0070938,112.1729" id="Fill-1133" fill="#00C9FF"></path>
                <path d="M58.8234938,70.3497 C58.8234938,76.1117 55.3814938,80.7837 51.1344938,80.7837 C46.8864938,80.7837 43.4434938,76.1117 43.4434938,70.3497 C43.4434938,64.5877 46.8864938,59.9157 51.1344938,59.9157 C55.3814938,59.9157 58.8234938,64.5877 58.8234938,70.3497" id="Fill-1135" fill="#1B1464"></path>
                <path d="M49.8068938,23.7681 C49.6148938,23.9681 48.4868938,21.3181 48.3898938,20.9931 C48.1888938,20.3131 48.0918938,19.6191 48.0518938,18.9201 C47.9728938,17.5681 48.2988938,16.2421 48.8618938,15.0021 C49.8938938,12.7281 52.0468938,11.0371 54.4168938,9.9521 C56.8248938,8.8511 59.5678938,8.6001 62.2338938,8.8141 C65.3598938,9.0631 69.9738938,10.5951 70.9338938,13.5771 C71.3288938,14.8061 70.1308938,15.9371 68.7638938,15.6631 C67.1978938,15.3481 65.7978938,14.2801 64.3298938,13.6931 C63.6178938,13.4081 62.6008938,13.1941 61.6048938,13.0731 C60.0308938,12.8801 58.2888938,13.1311 56.6898938,13.6981 C55.0458938,14.2811 53.6648938,15.3371 52.8958938,16.7861 C51.9048938,18.6511 52.5078938,20.5591 52.8548938,22.5021 C52.9528938,23.0531 52.5118938,23.6671 52.0288938,23.9481 C51.7458938,24.1091 51.4378938,24.1951 51.1028938,24.2061026 C51.0268938,24.2071 49.6578938,23.9241 49.8068938,23.7681" id="Fill-1137" fill="#009CD3"></path>
                <path d="M19.2404938,95.7691 C22.4614938,102.2321 34.9234938,105.0541 53.0584938,103.9001 C66.1724938,103.0661 73.5344938,100.5641 77.6754938,94.3101 C81.8164938,88.0551 82.6224938,65.0201 81.7094938,60.2501 C80.6414938,54.6741 78.9794938,49.0921 76.5084938,43.8351 C72.2954938,34.8731 65.2864938,24.3881 52.7084938,21.6701 C44.6174938,19.9211 36.0834938,21.7501 30.1944938,26.8061 C23.8524938,32.2481 20.6414938,39.3901 18.4114938,46.3921 C15.9644938,54.0791 14.8404938,62.0381 14.3554938,69.8941 C14.1484938,73.2331 14.0624938,76.5741 14.1784938,79.9081 C14.3164938,83.8021 15.5964938,88.4591 19.2404938,95.7691" id="Fill-1139" fill="#00C9FF"></path>
                <g id="Group-1143" transform="translate(29.341094, 0.000000)">
                    <mask id="mask-2" fill="white">
                        <use xlink:href="#path-1"></use>
                    </mask>
                    <g id="Clip-1142"></g>
                    <path d="M19.2129,23.1807 C21.3059,17.5027 19.4199,10.0487 15.7489,5.1877 C14.2219,3.1617 12.1359,1.6167 9.7959,0.8367 C6.9169,-0.1213 3.1129,0.2687 1.2279,2.7527 C0.3819,3.8667 1.2339,5.9017 2.6879,5.9697 C4.1799,6.0407 5.6939,5.5437 7.1929,5.5017 C7.4789,5.4937 8.2859,5.5927 8.8769,5.8067 C10.1819,6.2837 11.2209,7.2367 12.1199,8.3047 C15.1569,11.9097 16.5259,17.5357 15.7569,22.1397 C15.4099,24.2097 18.5139,25.0757 19.2129,23.1807" id="Fill-1141" fill="#00C9FF" mask="url(#mask-2)"></path>
                </g>
                <path d="M80.8449938,89.6553 C83.1279938,92.4623 84.3709938,95.2943 86.9549938,97.5053 C89.1689938,99.4043 92.5139938,95.3373 91.9969938,92.0373 C90.6469938,83.3863 85.5629938,77.4763 80.2579938,74.7113 C76.8089938,72.9133 70.6679938,76.3583 75.0549938,83.1263 C75.0549938,83.1263 78.9739938,87.3593 80.8449938,89.6553" id="Fill-1144" fill="#009CD3"></path>
                <path d="M9.52949376,80.7545 C6.57749376,85.0655 2.94049376,90.2535 2.74149376,95.7855 C2.57049376,100.5025 7.94549376,101.9395 10.5854938,98.7235 C12.6284938,96.2345 13.3714938,92.5835 15.4074938,90.1205 C19.3964938,85.2965 22.0234938,79.1635 18.5764938,76.8895 C14.5414938,74.2285 11.3274938,78.1285 9.52949376,80.7545" id="Fill-1146" fill="#009CD3"></path>
                <path d="M86.6574938,96.0367 C86.4514938,97.1587 86.0854938,98.3067 85.4614938,99.2297 C84.3564938,100.8697 82.2974938,98.9867 83.4124938,97.3567 C83.9064938,96.6377 84.2864938,95.8277 84.7234938,95.0597 C85.0004938,94.5737 85.5044938,94.3227 85.9704938,94.4717 C86.5774938,94.6657 86.7844938,95.3497 86.6574938,96.0367" id="Fill-1148" fill="#00C9FF"></path>
                <path d="M90.9064938,99.9346 C90.9554938,100.2456 91.0004938,100.5316 90.9684938,100.8296 C90.8374938,101.7726 90.3554938,102.0946 89.5274938,101.7916 C89.3764938,101.6556 89.2264938,101.5086 89.0784938,101.3616 C88.1914938,100.4886 87.6894938,98.5866 87.5024938,97.1136 C87.3504938,95.9316 87.8094938,95.6846 88.8494938,96.3296 C89.8884938,96.9736 90.8014938,99.2556 90.9064938,99.9346" id="Fill-1150" fill="#00C9FF"></path>
                <path d="M94.0353938,95.4893 C94.8843938,96.4033 93.6743938,98.4233 92.4173938,97.9003 C91.0513938,97.3323 90.0973938,96.8543 90.0573938,95.5253 C90.0263938,94.4173 90.8913938,93.6913 91.7763938,94.1943 C91.7763938,94.1943 93.8093938,95.2463 94.0353938,95.4893" id="Fill-1152" fill="#00C9FF"></path>
                <path d="M93.0343938,91.1226 C93.3283938,91.1626 93.6133938,91.2086 93.9003938,91.2576 C94.0023938,91.2726 94.1013938,91.2856 94.1943938,91.3126 C94.5163938,91.4146 94.6863938,91.5686 94.8903938,91.7706 C95.2823938,92.1526 95.0833938,93.3766 94.2673938,93.6356 C92.9933938,94.0376 92.3983938,93.6796 91.5653938,93.4296 C91.0513938,93.2726 90.6243938,92.5596 90.9263938,92.0676 C91.4423938,91.2236 92.3293938,91.0216 93.0343938,91.1226" id="Fill-1154" fill="#00C9FF"></path>
                <path d="M13.8869938,94.2549 C13.9499938,94.5819 15.0639938,95.1899 15.4489938,95.4629 C15.6989938,95.6399 15.9459938,95.8219 16.1779938,96.0169 C16.8959938,96.6259 16.8109938,97.7789 16.1439938,98.4009 C15.4299938,99.0729 14.3239938,99.0349 13.6229938,98.4109 C13.1789938,98.0129 12.6669938,97.6689 12.2839938,97.2129 C11.5249938,96.2969 11.3219938,95.4929 11.3189908,94.3329 C11.3159938,92.8899 13.6279938,92.9529 13.8869938,94.2549" id="Fill-1156" fill="#00C9FF"></path>
                <path d="M11.1124938,97.9971 C11.4584938,99.1491 11.7234938,99.4341 12.0844938,100.6171 C12.7914938,102.9311 10.6644938,104.4231 9.46649376,103.2171 C8.13249376,101.8731 8.66049376,100.1511 8.44849376,98.4911 C8.25949376,97.0281 10.6974938,96.6241 11.1124938,97.9971" id="Fill-1158" fill="#00C9FF"></path>
                <path d="M7.27169376,98.5904 C7.15969376,99.6854 6.70969376,100.7324 6.22669376,101.7234 C5.58569376,103.0274 3.41269376,102.6154 3.65069376,101.1264 C3.81769376,100.0844 4.48569376,99.2214 4.71069376,98.2004 C5.02269376,96.7904 7.41769376,97.1924 7.27169376,98.5904" id="Fill-1160" fill="#00C9FF"></path>
                <path d="M3.76489376,97.4483 C4.33089376,97.0293 3.63089376,97.5463 3.55589376,97.6023 C3.33489376,97.7643 3.12889376,97.9453 2.90689376,98.1083 C2.40689376,98.4803 2.02689376,98.7533 1.39289376,98.8513 C0.451893757,98.9983 -0.237106243,98.1653 0.0768937565,97.2833 C0.428893757,96.3023 1.41789376,95.7183 2.29489376,95.2543 C2.97089376,94.8993 3.76089376,94.9293 4.19389376,95.5743 C4.60989376,96.1963 4.37489376,96.9933 3.76489376,97.4483" id="Fill-1162" fill="#00C9FF"></path>
                <path d="M35.6271938,43.2725 C31.7711938,38.2435 32.8001938,31.9335 37.1251938,27.5765 C40.0101938,24.9625 44.7481938,22.9975 48.5941938,23.8685 C55.8031938,25.6115 62.3261938,33.1335 58.9621938,40.1025 C62.3261938,38.3585 66.3771938,38.6785 70.2231938,40.3725 C71.1311938,40.7595 71.9721938,41.2815 72.7071938,41.9405 C73.4411938,42.6005 74.0671938,43.3975 74.5491938,44.3415 C77.9141938,50.8765 75.9911938,60.4595 66.8581938,61.7655 C62.5321938,62.4215 58.0861938,60.6785 55.2021938,57.7915 C54.2411938,56.8285 53.4531938,55.7375 52.9021938,54.5635 C51.9571938,51.7475 51.4771938,49.1335 52.9191938,46.9555 C50.0351938,48.6985 46.5751938,49.5245 43.9151938,48.6925 C45.9931938,50.1895 46.0761938,52.6835 45.9931938,55.0945 C45.9211938,57.1735 44.0811938,63.9895 38.9811938,65.6875 C36.0951938,66.5585 33.2111938,66.5585 30.3751938,65.5365 C29.0331938,65.0635 27.7571938,64.3945 26.6091938,63.5975 C25.4611938,62.8015 24.4391938,61.8765 23.5981938,60.8955 C20.7151938,57.6295 20.5331938,53.1365 22.5371938,49.5695 C23.2041938,48.3805 24.1131938,47.2935 25.2471938,46.3915 C26.6911938,45.1775 28.3971938,44.2145 30.1931938,43.6365 C31.9901938,43.0575 33.8661938,42.8795 35.6271938,43.2725" id="Fill-1164" fill="#009CD3"></path>
                <path d="M34.7834938,31.0992 C35.6314938,30.8262 36.1084938,30.0842 35.7254938,29.2462 C35.6204938,29.0162 35.4494938,28.8862 35.2484938,28.7412 C35.6304938,29.0152 35.1614938,28.6742 35.0374938,28.5792 C34.9854938,28.5412 34.7834938,28.3912 34.9004938,28.4912 C34.7434938,28.3622 34.5894938,28.2312 34.4244938,28.1112 C34.4094938,28.0992 34.3914938,28.0832 34.3664938,28.0622 C34.2744938,27.9862 34.1854938,27.9072 34.0974938,27.8272 C33.8264938,27.5842 33.5514938,27.3662 33.2274938,27.1932 C32.5864938,26.8512 31.7944938,26.9072 31.2494938,27.4222 C30.5644938,28.0672 30.6414938,28.9952 31.1944938,29.6652 C31.6844938,30.2592 32.5674938,30.8162 33.3294938,31.0312 C33.7844938,31.1592 34.3194938,31.2482 34.7834938,31.0992" id="Fill-1166" fill="#009CD3"></path>
                <path d="M34.7394938,34.2261 C35.3144938,33.5461 35.3274938,32.6641 34.5604938,32.1551 C34.3494938,32.0151 34.1354938,31.9951 33.8874938,31.9781 C34.3564938,32.0091 33.7794938,31.9671 33.6234938,31.9531 C33.5594938,31.9471 33.3084938,31.9271 33.4614938,31.9501 C33.2604938,31.9231 33.0594938,31.8941 32.8554938,31.8781 C32.8374938,31.8751 32.8134938,31.8721 32.7814938,31.8681 C32.6634938,31.8521 32.5454938,31.8311 32.4284938,31.8101 C32.0704938,31.7471 31.7204938,31.7071 31.3544938,31.7311 C30.6304938,31.7801 29.9864938,32.2451 29.7954938,32.9701 C29.5554938,33.8801 30.1114938,34.6271 30.9334938,34.9041 C31.6644938,35.1491 32.7084938,35.1571 33.4684938,34.9361 C33.9224938,34.8051 34.4244938,34.5981 34.7394938,34.2261" id="Fill-1168" fill="#009CD3"></path>
                <path d="M22.7296938,53.7188 C23.2686938,53.0098 23.2346938,52.1278 22.4416938,51.6598 C22.2226938,51.5308 22.0076938,51.5228 21.7606938,51.5198 C22.2296938,51.5258 21.6506938,51.5138 21.4956938,51.5078 C21.4306938,51.5058 21.1786938,51.4998 21.3326938,51.5138 C21.1296938,51.4978 20.9276938,51.4798 20.7246938,51.4748 C20.7056938,51.4728 20.6816938,51.4708 20.6486938,51.4688 C20.5306938,51.4588 20.4126938,51.4448 20.2936938,51.4298 C19.9326938,51.3858 19.5826938,51.3648 19.2176938,51.4078 C18.4966938,51.4948 17.8786938,51.9938 17.7266938,52.7288 C17.5356938,53.6498 18.1296938,54.3658 18.9666938,54.5978 C19.7086938,54.8048 20.7506938,54.7568 21.4986938,54.4958 C21.9456938,54.3398 22.4356938,54.1068 22.7296938,53.7188" id="Fill-1170" fill="#009CD3"></path>
                <path d="M74.2433938,45.5333 C73.5553938,44.9673 73.3853938,44.1013 74.0493938,43.4633 C74.2313938,43.2883 74.4383938,43.2303 74.6793938,43.1703 C74.2233938,43.2833 74.7843938,43.1393 74.9343938,43.0973 C74.9963938,43.0803 75.2403938,43.0163 75.0953938,43.0653 C75.2873938,43.0033 75.4793938,42.9383 75.6773938,42.8873 C75.6953938,42.8813 75.7183938,42.8733 75.7493938,42.8633 C75.8623938,42.8263 75.9733938,42.7853 76.0853938,42.7433 C76.4273938,42.6173 76.7633938,42.5163 77.1283938,42.4743 C77.8493938,42.3933 78.5653938,42.7353 78.8833938,43.4153 C79.2813938,44.2673 78.8683938,45.1023 78.1073938,45.5203 C77.4333938,45.8923 76.4073938,46.0863 75.6203938,46.0053 C75.1503938,45.9563 74.6193938,45.8423 74.2433938,45.5333" id="Fill-1172" fill="#009CD3"></path>
                <path d="M23.5333938,50.2686 C24.3783938,49.9866 24.8463938,49.2386 24.4553938,48.4056 C24.3473938,48.1766 24.1753938,48.0476 23.9713938,47.9056 C24.3563938,48.1756 23.8853938,47.8396 23.7593938,47.7466 C23.7073938,47.7086 23.5033938,47.5606 23.6223938,47.6596 C23.4643938,47.5326 23.3073938,47.4036 23.1413938,47.2846 C23.1263938,47.2716 23.1083938,47.2576 23.0833938,47.2366 C22.9903938,47.1616 22.9003938,47.0826 22.8113938,47.0046 C22.5383938,46.7646 22.2603938,46.5496 21.9343938,46.3796 C21.2903938,46.0456 20.4983938,46.1086 19.9593938,46.6296 C19.2813938,47.2836 19.3693938,48.2106 19.9293938,48.8736 C20.4253938,49.4616 21.3143938,50.0106 22.0783938,50.2156 C22.5343938,50.3386 23.0713938,50.4226 23.5333938,50.2686" id="Fill-1174" fill="#009CD3"></path>
                <path d="M72.3605938,42.6617 C71.4725938,42.5817 70.8445938,41.9627 71.0335938,41.0617 C71.0855938,40.8137 71.2235938,40.6487 71.3885938,40.4637 C71.0765938,40.8147 71.4585938,40.3787 71.5585938,40.2597 C71.5995938,40.2107 71.7655938,40.0197 71.6725938,40.1427 C71.7975938,39.9827 71.9195938,39.8217 72.0535938,39.6677 C72.0645938,39.6517 72.0795938,39.6337 72.0985938,39.6077 C72.1725938,39.5137 72.2415938,39.4157 72.3095938,39.3187 C72.5205938,39.0227 72.7415938,38.7487 73.0185938,38.5087 C73.5695938,38.0347 74.3535938,37.9137 74.9995938,38.2967 C75.8085938,38.7757 75.9375938,39.6987 75.5465938,40.4727 C75.1985938,41.1597 74.4605938,41.8977 73.7645938,42.2747 C73.3485938,42.4997 72.8455938,42.7047 72.3605938,42.6617" id="Fill-1176" fill="#009CD3"></path>
                <path d="M58.2355938,31.0992 C57.3865938,30.8262 56.9105938,30.0842 57.2925938,29.2462 C57.3975938,29.0162 57.5695938,28.8862 57.7705938,28.7412 C57.3885938,29.0152 57.8565938,28.6742 57.9815938,28.5792 C58.0325938,28.5412 58.2355938,28.3912 58.1175938,28.4912 C58.2745938,28.3622 58.4295938,28.2312 58.5935938,28.1112 C58.6085938,28.0992 58.6275938,28.0832 58.6525938,28.0622 C58.7435938,27.9862 58.8325938,27.9072 58.9215938,27.8272 C59.1915938,27.5842 59.4665938,27.3662 59.7915938,27.1932 C60.4315938,26.8512 61.2235938,26.9072 61.7695938,27.4222 C62.4535938,28.0672 62.3765938,28.9952 61.8235938,29.6652 C61.3345938,30.2592 60.4515938,30.8162 59.6895938,31.0312 C59.2345938,31.1592 58.6985938,31.2482 58.2355938,31.0992" id="Fill-1178" fill="#009CD3"></path>
                <path d="M59.2951938,34.1353 C58.5911938,33.5893 58.3961938,32.7293 59.0411938,32.0723 C59.2191938,31.8913 59.4241938,31.8273 59.6631938,31.7603 C59.2111938,31.8873 59.7671938,31.7263 59.9161938,31.6803 C59.9781938,31.6613 60.2201938,31.5903 60.0751938,31.6433 C60.2671938,31.5753 60.4561938,31.5063 60.6521938,31.4483 C60.6701938,31.4423 60.6921938,31.4343 60.7231938,31.4233 C60.8351938,31.3833 60.9461938,31.3383 61.0561938,31.2933 C61.3941938,31.1583 61.7271938,31.0473 62.0901938,30.9943 C62.8101938,30.8923 63.5351938,31.2143 63.8721938,31.8843 C64.2951938,32.7243 63.9051938,33.5713 63.1571938,34.0113 C62.4941938,34.4033 61.4751938,34.6253 60.6861938,34.5673 C60.2141938,34.5323 59.6801938,34.4333 59.2951938,34.1353" id="Fill-1180" fill="#009CD3"></path>
                <path d="M74.0246938,49.0421 C74.2586938,50.7711 74.2586938,53.0161 71.2146938,57.0341 C69.6996938,59.0351 66.9566938,59.9331 64.3366938,60.0371 C62.6146938,60.1001 60.9856938,59.7711 59.4496938,59.0531 C58.7606938,58.6171 58.0726938,58.1841 57.3826938,57.7471 C54.1406938,54.7621 53.7026938,51.8491 53.5976938,50.7301 C53.1166938,45.5961 57.3136938,40.9311 62.8946938,40.4701 C65.5926938,40.2461 68.3076938,41.0301 70.3846938,42.6301 C70.9786938,43.2211 71.5736938,43.8131 72.1676938,44.4041 C73.2336938,45.7961 73.8516938,47.3431 74.0246938,49.0421" id="Fill-1182" fill="#FFFFFF"></path>
                <path d="M68.9025938,51.251 C68.8235938,53.099 68.1135938,54.644 66.7705938,55.889 C65.9885938,56.559 65.0735938,57.009 64.0235938,57.235 C62.0295938,57.654 59.8795938,57.075 58.4635938,55.736 C57.7205938,55.027 56.9155938,53.567 56.8605938,53.457 C56.8435938,53.422 56.8295938,53.391 56.8125938,53.358 C56.4595938,52.394 56.3945938,51.414 56.6175938,50.42 C56.8425938,49.46 57.3095938,48.606 58.0185938,47.862 C59.4755938,46.347 61.7885938,45.641 63.9605938,46.051 C65.0215938,46.256 65.9625938,46.679 66.7835938,47.32 C67.1385938,47.686 67.4945938,48.049 67.8485938,48.415 C68.4815938,49.274 68.8325938,50.22 68.9025938,51.251" id="Fill-1184" fill="#000000"></path>
                <path d="M41.6173938,61.3399 C40.0083938,63.1869 37.4263938,64.1459 34.8463938,64.2509 C33.1533938,64.3079 31.5493938,63.9899 30.0373938,63.2939 C29.3583938,62.8739 28.6793938,62.4509 28.0023938,62.0299 C26.7113938,60.9759 25.7953938,59.6959 25.2553938,58.1949 C24.5313938,57.1189 24.3783938,56.3179 24.2753938,55.2339 C23.8033938,50.2619 27.9333938,45.7409 33.4273938,45.2949 C36.0833938,45.0779 38.7553938,45.8369 40.8003938,47.3869 C41.3863938,47.9599 41.9703938,48.5329 42.5543938,49.1069 C43.6043938,50.4549 45.8273938,56.5079 41.6173938,61.3399" id="Fill-1186" fill="#FFFFFF"></path>
                <path d="M39.9630938,50.5338 C39.5780938,50.1408 39.1960938,49.7478 38.8130938,49.3548 C37.9280938,48.6618 36.9150938,48.2068 35.7720938,47.9878 C33.4310938,47.5448 30.9400938,48.3038 29.3690938,49.9388 C28.6070938,50.7398 28.1030938,51.6598 27.8590938,52.6938 C27.6180938,53.7668 27.4540938,54.1698 28.0360938,55.7908 C28.4100938,56.7988 29.0490938,57.6588 29.8480938,58.4228 C31.3750938,59.8648 33.6910938,60.4898 35.8400938,60.0368 C36.9690938,59.7928 37.9560938,59.3098 38.7980938,58.5848 C40.2450938,57.2438 41.0120938,55.5778 41.0960938,53.5888 C41.0200938,52.4788 40.6430938,51.4598 39.9630938,50.5338" id="Fill-1188" fill="#000000"></path>
                <path d="M56.4289938,34.1534 C56.2459938,35.4334 56.0659938,36.7164 55.8839938,37.9974 C55.5079938,39.5094 54.7529938,40.8464 53.6199938,42.0074 C51.8749938,43.7804 49.3609938,44.8564 46.7419938,44.9594 C45.0199938,45.0204 43.3899938,44.6964 41.8549938,43.9914 C41.1659938,43.5634 40.4779938,43.1354 39.7879938,42.7074 C38.4759938,41.6384 37.4899938,39.9154 36.9969938,38.8174 C36.5049938,37.7194 36.1069938,36.9104 36.0029938,35.8124 C35.5209938,30.7664 39.7179938,26.1794 45.2989938,25.7274 C47.9979938,25.5074 50.7119938,26.2784 52.7889938,27.8514 C53.3829938,28.4314 53.9779938,29.0134 54.5719938,29.5944 C55.6379938,30.9634 56.2569938,32.4824 56.4289938,34.1534" id="Fill-1190" fill="#FFFFFF"></path>
                <path d="M52.8537938,36.0035 C52.7807938,37.7435 52.1107938,39.1995 50.8447938,40.3735 C50.1067938,41.0055 49.2457938,41.4295 48.2567938,41.6425 C46.3777938,42.0375 44.2907938,41.5545 43.0177938,40.2305 C41.5387938,38.6915 41.0677938,36.1575 41.2787938,35.2215 C41.4917938,34.3155 41.9317938,33.5115 42.5997938,32.8115 C43.9727938,31.3825 46.1507938,30.7175 48.1987938,31.1055 C49.1977938,31.2975 50.0827938,31.6965 50.8567938,32.3005 C51.1917938,32.6445 51.5267938,32.9875 51.8617938,33.3315 C52.4577938,34.1415 52.7887938,35.0315 52.8537938,36.0035" id="Fill-1192" fill="#000000"></path>
                <path d="M44.5793938,50.7735 C44.6283938,50.7645 44.6743938,50.7615 44.7193938,50.7585 C42.7133938,40.8885 24.7463938,40.4965 23.5283938,51.9785 C23.4573938,52.6445 23.4523938,53.2805 23.5013938,53.8865 C30.5503938,52.9975 37.6203938,52.2245 44.5793938,50.7735" id="Fill-1194" fill="#009CD3"></path>
                <path d="M56.3878938,33.3941 C56.4368938,33.3911 56.4828938,33.3941 56.5288938,33.3961 C55.7188938,23.3571 37.9278938,20.8151 35.3438938,32.0681 C35.1928938,32.7211 35.1128938,33.3521 35.0878938,33.9591 C42.1928938,33.9211 49.3048938,34.0001 56.3878938,33.3941" id="Fill-1196" fill="#009CD3"></path>
                <path d="M73.9015938,48.397 C73.9505938,48.397 73.9965938,48.402 74.0405938,48.408 C73.9235938,38.34 56.5755938,34.654 53.2665938,45.712 C53.0745938,46.355 52.9515938,46.979 52.8865938,47.583 C59.8865938,48.004 66.8845938,48.543 73.9015938,48.397" id="Fill-1198" fill="#009CD3"></path>
                <path d="M54.1261938,74.2339 C53.6451938,74.7889 50.2321938,76.2589 49.0951938,76.0969 C48.7261938,76.0459 45.5021938,76.7539 44.9081938,73.3819 C44.3151938,70.0099 50.9571938,69.1309 52.7861938,69.4839 C54.6151938,69.8379 54.9121938,70.6389 55.1091938,71.7869 C55.3061938,72.9349 54.3061938,74.0289 54.1261938,74.2339" id="Fill-1200" fill="#1B1464"></path>
                <path d="M46.1623938,70.8765 C44.7913938,71.9155 44.8743938,72.4145 44.9333938,72.5265 C45.3123938,73.2445 46.0333938,73.6595 46.8923938,73.5835 C49.5753938,73.3465 48.3383938,69.8645 48.3383938,69.8645 C48.3383938,69.8645 47.0793938,70.1825 46.1623938,70.8765" id="Fill-1202" fill="#F9F9F9"></path>
                <path d="M20.4015938,67.128 C20.8645938,66.855 21.3175938,66.642 21.8685938,66.65 C23.2425938,66.662 24.3995938,67.926 24.4855938,69.432 C24.5655938,70.894 23.3535938,72.161 21.9415938,72.216 C20.6195938,72.263 19.1035938,71.089 19.2075938,69.627 C19.2755938,68.657 19.4905938,67.661 20.4015938,67.128" id="Fill-1204" fill="#1DD4FF"></path>
                <path d="M70.2189938,81.2232 C70.6709938,80.8762 71.1129938,80.6062 71.6499938,80.6172 C72.9889938,80.6322 74.1159938,82.2362 74.1999938,84.1462 C74.2789938,86.0012 73.0969938,87.6092 71.7199938,87.6792 C70.4319938,87.7382 68.9539938,86.2492 69.0539938,84.3942 C69.1209938,83.1632 69.3299938,81.8992 70.2189938,81.2232" id="Fill-1206" fill="#1DD4FF"></path>
                <path d="M64.7775938,92.2584 C65.0545938,92.0664 65.3255938,91.9174 65.6545938,91.9234 C66.4755938,91.9314 67.1675938,92.8184 67.2175938,93.8744 C67.2665938,94.9004 66.5425938,95.7884 65.6985938,95.8274 C64.9085938,95.8604 64.0035938,95.0364 64.0645938,94.0114 C64.1055938,93.3314 64.2335938,92.6324 64.7775938,92.2584" id="Fill-1208" fill="#1DD4FF"></path>
                <path d="M28.6369938,81.6768 C28.8259938,81.5458 29.0119938,81.4448 29.2379938,81.4478 C29.7989938,81.4538 30.2719938,82.0578 30.3069938,82.7778 C30.3399938,83.4758 29.8439938,84.0818 29.2669938,84.1078 C28.7269938,84.1308 28.1069938,83.5698 28.1489938,82.8708 C28.1769938,82.4068 28.2649938,81.9308 28.6369938,81.6768" id="Fill-1210" fill="#1DD4FF"></path>
                <path d="M22.1954938,73.6085 C22.8514938,73.1465 23.4924938,72.7885 24.2724938,72.8025 C26.2164938,72.8225 27.8534938,74.9545 27.9744938,77.4945 C28.0904938,79.9615 26.3734938,82.0985 24.3754938,82.1915 C22.5054938,82.2705 20.3594938,80.2905 20.5054938,77.8245 C20.6024938,76.1885 20.9064938,74.5075 22.1954938,73.6085" id="Fill-1212" fill="#1DD4FF"></path>
            </g>
        </g>
    </g>
</svg>