<?xml version="1.0" encoding="UTF-8"?>
<svg width="127px" height="139px" viewBox="0 0 127 139" version="1.1" xmlns="http://www.w3.org/2000/svg" xmlns:xlink="http://www.w3.org/1999/xlink">
    <title>Sidekick_5_ship</title>
    <defs>
        <path d="M118.551091,43.829148 C113.082151,16.7812251 78.8365485,-3.12294885 54.4875018,0.405781556 C41.9189332,2.22691527 26.7964513,7.54725976 17.9775587,16.9640197 C8.81572167,26.7475042 3.31157889,40.8431246 0.103573251,53.5286152 C-0.550519227,56.1218006 1.99090259,57.4183933 4.9808774,57.5796158 C6.17550464,58.8864269 7.95949645,59.7720156 10.5281721,60.0161202 C12.8333939,60.236382 15.0625319,60.135334 17.3598047,59.886688 C20.78357,59.5176927 24.3072661,60.7007484 27.6685746,61.110617 C35.268993,62.0359437 42.8807671,62.3754193 50.5254729,62.6899169 C62.9407386,63.2031042 75.1913456,62.7001352 87.5259854,62.4344586 C89.5007542,63.2031042 91.9059067,63.3427547 94.8129844,62.6342837 C95.2229278,62.5355065 95.6101596,62.4231049 95.9917135,62.3061618 C96.2619809,62.3050264 96.5299771,62.3004849 96.7979734,62.2993495 C102.84038,62.2675592 115.069411,63.65044 118.887221,58.3823225 C121.954415,54.1485273 119.537907,48.712375 118.551091,43.829148" id="path-1"></path>
    </defs>
    <g id="Student-Environmrnt---New-Treatment" stroke="none" stroke-width="1" fill="none" fill-rule="evenodd">
        <g id="Avatars" transform="translate(-1525.000000, -559.000000)">
            <g id="Sidekick_5_ship" transform="translate(1525.000000, 559.000000)">
                <g id="Group-20">
                    <path d="M30.93385,105.610622 C27.9943997,110.794382 23.687737,118.717999 23.133829,125.690008 C28.0612312,128.945509 30.3822075,130.425283 35.222389,132.58689 C36.5239028,133.168555 37.8401421,133.724039 39.1631779,134.262449 C39.386327,133.964218 39.6253343,133.678507 39.8303595,133.370032 C43.545734,131.19818 44.3714987,123.725324 45.159883,119.988327 C45.3377226,119.148272 45.5019693,118.345779 45.6526232,117.558084 C46.1872747,115.673081 46.6188471,113.67994 46.4387421,111.903074 C46.4126892,111.650374 46.3753089,111.396536 46.3333976,111.139283 C46.366247,110.846743 46.3775743,110.557618 46.3945654,110.266217 C49.5854831,110.959434 52.6268796,112.061296 55.6830016,113.142668 C55.6365594,113.272433 55.5844536,113.40106 55.5391441,113.531963 C55.282013,113.982724 55.0441385,114.451699 54.8323168,114.944577 C53.9125351,115.182479 53.2804683,115.843824 53.4934227,117.213183 C53.5636523,117.671913 53.633882,118.137473 53.7052444,118.607585 C53.5036173,119.575129 53.3518307,120.567716 53.2589463,121.588759 C52.036724,126.890901 51.6391337,133.350681 53.7822704,138.386463 C54.4154699,138.470696 55.0452712,138.569727 55.6796034,138.63461 C56.389829,138.697216 62.3774721,138.870235 60.3170251,139 C64.7822709,138.72112 69.2520477,138.326134 73.6867096,137.702353 C74.595164,135.605628 74.9984181,133.086598 75.273673,131.352987 C75.8978106,127.428173 75.2838676,121.420293 73.1520582,116.573466 C75.0992316,116.631519 77.0498032,116.615583 78.9969766,116.518828 C79.0286932,116.51769 79.0615426,116.511998 79.0955247,116.509722 C79.1612234,119.140304 79.5984595,121.851704 79.7502461,123.439614 C79.986988,125.930187 81.0155124,128.305792 82.4495563,130.452602 C83.335356,132.226053 84.455632,133.859495 85.7662077,135.290322 C91.332473,133.802581 96.6438727,131.806025 101.505576,129.152678 C101.23825,126.815774 100.421548,124.487977 99.403218,122.300189 C99.0520698,121.544366 98.6556121,120.779437 98.2421634,120.014508 C97.9487848,119.105017 97.621424,118.211461 97.2680104,117.340671 C96.8024558,116.191001 96.1386724,115.31452 95.4137213,114.329902 C94.5800275,113.197306 93.9219078,110.910487 94.3772678,113.471633 C94.1813044,112.37091 92.5841465,110.648681 91.032298,109.743743 C89.78289,107.975983 87.6646735,106.393764 86.0743119,106.589549 C85.9678347,106.603209 85.8692867,106.614591 85.7628095,106.628251 C84.9211866,106.451816 84.0931565,106.48938 83.459957,106.907131 C76.8606363,107.698241 70.8639312,108.26397 64.1660625,107.763123 C62.5258606,106.929897 61.1688427,106.839972 60.0361066,107.26 C53.7437574,106.104639 48.0200417,102.791085 41.6812504,101.4388 C40.2902504,100.597605 38.7633221,100.232215 37.4108352,100.974378 C36.2044712,101.635723 35.1136463,102.608959 34.1292986,103.773427 C33.4972318,103.578779 32.8957489,103.554875 32.3826195,103.799607 C31.6621993,103.93734 31.1343443,104.448431 30.9587702,105.478581 C30.9531065,105.519559 30.9417791,105.568505 30.93385,105.610622" id="Fill-1" fill="#6E2FC9"></path>
                    <g id="Group-24" transform="translate(1.416357, 2.372014)">
                        <mask id="mask-2" fill="white">
                            <use xlink:href="#path-1"></use>
                        </mask>
                        <use id="Mask" fill="#35338E" xlink:href="#path-1"></use>
                        <g mask="url(#mask-2)">
                            <g transform="translate(27.583643, 3.627986)">
                                <path d="M26.0190656,77.2336184 C24.7485239,75.8518955 24.7345789,74.0173883 24.1031817,72.3712977 C23.6507449,71.1933279 23.5461576,67.8003658 20.2597932,68.0092309 C16.7030512,68.2356231 14.8460461,71.279503 13.6762181,73.0154201 C11.7920978,75.8131898 11.2350738,78.9782991 13.377176,81.7417448 C17.3669867,86.8874208 30.6921798,82.3157586 26.0190656,77.2336184" id="Fill-1" fill="#009CD3"></path>
                                <path d="M14.9651269,80.5641008 C14.491641,79.6729189 12.8247112,79.9929154 11.9020623,80.46462 C10.8772572,80.6768456 10.0413601,81.0789137 10.0008219,81.8838789 C9.98055279,82.2743409 10.3372887,82.6556838 10.8383406,82.8505003 C11.5493802,83.1257305 12.2847427,82.9939184 12.88714,82.674751 C13.0719941,82.5777572 13.2146885,82.4691574 13.3427891,82.3315423 C13.3435998,82.3307133 13.3435998,82.3307133 13.3452214,82.3282263 C13.3630582,82.3191073 13.3817057,82.3083302 13.4141363,82.287605 C13.517914,82.2196265 13.6338532,82.159109 13.7465493,82.0977626 C13.9370787,81.9709246 14.0692332,81.8217034 14.1413911,81.6492701 C14.1462557,81.638493 14.148688,81.635177 14.1527418,81.6268869 C14.1640925,81.6103068 14.1746325,81.5953847 14.179497,81.5862656 C14.1965231,81.5771465 14.2184137,81.5622244 14.2581411,81.5323802 C14.3959709,81.4304124 14.5232608,81.3491698 14.6464968,81.2339379 C14.505424,81.3649209 14.8491877,81.0498985 14.8662137,81.0507275 C14.9764776,80.9139415 15.0453925,80.7141509 14.9651269,80.5641008" id="Fill-3" fill="#00C9FF"></path>
                                <path d="M14.4897925,81.5135 C14.5067925,81.4935 14.5117925,81.4865 14.5097925,81.4865 C14.5017925,81.4945 14.4967925,81.5055 14.4897925,81.5135" id="Fill-5" fill="#09987C"></path>
                                <path d="M15.7180693,81.0926102 C14.7957418,81.4989446 13.9665866,82.1212268 14.0010369,82.9709152 C14.0213939,83.4327791 14.4207037,83.8435206 15.0431574,83.9678007 C15.7188523,84.1026579 16.6732812,83.8047381 16.7875934,83.2459181 C16.8470984,82.951524 16.834571,82.7056079 16.834571,82.4156209 C16.834571,82.3838898 16.8541451,82.0762744 16.8283074,82.2031988 C16.8431836,82.1309224 16.8588428,82.0057608 16.8972079,81.9528756 C17.2894711,81.4125655 16.4861536,80.7541451 15.7180693,81.0926102" id="Fill-7" fill="#00C9FF"></path>
                                <path d="M21.5389307,82.8356025 C21.4774986,82.7455147 21.3827177,82.6676422 21.2659969,82.5974042 C21.2791609,82.601985 21.2580985,82.5798448 21.1914008,82.5202952 C21.0632711,82.3927981 20.9377742,82.2736989 20.7473349,82.1706324 C20.3260865,81.9431225 19.6731517,81.9431225 19.2527809,82.1706324 C19.1044664,82.2507953 18.9886231,82.3393562 18.8885767,82.4393689 C18.835043,82.4943377 18.7806318,82.5477796 18.7270981,82.6012215 C18.8885767,82.4935742 18.821879,82.5431989 18.5287604,82.7508589 C18.2444178,83.1020486 17.9521767,83.4814862 18.006588,83.8777198 C18.0890825,84.4877211 18.8499622,85 20.0004967,85 C21.1501536,85 21.9101557,84.4877211 21.9935278,83.8777198 C22.043551,83.5120244 21.7951901,83.1623616 21.5389307,82.8356025" id="Fill-9" fill="#00C9FF"></path>
                                <path d="M46.980891,76.2335344 C48.2514311,74.8518241 48.2653761,73.0173335 48.8975473,71.371258 C49.3492088,70.1932988 49.453796,66.8003676 52.7409312,67.0092308 C56.2968942,67.2356209 58.1546719,70.2802034 59.3237238,72.0153745 C61.2070671,74.8131187 61.76564,77.9789295 59.6227655,80.7416197 C55.6337343,85.887249 42.3077823,81.3163586 46.980891,76.2335344" id="Fill-11" fill="#009CD3"></path>
                                <path d="M58.0352289,80.5642105 C58.5086867,79.6728553 60.1755177,79.992914 61.0981118,80.4647104 C62.1228561,80.6761482 62.957893,81.0782945 62.9992395,81.8842455 C63.0186967,82.2747834 62.6627926,82.6553714 62.1617705,82.851055 C61.4515838,83.1255095 60.7154541,82.9936718 60.1130926,82.6752714 C59.9282495,82.5782588 59.7855635,82.4696378 59.6574705,82.331996 C59.6558491,82.3303377 59.6558491,82.3303377 59.6542276,82.3286793 C59.6372026,82.3187293 59.6177454,82.3079501 59.5861275,82.2872209 C59.4815453,82.2192292 59.3664237,82.1595291 59.2537342,82.0981707 C59.0632161,81.9713081 58.9310695,81.8212287 58.8589158,81.6487618 C58.8540515,81.6388118 58.8516194,81.6354952 58.8475658,81.6272035 C58.8354051,81.6106201 58.8256765,81.5956951 58.8208122,81.5865743 C58.8037872,81.5774534 58.7818978,81.5625284 58.7421728,81.5326784 C58.6035404,81.4298616 58.4770688,81.3494323 58.3538401,81.234178 C58.4949046,81.3651865 58.1511612,81.0501028 58.1341362,81.0509319 C58.0238789,80.9141193 57.9541574,80.7142899 58.0352289,80.5642105" id="Fill-13" fill="#00C9FF"></path>
                                <path d="M58.5102075,81.5135 C58.4932075,81.4935 58.4882075,81.4865 58.4902075,81.4865 C58.4972075,81.4945 58.5022075,81.5055 58.5102075,81.5135" id="Fill-15" fill="#09987C"></path>
                                <path d="M57.2819307,81.0926869 C58.2042582,81.4990186 59.0334134,82.1212967 58.9989631,82.970098 C58.9793891,83.4319588 58.5792963,83.8426976 57.9568426,83.9678583 C57.2811477,84.1027146 56.3267188,83.8039154 56.2131895,83.2459805 C56.1536845,82.9515883 56.165429,82.7056739 56.165429,82.4148074 C56.165429,82.3839579 56.1458549,82.0763446 56.1716926,82.2023867 C56.1568164,82.1301108 56.1411572,82.0058315 56.1027921,81.9529466 C55.7105289,81.4117586 56.5138464,80.754224 57.2819307,81.0926869" id="Fill-17" fill="#00C9FF"></path>
                                <path d="M51.4608985,81.8356025 C51.5223332,81.7455147 51.6179959,81.6676422 51.7338442,81.5981677 C51.7206797,81.6027484 51.741743,81.5798448 51.8084436,81.5210587 C51.9365788,81.3927981 52.0629589,81.2744624 52.2525289,81.1706324 C52.6746732,80.9431225 53.326759,80.9431225 53.7471481,81.1706324 C53.8954691,81.2515587 54.0113174,81.3393562 54.1122459,81.4401323 C54.1649043,81.4943377 54.2193179,81.5485431 54.2728539,81.6012215 C54.1122459,81.4935742 54.1780688,81.5431989 54.4712003,81.7516223 C54.7564329,82.1028121 55.0478091,82.4814862 54.9933955,82.8777198 C54.9108974,83.4877211 54.1499844,84 53.0002773,84 C51.8496926,84 51.0896572,83.4877211 51.0062815,82.8777198 C50.9571337,82.5120244 51.2046279,82.1623616 51.4608985,81.8356025" id="Fill-19" fill="#00C9FF"></path>
                                <path d="M37.30681,17.6600621 C37.1654508,17.815284 36.3298771,15.7585946 36.2580873,15.5063591 C36.1100672,14.9786048 36.0382774,14.439985 36.0086734,13.8974847 C35.9502054,12.8481851 36.1914782,11.8190643 36.6074148,10.857465 C37.3711987,9.09181655 38.9653756,7.7794159 40.7194143,6.93733742 C42.5015767,6.08284119 44.5316729,5.88803778 46.5047814,6.05412515 C48.8183361,6.24737634 52.2324206,7.43637563 52.9436574,9.75073326 C53.235257,10.7045715 52.3493565,11.582351 51.3376389,11.3696971 C50.1786412,11.1252227 49.1425002,10.296338 48.0560324,9.84076193 C47.5290807,9.61957081 46.7763983,9.45348344 46.0385179,9.36035034 C44.8743395,9.20978515 43.584344,9.40458856 42.4016631,9.84464248 C41.1849376,10.2971141 40.1628585,11.1166855 39.5937211,12.2412677 C38.8602813,13.6887113 39.3058219,15.1695277 39.563377,16.6775079 C39.6359069,17.105144 39.3087824,17.5816751 38.9513137,17.7997618 C38.7418652,17.9247154 38.5139142,17.9914607 38.2667206,18 C38.2104729,18.0007741 37.196535,17.7811352 37.30681,17.6600621" id="Fill-944" fill="#009CD3"></path>
                                <path d="M14.7639841,70.8483619 C17.1351239,75.5909256 26.3090276,77.6617155 39.6598475,76.8149077 C49.3137212,76.2029166 54.7325227,74.3669435 57.7816568,69.7777444 C60.8293187,65.1878116 61.4233919,48.2846775 60.7512867,44.7844409 C59.9650783,40.6927598 58.7415967,36.5966758 56.9225696,32.7390775 C53.8211688,26.1627421 48.6607559,18.4688258 39.402195,16.4743514 C33.4452676,15.1909313 27.1629618,16.5330556 22.8285095,20.2431596 C18.159845,24.2365112 15.7960667,29.4773267 14.1537156,34.6154098 C12.3523561,40.2561474 11.5249233,46.0964793 11.1686266,51.8612295 C11.0162435,54.3113951 10.9529346,56.7630283 11.038328,59.2095249 C11.1391806,62.0669507 12.082189,65.4842677 14.7639841,70.8483619" id="Fill-946" fill="#00C9FF"></path>
                                <path d="M36.3189411,16.252481 C37.9556231,12.2095289 36.481515,6.90199714 33.6122411,3.4407801 C32.4187294,1.99819098 30.7883002,0.898092169 28.9585616,0.342702478 C26.7083193,-0.33942999 23.7358734,-0.0617351438 22.2617653,1.70696741 C21.6013086,2.50017782 22.2672366,3.94917528 23.403691,3.99759387 C24.5690649,4.04814857 25.7531973,3.69426565 26.9240424,3.66436006 C27.1475816,3.65866375 27.7791189,3.72915552 28.2410477,3.88153167 C29.2602614,4.22117382 30.0723495,4.8997461 30.7757945,5.66020276 C33.1495306,8.22709998 34.2195486,12.2330261 33.6177123,15.5112494 C33.3472768,16.9851682 35.7733804,17.6017932 36.3189411,16.252481" id="Fill-948" fill="#00C9FF"></path>
                                <path d="M59.5281067,66.0343092 C61.2540102,68.0433957 62.1944499,70.0703757 64.1471475,71.6528802 C65.8208883,73.0120734 68.350399,70.1011526 67.9595571,67.7392055 C66.9382275,61.5473256 63.0955786,57.3172931 59.0851022,55.3382678 C56.4777255,54.0513646 51.8344933,56.5170941 55.1517357,61.3612328 C55.1517357,61.3612328 58.1144232,64.3909667 59.5281067,66.0343092" id="Fill-950" fill="#009CD3"></path>
                                <path d="M7.06355154,59.5006619 C4.86278053,62.673975 2.15207478,66.492845 2.00297105,70.5649322 C1.87548737,74.0371006 5.88265002,75.0948717 7.85081922,72.7275845 C9.37391379,70.8954397 9.92783413,68.2079504 11.4457101,66.3949441 C14.4203294,62.8440134 16.3788069,58.329532 13.8082586,56.655648 C10.8000909,54.6968945 8.40399404,57.5676718 7.06355154,59.5006619" id="Fill-952" fill="#009CD3"></path>
                                <path d="M63.9698916,70.1836879 C63.7983065,71.009743 63.4942845,71.8549401 62.9745318,72.5344845 C62.0541364,73.741909 60.3382861,72.3555796 61.2678439,71.1555174 C61.6793147,70.6261648 61.9949979,70.0298149 62.3598243,69.4643869 C62.5905479,69.106577 63.0103481,68.9217821 63.3976638,69.031481 C63.9032566,69.1743105 64.0765075,69.6778949 63.9698916,70.1836879" id="Fill-954" fill="#00C9FF"></path>
                                <path d="M66.9377512,73.3384952 C66.9796778,73.6011633 67.0181818,73.8427166 66.9908012,74.094405 C66.8778561,74.8908552 66.466291,75.1628138 65.7569615,74.9069025 C65.6286148,74.792038 65.500268,74.6678829 65.3736326,74.5437279 C64.6146757,73.8063992 64.1842864,72.1999853 64.0242808,70.9559013 C63.8942228,69.9575937 64.2878194,69.7489794 65.1768343,70.2937413 C66.0658492,70.8376585 66.8470529,72.7650173 66.9377512,73.3384952" id="Fill-956" fill="#00C9FF"></path>
                                <path d="M68.8004215,70.1059648 C69.3979766,70.7994903 68.5463373,72.332227 67.6616179,71.9353848 C66.7001805,71.5043974 66.0280189,71.1417003 66.0005694,70.1332809 C65.9787505,69.2925521 66.587567,68.7416774 67.2104602,69.123344 C67.2104602,69.123344 68.641355,69.9215812 68.8004215,70.1059648" id="Fill-958" fill="#00C9FF"></path>
                                <path d="M68.5555916,67.017563 C68.7627305,67.0469987 68.964233,67.0808498 69.1657355,67.1169085 C69.2383046,67.1279469 69.3080555,67.1375135 69.3728744,67.1573826 C69.5997409,67.2324437 69.7202197,67.3457711 69.8632442,67.4944214 C70.1394294,67.7755323 69.9992231,68.6762647 69.4250114,68.8668609 C68.5274094,69.1626897 68.1074951,68.8992401 67.521306,68.715267 C67.1591651,68.5997319 66.8576159,68.0750406 67.0710958,67.7129815 C67.4346458,67.0918882 68.0588808,66.9432379 68.5555916,67.017563" id="Fill-960" fill="#00C9FF"></path>
                                <path d="M9.91558585,68.8799586 C9.96258031,69.1704992 10.7935617,69.7107094 11.0807501,69.9532709 C11.267236,70.110536 11.4514841,70.2722437 11.6245431,70.4455019 C12.1601307,70.9866005 12.0967255,72.0110451 11.599181,72.5636944 C11.0658312,73.1607688 10.2415633,73.1270056 9.71865668,72.5725794 C9.38745764,72.218955 9.00553441,71.9133098 8.71983794,71.5081521 C8.1536666,70.6942829 8.00224001,69.979926 8,68.9492618 C7.99776434,67.6671512 9.7223864,67.7231269 9.91558585,68.8799586" id="Fill-962" fill="#00C9FF"></path>
                                <path d="M8.11898662,71.6492183 C8.39303559,72.5366047 8.60292859,72.7561404 8.8888583,73.6674061 C9.44804493,75.4498819 7.76335659,76.5991705 6.81448183,75.6701879 C5.7578884,74.6349038 6.17688234,73.308446 6.0081759,72.0297468 C5.85927068,70.9027969 7.78949421,70.5915955 8.11898662,71.6492183" id="Fill-964" fill="#00C9FF"></path>
                                <path d="M5.99465979,72.9788596 C5.90249427,73.8237253 5.5321864,74.6315558 5.13554552,75.3961785 C4.60723962,76.4023017 2.81906405,76.0844162 3.01491577,74.9355531 C3.15234114,74.1315805 3.7020426,73.4657183 3.88719654,72.6779485 C4.14394333,71.5900393 6.11562703,71.9002091 5.99465979,72.9788596" id="Fill-966" fill="#00C9FF"></path>
                                <path d="M3.41978342,71.890834 C3.93397972,71.5635411 3.29895637,71.9673846 3.23082082,72.0111278 C3.02913958,72.1376707 2.84199393,72.279055 2.6403127,72.406379 C2.18607568,72.6969589 1.84085555,72.910207 1.26488301,72.9867576 C0.410008948,73.1015835 -0.21592966,72.4509033 0.0702396602,71.7619478 C0.39002252,70.9956605 1.28850334,70.5394813 2.08432659,70.1770376 C2.69845504,69.8997369 3.41614952,69.9231708 3.80951878,70.4269988 C4.18744398,70.9128609 3.97486105,71.5354204 3.41978342,71.890834" id="Fill-968" fill="#00C9FF"></path>
                                <path d="M39.6731164,46.9179486 C39.4976581,47.279506 39.2687064,47.6016939 38.9862614,47.8804949 C38.6082415,48.258925 38.3400613,48.3866753 37.8215321,48.692794 C37.099728,49.1210387 36.1503988,49.0463168 35.388653,48.8036716 C34.9514338,48.6670832 34.5555827,48.4188138 34.1961072,48.1311747 C33.3887137,47.4876024 33.1469237,46.7307422 33.0114071,45.7183813 C32.8473607,44.4963171 34.4928172,43.405217 35.3658292,44.3693702 C37.148942,46.3426705 37.9392175,43.9780847 38.7558832,44.0785174 C39.2580077,44.1403839 39.7579926,44.5565767 39.9683999,45.0659709 C40.1053429,45.3945865 39.7579926,46.6431649 39.6731164,46.9179486" id="Fill-970" fill="#1B1464"></path>
                                <path d="M34.7988215,47.5340135 C36.4890572,46.505715 37.2828283,47.023071 38,48.5665876 C37.9856902,48.5751389 37.9739057,48.5826214 37.9604377,48.5922416 C37.1077441,49.1609056 35.9873737,49.0614963 35.0892256,48.7386833 C34.6994949,48.6018619 34.3375421,48.3784581 34,48.1133667 C34.2558923,47.9006521 34.5210438,47.7029024 34.7988215,47.5340135" id="Fill-972" fill="#992897"></path>
                                <path d="M25.7721304,31.7109808 C22.8912905,27.9389821 23.6606099,23.20617 26.8910047,19.9382045 C29.0450991,17.9775752 32.5847155,16.503728 35.4565925,17.1570211 C40.8418286,18.4643573 45.7139361,24.1062293 43.2013239,29.333324 C45.7139361,28.0259878 48.739677,28.2652536 51.6123009,29.5358374 C52.2904971,29.8261065 52.9186501,30.2176323 53.4668836,30.7119149 C54.015864,31.2069476 54.4834309,31.804737 54.8434426,32.5127837 C57.3560548,37.4143569 55.9204898,44.6020809 49.0989417,45.5816455 C45.8678,46.073678 42.5470289,44.7663418 40.3929344,42.600949 C39.6751519,41.8786513 39.0865852,41.0603474 38.6750366,40.1797893 C37.9692047,38.06765 37.6106869,36.1070207 38.6877342,34.473413 C36.5336397,35.7807492 33.9493239,36.4002901 31.9617908,35.7762489 C33.514621,36.8990729 33.5766148,38.7696963 33.514621,40.5780656 C33.4608434,42.1374184 32.0865251,47.2497555 28.2765266,48.5233395 C26.1216852,49.1766326 23.9675908,49.1766326 21.8493481,48.410082 C20.8469921,48.0553086 19.8931853,47.5535256 19.0364772,46.9557361 C18.1782752,46.3586968 17.415678,45.664901 16.7875249,44.9291025 C14.6334304,42.4794409 14.4982393,39.1094687 15.9950512,36.4340423 C16.4924946,35.5422335 17.1721846,34.7269297 18.018436,34.0503851 C19.097724,33.139825 20.371956,32.4175274 21.7134101,31.9839988 C23.0556111,31.5497202 24.4560713,31.4162114 25.7721304,31.7109808" id="Fill-974" fill="#009CD3"></path>
                                <path d="M26.1560097,22.9444769 C26.820942,22.7494546 27.1949664,22.2193939 26.8954332,21.620754 C26.8123167,21.4564495 26.6782325,21.3635817 26.5206247,21.2599984 C26.8201579,21.4557351 26.4524064,21.2121358 26.3551757,21.1442709 C26.3151857,21.1171249 26.1560097,21.0099698 26.2477515,21.0814065 C26.1246449,20.9892531 26.0038907,20.8963853 25.8745112,20.8099469 C25.8627494,20.8013745 25.8486353,20.7899446 25.8290323,20.7749429 C25.7576775,20.7213653 25.6871069,20.6642159 25.6181045,20.6070665 C25.4056084,20.4341896 25.1899759,20.2777431 24.9359215,20.1541575 C24.4333017,19.9098438 23.81228,19.9498484 23.3849355,20.3177477 C22.8485986,20.7785147 22.9089757,21.4414477 23.3425931,21.9200739 C23.726027,22.3444082 24.4184034,22.7423109 25.0159016,22.8958999 C25.3726754,22.987339 25.7929629,23.0509177 26.1560097,22.9444769" id="Fill-976" fill="#009CD3"></path>
                                <path d="M25.6923564,25.2266025 C26.1177806,24.6214623 26.1273822,23.83656 25.5608885,23.3835948 C25.4050474,23.2590071 25.2462519,23.2412089 25.0638218,23.2260804 C25.4102175,23.2545576 24.9840547,23.2162913 24.8688357,23.2038326 C24.8215663,23.1984931 24.6361818,23.1806949 24.7484465,23.2011628 C24.5999912,23.1771352 24.4522745,23.1513278 24.3016035,23.1370892 C24.2875704,23.1353094 24.2705829,23.1317497 24.2462097,23.1281901 C24.1590568,23.1139515 24.0726425,23.0952633 23.9854897,23.0765752 C23.7218153,23.0205107 23.463311,22.9849142 23.1929894,23.0062721 C22.6582549,23.0498778 22.182607,23.4636869 22.0415376,24.108873 C21.8642775,24.9186929 22.27493,25.5834572 22.8820457,25.8299628 C23.4212118,26.0479912 24.1922931,26.0551105 24.7536166,25.85844 C25.0889336,25.7418615 25.4604412,25.5576497 25.6923564,25.2266025" id="Fill-978" fill="#009CD3"></path>
                                <path d="M16.7313311,39.0953093 C17.1304405,38.4589654 17.1052648,37.6673499 16.5180779,37.2473091 C16.3559166,37.1324261 16.1967171,37.1243484 16.0138228,37.1216558 C16.3610998,37.127041 15.9323719,37.1162707 15.8168597,37.1108856 C15.7694701,37.1090905 15.5828735,37.1037054 15.6961643,37.1162707 C15.5465908,37.1019103 15.3970174,37.0857549 15.245963,37.0812673 C15.2318942,37.0794722 15.2148636,37.0776772 15.1904283,37.0758821 C15.1023132,37.0669069 15.0149386,37.0543416 14.927564,37.0408787 C14.660257,37.0013877 14.4003546,36.9825397 14.1308262,37.0211332 C13.5969526,37.0992178 13.1393467,37.5470818 13.0267963,38.2067614 C12.8846275,39.0333802 13.3252028,39.6760068 13.9449701,39.8842322 C14.4943934,40.0700195 15.2659555,40.0269384 15.8198216,39.7926849 C16.1500679,39.6526712 16.5136351,39.4435483 16.7313311,39.0953093" id="Fill-980" fill="#009CD3"></path>
                                <path d="M54.4536654,33.5870012 C53.9447228,33.1101593 53.8189666,32.3805743 54.3094157,31.843074 C54.4447885,31.6956405 54.5979152,31.6467769 54.776193,31.5962282 C54.4388706,31.6914281 54.853866,31.5701115 54.9648273,31.5347274 C55.0106913,31.5204053 55.1911884,31.4664868 55.083186,31.5077682 C55.2259563,31.4555346 55.3679868,31.4007736 55.5144558,31.3578073 C55.5277711,31.3527524 55.5440454,31.3460126 55.5669774,31.3375878 C55.6505683,31.3064162 55.7334194,31.2718746 55.8162706,31.2364906 C56.0685227,31.1303385 56.3178158,31.0452483 56.5870819,31.0098643 C57.1204361,30.9416237 57.6508312,31.2297508 57.8860692,31.8026351 C58.1804866,32.5204254 57.8742334,33.2238937 57.3120293,33.5768915 C56.8134431,33.8894504 56.0544676,34.052891 55.4722904,33.9846503 C55.1238719,33.943369 54.7318085,33.8473266 54.4536654,33.5870012" id="Fill-982" fill="#009CD3"></path>
                                <path d="M17.169673,36.9401309 C17.8304688,36.7376808 18.196448,36.2006856 17.8906833,35.6026682 C17.8062266,35.4382673 17.6717214,35.3456572 17.512974,35.2437142 C17.8132647,35.4375494 17.4449394,35.1963323 17.3464066,35.1295668 C17.3057422,35.1022863 17.1462128,34.996036 17.2384896,35.0671088 C17.1149325,34.9759345 16.9929395,34.8833244 16.8631263,34.7978933 C16.8513962,34.7892784 16.8373201,34.7785098 16.8177699,34.7634338 C16.7450433,34.7095907 16.6746627,34.6528759 16.605064,34.5968791 C16.3907942,34.4245812 16.1741783,34.2702309 15.919244,34.1481866 C15.4156316,33.9084053 14.7962822,33.9536335 14.3739985,34.3276636 C13.8453618,34.7971754 13.9133964,35.4626762 14.3513203,35.9386492 C14.7391957,36.3607791 15.4343998,36.7549106 16.031853,36.9020817 C16.3884481,36.9903844 16.8083858,37.0506887 17.169673,36.9401309" id="Fill-984" fill="#009CD3"></path>
                                <path d="M54.1436682,30.994998 C53.3973092,30.9254043 52.8694788,30.3869235 53.0283322,29.6031249 C53.0720379,29.3873846 53.1880261,29.2438477 53.3258672,29.0829124 C53.0644735,29.3882545 53.3855423,29.0089691 53.4695917,28.9054486 C53.504052,28.8628225 53.6427336,28.6966676 53.5654081,28.8036679 C53.6704699,28.6644806 53.7730102,28.5244233 53.884796,28.3904555 C53.8948819,28.3765368 53.9074893,28.3608782 53.9234587,28.3382603 C53.9856553,28.2564878 54.0436494,28.1712355 54.100803,28.0868532 C54.2781473,27.8293567 54.4630561,27.5909985 54.6967135,27.3822175 C55.1589854,26.9698751 55.8187735,26.8646147 56.3617329,27.1977943 C57.0416928,27.6144863 57.1501166,28.4174231 56.8206428,29.0907417 C56.5289912,29.6883772 55.9087064,30.3303786 55.3228818,30.6583387 C54.9732362,30.8540709 54.5504675,31.0324046 54.1436682,30.994998" id="Fill-986" fill="#009CD3"></path>
                                <path d="M43.8435732,22.9444769 C43.178697,22.7494546 42.8047041,22.2193939 43.1049961,21.620754 C43.1873215,21.4564495 43.3213945,21.3635817 43.4789889,21.2599984 C43.1802651,21.4557351 43.5472015,21.2121358 43.644424,21.1442709 C43.6851947,21.1171249 43.8443573,21.0099698 43.7518391,21.0814065 C43.8749353,20.9892531 43.9956793,20.8963853 44.1250479,20.8099469 C44.1368087,20.8013745 44.1509217,20.7899446 44.170523,20.7749429 C44.2426558,20.7213653 44.3124364,20.6642159 44.3822171,20.6070665 C44.5939112,20.4341896 44.8095255,20.2777431 45.0643425,20.1541575 C45.5661359,19.9098438 46.1871052,19.9498484 46.6144136,20.3177477 C47.1514894,20.7785147 47.0911173,21.4414477 46.6575365,21.9200739 C46.2733509,22.3444082 45.5810328,22.7423109 44.9835851,22.8958999 C44.6268413,22.987339 44.2073734,23.0509177 43.8435732,22.9444769" id="Fill-988" fill="#009CD3"></path>
                                <path d="M43.4792322,25.6324549 C42.9575386,25.1775401 42.8130353,24.4610077 43.2910075,23.9136103 C43.422913,23.7628052 43.5748267,23.7094818 43.7511947,23.653659 C43.4162437,23.7594725 43.8290041,23.6253309 43.9394194,23.5870048 C43.985364,23.5711744 44.1639552,23.5120188 44.0565041,23.5561772 C44.1987842,23.5003544 44.3395822,23.442032 44.4840854,23.3937077 C44.4981652,23.3887086 44.5137271,23.3820432 44.5374404,23.3728783 C44.6204372,23.3395512 44.7019518,23.3020582 44.7842075,23.2645652 C45.0346797,23.1520863 45.2814468,23.0596036 45.5504451,23.0154452 C46.0832544,22.9304612 46.62051,23.1987442 46.8709822,23.7569729 C47.1844431,24.4568418 46.8954366,25.1625429 46.3411371,25.5291409 C45.8498261,25.8557464 45.0939631,26.0407117 44.5100219,25.9923874 C44.16025,25.9632262 43.7645335,25.8807417 43.4792322,25.6324549" id="Fill-990" fill="#009CD3"></path>
                                <path d="M53.9339113,35.5848828 C54.1046717,36.9072743 54.1046717,38.624318 51.8833278,41.6974058 C50.7777641,43.227831 48.7753438,43.9146485 46.8641416,43.9941909 C45.6075207,44.0423752 44.4187661,43.790746 43.2978777,43.241598 C42.7950834,42.908132 42.2930189,42.5769605 41.7894948,42.2427297 C39.4229317,39.9597116 39.1040331,37.7317612 39.0274099,36.8759162 C38.6764026,32.949278 41.7384126,29.3813451 45.8118493,29.0287584 C47.7807014,28.8574364 49.7619591,29.4570633 51.2776395,30.6807916 C51.711108,31.1328062 52.1445765,31.5855857 52.5780451,32.0376004 C53.356683,33.102244 53.8076654,34.2854363 53.9339113,35.5848828" id="Fill-992" fill="#FFFFFF"></path>
                                <path d="M51,37.7189672 C50.9427303,39.0120467 50.4280278,40.0931114 49.4544426,40.9642607 C48.88682,41.433072 48.2235063,41.7479452 47.4623265,41.9060815 C46.0175349,42.1992635 44.4589287,41.7941266 43.4316985,40.8572038 C42.8937982,40.3611035 42.310227,39.3395148 42.2703557,39.2625458 C42.2580319,39.2380557 42.2471579,39.2163644 42.2355589,39.1932737 C41.9796575,38.5187453 41.931812,37.8330213 42.094197,37.1375013 C42.2573069,36.4657718 42.5951257,35.8682124 43.1098282,35.3476219 C44.1660557,34.2875487 45.842826,33.7935476 47.4173807,34.0804321 C48.1858097,34.2238744 48.8679718,34.5198552 49.4638668,34.9683746 C49.7204931,35.2244715 49.9785693,35.4784693 50.2359205,35.7345662 C50.6940782,36.3356242 50.9485298,36.9975577 51,37.7189672" id="Fill-994" fill="#000000"></path>
                                <path d="M31.1343746,44.8501457 C29.9183476,46.211169 27.9669606,46.9185768 26.0170851,46.9952127 C24.7375737,47.037215 23.5253256,46.8028862 22.3818521,46.2900155 C21.8694429,45.9805245 21.356278,45.6688229 20.8446246,45.3585951 C19.8689311,44.5819202 19.175894,43.6387097 18.7677805,42.532648 C18.2213619,41.7397616 18.1057298,41.1495182 18.0278859,40.3507368 C17.6704087,36.6869535 20.7924768,33.3555045 24.9446535,33.0268546 C26.9512115,32.8669509 28.9706174,33.4262453 30.5161583,34.5684142 C30.959037,34.9913852 31.4011599,35.4128824 31.8425271,35.8358534 C32.636081,36.8291719 34.3153924,41.289526 31.1343746,44.8501457" id="Fill-996" fill="#FFFFFF"></path>
                                <path d="M29.1580055,36.9510853 C28.872634,36.6639646 28.5887488,36.3768439 28.3033773,36.0897232 C27.6456852,35.5834264 26.8936124,35.2510093 26.0441863,35.0910107 C24.3044606,34.7673607 22.4525185,35.3218762 21.2857653,36.516386 C20.7187381,37.1015862 20.344188,37.7737263 20.1636013,38.5291532 C19.984501,39.3130731 19.8626236,39.6074997 20.2951397,40.7917813 C20.5730797,41.528213 21.0479557,42.1565178 21.6409933,42.7146863 C22.7765341,43.7681928 24.4969377,44.2248097 26.0939777,43.8938538 C26.9329996,43.7155905 27.6672367,43.362717 28.2929731,42.8330414 C29.3683183,41.8533242 29.937575,40.6361662 30,39.1830286 C29.9435202,38.372077 29.6633508,37.6276089 29.1580055,36.9510853" id="Fill-998" fill="#000000"></path>
                                <path d="M42,24.5852126 C41.8658544,25.5812987 41.734641,26.5797193 41.6012284,27.5765835 C41.3256069,28.7532101 40.7721648,29.793653 39.9416351,30.6971342 C38.6624873,32.076869 36.819635,32.9142038 34.8998138,32.9943576 C33.6367929,33.0418273 32.4419443,32.789693 31.3167342,32.2410675 C30.8124054,31.9080013 30.3073437,31.574935 29.8022819,31.2418687 C28.8398057,30.4099813 28.1170323,29.0691561 27.7563786,28.2147011 C27.3957249,27.360246 27.1032435,26.7306885 27.0277408,25.8762335 C26.6736845,21.9494757 29.7509694,18.379908 33.842043,18.0289433 C35.819774,17.8569629 37.8092335,18.4569491 39.3324822,19.6810454 C39.7679056,20.1323969 40.2040619,20.5860829 40.6394853,21.0374344 C41.4209016,22.1027795 41.8746509,23.2848535 42,24.5852126" id="Fill-1000" fill="#FFFFFF"></path>
                                <path d="M39,26.7159139 C38.9490657,28.0072171 38.4879038,29.0877559 37.6165142,29.9590145 C37.1085478,30.4280396 36.5159203,30.742702 35.8358786,30.9007753 C34.5425603,31.193916 33.1060753,30.835468 32.2298677,29.8528901 C31.2118699,28.7107547 30.88768,26.8302017 31.0329116,26.1355696 C31.1795198,25.4632014 31.4823724,24.8665302 31.9414694,24.3470404 C32.8871955,23.2865391 34.3856276,22.7930238 35.7952688,23.0809696 C36.4835702,23.2234582 37.0927169,23.5195674 37.6254622,23.9678129 C37.8560431,24.223105 38.0866241,24.477655 38.317205,24.7329471 C38.7267444,25.334071 38.9552604,25.9945652 39,26.7159139" id="Fill-1002" fill="#000000"></path>
                                <path d="M14.9078845,48.4294667 C15.258184,48.1842974 15.6009176,47.9930115 16.0177968,48.0001959 C17.0573465,48.0109726 17.932717,49.1461153 17.9970268,50.4985876 C18.0590669,51.8115454 17.1413276,52.9493823 16.0730276,52.9987754 C15.0728203,53.040984 13.9258353,51.9866663 14.0037637,50.6737085 C14.0559682,49.8025942 14.2178777,48.9081305 14.9078845,48.4294667" id="Fill-1004" fill="#1DD4FF"></path>
                                <path d="M51.9077719,59.429164 C52.2585234,59.1835531 52.601515,58.9924437 53.0182265,59.0002297 C54.0572891,59.0108469 54.93184,60.1461779 54.9970239,61.4980994 C55.0591039,62.8110913 54.141097,63.9492535 53.0725464,63.9988004 C52.0730597,64.0405613 50.9261332,62.9866288 51.0037331,61.6736369 C51.055725,60.8023199 51.2179088,59.9076451 51.9077719,59.429164" id="Fill-1006" fill="#1DD4FF"></path>
                                <path d="M47.6809958,68.2574881 C47.9431643,68.1099899 48.2005833,67.9955251 48.5130957,68.0001344 C49.2929518,68.0062802 49.9502727,68.6876911 49.997767,69.4989311 C50.0443114,70.2871245 49.3565942,70.9693037 48.5548906,70.9992642 C47.8044809,71.0246155 46.9448344,70.3916024 47.0027774,69.6041772 C47.0417227,69.0817878 47.1633081,68.5448022 47.6809958,68.2574881" id="Fill-1008" fill="#1DD4FF"></path>
                                <path d="M21.4535856,59.172181 C21.6285307,59.0737125 21.800699,58.9977939 22.0089671,59.000049 C22.5291744,59.004559 22.9660746,59.4585666 22.9984718,59.9997679 C23.0299434,60.5244324 22.5708281,60.9799434 22.0358105,60.9994868 C21.5359671,61.0167751 20.9629985,60.5950892 21.0018752,60.069673 C21.027793,59.7208989 21.1083234,59.3631048 21.4535856,59.172181" id="Fill-1010" fill="#1DD4FF"></path>
                                <path d="M17.1341688,53.6010403 C17.5725818,53.256693 18.0009702,52.9898611 18.5215856,53.0002959 C19.8214535,53.0152027 20.9154811,54.6042685 20.996347,56.4974332 C21.0732029,58.3361881 19.9263786,59.9289806 18.5910901,59.9982972 C17.3406774,60.0571791 15.907147,58.5814051 16.0047206,56.7433955 C16.0695469,55.5240186 16.2720456,54.2711013 17.1341688,53.6010403" id="Fill-1012" fill="#1DD4FF"></path>
                            </g>
                        </g>
                    </g>
                    <path d="M90.2085803,73.0745061 C89.3578789,71.3322923 87.4337551,69.7338479 85.8414165,68.7489707 C83.4351138,67.2716549 79.8853581,69.8096948 80.9151546,72.5741432 C81.3755207,73.8114659 81.9805405,74.7680421 82.753175,75.8015971 C82.7876163,75.8491429 82.8209096,75.8978208 82.856499,75.9442345 C82.8404264,75.93065 82.8909404,76.008761 83.0068929,76.1808315 C83.314569,76.6596856 83.6096167,77.1294833 83.999952,77.5573955 C85.1709581,78.8298115 87.1697048,79.1026339 88.6736439,78.2898271 C90.5931755,77.2483478 91.1281645,74.9593573 90.2085803,73.0745061" id="Fill-5" fill="#E59900"></path>
                    <path d="M52.7812537,74.1844801 C52.4038206,71.8220036 49.641645,70.7284951 47.8394869,72.5385573 C46.1903422,74.193536 45.1226485,76.5209206 44.4777253,78.7260496 C44.0175516,80.3063165 45.2405255,82.0869468 46.6618502,82.7129409 C48.460608,83.5019423 50.9586938,82.7355808 51.6965586,80.8406188 C52.4922284,78.7996293 53.1258173,76.3398012 52.7812537,74.1844801" id="Fill-7" fill="#E59900"></path>
                    <path d="M55.2379182,72.7751603 C48.6589847,75.8170951 41.325576,76.4574432 34.5671138,75.4828536 C33.4660798,75.2138849 32.4070874,74.8042422 31.4128617,74.2460477 C30.418636,73.6923548 29.4880408,72.9889848 28.6517549,72.137063 C26.8837376,70.3308087 27.0234973,67.116689 28.6972052,65.3712059 C29.4755419,64.5597982 30.6833841,64.0691272 31.8775912,64.0443686 C33.7171928,64.5327888 35.2386422,65.5760272 36.849856,66.5528675 C41.1460472,68.5121751 45.4865526,69.8390124 50.2202032,70.4208401 C52.6097536,71.1613481 54.60275,72.0245238 55.2379182,72.7751603" id="Fill-33" fill="#FFB000"></path>
                    <path d="M29.4515964,69.7593888 C30.5950114,67.9668763 32.0332215,66.3121596 32.5762082,64.1926742 C32.432062,64.1412927 32.2879159,64.0887435 32.1405183,64.0443686 C31.0014385,64.0700593 29.8504368,64.5792029 29.1069461,65.4211583 C27.7207587,66.9952996 27.4389692,69.7185172 28.4967635,71.6348123 C28.7492903,70.992544 29.0657615,70.3666243 29.4515964,69.7593888" id="Fill-35" fill="#FFD41D"></path>
                    <path d="M36.7683532,66.5023439 C36.2031347,66.1566684 35.6469597,65.804215 35.0873933,65.4675768 C33.7071297,68.2928524 31.5423428,70.8255465 30.6877323,73.8180116 C30.909298,73.9592189 31.1319941,74.0992965 31.3592119,74.2246886 C32.3099095,74.7635357 33.3205202,75.1611754 34.3706962,75.4300341 C34.9980888,73.9117733 35.1043499,72.2240636 35.4819159,70.6233377 C35.7260903,69.6021265 36.2268739,68.7706979 36.7977446,67.9460473 C37.0893974,67.5246847 37.2329629,67.1259153 37.2973978,66.7350535 C37.1210496,66.6548478 36.943571,66.5836793 36.7683532,66.5023439" id="Fill-37" fill="#FFD41D"></path>
                    <path d="M40.2042848,67.8395904 C39.9005275,68.93513 39.493163,70.0090993 39.0846212,71.0762569 C39.0457685,71.3101234 39.0092705,71.5417193 38.9869008,71.7812621 C38.8550371,73.1413205 38.7820412,74.5025142 38.7137546,75.8648431 C39.9440896,75.9170657 41.1803113,75.9193362 42.4224198,75.8614373 C42.5448646,75.2359012 42.6084417,74.6092299 42.5625249,73.9893703 C42.4400801,72.2149368 43.1099945,70.5563014 43.4349442,68.8931248 C42.3458918,68.5809244 41.2733223,68.2301247 40.2042848,67.8395904" id="Fill-39" fill="#FFD41D"></path>
                    <path d="M64.3472109,78.8890566 C63.3922581,76.6534812 61.9459326,74.565344 60.9554053,72.2794796 C60.3195113,70.8119546 58.6408399,68.4175116 57.3145783,68.8369677 C55.5736515,69.3844322 54.3618954,73.2383997 54.891066,75.1459536 C55.7604176,78.2775879 57.1778389,84.026537 60.7475169,84.4231345 C63.4689656,84.7271545 65.5089405,81.6000919 64.3472109,78.8890566" id="Fill-41" fill="#E59900"></path>
                    <path d="M80.2275127,71.4474304 C80.0928936,70.8356394 80.0883686,70.3534845 79.8462806,69.7291848 C78.2828899,65.6786283 73.7816369,67.2615521 73.7352556,71.2472906 C73.203567,72.8552319 72.728441,74.4927393 72.369834,76.1836932 C71.7849766,78.9356153 73.1492669,81.943398 75.3518151,82.7883064 C76.4185861,83.1988204 77.570201,83.0612243 78.5249779,82.4050841 C79.9209433,81.4487343 80.4096443,79.8601247 80.6019572,77.954248 C80.6596511,77.3640631 80.6981136,76.7704666 80.7218699,76.1711844 C80.7829576,74.5382256 80.5714134,73.0326285 80.2275127,71.4474304" id="Fill-43" fill="#E59900"></path>
                    <path d="M48.5265472,70.7211412 C48.1187,69.2493812 47.7840561,67.7522858 47.4482502,66.2540387 C47.1449791,64.8951367 45.9098177,64.2214438 45.0278915,64.6440854 C44.0100163,65.1312172 43.7323083,66.5315772 44.0065304,67.8973889 C44.2714568,69.2217425 44.5061724,70.5553091 44.7583173,71.8808143 C45.0325394,73.329542 46.1619626,74.2577412 47.1775139,73.946806 C48.1279956,73.6554482 48.9158032,72.1261076 48.5265472,70.7211412" id="Fill-53" fill="#FFD41D"></path>
                    <path d="M65.6968311,69.8570687 C65.8734911,70.3670256 66.0868164,70.8658481 66.2590321,71.3802587 C66.6479064,72.5504873 67.6978669,73.3187629 68.8456015,72.9758225 C70.1555522,72.5838906 70.7499742,70.8992513 70.0477784,69.6232457 C69.4855774,68.6066723 68.9111546,67.6123677 68.2522905,66.6659411 C67.7767528,65.9822872 66.8712313,65.7618254 66.1668134,66.0947449 C65.2490702,66.5289877 64.9524147,67.6246155 65.2835133,68.6088991 C65.4101752,69.0297806 65.5501699,69.4428679 65.6968311,69.8570687" id="Fill-57" fill="#FFD41D"></path>
                    <path d="M60.4570859,82.0800216 C60.0451567,81.9910729 59.8097686,82.6347807 60.0651425,82.967168 C60.2072636,83.1509174 60.3482744,83.3299852 60.4748511,83.5266087 C60.5925451,83.7080172 60.6547231,83.9268779 60.7724171,84.1071161 C60.9334137,84.3470435 61.155478,84.5050445 61.4297273,84.4207773 C61.7494998,84.3248063 61.8971726,83.9666707 61.8327739,83.6097055 C61.6928735,82.8513006 61.1143961,82.2251485 60.4570859,82.0800216" id="Fill-67" fill="#C17B00"></path>
                    <path d="M62.6656652,80.7533061 C62.2228209,80.4386739 61.6231619,80.886855 61.9330275,81.374648 C62.1337502,81.694939 62.3244367,82.0276794 62.5201413,82.3491022 C62.7359181,82.7101369 62.7735536,83.2092476 63.1950712,83.4061756 C63.4986642,83.5476469 63.8976005,83.5431198 64.0795054,83.2205653 C64.6114204,82.281196 63.36694,81.2467579 62.6656652,80.7533061" id="Fill-69" fill="#C17B00"></path>
                    <path d="M65.1051685,80.2734282 C65.0930474,80.2399283 65.0688053,80.2131284 65.0526439,80.1807453 C65.0304219,80.1293788 65.0041596,80.0802457 64.9677965,80.0322292 C64.8950701,79.933963 64.8172933,79.8468634 64.7364862,79.7631138 C64.4405302,79.4627318 64.1082111,79.2874159 63.7284178,79.2293495 C63.3264025,79.1645831 63.0718602,79.8859466 63.4476132,80.1483621 C63.7516498,80.3616445 63.9829601,80.61736 64.2243713,80.9233253 C64.6243663,81.4258231 65.1980966,80.8853588 65.1011281,80.3381946 C65.167794,80.4878272 65.1698142,80.4677273 65.1051685,80.2734282" id="Fill-71" fill="#C17B00"></path>
                    <path d="M73.5477538,77.8175795 C73.1503435,77.9400563 72.9173789,78.2957717 72.7002263,78.6589422 C72.4430165,79.0924037 72.2458926,79.4736794 72.2342971,80.0147076 C72.225864,80.4758595 72.7729619,80.8763056 73.1134487,80.4982249 C73.4307444,80.1425095 73.6247059,79.7569737 73.8429126,79.3245772 C74.0147372,78.981642 74.1802369,78.6088864 74.1032848,78.2031153 C74.059011,77.9411213 73.7838808,77.7440934 73.5477538,77.8175795" id="Fill-73" fill="#C17B00"></path>
                    <path d="M74.6272117,79.8746486 C74.0365725,80.534724 73.4313752,81.6046658 73.7287746,82.6340976 C73.8587568,83.0832825 74.3682871,83.147622 74.5908166,82.7913719 C74.8008679,82.4541853 74.8518209,82.0693399 75.0005206,81.6940262 C75.1346623,81.3532652 75.3124779,81.044674 75.4632573,80.7170192 C75.7689755,80.0533693 75.0805897,79.3694644 74.6272117,79.8746486" id="Fill-75" fill="#C17B00"></path>
                    <path d="M77.2650774,81.4079776 C76.8776616,80.8572935 76.0455272,81.1730332 76.0405444,81.7715567 C76.0355615,81.9884285 75.9857331,82.2956634 76.0280873,82.5614376 C76.1127956,83.1004277 76.8166218,83.1440147 77.1442436,82.8006344 C77.4481968,82.4817054 77.5366423,81.7938818 77.2650774,81.4079776" id="Fill-77" fill="#C17B00"></path>
                    <path d="M44.7066238,78.2828838 C44.1442311,78.2482965 43.7640047,78.3508657 43.3312069,78.6466464 C43.0341168,78.8482067 42.9742098,79.1547215 42.9632064,79.5053648 C42.9497579,79.8691275 43.2945291,80.1923395 43.6295195,80.1732569 C44.0989951,80.1529816 44.1381181,80.0205958 44.420537,79.8190356 C44.5953678,79.6926131 44.7970956,79.6186679 44.9927105,79.5339888 C45.6003391,79.2739879 45.2910231,78.3174711 44.7066238,78.2828838" id="Fill-79" fill="#C17B00"></path>
                    <path d="M45.9560041,80.2228397 C45.6214893,80.3994383 45.3482842,80.5102453 45.0471133,80.739939 C44.8556546,80.8853732 44.6803301,81.0781313 44.5383496,81.2858944 C44.0059224,82.063852 44.9298718,82.988398 45.5375917,82.3108593 C45.8893163,81.9138008 46.2819141,81.5744544 46.6185801,81.1589281 C46.9982706,80.6822271 46.4045337,79.9827578 45.9560041,80.2228397" id="Fill-81" fill="#C17B00"></path>
                    <path d="M47.5713705,80.7934684 C47.1774482,81.1213149 46.9343633,81.5050444 46.7797862,82.006749 C46.5092763,82.8685881 47.6835635,83.4187245 48.1098971,82.663684 C48.3118446,82.307275 48.4676683,81.9297548 48.5923272,81.5311231 C48.8017543,80.8580442 48.0475677,80.401046 47.5713705,80.7934684" id="Fill-83" fill="#C17B00"></path>
                    <path d="M89.994482,76.5463876 C89.881121,76.4112872 89.7687906,76.2574228 89.645124,76.1360825 C89.418402,75.9159188 89.2102299,75.6882495 88.9639274,75.5056137 C88.5104833,75.1678626 88.0869254,76.0435137 88.3868168,76.5263727 C88.5949888,76.8678767 88.8083136,77.2781818 89.0886245,77.524615 C89.2947354,77.7047489 89.5472213,77.8748755 89.7966155,77.7697973 C89.9810848,77.6922396 90.1222708,77.488338 90.163493,77.238152 C90.2026541,76.9892169 90.1377291,76.7227688 89.994482,76.5463876" id="Fill-85" fill="#C17B00"></path>
                    <path d="M90.719584,74.355552 C90.4384088,74.2125448 90.158372,74.0749546 89.8487378,74.0153683 C89.4981226,73.9481982 89.1884884,74.2883819 89.2351612,74.6415663 C89.2590668,74.8409096 89.3877016,75.015335 89.5641476,75.096589 C89.5869148,75.1063395 89.7349017,75.1247571 89.8703667,75.1225903 C89.7952348,75.1507584 89.720103,75.1789265 89.6415561,75.2070946 C89.7371784,75.2731812 89.8350775,75.3403512 89.9329765,75.4021043 C90.0866553,75.5061095 90.2426107,75.6133649 90.4053964,75.7065362 C90.6774647,75.8603773 90.96547,75.9968841 91.2659973,75.8235421 C91.5004997,75.6870353 91.6109207,75.4909421 91.5881535,75.2049278 C91.5483108,74.7369044 91.0519854,74.5299774 90.719584,74.355552" id="Fill-87" fill="#C17B00"></path>
                    <path d="M90.9504824,72.1093418 C90.6818008,71.8453955 90.406374,71.6694313 90.0387637,71.6404616 C89.6902645,71.6147107 89.3901056,71.6769419 89.0730838,71.8282283 C88.532348,72.083591 88.7279572,73.0267163 89.3586282,72.9108374 C89.7498466,72.8389496 90.123078,72.9623391 90.5086754,73.0460294 C91.0302999,73.1565435 91.3248379,72.4762916 90.9504824,72.1093418" id="Fill-89" fill="#C17B00"></path>
                    <path d="M115.369425,65.2870404 C100.415758,67.8531213 85.4779365,66.6531145 70.4382509,65.6828721 C56.0753964,64.7547152 41.5280545,64.5249508 27.1369044,64.0984082 C17.9329065,63.8265583 8.89075959,63.5808697 8.5093347,52.2018481 C8.21958759,43.4855904 12.2104012,33.3259123 17.9883659,27.4714717 C32.902419,12.3604859 53.9883118,-1.12167544 76.135856,6.34111548 C88.3505074,10.4563994 99.4820025,18.4037428 107.419489,28.3074953 C113.544924,35.9522778 119.706577,46.7489264 119.848055,57.0212118 C119.85145,57.2407391 119.840132,57.4511669 119.82655,57.6604571 C120.763701,60.9488169 119.707709,64.5420125 115.369425,65.2870404 M111.937733,25.0760079 C82.6981752,-9.96873957 31.2318459,-9.20664996 8.94395535,33.2189922 C5.86765602,39.8309727 3.3063369,46.6761298 2.44954566,53.0879195 C0.420184104,68.2648772 3.88130381,84.2835457 13.0705879,96.625985 C25.1562113,112.793659 48.9686695,122.877128 66.3795277,122.870311 C87.5321982,122.863479 105.415027,111.908725 116.024751,93.6708973 C116.874752,94.2054974 123.302384,76.0996133 123.850187,73.7132491 C125.653183,65.8512142 126.291532,57.7901261 124.588136,49.8609819 C122.520293,40.7329683 117.85378,32.2032519 111.937733,25.0760079 Z" id="Fill-91" fill="#AC3AE8"></path>
                    <path d="M124.582997,49.9393684 C122.504477,40.8104895 117.813871,32.2821648 111.86728,25.1539958 C99.691955,10.6383277 83.681551,2.28630207 67.5130112,0.47440273 C67.6973134,1.86545916 67.8645506,3.25196593 68.0192735,4.62709857 C70.6188452,4.95581101 73.2434457,5.53475436 75.8805605,6.41966189 C88.1582752,10.5359605 99.3472415,18.483067 107.325708,28.3865243 C113.482768,36.0299415 119.676234,46.8262683 119.818442,57.0993849 C119.821855,57.3177682 119.810479,57.5293271 119.795689,57.7374737 C120.738816,61.0268729 119.677372,64.618824 115.316689,65.3649671 C100.963868,67.8138179 86.6281115,66.8310928 72.2024793,65.8915895 C71.7280717,80.8064897 70.1239596,95.6417709 69.3150775,110.538473 C69.0943699,114.644534 68.8372569,118.773345 68.3935663,122.870307 C88.6349582,122.094591 105.702256,111.316463 115.975399,93.7468404 C116.829788,94.2825621 123.290606,76.1772177 123.841237,73.7909246 C125.653542,65.9291241 126.295187,57.8682763 124.582997,49.9393684" id="Fill-93" fill="#8A3CE5"></path>
                    <path d="M70.8101326,100.978664 C71.0554528,93.2968758 72.132525,85.6604682 72.2342007,77.9843526 C72.2458395,77.0948943 69.8825889,77.1141811 69.8931026,78.0104464 C70.103377,92.7806724 68.3359039,107.979744 67.0427163,122.689841 C66.9913159,123.265039 68.0403515,123.350128 68.4013226,123.34471 C68.7038841,123.341052 68.9655589,123.294536 69.2038698,123.196968 C69.7622652,123.073306 70.2482327,122.781737 70.2715965,122.335873 C70.3066423,121.726639 70.3229969,121.103792 70.3148196,120.492289 C70.3089786,120.008987 70.0648267,119.502994 70.1851504,119.025364 C70.2482327,118.772367 70.0823496,118.62715 69.8370294,118.548868 C71.7960859,113.345991 70.6512586,105.953504 70.8101326,100.978664" id="Fill-107" fill="#8A30C4"></path>
                    <path d="M79.1207144,81.6409085 C78.6001908,80.6829829 76.5088012,81.193646 76.1393223,82.0397559 C75.8767367,82.6403326 75.1865782,83.8852899 75.7617103,84.4512845 C76.4634877,85.1452329 78.3178532,85.0841378 78.8476719,84.1423506 C79.2380646,83.4472494 79.5238879,82.3809664 79.1207144,81.6409085" id="Fill-109" fill="#8A30C4"></path>
                    <path d="M78.3434941,91.7843271 C78.3209206,91.4273068 78.092929,91.1339588 78.0726129,90.7985417 C78.013922,89.8741546 76.0917948,89.9980884 75.7678661,90.6768819 C75.3829892,91.4830201 74.7170732,92.5529441 75.2904382,93.4341249 C75.8739612,94.3278127 77.8920255,93.917353 78.250943,92.996377 C78.415729,92.5756843 78.3739682,92.226623 78.3434941,91.7843271" id="Fill-111" fill="#8A30C4"></path>
                    <path d="M77.4825134,99.4810405 C77.0339604,98.9369474 75.7175548,99.1164067 75.3177576,99.6387818 C74.8811226,100.206879 74.7001846,100.842416 74.6070069,101.552252 C74.5289977,102.140924 74.8345338,102.713594 75.2440822,103.086229 C75.6384622,103.445148 76.6634166,103.605175 77.0317935,103.096516 C77.7219584,102.140924 78.3373645,100.523505 77.4825134,99.4810405" id="Fill-113" fill="#8A30C4"></path>
                    <path d="M76.2741874,109.595 C75.8939354,108.885305 74.3620002,109.052354 73.883407,109.496047 C73.2551169,110.082317 72.9579084,111.237834 73.3654775,112.00605 C73.6113301,112.467831 74.4734534,112.466767 74.9017833,112.40399 C75.4306397,112.327381 76.0294275,112.096491 76.2512412,111.584701 C76.513484,110.973959 76.5954349,110.196166 76.2741874,109.595" id="Fill-115" fill="#8A30C4"></path>
                    <path d="M75.5201733,117.639631 C75.7673904,116.300917 73.5112656,116.609944 73.0232805,117.254555 C72.7588657,117.605831 72.5729154,118.002979 72.4804777,118.449619 C72.4063126,118.799689 72.1515715,119.403257 72.2612069,119.749705 C72.6051611,120.832506 74.2615157,120.58625 74.8881574,119.980268 C75.2374859,119.641062 75.4567567,119.289786 75.4933018,118.764682 C75.5180236,118.409784 75.4567567,117.983665 75.5201733,117.639631" id="Fill-117" fill="#8A30C4"></path>
                    <path d="M125.469245,54.7933375 C125.408004,54.4736486 125.053031,54.2695918 124.775177,54.1970383 C124.548357,54.1358213 124.319269,54.0768715 124.090181,54.0156545 C123.553753,53.875082 122.179226,54.0303919 122.043134,54.7672636 C122.019318,54.8840295 122.01705,55.0053299 122.000038,55.124363 C113.874225,56.1514488 91.1446278,58.4924335 85.604558,58.5071709 C71.4328665,58.5479823 59.0428433,58.9277546 44.9029065,58.1670763 C38.4306079,57.8190461 31.5874592,56.0403512 25.1242334,55.2048521 C18.8923636,54.3976941 12.6355437,53.7515143 6.39573521,52.990836 C5.74816512,52.9126142 5.06203569,52.8763375 4.36002889,52.8706692 C4.2863125,52.5691186 4.17403678,52.2811719 3.95402172,52.0340364 C3.4527503,51.4694793 1.63932723,51.6406603 1.60417019,52.5611831 C1.55086757,53.875082 0.730914547,55.2490644 0.434914909,56.5266865 C-0.0527473304,58.6375406 0.0436510193,60.9241101 0.00849397411,63.0757755 C-0.0448086428,66.2307201 0.0935513414,70.7913891 2.18482848,73.3137576 C3.01725658,74.3159031 5.504334,73.2593425 5.55536842,72.4045713 C13.5689065,73.7422769 21.9124672,74.1254502 29.8602276,74.9428109 C44.4424627,76.4448956 59.0666594,77.4617785 73.7589019,77.3132705 C87.1049699,77.1817673 101.757519,76.4256235 114.781503,73.9089232 C116.15036,73.6436494 118.813222,73.0654885 121.778889,72.2061828 C121.732391,72.3456216 121.694966,72.4850604 121.645066,72.6244992 C121.18689,74.1458558 124.805797,73.5302845 125.267375,72.2639989 C127.28607,66.7238573 126.517152,60.4615814 125.469245,54.7933375" id="Fill-95" fill="#8E2CCE"></path>
                </g>
            </g>
        </g>
    </g>
</svg>