<?xml version="1.0" encoding="UTF-8"?>
<svg width="90px" height="114px" viewBox="0 0 90 114" version="1.1" xmlns="http://www.w3.org/2000/svg" xmlns:xlink="http://www.w3.org/1999/xlink">
    <title>Group 2</title>
    <g id="Student-Environmrnt---New-Treatment" stroke="none" stroke-width="1" fill="none" fill-rule="evenodd">
        <g id="Avatars" transform="translate(-341.000000, -366.000000)">
            <g id="Group-2" transform="translate(341.000000, 366.000000)">
                <g id="Group">
                    <path d="M55.9615843,90.6375515 C53.0479413,85.1769048 44.7148546,89.011572 46.1688517,94.729955 C47.2387315,98.9344177 46.5416715,103.117589 47.1698163,107.332137 C47.9301427,112.431953 54.2805061,114.710118 58.2640289,111.552288 C64.3940897,106.682194 58.6933365,95.7586588 55.9615843,90.6375515" id="Fill-1433" fill="#5CCDFF"></path>
                    <path d="M83.4813207,50.5574841 C82.3852715,42.3710627 79.4013935,34.2416022 75.3848087,26.8025078 C74.3792486,24.9410254 73.3080839,23.1273902 72.1792324,21.3695766 C64.009198,8.07262265 48.1769993,-6.10039003 32.3459316,2.75703088 C18.2726147,10.7315577 10.3559498,24.9045704 5.04084645,40.4845175 C4.17441334,42.8119401 3.41317381,45.1724001 2.78088124,47.5533659 C0.399886863,56.4985067 0.0888305901,65.9061699 3.81811252,74.5015707 C7.4682165,82.9112789 15.1269875,88.2428197 23.5605714,91.028208 C38.9833069,96.1216522 59.5616588,95.0712931 72.7504448,84.7180788 C83.1680022,76.5441888 85.1338778,62.908887 83.4813207,50.5574841" id="Fill-1435" fill="#3EA8FF"></path>
                    <path d="M43.0952996,10 C31.9257642,10 22.7817982,19.9092971 23.0039647,30.9036281 C23.2351993,42.2437642 32.7418862,51 43.905754,51 C55.0752893,51 64.2203888,41.0907029 63.9959553,30.0941043 C63.7658543,18.7562358 54.2569004,10 43.0952996,10" id="Fill-1437" fill="#FFFFFF"></path>
                    <path d="M47.6111407,20 C33.6398774,20 33.3619256,42 47.3901188,42 C61.3602657,42 61.6371012,20 47.6111407,20" id="Fill-1439" fill="#000000"></path>
                    <path d="M17.9337048,81.8572088 C16.3192102,79.8703943 12.8894131,79.2535204 10.9065795,81.1213092 C7.74184871,84.1083978 5.22888262,85.977331 3.11179474,89.7094751 C1.86908137,91.9022957 0.999296757,94.2324537 0.400315797,96.6724817 C-0.272103442,99.4157964 -0.256038818,102.319338 1.69925535,104.572816 C4.24205575,107.507259 8.82506332,107.82199 11.759152,105.292693 C13.6662523,103.644644 14.1562234,101.230939 14.618655,98.905359 C15.2486178,95.7317204 16.0885681,92.4390561 17.4712732,89.4840128 C18.6600553,86.9375484 19.9796494,84.3784947 17.9337048,81.8572088" id="Fill-1441" fill="#5CCDFF"></path>
                    <path d="M39.6250903,95.4765239 C39.5185859,92.1677033 40.165716,88.8241944 37.0990832,86.4653868 C32.7370324,83.1084502 27.0378881,85.928277 25.9531637,90.7846454 C25.1462769,94.3922333 24.4621017,97.642867 24.1888947,101.309761 C23.8705391,105.590974 23.4479944,109.903519 27.6167165,112.625994 C30.3047955,114.381672 33.3667977,114.508117 36.0745569,112.69649 C41.4483997,109.096735 39.8033694,101.066942 39.6250903,95.4765239" id="Fill-1443" fill="#3EA8FF"></path>
                    <path d="M16.1236625,54.0522637 C14.8906497,62.729338 23.017529,71.4595556 34.2774735,73.5457169 C45.536295,75.6397932 55.6654163,70.2949235 56.8961831,61.6155879 C58.1314418,52.9396444 48.1572893,57.1945089 36.8995908,55.110609 C25.6396463,53.0187941 17.3566753,45.3729281 16.1236625,54.0522637" id="Fill-1445" fill="#1B1464"></path>
                    <path d="M20.3381355,60.1565384 C19.2318735,63.3451641 20.7080241,66.9626823 26.7340317,69.5921757 C32.7566354,72.2239146 36.5803306,70.9170272 37.6843234,67.7284016 C38.7905853,64.5375304 37.0841053,59.7332596 31.0569631,57.1037662 C25.0332248,54.47315 21.4443975,56.9679128 20.3381355,60.1565384" id="Fill-1447" fill="#992897"></path>
                    <path d="M22.6507827,52.0063105 C24.7483113,52.9244855 27.0043951,53.4177547 29.2411134,53.9594043 C29.4977067,54.0929762 29.7530895,54.2286515 30,54.3685338 C29.6840999,55.8514969 28.6867752,57.1809048 27.259778,57.7761935 C26.3229707,58.1684951 25.2300288,58.0107331 24.3501077,57.5689994 C23.0586691,56.9200716 22.2937308,55.6074916 22.0504514,54.2559969 C21.9039996,53.4524624 22.0867618,52.6825837 22.4643895,52 C22.5273275,52 22.5926861,52.004207 22.6507827,52.0063105" id="Fill-1449" fill="#FFFFFF"></path>
                    <path d="M49.3143994,57 C50.5621226,57.0597903 51.8016217,57.2228547 53,57.5794221 C52.9177584,58.2871215 52.7192035,58.9785145 52.4442814,59.6014204 C51.7111559,61.2570674 50.1755869,62.1343538 48.4778844,61.9832475 C46.5358066,61.8093121 45.2857336,59.8221009 45.0296096,57.9827347 C44.9931883,57.7348768 44.9931883,57.4794093 45.0143362,57.2163321 C46.3795475,57.2000256 47.8551976,57.0380484 49.3143994,57" id="Fill-1451" fill="#FFFFFF"></path>
                    <path d="M71.1179065,84.9433154 C74.4270459,88.3988559 75.2750128,90.590344 76.162046,94.655276 C76.8468541,97.7858076 77.9027913,100.164176 80.0617749,102.578527 C82.5344374,105.33762 87.0845041,103.710254 88.5816599,100.849016 C93.3937001,91.6605517 85.1794509,78.5255516 75.6783142,77.0467614 C71.8050125,76.4466558 68.0718896,81.7628718 71.1179065,84.9433154" id="Fill-1453" fill="#3EA8FF"></path>
                    <path d="M21.1238869,38.1354107 C20.3784408,43.8153533 25.9482956,48.1756567 30.5900303,50.7880268 C34.3025104,52.2422087 38.3247421,53.3084593 42.3810123,53.7602984 C44.4097148,53.9878997 46.4474942,54.0596558 48.4489658,53.9486581 C55.6526748,53.4048815 64.9350097,50.7880268 65.8642643,42.9419472 C67.7205044,28.1209519 50.0828201,36.8393164 40.8004852,35.8582761 C38.2487225,35.8055802 35.6958251,35.6127358 33.085062,35.3279538 C30.474299,35.0409295 27.8056703,34.6619676 25.0201756,34.224704 C23.1639355,33.3524191 20.3784408,35.0958677 21.1238869,38.1354107" id="Fill-1455" fill="#5CCDFF"></path>
                    <path d="M62.5460762,30.3128546 C55.5692137,32.6017889 48.5399878,34.3846042 41.1647077,34.5145537 C37.0029506,34.585228 32.8559918,34.1691617 28.7420449,33.5923685 C25.8802677,33.1934009 23.0344273,32.4877981 20.1669584,33.0953688 C17.3256713,33.7017996 15.6853289,37.3654624 18.3467589,39.392218 C24.1204,43.7911212 34.0262014,43.7489446 41.0190006,43.9472885 C49.4882218,44.1900888 57.8561311,43.6360938 66.0544283,41.4041548 C73.272618,39.4435139 69.683444,27.9749042 62.5460762,30.3128546" id="Fill-1457" fill="#5CCDFF"></path>
                    <path d="M67.5387621,71.7926557 C67.0034952,71.1718558 66.244411,70.9872658 65.3929577,71.0006718 L65.0365079,71.0068592 C64.0240008,71.0254213 63.1701791,71.879279 63.0257044,72.6970436 C62.9345196,73.220908 63.088468,73.7623033 63.4472863,74.1892321 C63.7717622,74.5738806 64.3816349,74.9688413 64.955981,74.9874034 C65.0897977,74.9915283 65.2200618,74.9935908 65.3538785,74.9966845 C65.995725,75.0152466 66.536913,74.9647164 67.0709957,74.616161 C67.5612622,74.2964799 67.8881066,73.8169584 67.976923,73.2889691 C68.063371,72.7609798 67.9046857,72.221647 67.5387621,71.7926557" id="Fill-1459" fill="#5CCDFF"></path>
                    <path d="M77.0932836,66.3449256 C76.7416714,66.1500169 76.3989327,65.9958034 75.9829876,66.0000871 C74.9414612,66.0107964 74.0663129,66.9200132 74.0030892,68.0016493 C73.9398656,69.0511576 74.8560539,69.9614454 75.9275283,69.9989278 C76.9269056,70.0342684 78.0749139,69.191449 77.9961616,68.1397989 C77.945139,67.4447674 77.7831977,66.7272464 77.0932836,66.3449256" id="Fill-1461" fill="#5CCDFF"></path>
                    <path d="M75.6612205,49 C73.6856496,49 73.342126,52 75.3387795,52 C77.3143504,52 77.657874,49 75.6612205,49" id="Fill-1463" fill="#5CCDFF"></path>
                    <path d="M9.84636123,65.0643298 C9.68792513,64.4528521 9.08352075,64.044385 8.60527844,64.0040275 C7.96273203,63.9489945 7.2751976,64.4626358 7.09035548,65.2575568 C6.99157742,65.6855911 6.9729954,66.0390252 7.03852145,66.4805121 C7.15979352,67.2998922 7.72605588,67.935829 8.39109631,67.9945309 C9.24978085,68.074023 9.85614124,67.2766561 9.98328132,66.2750556 C10.0370714,65.8482442 9.9529633,65.4727969 9.84636123,65.0643298" id="Fill-1465" fill="#5CCDFF"></path>
                    <path d="M6.66165164,47 C4.68580243,47 4.34223041,50 6.33792494,50 C8.31501448,50 8.65734617,47 6.66165164,47" id="Fill-1467" fill="#5CCDFF"></path>
                    <path d="M6.39010996,76 C4.39236971,76 4.62046921,80 6.60886112,80 C8.60753621,80 8.38037155,76 6.39010996,76" id="Fill-1469" fill="#5CCDFF"></path>
                </g>
            </g>
        </g>
    </g>
</svg>