<?xml version="1.0" encoding="UTF-8"?>
<svg width="90px" height="113px" viewBox="0 0 90 113" version="1.1" xmlns="http://www.w3.org/2000/svg" xmlns:xlink="http://www.w3.org/1999/xlink">
    <title>Group 8</title>
    <g id="Student-Environmrnt---New-Treatment" stroke="none" stroke-width="1" fill="none" fill-rule="evenodd">
        <g id="Avatars" transform="translate(-457.000000, -372.000000)">
            <g id="Group-8" transform="translate(457.000000, 372.000000)">
                <path d="M55.9605753,88.7443794 C53.047769,83.0625644 44.7138437,87.0532382 46.169117,92.9984563 C47.2368447,97.3714142 46.5408444,101.722228 47.1679225,106.108006 C47.9294553,111.409868 54.2793279,113.77933 58.2632516,110.492619 C64.3950592,105.429685 58.6926024,94.0683857 55.9605753,88.7443794" id="Fill-1511" fill="#5CCDFF"></path>
                <path d="M83.4813217,50.0185405 C82.3852747,41.919211 79.4014028,33.8762364 75.3825639,26.5162836 C74.3803992,24.6768589 73.3081056,22.8802639 72.1792564,21.141151 C64.0081074,7.9856579 48.1759408,-6.03657394 32.3460365,2.72887072 C18.2727481,10.6163057 10.3560993,24.6385375 5.04100668,40.052736 C4.17344421,42.3576523 3.41220623,44.6907461 2.77991494,47.0463819 C0.400056504,55.8963589 0.0890008622,65.2039379 3.81827523,73.7078958 C7.46837179,82.0281365 15.1259961,87.3029573 23.5618251,90.058713 C38.9822672,95.1002244 59.5617084,94.0587854 72.7504676,83.8179689 C83.1680039,75.7287833 85.1338755,62.2385419 83.4813217,50.0185405" id="Fill-1513" fill="#3EA8FF"></path>
                <path d="M42.0952996,9 C30.9257642,9 21.7817982,18.9115646 22.0039647,29.9058957 C22.2363328,41.2460317 31.7430197,50 42.9068875,50 C54.0752893,50 63.2203888,40.0907029 62.9959553,29.0963719 C62.7647208,17.7562358 53.2569004,9 42.0952996,9" id="Fill-1515" fill="#FFFFFF"></path>
                <path d="M47.6114861,19 C33.6388306,19 33.3631059,41 47.3893436,41 C61.3597665,41 61.6377238,19 47.6114861,19" id="Fill-1517" fill="#000000"></path>
                <path d="M17.93419,80.858854 C16.3187251,78.8697733 12.8881568,78.2529065 10.9055407,80.1229628 C7.74000962,83.1077283 5.22846647,84.9789291 3.11275813,88.7110305 C1.86903371,90.9038261 0.999344486,93.2339575 0.400429218,95.6739575 C-0.273063621,98.4149519 -0.254706065,101.31846 1.70037366,103.571913 C4.24289518,106.506322 8.82425278,106.823339 11.7580197,104.291781 C13.6660582,102.64604 14.1559755,100.232363 14.6183564,97.9033759 C15.2471027,94.733207 16.0881083,91.4405803 17.4706617,88.4832819 C18.6593135,85.9368466 19.9799102,83.3755332 17.93419,80.858854" id="Fill-1519" fill="#5CCDFF"></path>
                <path d="M38.6255687,94.4762504 C38.519058,91.1651429 39.1662267,87.8260606 36.0982535,85.4649803 C31.7382584,82.107994 26.0376169,84.9301005 24.9528279,89.7843026 C24.1447354,93.3919438 23.4605195,96.6426255 23.1896117,100.309573 C22.8700794,104.59085 22.4475095,108.903458 26.6176375,111.625974 C29.3047189,113.381678 32.3669035,113.508124 35.0748239,111.696471 C40.4489868,108.098901 38.8027008,100.068989 38.6255687,94.4762504" id="Fill-1521" fill="#3EA8FF"></path>
                <path d="M19.0171044,56.3325725 C19.4968267,65.15227 29.2788417,72.1633829 40.8660675,71.9971024 C52.4578406,71.829683 61.4645698,64.5475103 60.9814371,55.7300906 C60.5028516,46.9126709 51.4370097,53.0935204 39.8509206,53.2632176 C28.2602844,53.429498 18.5362453,47.5151528 19.0171044,56.3325725" id="Fill-1523" fill="#1B1464"></path>
                <path d="M30.4187778,54 C33.2217279,54.7134905 36.0961212,54.8459021 38.9645608,55.0450666 C39.3122504,55.1610635 39.6599401,55.2781547 39.9992947,55.4018118 C40.0278719,57.3770424 39.187225,59.3052176 37.6214309,60.3885851 C36.5938413,61.0998869 35.2209434,61.1403764 34.0290347,60.7672165 C32.2822514,60.2222499 30.987941,58.7066297 30.3151853,57.0224858 C29.9139134,56.0266632 29.9222484,54.993634 30.1913507,54.0339236 C30.2687473,54.0196976 30.3473347,54.0131317 30.4187778,54" id="Fill-1525" fill="#FFFFFF"></path>
                <path d="M47.7435926,69.7427511 C46.1871585,69.9969284 44.6131002,70.0936397 43.0379404,69.8902979 C42.9531242,68.8078746 43.0137072,67.7080929 43.1877459,66.6988231 C43.6525832,64.0057838 45.3169653,62.2649793 47.4527939,62.0194813 C49.9003499,61.7467057 51.9733924,64.38395 52.7807994,67.0769893 C52.889849,67.4402768 52.9581426,67.8271223 53,68.2238868 C51.3179937,68.6293306 49.5390545,69.2777926 47.7435926,69.7427511" id="Fill-1527" fill="#FFFFFF"></path>
                <path d="M71.1192836,83.6488278 C74.4250395,86.9762587 75.2730227,89.0887359 76.161222,93.002966 C76.8460431,96.015202 77.9020006,98.3076309 80.0621747,100.630238 C82.5348847,103.289277 87.0838897,101.720008 88.5810742,98.964846 C93.3943559,90.1170317 85.179949,77.4689938 75.6774809,76.0450278 C71.8041048,75.4671703 68.0709102,80.5862948 71.1192836,83.6488278" id="Fill-1529" fill="#5CCDFF"></path>
                <path d="M66.8508801,22.9397835 C67.9613139,17.1685738 62.6519812,12.3469548 58.164643,9.37272151 C54.5335018,7.64849492 50.5671782,6.29950055 46.5290299,5.57781158 C44.5076756,5.21869363 42.4692202,5.01381223 40.4569865,5 C33.1969841,5.09898764 23.7206745,7.18693627 22.2898795,15.1704047 C19.4852931,30.2372445 37.7276452,22.425278 46.9725194,24.0205904 C49.5297093,24.239284 52.0777786,24.5961 54.6760112,25.0553566 C57.2776641,25.5157642 59.9283402,26.0763105 62.694164,26.6990118 C64.4989039,27.7107576 67.4049569,26.1004819 66.8508801,22.9397835" id="Fill-1531" fill="#5CCDFF"></path>
                <path d="M24.0874541,27.7936995 C31.2009038,25.9408539 38.3348633,24.5972833 45.709242,24.9326038 C49.8692941,25.1225805 53.9871873,25.8023769 58.0617822,26.635528 C60.89554,27.2191915 63.6951148,28.1061312 66.5983777,27.674678 C69.4731548,27.2478025 71.3406775,23.6805882 68.8088682,21.4809778 C63.3191036,16.7109589 53.4197521,16.1284398 46.4441732,15.4886988 C37.9998714,14.7127696 29.6057045,14.7402361 21.2753455,16.4591825 C13.9419862,17.9698411 16.8087873,29.6866005 24.0874541,27.7936995" id="Fill-1533" fill="#5CCDFF"></path>
                <path d="M66.5387129,70.7926557 C66.0045732,70.1718558 65.245408,69.9872658 64.3926795,70.0006718 C64.274245,70.0027343 64.1558105,70.0047967 64.0361916,70.0068592 C63.0235766,70.0274838 62.1708481,70.879279 62.026358,71.6991061 C61.9339791,72.220908 62.0867596,72.7623033 62.4479848,73.1892321 C62.7724954,73.5738806 63.3824331,73.9688413 63.9568405,73.9874034 C64.0894872,73.9894659 64.2221338,73.9935908 64.3535961,73.9966845 C64.9966955,74.0152466 65.5379412,73.9647164 66.0708965,73.616161 C66.5612154,73.2985424 66.889279,72.8169584 66.9769206,72.2889691 C67.0633777,71.7609798 66.9046755,71.221647 66.5387129,70.7926557" id="Fill-1535" fill="#5CCDFF"></path>
                <path d="M77.0925713,65.3429574 C76.7422624,65.1479506 76.3997135,64.9958025 75.9828903,65.0000884 C74.9430492,65.0097316 74.067277,65.9183346 74.0029798,67.000515 C73.9408997,68.0505515 74.8576892,68.9612975 75.9263531,68.9987988 C76.9285026,69.0363001 78.0758752,68.1909135 77.9960579,67.1387341 C77.943955,66.4433528 77.783212,65.7254707 77.0925713,65.3429574" id="Fill-1537" fill="#5CCDFF"></path>
                <path d="M75.6609972,48 C73.6850969,48 73.3427563,51 75.3385025,51 C77.3144028,51 77.6579837,48 75.6609972,48" id="Fill-1539" fill="#5CCDFF"></path>
                <path d="M9.79405247,64.0644193 C9.58286094,63.4528999 8.77850801,63.0444049 8.13841516,63.0040446 C7.28582713,62.9490078 6.36675288,63.4602381 6.12166641,64.2576595 C5.98869396,64.6857231 5.96392459,65.0416274 6.05126923,65.4806984 C6.21292201,66.3001345 6.96773618,66.9361147 7.85682645,66.9948206 C8.9988251,67.071872 9.80839264,66.2793428 9.97786732,65.2776739 C10.0495681,64.8508333 9.93615047,64.4729143 9.79405247,64.0644193" id="Fill-1541" fill="#5CCDFF"></path>
                <path d="M7.10814513,46 C5.7905253,46 5.56155373,49 6.89157273,49 C8.21001917,49 8.43816413,46 7.10814513,46" id="Fill-1543" fill="#5CCDFF"></path>
                <path d="M5.85356069,75 C3.19023472,75 3.49308367,79 6.14643931,79 C8.80976528,79 8.50691633,75 5.85356069,75" id="Fill-1545" fill="#5CCDFF"></path>
            </g>
        </g>
    </g>
</svg>