<?xml version="1.0" encoding="UTF-8"?>
<svg width="83px" height="111px" viewBox="0 0 83 111" version="1.1" xmlns="http://www.w3.org/2000/svg" xmlns:xlink="http://www.w3.org/1999/xlink">
    <title>Group 9</title>
    <g id="Student-Environmrnt---New-Treatment" stroke="none" stroke-width="1" fill="none" fill-rule="evenodd">
        <g id="Avatars" transform="translate(-567.000000, -373.000000)">
            <g id="Group-9" transform="translate(567.000000, 373.000000)">
                <path d="M25.8478649,85.9057201 C21.6004114,88.0763767 20.1013102,89.84485 17.97527,93.3319485 C16.3385198,96.0180794 14.5814714,97.8941792 11.7579327,99.454197 C8.52838747,101.244196 4.69503756,98.3190206 4.16410587,95.2035167 C2.45563942,85.197651 14.433412,75.588304 23.9751451,77.1721129 C27.8628606,77.8201377 29.757558,83.9095318 25.8478649,85.9057201" id="Fill-1471" fill="#5CCDFF"></path>
                <path d="M71.7506979,9.18422016 C58.5628289,-1.05891348 37.9830118,-2.10035885 22.5622881,2.94118349 C14.126305,5.69695613 6.46854082,10.9718093 2.81837759,19.2932283 C-0.909833757,27.7972383 -0.601034699,37.1037474 1.77999834,45.9537788 C2.4134323,48.309429 3.17355306,50.6425371 4.04113137,52.9474676 C9.3551899,68.3617607 17.2719834,82.3840787 31.3443976,90.2715621 C47.1779845,99.0359335 63.0093092,85.0147426 71.1806073,71.8591687 C72.308346,70.1200451 73.3795281,68.3245662 74.3839734,66.4840032 C78.4017545,59.1251322 81.3868121,51.0809811 82.481748,42.9816019 C84.1332008,30.7626525 82.1684244,17.2745825 71.7506979,9.18422016" id="Fill-1473" fill="#3EA8FF"></path>
                <path d="M41.9052579,9 C53.0750911,9 62.219301,18.9110165 61.995995,29.9047395 C61.7647543,41.2442484 52.2566804,50 41.0936484,50 C29.9249487,50 20.7796053,40.0889835 21.0040448,29.0952605 C21.2352855,17.7557516 30.7422259,9 41.9052579,9" id="Fill-1475" fill="#FFFFFF"></path>
                <path d="M49.3888549,18 C63.36068,18 63.6375267,40 49.6098857,40 C35.6391768,40 35.3634465,18 49.3888549,18" id="Fill-1477" fill="#000000"></path>
                <path d="M61.4324096,78.3562807 C66.9211924,71.931747 73.7126856,80.2518204 78.1902579,84.2459118 C79.7607413,86.1904938 80.9922714,88.3358067 81.9797552,90.6328085 C83.0870025,93.211518 83.5513684,96.0673732 82.0305982,98.6095862 C80.0488516,101.914805 75.6537578,102.993735 72.3839889,100.995548 C70.2598819,99.6987802 69.3831228,97.4086215 68.548168,95.1994396 C67.4070254,92.1873335 65.9958501,89.0531921 63.9384039,86.239536 C62.1668083,83.8159368 60.0822458,81.3010963 61.4324096,78.3562807" id="Fill-1479" fill="#5CCDFF"></path>
                <path d="M47.6690358,93.6139592 C47.2147791,90.2885035 46.0127458,87.0503211 48.6590826,84.2054356 C52.4235898,80.1591244 58.5583854,82.0757385 60.4522866,86.7533649 C61.862812,90.2363661 63.0893052,93.3748075 63.976853,96.9983529 C65.0158197,101.229412 66.1584502,105.470671 62.4801353,108.850531 C60.1075173,111.031232 57.0896219,111.646679 54.0961864,110.26164 C48.1524116,107.518762 48.433119,99.2300578 47.6690358,93.6139592" id="Fill-1481" fill="#3EA8FF"></path>
                <path d="M61.9711062,56.8980805 C61.3403126,65.5943217 51.4419675,72.3480726 39.8603697,71.986104 C28.2776353,71.6263835 19.3987891,64.2858387 20.0318559,55.5918457 C20.6603763,46.8978527 29.6165089,53.1524916 41.1992433,53.5144602 C52.7808412,53.8764289 62.6030363,48.2063358 61.9711062,56.8980805" id="Fill-1483" fill="#1B1464"></path>
                <path d="M49.9533887,65.2864655 C49.5524104,68.6009783 46.6402206,71.2041269 40.0693869,70.9873831 C33.5019514,70.7739738 30.6339371,67.9807576 31.0371808,64.6673563 C31.4381591,61.3506204 35.0764142,57.7926876 41.6472479,58.0094314 C48.2169488,58.2239522 50.354367,61.9719526 49.9533887,65.2864655" id="Fill-1485" fill="#992897"></path>
                <path d="M55.6855984,53 C53.4338691,53.5783641 51.1330068,53.656037 48.8357396,53.7862884 C48.5565203,53.8818858 48.2761028,53.9798731 48.0028754,54.0826403 C47.9513456,55.7962232 48.5936697,57.478737 49.8291848,58.4406856 C50.6404785,59.0728232 51.7393799,59.1242068 52.6968741,58.8182952 C54.1025572,58.3701825 55.1595158,57.0724482 55.7227478,55.620563 C56.0594886,54.7625766 56.0666787,53.8687411 55.8665517,53.0298742 C55.8066334,53.0167295 55.7419216,53.0095597 55.6855984,53" id="Fill-1487" fill="#FFFFFF"></path>
                <path d="M28.8124009,52.2342629 C27.5654849,52.0233617 26.306716,51.9315576 25.0443914,52.0568578 C24.9614217,52.8620043 24.9981654,53.6832786 25.1261758,54.4363201 C25.463981,56.4473256 26.7760875,57.7685599 28.4852632,57.9794612 C30.4397922,58.2213773 32.132374,56.2860482 32.810355,54.2936516 C32.9016216,54.0219612 32.9632563,53.7391054 33,53.4413625 C31.6570762,53.1163264 30.2418502,52.6076822 28.8124009,52.2342629" id="Fill-1489" fill="#FFFFFF"></path>
                <path d="M14.460898,71.7946066 C14.9950825,71.1718316 15.7554959,70.9872675 16.605927,71.0006716 C16.7255559,71.0027338 16.8451848,71.004796 16.9636292,71.0068581 C17.9763293,71.0274798 18.8291293,71.8812176 18.9736315,72.6988675 C19.0660182,73.2226584 18.9132249,73.7639776 18.5531537,74.1908465 C18.228616,74.5733788 17.618627,74.9703463 17.042987,74.9868436 C16.9091448,74.990968 16.7788559,74.9930302 16.6461981,74.9961234 C16.0042292,75.0167451 15.4629381,74.9641598 14.9287536,74.6156533 C14.4383936,74.2980793 14.1103025,73.8165629 14.0226536,73.2907099 C13.9373736,72.7607326 14.0949047,72.2214755 14.460898,71.7946066" id="Fill-1491" fill="#5CCDFF"></path>
                <path d="M7.90845465,61.3427954 C8.25988115,61.1478808 8.60243883,60.9958045 9.01705558,61.0000883 C10.0580318,61.009727 10.9338266,61.9157588 10.9970168,62.99957 C11.0590985,64.0491105 10.1433941,64.9594263 9.07359423,64.9990518 C8.07252759,65.0322515 6.92512563,64.1894063 7.0038363,63.1377238 C7.05594054,62.4405291 7.21779627,61.725128 7.90845465,61.3427954" id="Fill-1493" fill="#5CCDFF"></path>
                <path d="M69.9071194,58.3430779 C70.2573498,58.145921 70.6009302,57.9937674 71.0176601,58.0001964 C72.0561597,58.0087685 72.9317356,58.9163328 72.9971268,59.9985524 C73.0580846,61.0486268 72.1403923,61.9594056 71.0730763,61.9990513 C70.0722597,62.0322679 68.9251443,61.1889939 69.0038353,60.1389194 C69.0548182,59.44137 69.2177419,58.725605 69.9071194,58.3430779" id="Fill-1495" fill="#5CCDFF"></path>
                <path d="M9.33785585,48 C11.3146669,48 11.6581905,51 9.66029679,51 C7.6859661,51 7.34244248,48 9.33785585,48" id="Fill-1497" fill="#5CCDFF"></path>
                <path d="M63.20395,46.0644231 C63.4165157,45.4529015 64.2211358,45.044405 64.8601372,45.0040446 C65.7156166,44.9490077 66.6323879,45.4602397 66.8788599,46.2576639 C67.0118765,46.6857291 67.03535,47.0416347 66.9492804,47.4807072 C66.787574,48.3001462 66.0325091,48.9361287 65.1444276,48.9948347 C63.9994415,49.0718865 63.1909091,48.2769084 63.0226822,47.277682 C62.9496535,46.8508399 63.0644129,46.4729196 63.20395,46.0644231" id="Fill-1499" fill="#5CCDFF"></path>
                <path d="M78.8925658,53 C80.2097986,53 80.4380198,56 79.1083836,56 C77.7903239,56 77.5612759,53 78.8925658,53" id="Fill-1501" fill="#5CCDFF"></path>
                <path d="M69.0450258,40.8031295 C69.4037547,39.503077 71.3163362,39.887231 70.9547298,41.1977509 C70.5979192,42.49571 68.6843786,42.1136495 69.0450258,40.8031295" id="Fill-1503" fill="#5CCDFF"></path>
                <path d="M23.045263,45.8016813 C23.4040829,44.5042476 25.3171495,44.8867705 24.954492,46.1967802 C24.5975909,47.4963098 22.6835648,47.113787 23.045263,45.8016813" id="Fill-1505" fill="#5CCDFF"></path>
                <path d="M72.146584,69 C74.808434,69 74.5079629,73 71.8548402,73 C69.1904967,73 69.4922146,69 72.146584,69" id="Fill-1507" fill="#5CCDFF"></path>
                <path d="M30.9028327,87.7952479 C33.7751039,82.0839668 42.2424268,85.9628882 40.8456609,91.9198033 C39.817486,96.2993059 40.5763498,100.634571 39.9955051,105.023387 C39.2925576,110.327218 32.9078309,112.78123 28.8430594,109.548407 C22.590706,104.568207 28.2108631,93.1503015 30.9028327,87.7952479" id="Fill-1509" fill="#5CCDFF"></path>
            </g>
        </g>
    </g>
</svg>