<?xml version="1.0" encoding="UTF-8"?>
<svg width="127px" height="139px" viewBox="0 0 127 139" version="1.1" xmlns="http://www.w3.org/2000/svg" xmlns:xlink="http://www.w3.org/1999/xlink">
    <title>Group 21</title>
    <defs>
        <ellipse id="path-1" cx="33" cy="28.5" rx="33" ry="28.5"></ellipse>
    </defs>
    <g id="Student-Environmrnt---New-Treatment" stroke="none" stroke-width="1" fill="none" fill-rule="evenodd">
        <g id="Group-21" transform="translate(0.000000, 0.000000)">
            <g id="Group-20">
                <path d="M30.93385,105.610622 C27.9943997,110.794382 23.687737,118.717999 23.133829,125.690008 C28.0612312,128.945509 30.3822075,130.425283 35.222389,132.58689 C36.5239028,133.168555 37.8401421,133.724039 39.1631779,134.262449 C39.386327,133.964218 39.6253343,133.678507 39.8303595,133.370032 C43.545734,131.19818 44.3714987,123.725324 45.159883,119.988327 C45.3377226,119.148272 45.5019693,118.345779 45.6526232,117.558084 C46.1872747,115.673081 46.6188471,113.67994 46.4387421,111.903074 C46.4126892,111.650374 46.3753089,111.396536 46.3333976,111.139283 C46.366247,110.846743 46.3775743,110.557618 46.3945654,110.266217 C49.5854831,110.959434 52.6268796,112.061296 55.6830016,113.142668 C55.6365594,113.272433 55.5844536,113.40106 55.5391441,113.531963 C55.282013,113.982724 55.0441385,114.451699 54.8323168,114.944577 C53.9125351,115.182479 53.2804683,115.843824 53.4934227,117.213183 C53.5636523,117.671913 53.633882,118.137473 53.7052444,118.607585 C53.5036173,119.575129 53.3518307,120.567716 53.2589463,121.588759 C52.036724,126.890901 51.6391337,133.350681 53.7822704,138.386463 C54.4154699,138.470696 55.0452712,138.569727 55.6796034,138.63461 C56.389829,138.697216 62.3774721,138.870235 60.3170251,139 C64.7822709,138.72112 69.2520477,138.326134 73.6867096,137.702353 C74.595164,135.605628 74.9984181,133.086598 75.273673,131.352987 C75.8978106,127.428173 75.2838676,121.420293 73.1520582,116.573466 C75.0992316,116.631519 77.0498032,116.615583 78.9969766,116.518828 C79.0286932,116.51769 79.0615426,116.511998 79.0955247,116.509722 C79.1612234,119.140304 79.5984595,121.851704 79.7502461,123.439614 C79.986988,125.930187 81.0155124,128.305792 82.4495563,130.452602 C83.335356,132.226053 84.455632,133.859495 85.7662077,135.290322 C91.332473,133.802581 96.6438727,131.806025 101.505576,129.152678 C101.23825,126.815774 100.421548,124.487977 99.403218,122.300189 C99.0520698,121.544366 98.6556121,120.779437 98.2421634,120.014508 C97.9487848,119.105017 97.621424,118.211461 97.2680104,117.340671 C96.8024558,116.191001 96.1386724,115.31452 95.4137213,114.329902 C94.5800275,113.197306 93.9219078,110.910487 94.3772678,113.471633 C94.1813044,112.37091 92.5841465,110.648681 91.032298,109.743743 C89.78289,107.975983 87.6646735,106.393764 86.0743119,106.589549 C85.9678347,106.603209 85.8692867,106.614591 85.7628095,106.628251 C84.9211866,106.451816 84.0931565,106.48938 83.459957,106.907131 C76.8606363,107.698241 70.8639312,108.26397 64.1660625,107.763123 C62.5258606,106.929897 61.1688427,106.839972 60.0361066,107.26 C53.7437574,106.104639 48.0200417,102.791085 41.6812504,101.4388 C40.2902504,100.597605 38.7633221,100.232215 37.4108352,100.974378 C36.2044712,101.635723 35.1136463,102.608959 34.1292986,103.773427 C33.4972318,103.578779 32.8957489,103.554875 32.3826195,103.799607 C31.6621993,103.93734 31.1343443,104.448431 30.9587702,105.478581 C30.9531065,105.519559 30.9417791,105.568505 30.93385,105.610622" id="Fill-1" fill="#6E2FC9"></path>
                <path d="M119.967447,46.2011617 C114.498508,19.1532388 80.2529054,-0.750935196 55.9038587,2.77779521 C43.33529,4.59892892 28.2128082,9.91927341 19.3939155,19.3360334 C10.2320785,29.1195179 4.72793577,43.2151382 1.51993013,55.9006288 C0.865837651,58.4938142 3.40725946,59.7904069 6.39723428,59.9516295 C7.59186151,61.2584405 9.37585332,62.1440292 11.944529,62.3881338 C14.2497507,62.6083956 16.4788888,62.5073477 18.7761615,62.2587016 C22.1999268,61.8897063 25.723623,63.072762 29.0849315,63.4826306 C36.6853498,64.4079573 44.2971239,64.747433 51.9418298,65.0619305 C64.3570955,65.5751178 76.6077025,65.0721488 88.9423423,64.8064722 C90.917111,65.5751178 93.3222636,65.7147683 96.2293413,65.0062974 C96.6392846,64.9075202 97.0265165,64.7951185 97.4080704,64.6781754 C97.6783378,64.67704 97.946334,64.6724986 98.2143302,64.6713632 C104.256737,64.6395728 116.485768,66.0224537 120.303578,60.7543362 C123.370772,56.5205409 120.954264,51.0843887 119.967447,46.2011617" id="Fill-3" fill="#35338E"></path>
                <path d="M90.2085803,73.0745061 C89.3578789,71.3322923 87.4337551,69.7338479 85.8414165,68.7489707 C83.4351138,67.2716549 79.8853581,69.8096948 80.9151546,72.5741432 C81.3755207,73.8114659 81.9805405,74.7680421 82.753175,75.8015971 C82.7876163,75.8491429 82.8209096,75.8978208 82.856499,75.9442345 C82.8404264,75.93065 82.8909404,76.008761 83.0068929,76.1808315 C83.314569,76.6596856 83.6096167,77.1294833 83.999952,77.5573955 C85.1709581,78.8298115 87.1697048,79.1026339 88.6736439,78.2898271 C90.5931755,77.2483478 91.1281645,74.9593573 90.2085803,73.0745061" id="Fill-5" fill="#E59900"></path>
                <path d="M52.7812537,74.1844801 C52.4038206,71.8220036 49.641645,70.7284951 47.8394869,72.5385573 C46.1903422,74.193536 45.1226485,76.5209206 44.4777253,78.7260496 C44.0175516,80.3063165 45.2405255,82.0869468 46.6618502,82.7129409 C48.460608,83.5019423 50.9586938,82.7355808 51.6965586,80.8406188 C52.4922284,78.7996293 53.1258173,76.3398012 52.7812537,74.1844801" id="Fill-7" fill="#E59900"></path>
                <path d="M55.2379182,72.7751603 C48.6589847,75.8170951 41.325576,76.4574432 34.5671138,75.4828536 C33.4660798,75.2138849 32.4070874,74.8042422 31.4128617,74.2460477 C30.418636,73.6923548 29.4880408,72.9889848 28.6517549,72.137063 C26.8837376,70.3308087 27.0234973,67.116689 28.6972052,65.3712059 C29.4755419,64.5597982 30.6833841,64.0691272 31.8775912,64.0443686 C33.7171928,64.5327888 35.2386422,65.5760272 36.849856,66.5528675 C41.1460472,68.5121751 45.4865526,69.8390124 50.2202032,70.4208401 C52.6097536,71.1613481 54.60275,72.0245238 55.2379182,72.7751603" id="Fill-33" fill="#FFB000"></path>
                <path d="M29.4515964,69.7593888 C30.5950114,67.9668763 32.0332215,66.3121596 32.5762082,64.1926742 C32.432062,64.1412927 32.2879159,64.0887435 32.1405183,64.0443686 C31.0014385,64.0700593 29.8504368,64.5792029 29.1069461,65.4211583 C27.7207587,66.9952996 27.4389692,69.7185172 28.4967635,71.6348123 C28.7492903,70.992544 29.0657615,70.3666243 29.4515964,69.7593888" id="Fill-35" fill="#FFD41D"></path>
                <path d="M36.7683532,66.5023439 C36.2031347,66.1566684 35.6469597,65.804215 35.0873933,65.4675768 C33.7071297,68.2928524 31.5423428,70.8255465 30.6877323,73.8180116 C30.909298,73.9592189 31.1319941,74.0992965 31.3592119,74.2246886 C32.3099095,74.7635357 33.3205202,75.1611754 34.3706962,75.4300341 C34.9980888,73.9117733 35.1043499,72.2240636 35.4819159,70.6233377 C35.7260903,69.6021265 36.2268739,68.7706979 36.7977446,67.9460473 C37.0893974,67.5246847 37.2329629,67.1259153 37.2973978,66.7350535 C37.1210496,66.6548478 36.943571,66.5836793 36.7683532,66.5023439" id="Fill-37" fill="#FFD41D"></path>
                <path d="M40.2042848,67.8395904 C39.9005275,68.93513 39.493163,70.0090993 39.0846212,71.0762569 C39.0457685,71.3101234 39.0092705,71.5417193 38.9869008,71.7812621 C38.8550371,73.1413205 38.7820412,74.5025142 38.7137546,75.8648431 C39.9440896,75.9170657 41.1803113,75.9193362 42.4224198,75.8614373 C42.5448646,75.2359012 42.6084417,74.6092299 42.5625249,73.9893703 C42.4400801,72.2149368 43.1099945,70.5563014 43.4349442,68.8931248 C42.3458918,68.5809244 41.2733223,68.2301247 40.2042848,67.8395904" id="Fill-39" fill="#FFD41D"></path>
                <path d="M64.3472109,78.8890566 C63.3922581,76.6534812 61.9459326,74.565344 60.9554053,72.2794796 C60.3195113,70.8119546 58.6408399,68.4175116 57.3145783,68.8369677 C55.5736515,69.3844322 54.3618954,73.2383997 54.891066,75.1459536 C55.7604176,78.2775879 57.1778389,84.026537 60.7475169,84.4231345 C63.4689656,84.7271545 65.5089405,81.6000919 64.3472109,78.8890566" id="Fill-41" fill="#E59900"></path>
                <path d="M80.2275127,71.4474304 C80.0928936,70.8356394 80.0883686,70.3534845 79.8462806,69.7291848 C78.2828899,65.6786283 73.7816369,67.2615521 73.7352556,71.2472906 C73.203567,72.8552319 72.728441,74.4927393 72.369834,76.1836932 C71.7849766,78.9356153 73.1492669,81.943398 75.3518151,82.7883064 C76.4185861,83.1988204 77.570201,83.0612243 78.5249779,82.4050841 C79.9209433,81.4487343 80.4096443,79.8601247 80.6019572,77.954248 C80.6596511,77.3640631 80.6981136,76.7704666 80.7218699,76.1711844 C80.7829576,74.5382256 80.5714134,73.0326285 80.2275127,71.4474304" id="Fill-43" fill="#E59900"></path>
                <path d="M48.5265472,70.7211412 C48.1187,69.2493812 47.7840561,67.7522858 47.4482502,66.2540387 C47.1449791,64.8951367 45.9098177,64.2214438 45.0278915,64.6440854 C44.0100163,65.1312172 43.7323083,66.5315772 44.0065304,67.8973889 C44.2714568,69.2217425 44.5061724,70.5553091 44.7583173,71.8808143 C45.0325394,73.329542 46.1619626,74.2577412 47.1775139,73.946806 C48.1279956,73.6554482 48.9158032,72.1261076 48.5265472,70.7211412" id="Fill-53" fill="#FFD41D"></path>
                <path d="M65.6968311,69.8570687 C65.8734911,70.3670256 66.0868164,70.8658481 66.2590321,71.3802587 C66.6479064,72.5504873 67.6978669,73.3187629 68.8456015,72.9758225 C70.1555522,72.5838906 70.7499742,70.8992513 70.0477784,69.6232457 C69.4855774,68.6066723 68.9111546,67.6123677 68.2522905,66.6659411 C67.7767528,65.9822872 66.8712313,65.7618254 66.1668134,66.0947449 C65.2490702,66.5289877 64.9524147,67.6246155 65.2835133,68.6088991 C65.4101752,69.0297806 65.5501699,69.4428679 65.6968311,69.8570687" id="Fill-57" fill="#FFD41D"></path>
                <path d="M60.4570859,82.0800216 C60.0451567,81.9910729 59.8097686,82.6347807 60.0651425,82.967168 C60.2072636,83.1509174 60.3482744,83.3299852 60.4748511,83.5266087 C60.5925451,83.7080172 60.6547231,83.9268779 60.7724171,84.1071161 C60.9334137,84.3470435 61.155478,84.5050445 61.4297273,84.4207773 C61.7494998,84.3248063 61.8971726,83.9666707 61.8327739,83.6097055 C61.6928735,82.8513006 61.1143961,82.2251485 60.4570859,82.0800216" id="Fill-67" fill="#C17B00"></path>
                <path d="M62.6656652,80.7533061 C62.2228209,80.4386739 61.6231619,80.886855 61.9330275,81.374648 C62.1337502,81.694939 62.3244367,82.0276794 62.5201413,82.3491022 C62.7359181,82.7101369 62.7735536,83.2092476 63.1950712,83.4061756 C63.4986642,83.5476469 63.8976005,83.5431198 64.0795054,83.2205653 C64.6114204,82.281196 63.36694,81.2467579 62.6656652,80.7533061" id="Fill-69" fill="#C17B00"></path>
                <path d="M65.1051685,80.2734282 C65.0930474,80.2399283 65.0688053,80.2131284 65.0526439,80.1807453 C65.0304219,80.1293788 65.0041596,80.0802457 64.9677965,80.0322292 C64.8950701,79.933963 64.8172933,79.8468634 64.7364862,79.7631138 C64.4405302,79.4627318 64.1082111,79.2874159 63.7284178,79.2293495 C63.3264025,79.1645831 63.0718602,79.8859466 63.4476132,80.1483621 C63.7516498,80.3616445 63.9829601,80.61736 64.2243713,80.9233253 C64.6243663,81.4258231 65.1980966,80.8853588 65.1011281,80.3381946 C65.167794,80.4878272 65.1698142,80.4677273 65.1051685,80.2734282" id="Fill-71" fill="#C17B00"></path>
                <path d="M73.5477538,77.8175795 C73.1503435,77.9400563 72.9173789,78.2957717 72.7002263,78.6589422 C72.4430165,79.0924037 72.2458926,79.4736794 72.2342971,80.0147076 C72.225864,80.4758595 72.7729619,80.8763056 73.1134487,80.4982249 C73.4307444,80.1425095 73.6247059,79.7569737 73.8429126,79.3245772 C74.0147372,78.981642 74.1802369,78.6088864 74.1032848,78.2031153 C74.059011,77.9411213 73.7838808,77.7440934 73.5477538,77.8175795" id="Fill-73" fill="#C17B00"></path>
                <path d="M74.6272117,79.8746486 C74.0365725,80.534724 73.4313752,81.6046658 73.7287746,82.6340976 C73.8587568,83.0832825 74.3682871,83.147622 74.5908166,82.7913719 C74.8008679,82.4541853 74.8518209,82.0693399 75.0005206,81.6940262 C75.1346623,81.3532652 75.3124779,81.044674 75.4632573,80.7170192 C75.7689755,80.0533693 75.0805897,79.3694644 74.6272117,79.8746486" id="Fill-75" fill="#C17B00"></path>
                <path d="M77.2650774,81.4079776 C76.8776616,80.8572935 76.0455272,81.1730332 76.0405444,81.7715567 C76.0355615,81.9884285 75.9857331,82.2956634 76.0280873,82.5614376 C76.1127956,83.1004277 76.8166218,83.1440147 77.1442436,82.8006344 C77.4481968,82.4817054 77.5366423,81.7938818 77.2650774,81.4079776" id="Fill-77" fill="#C17B00"></path>
                <path d="M44.7066238,78.2828838 C44.1442311,78.2482965 43.7640047,78.3508657 43.3312069,78.6466464 C43.0341168,78.8482067 42.9742098,79.1547215 42.9632064,79.5053648 C42.9497579,79.8691275 43.2945291,80.1923395 43.6295195,80.1732569 C44.0989951,80.1529816 44.1381181,80.0205958 44.420537,79.8190356 C44.5953678,79.6926131 44.7970956,79.6186679 44.9927105,79.5339888 C45.6003391,79.2739879 45.2910231,78.3174711 44.7066238,78.2828838" id="Fill-79" fill="#C17B00"></path>
                <path d="M45.9560041,80.2228397 C45.6214893,80.3994383 45.3482842,80.5102453 45.0471133,80.739939 C44.8556546,80.8853732 44.6803301,81.0781313 44.5383496,81.2858944 C44.0059224,82.063852 44.9298718,82.988398 45.5375917,82.3108593 C45.8893163,81.9138008 46.2819141,81.5744544 46.6185801,81.1589281 C46.9982706,80.6822271 46.4045337,79.9827578 45.9560041,80.2228397" id="Fill-81" fill="#C17B00"></path>
                <path d="M47.5713705,80.7934684 C47.1774482,81.1213149 46.9343633,81.5050444 46.7797862,82.006749 C46.5092763,82.8685881 47.6835635,83.4187245 48.1098971,82.663684 C48.3118446,82.307275 48.4676683,81.9297548 48.5923272,81.5311231 C48.8017543,80.8580442 48.0475677,80.401046 47.5713705,80.7934684" id="Fill-83" fill="#C17B00"></path>
                <path d="M89.994482,76.5463876 C89.881121,76.4112872 89.7687906,76.2574228 89.645124,76.1360825 C89.418402,75.9159188 89.2102299,75.6882495 88.9639274,75.5056137 C88.5104833,75.1678626 88.0869254,76.0435137 88.3868168,76.5263727 C88.5949888,76.8678767 88.8083136,77.2781818 89.0886245,77.524615 C89.2947354,77.7047489 89.5472213,77.8748755 89.7966155,77.7697973 C89.9810848,77.6922396 90.1222708,77.488338 90.163493,77.238152 C90.2026541,76.9892169 90.1377291,76.7227688 89.994482,76.5463876" id="Fill-85" fill="#C17B00"></path>
                <path d="M90.719584,74.355552 C90.4384088,74.2125448 90.158372,74.0749546 89.8487378,74.0153683 C89.4981226,73.9481982 89.1884884,74.2883819 89.2351612,74.6415663 C89.2590668,74.8409096 89.3877016,75.015335 89.5641476,75.096589 C89.5869148,75.1063395 89.7349017,75.1247571 89.8703667,75.1225903 C89.7952348,75.1507584 89.720103,75.1789265 89.6415561,75.2070946 C89.7371784,75.2731812 89.8350775,75.3403512 89.9329765,75.4021043 C90.0866553,75.5061095 90.2426107,75.6133649 90.4053964,75.7065362 C90.6774647,75.8603773 90.96547,75.9968841 91.2659973,75.8235421 C91.5004997,75.6870353 91.6109207,75.4909421 91.5881535,75.2049278 C91.5483108,74.7369044 91.0519854,74.5299774 90.719584,74.355552" id="Fill-87" fill="#C17B00"></path>
                <path d="M90.9504824,72.1093418 C90.6818008,71.8453955 90.406374,71.6694313 90.0387637,71.6404616 C89.6902645,71.6147107 89.3901056,71.6769419 89.0730838,71.8282283 C88.532348,72.083591 88.7279572,73.0267163 89.3586282,72.9108374 C89.7498466,72.8389496 90.123078,72.9623391 90.5086754,73.0460294 C91.0302999,73.1565435 91.3248379,72.4762916 90.9504824,72.1093418" id="Fill-89" fill="#C17B00"></path>
                <path d="M115.369425,65.2870404 C100.415758,67.8531213 85.4779365,66.6531145 70.4382509,65.6828721 C56.0753964,64.7547152 41.5280545,64.5249508 27.1369044,64.0984082 C17.9329065,63.8265583 8.89075959,63.5808697 8.5093347,52.2018481 C8.21958759,43.4855904 12.2104012,33.3259123 17.9883659,27.4714717 C32.902419,12.3604859 53.9883118,-1.12167544 76.135856,6.34111548 C88.3505074,10.4563994 99.4820025,18.4037428 107.419489,28.3074953 C113.544924,35.9522778 119.706577,46.7489264 119.848055,57.0212118 C119.85145,57.2407391 119.840132,57.4511669 119.82655,57.6604571 C120.763701,60.9488169 119.707709,64.5420125 115.369425,65.2870404 M111.937733,25.0760079 C82.6981752,-9.96873957 31.2318459,-9.20664996 8.94395535,33.2189922 C5.86765602,39.8309727 3.3063369,46.6761298 2.44954566,53.0879195 C0.420184104,68.2648772 3.88130381,84.2835457 13.0705879,96.625985 C25.1562113,112.793659 48.9686695,122.877128 66.3795277,122.870311 C87.5321982,122.863479 105.415027,111.908725 116.024751,93.6708973 C116.874752,94.2054974 123.302384,76.0996133 123.850187,73.7132491 C125.653183,65.8512142 126.291532,57.7901261 124.588136,49.8609819 C122.520293,40.7329683 117.85378,32.2032519 111.937733,25.0760079 Z" id="Fill-91" fill="#AC3AE8"></path>
                <path d="M124.582997,49.9393684 C122.504477,40.8104895 117.813871,32.2821648 111.86728,25.1539958 C99.691955,10.6383277 83.681551,2.28630207 67.5130112,0.47440273 C67.6973134,1.86545916 67.8645506,3.25196593 68.0192735,4.62709857 C70.6188452,4.95581101 73.2434457,5.53475436 75.8805605,6.41966189 C88.1582752,10.5359605 99.3472415,18.483067 107.325708,28.3865243 C113.482768,36.0299415 119.676234,46.8262683 119.818442,57.0993849 C119.821855,57.3177682 119.810479,57.5293271 119.795689,57.7374737 C120.738816,61.0268729 119.677372,64.618824 115.316689,65.3649671 C100.963868,67.8138179 86.6281115,66.8310928 72.2024793,65.8915895 C71.7280717,80.8064897 70.1239596,95.6417709 69.3150775,110.538473 C69.0943699,114.644534 68.8372569,118.773345 68.3935663,122.870307 C88.6349582,122.094591 105.702256,111.316463 115.975399,93.7468404 C116.829788,94.2825621 123.290606,76.1772177 123.841237,73.7909246 C125.653542,65.9291241 126.295187,57.8682763 124.582997,49.9393684" id="Fill-93" fill="#8A3CE5"></path>
                <path d="M70.8101326,100.978664 C71.0554528,93.2968758 72.132525,85.6604682 72.2342007,77.9843526 C72.2458395,77.0948943 69.8825889,77.1141811 69.8931026,78.0104464 C70.103377,92.7806724 68.3359039,107.979744 67.0427163,122.689841 C66.9913159,123.265039 68.0403515,123.350128 68.4013226,123.34471 C68.7038841,123.341052 68.9655589,123.294536 69.2038698,123.196968 C69.7622652,123.073306 70.2482327,122.781737 70.2715965,122.335873 C70.3066423,121.726639 70.3229969,121.103792 70.3148196,120.492289 C70.3089786,120.008987 70.0648267,119.502994 70.1851504,119.025364 C70.2482327,118.772367 70.0823496,118.62715 69.8370294,118.548868 C71.7960859,113.345991 70.6512586,105.953504 70.8101326,100.978664" id="Fill-107" fill="#8A30C4"></path>
                <path d="M79.1207144,81.6409085 C78.6001908,80.6829829 76.5088012,81.193646 76.1393223,82.0397559 C75.8767367,82.6403326 75.1865782,83.8852899 75.7617103,84.4512845 C76.4634877,85.1452329 78.3178532,85.0841378 78.8476719,84.1423506 C79.2380646,83.4472494 79.5238879,82.3809664 79.1207144,81.6409085" id="Fill-109" fill="#8A30C4"></path>
                <path d="M78.3434941,91.7843271 C78.3209206,91.4273068 78.092929,91.1339588 78.0726129,90.7985417 C78.013922,89.8741546 76.0917948,89.9980884 75.7678661,90.6768819 C75.3829892,91.4830201 74.7170732,92.5529441 75.2904382,93.4341249 C75.8739612,94.3278127 77.8920255,93.917353 78.250943,92.996377 C78.415729,92.5756843 78.3739682,92.226623 78.3434941,91.7843271" id="Fill-111" fill="#8A30C4"></path>
                <path d="M77.4825134,99.4810405 C77.0339604,98.9369474 75.7175548,99.1164067 75.3177576,99.6387818 C74.8811226,100.206879 74.7001846,100.842416 74.6070069,101.552252 C74.5289977,102.140924 74.8345338,102.713594 75.2440822,103.086229 C75.6384622,103.445148 76.6634166,103.605175 77.0317935,103.096516 C77.7219584,102.140924 78.3373645,100.523505 77.4825134,99.4810405" id="Fill-113" fill="#8A30C4"></path>
                <path d="M76.2741874,109.595 C75.8939354,108.885305 74.3620002,109.052354 73.883407,109.496047 C73.2551169,110.082317 72.9579084,111.237834 73.3654775,112.00605 C73.6113301,112.467831 74.4734534,112.466767 74.9017833,112.40399 C75.4306397,112.327381 76.0294275,112.096491 76.2512412,111.584701 C76.513484,110.973959 76.5954349,110.196166 76.2741874,109.595" id="Fill-115" fill="#8A30C4"></path>
                <path d="M75.5201733,117.639631 C75.7673904,116.300917 73.5112656,116.609944 73.0232805,117.254555 C72.7588657,117.605831 72.5729154,118.002979 72.4804777,118.449619 C72.4063126,118.799689 72.1515715,119.403257 72.2612069,119.749705 C72.6051611,120.832506 74.2615157,120.58625 74.8881574,119.980268 C75.2374859,119.641062 75.4567567,119.289786 75.4933018,118.764682 C75.5180236,118.409784 75.4567567,117.983665 75.5201733,117.639631" id="Fill-117" fill="#8A30C4"></path>
                <g id="Group-9" transform="translate(30.000000, 5.000000)">
                    <mask id="mask-2" fill="white">
                        <use xlink:href="#path-1"></use>
                    </mask>
                    <g id="Mask"></g>
                    <g mask="url(#mask-2)">
                        <g transform="translate(9.000000, 9.000000)">
                            <g>
                                <path d="M15.7445879,51.0336679 C13.2669067,52.2605607 12.3924309,53.2601326 11.1522408,55.2311014 C10.1974699,56.7493492 9.17252498,57.8097535 7.52546076,58.6915026 C5.64155936,59.703241 3.40543857,58.0498812 3.09572842,56.2889442 C2.09912299,50.6334549 9.08615701,45.2020849 14.652168,46.0972812 C16.920002,46.4635561 18.0252421,49.9053875 15.7445879,51.0336679" id="Fill-1471" fill="#5CCDFF"></path>
                                <path d="M41.4943795,5.33277299 C33.8676601,-0.61485299 21.9660791,-1.2195632 13.0480702,1.70778396 C8.16942941,3.30791001 3.74084289,6.37072797 1.62990511,11.2025196 C-0.52616892,16.1403319 -0.347586332,21.5441114 1.02939663,26.6828393 C1.39571989,28.0506362 1.8353078,29.4053441 2.33703983,30.7436909 C5.4102303,39.6939256 9.98861688,47.8359167 18.1268805,52.4157457 C27.2836537,57.5047356 36.4391185,49.3633989 41.1646886,41.7246786 C41.8168748,40.7148649 42.4363536,39.6723288 43.0172376,38.6036147 C45.3407737,34.3307219 47.0670721,29.6599245 47.700288,24.9570592 C48.655345,17.8621853 47.5190888,10.0304028 41.4943795,5.33277299" id="Fill-1473" fill="#3EA8FF"></path>
                                <path d="M24.2372242,5 C30.7756631,5 36.1283713,10.8015706 35.9976556,17.2369207 C35.8622952,23.874682 30.2965934,29 23.7621356,29 C17.2243602,29 11.8709885,23.1984294 12.0023677,16.7630793 C12.1377281,10.125318 17.7027664,5 24.2372242,5" id="Fill-1475" fill="#FFFFFF"></path>
                                <path d="M28.9364885,11 C36.9203886,11 37.0785867,24 29.0627918,24 C21.0795296,24 20.9219694,11 28.9364885,11" id="Fill-1477" fill="#000000"></path>
                                <path d="M35.2555147,46.3593927 C38.4988864,42.6529309 42.5120415,47.4529733 45.1578797,49.7572568 C46.0858926,50.879131 46.8136149,52.1168116 47.3971281,53.4420049 C48.0514105,54.9297219 48.3258086,56.5773307 47.4271717,58.043992 C46.2561396,59.9508492 43.6590387,60.5733084 41.7269025,59.4205086 C40.4717484,58.6723732 39.9536635,57.3511278 39.4602811,56.0765998 C38.7859696,54.3388463 37.9520932,52.5306877 36.7363296,50.9074246 C35.6894776,49.5091943 34.4576907,48.0583248 35.2555147,46.3593927" id="Fill-1479" fill="#5CCDFF"></path>
                                <path d="M27.3716866,54.808183 C27.1193217,52.8587779 26.4515255,50.960533 27.9217125,49.2928416 C30.0131054,46.920866 33.4213252,48.0443984 34.4734925,50.7864553 C35.2571178,52.8282146 35.9385029,54.6679906 36.431585,56.7921379 C37.0087887,59.2724137 37.6435834,61.7586693 35.6000751,63.7399665 C34.2819541,65.0183085 32.6053455,65.379088 30.9423258,64.5671681 C27.6402287,62.9592743 27.7961772,58.1003787 27.3716866,54.808183" id="Fill-1481" fill="#3EA8FF"></path>
                                <path d="M35.9834892,33.3703317 C35.6230357,38.3396124 29.9668386,42.1988987 23.3487827,41.9920594 C16.7300773,41.7865049 11.6564509,37.5919078 12.0182034,32.6239118 C12.3773579,27.6559158 17.495148,31.2299952 24.1138533,31.4368344 C30.7319092,31.6436737 36.3445922,28.4036204 35.9834892,33.3703317" id="Fill-1483" fill="#1B1464"></path>
                                <path d="M28.9730145,38.4839787 C28.7408692,40.5236789 27.0548645,42.1256165 23.2506977,41.9922357 C19.4484982,41.8609069 17.7880689,40.1420047 18.0215258,38.1029885 C18.2536711,36.0619203 20.3600293,33.8724232 24.1641961,34.005804 C27.9677072,34.1378167 29.2051598,36.4442785 28.9730145,38.4839787" id="Fill-1485" fill="#992897"></path>
                                <path d="M31.8427992,31 C30.7169346,31.3855761 29.5665034,31.437358 28.4178698,31.5241923 C28.2782602,31.5879239 28.1380514,31.6532487 28.0014377,31.7217602 C27.9756728,32.8641488 28.2968348,33.9858247 28.9145924,34.6271237 C29.3202392,35.0485488 29.8696899,35.0828045 30.3484371,34.8788635 C31.0512786,34.5801217 31.5797579,33.7149654 31.8613739,32.747042 C32.0297443,32.1750511 32.0333394,31.5791608 31.9332758,31.0199161 C31.9033167,31.011153 31.8709608,31.0063732 31.8427992,31" id="Fill-1487" fill="#FFFFFF"></path>
                                <path d="M16.9062004,31.1561753 C16.2827424,31.0155745 15.653358,30.9543717 15.0221957,31.0379052 C14.9807108,31.5746695 14.9990827,32.1221857 15.0630879,32.6242134 C15.2319905,33.9648837 15.8880437,34.8457066 16.7426316,34.9863075 C17.7198961,35.1475849 18.566187,33.8573655 18.9051775,32.5291011 C18.9508108,32.3479741 18.9816281,32.1594036 19,31.9609083 C18.3285381,31.7442176 17.6209251,31.4051215 16.9062004,31.1561753" id="Fill-1489" fill="#FFFFFF"></path>
                                <path d="M8.27653882,41.5959549 C8.5970495,41.1288737 9.05329752,40.9904507 9.5635562,41.0005037 C9.63533354,41.0020503 9.70711087,41.003597 9.77817754,41.0051436 C10.3857976,41.0206099 10.8974776,41.6609132 10.9841789,42.2741506 C11.0396109,42.6669938 10.9479349,43.0729832 10.7318922,43.3931349 C10.5371696,43.6800341 10.1711762,43.9777597 9.82579221,43.9901327 C9.74548688,43.993226 9.66731354,43.9947726 9.58771887,43.9970926 C9.20253752,44.0125588 8.87776284,43.9731198 8.55725217,43.71174 C8.26303615,43.4735595 8.06618148,43.1124222 8.01359214,42.7180324 C7.96242414,42.3205494 8.05694281,41.9161066 8.27653882,41.5959549" id="Fill-1491" fill="#5CCDFF"></path>
                                <path d="M3.68134099,36.2570966 C3.94491086,36.1109106 4.20182912,35.9968534 4.51279168,36.0000662 C5.29352389,36.0072952 5.95036994,36.6868191 5.99776263,37.4996775 C6.04432386,38.2868329 5.35754559,38.9695697 4.55519567,38.9992888 C3.80439569,39.0241886 2.94384422,38.3920547 3.00287722,37.6032929 C3.0419554,37.0803968 3.16334721,36.543846 3.68134099,36.2570966" id="Fill-1493" fill="#5CCDFF"></path>
                                <path d="M40.6803396,34.2573084 C40.9430123,34.1094408 41.2006977,33.9953256 41.5132451,34.0001473 C42.2921198,34.0065764 42.9488017,34.6872496 42.9978451,35.4989143 C43.0435634,36.2864701 42.3552942,36.9695542 41.5548072,36.9992885 C40.8041948,37.0242009 39.9438582,36.3917454 40.0028765,35.6041896 C40.0411137,35.0810275 40.1633064,34.5442037 40.6803396,34.2573084" id="Fill-1495" fill="#5CCDFF"></path>
                                <path d="M4.8919039,28 C6.2097779,28 6.43879365,30 5.10686453,30 C3.79064407,30 3.56162832,28 4.8919039,28" id="Fill-1497" fill="#5CCDFF"></path>
                                <path d="M36.1529625,26.7983173 C36.3123868,26.3396761 36.9158519,26.0333038 37.3951029,26.0030335 C38.0367124,25.9617557 38.7242909,26.3451798 38.9091449,26.943248 C39.0089074,27.2642968 39.0265125,27.531226 38.9619603,27.8605304 C38.8406805,28.4751096 38.2743818,28.9520965 37.6083207,28.9961261 C36.7495811,29.0539148 36.1431818,28.4576813 36.0170117,27.7082615 C35.9622401,27.3881299 36.0483097,27.1046897 36.1529625,26.7983173" id="Fill-1499" fill="#5CCDFF"></path>
                                <path d="M45.4462829,31 C46.1048993,31 46.2190099,33 45.5541918,33 C44.895162,33 44.780638,31 45.4462829,31" id="Fill-1501" fill="#5CCDFF"></path>
                                <path d="M40.0225129,24.4015648 C40.2018774,23.7515385 41.1581681,23.9436155 40.9773649,24.5988755 C40.7989596,25.247855 39.8421893,25.0568247 40.0225129,24.4015648" id="Fill-1503" fill="#5CCDFF"></path>
                                <path d="M13.0226315,26.4008406 C13.2020415,25.7521238 14.1585748,25.9433852 13.977246,26.5983901 C13.7987954,27.2481549 12.8417824,27.0568935 13.0226315,26.4008406" id="Fill-1505" fill="#5CCDFF"></path>
                                <path d="M41.609938,40 C43.6063255,40 43.3809721,43 41.3911302,43 C39.3928725,43 39.6191609,40 41.609938,40" id="Fill-1507" fill="#5CCDFF"></path>
                                <path d="M17.9416996,51.612643 C19.6650623,48.3176731 24.7454561,50.5555124 23.9073965,53.9921942 C23.2904916,56.5188303 23.7458099,59.0199448 23.3973031,61.5519539 C22.9755345,64.6118566 19.1446985,66.0276325 16.7058357,64.1625425 C12.9544236,61.2893503 16.3265178,54.702097 17.9416996,51.612643" id="Fill-1509" fill="#5CCDFF"></path>
                            </g>
                        </g>
                    </g>
                </g>
                <path d="M125.469245,54.7933375 C125.408004,54.4736486 125.053031,54.2695918 124.775177,54.1970383 C124.548357,54.1358213 124.319269,54.0768715 124.090181,54.0156545 C123.553753,53.875082 122.179226,54.0303919 122.043134,54.7672636 C122.019318,54.8840295 122.01705,55.0053299 122.000038,55.124363 C113.874225,56.1514488 91.1446278,58.4924335 85.604558,58.5071709 C71.4328665,58.5479823 59.0428433,58.9277546 44.9029065,58.1670763 C38.4306079,57.8190461 31.5874592,56.0403512 25.1242334,55.2048521 C18.8923636,54.3976941 12.6355437,53.7515143 6.39573521,52.990836 C5.74816512,52.9126142 5.06203569,52.8763375 4.36002889,52.8706692 C4.2863125,52.5691186 4.17403678,52.2811719 3.95402172,52.0340364 C3.4527503,51.4694793 1.63932723,51.6406603 1.60417019,52.5611831 C1.55086757,53.875082 0.730914547,55.2490644 0.434914909,56.5266865 C-0.0527473304,58.6375406 0.0436510193,60.9241101 0.00849397411,63.0757755 C-0.0448086428,66.2307201 0.0935513414,70.7913891 2.18482848,73.3137576 C3.01725658,74.3159031 5.504334,73.2593425 5.55536842,72.4045713 C13.5689065,73.7422769 21.9124672,74.1254502 29.8602276,74.9428109 C44.4424627,76.4448956 59.0666594,77.4617785 73.7589019,77.3132705 C87.1049699,77.1817673 101.757519,76.4256235 114.781503,73.9089232 C116.15036,73.6436494 118.813222,73.0654885 121.778889,72.2061828 C121.732391,72.3456216 121.694966,72.4850604 121.645066,72.6244992 C121.18689,74.1458558 124.805797,73.5302845 125.267375,72.2639989 C127.28607,66.7238573 126.517152,60.4615814 125.469245,54.7933375" id="Fill-95" fill="#8E2CCE"></path>
            </g>
        </g>
    </g>
</svg>