<?xml version="1.0" encoding="UTF-8"?>
<svg width="83px" height="120px" viewBox="0 0 83 120" version="1.1" xmlns="http://www.w3.org/2000/svg" xmlns:xlink="http://www.w3.org/1999/xlink">
    <title>Green Monster 1</title>
    <g id="Student-Environmrnt---New-Treatment" stroke="none" stroke-width="1" fill="none" fill-rule="evenodd">
        <g id="Avatars" transform="translate(-335.000000, -673.000000)">
            <g id="Green-Monster-1" transform="translate(335.000000, 673.000000)">
                <path d="M75.7264017,63.3070866 C76.7831643,63.4447666 77.6396982,64.28494 77.767622,65.3169981 C77.913344,66.4748112 76.9978539,67.870041 75.7008169,67.8971434 C75.916619,68.0326552 75.7486493,68.065178 75.1957957,67.9968801 C74.61402,67.983871 74.0533797,67.7432019 73.6506975,67.3301619 C73.3770516,67.0482973 73.1935087,66.7176484 73.1000686,66.3414676 C73.0789334,66.1593396 73.0600229,65.9772117 73.04,65.7929157 C73.1123048,64.4887498 74.007772,63.6605015 75.7264017,63.3070866" id="Fill-1667" fill="#9AE012"></path>
                <path d="M5.78335551,75.1191028 C9.88577018,75.0285029 9.18794853,81.1705075 5.12436518,81.2588976 C1.0230926,81.3472877 1.72091425,75.2052831 5.78335551,75.1191028" id="Fill-1669" fill="#9AE012"></path>
                <path d="M4.58269745,60.0007624 C7.43408939,59.9311339 7.26428492,64.6540692 4.42832975,64.7236977 C1.57693782,64.7909659 1.74784492,60.0680305 4.58269745,60.0007624" id="Fill-1671" fill="#9AE012"></path>
                <path d="M78.8408002,85.1723266 C78.9936608,85.1280733 79.1560753,85.1054069 79.3232666,85.0924547 C79.4486601,85.0665503 79.5752478,85.0460426 79.7054182,85.0417252 C81.2173054,84.9780436 82.2479205,86.2160582 82.0198237,87.5080403 C81.8466613,88.4794554 80.8829228,89.2350005 79.8045387,89.2878887 C78.4455122,89.3569671 77.4471411,88.3790759 77.318165,87.2155364 C77.2178502,86.3185965 77.9164711,85.450799 78.8408002,85.1723266" id="Fill-1673" fill="#9AE012"></path>
                <path d="M50.4348198,109.68079 C50.5350528,106.920761 50.7597511,104.208398 51.1750023,101.479011 C51.5010351,99.3318176 54.951916,98.9550374 55.4244433,101.211179 C55.9828846,103.875878 56.305613,106.522418 56.5203981,109.239321 C56.7660241,112.352298 57.5216272,115.485702 55.9212027,118.280911 C55.1017149,119.7154 52.5683519,120.04338 51.6045726,118.566901 C49.7926674,115.798929 50.3180648,112.963998 50.4348198,109.68079" id="Fill-1675" fill="#67AF00"></path>
                <path d="M13.7068449,99.773828 C16.0974642,98.394452 18.5221217,97.1501753 21.0591055,96.0637038 C23.0560158,95.2088313 25.2616939,98.0220772 23.6085699,99.6341875 C21.657044,101.536932 19.5920572,103.223971 17.4079366,104.856516 C14.9038565,106.722931 12.6607362,109.046868 9.41802621,109.13315 C7.75695993,109.177426 6.09135522,107.137312 6.81296598,105.514984 C8.16882268,102.458786 10.8578439,101.41432 13.7068449,99.773828" id="Fill-1677" fill="#67AF00"></path>
                <path d="M6.17857993,44.4178442 C8.30098832,31.5498045 7.84984837,19.375746 21.3373379,12.50601 C32.2786209,6.92929428 48.2109244,8.22344496 58.5267634,14.5404826 C69.6753885,21.368399 74.6527381,32.8744723 75.5447648,45.4271687 C76.2317279,55.1248218 70.6118457,78.010379 77.9143888,84.5726836 C89.0561784,94.5845497 80.1245188,105.621564 68.0872848,108.35906 C55.9965063,111.107859 44.1301585,112.244903 31.9152026,109.248577 C1.97705434,101.90413 2.13426978,68.9637571 6.17857993,44.4178442 C6.39617521,43.0909159 4.65541298,53.6633923 6.17857993,44.4178442" id="Fill-1679" fill="#7FC605"></path>
                <path d="M55.5830255,37.5941351 C62.5869577,41.661999 72.2397694,37.6362243 75.1121303,30.2603771 C77.0111557,25.3837181 75.2550677,19.8779962 71.5772659,17.1877003 C69.3685429,14.3938877 65.0112213,13.4008102 61.6555958,13.7773379 C58.5030322,14.1299771 55.0589217,15.8010319 53.0532605,18.3252461 C48.3272512,24.2723358 48.404392,33.4238921 55.5830255,37.5941351" id="Fill-1681" fill="#9AE012"></path>
                <path d="M50.6444382,31.2750009 C45.8268793,24.2733496 35.0817667,19.0062086 26.8386914,25.9124448 C20.558578,31.1750422 17.6835098,42.5760114 23.7111449,48.1600669 C24.9121227,49.8616363 26.656725,51.2326605 28.8744398,52.2515575 C33.9876941,54.5937712 33.7465887,56.0295413 41.7985993,53.3715491 C51.578153,50.1456098 56.3979865,39.6340457 50.6444382,31.2750009" id="Fill-1683" fill="#9AE012"></path>
                <path d="M65.2028193,109.339153 C63.2629938,107.171067 61.5043418,104.81347 60.3907596,102.13664 C59.5564385,100.125351 62.2521151,98.2877795 63.9034478,99.724898 C66.1179184,101.652712 68.2585349,103.661745 70.4983929,105.560231 C72.7774859,107.490301 75.2008253,109.160923 75.4050781,112.295736 C75.5424007,114.364555 73.4237097,114.868787 71.852001,114.796593 C69.1309371,114.674765 66.774528,111.097762 65.2028193,109.339153" id="Fill-1685" fill="#65A500"></path>
                <path d="M21.5181273,107.836246 C24.0558475,105.7203 26.6050924,103.736391 29.3629327,101.897946 C31.2034137,100.674927 33.6500895,103.194816 32.3697048,104.931436 C30.6663667,107.239842 28.9123203,109.468803 26.976185,111.601533 C24.9997135,113.772308 23.2883082,116.125472 20.0971423,116.219464 C18.6761573,116.263104 17.4706825,114.882312 17.5525073,113.557468 C17.711547,110.922326 19.5716199,109.459851 21.5181273,107.836246" id="Fill-1687" fill="#65A500"></path>
                <path d="M25.9577459,32.9203944 C27.741696,29.0641042 31.6284009,26.561218 35.7321643,26.0474258 C36.9452052,25.8936298 38.3526943,26.0269196 39.6448711,26.3789414 C39.8178396,26.4051437 39.9885471,26.4302067 40.1603852,26.4700797 L40.151341,26.4700797 C41.1066248,26.6466602 42.0426899,26.9531128 42.7978728,27.366653 C44.6824386,28.3987944 45.8875658,29.5266312 47.08591,31.3140815 C48.7534172,33.7930438 49.2632787,37.4100959 48.5148788,40.2832315 C47.9326645,42.5058673 46.8925922,45.0406518 45.1493406,46.6139271 C43.2218153,48.3444159 42.7356946,48.8411198 40.3107434,49.8846535 C38.3606079,50.7254046 36.6637074,50.5830009 34.6366969,50.4497111 C33.4948784,50.3711043 32.357582,49.901742 31.3412505,49.3879497 C29.2124938,48.3090998 28.2583406,47.1117701 26.8158055,45.3026745 C25.4817998,43.6291471 24.9380228,41.3222083 24.7153117,39.2419761 C24.4790344,37.0990864 25.0669014,34.8422737 25.9577459,32.9203944" id="Fill-1689" fill="#FFFFFF"></path>
                <path d="M40.2776759,33.7466285 C46.1012128,35.4753225 43.7071793,44.9626143 37.9812436,43.2612875 C32.1543411,41.5303128 34.5506183,32.0453016 40.2776759,33.7466285" id="Fill-1691" fill="#14193F"></path>
                <path d="M56.2401237,18.2654021 C56.959054,17.8897999 57.676854,17.5119213 58.3935235,17.1385955 C59.9432931,16.5603958 61.5563647,16.3976348 63.2191737,16.6514509 C64.0285355,16.8961614 64.8390277,17.1385955 65.6483895,17.3855824 C67.2038111,18.0992266 68.4721127,19.1497745 69.4453815,20.5326735 C70.8708079,22.5643398 71.4133968,25.0877036 71.0166286,27.4710702 C70.5972526,29.9625647 69.1695655,32.2389416 67.0760766,33.7026519 C66.3526247,34.0816687 65.6370856,34.4584091 64.9215464,34.8340112 C63.3683857,35.4099346 61.7620964,35.569281 60.0992874,35.3177413 C59.2865344,35.0764454 58.4771726,34.8294585 57.671202,34.5870243 C56.1101285,33.8688274 54.8429573,32.8194177 53.868558,31.4342424 C52.4453925,29.4048524 51.8994124,26.8792122 52.2984413,24.4969838 C52.7178173,22.0066275 54.144374,19.7302506 56.2401237,18.2654021" id="Fill-1693" fill="#FFFFFF"></path>
                <path d="M60.9558856,22.3983272 C66.3912745,23.9382575 64.0019778,32.0552313 58.5631077,30.515301 C53.1300397,28.9753707 55.5170155,20.857272 60.9558856,22.3983272" id="Fill-1695" fill="#14193F"></path>
                <path d="M0.710366341,20.9541467 C-2.04514499,28.6013076 3.58007818,37.4520721 11.3016157,38.9956509 C16.4078484,40.0189992 21.4869444,37.3117468 23.4758424,33.1955366 C25.822041,30.5179465 26.0334816,26.0298171 25.0791723,22.7726719 C24.181398,19.7151766 21.9426157,16.6006384 19.124916,15.0582005 C12.4775417,11.4234318 3.53258886,13.1107585 0.710366341,20.9541467" id="Fill-1697" fill="#9AE012"></path>
                <path d="M19.4621793,32.6457517 C18.8182594,33.1389015 18.1732078,33.6354602 17.5304195,34.1263374 C16.0988576,34.9626468 14.536022,35.3978459 12.8532295,35.4330709 C12.0135308,35.3330774 11.1715687,35.2330838 10.3330016,35.1330903 C8.67623747,34.696755 7.24693891,33.8797625 6.0496326,32.6855218 C4.30007159,30.9356353 3.33588919,28.5448813 3.32,26.1325378 C3.31212413,23.6088379 4.33175833,21.1249081 6.14921952,19.3250248 C6.7987978,18.8284661 7.43819106,18.3353163 8.08211099,17.8433028 C9.51593622,17.0081297 11.0742451,16.5752032 12.7559059,16.5354331 C13.597868,16.6354266 14.4386985,16.7376927 15.2761339,16.8399588 C16.9385564,17.2751578 18.3655916,18.0932866 19.5640295,19.2852547 C21.3113272,21.0385501 22.2789046,23.4270315 22.2914286,25.8416476 C22.301538,28.3608024 21.2819038,30.8458684 19.4621793,32.6457517" id="Fill-1699" fill="#FFFFFF"></path>
                <path d="M14.7124869,29.7313939 C9.060919,29.1106014 9.98633557,20.671667 15.6414,21.2924596 C21.2929679,21.9109906 20.3687168,30.349925 14.7124869,29.7313939" id="Fill-1701" fill="#14193F"></path>
                <path d="M42.2246015,16.0837328 C42.7233609,11.441884 42.8242212,5.47508252 45.9021213,1.70788307 C47.2886726,0.0104990222 50.2391119,1.37043771 49.7447858,3.57906842 C49.2659768,5.72111292 48.3615596,7.73224216 47.8140325,9.8663866 C47.2354716,12.1077461 46.7389288,14.3333055 46.0373405,16.5464506 C45.4011451,18.5508083 41.973005,18.4266645 42.2246015,16.0837328" id="Fill-1703" fill="#9AE012"></path>
                <path d="M32.2572992,2.34043977 C32.1037136,0.40866681 35.0040336,-0.866055825 36.2227023,0.707939732 C39.3956925,4.8032534 40.6488623,11.6932811 39.3077703,16.6852885 C38.5409551,19.5418823 34.6334248,18.6316876 34.9283538,15.7627178 C35.4314024,10.9192218 32.6267951,6.97016937 32.2572992,2.34043977" id="Fill-1705" fill="#9AE012"></path>
                <path d="M32.6720372,59.2483029 C36.2486705,58.7089332 39.8447296,59.3337031 43.2122498,60.6899931 C45.9729994,61.799072 45.5502025,67.4736906 42.5129209,67.6647174 C39.1259749,67.8759705 35.6693245,68.2175713 32.2880919,67.90631 C28.0395543,67.5175144 28.7594517,59.8382385 32.6720372,59.2483029" id="Fill-1707" fill="#006655"></path>
                <path d="M73.3584039,91.3274052 C74.1106424,89.8442151 75.8193767,89.3874976 77.2305101,90.0805664 C77.6126692,90.2678206 77.8355953,90.4470822 78.2342268,90.7336724 C78.617484,91.0842031 78.8931218,91.5100922 79.0567474,92.0124815 C79.2961459,92.7455131 79.2456306,93.5596121 78.9150849,94.2572481 C78.3660058,95.4127434 77.042725,96.1400661 75.8116896,95.8363489 C75.3746226,95.7278785 74.9628132,95.5531841 74.5597891,95.3545119 C73.1475575,94.6591595 72.6533863,92.7192519 73.3584039,91.3274052" id="Fill-1709" fill="#BAF42A"></path>
                <path d="M69.2180875,78.4666293 C69.9395561,78.3418186 70.6973914,78.502126 71.3050673,78.9051846 C72.0851919,79.4216035 72.7092916,80.4773423 72.536843,81.4254462 C72.5286312,81.4632329 72.5215924,81.4987296 72.5169,81.5399515 C72.4805333,82.0162935 72.3303739,82.4537037 72.0629026,82.8567624 C71.6534839,83.4693657 70.9930175,83.9033408 70.2551252,84.0441823 C68.7582245,84.3327356 67.2554582,83.3491351 66.9633515,81.8834674 C66.9469278,81.8147642 66.9351966,81.7449159 66.9211191,81.6762128 C66.6325317,80.1956593 67.7118018,78.7299915 69.2180875,78.4666293" id="Fill-1711" fill="#BAF42A"></path>
                <path d="M70.3027636,50.0095202 C70.2919161,49.9757404 70.2723908,49.947409 70.2637128,49.9158085 C70.2691366,49.9201672 70.2734755,49.9245259 70.2767298,49.9267052 C70.2290011,49.7479992 70.1942857,49.5649345 70.1942857,49.3753318 C70.1921199,48.1984872 71.1575402,47.2722669 72.3095362,47.2450252 C73.7750226,47.2134247 74.0451233,47.9914497 74.3607833,48.8304963 C74.7708157,49.9158085 73.8802426,51.1613024 72.8529919,51.4293614 C72.4950271,51.5252524 72.1175369,51.5143557 71.7649957,51.4184647 C71.7693347,51.4228234 71.7715042,51.427182 71.7769279,51.4315407 C71.7563178,51.427182 71.7411314,51.4162853 71.7226908,51.4097473 C71.5643185,51.3628915 71.4113698,51.3051389 71.2692687,51.2245033 L71.2660144,51.2223239 C71.1022184,51.1286122 70.952524,51.0163761 70.8169313,50.8801673 C70.6986944,50.7603035 70.5978134,50.6240946 70.5121188,50.4824374 C70.486085,50.4377609 70.4611359,50.3887257 70.4383563,50.3418698 C70.3830345,50.2350821 70.33856,50.1239357 70.3027636,50.0095202" id="Fill-1713" fill="#BAF42A"></path>
                <path d="M13.337026,89.8008549 C13.3987567,89.7962866 13.4582426,89.7871498 13.5177285,89.7768711 C14.1339129,89.6889302 14.8791704,90.0578248 15.3135298,90.4701188 C15.8129871,90.9429435 16.1092943,91.6144915 16.1250076,92.3077393 C16.1407208,92.9792874 15.8937982,93.6416987 15.4448478,94.135081 C15.122726,94.4811338 14.7411182,94.7221145 14.2921678,94.858023 C13.8611755,94.9825107 13.4279385,94.9939316 12.9902119,94.8911436 C12.9565406,94.8888594 12.9228693,94.8842911 12.8880757,94.8751544 C11.7791684,94.6752889 10.9519774,93.5857364 10.9104495,92.4664896 C10.8565754,91.00119 11.9688499,89.9459002 13.337026,89.8008549" id="Fill-1715" fill="#BAF42A"></path>
                <path d="M7.01215991,53.5279268 C7.40895841,52.9016262 8.29671097,52.3087744 9.06564817,52.4667913 L9.76621048,52.6109674 C10.7290633,52.8451092 11.3993613,53.8566481 11.3825478,54.8485791 C11.3634926,55.9027941 10.6528421,56.7424752 9.6888684,57.0239068 C9.57677843,57.058509 9.48150196,57.0965715 9.36604929,57.1184862 C8.14875221,57.3803099 6.92136704,56.5152538 6.6814945,55.2695731 C6.56940453,54.6698008 6.6859781,54.0365798 7.01215991,53.5279268" id="Fill-1717" fill="#BAF42A"></path>
            </g>
        </g>
    </g>
</svg>