<?xml version="1.0" encoding="UTF-8"?>
<svg width="81px" height="125px" viewBox="0 0 81 125" version="1.1" xmlns="http://www.w3.org/2000/svg" xmlns:xlink="http://www.w3.org/1999/xlink">
    <title>Monster Green 2</title>
    <g id="Student-Environmrnt---New-Treatment" stroke="none" stroke-width="1" fill="none" fill-rule="evenodd">
        <g id="Avatars" transform="translate(-451.000000, -661.000000)">
            <g id="Monster-Green-2" transform="translate(451.000000, 661.000000)">
                <path d="M7.26484686,67.7083333 C6.20806227,67.8484263 5.35463371,68.6878978 5.22573043,69.7228479 C5.08015864,70.883773 5.99581637,72.2814442 7.29040527,72.308594 C7.07593689,72.444343 7.24262216,72.4769227 7.79268354,72.4085053 C8.37608197,72.3954734 8.93503324,72.1543832 9.33730035,71.7427924 C9.61066418,71.4582626 9.79624045,71.1270351 9.88736173,70.750196 C9.90847519,70.5655774 9.92736619,70.3831308 9.94736842,70.2006842 C9.87624937,68.8964082 8.98170511,68.0645386 7.26484686,67.7083333" id="Fill-1547" fill="#9AE012"></path>
                <path d="M77.5926658,79.5464016 C73.4958422,79.4578162 74.191766,85.6133921 78.2486595,85.6997629 C82.3454831,85.7905629 81.651841,79.6349869 77.5926658,79.5464016" id="Fill-1549" fill="#9AE012"></path>
                <path d="M78.3165162,64.3947038 C75.4701559,64.3248866 75.639792,69.0606233 78.4729338,69.1280738 C81.3203955,69.1955243 81.1485564,64.4621543 78.3165162,64.3947038" id="Fill-1551" fill="#9AE012"></path>
                <path d="M3.68100028,90.0972923 C3.527119,90.0529702 3.3636947,90.0281065 3.19907752,90.0172963 C3.07263244,89.9913516 2.94618735,89.9708121 2.81497076,89.9643259 C1.30597994,89.9027073 0.276526122,91.1426458 0.505558721,92.4366357 C0.676140292,93.4095604 1.63998581,94.1662796 2.71715476,94.220331 C4.07584293,94.2862737 5.07070329,93.3090249 5.200727,92.1436773 C5.30212164,91.2453435 4.60428794,90.3740353 3.68100028,90.0972923" id="Fill-1553" fill="#9AE012"></path>
                <path d="M34.4071869,114.182609 C34.3011229,111.418652 34.0583542,108.697917 33.6140639,105.96467 C33.2664097,103.812651 29.5742039,103.435024 29.0686322,105.696237 C28.4699598,108.366925 28.1246626,111.017139 27.8960358,113.742424 C27.6332327,116.861259 26.8224324,120.002844 28.5371337,122.804336 C29.4151079,124.239774 32.1244539,124.570767 33.1556317,123.090969 C35.094246,120.316775 34.5321068,117.475472 34.4071869,114.182609" id="Fill-1555" fill="#67AF00"></path>
                <path d="M68.487275,109.439328 C66.5957104,107.405655 64.6330687,105.489201 62.5133698,103.691102 C60.8453537,102.275383 57.8681455,104.309056 58.9790099,106.345005 C60.2882019,108.750815 61.7727936,110.981368 63.3892216,113.195989 C65.2406622,115.72926 66.7023258,118.625564 69.8044919,119.677111 C71.3956991,120.217679 73.6139886,118.765543 73.4076361,116.992481 C73.0190055,113.667136 70.741103,111.862209 68.487275,109.439328" id="Fill-1557" fill="#67AF00"></path>
                <path d="M76.7244782,48.942468 C74.6081424,35.9861979 75.0541658,23.7263914 61.5847127,16.8095527 C50.6582759,11.196876 34.7447962,12.4999001 24.4407442,18.8602508 C13.3060872,25.7327071 8.3361116,37.3199483 7.44634032,49.9587129 C6.76023792,59.7228585 12.3708034,82.7630555 5.07740963,89.3726309 C-6.04700697,99.4531439 2.87118647,110.565834 14.8944769,113.3221 C26.9701068,116.08747 38.8204493,117.234586 51.0189632,114.215439 C80.9207396,106.822912 80.7625834,73.654405 76.7244782,48.942468 C76.5071555,47.6041655 78.2445989,58.2491325 76.7244782,48.942468" id="Fill-1559" fill="#7FC605"></path>
                <path d="M33.5557954,24.7201123 C31.1811661,22.0935099 27.1121758,20.345844 23.3919233,19.969319 C19.4284721,19.5701117 14.2903251,20.5908121 11.693146,23.4861989 C7.35801371,26.272711 5.30114886,31.9874991 7.55647306,37.0626482 C10.9669913,44.7349128 22.3698003,48.9436008 30.6236445,44.737181 C39.0862725,40.425289 39.1493665,30.9157636 33.5557954,24.7201123" id="Fill-1561" fill="#9AE012"></path>
                <path d="M56.0159419,47.8087595 C64.5208051,50.4703928 64.2667932,49.0337028 69.6702163,46.6839974 C72.0130226,45.6628319 73.8580109,44.291032 75.1246686,42.5856742 C81.4976461,36.9869093 78.457441,25.5651101 71.8202457,20.2885189 C63.1123997,13.3669063 51.7578403,18.6434975 46.6685302,25.6607376 C40.5892539,34.0406702 45.6808321,44.5756378 56.0159419,47.8087595" id="Fill-1563" fill="#9AE012"></path>
                <path d="M57.6616434,55.5426447 C57.2715103,54.2760473 56.8473538,53.0376969 56.5377423,51.7982167 C47.1257796,55.2070698 36.0035818,57.7673818 28.3029881,49.2424242 C23.1700151,56.0612604 22.3160317,65.4381488 25.7376357,73.1089158 C29.1603738,79.9254922 37.7149509,84.1896658 45.4155446,82.4835444 C51.4036352,80.7796828 56.5377423,75.6647083 58.0018758,68.5735706 C58.024558,68.454933 58.0461061,68.3351655 58.0676541,68.216528 C58.3942772,66.3872495 58.3455106,57.7606025 57.6616434,55.5426447" id="Fill-1565" fill="#006655"></path>
                <path d="M50.2479786,53.836551 C50.3716251,53.8211759 50.4917722,53.8112918 50.6142523,53.7893272 C50.8113868,53.7662644 50.9921907,53.7124513 51.1601633,53.6432629 C51.3911257,53.5982355 51.6197552,53.5488152 51.8472181,53.5037879 C52.3907962,55.4619289 52.2158247,58.4139665 49.9423617,59.0256797 C46.7893752,59.8702172 45.3802714,57.2147012 45,54.7030532 C46.7590468,54.5449083 48.5180937,54.1989664 50.2479786,53.836551" id="Fill-1567" fill="#FFFFFF"></path>
                <path d="M31.9519514,52.0833333 C34.3919347,53.2772236 37.0444924,53.9470221 39.7894737,54.3513861 C39.7732996,56.4692142 38.6549738,58.8276276 36.5188331,59.4691884 C34.6611185,60.0316835 32.7063591,59.3234818 31.7878994,57.6247012 C30.9919011,56.1518224 31.2171836,54.275709 31.7012523,52.7497433 C31.7647935,52.5419137 31.8491301,52.3148825 31.9519514,52.0833333" id="Fill-1569" fill="#FFFFFF"></path>
                <path d="M36.037578,82.6284266 C35.7591082,79.8240217 37.0231089,76.8451465 40.003767,76.274898 C41.6127036,75.9692822 43.1609039,77.3111812 43.6903403,78.7584649 C44.2415501,80.2596119 44.0914285,81.8216479 43.7201354,83.3333333 C41.1291059,83.0815809 38.5346384,82.9141363 36.037578,82.6284266" id="Fill-1571" fill="#FFFFFF"></path>
                <path d="M16.4816318,113.314588 C17.6812015,110.688657 18.658964,107.924637 18.9373547,105.039508 C19.1444502,102.873114 16.0832841,101.863489 14.9459563,103.707301 C13.4159391,106.18043 11.9798505,108.712417 10.4204099,111.164041 C8.83041418,113.662072 7.02992797,115.942784 7.73722142,119.015803 C8.20346926,121.042977 10.337798,120.934318 11.793125,120.426109 C14.316748,119.546649 15.5061327,115.445894 16.4816318,113.314588" id="Fill-1573" fill="#65A500"></path>
                <path d="M52.0099452,115.457384 C51.3002376,112.225016 50.499904,109.090597 49.4347541,105.949345 C48.7238696,103.853659 45.1270762,104.423139 45.0588124,106.599692 C44.9681864,109.486955 44.9646555,112.343467 45.1753316,115.228453 C45.3918924,118.171526 45.2789042,121.098654 47.8093707,123.094112 C48.9345456,123.979084 50.7929674,123.586143 51.5732926,122.464267 C53.1268814,120.2376 52.5537013,117.940317 52.0099452,115.457384" id="Fill-1575" fill="#65A500"></path>
                <path d="M71.629238,27.3120519 C69.8127276,23.4456044 65.8546352,20.9379759 61.6756312,20.4237361 C60.4405873,20.2682155 59.0075243,20.4033028 57.6900679,20.756346 C57.5160858,20.7824553 57.3432483,20.8074294 57.1658324,20.847161 L57.1738447,20.847161 C56.2020632,21.0219798 55.2497402,21.3296155 54.4805562,21.745094 C52.5610302,22.7781143 51.332854,23.9110311 50.1126901,25.7000861 C48.4140755,28.1838756 47.8967078,31.8107986 48.659024,34.6907685 C49.2496474,36.9191409 50.3118538,39.4574194 52.0871579,41.0341944 C54.0478902,42.7676252 54.5446549,43.2671076 57.0113088,44.3137501 C58.9983674,45.1537886 60.7278867,45.0141606 62.7904901,44.8790733 C63.9545676,44.8007454 65.1117774,44.3285076 66.1476576,43.8142678 C68.3144214,42.7324344 69.2862029,41.5359471 70.7524598,39.721918 C72.1134118,38.0429762 72.6674074,35.7305999 72.894042,33.6441259 C73.134412,31.4986222 72.5357762,29.2384645 71.629238,27.3120519" id="Fill-1577" fill="#FFFFFF"></path>
                <path d="M56.8782223,28.1396971 C51.0616077,29.8723793 53.4553084,39.3777037 59.171675,37.6756984 C64.9916312,35.9396076 62.5990444,26.4331471 56.8782223,28.1396971" id="Fill-1579" fill="#14193F"></path>
                <path d="M29.5682047,24.4621162 C28.8501739,24.0857181 28.1332721,23.7070388 27.4186282,23.332922 C25.8696687,22.7512159 24.2586153,22.5903912 22.5990158,22.8424639 C21.7895377,23.0899741 20.9800596,23.332922 20.1717104,23.5804322 C18.619364,24.2955885 17.3515203,25.3483625 16.3783402,26.736473 C14.9558263,28.7724444 14.4127873,31.2988738 14.811317,33.6850095 C15.2290393,36.1863458 16.6549401,38.4629838 18.7469386,39.9332174 C19.4672274,40.3141779 20.1830002,40.6894354 20.8976441,41.0658335 C22.4499906,41.6429772 24.0531411,41.8038018 25.7138696,41.5505885 C26.5256056,41.3087813 27.3339548,41.0612711 28.140046,40.8183232 C29.6991663,40.0986045 30.964752,39.0446899 31.9379321,37.6588606 C33.3559301,35.6251704 33.903485,33.0941786 33.5049553,30.7069023 C33.088362,28.2112691 31.6624612,25.9277875 29.5682047,24.4621162" id="Fill-1581" fill="#FFFFFF"></path>
                <path d="M25.330676,28.602836 C19.9028309,30.1460173 22.2916391,38.2812544 27.7218023,36.7380731 C33.1484883,35.1948918 30.7631579,27.0596547 25.330676,28.602836" id="Fill-1583" fill="#14193F"></path>
                <path d="M39.776436,15.1721033 C39.2783729,10.5195051 39.1776535,4.53888598 36.1040511,0.765225032 C34.7194358,-0.936089737 31.7720094,0.424735839 32.2656452,2.64074357 C32.7437857,4.78548613 33.6469401,6.80353503 34.1948094,8.93696565 C34.7703489,11.1869092 35.2673052,13.4176224 35.9679139,15.6358926 C36.6021141,17.6448919 40.0265743,17.5204606 39.776436,15.1721033" id="Fill-1585" fill="#9AE012"></path>
                <path d="M51.1521107,2.34396635 C51.3043828,0.407857364 48.4101006,-0.867471266 47.1919235,0.710057252 C44.0231069,4.81230796 42.7715854,11.7178009 44.1098019,16.7232685 C44.87672,19.5851465 48.7791105,18.6717812 48.4845695,15.798627 C47.9810711,10.9442594 50.7819893,6.98408775 51.1521107,2.34396635" id="Fill-1587" fill="#9AE012"></path>
                <path d="M24.6079415,13.7696857 C22.4171953,13.0507179 19.7898956,12.9810333 17.8088774,14.2641144 C15.7617493,15.5892275 16.4171494,18.434128 18.6899631,19.0458037 C19.6280402,19.2957833 20.6025917,19.30242 21.5680247,19.3776351 C22.4969831,19.4473196 23.245849,19.4274098 24.1474517,19.1918095 C25.4194979,18.8632965 26.4088671,17.9762008 26.5182905,16.6389206 C26.6151757,15.4067203 25.8264159,14.1689894 24.6079415,13.7696857" id="Fill-1589" fill="#65A500"></path>
                <path d="M63.7622726,10.0677141 C60.948978,9.70833428 58.1166369,10.1501947 55.4624374,11.0916521 C53.2855233,11.8599001 53.6025931,15.7494503 55.9901402,15.871993 C58.6544232,16.0051403 61.3736051,16.2266596 64.0367677,16.0027837 C67.3788854,15.7223496 66.837738,10.4589079 63.7622726,10.0677141" id="Fill-1591" fill="#65A500"></path>
                <path d="M10.0783102,96.2640949 C9.27045186,94.7801758 7.43269225,94.320241 5.91500518,95.0124315 C5.50517061,95.2023548 5.26423041,95.3819811 4.83549857,95.6691543 C4.42212077,96.0203981 4.12803199,96.4448653 3.94968899,96.9505648 C3.69221367,97.6850876 3.74654333,98.5008426 4.10204824,99.1998978 C4.69376904,100.357744 6.11578868,101.088834 7.43977873,100.782211 C7.90866727,100.67352 8.35275314,100.496182 8.78857145,100.297106 C10.3062585,99.6003386 10.8365632,97.6587729 10.0783102,96.2640949" id="Fill-1593" fill="#BAF42A"></path>
                <path d="M13.2919812,82.9019469 C12.5688362,82.7768222 11.8117022,82.9329411 11.2045886,83.3393095 C10.4251859,83.8570274 9.80400784,84.9131261 9.97629685,85.8659107 C9.98215702,85.9037925 9.99036126,85.9416743 9.99504939,85.9807041 C10.0313824,86.4559484 10.1814028,86.8967548 10.4462825,87.3008274 C10.8576665,87.9149717 11.5186937,88.3500384 12.2535591,88.4912342 C13.7490745,88.7805134 15.2539663,87.7944387 15.5446307,86.325084 C15.5575231,86.256208 15.5704155,86.1861841 15.5844799,86.1150123 C15.8739723,84.6330303 14.7945289,83.1625278 13.2919812,82.9019469" id="Fill-1595" fill="#BAF42A"></path>
                <path d="M12.6800687,54.8526854 C12.6909008,54.8210151 12.7093153,54.7926211 12.7201474,54.7587666 C12.7147314,54.7653191 12.7082321,54.7696874 12.7038993,54.7740557 C12.7515605,54.5927707 12.7894737,54.4093015 12.7894737,54.2192798 C12.790556,53.0398349 11.8275836,52.1093839 10.6750498,52.0842661 C9.21271836,52.0525958 8.94299945,52.8323399 8.62778578,53.6732405 C8.21941618,54.7609508 9.10873034,56.0091966 10.1334456,56.277848 C10.4919876,56.3739509 10.8667777,56.3630301 11.2209869,56.2669272 C11.2155708,56.2712955 11.211238,56.277848 11.2069052,56.2800321 C11.2264029,56.2756638 11.2437343,56.1959421 11.263232,56.1904817 C11.419214,56.1435223 11.5719464,55.9360274 11.71493,55.9360274 L11.7170964,55.9360274 C11.8795776,55.9360274 12.0301436,55.7951492 12.1666279,55.6586394 C12.2857808,55.5396028 12.3843528,55.4369474 12.4699263,55.2938851 C12.4980897,55.2491099 12.5208371,55.2174396 12.5446677,55.1726644 C12.5999113,55.0634566 12.645406,54.9673536 12.6800687,54.8526854" id="Fill-1597" fill="#BAF42A"></path>
                <path d="M70.0493464,94.2603819 C69.9876919,94.2535138 69.9271585,94.2466458 69.866625,94.2374885 C69.2512012,94.1459149 68.5091056,94.5179325 68.0730403,94.9311583 C67.5764416,95.4050516 67.2793791,96.0781174 67.2636852,96.7729319 C67.2502333,97.4459977 67.4946093,98.1099062 67.9430054,98.6021141 C68.2636087,98.9512384 68.6481084,99.1927637 69.0953836,99.3289794 C69.5247229,99.4537484 69.9585462,99.4651951 70.3946115,99.3621748 C70.4293622,99.3575962 70.4629919,99.3553068 70.4966216,99.3461495 C71.6052811,99.1435429 72.43033,98.0526727 72.4718067,96.932041 C72.5256142,95.4611404 71.4158337,94.4080443 70.0493464,94.2603819" id="Fill-1599" fill="#BAF42A"></path>
                <path d="M75.8931573,57.9076243 C75.4945713,57.2776381 74.6089491,56.6857978 73.8408874,56.8441613 L73.1411228,56.9886536 C72.177127,57.2209971 71.5098314,58.2370666 71.5266257,59.2311734 C71.5456593,60.2877007 72.2532614,61.1269117 73.2183768,61.4112725 C73.3292195,61.4459506 73.4243875,61.4817847 73.5408284,61.5060594 C74.7545002,61.7684574 75.9838468,60.9015038 76.2200873,59.6530907 C76.3354085,59.052003 76.2167284,58.417393 75.8931573,57.9076243" id="Fill-1601" fill="#BAF42A"></path>
            </g>
        </g>
    </g>
</svg>