<?xml version="1.0" encoding="UTF-8"?>
<svg width="82px" height="121px" viewBox="0 0 82 121" version="1.1" xmlns="http://www.w3.org/2000/svg" xmlns:xlink="http://www.w3.org/1999/xlink">
    <title>Group 5</title>
    <g id="Student-Environmrnt---New-Treatment" stroke="none" stroke-width="1" fill="none" fill-rule="evenodd">
        <g id="Avatars" transform="translate(-556.000000, -669.000000)">
            <g id="Group-5" transform="translate(556.000000, 669.000000)">
                <path d="M6.1684586,63 C5.05296735,63.1457264 4.15212899,64.0350015 4.01606487,65.1273756 C3.86240624,66.355149 4.82775776,67.8296245 6.19543683,67.8583108 C5.96788131,67.9994474 6.1438263,68.0361659 6.72679071,67.9638764 C7.34142521,67.950107 7.93142742,67.6930778 8.3572143,67.2581936 C8.64459112,66.9598561 8.83930357,66.6098833 8.93783277,66.2117175 C8.95894617,66.0189456 8.9788866,65.8238788 9,65.6311069 C8.92493014,64.2530173 7.98069201,63.3740693 6.1684586,63" id="Fill-1603" fill="#9AE012"></path>
                <path d="M76.6796191,75.0009228 C72.6879796,74.9146029 73.3660358,80.9127573 77.3221052,80.9990772 C81.31041,81.0853971 80.6345769,75.0872427 76.6796191,75.0009228" id="Fill-1605" fill="#9AE012"></path>
                <path d="M77.9269426,60.0008068 C75.2565051,59.9271167 75.4146231,64.9255566 78.0726592,64.9992467 C80.7441301,65.0704389 80.5849787,60.071999 77.9269426,60.0008068" id="Fill-1607" fill="#9AE012"></path>
                <path d="M40.8292764,111.074591 C40.7247732,108.29289 40.4878993,105.556941 40.0501471,102.808411 C39.7076089,100.644358 36.0697368,100.264619 35.5704438,102.536189 C34.9829037,105.224098 34.6403655,107.891419 34.4162642,110.629656 C34.1561674,113.767075 33.3596209,116.925083 35.0467668,119.742241 C35.9106598,121.187993 38.5812967,121.520837 39.5984611,120.032764 C41.5073859,117.24077 40.9546802,114.383579 40.8292764,111.074591" id="Fill-1611" fill="#67AF00"></path>
                <path d="M67.8300357,110.074433 C67.7255456,107.292426 67.4863794,104.558463 67.0498429,101.807342 C66.7061865,99.6430501 63.0687696,99.2655573 62.573022,101.537377 C61.9832334,104.223296 61.641899,106.890911 61.4166648,109.629449 C61.1566005,112.767215 60.3589926,115.927859 62.0470885,118.74304 C62.9120344,120.188952 65.5811763,120.519544 66.5982134,119.033595 C68.5092215,116.241292 67.9531019,113.383787 67.8300357,110.074433" id="Fill-1613" fill="#67AF00"></path>
                <path d="M76.1074676,45.4247126 C74.0183374,32.5625636 74.4449669,20.3918186 61.0896577,13.5252273 C50.2512368,7.95558354 34.4659453,9.2468823 24.2448956,15.5610282 C13.1999319,22.3835594 8.2688623,33.8843655 7.38625842,46.4335751 C6.70681143,56.1267889 12.2744393,79.0018696 5.03753886,85.5611702 C-6.000653,95.5684531 2.85134483,106.600415 14.7755265,109.336658 C26.7527547,112.084198 38.5087677,113.220722 50.6090187,110.225767 C80.2687982,102.884683 80.1153019,69.959389 76.1074676,45.4247126 C75.8918956,44.0983918 77.6153433,54.6660283 76.1074676,45.4247126" id="Fill-1615" fill="#7FC605"></path>
                <path d="M27.7561154,19.712511 C25.7559112,17.1399542 22.3242437,15.436896 19.1831655,15.0775032 C15.8385617,14.6949238 11.4955518,15.709339 9.29521412,18.5531794 C5.62949219,21.2949987 3.87804147,26.9061637 5.77082941,31.878537 C8.63262527,39.3968025 18.253732,43.4950397 25.2357902,39.3504292 C32.3919759,35.1003195 32.4677327,25.774656 27.7561154,19.712511" id="Fill-1617" fill="#9AE012"></path>
                <path d="M60.4161383,44.5753006 C68.5347252,47.2205221 68.2927388,45.7926908 73.4478522,43.4552112 C75.6853664,42.442605 77.444642,41.077001 78.6534272,39.3821585 C84.7351995,33.8201788 81.8336563,22.4688073 75.4995759,17.2224892 C67.1894642,10.3435558 56.3539778,15.5898739 51.4970466,22.5638452 C45.695107,30.8898437 50.5520381,41.3598518 60.4161383,44.5753006" id="Fill-1619" fill="#9AE012"></path>
                <path d="M57.9798663,55.027723 C58.2085082,52.0669019 56.4678424,44.8735363 53.8758015,46.0218921 C52.0891775,46.8151339 40.9879809,47.6533415 38.546453,47.348958 C34.1252768,46.8082161 29.670781,45.5226571 27.3039351,44.024952 C26.3571967,43.4242559 21.1271567,53.8090361 23.708857,60.1053928 C25.9251899,65.5174233 33.1601552,65.8725374 38.4993459,66.6208134 C44.1200304,67.4082904 50.9563085,67.2618635 55.0959909,63.2991134 C57.4777732,61.0173903 57.7431817,58.1280532 57.9798663,55.027723" id="Fill-1621" fill="#006655"></path>
                <path d="M49.7555111,46.1680642 C49.8433023,46.1617618 49.9267581,46.159661 50.0145492,46.1512578 C50.1576163,46.1418042 50.2865935,46.1102921 50.4101514,46.0714273 C50.5759792,46.0472681 50.7396393,46.0220584 50.9022155,46 C51.186182,47.4506043 50.9119701,49.5923727 49.2732016,49.930602 C47.0014696,50.4001314 46.1398156,48.4001671 46,46.5535615 C47.2496693,46.5209991 48.5134286,46.3529349 49.7555111,46.1680642" id="Fill-1623" fill="#FFFFFF"></path>
                <path d="M30.4027829,45 C31.8352883,45.7881951 33.3911363,46.2299178 35,46.4978089 C34.9902624,47.8956051 34.335681,49.4529453 33.0827798,49.8744273 C31.9943353,50.245903 30.8463835,49.7791771 30.3075711,48.6599877 C29.8401675,47.6860547 29.9743296,46.4466119 30.2556373,45.4417227 C30.2935057,45.3048005 30.3432755,45.1559721 30.4027829,45" id="Fill-1625" fill="#FFFFFF"></path>
                <path d="M42.9571293,47.2410792 C43.1918459,48.8410666 42.4692869,50.5729448 40.6283722,50.963212 C39.629676,51.1751022 38.6378832,50.4378107 38.2766037,49.6205199 C37.8992162,48.7740401 37.9578954,47.8745877 38.1569443,47 C39.7746481,47.0908101 41.3958035,47.1308098 42.9571293,47.2410792" id="Fill-1627" fill="#FFFFFF"></path>
                <path d="M40.0615565,66.8325623 C39.8052602,65.1090029 40.2901777,62.5003725 42.6437719,63.0832533 C44.1983956,63.4690535 45.1056605,65.4183597 44.9901466,66.8863116 C43.4078478,67.07742 41.7220678,67.0057543 40.0615565,66.8325623" id="Fill-1629" fill="#FFFFFF"></path>
                <path d="M32,65.3817405 C32.134567,63.8057026 32.7523034,62.0253248 34.361809,62.0001752 C36.1885289,61.9760736 36.2001843,64.4438722 35.7625768,66 C34.5069718,65.7967079 33.255605,65.5839847 32,65.3817405" id="Fill-1631" fill="#FFFFFF"></path>
                <path d="M23.2262828,111.341609 C23.8517954,108.537417 24.2235624,105.650089 23.8517954,102.795341 C23.5732653,100.650629 20.2285428,100.330439 19.4861891,102.362804 C18.4912699,105.090599 17.6013896,107.853222 16.5687036,110.565288 C15.5171342,113.327911 14.2023774,115.92763 15.6198127,118.752044 C16.5521806,120.617011 18.7001675,120.05078 20.0668537,119.243002 C22.4355403,117.8454 22.7176111,113.616644 23.2262828,111.341609" id="Fill-1633" fill="#65A500"></path>
                <path d="M54.474857,113.281465 C53.8204496,110.209244 53.0801648,107.230121 52.0963797,104.244502 C51.4387111,102.252646 48.1166697,102.793911 48.0547076,104.860462 C47.9710043,107.604676 47.9666561,110.321827 48.161239,113.061712 C48.3623443,115.85897 48.257987,118.645403 50.5951561,120.537667 C51.6343811,121.380958 53.3508416,121.00532 54.0715594,119.939027 C55.5064726,117.824845 54.9759895,115.639217 54.474857,113.281465" id="Fill-1635" fill="#65A500"></path>
                <path d="M75.7141942,24.0574505 C73.9442943,20.1334506 70.0888789,17.5870005 66.0182206,17.0624941 C64.8137518,16.9091768 63.4174602,17.0440499 62.1326935,17.4002532 C61.964291,17.4267667 61.7936579,17.4521275 61.6241401,17.4901686 L61.6308315,17.4924741 C60.6839853,17.6676938 59.7572135,17.9823977 59.006651,18.4066139 C57.1363786,19.4556268 55.9419471,20.6060828 54.7508613,22.4228348 C53.0980625,24.9450768 52.5906242,28.6258441 53.3344952,31.5503999 C53.9121942,33.8132706 54.9437994,36.3908452 56.6757808,37.9920308 C58.5862021,39.7546031 59.0679897,40.2595126 61.4735815,41.3223586 C63.4096535,42.1754021 65.0936793,42.0336124 67.1055882,41.8964338 C68.2375658,41.8191988 69.3650824,41.3373445 70.3743826,40.8151436 C72.4855487,39.7165619 73.4301645,38.5003986 74.8632593,36.6594386 C76.1848292,34.9545044 76.7268402,32.6063294 76.9487747,30.4898594 C77.1807465,28.3111402 76.5997018,26.0136867 75.7141942,24.0574505" id="Fill-1637" fill="#FFFFFF"></path>
                <path d="M61.3519045,25.205227 C55.535574,26.9477317 57.9285022,36.5092264 63.6456843,34.7952874 C69.4653568,33.0504974 67.0724287,23.4890026 61.3519045,25.205227" id="Fill-1639" fill="#14193F"></path>
                <path d="M23.9248083,20.7415173 C23.204813,20.3639047 22.4859499,19.9840035 21.7670867,19.6063909 C20.2150215,19.0250963 18.6018246,18.8614642 16.9354205,19.1166388 C16.1248598,19.3649477 15.312035,19.6086795 14.5026064,19.8546998 C12.947145,20.5744523 11.6758326,21.6306234 10.69999,23.0209243 C9.27245227,25.0634653 8.72905963,27.6003354 9.1264155,29.9964591 C9.54641272,32.5012894 10.9762146,34.7875621 13.0750687,36.2625399 C13.796196,36.642441 14.5139271,37.0189094 15.2316582,37.396522 C16.7871196,37.9778165 18.3957882,38.1357273 20.0599282,37.8851298 C20.8750171,37.6402538 21.6844457,37.3942334 22.4916102,37.1482131 C24.0549961,36.4284606 25.3240443,35.3711452 26.3021511,33.9808443 C27.7251605,31.9383033 28.2730814,29.4014332 27.8723294,27.0064538 C27.4523321,24.5027678 26.0259265,22.2119179 23.9248083,20.7415173" id="Fill-1641" fill="#FFFFFF"></path>
                <path d="M19.239732,24.2040341 C13.5080849,25.8360142 16.0295203,34.426824 21.7611673,32.7948439 C27.4891441,31.1676252 24.9738258,22.5768155 19.239732,24.2040341" id="Fill-1643" fill="#14193F"></path>
                <path d="M39.9861151,17.0201005 C39.4602386,12.1097009 39.3538947,5.79223467 36.109821,1.80753674 C34.6467157,0.0110782059 31.5370327,1.45039505 32.0582348,3.78794117 C32.5619076,6.05262561 33.515497,8.18353121 34.0927925,10.4410489 C34.700472,12.8120397 35.2251799,15.1698916 35.96725,17.5098266 C36.6356975,19.6335655 40.2513905,19.5021756 39.9861151,17.0201005" id="Fill-1645" fill="#9AE012"></path>
                <path d="M49.993892,2.41162997 C50.1546338,0.419631043 47.1005393,-0.892512689 45.8134315,0.73055458 C42.4683592,4.95122558 41.1483991,12.0560604 42.5598764,17.2060215 C43.3682787,20.151674 47.488901,19.2131026 47.1768037,16.252368 C46.6464731,11.2625093 49.6031838,7.18801878 49.993892,2.41162997" id="Fill-1647" fill="#9AE012"></path>
                <path d="M12.6745482,37.6069513 C15.1903509,38.7675186 16.7018797,39.0601545 19.484958,38.990321 C22.5216638,38.9149451 22.9515794,37.8319706 25.8631775,37.1524789 C28.7042603,36.4896142 31.3292479,33.7339596 29.2558716,32.780676 C26.9140824,31.7054608 23.0084466,31.5281057 20.3891457,31.1988903 C17.283062,30.810926 11.1823542,29.3366619 8.28099222,30.3486944 C4.68130166,31.6012647 9.48316376,36.1349041 12.6745482,37.6069513" id="Fill-1649" fill="#9AE012"></path>
                <path d="M77.6332675,31.3281907 C73.1206804,30.4447647 68.1943832,31.6230328 63.6008528,31.6373348 C60.6531688,31.6439358 57.6886217,31.3259904 54.7454346,31.4998152 C50.7690966,31.7341486 49.6235245,35.6540077 52.9511921,37.3812541 C56.3350704,39.1349043 60.166385,42.3385612 64.0516618,42.8644362 C68.4304678,43.4574208 70.9250943,42.0228162 74.8845691,40.1613507 C78.7406164,38.3482921 82.6326385,32.3062302 77.6332675,31.3281907" id="Fill-1651" fill="#9AE012"></path>
                <path d="M20.0703187,9.49910367 C17.8693092,8.7983958 15.2294727,8.73048104 13.2358461,9.98097508 C11.1792027,11.2735116 11.8368703,14.0450807 14.1215205,14.6412214 C15.0644829,14.8870082 16.0452555,14.8913202 17.0145705,14.964625 C17.9483668,15.0346958 18.7022784,15.0131356 19.6085765,14.785675 C20.8872473,14.4622714 21.881769,13.5987837 21.9917622,12.2954671 C22.0902978,11.0956396 21.2962845,9.88826604 20.0703187,9.49910367" id="Fill-1653" fill="#65A500"></path>
                <path d="M70.3051146,8.12014819 C67.3367964,7.77215056 64.3471914,8.2028407 61.5444368,9.11820081 C59.246651,9.86932442 59.5789607,13.6605462 62.1014399,13.7799909 C64.9124728,13.9097722 67.783818,14.1256915 70.5948509,13.9051782 C74.1225374,13.6318335 73.5501605,8.50145253 70.3051146,8.12014819" id="Fill-1655" fill="#65A500"></path>
                <path d="M9.63903709,92.5286205 C8.78628029,91.0795707 6.84513653,90.6311349 5.24310074,91.3104816 C4.80924202,91.4934256 4.55615776,91.6685609 4.10359824,91.9485544 C3.66849279,92.2910165 3.35681268,92.7071024 3.16980461,93.1956966 C2.89552611,93.9163172 2.95661541,94.7094462 3.33063155,95.3910239 C3.95399178,96.5199219 5.45504322,97.2305029 6.85261685,96.9315457 C7.3488116,96.8278031 7.81633177,96.6571298 8.27637162,96.4607997 C9.87840741,95.783684 10.4381849,93.8884295 9.63903709,92.5286205" id="Fill-1657" fill="#BAF42A"></path>
                <path d="M13.5307568,79.0365411 C12.769046,78.926465 11.9690023,79.0678472 11.3284727,79.4233225 C10.5061713,79.8787753 9.84956664,80.8098783 10.030102,81.6460532 C10.0387578,81.679379 10.0474136,81.7127048 10.0523598,81.7450208 C10.0906926,82.1671477 10.2489702,82.5529193 10.5284291,82.9083946 C10.9624558,83.4486767 11.6573933,83.8314186 12.4351792,83.955633 C14.0130088,84.210121 15.6007308,83.34264 15.9073936,82.0500025 C15.9209955,81.9894101 15.9358341,81.9257881 15.9506726,81.8672154 C16.2548623,80.5614495 15.1160057,79.268812 13.5307568,79.0365411" id="Fill-1659" fill="#BAF42A"></path>
                <path d="M12.8716703,50.5992994 C12.8843762,50.5695738 12.9072469,50.5429233 12.916141,50.5111477 C12.9123292,50.5172978 12.9047057,50.5213979 12.9008939,50.5254979 C12.9580705,50.3553446 12.9987294,50.1831412 13,50.0047877 C13,48.8977658 11.8717154,48.0244486 10.5198067,48.0008731 C8.80450912,47.9711476 8.4894026,48.705062 8.11966067,49.4922776 C7.63937734,50.5131977 8.68126181,51.6827458 9.88451132,51.9390008 C10.3038063,52.0271526 10.7447013,52.0169024 11.1589139,51.9267006 C11.1538315,51.9308007 11.1500198,51.9349008 11.1436668,51.9410509 C11.167808,51.9349008 11.1868669,51.9246505 11.2097375,51.9185004 C11.3927026,51.8744246 11.5718559,51.8200985 11.7395739,51.744247 L11.7433857,51.7421969 C11.9339743,51.6540452 12.1093158,51.5484681 12.2694103,51.4203406 C12.4091753,51.3075884 12.524799,51.1794608 12.6251757,51.0462082 C12.6582111,51.0041824 12.6848935,50.9580565 12.7141171,50.9139806 C12.7776466,50.8135286 12.8310114,50.7089766 12.8716703,50.5992994" id="Fill-1661" fill="#BAF42A"></path>
                <path d="M69.2058453,90.0361413 C69.1374036,90.02955 69.068962,90.0229586 68.9979376,90.0130716 C68.2915682,89.9262853 67.4328192,90.2855145 66.9343574,90.6798975 C66.3597058,91.1347013 66.0174976,91.7806546 66.00071,92.4474805 C65.9839224,93.0934338 66.2654371,93.7327957 66.7819779,94.2029793 C67.1525958,94.5380401 67.5929468,94.7698363 68.1081962,94.9005649 C68.602784,95.0225051 69.1025371,95.0312936 69.6061644,94.9324232 C69.6474876,94.930226 69.6849368,94.9236347 69.7236774,94.9192404 C71.0008244,94.7247953 71.9512593,93.6767691 71.997748,92.6001803 C72.0610243,91.1907279 70.7825859,90.1756585 69.2058453,90.0361413" id="Fill-1663" fill="#BAF42A"></path>
                <path d="M75.6089802,54.1529866 C75.1882892,53.4876185 74.2535514,52.8600969 73.4428939,53.0273546 L72.7043211,53.179962 C71.6868632,53.4253546 70.9837418,54.4984897 71.0002859,55.5484285 C71.0191933,56.6642936 71.7695833,57.5530789 72.7846778,57.8509685 C72.9040312,57.8875943 73.0021136,57.9254409 73.1250121,57.951079 C74.4083563,58.2257723 75.7046993,57.3125697 75.9552232,55.9916003 C76.0757583,55.3591953 75.9504963,54.6889437 75.6089802,54.1529866" id="Fill-1665" fill="#BAF42A"></path>
            </g>
        </g>
    </g>
</svg>