<?xml version="1.0" encoding="UTF-8"?>
<svg width="127px" height="147px" viewBox="0 0 127 147" version="1.1" xmlns="http://www.w3.org/2000/svg" xmlns:xlink="http://www.w3.org/1999/xlink">
    <title>Group 20 Copy 3</title>
    <defs>
        <circle id="path-1" cx="37.5" cy="37.5" r="37.5"></circle>
    </defs>
    <g id="Student-Environmrnt---New-Treatment" stroke="none" stroke-width="1" fill="none" fill-rule="evenodd">
        <g id="Group-20-Copy-3">
            <g id="Group-20-Copy">
                <path d="M30.93385,113.610622 C27.9943997,118.794382 23.687737,126.717999 23.133829,133.690008 C28.0612312,136.945509 30.3822075,138.425283 35.222389,140.58689 C36.5239028,141.168555 37.8401421,141.724039 39.1631779,142.262449 C39.386327,141.964218 39.6253343,141.678507 39.8303595,141.370032 C43.545734,139.19818 44.3714987,131.725324 45.159883,127.988327 C45.3377226,127.148272 45.5019693,126.345779 45.6526232,125.558084 C46.1872747,123.673081 46.6188471,121.67994 46.4387421,119.903074 C46.4126892,119.650374 46.3753089,119.396536 46.3333976,119.139283 C46.366247,118.846743 46.3775743,118.557618 46.3945654,118.266217 C49.5854831,118.959434 52.6268796,120.061296 55.6830016,121.142668 C55.6365594,121.272433 55.5844536,121.40106 55.5391441,121.531963 C55.282013,121.982724 55.0441385,122.451699 54.8323168,122.944577 C53.9125351,123.182479 53.2804683,123.843824 53.4934227,125.213183 C53.5636523,125.671913 53.633882,126.137473 53.7052444,126.607585 C53.5036173,127.575129 53.3518307,128.567716 53.2589463,129.588759 C52.036724,134.890901 51.6391337,141.350681 53.7822704,146.386463 C54.4154699,146.470696 55.0452712,146.569727 55.6796034,146.63461 C56.389829,146.697216 62.3774721,146.870235 60.3170251,147 C64.7822709,146.72112 69.2520477,146.326134 73.6867096,145.702353 C74.595164,143.605628 74.9984181,141.086598 75.273673,139.352987 C75.8978106,135.428173 75.2838676,129.420293 73.1520582,124.573466 C75.0992316,124.631519 77.0498032,124.615583 78.9969766,124.518828 C79.0286932,124.51769 79.0615426,124.511998 79.0955247,124.509722 C79.1612234,127.140304 79.5984595,129.851704 79.7502461,131.439614 C79.986988,133.930187 81.0155124,136.305792 82.4495563,138.452602 C83.335356,140.226053 84.455632,141.859495 85.7662077,143.290322 C91.332473,141.802581 96.6438727,139.806025 101.505576,137.152678 C101.23825,134.815774 100.421548,132.487977 99.403218,130.300189 C99.0520698,129.544366 98.6556121,128.779437 98.2421634,128.014508 C97.9487848,127.105017 97.621424,126.211461 97.2680104,125.340671 C96.8024558,124.191001 96.1386724,123.31452 95.4137213,122.329902 C94.5800275,121.197306 93.9219078,118.910487 94.3772678,121.471633 C94.1813044,120.37091 92.5841465,118.648681 91.032298,117.743743 C89.78289,115.975983 87.6646735,114.393764 86.0743119,114.589549 C85.9678347,114.603209 85.8692867,114.614591 85.7628095,114.628251 C84.9211866,114.451816 84.0931565,114.48938 83.459957,114.907131 C76.8606363,115.698241 70.8639312,116.26397 64.1660625,115.763123 C62.5258606,114.929897 61.1688427,114.839972 60.0361066,115.26 C53.7437574,114.104639 48.0200417,110.791085 41.6812504,109.4388 C40.2902504,108.597605 38.7633221,108.232215 37.4108352,108.974378 C36.2044712,109.635723 35.1136463,110.608959 34.1292986,111.773427 C33.4972318,111.578779 32.8957489,111.554875 32.3826195,111.799607 C31.6621993,111.93734 31.1343443,112.448431 30.9587702,113.478581 C30.9531065,113.519559 30.9417791,113.568505 30.93385,113.610622" id="Fill-1" fill="#6E2FC9"></path>
                <path d="M119.967447,54.2011617 C114.498508,27.1532388 80.2529054,7.2490648 55.9038587,10.7777952 C43.33529,12.5989289 28.2128082,17.9192734 19.3939155,27.3360334 C10.2320785,37.1195179 4.72793577,51.2151382 1.51993013,63.9006288 C0.865837651,66.4938142 3.40725946,67.7904069 6.39723428,67.9516295 C7.59186151,69.2584405 9.37585332,70.1440292 11.944529,70.3881338 C14.2497507,70.6083956 16.4788888,70.5073477 18.7761615,70.2587016 C22.1999268,69.8897063 25.723623,71.072762 29.0849315,71.4826306 C36.6853498,72.4079573 44.2971239,72.747433 51.9418298,73.0619305 C64.3570955,73.5751178 76.6077025,73.0721488 88.9423423,72.8064722 C90.917111,73.5751178 93.3222636,73.7147683 96.2293413,73.0062974 C96.6392846,72.9075202 97.0265165,72.7951185 97.4080704,72.6781754 C97.6783378,72.67704 97.946334,72.6724986 98.2143302,72.6713632 C104.256737,72.6395728 116.485768,74.0224537 120.303578,68.7543362 C123.370772,64.5205409 120.954264,59.0843887 119.967447,54.2011617" id="Fill-3" fill="#35338E"></path>
                <path d="M90.2085803,81.0745061 C89.3578789,79.3322923 87.4337551,77.7338479 85.8414165,76.7489707 C83.4351138,75.2716549 79.8853581,77.8096948 80.9151546,80.5741432 C81.3755207,81.8114659 81.9805405,82.7680421 82.753175,83.8015971 C82.7876163,83.8491429 82.8209096,83.8978208 82.856499,83.9442345 C82.8404264,83.93065 82.8909404,84.008761 83.0068929,84.1808315 C83.314569,84.6596856 83.6096167,85.1294833 83.999952,85.5573955 C85.1709581,86.8298115 87.1697048,87.1026339 88.6736439,86.2898271 C90.5931755,85.2483478 91.1281645,82.9593573 90.2085803,81.0745061" id="Fill-5" fill="#E59900"></path>
                <path d="M52.7812537,82.1844801 C52.4038206,79.8220036 49.641645,78.7284951 47.8394869,80.5385573 C46.1903422,82.193536 45.1226485,84.5209206 44.4777253,86.7260496 C44.0175516,88.3063165 45.2405255,90.0869468 46.6618502,90.7129409 C48.460608,91.5019423 50.9586938,90.7355808 51.6965586,88.8406188 C52.4922284,86.7996293 53.1258173,84.3398012 52.7812537,82.1844801" id="Fill-7" fill="#E59900"></path>
                <path d="M55.2379182,80.7751603 C48.6589847,83.8170951 41.325576,84.4574432 34.5671138,83.4828536 C33.4660798,83.2138849 32.4070874,82.8042422 31.4128617,82.2460477 C30.418636,81.6923548 29.4880408,80.9889848 28.6517549,80.137063 C26.8837376,78.3308087 27.0234973,75.116689 28.6972052,73.3712059 C29.4755419,72.5597982 30.6833841,72.0691272 31.8775912,72.0443686 C33.7171928,72.5327888 35.2386422,73.5760272 36.849856,74.5528675 C41.1460472,76.5121751 45.4865526,77.8390124 50.2202032,78.4208401 C52.6097536,79.1613481 54.60275,80.0245238 55.2379182,80.7751603" id="Fill-33" fill="#FFB000"></path>
                <path d="M29.4515964,77.7593888 C30.5950114,75.9668763 32.0332215,74.3121596 32.5762082,72.1926742 C32.432062,72.1412927 32.2879159,72.0887435 32.1405183,72.0443686 C31.0014385,72.0700593 29.8504368,72.5792029 29.1069461,73.4211583 C27.7207587,74.9952996 27.4389692,77.7185172 28.4967635,79.6348123 C28.7492903,78.992544 29.0657615,78.3666243 29.4515964,77.7593888" id="Fill-35" fill="#FFD41D"></path>
                <path d="M36.7683532,74.5023439 C36.2031347,74.1566684 35.6469597,73.804215 35.0873933,73.4675768 C33.7071297,76.2928524 31.5423428,78.8255465 30.6877323,81.8180116 C30.909298,81.9592189 31.1319941,82.0992965 31.3592119,82.2246886 C32.3099095,82.7635357 33.3205202,83.1611754 34.3706962,83.4300341 C34.9980888,81.9117733 35.1043499,80.2240636 35.4819159,78.6233377 C35.7260903,77.6021265 36.2268739,76.7706979 36.7977446,75.9460473 C37.0893974,75.5246847 37.2329629,75.1259153 37.2973978,74.7350535 C37.1210496,74.6548478 36.943571,74.5836793 36.7683532,74.5023439" id="Fill-37" fill="#FFD41D"></path>
                <path d="M40.2042848,75.8395904 C39.9005275,76.93513 39.493163,78.0090993 39.0846212,79.0762569 C39.0457685,79.3101234 39.0092705,79.5417193 38.9869008,79.7812621 C38.8550371,81.1413205 38.7820412,82.5025142 38.7137546,83.8648431 C39.9440896,83.9170657 41.1803113,83.9193362 42.4224198,83.8614373 C42.5448646,83.2359012 42.6084417,82.6092299 42.5625249,81.9893703 C42.4400801,80.2149368 43.1099945,78.5563014 43.4349442,76.8931248 C42.3458918,76.5809244 41.2733223,76.2301247 40.2042848,75.8395904" id="Fill-39" fill="#FFD41D"></path>
                <path d="M64.3472109,86.8890566 C63.3922581,84.6534812 61.9459326,82.565344 60.9554053,80.2794796 C60.3195113,78.8119546 58.6408399,76.4175116 57.3145783,76.8369677 C55.5736515,77.3844322 54.3618954,81.2383997 54.891066,83.1459536 C55.7604176,86.2775879 57.1778389,92.026537 60.7475169,92.4231345 C63.4689656,92.7271545 65.5089405,89.6000919 64.3472109,86.8890566" id="Fill-41" fill="#E59900"></path>
                <path d="M80.2275127,79.4474304 C80.0928936,78.8356394 80.0883686,78.3534845 79.8462806,77.7291848 C78.2828899,73.6786283 73.7816369,75.2615521 73.7352556,79.2472906 C73.203567,80.8552319 72.728441,82.4927393 72.369834,84.1836932 C71.7849766,86.9356153 73.1492669,89.943398 75.3518151,90.7883064 C76.4185861,91.1988204 77.570201,91.0612243 78.5249779,90.4050841 C79.9209433,89.4487343 80.4096443,87.8601247 80.6019572,85.954248 C80.6596511,85.3640631 80.6981136,84.7704666 80.7218699,84.1711844 C80.7829576,82.5382256 80.5714134,81.0326285 80.2275127,79.4474304" id="Fill-43" fill="#E59900"></path>
                <path d="M48.5265472,78.7211412 C48.1187,77.2493812 47.7840561,75.7522858 47.4482502,74.2540387 C47.1449791,72.8951367 45.9098177,72.2214438 45.0278915,72.6440854 C44.0100163,73.1312172 43.7323083,74.5315772 44.0065304,75.8973889 C44.2714568,77.2217425 44.5061724,78.5553091 44.7583173,79.8808143 C45.0325394,81.329542 46.1619626,82.2577412 47.1775139,81.946806 C48.1279956,81.6554482 48.9158032,80.1261076 48.5265472,78.7211412" id="Fill-53" fill="#FFD41D"></path>
                <path d="M65.6968311,77.8570687 C65.8734911,78.3670256 66.0868164,78.8658481 66.2590321,79.3802587 C66.6479064,80.5504873 67.6978669,81.3187629 68.8456015,80.9758225 C70.1555522,80.5838906 70.7499742,78.8992513 70.0477784,77.6232457 C69.4855774,76.6066723 68.9111546,75.6123677 68.2522905,74.6659411 C67.7767528,73.9822872 66.8712313,73.7618254 66.1668134,74.0947449 C65.2490702,74.5289877 64.9524147,75.6246155 65.2835133,76.6088991 C65.4101752,77.0297806 65.5501699,77.4428679 65.6968311,77.8570687" id="Fill-57" fill="#FFD41D"></path>
                <path d="M60.4570859,90.0800216 C60.0451567,89.9910729 59.8097686,90.6347807 60.0651425,90.967168 C60.2072636,91.1509174 60.3482744,91.3299852 60.4748511,91.5266087 C60.5925451,91.7080172 60.6547231,91.9268779 60.7724171,92.1071161 C60.9334137,92.3470435 61.155478,92.5050445 61.4297273,92.4207773 C61.7494998,92.3248063 61.8971726,91.9666707 61.8327739,91.6097055 C61.6928735,90.8513006 61.1143961,90.2251485 60.4570859,90.0800216" id="Fill-67" fill="#C17B00"></path>
                <path d="M62.6656652,88.7533061 C62.2228209,88.4386739 61.6231619,88.886855 61.9330275,89.374648 C62.1337502,89.694939 62.3244367,90.0276794 62.5201413,90.3491022 C62.7359181,90.7101369 62.7735536,91.2092476 63.1950712,91.4061756 C63.4986642,91.5476469 63.8976005,91.5431198 64.0795054,91.2205653 C64.6114204,90.281196 63.36694,89.2467579 62.6656652,88.7533061" id="Fill-69" fill="#C17B00"></path>
                <path d="M65.1051685,88.2734282 C65.0930474,88.2399283 65.0688053,88.2131284 65.0526439,88.1807453 C65.0304219,88.1293788 65.0041596,88.0802457 64.9677965,88.0322292 C64.8950701,87.933963 64.8172933,87.8468634 64.7364862,87.7631138 C64.4405302,87.4627318 64.1082111,87.2874159 63.7284178,87.2293495 C63.3264025,87.1645831 63.0718602,87.8859466 63.4476132,88.1483621 C63.7516498,88.3616445 63.9829601,88.61736 64.2243713,88.9233253 C64.6243663,89.4258231 65.1980966,88.8853588 65.1011281,88.3381946 C65.167794,88.4878272 65.1698142,88.4677273 65.1051685,88.2734282" id="Fill-71" fill="#C17B00"></path>
                <path d="M73.5477538,85.8175795 C73.1503435,85.9400563 72.9173789,86.2957717 72.7002263,86.6589422 C72.4430165,87.0924037 72.2458926,87.4736794 72.2342971,88.0147076 C72.225864,88.4758595 72.7729619,88.8763056 73.1134487,88.4982249 C73.4307444,88.1425095 73.6247059,87.7569737 73.8429126,87.3245772 C74.0147372,86.981642 74.1802369,86.6088864 74.1032848,86.2031153 C74.059011,85.9411213 73.7838808,85.7440934 73.5477538,85.8175795" id="Fill-73" fill="#C17B00"></path>
                <path d="M74.6272117,87.8746486 C74.0365725,88.534724 73.4313752,89.6046658 73.7287746,90.6340976 C73.8587568,91.0832825 74.3682871,91.147622 74.5908166,90.7913719 C74.8008679,90.4541853 74.8518209,90.0693399 75.0005206,89.6940262 C75.1346623,89.3532652 75.3124779,89.044674 75.4632573,88.7170192 C75.7689755,88.0533693 75.0805897,87.3694644 74.6272117,87.8746486" id="Fill-75" fill="#C17B00"></path>
                <path d="M77.2650774,89.4079776 C76.8776616,88.8572935 76.0455272,89.1730332 76.0405444,89.7715567 C76.0355615,89.9884285 75.9857331,90.2956634 76.0280873,90.5614376 C76.1127956,91.1004277 76.8166218,91.1440147 77.1442436,90.8006344 C77.4481968,90.4817054 77.5366423,89.7938818 77.2650774,89.4079776" id="Fill-77" fill="#C17B00"></path>
                <path d="M44.7066238,86.2828838 C44.1442311,86.2482965 43.7640047,86.3508657 43.3312069,86.6466464 C43.0341168,86.8482067 42.9742098,87.1547215 42.9632064,87.5053648 C42.9497579,87.8691275 43.2945291,88.1923395 43.6295195,88.1732569 C44.0989951,88.1529816 44.1381181,88.0205958 44.420537,87.8190356 C44.5953678,87.6926131 44.7970956,87.6186679 44.9927105,87.5339888 C45.6003391,87.2739879 45.2910231,86.3174711 44.7066238,86.2828838" id="Fill-79" fill="#C17B00"></path>
                <path d="M45.9560041,88.2228397 C45.6214893,88.3994383 45.3482842,88.5102453 45.0471133,88.739939 C44.8556546,88.8853732 44.6803301,89.0781313 44.5383496,89.2858944 C44.0059224,90.063852 44.9298718,90.988398 45.5375917,90.3108593 C45.8893163,89.9138008 46.2819141,89.5744544 46.6185801,89.1589281 C46.9982706,88.6822271 46.4045337,87.9827578 45.9560041,88.2228397" id="Fill-81" fill="#C17B00"></path>
                <path d="M47.5713705,88.7934684 C47.1774482,89.1213149 46.9343633,89.5050444 46.7797862,90.006749 C46.5092763,90.8685881 47.6835635,91.4187245 48.1098971,90.663684 C48.3118446,90.307275 48.4676683,89.9297548 48.5923272,89.5311231 C48.8017543,88.8580442 48.0475677,88.401046 47.5713705,88.7934684" id="Fill-83" fill="#C17B00"></path>
                <path d="M89.994482,84.5463876 C89.881121,84.4112872 89.7687906,84.2574228 89.645124,84.1360825 C89.418402,83.9159188 89.2102299,83.6882495 88.9639274,83.5056137 C88.5104833,83.1678626 88.0869254,84.0435137 88.3868168,84.5263727 C88.5949888,84.8678767 88.8083136,85.2781818 89.0886245,85.524615 C89.2947354,85.7047489 89.5472213,85.8748755 89.7966155,85.7697973 C89.9810848,85.6922396 90.1222708,85.488338 90.163493,85.238152 C90.2026541,84.9892169 90.1377291,84.7227688 89.994482,84.5463876" id="Fill-85" fill="#C17B00"></path>
                <path d="M90.719584,82.355552 C90.4384088,82.2125448 90.158372,82.0749546 89.8487378,82.0153683 C89.4981226,81.9481982 89.1884884,82.2883819 89.2351612,82.6415663 C89.2590668,82.8409096 89.3877016,83.015335 89.5641476,83.096589 C89.5869148,83.1063395 89.7349017,83.1247571 89.8703667,83.1225903 C89.7952348,83.1507584 89.720103,83.1789265 89.6415561,83.2070946 C89.7371784,83.2731812 89.8350775,83.3403512 89.9329765,83.4021043 C90.0866553,83.5061095 90.2426107,83.6133649 90.4053964,83.7065362 C90.6774647,83.8603773 90.96547,83.9968841 91.2659973,83.8235421 C91.5004997,83.6870353 91.6109207,83.4909421 91.5881535,83.2049278 C91.5483108,82.7369044 91.0519854,82.5299774 90.719584,82.355552" id="Fill-87" fill="#C17B00"></path>
                <path d="M90.9504824,80.1093418 C90.6818008,79.8453955 90.406374,79.6694313 90.0387637,79.6404616 C89.6902645,79.6147107 89.3901056,79.6769419 89.0730838,79.8282283 C88.532348,80.083591 88.7279572,81.0267163 89.3586282,80.9108374 C89.7498466,80.8389496 90.123078,80.9623391 90.5086754,81.0460294 C91.0302999,81.1565435 91.3248379,80.4762916 90.9504824,80.1093418" id="Fill-89" fill="#C17B00"></path>
                <path d="M115.369425,73.2870404 C100.415758,75.8531213 85.4779365,74.6531145 70.4382509,73.6828721 C56.0753964,72.7547152 41.5280545,72.5249508 27.1369044,72.0984082 C17.9329065,71.8265583 8.89075959,71.5808697 8.5093347,60.2018481 C8.21958759,51.4855904 12.2104012,41.3259123 17.9883659,35.4714717 C32.902419,20.3604859 53.9883118,6.87832456 76.135856,14.3411155 C88.3505074,18.4563994 99.4820025,26.4037428 107.419489,36.3074953 C113.544924,43.9522778 119.706577,54.7489264 119.848055,65.0212118 C119.85145,65.2407391 119.840132,65.4511669 119.82655,65.6604571 C120.763701,68.9488169 119.707709,72.5420125 115.369425,73.2870404 M111.937733,33.0760079 C82.6981752,-1.96873957 31.2318459,-1.20664996 8.94395535,41.2189922 C5.86765602,47.8309727 3.3063369,54.6761298 2.44954566,61.0879195 C0.420184104,76.2648772 3.88130381,92.2835457 13.0705879,104.625985 C25.1562113,120.793659 48.9686695,130.877128 66.3795277,130.870311 C87.5321982,130.863479 105.415027,119.908725 116.024751,101.670897 C116.874752,102.205497 123.302384,84.0996133 123.850187,81.7132491 C125.653183,73.8512142 126.291532,65.7901261 124.588136,57.8609819 C122.520293,48.7329683 117.85378,40.2032519 111.937733,33.0760079 Z" id="Fill-91" fill="#AC3AE8"></path>
                <path d="M124.582997,57.9393684 C122.504477,48.8104895 117.813871,40.2821648 111.86728,33.1539958 C99.691955,18.6383277 83.681551,10.2863021 67.5130112,8.47440273 C67.6973134,9.86545916 67.8645506,11.2519659 68.0192735,12.6270986 C70.6188452,12.955811 73.2434457,13.5347544 75.8805605,14.4196619 C88.1582752,18.5359605 99.3472415,26.483067 107.325708,36.3865243 C113.482768,44.0299415 119.676234,54.8262683 119.818442,65.0993849 C119.821855,65.3177682 119.810479,65.5293271 119.795689,65.7374737 C120.738816,69.0268729 119.677372,72.618824 115.316689,73.3649671 C100.963868,75.8138179 86.6281115,74.8310928 72.2024793,73.8915895 C71.7280717,88.8064897 70.1239596,103.641771 69.3150775,118.538473 C69.0943699,122.644534 68.8372569,126.773345 68.3935663,130.870307 C88.6349582,130.094591 105.702256,119.316463 115.975399,101.74684 C116.829788,102.282562 123.290606,84.1772177 123.841237,81.7909246 C125.653542,73.9291241 126.295187,65.8682763 124.582997,57.9393684" id="Fill-93" fill="#8A3CE5"></path>
                <path d="M70.8101326,108.978664 C71.0554528,101.296876 72.132525,93.6604682 72.2342007,85.9843526 C72.2458395,85.0948943 69.8825889,85.1141811 69.8931026,86.0104464 C70.103377,100.780672 68.3359039,115.979744 67.0427163,130.689841 C66.9913159,131.265039 68.0403515,131.350128 68.4013226,131.34471 C68.7038841,131.341052 68.9655589,131.294536 69.2038698,131.196968 C69.7622652,131.073306 70.2482327,130.781737 70.2715965,130.335873 C70.3066423,129.726639 70.3229969,129.103792 70.3148196,128.492289 C70.3089786,128.008987 70.0648267,127.502994 70.1851504,127.025364 C70.2482327,126.772367 70.0823496,126.62715 69.8370294,126.548868 C71.7960859,121.345991 70.6512586,113.953504 70.8101326,108.978664" id="Fill-107" fill="#8A30C4"></path>
                <path d="M79.1207144,89.6409085 C78.6001908,88.6829829 76.5088012,89.193646 76.1393223,90.0397559 C75.8767367,90.6403326 75.1865782,91.8852899 75.7617103,92.4512845 C76.4634877,93.1452329 78.3178532,93.0841378 78.8476719,92.1423506 C79.2380646,91.4472494 79.5238879,90.3809664 79.1207144,89.6409085" id="Fill-109" fill="#8A30C4"></path>
                <path d="M78.3434941,99.7843271 C78.3209206,99.4273068 78.092929,99.1339588 78.0726129,98.7985417 C78.013922,97.8741546 76.0917948,97.9980884 75.7678661,98.6768819 C75.3829892,99.4830201 74.7170732,100.552944 75.2904382,101.434125 C75.8739612,102.327813 77.8920255,101.917353 78.250943,100.996377 C78.415729,100.575684 78.3739682,100.226623 78.3434941,99.7843271" id="Fill-111" fill="#8A30C4"></path>
                <path d="M77.4825134,107.481041 C77.0339604,106.936947 75.7175548,107.116407 75.3177576,107.638782 C74.8811226,108.206879 74.7001846,108.842416 74.6070069,109.552252 C74.5289977,110.140924 74.8345338,110.713594 75.2440822,111.086229 C75.6384622,111.445148 76.6634166,111.605175 77.0317935,111.096516 C77.7219584,110.140924 78.3373645,108.523505 77.4825134,107.481041" id="Fill-113" fill="#8A30C4"></path>
                <path d="M76.2741874,117.595 C75.8939354,116.885305 74.3620002,117.052354 73.883407,117.496047 C73.2551169,118.082317 72.9579084,119.237834 73.3654775,120.00605 C73.6113301,120.467831 74.4734534,120.466767 74.9017833,120.40399 C75.4306397,120.327381 76.0294275,120.096491 76.2512412,119.584701 C76.513484,118.973959 76.5954349,118.196166 76.2741874,117.595" id="Fill-115" fill="#8A30C4"></path>
                <path d="M75.5201733,125.639631 C75.7673904,124.300917 73.5112656,124.609944 73.0232805,125.254555 C72.7588657,125.605831 72.5729154,126.002979 72.4804777,126.449619 C72.4063126,126.799689 72.1515715,127.403257 72.2612069,127.749705 C72.6051611,128.832506 74.2615157,128.58625 74.8881574,127.980268 C75.2374859,127.641062 75.4567567,127.289786 75.4933018,126.764682 C75.5180236,126.409784 75.4567567,125.983665 75.5201733,125.639631" id="Fill-117" fill="#8A30C4"></path>
                <g id="Group-5" transform="translate(26.000000, 0.000000)">
                    <mask id="mask-2" fill="white">
                        <use xlink:href="#path-1"></use>
                    </mask>
                    <g id="Mask"></g>
                    <g mask="url(#mask-2)">
                        <g transform="translate(11.000000, 18.000000)">
                            <path d="M4.30107516,40 C3.63178041,40.0874358 3.0912774,40.6210009 3.00963892,41.2764254 C2.91744374,42.0130894 3.49665466,42.8977747 4.3172621,42.9149865 C4.18072879,42.9996684 4.28629578,43.0216995 4.63607442,42.9783258 C5.00485513,42.9700642 5.35885645,42.8158467 5.61432858,42.5549161 C5.78675467,42.3759137 5.90358214,42.16593 5.96269966,41.9270305 C5.9753677,41.8113674 5.98733196,41.6943273 6,41.5786642 C5.95495808,40.7518104 5.38841521,40.2244416 4.30107516,40" id="Fill-1603" fill="#9AE012"></path>
                            <path d="M47.7864127,47.0006152 C45.1253197,46.9430686 45.5773572,50.9418382 48.2147368,50.9993848 C50.8736067,51.0569314 50.4230512,47.0581618 47.7864127,47.0006152" id="Fill-1605" fill="#9AE012"></path>
                            <path d="M48.4452069,38.0004841 C46.4423788,37.95627 46.5609673,40.9553339 48.5544944,40.999548 C50.5580976,41.0422633 50.438734,38.0431994 48.4452069,38.0004841" id="Fill-1607" fill="#9AE012"></path>
                            <path d="M25.8780546,70.0447544 C25.8034094,68.3757341 25.6342138,66.7341648 25.3215336,65.0850465 C25.0768635,63.7866147 22.4783835,63.5587714 22.1217456,64.9217131 C21.7020741,66.5344589 21.4574039,68.1348517 21.2973316,69.7777935 C21.1115481,71.6602452 20.5425864,73.5550499 21.7476906,75.2453447 C22.364757,76.112796 24.2723548,76.312502 24.9989008,75.4196585 C26.3624185,73.7444618 25.9676287,72.0301473 25.8780546,70.0447544" id="Fill-1611" fill="#67AF00"></path>
                            <path d="M42.878597,69.04466 C42.8039612,67.3754557 42.6331281,65.735078 42.3213164,64.0844051 C42.0758475,62.78583 39.4776926,62.5593344 39.1235872,63.9224264 C38.7023096,65.5339773 38.4584993,67.1345466 38.2976177,68.7776697 C38.1118575,70.660329 37.5421376,72.5567154 38.7479203,74.2458239 C39.3657389,75.1133709 41.2722688,75.3117262 41.9987239,74.4201569 C43.3637296,72.7447754 42.9665013,71.0302719 42.878597,69.04466" id="Fill-1613" fill="#67AF00"></path>
                            <path d="M46.8353647,28.2272707 C45.5497461,20.1569027 45.8122873,12.5203568 37.5936355,8.21190736 C30.923838,4.71722889 21.2098125,5.52745556 14.9199358,9.48927259 C8.12303499,13.7700765 5.08853065,20.9862685 4.54538979,28.8602824 C4.12726857,34.9422989 7.5535011,49.2952907 3.10002391,53.4109303 C-3.69270954,59.6900098 1.75467374,66.612025 9.09263171,68.3288833 C16.4632337,70.0528302 23.6977032,70.7659431 31.1440115,68.8867559 C49.3961835,64.2805854 49.3017242,43.6215774 46.8353647,28.2272707 C46.702705,27.3950694 47.7632882,34.0257433 46.8353647,28.2272707" id="Fill-1615" fill="#7FC605"></path>
                            <path d="M17.0037633,12.9000068 C15.7728684,11.3168949 13.661073,10.2688591 11.7281018,10.0476943 C9.66988411,9.81226081 6.99726267,10.4365163 5.64320869,12.1865719 C3.38737981,13.8738453 2.30956398,17.32687 3.47435656,20.386792 C5.23546171,25.0134169 11.1561427,27.5354091 15.452794,24.9848795 C19.8566006,22.3694274 19.9032201,16.6305576 17.0037633,12.9000068" id="Fill-1617" fill="#9AE012"></path>
                            <path d="M37.2648153,28.1095629 C42.4311887,29.7628263 42.2771974,28.8704318 45.5577241,27.409507 C46.9815968,26.7766281 48.1011358,25.9231256 48.8703628,24.8638491 C52.7405815,21.3876118 50.8941449,14.2930046 46.8633665,11.0140558 C41.5751136,6.71472239 34.679804,9.99367121 31.5890297,14.3524033 C27.8968863,19.5561523 30.9876606,26.0999074 37.2648153,28.1095629" id="Fill-1619" fill="#9AE012"></path>
                            <path d="M35.9873445,34.712527 C36.1310623,32.9102881 35.0369295,28.5317177 33.4076466,29.230717 C32.2846259,29.7135598 25.3067309,30.2237731 23.7720562,30.0384962 C20.9930311,29.7093489 18.1930623,28.9268348 16.7053306,28.0151882 C16.1102379,27.649547 12.8227842,33.9707176 14.4455673,37.8032826 C15.8386908,41.097562 20.3863833,41.3137184 23.742446,41.7691908 C27.2754477,42.2485246 31.5725368,42.1593952 34.1746229,39.7472864 C35.6717432,38.3584115 35.8385713,36.5996846 35.9873445,34.712527" id="Fill-1621" fill="#006655"></path>
                            <path d="M30.2533067,28.1260482 C30.3059814,28.1213214 30.3560548,28.1197458 30.4087295,28.1134433 C30.4945698,28.1063531 30.5719561,28.0827191 30.6460908,28.0535705 C30.7455875,28.035451 30.8437836,28.0165438 30.9413293,28 C31.1117092,29.0879532 30.947182,30.6942795 29.963921,30.9479515 C28.6008818,31.3000985 28.0838893,29.8001254 28,28.4151711 C28.7498016,28.3907493 29.5080572,28.2647011 30.2533067,28.1260482" id="Fill-1623" fill="#FFFFFF"></path>
                            <path d="M19.2416697,28 C20.101173,28.4729171 21.0346818,28.7379507 22,28.8986853 C21.9941575,29.737363 21.6014086,30.6717672 20.8496679,30.9246564 C20.1966012,31.1475418 19.5078301,30.8675063 19.1845426,30.1959926 C18.9041005,29.6116328 18.9845978,28.8679671 19.1533824,28.2650336 C19.1761034,28.1828803 19.2059653,28.0935833 19.2416697,28" id="Fill-1625" fill="#FFFFFF"></path>
                            <path d="M26.9742776,29.1808094 C27.1151075,30.3807999 26.6815721,31.6797086 25.5770233,31.972409 C24.9778056,32.1313267 24.3827299,31.578358 24.1659622,30.9653899 C23.9395297,30.33053 23.9747372,29.6559408 24.0941666,29 C25.0647888,29.0681076 26.0374821,29.0981073 26.9742776,29.1808094" id="Fill-1627" fill="#FFFFFF"></path>
                            <path d="M24.0369339,41.8744217 C23.8831561,40.5817522 24.1741066,38.6252794 25.5862632,39.06244 C26.5190373,39.3517901 27.0633963,40.8137698 26.994088,41.9147337 C26.0447087,42.058065 25.0332407,42.0043158 24.0369339,41.8744217" id="Fill-1629" fill="#FFFFFF"></path>
                            <path d="M20,41.5363054 C20.1009252,40.354277 20.5642276,39.0189936 21.7713567,39.0001314 C23.1413967,38.9820552 23.1501382,40.8329042 22.8219326,42 C21.8802288,41.8475309 20.9417038,41.6879885 20,41.5363054" id="Fill-1631" fill="#FFFFFF"></path>
                            <path d="M14.4841885,70.5315423 C14.901197,68.7604741 15.1490416,66.9368983 14.901197,65.1338998 C14.7155102,63.7793448 12.4856952,63.5771195 11.9907927,64.8607182 C11.3275133,66.5835361 10.7342597,68.3283505 10.0458024,70.0412345 C9.34475613,71.7860489 8.46825159,73.4279767 9.41320846,75.211817 C10.0347871,76.3896909 11.4667783,76.0320714 12.3779025,75.5218959 C13.9570269,74.6392 14.1450741,71.9684065 14.4841885,70.5315423" id="Fill-1633" fill="#65A500"></path>
                            <path d="M33.6248978,71.2831178 C33.157464,69.4056493 32.6286892,67.5850737 31.9259855,65.7605289 C31.4562222,64.5432837 29.0833355,64.8740568 29.0390768,66.1369488 C28.9792888,67.8139688 28.9761829,69.4744501 29.1151707,71.1488239 C29.2588173,72.8582596 29.1842764,74.5610799 30.8536829,75.7174629 C31.5959865,76.2328075 32.8220297,76.0032509 33.3368281,75.3516278 C34.3617661,74.0596278 33.9828496,72.7239657 33.6248978,71.2831178" id="Fill-1635" fill="#65A500"></path>
                            <path d="M47.1963714,15.5167683 C46.0901839,13.0054084 43.6805493,11.3756804 41.1363879,11.0399962 C40.3835949,10.9418732 39.5109126,11.0281919 38.7079335,11.256162 C38.6026818,11.2731307 38.4960362,11.2893616 38.3900875,11.3137079 L38.3942697,11.3151834 C37.8024908,11.4273241 37.2232584,11.6287345 36.7541569,11.9002329 C35.5852366,12.5716012 34.8387169,13.307893 34.0942883,14.4706143 C33.0612891,16.0848492 32.7441402,18.4405402 33.2090595,20.3122559 C33.5701213,21.7604932 34.2148746,23.4101409 35.297363,24.4348997 C36.4913763,25.562946 36.7924935,25.886088 38.2959884,26.5663095 C39.5060334,27.1122573 40.5585495,27.021512 41.8159926,26.9337176 C42.5234786,26.8842872 43.2281765,26.5759005 43.8589892,26.2416919 C45.178468,25.5385996 45.7688528,24.7602551 46.6645371,23.5820407 C47.4905183,22.4908828 47.8292751,20.9880508 47.9679842,19.63351 C48.1129665,18.2391298 47.7498136,16.7687595 47.1963714,15.5167683" id="Fill-1637" fill="#FFFFFF"></path>
                            <path d="M38.234603,15.1436589 C34.3570494,16.3634122 35.9523348,23.0564585 39.7637895,21.8567012 C43.6435712,20.6353482 42.0482858,13.9423019 38.234603,15.1436589" id="Fill-1639" fill="#14193F"></path>
                            <path d="M15.4261947,13.0999057 C14.9714609,12.8614135 14.517442,12.6214759 14.0634232,12.3829837 C13.0831715,12.0158503 12.0643103,11.9125037 11.0118445,12.0736666 C10.4999115,12.2304933 9.98654842,12.3844291 9.47533035,12.5398104 C8.49293366,12.9943909 7.68999955,13.6614463 7.0736779,14.5395312 C6.17207512,15.829557 5.82887977,17.4317908 6.07984137,18.9451321 C6.34510277,20.5271302 7.24813553,21.9710919 8.57372757,22.9026568 C9.0291764,23.1425943 9.48248025,23.3803638 9.93578411,23.618856 C10.9181808,23.9859894 11.934182,24.0857225 12.9852178,23.9274504 C13.5000108,23.7727918 14.0112289,23.6174106 14.521017,23.4620293 C15.5084186,23.0074488 16.3099227,22.3396707 16.9276744,21.4615859 C17.8264172,20.17156 18.1724725,18.5693262 17.9193659,17.0567077 C17.6541045,15.4754323 16.7532167,14.0285797 15.4261947,13.0999057" id="Fill-1641" fill="#FFFFFF"></path>
                            <path d="M12.1598213,15.1360228 C8.33872328,16.2240095 10.0196802,21.951216 13.8407782,20.8632293 C17.6594294,19.7784168 15.9825505,14.0512103 12.1598213,15.1360228" id="Fill-1643" fill="#14193F"></path>
                            <path d="M24.9913219,10.7900614 C24.6626491,7.78926166 24.5961842,3.92858786 22.5686381,1.49349468 C21.6541973,0.395658904 19.7106455,1.27524142 20.0363967,2.70374183 C20.3511922,4.08771565 20.9471856,5.38993574 21.3079953,6.7695299 C21.687795,8.21846874 22.0157374,9.65937819 22.4795313,11.0893385 C22.8973109,12.3871789 25.1571191,12.3068851 24.9913219,10.7900614" id="Fill-1645" fill="#9AE012"></path>
                            <path d="M30.9961825,1.52313472 C31.0966461,0.265030133 29.1878371,-0.563692224 28.3833947,0.461402893 C26.2927245,3.12708984 25.4677494,7.61435395 26.3499228,10.866961 C26.8551742,12.7273731 29.4305631,12.1345911 29.2355023,10.2646535 C28.9040457,7.11316377 30.7519899,4.53980134 30.9961825,1.52313472" id="Fill-1647" fill="#9AE012"></path>
                            <path d="M8.45407281,24.0713009 C9.98543097,24.8450124 10.905492,25.040103 12.5995397,24.9935473 C14.4479693,24.9432967 14.7096571,24.2213137 16.4819341,23.7683193 C18.2112889,23.3264095 19.8091074,21.4893064 18.5470523,20.853784 C17.1216154,20.1369738 14.7442718,20.0187371 13.1499148,19.7992602 C11.2592551,19.5406174 7.54578081,18.5577746 5.7797344,19.2324629 C3.5886184,20.0675098 6.51149099,23.089936 8.45407281,24.0713009" id="Fill-1649" fill="#9AE012"></path>
                            <path d="M48.5309936,19.2187938 C45.7300775,18.6298431 42.6723758,19.4153552 39.821219,19.4248899 C37.991622,19.4292905 36.1515583,19.2173269 34.3247525,19.3332101 C31.8566806,19.4894324 31.1456359,22.1026718 33.2110848,23.2541694 C35.311423,24.4232695 37.6894804,26.5590408 40.1010315,26.9096242 C42.818911,27.3049472 44.3672999,26.3485441 46.824905,25.1075671 C49.2183136,23.8988614 51.6340515,19.8708201 48.5309936,19.2187938" id="Fill-1651" fill="#9AE012"></path>
                            <path d="M12.6492231,6.33273578 C11.1085164,5.8655972 9.26063087,5.82032069 7.8650923,6.65398339 C6.42544187,7.51567439 6.88580919,9.36338714 8.48506432,9.76081427 C9.14513803,9.92467211 9.83167884,9.92754681 10.5101993,9.97641669 C11.1638568,10.0231305 11.6915949,10.0087571 12.3260035,9.85711668 C13.2210731,9.64151426 13.9172383,9.0658558 13.9942336,8.19697804 C14.0632085,7.39709306 13.5073991,6.59217736 12.6492231,6.33273578" id="Fill-1653" fill="#65A500"></path>
                            <path d="M43.341609,5.08009879 C41.5149516,4.84810037 39.6751947,5.13522713 37.9504226,5.74546721 C36.5364006,6.24621628 36.7408989,8.77369744 38.2931938,8.85332726 C40.0230602,8.93984813 41.7900419,9.08379434 43.5199082,8.93678544 C45.6907923,8.75455566 45.3385603,5.33430169 43.341609,5.08009879" id="Fill-1655" fill="#65A500"></path>
                            <path d="M6.74216935,58.0190804 C6.13305735,57.0530471 4.74652609,56.7540899 3.60221481,57.2069878 C3.29231573,57.3289504 3.11154126,57.4457073 2.78828445,57.6323696 C2.47749485,57.8606777 2.2548662,58.1380683 2.12128901,58.4637977 C1.92537579,58.9442115 1.96901101,59.4729641 2.23616539,59.9273493 C2.6814227,60.6799479 3.7536023,61.1536686 4.75186918,60.9543638 C5.106294,60.8852021 5.44023698,60.7714199 5.76883687,60.6405331 C6.91314815,60.1891227 7.31298922,58.9256196 6.74216935,58.0190804" id="Fill-1657" fill="#BAF42A"></path>
                            <path d="M9.35383789,49.0219247 C8.84603066,48.955879 8.31266821,49.0407083 7.88564849,49.2539935 C7.33744751,49.5272652 6.89971109,50.085927 7.020068,50.5876319 C7.02583853,50.6076274 7.03160907,50.6276229 7.03490652,50.6470125 C7.06046175,50.9002886 7.16598014,51.1317516 7.35228604,51.3450368 C7.64163723,51.669206 8.10492889,51.8988512 8.62345282,51.9733798 C9.67533921,52.1260726 10.7338205,51.605584 10.9382624,50.8300015 C10.9473304,50.793646 10.9572227,50.7554728 10.9671151,50.7203293 C11.1699082,49.9368697 10.4106705,49.1612872 9.35383789,49.0219247" id="Fill-1659" fill="#BAF42A"></path>
                            <path d="M7.9230022,31.9494746 C7.93062574,31.9271804 7.94434812,31.9071925 7.9496846,31.8833607 C7.94739754,31.8879733 7.94282341,31.8910484 7.94053635,31.8941235 C7.9748423,31.7665084 7.99923765,31.6373559 8,31.5035908 C8,30.6733244 7.32302921,30.0183365 6.51188404,30.0006549 C5.48270547,29.9783607 5.29364156,30.5287965 5.0717964,31.1192082 C4.78362641,31.8848983 5.40875709,32.7620593 6.13070679,32.9542506 C6.38228377,33.0203644 6.64682078,33.0126768 6.89534834,32.9450254 C6.89229893,32.9481005 6.89001186,32.9511756 6.88620009,32.9557882 C6.90068483,32.9511756 6.91212014,32.9434879 6.92584252,32.9388753 C7.03562157,32.9058184 7.14311355,32.8650739 7.24374435,32.8081852 L7.24603141,32.8066477 C7.36038458,32.7405339 7.4655895,32.6613511 7.56164617,32.5652554 C7.64550516,32.4806913 7.71487942,32.3845956 7.77510543,32.2846562 C7.79492664,32.2531368 7.81093609,32.2185424 7.82847024,32.1854855 C7.86658796,32.1101465 7.89860685,32.0317324 7.9230022,31.9494746" id="Fill-1661" fill="#BAF42A"></path>
                            <path d="M43.1372302,57.0216848 C43.0916024,57.01773 43.0459747,57.0137752 42.9986251,57.0078429 C42.5277121,56.9557712 41.9552128,57.1713087 41.6229049,57.4079385 C41.2398039,57.6808208 41.011665,58.0683928 41.0004733,58.4684883 C40.9892816,58.8560603 41.1769581,59.2396774 41.5213186,59.5217876 C41.7683972,59.7228241 42.0619645,59.8619018 42.4054641,59.940339 C42.7351893,60.0135031 43.0683581,60.0187761 43.4041096,59.9594539 C43.4316584,59.9581356 43.4566246,59.9541808 43.4824516,59.9515443 C44.3338829,59.8348772 44.9675062,59.2060615 44.9984987,58.5601082 C45.0406828,57.7144367 44.1883906,57.1053951 43.1372302,57.0216848" id="Fill-1663" fill="#BAF42A"></path>
                            <path d="M46.7653881,33.691792 C46.5129735,33.2925711 45.9521308,32.9160582 45.4657363,33.0164128 L45.0225926,33.1079772 C44.4121179,33.2552128 43.9902451,33.8990938 44.0001715,34.5290571 C44.011516,35.1985762 44.46175,35.7318474 45.0708067,35.9105811 C45.1424187,35.9325566 45.2012682,35.9552646 45.2750073,35.9706474 C46.0450138,36.1354634 46.8228196,35.5875418 46.9731339,34.7949602 C47.045455,34.4155172 46.9702978,34.0133662 46.7653881,33.691792" id="Fill-1665" fill="#BAF42A"></path>
                        </g>
                    </g>
                </g>
                <path d="M125.469245,62.7933375 C125.408004,62.4736486 125.053031,62.2695918 124.775177,62.1970383 C124.548357,62.1358213 124.319269,62.0768715 124.090181,62.0156545 C123.553753,61.875082 122.179226,62.0303919 122.043134,62.7672636 C122.019318,62.8840295 122.01705,63.0053299 122.000038,63.124363 C113.874225,64.1514488 91.1446278,66.4924335 85.604558,66.5071709 C71.4328665,66.5479823 59.0428433,66.9277546 44.9029065,66.1670763 C38.4306079,65.8190461 31.5874592,64.0403512 25.1242334,63.2048521 C18.8923636,62.3976941 12.6355437,61.7515143 6.39573521,60.990836 C5.74816512,60.9126142 5.06203569,60.8763375 4.36002889,60.8706692 C4.2863125,60.5691186 4.17403678,60.2811719 3.95402172,60.0340364 C3.4527503,59.4694793 1.63932723,59.6406603 1.60417019,60.5611831 C1.55086757,61.875082 0.730914547,63.2490644 0.434914909,64.5266865 C-0.0527473304,66.6375406 0.0436510193,68.9241101 0.00849397411,71.0757755 C-0.0448086428,74.2307201 0.0935513414,78.7913891 2.18482848,81.3137576 C3.01725658,82.3159031 5.504334,81.2593425 5.55536842,80.4045713 C13.5689065,81.7422769 21.9124672,82.1254502 29.8602276,82.9428109 C44.4424627,84.4448956 59.0666594,85.4617785 73.7589019,85.3132705 C87.1049699,85.1817673 101.757519,84.4256235 114.781503,81.9089232 C116.15036,81.6436494 118.813222,81.0654885 121.778889,80.2061828 C121.732391,80.3456216 121.694966,80.4850604 121.645066,80.6244992 C121.18689,82.1458558 124.805797,81.5302845 125.267375,80.2639989 C127.28607,74.7238573 126.517152,68.4615814 125.469245,62.7933375" id="Fill-95" fill="#8E2CCE"></path>
            </g>
        </g>
    </g>
</svg>