<?xml version="1.0" encoding="UTF-8"?>
<svg width="113px" height="96px" viewBox="0 0 113 96" version="1.1" xmlns="http://www.w3.org/2000/svg" xmlns:xlink="http://www.w3.org/1999/xlink">
    <title>Math Icon</title>
    <defs>
        <filter id="filter-1">
            <feColorMatrix in="SourceGraphic" type="matrix" values="0 0 0 0 1.000000 0 0 0 0 1.000000 0 0 0 0 1.000000 0 0 0 1.000000 0"></feColorMatrix>
        </filter>
        <polygon id="path-2" points="0 0.23902139 110.51635 0.23902139 110.51635 93.9997487 0 93.9997487"></polygon>
        <polygon id="path-4" points="0 94 111 94 111 1 0 1"></polygon>
    </defs>
    <g id="Student-Environment---v2" stroke="none" stroke-width="1" fill="none" fill-rule="evenodd">
        <g id="Student-Homepage---Balloons" transform="translate(-693.000000, -184.000000)">
            <g id="Group-7" transform="translate(542.000000, 119.000000)">
                <g id="Group" transform="translate(16.220183, 16.220183)">
                    <g filter="url(#filter-1)" id="Math-Icon">
                        <g transform="translate(135.779817, 49.779817)">
                            <g id="Group-3">
                                <mask id="mask-3" fill="white">
                                    <use xlink:href="#path-2"></use>
                                </mask>
                                <g id="Clip-2"></g>
                                <path d="M106.04685,90.9580695 C106.03935,90.9505294 106.03535,90.9414813 106.02785,90.9339412 L100.49885,85.0732674 C101.13485,84.6118128 101.65935,84.0065936 102.02235,83.3023476 L107.51635,89.1253209 L107.51635,89.2504866 C107.51635,90.1201123 106.87735,90.8334064 106.04685,90.9580695 L106.04685,90.9580695 Z M10.42785,90.4760053 L5.99985,86.0248289 L97.26185,86.0248289 L101.94035,90.9837059 L11.64735,90.9837059 C11.18935,90.9837059 10.75085,90.8012353 10.42785,90.4760053 L10.42785,90.4760053 Z M2.99985,5.26575936 C2.99985,4.15535294 3.89535,3.25506417 4.99985,3.25506417 L94.85685,3.25506417 L97.58335,3.25506417 C98.16885,3.25506417 98.69035,3.51243316 99.05685,3.91557754 C99.38085,4.27297861 99.58335,4.74398396 99.58335,5.26575936 L99.58335,80.9980909 C99.58335,82.1084973 98.68785,83.0087861 97.58335,83.0087861 L4.99985,83.0087861 C4.59485,83.0087861 4.21835,82.8851283 3.90335,82.6770214 C3.35985,82.3176096 2.99985,81.7008289 2.99985,80.9980909 L2.99985,79.1055241 L2.99985,5.26575936 Z M107.01135,10.7227861 C107.33485,11.0475134 107.51635,11.488861 107.51635,11.9483048 L107.51635,84.7430107 L102.58335,79.5141979 L102.58335,6.27110695 L107.01135,10.7227861 Z M109.13285,8.58994118 L102.81035,2.23413369 C102.04785,1.46755615 101.07035,0.998561497 100.01485,0.876914439 C99.29385,0.472262032 98.46585,0.23902139 97.58335,0.23902139 L4.99985,0.23902139 C2.24335,0.23902139 -0.00015,2.49401604 -0.00015,5.26575936 L-0.00015,80.9980909 C-0.00015,82.062754 0.33335,83.0500053 0.89735,83.8638342 C1.05085,84.8510856 1.51085,85.776508 2.22385,86.4933209 L8.30685,92.6088503 C9.19885,93.5056203 10.38535,93.9997487 11.64735,93.9997487 L105.79185,93.9997487 C108.39685,93.9997487 110.51635,91.8689144 110.51635,89.2504866 L110.51635,11.9483048 C110.51635,10.6800588 110.02485,9.4872139 109.13285,8.58994118 L109.13285,8.58994118 Z" id="Fill-1" fill="#282460" mask="url(#mask-3)"></path>
                            </g>
                            <path d="M66.9797644,48.9693588 C66.9797644,50.0806275 66.0782241,50.9816153 64.966274,50.9816153 L45.033726,50.9816153 C43.9217759,50.9816153 43.0202356,50.0806275 43.0202356,48.9693588 L43.0202356,37.0306412 C43.0202356,35.9193725 43.9217759,35.0183847 45.033726,35.0183847 L64.966274,35.0183847 C66.0782241,35.0183847 66.9797644,35.9193725 66.9797644,37.0306412 L66.9797644,48.9693588 Z M64.966274,32 L45.033726,32 C42.2586328,32 40,34.2567456 40,37.0306412 L40,48.9693588 C40,51.7432544 42.2586328,54 45.033726,54 L64.966274,54 C67.7423739,54 70,51.7432544 70,48.9693588 L70,37.0306412 C70,34.2567456 67.7423739,32 64.966274,32 L64.966274,32 Z" id="Fill-4" fill="#282460"></path>
                            <path d="M89.9815463,74.022979 C89.9815463,75.1224029 89.0805378,76.0137874 87.9692438,76.0137874 L76.0307562,76.0137874 C74.9194622,76.0137874 74.0184537,75.1224029 74.0184537,74.022979 L74.0184537,36.977021 C74.0184537,35.8775971 74.9194622,34.9862126 76.0307562,34.9862126 L87.9692438,34.9862126 C89.0805378,34.9862126 89.9815463,35.8775971 89.9815463,36.977021 L89.9815463,74.022979 Z M87.9692438,32 L76.0307562,32 C73.2562942,32 71,34.2331893 71,36.977021 L71,74.022979 C71,76.7673084 73.2562942,79 76.0307562,79 L87.9692438,79 C90.7437058,79 93,76.7673084 93,74.022979 L93,36.977021 C93,34.2331893 90.7437058,32 87.9692438,32 L87.9692438,32 Z" id="Fill-6" fill="#282460"></path>
                            <mask id="mask-5" fill="white">
                                <use xlink:href="#path-4"></use>
                            </mask>
                            <g id="Clip-9"></g>
                            <path d="M10.9885031,26.9816153 L90.0109989,26.9816153 L90.0109989,11.0183847 L10.9885031,11.0183847 L10.9885031,26.9816153 Z M10.9885031,30 L90.0114969,30 C91.6616487,30 93,28.6487698 93,26.9816153 L93,11.0183847 C93,9.35173328 91.6616487,8 90.0114969,8 L10.9885031,8 C9.33835128,8 8,9.35173328 8,11.0183847 L8,26.9816153 C8,28.6487698 9.33835128,30 10.9885031,30 L10.9885031,30 Z" id="Fill-8" fill="#282460" mask="url(#mask-5)"></path>
                            <path d="M34.9797644,48.9693588 C34.9797644,50.0806275 34.0782241,50.9816153 32.966274,50.9816153 L13.033726,50.9816153 C11.9217759,50.9816153 11.0202356,50.0806275 11.0202356,48.9693588 L11.0202356,37.0306412 C11.0202356,35.9193725 11.9217759,35.0183847 13.033726,35.0183847 L32.966274,35.0183847 C34.0782241,35.0183847 34.9797644,35.9193725 34.9797644,37.0306412 L34.9797644,48.9693588 Z M32.966274,32 L13.033726,32 C10.2586328,32 8,34.2567456 8,37.0306412 L8,48.9693588 C8,51.7432544 10.2586328,54 13.033726,54 L32.966274,54 C35.7423739,54 38,51.7432544 38,48.9693588 L38,37.0306412 C38,34.2567456 35.7423739,32 32.966274,32 L32.966274,32 Z" id="Fill-10" fill="#282460" mask="url(#mask-5)"></path>
                            <path d="M34.9797644,72.9693588 C34.9797644,74.0806275 34.0782241,74.9816153 32.966274,74.9816153 L13.033726,74.9816153 C11.9217759,74.9816153 11.0202356,74.0806275 11.0202356,72.9693588 L11.0202356,61.0306412 C11.0202356,59.9193725 11.9217759,59.0183847 13.033726,59.0183847 L32.966274,59.0183847 C34.0782241,59.0183847 34.9797644,59.9193725 34.9797644,61.0306412 L34.9797644,72.9693588 Z M32.966274,56 L13.033726,56 C10.2586328,56 8,58.2567456 8,61.0306412 L8,72.9693588 C8,75.7432544 10.2586328,78 13.033726,78 L32.966274,78 C35.7423739,78 38,75.7432544 38,72.9693588 L38,61.0306412 C38,58.2567456 35.7423739,56 32.966274,56 L32.966274,56 Z" id="Fill-11" fill="#282460" mask="url(#mask-5)"></path>
                            <path d="M66.0008997,72.9693588 C66.0008997,74.0806275 65.1056683,74.9816153 64.0014996,74.9816153 L43.9985004,74.9816153 C42.8943317,74.9816153 41.9991003,74.0806275 41.9991003,72.9693588 L41.9991003,61.0306412 C41.9991003,59.9193725 42.8943317,59.0183847 43.9985004,59.0183847 L64.0014996,59.0183847 C65.1056683,59.0183847 66.0008997,59.9193725 66.0008997,61.0306412 L66.0008997,72.9693588 Z M64.0014996,56 L43.9985004,56 C41.2428272,56 39,58.2567456 39,61.0306412 L39,72.9693588 C39,75.7432544 41.2428272,78 43.9985004,78 L64.0014996,78 C66.7581725,78 69,75.7432544 69,72.9693588 L69,61.0306412 C69,58.2567456 66.7581725,56 64.0014996,56 L64.0014996,56 Z" id="Fill-12" fill="#282460" mask="url(#mask-5)"></path>
                            <path d="M27.4645669,41.9643715 L24.0354331,41.9643715 L24.0354331,38.5353726 C24.0354331,37.6873351 23.3480709,37 22.5,37 C21.6519291,37 20.9645669,37.6873351 20.9645669,38.5353726 L20.9645669,41.9643715 L17.5354331,41.9643715 C16.6868504,41.9643715 16,42.6517066 16,43.4997441 C16,44.3477816 16.6868504,45.0351167 17.5354331,45.0351167 L20.9645669,45.0351167 L20.9645669,48.4646274 C20.9645669,49.3126649 21.6519291,50 22.5,50 C23.3480709,50 24.0354331,49.3126649 24.0354331,48.4646274 L24.0354331,45.0351167 L27.4645669,45.0351167 C28.3126378,45.0351167 29,44.3477816 29,43.4997441 C29,42.6517066 28.3126378,41.9643715 27.4645669,41.9643715" id="Fill-13" fill="#282460" mask="url(#mask-5)"></path>
                            <path d="M60.4646274,65 L50.5353726,65 C49.6868234,65 49,65.6715 49,66.5 C49,67.3285 49.6868234,68 50.5353726,68 L60.4646274,68 C61.3126649,68 62,67.3285 62,66.5 C62,65.6715 61.3126649,65 60.4646274,65" id="Fill-14" fill="#282460" mask="url(#mask-5)"></path>
                            <path d="M55.5,64 C56.3285659,64 57,63.3284361 57,62.50029 C57,62.1424705 56.86954,61.8182873 56.6613838,61.5607964 C56.5999227,61.4859849 56.533823,61.4181326 56.4601855,61.3560796 C56.1992656,61.1368645 55.8676073,61 55.5,61 C55.1323927,61 54.8007344,61.1368645 54.5398145,61.3560796 C54.2122149,61.6315484 54,62.0386623 54,62.50029 C54,63.3284361 54.6714341,64 55.5,64" id="Fill-15" fill="#282460" mask="url(#mask-5)"></path>
                            <path d="M56.6613838,70.5612679 C56.6005025,70.4864708 56.533823,70.4186316 56.4601855,70.3565906 C56.1992656,70.1374179 55.8676073,70 55.5,70 C55.1323927,70 54.8007344,70.1374179 54.5398145,70.3565906 C54.2122149,70.6320062 54,71.0390414 54,71.5 C54,72.3285659 54.6714341,73 55.5,73 C55.6037882,73 55.7046772,72.9895632 55.8026672,72.9692694 C55.9974874,72.9292617 56.1789718,72.8515655 56.3384229,72.7437186 C56.6579049,72.5286046 56.8898338,72.1928875 56.9692694,71.8026672 C56.9895632,71.7046772 57,71.6037882 57,71.5 C57,71.1428295 56.86954,70.8187089 56.6613838,70.5612679" id="Fill-16" fill="#282460" mask="url(#mask-5)"></path>
                            <path d="M26.554237,62.445763 C25.9598864,61.8514123 24.9973629,61.8514123 24.4030123,62.445763 L22.0002536,64.8485217 L19.5969877,62.445763 C19.0026371,61.8514123 18.0401136,61.8514123 17.445763,62.445763 C16.8514123,63.0396065 16.8514123,64.0031442 17.445763,64.5969877 L19.8485217,66.9997464 L17.445763,69.4030123 C16.8514123,69.9968558 16.8514123,70.9603935 17.445763,71.554237 C17.7429383,71.8514123 18.1324104,72 18.5213753,72 C18.9108474,72 19.2998124,71.8514123 19.5969877,71.554237 L22.0002536,69.1514783 L24.4030123,71.554237 C24.7001876,71.8514123 25.0891526,72 25.4786247,72 C25.8675896,72 26.2570617,71.8514123 26.554237,71.554237 C27.1485877,70.9603935 27.1485877,69.9968558 26.554237,69.4030123 L24.1514783,66.9997464 L26.554237,64.5969877 C27.1485877,64.0031442 27.1485877,63.0396065 26.554237,62.445763" id="Fill-17" fill="#282460" mask="url(#mask-5)"></path>
                            <path d="M60.4646274,42 L50.5353726,42 C49.6868234,42 49,42.6715 49,43.5 C49,44.3285 49.6868234,45 50.5353726,45 L60.4646274,45 C61.3126649,45 62,44.3285 62,43.5 C62,42.6715 61.3126649,42 60.4646274,42" id="Fill-18" fill="#282460" mask="url(#mask-5)"></path>
                            <path d="M87.4645669,52 L77.5354331,52 C76.6868504,52 76,52.6715 76,53.5 C76,54.3285 76.6868504,55 77.5354331,55 L87.4645669,55 C88.3126378,55 89,54.3285 89,53.5 C89,52.6715 88.3126378,52 87.4645669,52" id="Fill-19" fill="#282460" mask="url(#mask-5)"></path>
                            <path d="M87.4645669,57 L77.5354331,57 C76.6868504,57 76,57.6715 76,58.5 C76,59.3285 76.6868504,60 77.5354331,60 L87.4645669,60 C88.3126378,60 89,59.3285 89,58.5 C89,57.6715 88.3126378,57 87.4645669,57" id="Fill-20" fill="#282460" mask="url(#mask-5)"></path>
                        </g>
                    </g>
                </g>
            </g>
        </g>
    </g>
</svg>