<?xml version="1.0" encoding="UTF-8"?>
<svg width="129px" height="95px" viewBox="0 0 129 95" version="1.1" xmlns="http://www.w3.org/2000/svg" xmlns:xlink="http://www.w3.org/1999/xlink">
    <title>Reading Icon</title>
    <defs>
        <filter id="filter-1">
            <feColorMatrix in="SourceGraphic" type="matrix" values="0 0 0 0 1.000000 0 0 0 0 1.000000 0 0 0 0 1.000000 0 0 0 1.000000 0"></feColorMatrix>
        </filter>
        <polygon id="path-2" points="0.000438113208 0.15405285 128.89091 0.15405285 128.89091 94 0.000438113208 94"></polygon>
        <polygon id="path-4" points="0 94 129 94 129 0 0 0"></polygon>
    </defs>
    <g id="Student-Environment---v2" stroke="none" stroke-width="1" fill="none" fill-rule="evenodd">
        <g id="Student-Homepage---Balloons" transform="translate(-209.000000, -184.000000)">
            <g filter="url(#filter-1)" id="Reading-Icon">
                <g transform="translate(209.000000, 184.000000)">
                    <g id="Group-3">
                        <mask id="mask-3" fill="white">
                            <use xlink:href="#path-2"></use>
                        </mask>
                        <g id="Clip-2"></g>
                        <path d="M125.970155,29.4133793 L125.970155,86.9160528 L72.35094,86.9160528 L67.7346872,90.0458145 C66.7206985,90.7335244 65.5480155,91.0778663 64.3738721,91.0778663 C63.2396457,91.0778663 62.1049325,90.7564155 61.1123626,90.1115658 L56.1908909,86.9160528 L2.92119283,86.9160528 L2.92119283,29.4133793 L2.92119283,9.74935855 L5.52699283,7.0949544 L5.52699283,78.0074829 C5.52699283,78.8145192 6.18075509,79.4686228 6.98737019,79.4686228 L48.4474834,79.4686228 C49.0871287,79.4686228 49.7545211,79.4506021 50.4423589,79.4320943 C55.1374721,79.3059492 59.9864117,79.1744466 63.2221211,84.1457316 C63.50154,84.5762808 63.9698343,84.8100632 64.4468909,84.8100632 C64.7199815,84.8100632 64.9964796,84.7335969 65.2423098,84.5728715 C65.9184645,84.1330684 66.1092872,83.2281358 65.6692268,82.551628 C61.5417136,76.2088197 55.0814909,76.3817212 50.3634985,76.5112756 C49.7029211,76.5288093 49.0613287,76.546343 48.4474834,76.546343 L8.44774755,76.546343 L8.44774755,5.07224974 L46.4900909,5.07224974 C55.5853211,5.07224974 62.9850532,12.4763326 62.9850532,21.5763119 L62.9850532,63.4447886 L62.9850532,67.0874104 C62.9850532,67.8944466 63.6388155,68.5485503 64.4454306,68.5485503 C65.2525325,68.5485503 65.9058079,67.8944466 65.9058079,67.0874104 L65.9058079,63.4447886 L65.9058079,21.5763119 L65.9058079,19.5803948 C65.9058079,10.4799285 72.4531664,3.07633264 80.4998457,3.07633264 L114.358208,3.07633264 L114.358208,78.0074829 C114.358208,78.8145192 115.011483,79.4686228 115.818585,79.4686228 C116.6252,79.4686228 117.278963,78.8145192 117.278963,78.0074829 L117.278963,5.07224974 L120.243529,5.07224974 L120.243529,78.0074829 C120.243529,78.8145192 120.897291,79.4686228 121.703906,79.4686228 C122.511008,79.4686228 123.164283,78.8145192 123.164283,78.0074829 L123.164283,6.89185596 L125.970155,9.74935855 L125.970155,29.4133793 Z M128.053627,7.70132746 L123.986963,3.5594829 C123.691966,3.25946218 123.342936,3.03493368 122.965672,2.8878456 C122.714,2.44901658 122.246193,2.14996995 121.703906,2.14996995 L117.278963,2.14996995 L117.278963,1.61519275 C117.278963,0.808643523 116.6252,0.15405285 115.818585,0.15405285 L80.4998457,0.15405285 C72.8766758,0.15405285 66.3789702,5.58608394 63.9781098,13.1416383 C60.8344042,6.64297513 54.1770306,2.14996995 46.4900909,2.14996995 L6.98737019,2.14996995 C6.39689094,2.14996995 5.89160038,2.50210466 5.66134755,3.00619793 C5.38533623,3.1469544 5.1287966,3.33057098 4.90389849,3.5594829 L0.836747547,7.70132746 C0.300789057,8.24779378 0.000438113208,8.9832342 0.000438113208,9.74935855 L0.000438113208,29.4133793 L0.000438113208,86.9160528 C0.000438113208,88.5296383 1.30747585,89.8383326 2.92119283,89.8383326 L55.3263475,89.8383326 L59.5224985,92.5628715 C60.9702192,93.5028715 62.6481928,94.0001461 64.3738721,94.0001461 C66.1633211,94.0001461 67.8919211,93.4692653 69.3732306,92.4649751 L73.2471249,89.8383326 L125.970155,89.8383326 C127.582898,89.8383326 128.89091,88.5296383 128.89091,86.9160528 L128.89091,29.4133793 L128.89091,9.74935855 C128.89091,8.9832342 128.590559,8.24779378 128.053627,7.70132746 L128.053627,7.70132746 Z" id="Fill-1" fill="#282460" mask="url(#mask-3)"></path>
                    </g>
                    <path d="M108.523507,22 L79.4961565,22 C76.9492069,22 74.5371102,22.8648215 72.5226822,24.501417 C71.9000946,25.0068014 71.8228248,25.9013792 72.3494405,26.4983941 C72.641786,26.8299641 73.0576647,27 73.4774807,27 C73.8146132,27 74.1532222,26.889949 74.4308028,26.6646514 C75.9048345,25.466843 77.6564468,24.8339316 79.4961565,24.8339316 L108.523507,24.8339316 C109.339024,24.8339316 110,24.1996032 110,23.4169658 C110,22.6343284 109.339024,22 108.523507,22" id="Fill-4" fill="#282460"></path>
                    <path d="M108.523507,30 L79.4961565,30 C76.9487147,30 74.5371102,30.8652121 72.5226822,32.501653 C71.9000946,33.007462 71.8228248,33.901483 72.3494405,34.4984415 C72.641786,34.8299802 73.0576647,35 73.4774807,35 C73.8146132,35 74.1532222,34.8899594 74.4308028,34.6646831 C75.9048345,33.4669878 77.6564468,32.8336639 79.4961565,32.8336639 L108.523507,32.8336639 C109.339024,32.8336639 110,32.1993955 110,31.416832 C110,30.6342684 109.339024,30 108.523507,30" id="Fill-6" fill="#282460"></path>
                    <path d="M108.523507,45 L79.4961565,45 C76.9487147,45 74.5371102,45.8652121 72.5226822,47.501653 C71.9000946,48.007462 71.8228248,48.901483 72.3494405,49.4984415 C72.641786,49.8299802 73.0576647,50 73.4774807,50 C73.8146132,50 74.1532222,49.8899594 74.4308028,49.6646831 C75.9048345,48.4669878 77.6564468,47.8336639 79.4961565,47.8336639 L108.523507,47.8336639 C109.339024,47.8336639 110,47.1993955 110,46.416832 C110,45.6342684 109.339024,45 108.523507,45" id="Fill-8" fill="#282460"></path>
                    <path d="M99.5189889,54 L80.519591,54 C77.9643531,54 75.5448747,54.8648215 73.5242818,56.501417 C72.8997888,57.0068014 72.8222826,57.9013792 73.3505099,58.4983941 C73.6437501,58.8299641 74.0613952,59 74.4820024,59 C74.8201666,59 75.1598118,58.889949 75.4382419,58.6646514 C76.9167846,57.466843 78.6737575,56.8339316 80.519591,56.8339316 L99.5189889,56.8339316 C100.337001,56.8339316 101,56.1996032 101,55.4169658 C101,54.6343284 100.337001,54 99.5189889,54" id="Fill-10" fill="#282460"></path>
                    <mask id="mask-5" fill="white">
                        <use xlink:href="#path-4"></use>
                    </mask>
                    <g id="Clip-13"></g>
                    <path d="M15.9376844,32.0077408 L50.0623156,32.0077408 L50.0623156,14.9922592 L15.9376844,14.9922592 L15.9376844,32.0077408 Z M50.0623156,12 L15.9376844,12 C14.3146138,12 13,13.3395347 13,14.9922592 L13,32.0077408 C13,33.6604653 14.3146138,35 15.9376844,35 L50.0623156,35 C51.6853862,35 53,33.6604653 53,32.0077408 L53,14.9922592 C53,13.3395347 51.6853862,12 50.0623156,12 L50.0623156,12 Z" id="Fill-12" fill="#282460" mask="url(#mask-5)"></path>
                    <path d="M49.5444744,39 L16.4555256,39 C15.6515903,39 15,39.6715 15,40.5 C15,41.3285 15.6515903,42 16.4555256,42 L49.5444744,42 C50.3484097,42 51,41.3285 51,40.5 C51,39.6715 50.3484097,39 49.5444744,39" id="Fill-14" fill="#282460" mask="url(#mask-5)"></path>
                    <path d="M34.5504579,48 L16.4495421,48 C15.6489117,48 15,48.6715 15,49.5 C15,50.3285 15.6489117,51 16.4495421,51 L34.5504579,51 C35.3510883,51 36,50.3285 36,49.5 C36,48.6715 35.3510883,48 34.5504579,48" id="Fill-15" fill="#282460" mask="url(#mask-5)"></path>
                </g>
            </g>
        </g>
    </g>
</svg>