<?xml version="1.0" encoding="UTF-8"?>
<svg width="110px" height="120px" viewBox="0 0 110 120" version="1.1" xmlns="http://www.w3.org/2000/svg" xmlns:xlink="http://www.w3.org/1999/xlink">
    <title>Group 3</title>
    <g id="Student-Environmrnt---New-Treatment" stroke="none" stroke-width="1" fill="none" fill-rule="evenodd">
        <g id="Avatars" transform="translate(-329.000000, -819.000000)">
            <g id="Group-3" transform="translate(329.000000, 819.000000)">
                <path d="M5.42200382,95.6586268 C8.32783929,94.6131694 12.2675241,94.9658401 15.1457166,95.6563442 C19.483461,96.6949536 20.5582221,103.725541 16.3000896,105.750258 C14.3894032,106.659897 12.6401522,107.076483 10.6166823,107.392631 C10.5238017,107.406327 10.4320268,107.422305 10.3391463,107.43486 C10.3734236,107.43486 10.2296799,107.471382 9.90791496,107.53758 C9.0255494,107.743019 8.16529826,107.946175 7.25197251,107.99297 C4.51752384,108.133353 1.9876336,106.15543 1.24016603,103.481296 C0.285928587,100.065298 2.27622685,96.7931079 5.42200382,95.6586268" id="Fill-1890" fill="#E59900"></path>
                <path d="M72.0287309,102.495395 C72.2966196,98.665978 76.4895168,96.5302345 79.5812158,99.1704055 C82.406124,101.582304 84.4141912,105.151155 85.7305787,108.583044 C86.6747765,111.047277 84.9993743,114.068274 82.8474815,115.266429 C80.1268743,116.784165 76.0854879,115.910047 74.6637017,112.984813 C73.1288312,109.831307 71.7849962,105.990754 72.0287309,102.495395" id="Fill-1892" fill="#E59900"></path>
                <path d="M13.0230806,72.9648767 C15.3498849,66.7050249 19.7769302,58.3385249 25.3990966,52.4346944 C25.4670655,52.3213118 25.5248391,52.2079292 25.6018706,52.1002158 C27.3226183,49.6908361 29.6981337,48.0671977 32.3727125,46.9775912 C34.6757277,45.7836727 37.0874932,45.1419273 39.5694933,45.2553099 C43.0325121,44.8720768 46.5317811,44.9741211 49.5190171,45.2099569 C50.2780039,45.2723173 51.0335923,45.358488 51.7857822,45.4582647 C60.4994037,45.690699 69.6967377,49.9606866 75.7754289,56.6547937 C76.2149616,56.8702206 76.6386348,57.1378035 77.044183,57.4768174 C78.2982104,58.519937 79.1466897,60.0540032 79.4865345,61.7331991 C80.7756792,63.984977 81.7238463,66.4147655 82.249473,68.9726764 C82.7501777,69.4862994 83.1002179,70.2538994 83.2927966,71.2970191 C83.6451024,72.3956962 83.9815488,73.4989087 84.2998701,74.6100579 C85.3749126,78.2439693 86.0523367,82.1239209 85.9968287,85.9596534 C85.9571801,88.7794779 85.5119834,91.3940801 84.6974886,93.8476789 C84.3270577,98.6301558 82.6029116,103.217615 79.2758307,105.959205 C76.5740643,108.183771 73.5245233,108.467228 70.3209194,107.5579 C70.1985752,107.522751 70.0750983,107.477398 69.9538869,107.428643 C69.0510325,107.625929 68.1334514,107.783531 67.2226673,107.90485 C66.6426654,108.359514 66.0434057,108.782431 65.3977005,109.152059 C61.5665165,111.350547 57.325253,111.41971 53.2052008,110.23713 C52.2853541,109.974082 51.2748821,109.551165 50.2236288,108.998992 C49.4012043,109.079494 48.577647,109.161129 47.751824,109.242765 C46.7889303,109.572708 45.8147085,109.73938 44.9322447,109.703098 C44.5844702,109.688358 44.2412269,109.652076 43.8991164,109.607856 C36.7703047,110.23713 29.6584851,110.474099 22.7347131,108.396931 C7.69431359,103.885438 8.17576044,86.0016049 13.0230806,72.9648767" id="Fill-1894" fill="#FFB000"></path>
                <path d="M9.06569325,65.7440047 C9.45658506,56.2978453 11.7577482,46.7426918 13.3315126,37.6132966 C15.0219781,27.8049588 18.1581767,20.2298656 26.1856216,14.8414675 C31.6286485,11.1890282 38.1015903,10.537334 44.3286668,10.1581252 C52.6563619,9.65516265 60.5637067,10.1910505 68.1651362,14.1432237 C74.5666977,17.4709513 78.2943327,24.5033444 80.6600779,31.4721577 C81.350087,33.5078504 81.9347252,35.5798746 82.4332538,37.6723351 C82.9317825,39.7670664 83.3464678,41.8833694 83.6988369,44.0235149 C86,55.556458 85.1445701,65.8098553 86,76.9976503 C86,76.9976503 83.4325773,93.7748014 74.8748791,93.9258038 C71.9947429,93.939428 69.0466256,92.8880886 66.377231,91.2895078 C61.2593808,96.9424438 53.2387341,97.2035756 46.6558893,93.6885144 C45.6724282,93.1628447 44.7796086,92.4952556 43.9604354,91.7220784 C42.4761795,93.5295646 40.1625532,94.4560149 37.8613901,93.8906077 C36.4757069,93.5488657 35.2361833,92.6928075 34.3478959,91.500684 C33.1820185,92.1058286 32.003678,92.6928075 30.7924799,93.22756 C24.718361,95.9172176 17.7616198,93.7089508 13.7949177,88.3716437 C11.289811,88.6747837 8.53430699,87.1250231 8.2136624,83.565683 C7.67321199,77.6050656 8.23179072,71.6535311 9.06569325,65.7440047" id="Fill-1896" fill="#FFB000"></path>
                <path d="M73.6102557,29.6831323 C76.2612138,31.5577406 81.3577094,24.5402629 81.8408493,23.6476988 C85.0151134,17.7688555 85.1631539,8.91032453 79.0510316,3.73837412 C75.251325,0.521564122 69.348066,0.132325639 65.4703226,2.60533221 C60.0961076,6.02682796 61.9070218,12.5622316 64.6015887,17.5630513 C66.2644624,20.6478781 70.6987923,27.6206158 73.6102557,29.6831323" id="Fill-1898" fill="#FFB000"></path>
                <path d="M31.0210343,17.1585622 C33.9155113,12.2018 36.007918,5.64134591 30.8680971,1.912677 C27.1624868,-0.779112372 21.3236865,-0.653912867 17.4243557,2.44192945 C15.8564668,3.68481909 14.6646899,5.18152227 13.8014447,6.81935944 C12.9370666,8.46174932 12.4034859,10.2475495 12.154255,12.0811532 C11.4416812,17.6604984 13.1500458,24.5328131 18.278538,27.1062321 C22.5505822,29.6807892 25.9695771,26.2480464 27.7765011,22.4579159 C29.0271871,20.6413849 30.1272016,18.6882726 31.0210343,17.1585622" id="Fill-1900" fill="#FFB000"></path>
                <path d="M31.1786884,31.6702292 C34.1800061,8.01567052 70.8608969,12.4134417 67.8211876,36.3280897 C64.8198698,59.98491 28.1401082,55.5871388 31.1786884,31.6702292 C31.7918244,26.8269136 30.5621648,36.5090214 31.1786884,31.6702292" id="Fill-1902" fill="#E29700"></path>
                <path d="M33.0269643,33.7780063 C33.2694919,29.6937738 35.1732767,25.6374086 38.3637103,23.2252146 C39.4909513,22.5508257 40.615915,21.8730928 41.743156,21.198704 C44.3187309,20.111879 47.0468818,19.7640951 49.9321633,20.155352 C54.1519159,20.7439096 58.147359,22.9944733 60.9540752,26.3675321 C63.7630687,29.7417056 65.2182343,34.0366149 64.9734294,38.2211697 C64.7309018,42.3054022 62.827117,46.3617674 59.6366835,48.7739615 C58.5105811,49.449465 57.3844787,50.1260832 56.2572377,50.800472 C53.6816629,51.8895264 50.9535119,52.2361957 48.0682305,51.843824 C43.8484778,51.2563812 39.8530348,49.0047028 37.0463186,45.6327587 C34.2396024,42.2596998 32.7798822,37.9647905 33.0269643,33.7780063" id="Fill-1904" fill="#FFFFFF"></path>
                <path d="M53.3831317,32.266709 C53.9979984,33.3591738 54.1628848,34.7028595 53.8341758,35.9704874 C53.4565328,37.4063642 52.5044468,38.5656676 51.2608842,39.2743869 C51.3385404,39.236358 51.4161966,39.2029388 51.4959803,39.1660623 C51.1757816,39.3504446 50.8023937,39.3999973 50.4651744,39.5313696 C50.4077301,39.553265 50.309862,39.4725978 50.2534815,39.496798 C50.2662469,39.491036 50.2790123,39.4864265 50.2939053,39.4818169 C50.2619918,39.4933408 50.2726296,39.6120369 50.2396523,39.621256 C50.2045475,39.6373894 50.1832718,39.6927041 50.1460394,39.6996184 C49.3258626,39.9877157 48.5099408,40.0799068 47.6801899,39.9266391 C46.418543,39.6927041 45.3185912,38.9367369 44.6579818,37.8385101 C43.3282528,35.6236183 44.0718373,32.4522436 46.3664177,30.9691189 C46.4866252,30.8930612 46.6078964,30.8158512 46.7281039,30.7467078 C49.098213,29.3684505 52.0502114,29.9112257 53.3831317,32.266709" id="Fill-1906" fill="#000000"></path>
                <path d="M78.5659676,52.3020518 C69.2561587,60.7551979 58.9060213,63.5799052 48.6655708,64.5902274 C37.8269314,65.662311 26.3041629,64.8652402 15.804761,59.3649852 C14.5235739,58.6926023 14.8560267,54.601205 16.2095845,54.9974098 C26.6162614,58.0237154 36.9098592,60.086311 47.4601467,59.5875591 C57.5863873,59.1074521 68.4532965,57.1707097 77.759713,49.1405705 C78.7276708,48.3050445 79.5271406,51.4304012 78.5659676,52.3020518" id="Fill-1908" fill="#7F4E00"></path>
                <path d="M69.6081687,59.1240685 C67.1074291,60.3942619 64.4321669,61.2418315 61.7388895,62 C61.0126504,60.139991 60.7975935,58.5133539 61.2018103,56.4594488 C61.1894248,56.5186626 61.1815432,56.5732322 61.1691577,56.6301238 C61.1815432,56.57091 61.1871729,56.527951 61.2018103,56.4571267 C61.2220774,56.3526318 61.2378408,56.2760022 61.2502263,56.2005337 C61.2367148,56.2852907 61.2186996,56.3688866 61.2018103,56.4571267 C61.6307981,54.2755057 62.6869411,52.4839989 64.757567,52.0718246 C67.0815322,51.6085639 69.3446959,53.4372245 69.7522905,56.0879114 C69.8648857,56.8089262 70,57.5229746 70,58.2602441 C70,58.5098707 69.9819848,58.7246658 69.9718512,58.9557156 C69.8513743,59.0102851 69.7275196,59.0625326 69.6081687,59.1240685" id="Fill-1910" fill="#FFFFFF"></path>
                <path d="M33.384816,64 C30.2638854,63.550293 27.1583452,63.0296371 24.0550036,62.4969744 C23.8934055,61.1205654 24.0769897,59.5826111 24.7508644,58.0097282 C24.4859316,58.6209804 24.2089064,59.2671613 24.7519637,58.003179 C25.2312613,56.8898268 25.0015063,57.423581 24.7541624,57.9944469 C27.7904463,50.9443073 36.0649247,57.7859662 33.5211299,63.7074721 C33.478257,63.8100752 33.4309868,63.89958 33.384816,64" id="Fill-1912" fill="#FFFFFF"></path>
                <path d="M74,100 C85.6719909,98.4775653 96.276938,92.9136752 104.683436,85.5827964 C105.958243,84.2360273 107.04787,82.7262222 107.922958,81.069455 C108.798047,79.4115398 109.458598,77.6020699 109.857187,75.6674527 C110.70066,71.5651458 107.692613,67.1700629 103.872709,66.1906989 C102.094302,65.7371833 100.013285,66.1091809 98.3556973,67.129878 C96.2645174,69.4341965 95.0958504,72.2448451 93.7374867,75.0394197 C89.5698058,81.582674 84.7844815,87.2740077 78.8101655,92.2684201 C76.1848991,95.4143258 74.2122796,98.3857141 74,100" id="Fill-1914" fill="#FFB000"></path>
                <path d="M107.078125,72.3529967 C103.959821,70.9867716 100.542411,70.079379 98,67.7201581 C98.1618304,67.5181348 98.3225446,67.3172529 98.4977679,67.1232193 C100.135045,66.1085374 102.191964,65.7387321 103.949777,66.189575 C107.231027,67.0364748 109.90067,70.4446188 110,74 C109.100446,73.3653958 108.131696,72.8118293 107.078125,72.3529967" id="Fill-1916" fill="#FFD41D"></path>
                <path d="M93.5145265,74.8668563 C93.9846973,73.9067563 94.4337991,72.9432954 94.9039698,72 C99.1865159,74.6696829 104.284098,76.2593933 108,79.6102206 C107.827013,79.9978456 107.644045,80.3787487 107.445553,80.7506894 C106.620537,82.3045502 105.592593,83.7217339 104.40275,85 C102.257041,83.4685453 100.669106,81.2492244 98.7850965,79.3917615 C97.5797294,78.2042399 96.191395,77.5018097 94.7132402,76.8665977 C93.9591927,76.5428301 93.4224884,76.1193554 93,75.6387453 C93.1696607,75.3810755 93.3470836,75.1290072 93.5145265,74.8668563" id="Fill-1918" fill="#FFD41D"></path>
                <path d="M90.2761345,80 C91.5989344,81.2617479 93.0308653,82.4058849 94.4650009,83.542029 C94.7130259,83.8309179 94.9566416,84.1232323 95.1892339,84.4361001 C96.5098291,86.2082565 97.7565681,88.0352218 99,89.8690382 C97.4534264,90.9766359 95.8572478,92.027141 94.2081573,93 C93.5169943,92.2326746 92.910711,91.4208169 92.441117,90.524462 C91.0984751,87.9575758 88.8254639,86.2242424 87,84.1951691 C88.1387103,82.840931 89.2278155,81.4433026 90.2761345,80" id="Fill-1920" fill="#FFD41D"></path>
                <path d="M52.3554775,111.420454 C53.6564265,107.647262 55.8134161,104.042198 57.1656111,100.172932 C58.0309692,97.6978818 60.542022,93.5541177 62.862067,94.0390628 C65.9030497,94.6749813 68.5317353,100.765388 67.9074661,103.943837 C66.8860407,109.161571 65.310227,118.718649 59.2934837,119.890981 C54.7046396,120.786528 50.7761698,116.004558 52.3554775,111.420454" id="Fill-1922" fill="#E59900"></path>
                <path d="M26.1910917,109.621409 C26.3125263,110.574266 26.4584707,111.517058 26.6356092,112.454259 C27.2071317,115.47276 28.2109168,117.941019 30.5794487,119.271888 C32.2015476,120.182247 34.0598313,120.241521 35.7142385,119.435171 C39.1188638,117.775499 40.8813367,112.772996 39.560039,108.457178 C38.7478755,105.805505 37.7574593,103.256722 36.681259,100.761622 C36.046234,94.3991726 28.6208979,92.5046412 26.6857428,99.2026039 C26.3882837,100.23263 26.4462158,101.00431 26.3192108,102.003021 C25.9905575,104.584236 25.8635525,107.017826 26.1910917,109.621409" id="Fill-1924" fill="#E59900"></path>
                <path d="M70.3812721,15.9962072 C69.852531,15.3082275 69.7033703,14.8685583 69.2714723,13.9584659 C68.7048845,12.7658917 69.1111803,11.2270496 69.7033703,10.2497539 C70.6428598,8.69952138 72.9414922,8.55258531 74.2538832,10.0276412 C74.7714929,10.6119684 75.0575697,11.3705686 75.0430989,12.1166393 C75.0308544,12.628068 74.8928251,13.092796 74.6290111,13.5062673 C74.8616572,13.3023792 74.9295587,13.4356468 74.8338287,13.902653 C75.1711099,14.5143171 75.6208181,15.2239386 76.0727526,15.5952654 C76.6226434,16.0542982 77.0011107,16.5839515 77,17.3061024 C76.9977713,18.8107734 75.4104348,19.4224375 74.1614927,18.6923133 C73.0461272,18.0385047 71.2918199,17.177391 70.3812721,15.9962072" id="Fill-1926" fill="#E29700"></path>
                <path d="M21.8299062,6.08590057 C25.2739477,5.50568339 27.2132042,7.95696284 26.9813233,10.6602223 C26.7799531,12.9844066 25.6046831,14.849943 23.6300342,16.4966546 C22.0337173,17.8261808 19.5574734,16.2910919 20.3714974,14.5714387 C20.8913988,13.4751045 21.5443265,12.0947402 21.5565308,10.9188334 C21.5553104,10.884573 21.5540899,10.5905963 21.5028321,10.538653 C21.0195435,10.0490602 20.5936149,9.71198167 20.2287076,9.10192475 C19.596527,8.04537689 20.3214599,6.34009096 21.8299062,6.08590057" id="Fill-1928" fill="#E29700"></path>
                <path d="M78.0738573,94.7721873 C78.5207628,92.2584849 78.8455756,89.7199878 79.1715402,87.1732258 C79.4664057,84.8626031 81.3611468,83.5626565 82.8377779,84.1341135 C84.5482281,84.7988455 85.1943982,87.0929385 84.9502127,89.408284 C84.7129381,91.6527877 84.5286472,93.9079176 84.3121053,96.1583248 C84.0782862,98.607089 82.3908724,100.320279 80.7126731,99.9495407 C79.1369856,99.6012353 77.6476845,97.1678202 78.0738573,94.7721873" id="Fill-1930" fill="#FFD41D"></path>
                <path d="M66.1333378,89.0811281 C65.0782544,90.1843273 62.887711,90.4272938 61.8790422,89.0679948 C61.4171602,88.4441619 60.9360331,87.8367457 60.4469815,87.238085 C59.479067,86.0538969 58.7556782,84.9922866 58.1670051,83.5213543 C57.7447453,82.4564606 58.1568165,81.1551671 59.0251094,80.4875564 C59.9907598,79.7466181 61.0854655,79.9173513 62.035267,80.5499397 C63.6586464,81.6290612 64.9027845,83.0923324 66.1469226,84.6070424 C67.2167228,85.9149026 67.3548346,87.8028179 66.1333378,89.0811281" id="Fill-1932" fill="#FFD41D"></path>
                <path d="M50.3212395,96.3121536 C50.0800675,97.185727 49.7692788,98.0400386 49.5405383,98.914745 C49.0221428,100.906628 47.2369725,102.330859 45.0950169,101.933162 C42.6472452,101.476547 41.2996654,98.7753812 42.372508,96.5648214 C43.2290416,94.8006791 44.1191404,93.0750602 45.1633904,91.4128915 C45.9217148,90.2107367 47.5303571,89.7155985 48.863019,90.162016 C50.6034356,90.7466643 51.3157633,92.5187379 50.8707139,94.192237 C50.7066175,94.9049187 50.5213874,95.6108023 50.3212395,96.3121536" id="Fill-1934" fill="#FFD41D"></path>
                <path d="M25.5486784,81.5608337 C25.5428868,81.5559029 25.5591033,81.5102938 25.6204945,81.3820952 C25.7235854,81.1663763 25.8197263,80.9395633 25.9274504,80.7189137 C26.1498486,80.2702185 26.3456054,79.8054984 26.5448372,79.345709 C27.1344242,77.9835985 28.7908277,77.643379 29.8564859,78.3805212 C31.0495598,79.2039509 31.275433,80.8532758 30.6904793,82.212921 C30.2456828,83.2434408 29.806678,84.3565502 29.0282841,85.1146479 C28.5267298,85.6052543 28.080775,85.97136 27.3915721,85.998479 C26.7892436,86.0218999 26.1915483,85.7741313 25.7467518,85.3044805 C24.7783929,84.2912182 24.7946094,82.7022946 25.5486784,81.5608337" id="Fill-1936" fill="#FFD41D"></path>
                <path d="M16.2033969,88.3772448 C16.4518193,90.0118026 16.6090775,91.6558292 16.7560798,93.3034067 C16.8187551,94.0112021 16.8894074,94.7142632 16.9623387,95.4185078 C17.1515044,97.2306063 16.6090775,98.2556078 15.7612505,99.7718051 C14.9293773,101.258412 12.7482741,101.357835 11.646327,100.273653 C8.88405208,97.5643827 9.47320065,93.1306004 9.04017075,89.5265248 C8.40885875,84.2855242 15.4159662,83.1989753 16.2033969,88.3772448" id="Fill-1938" fill="#FFD41D"></path>
                <path d="M6.15004711,75.2346912 C6.16449911,75.1942642 6.17654245,75.1526821 6.19219879,75.1111 C6.20665079,75.0741382 6.21387679,75.0383314 6.22953313,75.0002144 C6.22351146,75.0244707 6.21748979,75.0475718 6.21026379,75.0695179 C6.25964147,74.9355312 6.30901916,74.8061647 6.37525751,74.6779532 C6.5462729,74.2921638 6.70404062,73.9086846 6.90998169,73.540221 C7.27248614,72.8933885 7.60126925,72.1980435 8.04807706,71.6089639 C8.86943266,70.5266745 9.86300798,69.6534506 11.2865304,70.1362649 C12.9677803,70.7068635 13.3929101,72.6115543 12.6450189,74.1200602 C12.8858856,73.6106796 12.8425296,73.7550618 12.5161552,74.5485867 C12.4005391,74.8639176 12.2608364,75.1665428 12.1307684,75.4760984 C11.7574249,76.3516324 11.3503601,77.0931797 10.8240663,77.8994102 C9.12234274,80.5109966 5.18537579,78.0091408 6.15004711,75.2346912" id="Fill-1940" fill="#FFD41D"></path>
                <path d="M81.0280374,72.1834031 C81.2114158,70.1487073 83.3287126,69.2883759 84.7293859,70.6831557 C85.2204057,71.0908059 85.6137042,71.5814081 85.9104877,72.1561474 C85.9044555,72.1490373 86.1035176,72.4772905 86.1855553,72.6135689 C86.4075397,72.9702628 86.6452078,73.3198465 86.880463,73.6694302 C87.1881044,74.1232965 87.5826092,74.5167263 87.7901164,75.0416944 C88.3619675,76.467285 87.7225559,78.1642474 86.3906496,78.7733526 C85.2252315,79.3030608 84.0899743,78.8563046 83.2635651,77.9307965 C83.5048524,78.2590497 83.3721444,78.1275114 82.8642344,77.5373667 C82.6772367,77.3264315 82.5023034,77.1202363 82.3358151,76.8915256 C81.3549818,75.5394069 80.8748199,73.8661451 81.0280374,72.1834031" id="Fill-1942" fill="#FFD41D"></path>
                <path d="M60.086982,116.027877 C60.7652511,115.819332 61.2463091,116.830427 60.8655665,117.410372 C60.6546761,117.732563 60.4415058,118.04421 60.2568343,118.382804 C60.086982,118.697966 60.0140253,119.059992 59.8396133,119.371639 C59.6082038,119.792245 59.2582398,120.075773 58.7885812,119.982045 C58.2448261,119.874257 57.9472996,119.31423 58.0077169,118.726084 C58.1296913,117.46778 59.0097312,116.359442 60.086982,116.027877" id="Fill-1944" fill="#C17B00"></path>
                <path d="M56.8381979,114.222626 C57.3994834,113.630835 58.272361,114.311218 57.9177545,115.181777 C57.6869455,115.748763 57.4718735,116.33701 57.2515558,116.911083 C57.0039607,117.552486 57.0186485,118.404145 56.4720509,118.793948 C56.0807247,119.075078 55.5372745,119.121146 55.2424684,118.595503 C54.4000156,117.079998 55.9537798,115.15579 56.8381979,114.222626" id="Fill-1946" fill="#C17B00"></path>
                <path d="M52.0563832,112.794284 C52.0756622,112.739377 52.1050879,112.696902 52.1284256,112.645102 C52.158866,112.567404 52.1953945,112.488669 52.2491726,112.409934 C52.3546993,112.254537 52.4703729,112.112607 52.594164,111.972749 C53.0365647,111.477549 53.5570959,111.161574 54.166919,111.0155 C54.8152999,110.860103 55.3256843,111.913698 54.748331,112.363315 C54.2785339,112.727981 53.9335424,113.14859 53.5773895,113.641719 C52.9909041,114.461182 51.9863703,113.730813 52.0736328,112.893738 C51.9823116,113.125799 51.9752088,113.095755 52.0563832,112.794284" id="Fill-1948" fill="#C17B00"></path>
                <path d="M38.0360905,111.013894 C38.8404532,111.173436 39.3579988,111.773788 39.8462254,112.39423 C40.4275081,113.135215 40.8800418,113.793475 40.9934939,114.762547 C41.0903744,115.595712 40.0846023,116.40406 39.3554493,115.776527 C38.6670882,115.189175 38.2196535,114.525006 37.7186795,113.77693 C37.319685,113.183669 36.9372621,112.539591 37.0086477,111.798605 C37.057088,111.32116 37.5618861,110.91935 38.0360905,111.013894" id="Fill-1950" fill="#C17B00"></path>
                <path d="M36.7236184,114.217569 C37.9913362,115.143444 39.3474408,116.698237 38.9193966,118.326422 C38.7312592,119.040023 37.7324895,119.219552 37.2400493,118.705804 C36.7779131,118.220285 36.615029,117.630886 36.2690582,117.082136 C35.9508661,116.577421 35.5543886,116.126904 35.2046298,115.642513 C34.5025868,114.673732 35.7551526,113.509614 36.7236184,114.217569" id="Fill-1952" fill="#C17B00"></path>
                <path d="M33.1497985,116.521299 C33.5993171,115.597279 34.7785193,116.002769 34.8715592,116.948567 C34.9071025,117.29287 35.0158233,117.773028 34.9980517,118.198222 C34.9604175,119.065203 34.0028384,119.215577 33.5104587,118.714678 C33.0494408,118.24489 32.8330447,117.163238 33.1497985,116.521299" id="Fill-1954" fill="#C17B00"></path>
                <path d="M84.684868,107.052861 C85.3819596,106.919444 85.8666487,107.033629 86.4374217,107.451909 C86.8313486,107.742782 86.9389534,108.23318 86.995095,108.806512 C87.0484295,109.402681 86.6582453,109.973609 86.2418618,109.996447 C85.6542463,110.030101 85.5887478,109.820961 85.2154061,109.527684 C84.9842899,109.341381 84.7251028,109.254841 84.4724656,109.141857 C83.6892902,108.801704 83.9634484,107.191085 84.684868,107.052861" id="Fill-1956" fill="#C17B00"></path>
                <path d="M83.2058862,110.056381 C83.7769667,110.310031 84.2385992,110.458722 84.763083,110.812332 C85.0935945,111.037244 85.4067677,111.347121 85.667926,111.689486 C86.6464568,112.970229 85.2550575,114.752025 84.1735805,113.661206 C83.5396486,113.021459 82.8537018,112.48917 82.246861,111.808189 C81.5619978,111.039743 82.4397497,109.710268 83.2058862,110.056381" id="Fill-1958" fill="#C17B00"></path>
                <path d="M80.5364416,112.146514 C81.1791317,112.522094 81.6010061,112.98691 81.903175,113.609608 C82.4226732,114.688296 80.717743,115.526731 79.9692937,114.603962 C79.6171506,114.169545 79.3312523,113.701787 79.0895172,113.20559 C78.6804269,112.363232 79.7624242,111.692484 80.5364416,112.146514" id="Fill-1960" fill="#C17B00"></path>
                <path d="M1.10859133,100.004379 C1.39032302,100.002324 1.68994245,99.9899979 1.97055617,100.018759 C2.4792384,100.072174 2.97562282,100.094772 3.46753532,100.204682 C4.38651729,100.410122 4.01087502,101.723909 3.13773035,101.837928 C2.52731167,101.915995 1.83639822,102.062884 1.22933348,101.970436 C0.787730223,101.904696 0.296935715,101.774241 0.0923448385,101.389042 C-0.0574648747,101.105535 -0.0239253866,100.749098 0.185137422,100.465591 C0.390846282,100.181057 0.748600821,100.004379 1.10859133,100.004379" id="Fill-1962" fill="#C17B00"></path>
                <path d="M3.33002565,97.2054205 C3.80383955,97.3228166 4.27006376,97.4437974 4.67773888,97.6714204 C5.14071035,97.9268241 5.08758248,98.5308316 4.62894797,98.8283546 C4.37089829,98.9941431 4.02827772,99.0443277 3.7409535,98.9591931 C3.70625774,98.9466469 3.52302079,98.8292508 3.37556383,98.7073739 C3.42543898,98.80147 3.47639837,98.8982546 3.52952624,98.9941431 C3.34628929,98.9717392 3.16522082,98.9448546 2.98523659,98.9188662 C2.69140692,98.8758508 2.39974573,98.8382123 2.11458999,98.7772739 C1.63427064,98.6778008 1.16262522,98.5424816 1.03685311,98.106951 C0.933850089,97.7619319 1.04444281,97.4733704 1.39790581,97.2242397 C1.98014394,96.8138014 2.76405115,97.0656205 3.33002565,97.2054205" id="Fill-1964" fill="#C17B00"></path>
                <path d="M5.11255411,94.0004932 C5.82303782,93.9919494 6.42274718,94.0923394 6.94351391,94.4639964 C7.4337222,94.8164296 7.74185312,95.219058 7.94812258,95.7380961 C8.30209117,96.6245192 6.75252366,97.4938546 6.09169742,96.6683063 C5.67788523,96.1578121 5.0208788,95.8886812 4.40843675,95.5586755 C3.57317276,95.114396 4.12449792,94.011173 5.11255411,94.0004932" id="Fill-1966" fill="#C17B00"></path>
                <path d="M69,29.755522 C64.9051971,13.1535005 31.223922,11.7870413 28.1928213,31.4247501 C28.0553513,32.3147766 27.9967575,33.1693848 28,34 C41.5679755,31.8771897 55.2991996,30.9094716 69,29.755522" id="Fill-1968" fill="#E29700"></path>
                <path d="M26.50025,33.5 C27.16525,28.3038476 25.83425,38.6961524 26.50025,33.5" id="Fill-1970" fill="#E29700"></path>
                <path d="M30.2432594,41.5681329 C30.1595329,41.5792106 30.0780693,41.5814262 30,41.5836417 C32.9191131,56.2117681 64.0608454,57.654087 66.8249513,40.8082015 C66.9867471,39.8311468 67.0308733,38.8939718 66.9799585,38 C54.7027118,38.9693003 42.3960478,39.7680038 30.2432594,41.5681329" id="Fill-1972" fill="#E29700"></path>
            </g>
        </g>
    </g>
</svg>