<?xml version="1.0" encoding="UTF-8"?>
<svg width="115px" height="117px" viewBox="0 0 115 117" version="1.1" xmlns="http://www.w3.org/2000/svg" xmlns:xlink="http://www.w3.org/1999/xlink">
    <title>Group 4</title>
    <g id="Student-Environmrnt---New-Treatment" stroke="none" stroke-width="1" fill="none" fill-rule="evenodd">
        <g id="Avatars" transform="translate(-444.000000, -823.000000)">
            <g id="Group-4" transform="translate(444.000000, 823.000000)">
                <g id="Group-18">
                    <path d="M104.596767,101.988728 C103.47414,99.0125846 100.588039,96.115272 98.1459527,94.2747473 C94.4690913,91.5031068 88.3455665,95.1635916 89.614673,99.8420203 C90.1811363,101.937317 91.0222483,103.592761 92.1231325,105.400153 C92.1734847,105.483554 92.2215483,105.565812 92.2730449,105.64807 C92.2501575,105.624078 92.3188198,105.755463 92.4813203,106.054791 C92.9093148,106.886511 93.3235768,107.701095 93.8923287,108.452842 C95.6031622,110.713797 98.8028212,111.447265 101.355911,110.320787 C104.615077,108.888125 105.812089,105.210503 104.596767,101.988728" id="Fill-1806" fill="#E59900"></path>
                    <path d="M43.0354392,98.4057808 C42.7558475,94.4736185 38.3617705,92.2818466 35.1240296,94.9889935 C32.1624286,97.46645 30.0591627,101.131212 28.6773123,104.653131 C27.6878108,107.182011 29.4447513,110.279974 31.697593,111.511846 C34.5498886,113.067112 38.7863357,112.170063 40.2763409,109.170375 C41.8860067,105.931855 43.2920192,101.992836 43.0354392,98.4057808" id="Fill-1808" fill="#E59900"></path>
                    <path d="M101.558428,69.7832627 C99.2246482,63.4946599 94.7864915,55.0870714 89.1490784,49.1550507 C89.0809389,49.0411267 89.0218846,48.9272027 88.9457954,48.8212535 C87.2207289,46.3980908 84.8392512,44.7666996 82.1579594,43.6718903 C79.849164,42.472271 77.4302096,41.8274614 74.9431156,41.9413853 C71.4702693,41.5540439 67.9633532,41.6588539 64.9697551,41.8980942 C64.2088634,41.9584739 63.4502429,42.0450561 62.6995721,42.1453092 C53.9606733,42.3811318 44.7413907,46.6658121 38.6463069,53.3975791 C38.2068068,53.6117561 37.7797989,53.8828951 37.3743685,54.2212493 C36.1160579,55.2716283 35.265449,56.8130195 34.9270226,58.4956764 C33.6335066,60.7604848 32.6829597,63.2018753 32.1548781,65.7719999 C31.655188,66.285797 31.3031336,67.0616192 31.1100715,68.1074412 C30.7580171,69.2113644 30.4218619,70.322123 30.1004703,71.4362994 C29.0227296,75.0875624 28.3436053,78.9860404 28.3981169,82.8423666 C28.4401363,85.6722378 28.8841791,88.3004637 29.7041252,90.7657782 C30.0720788,95.5745087 31.801688,100.180455 35.1371195,102.935136 C37.8479384,105.172603 40.9017264,105.455134 44.1145067,104.541464 C44.2394293,104.506147 44.3609448,104.458299 44.4813247,104.411591 C45.3887165,104.609818 46.3063293,104.767033 47.2205351,104.890071 C47.8019927,105.346906 48.4050278,105.771843 49.0489466,106.143235 C52.8920179,108.35222 57.1427909,108.421714 61.2720483,107.233487 C62.1953393,106.966905 63.2094831,106.541969 64.2622393,105.989437 C65.0878637,106.070323 65.913488,106.152349 66.7402481,106.236652 C67.7066942,106.565893 68.6799542,106.735639 69.5680398,106.696905 C69.9166873,106.684374 70.2607921,106.645639 70.6026255,106.601209 C77.7504655,107.233487 84.8812706,107.472727 91.8201492,105.389058 C106.90057,100.851467 106.416779,82.8845185 101.558428,69.7832627" id="Fill-1810" fill="#FFB000"></path>
                    <path d="M105.880962,62.0398686 C105.48955,52.5682034 103.169606,42.9895523 101.585699,33.8377066 C99.8842546,24.0052486 96.7244293,16.4115272 88.6382891,11.0098782 C83.1573788,7.34845699 76.6380281,6.69516021 70.3651644,6.31729517 C61.9800448,5.81081944 54.0125836,6.35030145 46.3577955,10.3099173 C39.9114781,13.6446901 36.1571172,20.6955151 33.7744104,27.6826039 C33.0794542,29.7244408 32.4894832,31.8015604 31.9885214,33.8991666 C31.4841361,35.9956347 31.0687601,38.1205565 30.7138645,40.2614123 C28.3950617,51.824993 29.2577659,62.104743 28.3950617,73.3189123 C28.3950617,73.3189123 30.9820332,90.1395973 39.599946,90.2886946 C42.4995907,90.3046287 45.4711273,89.2507039 48.1585194,87.6459156 C53.3119217,93.3127531 61.3934972,93.574527 68.0212565,90.053098 C69.014051,89.5261356 69.9121306,88.8557667 70.7360359,88.0784118 C72.2309334,89.8914811 74.5600065,90.8202096 76.8776682,90.253412 C78.2755685,89.9108296 79.5251202,89.0549425 80.4174941,87.8576111 C81.5905893,88.4665201 82.7773781,89.0503899 83.9984012,89.5887338 C90.1160695,92.2850057 97.1238294,90.0701703 101.11783,84.720876 C103.640898,85.0247615 106.416158,83.4734662 106.740242,79.9030968 C107.283427,73.9278214 106.720843,67.9616511 105.880962,62.0398686" id="Fill-1812" fill="#FFB000"></path>
                    <path d="M33.6891131,9.51030206 C28.0262362,8.42177656 21.1175036,8.62154766 19.3155234,14.7134312 C18.0137126,19.1095306 20.0897582,24.5828048 24.326353,27.2411225 C31.1368788,31.5157701 39.7528107,28.7802681 44.5877816,24.0515952 C45.3220486,23.3331003 45.6258044,22.4886134 45.6406496,21.6395862 C45.74685,21.581698 45.8519084,21.5397006 45.9569668,21.4772722 C48.9134476,19.7122491 47.9998962,15.194698 45.4042682,13.2299038 C42.5539878,11.0800943 37.1823054,10.1799893 33.6891131,9.51030206" id="Fill-1814" fill="#FFB000"></path>
                    <path d="M88.8817757,10.3056875 C85.9911204,11.8043084 84.3465163,16.0721203 86.9852127,18.2683751 C87.0779793,18.3470134 87.1753271,18.404307 87.2715295,18.4762048 C87.1455501,19.3086472 87.3081781,20.1815321 87.9163152,21.001617 C91.9293326,26.3905861 100.005759,30.4370873 107.444272,27.3522199 C112.073443,25.4323224 115.025943,20.4185704 114.456745,15.9182139 C113.672237,9.67770466 106.867057,8.38129644 101.084601,8.538573 C97.5182382,8.63630915 92.0541668,8.65765382 88.8817757,10.3056875" id="Fill-1816" fill="#FFB000"></path>
                    <path d="M88.2783852,30.3155616 C84.5937786,3.85919059 39.5551614,8.77876372 43.285131,35.5243875 C46.9742739,61.9841749 92.010623,57.063463 88.2783852,30.3155616 C87.5253601,24.899476 89.0348126,35.7270921 88.2783852,30.3155616" id="Fill-1818" fill="#E29700"></path>
                    <path d="M81.3722408,29.7031211 C81.1306294,25.5313238 79.2149142,21.3879912 76.0052613,18.9240803 C74.8727793,18.2352328 73.7402974,17.5429695 72.6089606,16.8529833 C70.0176496,15.7439957 67.2717531,15.3910325 64.3712711,15.7906779 C60.1287579,16.3895768 56.11068,18.6906692 53.2892084,22.1360455 C50.4643016,25.5802832 48.998602,29.9672742 49.2447937,34.2415448 C49.4875502,38.4133421 51.4044104,42.5589519 54.6129183,45.0205856 C55.7465453,45.7128489 56.8778822,46.4016964 58.0103641,47.0905439 C60.6016751,48.2029473 63.3464265,48.5570491 66.2469085,48.1562651 C70.4894216,47.5585048 74.5074995,45.2562739 77.3312613,41.8120362 C80.1550231,38.3666599 81.6195776,33.9773916 81.3722408,29.7031211" id="Fill-1820" fill="#FFFFFF"></path>
                    <path d="M61.249493,20.7298905 C60.5778851,21.8156207 60.3984037,23.1524332 60.7573666,24.4135771 C61.1684369,25.8444021 62.2047973,26.9954825 63.5572765,27.7005765 C63.4727466,27.6627422 63.3893746,27.6294939 63.3025287,27.5905131 C63.65107,27.7785381 64.0575086,27.8255444 64.424577,27.9562448 C64.488264,27.9780282 64.5936369,27.8977736 64.655008,27.9241429 C64.6399547,27.9184105 64.6272173,27.9115315 64.6110061,27.9046525 C64.6445865,27.919557 64.6353229,28.0364994 64.6700613,28.0479643 C64.7094314,28.0617223 64.7314323,28.116754 64.7708024,28.125926 C65.6647356,28.4079636 66.5528791,28.4996831 67.4549179,28.3494924 C68.8282402,28.116754 70.0267128,27.3669467 70.7446385,26.2697515 C72.1920692,24.0684822 71.3826659,20.9110367 68.8861374,19.4377913 C68.7541317,19.3621227 68.623284,19.2876006 68.4912783,19.2165179 C65.9113778,17.8453106 62.6992396,18.3853095 61.249493,20.7298905" id="Fill-1822" fill="#000000"></path>
                    <path d="M44.4855967,93.5110405 C33.3356051,89.5777262 21.3583452,89.7298876 10.5789245,92.4493431 C8.83939436,93.0751497 7.19505675,93.9263381 5.6776425,95.0063407 C4.15909502,96.0874873 2.76747091,97.4008802 1.5571659,98.9453753 C-1.01189914,102.217417 -0.253758643,107.497302 2.74367277,110.100063 C4.13869662,111.311633 6.17173706,111.923711 8.11071821,111.764685 C11.0061576,110.654937 13.2975778,108.683703 15.7476522,106.808572 C22.3771319,102.867249 29.1856642,99.962454 36.7546035,98.2211787 C40.4999762,96.6057512 43.5812677,94.8530352 44.4855967,93.5110405" id="Fill-1824" fill="#FFB000"></path>
                    <path d="M20.6802198,103.736842 C20.0239028,102.021361 19.2145585,100.355441 18.3995466,98.7007844 C18.300929,98.3313309 18.205712,97.9618773 18.1297652,97.5789071 C17.7035559,95.4117466 17.3680294,93.229943 17.037037,91.0470131 C18.9515783,90.7721757 20.8865232,90.5739323 22.8350706,90.4736842 C23.1297898,91.4637747 23.3281585,92.4617499 23.3621646,93.465357 C23.4551145,96.3410124 24.7768167,98.9125444 25.5555556,101.534764 C23.9062616,102.208341 22.2830389,102.942742 20.6802198,103.736842" id="Fill-1830" fill="#FFD41D"></path>
                    <path d="M61.6489639,107.454056 C60.3790803,103.673093 58.2735973,100.058313 56.9536914,96.1833708 C56.1089971,93.7032242 53.6601795,89.5532192 51.393261,90.0391629 C48.4260307,90.6718065 45.8612523,96.7770473 46.4683408,99.9620415 C47.4676494,105.190521 49.0035606,114.767279 54.8766302,115.943171 C59.3547606,116.841709 63.1905594,112.047599 61.6489639,107.454056" id="Fill-1832" fill="#E59900"></path>
                    <path d="M88.1753645,98.1114767 C88.0454376,97.0896342 88.105317,96.3012249 87.8036605,95.2439097 C85.8423285,88.396535 78.3099553,90.3315134 77.6659695,96.8424696 C76.5745832,99.3942152 75.5701915,102.002031 74.7465676,104.717408 C73.4066254,109.132043 75.1939682,114.248121 78.6477653,115.948522 C80.3221282,116.773548 82.2088933,116.712901 83.8516218,115.780312 C86.2547054,114.419763 87.2737845,111.894336 87.8533717,108.805923 C88.0341396,107.847015 88.1821433,106.881243 88.3030319,105.906316 C88.6374525,103.242431 88.5063958,100.75362 88.1753645,98.1114767" id="Fill-1834" fill="#E59900"></path>
                    <path d="M33.3999777,15.2087695 C32.5759855,14.892859 32.1057914,14.8748712 31.0927996,14.7174781 C29.7721073,14.5061216 28.4007078,15.3380568 27.6308802,16.1879797 C26.408145,17.5404365 26.9555524,19.8046492 28.7764021,20.6523237 C29.496675,20.986222 30.314905,21.0491793 31.0351778,20.8209592 C31.5272682,20.6658146 31.9352308,20.3993705 32.2590655,20.0261239 C32.1276877,20.3094315 32.2786569,20.3364132 32.7027535,20.1093174 C33.3953679,20.2633378 34.2182076,20.4983033 34.7149078,20.8254562 C35.319937,21.2279329 35.9468625,21.4426621 36.6463915,21.2358026 C38.1053762,20.8040957 38.2217723,19.0952559 37.1419392,18.0958094 C36.1750449,17.2020412 34.8163222,15.7529001 33.3999777,15.2087695" id="Fill-1836" fill="#E29700"></path>
                    <path d="M106.41559,22.0073573 C108.479624,19.4481598 107.143338,16.6052477 104.602464,15.4438634 C102.418084,14.4404827 100.215539,14.4762353 97.8495064,15.2858597 C95.9364712,15.9363272 96.2078157,18.7619396 98.1208508,18.9533893 C99.3436039,19.0721803 100.877438,19.2255707 101.94238,19.8045329 C101.974169,19.8218326 102.23416,19.9683031 102.258002,20.0386551 C102.485069,20.686816 102.598602,21.2104192 102.98348,21.8205208 C103.64992,22.870034 105.51073,23.129529 106.41559,22.0073573" id="Fill-1838" fill="#E29700"></path>
                    <path d="M63.0436212,0.999487297 C61.9629484,3.88308229 62.5624374,7.01818054 63.5612066,10.0269477 C63.9400108,11.1639278 64.8944155,12.0123167 66.0729176,11.8129685 C67.0910251,11.6391183 67.961251,10.4708451 67.5858594,9.33386495 C66.716771,6.6878652 66.5882279,4.06040947 66.1059065,1.36341368 C65.7976304,-0.376247131 63.5668943,-0.399427155 63.0436212,0.999487297" id="Fill-1840" fill="#FFC41D"></path>
                    <path d="M75.8410154,2.54829396 C74.5909996,1.86159783 73.1484975,3.30377246 72.281163,4.14043671 C71.3553951,5.02784206 70.5774293,6.13850822 69.8384191,7.1973057 C69.2918952,7.9809737 69.6287464,9.17959108 70.3551534,9.67008832 C71.1789493,10.2293679 72.1093002,9.89109397 72.6661358,9.11531903 C73.3306721,8.19746903 74.0685366,7.36644268 74.8453567,6.55233002 C75.3105321,6.06521553 75.782582,5.56118733 76.259215,5.09211411 C76.994788,4.36708027 76.6613741,3.00158106 75.8410154,2.54829396" id="Fill-1842" fill="#FFC41D"></path>
                    <path d="M35.8928198,91.6603146 C35.4384223,89.7246515 35.1101815,87.7695748 34.7796045,85.8099301 C34.4805665,84.0341449 32.5590144,83.0303408 31.0603205,83.4722887 C29.3268351,83.9827556 28.6703535,85.747121 28.9191624,87.5320421 C29.1597944,89.2575801 29.345525,90.9956798 29.5639629,92.7246437 C29.8022587,94.6134854 31.5135498,95.9290511 33.215496,95.645839 C34.814648,95.3786147 36.3226868,93.5046189 35.8928198,91.6603146" id="Fill-1844" fill="#FFD41D"></path>
                    <path d="M46.7725824,84.7776118 C47.8255365,85.9296408 50.0140074,86.1817185 51.0205909,84.7662056 C51.4831669,84.1149099 51.9638387,83.4852861 52.4524276,82.8590842 C53.4194263,81.6272116 54.1421306,80.5185262 54.7291158,78.9855291 C55.1532381,77.8734218 54.7404258,76.5195026 53.8718234,75.8214414 C52.9082176,75.051521 51.8145477,75.2317394 50.8656449,75.8864569 C49.2438014,77.0133922 47.9997094,78.5395456 46.7578795,80.1193082 C45.6879604,81.4766493 45.5511103,83.4476456 46.7725824,84.7776118" id="Fill-1846" fill="#FFD41D"></path>
                    <path d="M64.0233945,89.1250983 C64.2389762,89.9872224 64.5156766,90.8281008 64.7212571,91.6935795 C65.185758,93.6593565 66.7792851,95.0649207 68.6950736,94.6701998 C70.8808949,94.222924 72.0877083,91.5560422 71.1275915,89.3744545 C70.3608316,87.6334336 69.5685131,85.9281946 68.6328438,84.2900471 C67.9549836,83.1036481 66.517031,82.6127629 65.3246638,83.0555659 C63.7711416,83.6303153 63.1332863,85.3791636 63.5311124,87.0329658 C63.6777969,87.736307 63.8444838,88.432939 64.0233945,89.1250983" id="Fill-1848" fill="#FFD41D"></path>
                    <path d="M87.0320815,75.3750529 C87.0375624,75.3703813 87.023312,75.3271684 86.9641182,75.205705 C86.8654619,74.9989838 86.775575,74.7840871 86.672534,74.5785338 C86.4631633,74.1522442 86.2779087,73.7119396 86.0882693,73.2739709 C85.5314092,71.983423 83.964966,71.6634138 82.9553829,72.3594921 C81.8263161,73.1396605 81.6114646,74.7023329 82.1650362,75.9893771 C82.587066,76.9669233 83.0025187,78.0215521 83.7391526,78.7421566 C84.2137992,79.2069875 84.635829,79.5515229 85.2880569,79.577217 C85.8580712,79.6017433 86.4237008,79.3646562 86.8457306,78.9220158 C87.7610421,77.9596525 87.7456955,76.4542079 87.0320815,75.3750529" id="Fill-1850" fill="#FFD41D"></path>
                    <path d="M97.8169533,83.724732 C97.5671386,85.2755229 97.407853,86.8307992 97.2611728,88.3939247 C97.1958542,89.0599911 97.1270979,89.7294215 97.0549037,90.3977305 C96.8635318,92.1144774 97.4055611,93.0855439 98.2604319,94.5219598 C99.0981135,95.9303426 101.28915,96.0222911 102.400711,94.9951585 C105.176176,92.4284481 104.584871,88.2302114 105.021474,84.8157801 C105.655178,79.8483153 98.6087974,78.8211826 97.8169533,83.724732" id="Fill-1852" fill="#FFD41D"></path>
                    <path d="M107.759091,69.6556131 C107.746548,69.612886 107.735145,69.5724685 107.721461,69.5343605 C107.705496,69.4950978 107.699794,69.4569899 107.68497,69.4188819 C107.691812,69.4431324 107.697514,69.4662282 107.702075,69.4904787 C107.656462,69.3576783 107.610849,69.2248778 107.548131,69.0990062 C107.385065,68.7133076 107.235682,68.3299186 107.041827,67.9615418 C106.698589,67.3148615 106.386141,66.6196802 105.96308,66.0284297 C105.186519,64.946395 104.244611,64.0733766 102.897888,64.5583868 C101.307135,65.1288512 100.90346,67.0330937 101.611602,68.5389349 C101.383537,68.0319837 101.423448,68.1740224 101.732476,68.9696701 C101.843088,69.2837719 101.974225,69.5874807 102.09852,69.8969634 C102.452021,70.7699818 102.83631,71.5136641 103.334632,72.3197048 C104.947051,74.932986 108.672491,72.4294095 107.759091,69.6556131" id="Fill-1854" fill="#FFD41D"></path>
                    <path d="M35.940126,67.4374732 C35.7665595,65.5120444 33.7636931,64.6924741 32.4368228,66.0161363 C31.9732174,66.4023447 31.599821,66.8671421 31.3189173,67.4116512 C31.3257686,67.4026696 31.1373576,67.7136572 31.0597094,67.845013 C30.8484607,68.1829454 30.6235093,68.5141416 30.3996999,68.8453378 C30.1085192,69.2730861 29.7374066,69.6458222 29.5398605,70.1454233 C28.9997489,71.4960302 29.6026641,73.1037352 30.8667309,73.6785571 C31.967508,74.182649 33.0431637,73.7593915 33.8253549,72.8825635 C33.5946942,73.1913057 33.7214434,73.0666862 34.202177,72.5098274 C34.3780273,72.309987 34.5424587,72.112392 34.7023226,71.8957111 C35.6329589,70.6147115 36.0862873,69.0317059 35.940126,67.4374732" id="Fill-1856" fill="#FFD41D"></path>
                    <path d="M54.3415122,111.815854 C53.7008672,111.618317 53.2446503,112.577149 53.6037998,113.125369 C53.8054843,113.428333 54.0050118,113.725748 54.1808117,114.046468 C54.3415122,114.344993 54.410538,114.687909 54.5755526,114.980885 C54.7944935,115.381508 55.1245228,115.652289 55.5688759,115.561288 C56.0844118,115.459191 56.3659073,114.928726 56.3098239,114.371628 C56.1922645,113.179747 55.3617987,112.132136 54.3415122,111.815854" id="Fill-1858" fill="#C17B00"></path>
                    <path d="M58.0725366,110.579558 C57.4537733,110.020016 56.488549,110.659013 56.8813594,111.487136 C57.1362806,112.024297 57.3726621,112.581601 57.6171546,113.125476 C57.8894568,113.733139 57.875552,114.54 58.4769343,114.909298 C58.9103003,115.17564 59.5116825,115.221522 59.8349689,114.721291 C60.7654312,113.285505 59.0505069,111.462516 58.0725366,110.579558" id="Fill-1860" fill="#C17B00"></path>
                    <path d="M62.8795045,109.508425 C62.8593354,109.45006 62.8257202,109.40085 62.798828,109.347063 C62.7674538,109.257799 62.7248745,109.170823 62.6688492,109.083848 C62.5500755,108.912186 62.4223377,108.755401 62.2867563,108.600906 C61.7982153,108.053876 61.2222747,107.70483 60.5488501,107.543468 C59.8328461,107.371806 59.2692312,108.533385 59.9090406,109.032349 C60.4255943,109.435183 60.8076872,109.899815 61.1998646,110.446844 C61.8475176,111.352075 62.95794,110.542975 62.8626969,109.618289 C62.962422,109.874637 62.969145,109.841449 62.8795045,109.508425" id="Fill-1862" fill="#C17B00"></path>
                    <path d="M76.1607359,107.066336 C75.4004971,107.217449 74.9105655,107.78832 74.4459752,108.37598 C73.8957071,109.075577 73.4673187,109.696818 73.3599198,110.616927 C73.2694152,111.406072 74.220317,112.17171 74.9117722,111.578453 C75.5621987,111.021014 75.986967,110.389698 76.4600044,109.685625 C76.8377103,109.12147 77.2021422,108.513661 77.1309453,107.809587 C77.0862963,107.357368 76.6096387,106.974549 76.1607359,107.066336" id="Fill-1864" fill="#C17B00"></path>
                    <path d="M77.8723655,110.121394 C76.6725334,111.086042 75.3914378,112.708298 75.7965603,114.404667 C75.9746231,115.145799 76.9211042,115.335199 77.3847843,114.797584 C77.8233683,114.291732 77.9751399,113.680004 78.3061693,113.105921 C78.6061273,112.58007 78.9825686,112.110687 79.312403,111.608364 C79.9768518,110.59666 78.7925554,109.383791 77.8723655,110.121394" id="Fill-1866" fill="#C17B00"></path>
                    <path d="M81.6968543,112.838458 C81.1637363,111.819 79.7672393,112.265084 79.6571523,113.313211 C79.6163335,113.691637 79.4864556,114.222581 79.5087204,114.69504 C79.5557238,115.651427 80.6875172,115.816559 81.2688756,115.263827 C81.813126,114.74091 82.0691711,113.548294 81.6968543,112.838458" id="Fill-1868" fill="#C17B00"></path>
                    <path d="M29.4214261,103.788105 C28.5438106,103.659571 27.9319602,103.767631 27.2102603,104.170296 C26.7153465,104.441015 26.5759675,104.905103 26.5086403,105.447678 C26.4389508,106.010727 26.9338645,106.556713 27.4594889,106.57605 C28.2000877,106.605625 28.2804078,106.40543 28.7540603,106.127886 C29.0469926,105.956128 29.3706354,105.868543 29.6907348,105.767308 C30.6817434,105.44199 30.3332958,103.92119 29.4214261,103.788105" id="Fill-1870" fill="#C17B00"></path>
                    <path d="M31.3700591,106.631035 C30.7620146,106.876074 30.2693485,107.016942 29.7120706,107.34958 C29.3601663,107.562657 29.0255687,107.856231 28.7475066,108.182949 C27.7079467,109.39394 29.1882524,111.081987 30.3397294,110.046194 C31.0135396,109.442474 31.7461929,108.938191 32.3923123,108.293039 C33.1191966,107.565025 32.1880924,106.307868 31.3700591,106.631035" id="Fill-1872" fill="#C17B00"></path>
                    <path d="M34.0397368,108.633434 C33.4300851,109.050613 33.0306202,109.56423 32.746703,110.254472 C32.252599,111.444245 33.8680659,112.370707 34.5745575,111.353224 C34.9112965,110.869946 35.1820083,110.351994 35.4087019,109.805869 C35.7971622,108.876156 34.7715389,108.13607 34.0397368,108.633434" id="Fill-1874" fill="#C17B00"></path>
                    <path d="M103.38151,107.549322 C103.197201,107.321287 103.010587,107.067258 102.799784,106.861672 C102.419646,106.488308 102.071762,106.101948 101.649002,105.784116 C100.864536,105.190988 99.9856108,106.464678 100.465967,107.256303 C100.800028,107.812804 101.128329,108.476824 101.609837,108.902175 C101.95772,109.210554 102.395455,109.513026 102.860836,109.394873 C103.205264,109.30744 103.48864,109.016783 103.596921,108.641056 C103.701747,108.262967 103.621112,107.844705 103.38151,107.549322" id="Fill-1876" fill="#C17B00"></path>
                    <path d="M104.709439,103.504159 C104.268853,103.226045 103.832881,102.958967 103.330014,102.818806 C102.761404,102.65878 102.202022,103.178589 102.222783,103.76903 C102.234316,104.100118 102.417702,104.409134 102.697969,104.566953 C102.73257,104.587922 102.97247,104.637585 103.196223,104.651932 C103.065893,104.689456 102.939023,104.723668 102.810999,104.761192 C102.95517,104.885902 103.105107,105.008404 103.252738,105.129803 C103.493792,105.320731 103.733692,105.519384 103.987432,105.695965 C104.413024,105.991737 104.868603,106.252193 105.383004,106.009395 C105.792449,105.815156 106.004668,105.500622 106.008128,105.030477 C106.018509,104.248005 105.23422,103.834144 104.709439,103.504159" id="Fill-1878" fill="#C17B00"></path>
                    <path d="M105.792863,100.377806 C105.399649,99.924938 104.981928,99.6104465 104.392663,99.5140024 C103.836815,99.4248965 103.343348,99.4846499 102.810893,99.6817312 C101.90416,100.014044 102.076818,101.542473 103.109424,101.440787 C103.748816,101.378937 104.333625,101.624241 104.940713,101.804549 C105.765015,102.052997 106.340913,101.010982 105.792863,100.377806" id="Fill-1880" fill="#C17B00"></path>
                    <path d="M44.0123457,32.2716164 C46.1909769,34.4162863 44.472203,37.8287748 46.6633551,40.0774013 C48.0053646,42.3237679 49.8004019,44.3633512 51.9676505,45.9419096 C53.4826756,46.8458801 54.9954242,47.7555004 56.5081728,48.6606008 C59.921817,50.1894409 63.4583933,50.8493393 67.1247314,50.6493358 C72.4836633,50.337466 77.3872909,48.0266915 80.6575142,44.279734 C82.1292854,42.5915691 83.2277071,40.6559424 83.9243227,38.58585 C84.8303783,36.1225305 85.6897652,32.7134319 84.8303783,32.7134319 C72.8103442,30.1551955 61.6474204,33.5654241 50.8157305,32.4196415 C48.5471767,32.3597535 46.278623,32.3089051 44.0123457,32.2716164" id="Fill-1882" fill="#E29700"></path>
                    <path d="M95.7673952,44.6392133 C91.2477052,49.0768157 87.6208215,52.5476668 81.4097974,54.5948387 C76.1290638,56.3358914 70.5757176,56.8783526 65.0405456,56.9818929 C62.0236326,57.0415411 62.3780291,61.5646769 65.3483707,61.5781821 C77.1320511,61.6265759 93.9147653,59.4060866 99.6566686,47.3886585 C100.684645,45.2368209 97.4859906,42.9488052 95.7673952,44.6392133" id="Fill-1884" fill="#7F4E00"></path>
                    <path d="M79.1709885,55.4210526 C75.876729,56.1624444 72.6107319,56.4956672 69.2328158,56.9338147 C69.0519368,58.0787635 69.0643722,59.2606089 69.1796826,60.4067107 C69.3266468,61.8664338 70.6210624,63.3457584 71.7945152,64.0663958 C73.5185185,65.1248681 75.7082854,65.1721419 77.4775085,64.1897689 C79.2433401,63.206243 80.3885305,61.299148 80.4507077,59.2490787 C80.4767091,58.1975245 80.2449578,57.2116925 79.7554539,56.2858176 C79.5847493,55.9745022 79.3846519,55.6885532 79.1709885,55.4210526" id="Fill-1886" fill="#FFFFFF"></path>
                    <path d="M84.1480851,56.9909111 C84.333519,57.234769 84.5027275,57.4935102 84.6754129,57.7442374 C84.9106822,58.0911338 85.1679718,58.4151328 85.4275793,58.7368421 C89.0956946,58.2182147 92.1240627,55.7762011 95.1234568,53.4933247 C95.1025955,53.4624131 95.085211,53.4315016 95.0631908,53.4017349 C94.2669837,52.338148 93.6828668,51.1543496 92.9492438,50.0518371 C91.2641128,47.5216682 87.4186763,47.1919448 85.070619,48.9207027 C82.6553418,50.7032697 82.0399329,54.3164882 83.9278823,56.7046929 C84.0032148,56.7985725 84.0762294,56.8947418 84.1480851,56.9909111" id="Fill-1888" fill="#FFFFFF"></path>
                </g>
                <path d="M2.68897737,102.701786 C4.95794027,105.250973 7.71583404,107.534482 9,110.680894 C8.75958009,110.780797 8.52031605,110.88619 8.26949335,110.976213 C6.29180842,111.128813 4.2181867,110.541468 2.79531694,109.378855 C0.139139288,107.207325 -0.789020268,103.098107 0.730942142,100 C1.27535453,100.94085 1.92263891,101.842177 2.68897737,102.701786" id="Fill-1826" fill="#FFD41D"></path>
                <path d="M15.1726892,107.053339 C14.302016,107.704102 13.4518828,108.363873 12.5869152,109 C9.86420692,104.656323 5.89653861,100.909366 4,96.2121596 C4.33777102,95.9419464 4.68124762,95.6841179 5.03271206,95.4386743 C6.50019019,94.4174935 8.09090909,93.6091056 9.77063522,93 C11.0452644,95.3542326 11.4971472,98.0687496 12.3849372,100.595243 C12.952073,102.206389 13.9106124,103.470762 14.9798402,104.711491 C15.5287181,105.346492 15.8299734,105.969108 16,106.591725 C15.7238494,106.748223 15.4465576,106.894589 15.1726892,107.053339" id="Fill-1828" fill="#FFD41D"></path>
            </g>
        </g>
    </g>
</svg>