<?xml version="1.0" encoding="UTF-8"?>
<svg width="107px" height="119px" viewBox="0 0 107 119" version="1.1" xmlns="http://www.w3.org/2000/svg" xmlns:xlink="http://www.w3.org/1999/xlink">
    <title>Yellow Monster 3</title>
    <defs>
        <polygon id="path-1" points="0.898198696 0.729890727 15.3471889 0.729890727 15.3471889 25.9722222 0.898198696 25.9722222"></polygon>
    </defs>
    <g id="Student-Environmrnt---New-Treatment" stroke="none" stroke-width="1" fill="none" fill-rule="evenodd">
        <g id="Avatars" transform="translate(-577.000000, -823.000000)">
            <g id="Yellow-Monster-3" transform="translate(577.000000, 823.000000)">
                <path d="M101.800184,103.564403 C100.675994,100.597303 97.7899623,97.7087936 95.3492563,95.8715834 C91.6675909,93.1106427 85.5440746,96.758866 86.8113643,101.424218 C87.3803281,103.513148 88.2228983,105.161283 89.3230477,106.963184 C89.3734188,107.046332 89.4215002,107.130618 89.4707265,107.210348 C89.4489753,107.186429 89.5176631,107.319692 89.6802242,107.618111 C90.1095229,108.445026 90.5216496,109.254856 91.0917582,110.006598 C92.8043737,112.258404 96.002935,112.991922 98.5581207,111.871144 C101.819646,110.440557 103.015958,106.77411 101.800184,103.564403" id="Fill-1719" fill="#E59900"></path>
                <path d="M40.6869249,100.461233 C40.4060749,96.5424074 36.0091605,94.357434 32.769026,97.0584621 C29.8074394,99.5282338 27.7033663,103.179349 26.3232877,106.692622 C25.3311044,109.211379 27.0887191,112.299733 29.3424255,113.527784 C32.1969667,115.080505 36.4327376,114.183959 37.9256167,111.193576 C39.5335982,107.96738 40.9413014,104.038301 40.6869249,100.461233" id="Fill-1721" fill="#E59900"></path>
                <path d="M99.2334797,71.4558722 C96.8986687,65.1866258 92.4596874,56.8049158 86.8209201,50.8911538 C86.7516142,50.7798519 86.6925339,50.6640072 86.6175472,50.558384 C84.8905824,48.1449512 82.5091888,46.5151743 79.8255764,45.4248706 C77.5168971,44.2312151 75.0980102,43.5883902 72.6098175,43.6996921 C69.1354369,43.3158143 65.6258354,43.4180303 62.6275064,43.6588057 C61.8674146,43.7167281 61.1095952,43.8030438 60.3574566,43.9052597 C51.6146972,44.138085 42.3924778,48.4129842 36.2947014,55.1206237 C35.8561432,55.3341415 35.4300828,55.6010388 35.0210648,55.9440301 C33.7644707,56.9889046 32.9123499,58.5232799 32.5737739,60.2030291 C31.2785503,62.4631379 30.3298558,64.8970138 29.8015409,67.4558204 C29.3004939,67.9714432 28.9494201,68.742606 28.7574089,69.7852089 C28.4029266,70.8857343 28.0643507,71.993074 27.7462256,73.1060924 C26.6680087,76.7461168 25.9863121,80.6303239 26.0431201,84.4747803 C26.0828858,87.2982127 26.5293971,89.9160774 27.347433,92.3738037 C27.7166854,97.1677329 29.4470587,101.761773 32.7850999,104.505704 C35.494844,106.736284 38.5522534,107.017946 41.7653169,106.107088 C41.8902946,106.073016 42.013,106.026451 42.1322969,105.977614 C43.0412258,106.177503 43.9581078,106.333099 44.8727174,106.454622 C45.4532957,106.910051 46.0565973,107.33368 46.7053452,107.702793 C50.5467058,109.908386 54.8004928,109.974259 58.9315744,108.793097 C59.8564095,108.527335 60.8675929,108.103707 61.9208142,107.552876 C62.7479394,107.631242 63.5716562,107.713014 64.4010538,107.797059 C65.369063,108.127557 66.3450254,108.296781 67.2289587,108.258166 C67.5788963,108.243402 67.9220169,108.207058 68.2651376,108.162765 C75.4161353,108.793097 82.5500906,109.030465 89.4931709,106.952073 C104.577981,102.428448 104.095113,84.5145309 99.2334797,71.4558722" id="Fill-1723" fill="#FFB000"></path>
                <path d="M103.557856,63.7363465 C103.166264,54.2939227 100.847539,44.7448433 99.2606221,35.6212516 C97.5572553,25.8191488 94.3971217,18.2511403 86.3106958,12.8661676 C80.8261286,9.21378085 74.3026446,8.56250096 68.0269023,8.18580248 C59.6379348,7.68315964 51.667959,8.21870687 44.0085165,12.1683677 C37.5592409,15.4917105 33.8020155,22.5219026 31.4204986,29.4851512 C30.7229402,31.5206845 30.1349818,33.5913915 29.6315067,35.6847911 C29.130315,37.7747869 28.7124649,39.8908792 28.3585482,42.0251257 C26.039823,53.555276 26.8994981,63.8010206 26.039823,74.980569 C26.039823,74.980569 28.6245566,91.7493243 37.2475658,91.9002306 C40.1496828,91.9138462 43.1202998,90.8631752 45.8100667,89.2633413 C50.9669756,94.9126838 59.051118,95.1759188 65.6819187,91.6630921 C66.6740272,91.1377566 67.5736606,90.4705918 68.3990857,89.6979061 C69.8935275,91.5042433 72.2236694,92.4301047 74.5423946,91.8627877 C75.9397948,91.5212629 77.1899199,90.6680181 78.0849867,89.4743832 C79.2574784,90.0814124 80.4448119,90.6657489 81.6652537,91.2001614 C87.7880126,93.8903786 94.7989884,91.6812462 98.7936804,86.347332 C101.316764,86.6502793 104.094439,85.1037732 104.418673,81.5466957 C104.960964,75.5898674 104.399264,69.6421162 103.557856,63.7363465" id="Fill-1725" fill="#FFB000"></path>
                <path d="M42.8685111,13.0394797 C40.5709015,7.78248917 36.4880493,2.22972921 30.3718126,4.17546163 C25.9581046,5.57838343 22.5553448,10.3594231 22.7322607,15.3285766 C23.0160155,23.3132188 30.1845574,28.8421812 36.8774941,30.1510461 C37.8941863,30.3470925 38.7741708,30.1238489 39.4898762,29.6569638 C39.5990126,29.7124914 39.6932146,29.7748182 39.8046487,29.825813 C42.9581178,31.2593316 46.2195746,27.9684714 46.3873001,24.7388049 C46.5757041,21.1907046 44.2849874,16.2793451 42.8685111,13.0394797" id="Fill-1727" fill="#FFB000"></path>
                <path d="M81.444311,24.7391885 C81.6131865,27.9689142 84.8758149,31.2598346 88.0258596,29.8251565 C88.1384433,29.7741608 88.2337948,29.712966 88.3417832,29.6574374 C89.0597912,30.124331 89.9374842,30.3475787 90.9553323,30.1503955 C97.6483158,28.8426399 104.816908,23.3135763 105.099516,15.3276548 C105.277582,10.3595435 101.873649,5.57841639 97.4587617,4.17546891 C91.3436311,2.22970088 87.2618991,7.78256246 84.9654223,13.0396492 C83.5466385,16.2795739 81.2582033,21.1910233 81.444311,24.7391885" id="Fill-1729" fill="#FFB000"></path>
                <path d="M85.9488806,32.1083735 C82.2605269,5.73697225 37.202709,10.6402433 40.9364438,37.3056819 C44.625932,63.6816242 89.6792119,58.7760827 85.9488806,32.1083735 C85.1921498,26.7135266 86.7056114,37.5077616 85.9488806,32.1083735" id="Fill-1731" fill="#E29700"></path>
                <path d="M79.0392089,31.9747054 C78.797497,27.8162658 76.8798394,23.6861997 73.6699967,21.2301781 C72.5358981,20.5412663 71.402945,19.8512195 70.2711375,19.1645776 C67.6787485,18.0602758 64.9340008,17.703903 62.0300211,18.1022688 C57.7868885,18.7015199 53.767139,20.9952444 50.9433481,24.4318588 C48.117266,27.8627985 46.6521023,32.2368778 46.8983964,36.4985975 C47.1401083,40.6570371 49.057766,44.7871031 52.2698998,47.2431248 C53.4028528,47.9309016 54.5358059,48.6198135 55.6699045,49.3064554 C58.2588568,50.4152969 61.0047501,50.7682649 63.9075843,50.3687642 C68.1518624,49.770648 72.1693208,47.4757886 74.9965484,44.0448489 C77.8214849,40.6070995 79.2877942,36.2352901 79.0392089,31.9747054" id="Fill-1733" fill="#FFFFFF"></path>
                <path d="M58.4338057,30.1109219 C57.7630407,31.1930883 57.5823165,32.5255129 57.943765,33.7825172 C58.3538699,35.2063603 59.3907173,36.3548051 60.7449905,37.0564421 C60.6592624,37.0210174 60.5758512,36.9855928 60.490123,36.9490254 C60.8376696,37.1341478 61.2442991,37.1809998 61.6115401,37.3135566 C61.6764154,37.3352685 61.7806794,37.2552773 61.8420793,37.2792747 C61.8293359,37.273561 61.8131171,37.2667046 61.7980567,37.2621337 C61.8339699,37.2769892 61.822385,37.3912623 61.8571397,37.4026896 C61.8942113,37.4164024 61.9173811,37.473539 61.9602451,37.4803954 C62.8534399,37.7637927 63.7385252,37.8574967 64.6433049,37.7055134 C66.0161139,37.4712535 67.2174667,36.7239073 67.9357297,35.632599 C69.380365,33.4362697 68.5728984,30.2914734 66.0740384,28.8207784 C65.9442877,28.7453581 65.8133784,28.6710806 65.6789937,28.6025167 C63.100198,27.2335248 59.8842335,27.7740366 58.4338057,30.1109219" id="Fill-1735" fill="#000000"></path>
                <path d="M32.6303848,55.3090559 C41.9979496,60.2993806 52.411032,61.9662781 62.7126229,62.5629974 C73.6160406,63.1977317 85.2100232,62.7242729 95.7744156,59.4803315 C97.0633943,59.0817506 96.7289197,56.668378 95.3671301,56.8999235 C84.8971643,58.6866256 74.5398276,59.9054076 63.9253778,59.6081999 C53.7375538,59.3271197 42.8068321,58.1843676 33.4415426,53.44402 C32.4699735,52.9509778 31.664504,54.7964302 32.6303848,55.3090559" id="Fill-1737" fill="#7F4E00"></path>
                <path d="M37.2586359,57.7987832 C39.3625639,58.7592425 41.6148533,59.3988136 43.8823293,59.9722222 C44.4932978,58.5673712 44.6743688,57.3400563 44.3355908,55.7874423 C44.3426,55.830448 44.3519456,55.8701455 44.3612912,55.9142538 C44.3519456,55.8701455 44.3437682,55.8392696 44.3355908,55.7852369 C44.3168996,55.7080473 44.3040494,55.6496037 44.290031,55.5911602 C44.3040494,55.6540146 44.3180678,55.7179717 44.3355908,55.7852369 C43.9722806,54.1355846 43.0844487,52.7825609 41.3391581,52.4704943 C39.3835915,52.1220383 37.4794257,53.5037324 37.1371431,55.5051489 C37.0413507,56.0520924 36.9292035,56.5902143 36.9292035,57.1459796 C36.9292035,57.3356455 36.9420537,57.4999491 36.9513993,57.6719717 C37.0542009,57.7149773 37.1570025,57.7513667 37.2586359,57.7987832" id="Fill-1739" fill="#FFFFFF"></path>
                <path d="M84.7696605,62.3333333 C87.2819999,61.8865323 89.7818401,61.3690064 92.2782713,60.8380092 C92.4089448,59.4628049 92.2623633,57.9304345 91.7192162,56.3610177 C91.9328389,56.9728433 92.1532793,57.6149794 91.7180799,56.354282 C91.3328772,55.2473829 91.5158201,55.7750123 91.7158073,56.3475463 C89.2727817,49.3177266 82.6129803,56.1364945 84.6594403,62.0436985 C84.6958016,62.1436113 84.7321629,62.2367884 84.7696605,62.3333333" id="Fill-1741" fill="#FFFFFF"></path>
                <path d="M72.6128041,63.1025885 C75.3444166,63.5494014 78.1938993,63.0725787 80.9884522,62.4468184 C81.0067621,62.373461 81.0365158,62.3034381 81.0513926,62.2300808 C81.0788575,62.2912119 81.1074667,62.3512315 81.1337873,62.4145856 C81.1395091,62.4123627 81.1463753,62.4101397 81.1543859,62.4079168 C81.3203197,61.8799662 81.414158,61.3397894 81.4256018,60.7907208 C81.4587885,60.18719 81.3821157,59.5703214 81.3226084,58.9690135 C81.1131886,56.737172 79.0807865,54.9921565 77.1193354,54.7987599 C74.5158924,54.5431206 72.3038241,56.6549229 72.0085765,59.414715 C71.8781182,60.6151078 72.0394745,61.6721204 72.4720466,62.79471 C72.5132439,62.9025231 72.5670293,63.0003329 72.6128041,63.1025885" id="Fill-1743" fill="#FFFFFF"></path>
                <path d="M57.280868,59.7785334 C57.2728309,59.5965882 57.2705345,59.5056156 57.2682382,59.4453462 C57.2716827,59.5317702 57.2762753,59.6716406 57.280868,59.7762591 C57.2762753,59.6625433 57.2510159,59.5556505 57.2418306,59.4453462 C53.7158421,59.1838 50.222002,58.6698048 46.8716814,57.6111111 C46.9819044,59.4476205 47.5410566,62.6111928 47.4147594,62.3530581 C49.3735144,69.4068463 57.5552773,67.0142669 57.280868,59.7785334 C57.2854606,59.9070322 57.2877569,59.9763988 57.280868,59.7785334" id="Fill-1745" fill="#FFFFFF"></path>
                <path d="M44.9778761,97.8305375 C33.7880431,101.845049 21.710382,101.845049 10.8073505,99.2960991 C9.04540603,98.701983 7.37715767,97.8857779 5.83117134,96.8395923 C4.28861292,95.7934068 2.86945918,94.5172408 1.62741399,93.0088397 C-0.999505863,89.8206794 -0.302497984,84.606662 2.68663744,82.0035991 C4.07722529,80.7928197 6.11911558,80.1648829 8.07530818,80.2945287 C11.0095971,81.3519878 13.3428595,83.2696189 15.8372336,85.0857879 C22.5719294,88.886102 29.4745927,91.6627777 37.1245398,93.286169 C40.9215188,94.8295182 44.0500558,96.5182961 44.9778761,97.8305375" id="Fill-1747" fill="#FFB000"></path>
                <path d="M2.72564862,88.8251621 C4.98693362,86.1918678 7.74112269,83.822352 8.99557522,80.5907858 C8.75029121,80.4897643 8.50734323,80.3842529 8.25271506,80.294456 C6.25423436,80.1653729 4.16581619,80.7905839 2.74550494,81.9961074 C0.0894294794,84.2477648 -0.79476099,88.4614846 0.782064814,91.6111111 C1.32052163,90.642427 1.96293214,89.713029 2.72564862,88.8251621" id="Fill-1749" fill="#FFD41D"></path>
                <path d="M15.7398206,85.0269974 C14.8644502,84.3864892 14.0072929,83.7347045 13.1376141,83.1111111 C10.4739381,87.4943071 6.56379843,91.2933777 4.73451327,96.0238915 C5.07487187,96.2877628 5.41864543,96.5459958 5.77152558,96.7839311 C7.25020724,97.7897996 8.84613617,98.5791583 10.5274393,99.1666667 C11.7716264,96.7952077 12.189391,94.0719202 13.0408566,91.5290576 C13.5861134,89.905234 14.5275066,88.6298559 15.5781788,87.3747756 C16.1154672,86.7320121 16.4102929,86.1061635 16.5707965,85.4780595 C16.2930456,85.3269537 16.0141565,85.1837415 15.7398206,85.0269974" id="Fill-1751" fill="#FFD41D"></path>
                <path d="M21.055141,87.8333333 C20.4098747,89.556846 19.6090532,91.2297333 18.8024704,92.8924955 C18.7079849,93.2637483 18.615804,93.632751 18.5432116,94.0152538 C18.1387679,96.1865198 17.8242006,98.3679108 17.5176991,100.554927 C19.4661728,100.802429 21.4330827,100.976805 23.4161242,101.055556 C23.7030373,100.062173 23.8931604,99.0620409 23.9115966,98.0607835 C23.9715141,95.1863874 25.2827874,92.6044934 26.039823,89.9719741 C24.3552171,89.3217193 22.6982655,88.606214 21.055141,87.8333333" id="Fill-1753" fill="#FFD41D"></path>
                <path d="M59.3082547,109.485182 C58.0390276,105.713739 55.9316101,102.11253 54.6123417,98.2496845 C53.765053,95.7749958 51.3153081,91.637947 49.0486686,92.1223736 C46.0791774,92.7553272 43.5134279,98.8392225 44.1207463,102.016558 C45.119296,107.226429 46.656926,116.773289 52.534494,117.946653 C57.0120454,118.841242 60.8492967,114.064385 59.3082547,109.485182" id="Fill-1755" fill="#E59900"></path>
                <g id="Group-1759" transform="translate(70.544248, 92.083333)">
                    <mask id="mask-2" fill="white">
                        <use xlink:href="#path-1"></use>
                    </mask>
                    <g id="Clip-1758"></g>
                    <path d="M15.019053,7.79934541 C14.8868248,6.79094565 14.9477647,6.01516667 14.6384657,4.97176087 C12.6446946,-1.78779227 4.98005866,0.121730676 4.32466675,6.54703261 C3.21280013,9.06520894 2.19061871,11.6387174 1.35240695,14.3183732 C-0.0112681416,18.6749312 1.80658205,23.7259638 5.32155234,25.4017367 C7.02672111,26.2159094 8.94690442,26.1583188 10.6175789,25.2379988 C13.0632255,23.8953478 14.1015043,21.4008853 14.691357,18.3531014 C14.8741769,17.4090676 15.0259518,16.456 15.1489815,15.4916401 C15.4881756,12.8639287 15.3570972,10.4067307 15.019053,7.79934541" id="Fill-1757" fill="#E59900" mask="url(#mask-2)"></path>
                </g>
                <path d="M38.2352692,16.3462984 C38.0454199,15.5156456 37.8033897,15.1291921 37.3837228,14.2363514 C36.8363794,13.0669965 35.4175054,12.4373439 34.305055,12.2974211 C32.538679,12.0753214 30.9887979,13.769942 31.2841191,15.6933253 C31.4006932,16.4551273 31.7959351,17.1369733 32.3710343,17.5845042 C32.7651659,17.8887807 33.2037068,18.0664605 33.6844364,18.1186539 C33.3824538,18.1708473 33.441296,18.3052176 33.8554118,18.5151018 C34.1052136,19.1525279 34.3627869,19.9398713 34.3627869,20.5173305 C34.3661176,21.222497 34.5282112,21.8421551 35.0744444,22.285244 C36.2190915,23.2047367 37.6779337,22.3474319 37.9055309,20.9315464 C38.1120337,19.6666887 38.5594564,17.7777309 38.2352692,16.3462984" id="Fill-1760" fill="#E29700"></path>
                <path d="M99.7070922,13.6747812 C98.276031,10.7439774 95.1343685,10.7791379 92.9969797,12.5961455 C91.1586872,14.1602239 90.2498943,16.1711818 89.9692039,18.6528376 C89.7437312,20.6547218 92.4137417,21.5768361 93.4030605,19.9242892 C94.0334637,18.8672037 94.8272195,17.5401756 95.8050346,16.8165484 C95.8349443,16.7938641 96.0799732,16.6191955 96.1512962,16.6260008 C96.8369172,16.6895166 97.3557344,16.8029378 98.0735657,16.7053956 C99.3090639,16.5386664 100.337495,14.9621118 99.7070922,13.6747812" id="Fill-1762" fill="#E29700"></path>
                <path d="M65.7650732,0.223275285 C63.1794929,1.83365175 61.7791126,4.68446895 60.7692448,7.68094835 C60.3889789,8.81734466 60.6394534,10.0785943 61.6937235,10.6508386 C62.6056785,11.1421595 63.9946737,10.7606633 64.3783551,9.63004722 C65.2720938,6.99887935 66.744201,4.83822349 67.9772188,2.40936423 C68.7730447,0.84176158 67.0174459,-0.55821394 65.7650732,0.223275285" id="Fill-1764" fill="#FFC41D"></path>
                <path d="M72.0844149,5.37457949 C70.8350049,4.68783069 69.391879,6.12764282 68.5230232,6.95938441 C67.5991476,7.84620077 66.8196991,8.95106831 66.0803693,10.0087289 C65.5336092,10.7898916 65.870606,11.9824292 66.5973271,12.4736063 C67.4226254,13.031098 68.3522323,12.6939055 68.9093087,11.9206106 C69.5741324,11.0034469 70.3146084,10.1750772 71.0906181,9.36581513 C71.5537022,8.88025788 72.0259563,8.37559305 72.5039416,7.91026735 C73.2398326,7.18755135 72.9062745,5.82641749 72.0844149,5.37457949" id="Fill-1766" fill="#FFC41D"></path>
                <path d="M34.4866882,93.6026787 C34.0344421,91.1541406 33.706067,88.6791505 33.3741862,86.1995601 C33.075026,83.9499873 31.1538564,82.6837401 29.653381,83.242683 C27.9203552,83.8878826 27.2612678,86.120204 27.5113471,88.3778274 C27.750909,90.5652954 27.9378841,92.760814 28.1575799,94.9505822 C28.3959732,97.3381655 30.1079643,99.0046435 31.8117752,98.645816 C33.4080754,98.3065399 34.9202368,95.9362079 34.4866882,93.6026787" id="Fill-1768" fill="#FFD41D"></path>
                <path d="M45.8435493,87.3498126 C46.899249,88.4981881 49.0887226,88.7483293 50.0968988,87.3384425 C50.5574238,86.6880754 51.0394474,86.0570374 51.5271286,85.4373695 C52.495702,84.2071296 53.2187375,83.1042343 53.8048601,81.576099 C54.2303082,80.4675188 53.8161752,79.1178933 52.9483064,78.42432 C51.9831275,77.6522933 50.8889565,77.8319402 49.9407503,78.4868553 C48.3181637,79.6079426 47.0746332,81.1292559 45.8311027,82.7040084 C44.7606934,84.0604559 44.6237805,86.0217903 45.8435493,87.3498126" id="Fill-1770" fill="#FFD41D"></path>
                <path d="M62.1559593,94.9895804 C62.3716253,95.8478842 62.6484338,96.6861237 62.852983,97.5477715 C63.3198887,99.5073793 64.9129268,100.909647 66.8305755,100.51728 C69.0161392,100.069178 70.2245358,97.4106658 69.2640439,95.2381541 C68.4958727,93.502597 67.7032446,91.8027097 66.7672097,90.1674739 C66.0901963,88.9870275 64.6505702,88.4976829 63.4610721,88.9368669 C61.9047196,89.5109272 61.2655033,91.2554017 61.6645966,92.9040138 C61.8102267,93.6029182 61.9769788,94.297364 62.1559593,94.9895804" id="Fill-1772" fill="#FFD41D"></path>
                <path d="M86.1220592,79.8611412 C86.1275419,79.8564849 86.1121902,79.8157423 86.054073,79.6946787 C85.95648,79.4886378 85.8654664,79.2744484 85.7634872,79.0672434 C85.5529495,78.644685 85.368729,78.2058295 85.1779292,77.7716303 C84.619785,76.4818375 83.0517178,76.1640456 82.0428914,76.8601612 C80.9134444,77.6377619 80.6985205,79.1929633 81.2544716,80.4769357 C81.675547,81.4501007 82.0911396,82.5012585 82.8258284,83.2194915 C83.3017313,83.6827926 83.7260964,84.0261941 84.3774474,84.0541318 C84.9476536,84.0762492 85.5134737,83.8399424 85.9356456,83.3964306 C86.8512652,82.4395627 86.8359135,80.9390727 86.1220592,79.8611412" id="Fill-1774" fill="#FFD41D"></path>
                <path d="M95.4903696,87.2454529 C95.2404242,88.7893361 95.0833485,90.3399269 94.9342985,91.8983434 C94.8712389,92.5646391 94.8013,93.2286989 94.7279216,93.8938767 C94.5387427,95.6076876 95.0810554,96.5735928 95.9352265,98.0079173 C96.7733461,99.4120572 98.966674,99.5037288 100.076523,98.4796904 C102.853439,95.9184766 102.262972,91.7317695 102.698656,88.3309783 C103.332692,83.3807142 96.2837742,82.3544399 95.4903696,87.2454529" id="Fill-1776" fill="#FFD41D"></path>
                <path d="M105.910952,73.2187937 C105.898405,73.176198 105.884717,73.1359048 105.87103,73.0956116 C105.857342,73.0587721 105.851639,73.0207814 105.835671,72.9850931 C105.842514,73.0069666 105.847077,73.0299913 105.853921,73.0518647 C105.808296,72.9217753 105.759249,72.7893833 105.699936,72.6638988 C105.535687,72.2793866 105.387406,71.8971769 105.191219,71.5299332 C104.849032,70.8829396 104.536501,70.1898967 104.11447,69.6027673 C103.335425,68.5240609 102.395552,67.6560304 101.048476,68.1349438 C99.4561661,68.7059559 99.0523856,70.6020385 99.7607125,72.1055503 C99.5325879,71.6001585 99.5736503,71.7417603 99.8816185,72.5326581 C99.9933996,72.8480963 100.123431,73.1508708 100.247758,73.4559479 C100.601352,74.3297346 100.985742,75.0688269 101.485334,75.8746908 C103.097035,78.4799336 106.824591,75.9817556 105.910952,73.2187937" id="Fill-1778" fill="#FFD41D"></path>
                <path d="M30.7477435,71.0057186 C30.5729811,69.0866023 28.5694959,68.271957 27.2444999,69.5890415 C26.7796091,69.9762218 26.4060973,70.4361383 26.1239646,70.9799812 C26.1296758,70.9732671 25.9423487,71.2832351 25.8658188,71.4119222 C25.6522203,71.7509848 25.4294839,72.0810952 25.2056053,72.4089675 C24.9154769,72.8397895 24.5419651,73.2113036 24.3443579,73.7047906 C23.8040794,75.0520886 24.407181,76.6534038 25.6727806,77.2296982 C26.7727557,77.7310183 27.8487438,77.3091485 28.6311767,76.4351952 C28.4027291,76.7429252 28.5283753,76.6187142 29.0092575,76.0614431 C29.1851621,75.8644959 29.3496443,75.6675487 29.5106999,75.4515781 C30.4393393,74.1747783 30.8928077,72.5969626 30.7477435,71.0057186" id="Fill-1780" fill="#FFD41D"></path>
                <path d="M51.9956166,113.831862 C51.3555247,113.634895 50.9000124,114.590957 51.2594569,115.135381 C51.4602277,115.439683 51.6599192,115.736239 51.8347841,116.053819 C51.9956166,116.351482 52.0657785,116.693407 52.2287699,116.98775 C52.4500495,117.385002 52.78035,117.655001 53.2239887,117.566477 C53.7410276,117.462461 54.021675,116.933528 53.9666249,116.378039 C53.8489689,115.191815 53.0167414,114.145016 51.9956166,113.831862" id="Fill-1782" fill="#C17B00"></path>
                <path d="M55.7302061,112.127936 C55.1102213,111.567894 54.1460581,112.208261 54.5377494,113.032706 C54.7926964,113.568205 55.0291018,114.123785 55.2747781,114.665977 C55.5471078,115.269529 55.5320428,116.073893 56.1346448,116.44428 C56.5692135,116.709798 57.168339,116.753307 57.4916582,116.256855 C58.4256913,114.825511 56.7082755,113.005931 55.7302061,112.127936" id="Fill-1784" fill="#C17B00"></path>
                <path d="M60.0664676,111.530589 C60.0474084,111.474649 60.0104111,111.425558 59.9846251,111.367334 C59.9509912,111.280569 59.9128727,111.193804 59.8534528,111.107039 C59.734613,110.935792 59.6079253,110.779386 59.4711474,110.627547 C58.9834557,110.079558 58.4083158,109.733639 57.7333953,109.572667 C57.016993,109.40142 56.4541856,110.56019 57.0932299,111.055665 C57.6111921,111.457524 57.9912553,111.923315 58.3836509,112.466739 C59.0339065,113.369781 60.1415833,112.562637 60.0474084,111.642471 C60.1483101,111.895916 60.1550369,111.865091 60.0664676,111.530589" id="Fill-1786" fill="#C17B00"></path>
                <path d="M73.8245262,108.624836 C73.0652077,108.773259 72.573884,109.342402 72.1103255,109.928284 C71.5598498,110.625763 71.1325068,111.247357 71.0238603,112.162449 C70.9321143,112.949205 71.8845822,113.714758 72.5762984,113.123296 C73.2269704,112.565313 73.6506918,111.93814 74.1263221,111.233965 C74.5041706,110.67375 74.8675329,110.065548 74.796309,109.365838 C74.7540576,108.912755 74.2735985,108.533327 73.8245262,108.624836" id="Fill-1788" fill="#C17B00"></path>
                <path d="M75.5389122,112.142956 C74.3389328,113.102607 73.0552896,114.71806 73.4616571,116.412115 C73.6385465,117.152384 74.5851437,117.340091 75.050076,116.803953 C75.4887139,116.301837 75.6405041,115.689443 75.9715741,115.116937 C76.2727641,114.592531 76.6480565,114.124437 76.9791265,113.625841 C77.6436568,112.614569 76.4556295,111.407379 75.5389122,112.142956" id="Fill-1790" fill="#C17B00"></path>
                <path d="M78.8905497,114.85102 C78.3562443,113.835209 76.9623502,114.279697 76.8535102,115.324074 C76.8114583,115.701147 76.6803556,116.232477 76.7013815,116.703246 C76.7483806,117.653926 77.8800693,117.821895 78.4626106,117.267713 C79.0080474,116.750095 79.262832,115.560602 78.8905497,114.85102" id="Fill-1792" fill="#C17B00"></path>
                <path d="M27.0663886,105.828998 C26.1885356,105.700781 25.5765196,105.808574 24.8558059,106.205706 C24.3583952,106.480295 24.2213414,106.943237 24.1528146,107.482203 C24.0819247,108.044996 24.5769723,108.5885 25.1051019,108.607789 C25.8447197,108.63956 25.9250615,108.439859 26.3976607,108.163001 C26.6918537,107.989397 27.0155842,107.905432 27.3369516,107.798774 C28.3282284,107.477664 27.9773235,105.959484 27.0663886,105.828998" id="Fill-1794" fill="#C17B00"></path>
                <path d="M28.5440535,108.192131 C27.9355827,108.434033 27.4425713,108.573274 26.8849026,108.908396 C26.5304424,109.120797 26.1967649,109.413439 25.920817,109.734401 C24.8770645,110.94627 26.3595626,112.626601 27.5130015,111.596454 C28.1849749,110.99229 28.9192964,110.490787 29.5647142,109.848862 C30.2932627,109.120797 29.3603511,107.865269 28.5440535,108.192131" id="Fill-1796" fill="#C17B00"></path>
                <path d="M31.2123925,110.660331 C30.6035794,111.074204 30.2061445,111.586414 29.9199033,112.274763 C29.4255867,113.461273 31.0406477,114.385195 31.7485443,113.370502 C32.0843272,112.88963 32.3540545,112.374179 32.5830475,111.82739 C32.971675,110.901307 31.9445094,110.162169 31.2123925,110.660331" id="Fill-1798" fill="#C17B00"></path>
                <path d="M101.059361,109.107011 C100.872686,108.877415 100.687163,108.626626 100.475137,108.419401 C100.093721,108.048515 99.7468737,107.664678 99.3262786,107.345599 C98.5415516,106.756891 97.6611825,108.02379 98.1405458,108.812658 C98.4747173,109.36722 98.8042796,110.028927 99.2836429,110.455151 C99.6339468,110.762457 100.070674,111.063875 100.537362,110.946134 C100.883057,110.85665 101.165374,110.567006 101.273692,110.192588 C101.378553,109.81817 101.296738,109.39901 101.059361,109.107011" id="Fill-1800" fill="#C17B00"></path>
                <path d="M101.912326,105.545888 C101.472846,105.267501 101.03452,105.002318 100.531598,104.862574 C99.9640809,104.703024 99.4034848,105.221287 99.4254011,105.812172 C99.4357825,106.143376 99.6203409,106.450372 99.8994855,106.607721 C99.9340902,106.626427 100.17517,106.678143 100.398947,106.693548 C100.268602,106.729859 100.141718,106.76397 100.012527,106.801382 C100.157867,106.92352 100.305514,107.045658 100.456621,107.164495 C100.695394,107.359256 100.93532,107.555118 101.190241,107.731173 C101.614725,108.023865 102.070354,108.285747 102.587117,108.043671 C102.995453,107.852211 103.207695,107.537512 103.212309,107.065464 C103.221537,106.287521 102.43601,105.877092 101.912326,105.545888" id="Fill-1802" fill="#C17B00"></path>
                <path d="M102.997407,102.430278 C102.602899,101.97692 102.186103,101.663538 101.597685,101.567435 C101.041586,101.479688 100.545665,101.538186 100.014083,101.736661 C99.1058246,102.066756 99.2796753,103.5877 100.313864,103.487418 C100.952432,103.425786 101.536392,103.670224 102.14487,103.851985 C102.969546,104.097467 103.544591,103.061219 102.997407,102.430278" id="Fill-1804" fill="#C17B00"></path>
            </g>
        </g>
    </g>
</svg>