<?xml version="1.0" encoding="UTF-8"?>
<svg width="127px" height="139px" viewBox="0 0 127 139" version="1.1" xmlns="http://www.w3.org/2000/svg" xmlns:xlink="http://www.w3.org/1999/xlink">
    <title>Yellow Monster - Spaceship</title>
    <g id="Student-Environmrnt---New-Treatment" stroke="none" stroke-width="1" fill="none" fill-rule="evenodd">
        <g id="Avatars" transform="translate(-131.000000, -288.000000)">
            <g id="Yellow-Monster---Spaceship" transform="translate(131.000000, 288.000000)">
                <path d="M30.93385,105.610622 C27.9943997,110.794382 23.687737,118.717999 23.133829,125.690008 C28.0612312,128.945509 30.3822075,130.425283 35.222389,132.58689 C36.5239028,133.168555 37.8401421,133.724039 39.1631779,134.262449 C39.386327,133.964218 39.6253343,133.678507 39.8303595,133.370032 C43.545734,131.19818 44.3714987,123.725324 45.159883,119.988327 C45.3377226,119.148272 45.5019693,118.345779 45.6526232,117.558084 C46.1872747,115.673081 46.6188471,113.67994 46.4387421,111.903074 C46.4126892,111.650374 46.3753089,111.396536 46.3333976,111.139283 C46.366247,110.846743 46.3775743,110.557618 46.3945654,110.266217 C49.5854831,110.959434 52.6268796,112.061296 55.6830016,113.142668 C55.6365594,113.272433 55.5844536,113.40106 55.5391441,113.531963 C55.282013,113.982724 55.0441385,114.451699 54.8323168,114.944577 C53.9125351,115.182479 53.2804683,115.843824 53.4934227,117.213183 C53.5636523,117.671913 53.633882,118.137473 53.7052444,118.607585 C53.5036173,119.575129 53.3518307,120.567716 53.2589463,121.588759 C52.036724,126.890901 51.6391337,133.350681 53.7822704,138.386463 C54.4154699,138.470696 55.0452712,138.569727 55.6796034,138.63461 C56.389829,138.697216 62.3774721,138.870235 60.3170251,139 C64.7822709,138.72112 69.2520477,138.326134 73.6867096,137.702353 C74.595164,135.605628 74.9984181,133.086598 75.273673,131.352987 C75.8978106,127.428173 75.2838676,121.420293 73.1520582,116.573466 C75.0992316,116.631519 77.0498032,116.615583 78.9969766,116.518828 C79.0286932,116.51769 79.0615426,116.511998 79.0955247,116.509722 C79.1612234,119.140304 79.5984595,121.851704 79.7502461,123.439614 C79.986988,125.930187 81.0155124,128.305792 82.4495563,130.452602 C83.335356,132.226053 84.455632,133.859495 85.7662077,135.290322 C91.332473,133.802581 96.6438727,131.806025 101.505576,129.152678 C101.23825,126.815774 100.421548,124.487977 99.403218,122.300189 C99.0520698,121.544366 98.6556121,120.779437 98.2421634,120.014508 C97.9487848,119.105017 97.621424,118.211461 97.2680104,117.340671 C96.8024558,116.191001 96.1386724,115.31452 95.4137213,114.329902 C94.5800275,113.197306 93.9219078,110.910487 94.3772678,113.471633 C94.1813044,112.37091 92.5841465,110.648681 91.032298,109.743743 C89.78289,107.975983 87.6646735,106.393764 86.0743119,106.589549 C85.9678347,106.603209 85.8692867,106.614591 85.7628095,106.628251 C84.9211866,106.451816 84.0931565,106.48938 83.459957,106.907131 C76.8606363,107.698241 70.8639312,108.26397 64.1660625,107.763123 C62.5258606,106.929897 61.1688427,106.839972 60.0361066,107.26 C53.7437574,106.104639 48.0200417,102.791085 41.6812504,101.4388 C40.2902504,100.597605 38.7633221,100.232215 37.4108352,100.974378 C36.2044712,101.635723 35.1136463,102.608959 34.1292986,103.773427 C33.4972318,103.578779 32.8957489,103.554875 32.3826195,103.799607 C31.6621993,103.93734 31.1343443,104.448431 30.9587702,105.478581 C30.9531065,105.519559 30.9417791,105.568505 30.93385,105.610622" id="Fill-1" fill="#6E2FC9"></path>
                <path d="M119.967447,46.2011617 C114.498508,19.1532388 80.2529054,-0.750935196 55.9038587,2.77779521 C43.33529,4.59892892 28.2128082,9.91927341 19.3939155,19.3360334 C10.2320785,29.1195179 4.72793577,43.2151382 1.51993013,55.9006288 C0.865837651,58.4938142 3.40725946,59.7904069 6.39723428,59.9516295 C7.59186151,61.2584405 9.37585332,62.1440292 11.944529,62.3881338 C14.2497507,62.6083956 16.4788888,62.5073477 18.7761615,62.2587016 C22.1999268,61.8897063 25.723623,63.072762 29.0849315,63.4826306 C36.6853498,64.4079573 44.2971239,64.747433 51.9418298,65.0619305 C64.3570955,65.5751178 76.6077025,65.0721488 88.9423423,64.8064722 C90.917111,65.5751178 93.3222636,65.7147683 96.2293413,65.0062974 C96.6392846,64.9075202 97.0265165,64.7951185 97.4080704,64.6781754 C97.6783378,64.67704 97.946334,64.6724986 98.2143302,64.6713632 C104.256737,64.6395728 116.485768,66.0224537 120.303578,60.7543362 C123.370772,56.5205409 120.954264,51.0843887 119.967447,46.2011617" id="Fill-3" fill="#35338E"></path>
                <path d="M90.2085803,73.0745061 C89.3578789,71.3322923 87.4337551,69.7338479 85.8414165,68.7489707 C83.4351138,67.2716549 79.8853581,69.8096948 80.9151546,72.5741432 C81.3755207,73.8114659 81.9805405,74.7680421 82.753175,75.8015971 C82.7876163,75.8491429 82.8209096,75.8978208 82.856499,75.9442345 C82.8404264,75.93065 82.8909404,76.008761 83.0068929,76.1808315 C83.314569,76.6596856 83.6096167,77.1294833 83.999952,77.5573955 C85.1709581,78.8298115 87.1697048,79.1026339 88.6736439,78.2898271 C90.5931755,77.2483478 91.1281645,74.9593573 90.2085803,73.0745061" id="Fill-5" fill="#E59900"></path>
                <path d="M52.7812537,74.1844801 C52.4038206,71.8220036 49.641645,70.7284951 47.8394869,72.5385573 C46.1903422,74.193536 45.1226485,76.5209206 44.4777253,78.7260496 C44.0175516,80.3063165 45.2405255,82.0869468 46.6618502,82.7129409 C48.460608,83.5019423 50.9586938,82.7355808 51.6965586,80.8406188 C52.4922284,78.7996293 53.1258173,76.3398012 52.7812537,74.1844801" id="Fill-7" fill="#E59900"></path>
                <path d="M86.9296129,53.5126604 C85.1736226,49.8152997 82.0185046,44.9440838 78.2674827,41.6391424 C78.2187682,41.5756294 78.176851,41.5098482 78.1258706,41.4474694 C76.9442591,40.0683312 75.4069179,39.2041015 73.7143698,38.682388 C72.2461354,38.079015 70.7382495,37.8170241 69.2280979,38.0200387 C67.0914542,37.972404 64.960475,38.2230533 63.1478398,38.5315447 C62.6878837,38.6075335 62.233592,38.7005345 61.7793003,38.8026089 C56.4671464,39.4150552 51.0813543,42.516982 47.7313779,46.9356682 C47.4742103,47.0899139 47.2306375,47.2759161 46.9995265,47.5061506 C46.290333,48.2115979 45.8541676,49.1926461 45.7374793,50.2349388 C45.0702029,51.6832608 44.6238415,53.2177789 44.4391793,54.8078708 C44.1616196,55.1458504 43.9905521,55.6369416 43.9293757,56.2834126 C43.7730359,56.9729817 43.6268922,57.6670874 43.4909446,58.3623273 C43.0298555,60.6408542 42.8236683,63.0452728 43.0638424,65.3861785 C43.2417072,67.1066987 43.6540817,68.6763758 44.2839725,70.133771 C44.7665866,73.0360857 46.0671523,75.7455933 48.246846,77.2381475 C50.0164311,78.4539667 51.8936414,78.4619058 53.7991741,77.7326411 C53.8739453,77.7054213 53.9464507,77.6702623 54.0166903,77.6339692 C54.580873,77.7076896 55.1484544,77.7507877 55.7115042,77.7791416 C56.0898917,78.022986 56.4796083,78.2509521 56.8919828,78.4414909 C59.3503692,79.5767848 61.9435704,79.3907826 64.3962923,78.4460276 C64.9446144,78.236208 65.5382524,77.9220458 66.1488839,77.5307607 C66.6575546,77.5341631 67.1639596,77.5398339 67.6726303,77.5443706 C68.2821289,77.6952138 68.8825643,77.7439827 69.4195574,77.6759331 C69.6325421,77.6475791 69.8398622,77.6078835 70.0460495,77.561383 C74.4348923,77.561383 78.7908811,77.3220753 82.9055629,75.679812 C91.8486516,72.1117456 90.5911359,61.2158732 86.9296129,53.5126604" id="Fill-9" fill="#FFB000"></path>
                <path d="M89.1621852,48.7005695 C88.4159082,42.9466856 86.4917178,37.2337061 85.0366482,31.7377471 C83.4736694,25.8361529 81.1451036,21.3775746 75.9404751,18.5188124 C72.412414,16.5792626 68.4140962,16.5304046 64.5804819,16.6360743 C59.458773,16.7781034 54.6460252,17.5336983 50.203576,20.3595098 C46.4642402,22.7365092 44.5627674,27.2359919 43.4904913,31.6207151 C43.175851,32.9057946 42.9304996,34.2022364 42.7362632,35.5100406 C42.5454344,36.8132999 42.4068563,38.1301939 42.3046266,39.4539054 C41.5185874,46.6292167 42.5931416,52.8489562 42.6737895,59.7311195 C42.6737895,59.7311195 45.1488845,69.8470018 50.3955407,69.4754537 C52.1584354,69.3277434 53.9065635,68.5278353 55.4547758,67.4052371 C58.8919661,70.5832808 63.8183025,70.3117211 67.6575963,67.8051911 C68.2334904,67.4325067 68.7423672,66.9768773 69.2035368,66.4576188 C70.2076598,67.482501 71.6740883,67.9244956 73.0507818,67.4540951 C73.8822502,67.1700369 74.5967223,66.580332 75.0749302,65.8031486 C75.8212071,66.1133402 76.5731635,66.4064883 77.343294,66.6678219 C81.2075773,67.984716 85.3490167,66.2576418 87.4867537,62.7807688 C89.0372377,62.8330355 90.6388366,61.7377069 90.6468401,59.543641 C90.6536031,55.8724722 89.9936535,52.2672049 89.1621852,48.7005695" id="Fill-11" fill="#FFB000"></path>
                <path d="M49.6845722,20.8619234 C48.0391581,17.7315363 45.3094955,14.5161718 41.7733672,16.05036 C39.2184389,17.1550674 37.4486946,20.2969379 37.8183248,23.3584243 C38.4119732,28.2871188 42.9741051,31.3210449 47.0277156,31.7711959 C47.646006,31.8389482 48.1567677,31.6517681 48.5577604,31.3244899 C48.6249658,31.3554952 48.6832106,31.3876489 48.7537763,31.4129124 C50.7060955,32.1306277 52.4758398,29.9177679 52.4030339,27.9104618 C52.3246275,25.7056404 50.7004951,22.7899938 49.6845722,20.8619234" id="Fill-13" fill="#FFB000"></path>
                <path d="M73.7011022,25.8777174 C73.9742231,27.8415444 76.0996211,29.6795141 77.904692,28.6363728 C77.9710053,28.6000896 78.0238312,28.5570033 78.0845247,28.5161847 C78.5386024,28.76223 79.0747286,28.8540718 79.6726724,28.6783252 C83.6020174,27.5240666 87.58756,23.7664899 87.3301744,18.8705286 C87.1716968,15.8250093 84.8833255,13.0867632 82.1712233,12.4642799 C78.4127194,11.6002867 76.2727101,15.2093291 75.1802263,18.5428461 C74.5069776,20.5962472 73.4010063,23.721136 73.7011022,25.8777174" id="Fill-15" fill="#FFB000"></path>
                <path d="M76.609101,29.9351187 C72.9435169,14.0459772 45.7382216,19.4614667 49.4468504,35.5298389 C53.1124346,51.4235178 80.316597,46.0057596 76.609101,29.9351187 C75.8592195,26.68401 77.3623809,33.1884961 76.609101,29.9351187" id="Fill-17" fill="#E29700"></path>
                <path d="M72.6014534,30.2258382 C72.2324991,27.6631883 70.8528815,25.2099058 68.7840211,23.8629604 C68.0642207,23.4968676 67.3432885,23.1307747 66.6223562,22.7669843 C65.0005417,22.22245 63.3244026,22.1499222 61.5950707,22.555157 C59.066715,23.1561019 56.7647117,24.7943098 55.2458875,27.074907 C53.7259315,29.354353 53.0774321,32.1426451 53.4543087,34.7686129 C53.8243948,37.3301116 55.2028805,39.7856966 57.2706092,41.1337932 C57.9915414,41.4964324 58.7124736,41.8625252 59.4334058,42.2263156 C61.0552204,42.7720011 62.7302277,42.8422265 64.4618231,42.4381429 C66.989047,41.837198 69.2899186,40.2012926 70.8098746,37.9218466 C72.3298306,35.6412493 72.97833,32.8529573 72.6014534,30.2258382" id="Fill-19" fill="#FFFFFF"></path>
                <path d="M60.2449837,30.5934429 C59.9015336,31.304427 59.8650206,32.1487206 60.1491372,32.9134962 C60.4731898,33.7811774 61.1578081,34.4430475 62.0078758,34.8078946 C61.9565294,34.7891845 61.904042,34.7728131 61.8504136,34.754103 C62.0706325,34.8523311 62.315954,34.858178 62.5453011,34.9201552 C62.5852372,34.9306796 62.6434298,34.8768881 62.6810838,34.8862431 C62.6730966,34.8839044 62.6639683,34.8803962 62.6548401,34.8803962 C62.6765196,34.8874125 62.6765196,34.9575754 62.6970582,34.9622529 C62.7198788,34.9692692 62.7381353,35.0031813 62.7620969,35.0055201 C63.3166377,35.1353214 63.8540631,35.1446765 64.3903474,35.0008425 C65.2016201,34.7809988 65.8839563,34.2465913 66.2582143,33.5262522 C67.0090123,32.0762189 66.3540608,30.1549248 64.7725926,29.3726084 C64.6892974,29.33168 64.6071432,29.2919211 64.5227069,29.2545008 C62.8990206,28.5423474 60.9923587,29.0533672 60.2449837,30.5934429" id="Fill-21" fill="#000000"></path>
                <path d="M45.6312151,47.5008389 C51.5658069,49.9969647 57.957253,50.4403927 64.2257432,50.2464638 C70.8619729,50.0411941 77.8546615,49.1361925 84.0814145,46.6185192 C84.84171,46.3111815 84.5111958,44.8765614 83.6978826,45.0897697 C77.4530811,46.7251233 71.2466328,48.0134463 64.8044252,48.4058404 C58.6205375,48.7846255 51.9425706,48.6836918 46.0226432,46.3349974 C45.4101202,46.0923027 45.0186921,47.2434011 45.6312151,47.5008389" id="Fill-23" fill="#7F4E00"></path>
                <path d="M48.4086035,48.2857236 C49.7662009,48.7959686 51.1971819,49.0915588 52.6328973,49.337884 C52.9299827,48.3948105 52.9714089,47.5854564 52.6731399,46.5954638 C52.679058,46.6236152 52.6885268,46.6494207 52.6968121,46.6775722 C52.6861596,46.6494207 52.6802416,46.6271342 52.6719563,46.5942908 C52.6553858,46.5438528 52.6447334,46.5086635 52.6317137,46.4723012 C52.6435497,46.5098365 52.6565694,46.5508907 52.6719563,46.5942908 C52.3523824,45.5421305 51.723887,44.7128357 50.6266832,44.6037489 C49.3957318,44.4829323 48.2973445,45.4834816 48.2014723,46.8007348 C48.1742493,47.1620117 48.1363739,47.5174237 48.1683313,47.8787006 C48.1789837,48.0018632 48.1967378,48.1086041 48.2121247,48.2188639 C48.2772231,48.2411505 48.3446887,48.2599181 48.4086035,48.2857236" id="Fill-25" fill="#FFFFFF"></path>
                <path d="M77.8670318,48.3890785 C79.3024926,47.9815701 80.7271523,47.532525 82.1485717,47.0767442 C82.1539723,46.2291716 81.987636,45.3018935 81.5912371,44.3723701 C81.7456922,44.734974 81.9087882,45.1144171 81.5912371,44.366757 C81.3104095,43.7111512 81.4443427,44.0254828 81.5890769,44.3645118 C79.8069021,40.2018638 76.2933175,44.7203801 77.7892642,48.2184414 C77.8141066,48.2768172 77.8421894,48.32958 77.8670318,48.3890785" id="Fill-27" fill="#FFFFFF"></path>
                <path d="M70.431786,49.7880761 C72.0746349,49.9258084 73.7385887,49.4556188 75.3603328,48.8916288 C75.3658867,48.8417602 75.3803269,48.796641 75.3858808,48.7455851 C75.4058749,48.7835802 75.4269798,48.8227626 75.4458631,48.8619451 C75.4491955,48.8619451 75.451417,48.8583831 75.4569709,48.8571957 C75.5269503,48.5045535 75.5536091,48.1459746 75.5313934,47.7862084 C75.518064,47.392009 75.4391984,46.9930603 75.3736622,46.6047977 C75.1270682,45.1609833 73.8285622,44.1374898 72.6555747,44.1196796 C71.0982561,44.0983073 69.9019422,45.5979271 69.8741726,47.4145686 C69.8630648,48.205342 70.0152421,48.8868794 70.3318155,49.5945385 C70.3618066,49.6634046 70.3995733,49.722772 70.431786,49.7880761" id="Fill-29" fill="#FFFFFF"></path>
                <path d="M60.8578837,48.6829559 C60.8427534,48.5736894 60.8357702,48.5167797 60.8322786,48.4814957 C60.8392618,48.5327144 60.8497366,48.6180789 60.8578837,48.6829559 C60.8485727,48.6135261 60.8264593,48.5497873 60.8136568,48.4814957 C58.6174419,48.5099506 56.4282103,48.3836112 54.2936803,47.9146758 C54.4647686,49.0312428 54.9850166,50.9354393 54.8930712,50.7829214 C56.4945506,54.99082 61.4270141,53.0923145 60.8578837,48.6829559 C60.8671946,48.7614912 60.8730139,48.8036043 60.8578837,48.6829559" id="Fill-31" fill="#FFFFFF"></path>
                <path d="M55.2379182,72.7751603 C48.6589847,75.8170951 41.325576,76.4574432 34.5671138,75.4828536 C33.4660798,75.2138849 32.4070874,74.8042422 31.4128617,74.2460477 C30.418636,73.6923548 29.4880408,72.9889848 28.6517549,72.137063 C26.8837376,70.3308087 27.0234973,67.116689 28.6972052,65.3712059 C29.4755419,64.5597982 30.6833841,64.0691272 31.8775912,64.0443686 C33.7171928,64.5327888 35.2386422,65.5760272 36.849856,66.5528675 C41.1460472,68.5121751 45.4865526,69.8390124 50.2202032,70.4208401 C52.6097536,71.1613481 54.60275,72.0245238 55.2379182,72.7751603" id="Fill-33" fill="#FFB000"></path>
                <path d="M29.4515964,69.7593888 C30.5950114,67.9668763 32.0332215,66.3121596 32.5762082,64.1926742 C32.432062,64.1412927 32.2879159,64.0887435 32.1405183,64.0443686 C31.0014385,64.0700593 29.8504368,64.5792029 29.1069461,65.4211583 C27.7207587,66.9952996 27.4389692,69.7185172 28.4967635,71.6348123 C28.7492903,70.992544 29.0657615,70.3666243 29.4515964,69.7593888" id="Fill-35" fill="#FFD41D"></path>
                <path d="M36.7683532,66.5023439 C36.2031347,66.1566684 35.6469597,65.804215 35.0873933,65.4675768 C33.7071297,68.2928524 31.5423428,70.8255465 30.6877323,73.8180116 C30.909298,73.9592189 31.1319941,74.0992965 31.3592119,74.2246886 C32.3099095,74.7635357 33.3205202,75.1611754 34.3706962,75.4300341 C34.9980888,73.9117733 35.1043499,72.2240636 35.4819159,70.6233377 C35.7260903,69.6021265 36.2268739,68.7706979 36.7977446,67.9460473 C37.0893974,67.5246847 37.2329629,67.1259153 37.2973978,66.7350535 C37.1210496,66.6548478 36.943571,66.5836793 36.7683532,66.5023439" id="Fill-37" fill="#FFD41D"></path>
                <path d="M40.2042848,67.8395904 C39.9005275,68.93513 39.493163,70.0090993 39.0846212,71.0762569 C39.0457685,71.3101234 39.0092705,71.5417193 38.9869008,71.7812621 C38.8550371,73.1413205 38.7820412,74.5025142 38.7137546,75.8648431 C39.9440896,75.9170657 41.1803113,75.9193362 42.4224198,75.8614373 C42.5448646,75.2359012 42.6084417,74.6092299 42.5625249,73.9893703 C42.4400801,72.2149368 43.1099945,70.5563014 43.4349442,68.8931248 C42.3458918,68.5809244 41.2733223,68.2301247 40.2042848,67.8395904" id="Fill-39" fill="#FFD41D"></path>
                <path d="M64.3472109,78.8890566 C63.3922581,76.6534812 61.9459326,74.565344 60.9554053,72.2794796 C60.3195113,70.8119546 58.6408399,68.4175116 57.3145783,68.8369677 C55.5736515,69.3844322 54.3618954,73.2383997 54.891066,75.1459536 C55.7604176,78.2775879 57.1778389,84.026537 60.7475169,84.4231345 C63.4689656,84.7271545 65.5089405,81.6000919 64.3472109,78.8890566" id="Fill-41" fill="#E59900"></path>
                <path d="M80.2275127,71.4474304 C80.0928936,70.8356394 80.0883686,70.3534845 79.8462806,69.7291848 C78.2828899,65.6786283 73.7816369,67.2615521 73.7352556,71.2472906 C73.203567,72.8552319 72.728441,74.4927393 72.369834,76.1836932 C71.7849766,78.9356153 73.1492669,81.943398 75.3518151,82.7883064 C76.4185861,83.1988204 77.570201,83.0612243 78.5249779,82.4050841 C79.9209433,81.4487343 80.4096443,79.8601247 80.6019572,77.954248 C80.6596511,77.3640631 80.6981136,76.7704666 80.7218699,76.1711844 C80.7829576,74.5382256 80.5714134,73.0326285 80.2275127,71.4474304" id="Fill-43" fill="#E59900"></path>
                <path d="M47.0515993,23.1076807 C46.883364,22.6169626 46.7046139,22.3984998 46.3844994,21.8803367 C45.9685842,21.2018943 45.0199238,20.8999984 44.2979137,20.874749 C43.1506421,20.8352281 42.2487137,21.9407159 42.548967,23.0846268 C42.6657972,23.5391173 42.9578724,23.9299353 43.3527582,24.1692564 C43.6249723,24.3306334 43.9158793,24.4129687 44.228984,24.4206533 C44.0373826,24.4678588 44.081778,24.5479985 44.361002,24.651192 C44.5572766,25.0233473 44.7675708,25.4844246 44.8002832,25.833526 C44.8411737,26.2594736 44.9813698,26.6239443 45.3563945,26.8621676 C46.1438294,27.3550812 47.0329065,26.7622675 47.100668,25.895003 C47.1602513,25.1199539 47.3425063,23.9562825 47.0515993,23.1076807" id="Fill-45" fill="#E29700"></path>
                <path d="M83.875105,17.8900829 C82.8742545,16.1323789 81.0153726,16.3232819 79.8438084,17.5792836 C78.8384947,18.6583509 78.4066897,19.9713908 78.3721006,21.5393559 C78.3442062,22.8069981 79.9754699,23.2400218 80.4731057,22.1504781 C80.7922175,21.4497246 81.1905494,20.5778569 81.7328162,20.0703344 C81.7473213,20.0552018 81.8834459,19.9318133 81.9258454,19.9341414 C82.3375665,19.9353054 82.6499836,19.977211 83.0683994,19.8782674 C83.7914219,19.7071531 84.3169521,18.660679 83.875105,17.8900829" id="Fill-47" fill="#E29700"></path>
                <path d="M62.6641185,11.5625436 C61.1743515,12.6529907 60.4714813,14.4118124 60.015013,16.2378074 C59.8435536,16.9296927 60.0615683,17.6630016 60.7371867,17.9428905 C61.3162881,18.1880731 62.1429271,17.8869127 62.3166576,17.1983861 C62.7220286,15.594063 63.5032479,14.2394008 64.1243626,12.7391964 C64.5274626,11.7707809 63.3840211,11.0329938 62.6641185,11.5625436" id="Fill-49" fill="#FFC41D"></path>
                <path d="M66.902763,14.307386 C66.0784561,13.9595335 65.2517874,14.8992872 64.7522432,15.4425996 C64.2208133,16.0234579 63.7944884,16.7268928 63.3870588,17.4005118 C63.0882771,17.8963395 63.3681635,18.5942529 63.8523552,18.8537619 C64.4026804,19.1430868 64.969539,18.8902036 65.2777684,18.3998973 C65.6426836,17.8146218 66.0619228,17.2779352 66.504781,16.7533958 C66.7693151,16.4397765 67.0373919,16.1118014 67.3113736,15.8070164 C67.7317937,15.3354831 67.4460025,14.5359747 66.902763,14.307386" id="Fill-51" fill="#FFC41D"></path>
                <path d="M48.5265472,70.7211412 C48.1187,69.2493812 47.7840561,67.7522858 47.4482502,66.2540387 C47.1449791,64.8951367 45.9098177,64.2214438 45.0278915,64.6440854 C44.0100163,65.1312172 43.7323083,66.5315772 44.0065304,67.8973889 C44.2714568,69.2217425 44.5061724,70.5553091 44.7583173,71.8808143 C45.0325394,73.329542 46.1619626,74.2577412 47.1775139,73.946806 C48.1279956,73.6554482 48.9158032,72.1261076 48.5265472,70.7211412" id="Fill-53" fill="#FFD41D"></path>
                <path d="M55.4126348,65.941178 C56.1085887,66.5932056 57.4402697,66.6301346 57.972273,65.6999855 C58.2154107,65.27184 58.4719322,64.8552347 58.7329149,64.4432456 C59.2493038,63.6284996 59.6273942,62.9049221 59.9006453,61.9263037 C60.0980553,61.2142665 59.7768458,60.3995205 59.2180751,60.0186903 C58.5957317,59.5928528 57.9466208,59.7648034 57.4112717,60.2241078 C56.4922556,61.0065409 55.8264151,62.0186262 55.1605745,63.0618703 C54.5884201,63.9608606 54.609611,65.1864416 55.4126348,65.941178" id="Fill-55" fill="#FFD41D"></path>
                <path d="M65.6968311,69.8570687 C65.8734911,70.3670256 66.0868164,70.8658481 66.2590321,71.3802587 C66.6479064,72.5504873 67.6978669,73.3187629 68.8456015,72.9758225 C70.1555522,72.5838906 70.7499742,70.8992513 70.0477784,69.6232457 C69.4855774,68.6066723 68.9111546,67.6123677 68.2522905,66.6659411 C67.7767528,65.9822872 66.8712313,65.7618254 66.1668134,66.0947449 C65.2490702,66.5289877 64.9524147,67.6246155 65.2835133,68.6088991 C65.4101752,69.0297806 65.5501699,69.4428679 65.6968311,69.8570687" id="Fill-57" fill="#FFD41D"></path>
                <path d="M79.3595204,59.6513853 C79.361816,59.6492024 79.3503379,59.6262829 79.3067212,59.5597071 C79.2321135,59.4472921 79.1643927,59.3294202 79.0886372,59.2180966 C78.9302395,58.9856269 78.7890588,58.744426 78.6444347,58.5064992 C78.2185972,57.7970846 77.2004897,57.6999494 76.5921503,58.1517919 C75.911499,58.6571134 75.8575519,59.5597071 76.2810938,60.2647561 C76.6013328,60.8006369 76.9215718,61.3790827 77.4300517,61.7512525 C77.7594732,61.9902707 78.0487213,62.1648958 78.467672,62.1452505 C78.8315278,62.127788 79.1816099,61.9608027 79.4272412,61.6857681 C79.9609729,61.087677 79.8725915,60.2309224 79.3595204,59.6513853" id="Fill-59" fill="#FFD41D"></path>
                <path d="M85.555462,63.3876928 C85.4849755,64.36394 85.4755773,65.3401872 85.4697034,66.3198599 C85.4661791,66.738904 85.4626548,67.1556645 85.4544314,67.5747087 C85.4321107,68.6537188 85.8268348,69.2269072 86.4424166,70.0752717 C87.0462506,70.907651 88.423086,70.847135 89.0609885,70.1483476 C90.6528077,68.4025206 90.0454494,65.8243145 90.125334,63.6777124 C90.2428114,60.5571467 85.7751448,60.2945305 85.555462,63.3876928" id="Fill-61" fill="#FFD41D"></path>
                <path d="M90.9794872,54.1010278 C90.9692128,54.0754644 90.9589384,54.0543467 90.9475223,54.0298947 C90.9383895,54.0087771 90.9338231,53.986548 90.9201239,53.9665419 C90.9269735,53.9787679 90.9315399,53.9932168 90.9361063,54.0054428 C90.9007166,53.9298639 90.8641853,53.8553965 90.821946,53.7820405 C90.6986529,53.5664184 90.589059,53.3496848 90.4486419,53.1418429 C90.2043388,52.7795089 89.9783015,52.3871656 89.6883343,52.0637325 C89.1552058,51.4668816 88.5341738,51.0056282 87.7384766,51.3579591 C86.7932294,51.7792002 86.6493874,52.9184407 87.1619671,53.7664801 C86.9941515,53.4808364 87.027258,53.563084 87.2578618,54.0143344 C87.3423404,54.1932785 87.438235,54.3644424 87.5307049,54.5389407 C87.7932735,55.0335378 88.0683998,55.4503331 88.4165887,55.8971376 C89.5410676,57.3486966 91.6849978,55.6815155 90.9794872,54.1010278" id="Fill-63" fill="#FFD41D"></path>
                <path d="M45.2610749,56.6414594 C45.0551625,55.4975014 43.8274377,55.1136155 43.1122797,55.972684 C42.8587639,56.2278746 42.661708,56.5248637 42.523326,56.8647512 C42.523326,56.8647512 42.4314404,57.0572442 42.3938005,57.1375412 C42.285309,57.3520333 42.1701752,57.5621256 42.0561484,57.770018 C41.9055889,58.0439079 41.7063188,58.286999 41.6155402,58.5938878 C41.3675598,59.430957 41.809275,60.3604229 42.5886423,60.6398126 C43.2672675,60.8829037 43.8805764,60.5738151 44.2968293,60.0084358 C44.1783744,60.2053286 44.2459048,60.1250315 44.5005276,59.7642448 C44.5946273,59.6388494 44.6820848,59.5101541 44.766221,59.3726592 C45.2477903,58.559789 45.4315615,57.5874247 45.2610749,56.6414594" id="Fill-65" fill="#FFD41D"></path>
                <path d="M60.4570859,82.0800216 C60.0451567,81.9910729 59.8097686,82.6347807 60.0651425,82.967168 C60.2072636,83.1509174 60.3482744,83.3299852 60.4748511,83.5266087 C60.5925451,83.7080172 60.6547231,83.9268779 60.7724171,84.1071161 C60.9334137,84.3470435 61.155478,84.5050445 61.4297273,84.4207773 C61.7494998,84.3248063 61.8971726,83.9666707 61.8327739,83.6097055 C61.6928735,82.8513006 61.1143961,82.2251485 60.4570859,82.0800216" id="Fill-67" fill="#C17B00"></path>
                <path d="M62.6656652,80.7533061 C62.2228209,80.4386739 61.6231619,80.886855 61.9330275,81.374648 C62.1337502,81.694939 62.3244367,82.0276794 62.5201413,82.3491022 C62.7359181,82.7101369 62.7735536,83.2092476 63.1950712,83.4061756 C63.4986642,83.5476469 63.8976005,83.5431198 64.0795054,83.2205653 C64.6114204,82.281196 63.36694,81.2467579 62.6656652,80.7533061" id="Fill-69" fill="#C17B00"></path>
                <path d="M65.1051685,80.2734282 C65.0930474,80.2399283 65.0688053,80.2131284 65.0526439,80.1807453 C65.0304219,80.1293788 65.0041596,80.0802457 64.9677965,80.0322292 C64.8950701,79.933963 64.8172933,79.8468634 64.7364862,79.7631138 C64.4405302,79.4627318 64.1082111,79.2874159 63.7284178,79.2293495 C63.3264025,79.1645831 63.0718602,79.8859466 63.4476132,80.1483621 C63.7516498,80.3616445 63.9829601,80.61736 64.2243713,80.9233253 C64.6243663,81.4258231 65.1980966,80.8853588 65.1011281,80.3381946 C65.167794,80.4878272 65.1698142,80.4677273 65.1051685,80.2734282" id="Fill-71" fill="#C17B00"></path>
                <path d="M73.5477538,77.8175795 C73.1503435,77.9400563 72.9173789,78.2957717 72.7002263,78.6589422 C72.4430165,79.0924037 72.2458926,79.4736794 72.2342971,80.0147076 C72.225864,80.4758595 72.7729619,80.8763056 73.1134487,80.4982249 C73.4307444,80.1425095 73.6247059,79.7569737 73.8429126,79.3245772 C74.0147372,78.981642 74.1802369,78.6088864 74.1032848,78.2031153 C74.059011,77.9411213 73.7838808,77.7440934 73.5477538,77.8175795" id="Fill-73" fill="#C17B00"></path>
                <path d="M74.6272117,79.8746486 C74.0365725,80.534724 73.4313752,81.6046658 73.7287746,82.6340976 C73.8587568,83.0832825 74.3682871,83.147622 74.5908166,82.7913719 C74.8008679,82.4541853 74.8518209,82.0693399 75.0005206,81.6940262 C75.1346623,81.3532652 75.3124779,81.044674 75.4632573,80.7170192 C75.7689755,80.0533693 75.0805897,79.3694644 74.6272117,79.8746486" id="Fill-75" fill="#C17B00"></path>
                <path d="M77.2650774,81.4079776 C76.8776616,80.8572935 76.0455272,81.1730332 76.0405444,81.7715567 C76.0355615,81.9884285 75.9857331,82.2956634 76.0280873,82.5614376 C76.1127956,83.1004277 76.8166218,83.1440147 77.1442436,82.8006344 C77.4481968,82.4817054 77.5366423,81.7938818 77.2650774,81.4079776" id="Fill-77" fill="#C17B00"></path>
                <path d="M44.7066238,78.2828838 C44.1442311,78.2482965 43.7640047,78.3508657 43.3312069,78.6466464 C43.0341168,78.8482067 42.9742098,79.1547215 42.9632064,79.5053648 C42.9497579,79.8691275 43.2945291,80.1923395 43.6295195,80.1732569 C44.0989951,80.1529816 44.1381181,80.0205958 44.420537,79.8190356 C44.5953678,79.6926131 44.7970956,79.6186679 44.9927105,79.5339888 C45.6003391,79.2739879 45.2910231,78.3174711 44.7066238,78.2828838" id="Fill-79" fill="#C17B00"></path>
                <path d="M45.9560041,80.2228397 C45.6214893,80.3994383 45.3482842,80.5102453 45.0471133,80.739939 C44.8556546,80.8853732 44.6803301,81.0781313 44.5383496,81.2858944 C44.0059224,82.063852 44.9298718,82.988398 45.5375917,82.3108593 C45.8893163,81.9138008 46.2819141,81.5744544 46.6185801,81.1589281 C46.9982706,80.6822271 46.4045337,79.9827578 45.9560041,80.2228397" id="Fill-81" fill="#C17B00"></path>
                <path d="M47.5713705,80.7934684 C47.1774482,81.1213149 46.9343633,81.5050444 46.7797862,82.006749 C46.5092763,82.8685881 47.6835635,83.4187245 48.1098971,82.663684 C48.3118446,82.307275 48.4676683,81.9297548 48.5923272,81.5311231 C48.8017543,80.8580442 48.0475677,80.401046 47.5713705,80.7934684" id="Fill-83" fill="#C17B00"></path>
                <path d="M89.994482,76.5463876 C89.881121,76.4112872 89.7687906,76.2574228 89.645124,76.1360825 C89.418402,75.9159188 89.2102299,75.6882495 88.9639274,75.5056137 C88.5104833,75.1678626 88.0869254,76.0435137 88.3868168,76.5263727 C88.5949888,76.8678767 88.8083136,77.2781818 89.0886245,77.524615 C89.2947354,77.7047489 89.5472213,77.8748755 89.7966155,77.7697973 C89.9810848,77.6922396 90.1222708,77.488338 90.163493,77.238152 C90.2026541,76.9892169 90.1377291,76.7227688 89.994482,76.5463876" id="Fill-85" fill="#C17B00"></path>
                <path d="M90.719584,74.355552 C90.4384088,74.2125448 90.158372,74.0749546 89.8487378,74.0153683 C89.4981226,73.9481982 89.1884884,74.2883819 89.2351612,74.6415663 C89.2590668,74.8409096 89.3877016,75.015335 89.5641476,75.096589 C89.5869148,75.1063395 89.7349017,75.1247571 89.8703667,75.1225903 C89.7952348,75.1507584 89.720103,75.1789265 89.6415561,75.2070946 C89.7371784,75.2731812 89.8350775,75.3403512 89.9329765,75.4021043 C90.0866553,75.5061095 90.2426107,75.6133649 90.4053964,75.7065362 C90.6774647,75.8603773 90.96547,75.9968841 91.2659973,75.8235421 C91.5004997,75.6870353 91.6109207,75.4909421 91.5881535,75.2049278 C91.5483108,74.7369044 91.0519854,74.5299774 90.719584,74.355552" id="Fill-87" fill="#C17B00"></path>
                <path d="M90.9504824,72.1093418 C90.6818008,71.8453955 90.406374,71.6694313 90.0387637,71.6404616 C89.6902645,71.6147107 89.3901056,71.6769419 89.0730838,71.8282283 C88.532348,72.083591 88.7279572,73.0267163 89.3586282,72.9108374 C89.7498466,72.8389496 90.123078,72.9623391 90.5086754,73.0460294 C91.0302999,73.1565435 91.3248379,72.4762916 90.9504824,72.1093418" id="Fill-89" fill="#C17B00"></path>
                <path d="M115.369425,65.2870404 C100.415758,67.8531213 85.4779365,66.6531145 70.4382509,65.6828721 C56.0753964,64.7547152 41.5280545,64.5249508 27.1369044,64.0984082 C17.9329065,63.8265583 8.89075959,63.5808697 8.5093347,52.2018481 C8.21958759,43.4855904 12.2104012,33.3259123 17.9883659,27.4714717 C32.902419,12.3604859 53.9883118,-1.12167544 76.135856,6.34111548 C88.3505074,10.4563994 99.4820025,18.4037428 107.419489,28.3074953 C113.544924,35.9522778 119.706577,46.7489264 119.848055,57.0212118 C119.85145,57.2407391 119.840132,57.4511669 119.82655,57.6604571 C120.763701,60.9488169 119.707709,64.5420125 115.369425,65.2870404 M124.588136,49.8609819 C122.520293,40.7329683 117.85378,32.2032519 111.937733,25.0760079 C82.6981752,-9.96873957 31.2318459,-9.20664996 8.94395535,33.2189922 C5.86765602,39.8309727 3.3063369,46.6761298 2.44954566,53.0879195 C0.420184104,68.2648772 3.88130381,84.2835457 13.0705879,96.625985 C25.1562113,112.793659 48.9686695,122.877128 66.3795277,122.870307 C87.5321982,122.863479 105.415027,111.908725 116.024751,93.6708973 C116.874752,94.2054974 123.302384,76.0996133 123.850187,73.7132491 C125.653183,65.8512142 126.291532,57.7901261 124.588136,49.8609819" id="Fill-91" fill="#AC3AE8"></path>
                <path d="M124.582997,49.9393684 C122.504477,40.8104895 117.813871,32.2821648 111.86728,25.1539958 C99.691955,10.6383277 83.681551,2.28630207 67.5130112,0.47440273 C67.6973134,1.86545916 67.8645506,3.25196593 68.0192735,4.62709857 C70.6188452,4.95581101 73.2434457,5.53475436 75.8805605,6.41966189 C88.1582752,10.5359605 99.3472415,18.483067 107.325708,28.3865243 C113.482768,36.0299415 119.676234,46.8262683 119.818442,57.0993849 C119.821855,57.3177682 119.810479,57.5293271 119.795689,57.7374737 C120.738816,61.0268729 119.677372,64.618824 115.316689,65.3649671 C100.963868,67.8138179 86.6281115,66.8310928 72.2024793,65.8915895 C71.7280717,80.8064897 70.1239596,95.6417709 69.3150775,110.538473 C69.0943699,114.644534 68.8372569,118.773345 68.3935663,122.870307 C88.6349582,122.094591 105.702256,111.316463 115.975399,93.7468404 C116.829788,94.2825621 123.290606,76.1772177 123.841237,73.7909246 C125.653542,65.9291241 126.295187,57.8682763 124.582997,49.9393684" id="Fill-93" fill="#8A3CE5"></path>
                <path d="M125.469245,54.7933375 C125.408004,54.4736486 125.053031,54.2695918 124.775177,54.1970383 C124.548357,54.1358213 124.319269,54.0768715 124.090181,54.0156545 C123.553753,53.875082 122.179226,54.0303919 122.043134,54.7672636 C122.019318,54.8840295 122.01705,55.0053299 122.000038,55.124363 C113.874225,56.1514488 91.1446278,58.4924335 85.604558,58.5071709 C71.4328665,58.5479823 59.0428433,58.9277546 44.9029065,58.1670763 C38.4306079,57.8190461 31.5874592,56.0403512 25.1242334,55.2048521 C18.8923636,54.3976941 12.6355437,53.7515143 6.39573521,52.990836 C5.74816512,52.9126142 5.06203569,52.8763375 4.36002889,52.8706692 C4.2863125,52.5691186 4.17403678,52.2811719 3.95402172,52.0340364 C3.4527503,51.4694793 1.63932723,51.6406603 1.60417019,52.5611831 C1.55086757,53.875082 0.730914547,55.2490644 0.434914909,56.5266865 C-0.0527473304,58.6375406 0.0436510193,60.9241101 0.00849397411,63.0757755 C-0.0448086428,66.2307201 0.0935513414,70.7913891 2.18482848,73.3137576 C3.01725658,74.3159031 5.504334,73.2593425 5.55536842,72.4045713 C13.5689065,73.7422769 21.9124672,74.1254502 29.8602276,74.9428109 C44.4424627,76.4448956 59.0666594,77.4617785 73.7589019,77.3132705 C87.1049699,77.1817673 101.757519,76.4256235 114.781503,73.9089232 C116.15036,73.6436494 118.813222,73.0654885 121.778889,72.2061828 C121.732391,72.3456216 121.694966,72.4850604 121.645066,72.6244992 C121.18689,74.1458558 124.805797,73.5302845 125.267375,72.2639989 C127.28607,66.7238573 126.517152,60.4615814 125.469245,54.7933375" id="Fill-95" fill="#8E2CCE"></path>
                <path d="M114.127505,63.7500869 C114.103032,63.6937095 114.074108,63.6384375 114.030724,63.5787437 C113.595764,62.9917552 112.353181,62.739715 111.677937,62.6457526 C110.725698,62.5142053 109.627731,62.9243234 108.914664,63.5433697 C108.040296,64.3005959 108.003585,65.7111369 108.23942,66.7458285 C108.610971,68.3807738 110.086052,69.002031 111.656801,68.7245656 C113.005065,68.4868961 114.94959,67.3980379 115.182087,65.902378 C115.289993,65.1926857 114.800524,64.3691331 114.127505,63.7500869" id="Fill-97" fill="#F7B24D"></path>
                <path d="M89.9684611,65.696374 C89.7671272,65.5592158 89.5624562,65.4587119 89.3555606,65.3747616 C88.2721393,64.7871096 86.9095202,64.8568711 85.9551306,65.7330283 C85.3055228,66.3301395 85.0774927,67.2275798 85.0452348,68.1084666 C84.9206524,68.7327729 84.9651461,69.4020104 85.2977364,69.9317249 C85.7549091,70.6588999 86.5658065,70.7806869 87.3678052,70.6281575 C88.2921615,70.686095 89.2421017,70.3266459 89.9907079,69.7744659 C90.7593364,69.2045499 91.2042732,68.1782281 91.1052748,67.1932903 C91.0429836,66.5902671 90.416735,66.0002503 89.9684611,65.696374" id="Fill-99" fill="#F7B24D"></path>
                <path d="M61.7096794,65.7787258 C61.4867204,65.2471947 61.1661475,64.7643967 60.7058092,64.4402647 C60.035823,63.9676667 59.0042216,63.9450002 58.2610249,64.230599 C57.4601473,64.5388643 57.01312,65.0114624 56.5871685,65.737926 C55.9903927,66.7567884 56.0647123,68.286782 56.7335893,69.2886445 C57.1074062,70.1567742 57.9082838,70.7506383 58.9254649,70.680372 C59.5444258,70.6373055 60.1356554,70.445773 60.6370358,70.1329743 C61.106248,69.9165085 61.5244348,69.6105098 61.8217135,69.2025115 C62.514994,68.2471155 62.4905905,66.6751887 61.7096794,65.7787258" id="Fill-101" fill="#F7B24D"></path>
                <path d="M37.4123234,64.0910141 C36.9879249,63.4040669 36.1279004,63.157528 35.2880854,63.2404547 C35.2061249,63.2180421 35.1421283,63.1720962 35.054554,63.1552868 C32.5328635,62.6947072 30.7802549,64.976313 31.2304766,67.3049852 C31.7907275,70.1984558 35.7057474,69.5215944 37.0294665,67.6165208 C37.7188334,66.6225207 38.0870945,65.1802679 37.4123234,64.0910141" id="Fill-103" fill="#F7B24D"></path>
                <path d="M14.5361329,61.2782995 C14.1957766,61.1887834 13.8155793,61.1864583 13.4672549,61.2120343 C13.2953693,61.2248223 12.9163103,61.3062007 12.6135185,61.4584944 C12.0944467,61.6317139 11.6220459,61.9281635 11.2999027,62.3315674 C10.8320552,62.9198164 10.7899375,63.598744 10.9276737,64.3160357 C11.199731,65.7378311 12.0568823,66.9282796 13.4535951,67.2828566 C15.1986323,67.7281122 16.9732657,66.3039917 16.996032,64.5392448 C17.0153834,63.0488591 15.9112176,61.6410143 14.5361329,61.2782995" id="Fill-105" fill="#F7B24D"></path>
                <path d="M70.8101326,100.978664 C71.0554528,93.2968758 72.132525,85.6604682 72.2342007,77.9843526 C72.2458395,77.0948943 69.8825889,77.1141811 69.8931026,78.0104464 C70.103377,92.7806724 68.3359039,107.979744 67.0427163,122.689841 C66.9913159,123.265039 68.0403515,123.350128 68.4013226,123.34471 C68.7038841,123.341052 68.9655589,123.294536 69.2038698,123.196968 C69.7622652,123.073306 70.2482327,122.781737 70.2715965,122.335873 C70.3066423,121.726639 70.3229969,121.103792 70.3148196,120.492289 C70.3089786,120.008987 70.0648267,119.502994 70.1851504,119.025364 C70.2482327,118.772367 70.0823496,118.62715 69.8370294,118.548868 C71.7960859,113.345991 70.6512586,105.953504 70.8101326,100.978664" id="Fill-107" fill="#8A30C4"></path>
                <path d="M79.1207144,81.6409085 C78.6001908,80.6829829 76.5088012,81.193646 76.1393223,82.0397559 C75.8767367,82.6403326 75.1865782,83.8852899 75.7617103,84.4512845 C76.4634877,85.1452329 78.3178532,85.0841378 78.8476719,84.1423506 C79.2380646,83.4472494 79.5238879,82.3809664 79.1207144,81.6409085" id="Fill-109" fill="#8A30C4"></path>
                <path d="M78.3434941,91.7843271 C78.3209206,91.4273068 78.092929,91.1339588 78.0726129,90.7985417 C78.013922,89.8741546 76.0917948,89.9980884 75.7678661,90.6768819 C75.3829892,91.4830201 74.7170732,92.5529441 75.2904382,93.4341249 C75.8739612,94.3278127 77.8920255,93.917353 78.250943,92.996377 C78.415729,92.5756843 78.3739682,92.226623 78.3434941,91.7843271" id="Fill-111" fill="#8A30C4"></path>
                <path d="M77.4825134,99.4810405 C77.0339604,98.9369474 75.7175548,99.1164067 75.3177576,99.6387818 C74.8811226,100.206879 74.7001846,100.842416 74.6070069,101.552252 C74.5289977,102.140924 74.8345338,102.713594 75.2440822,103.086229 C75.6384622,103.445148 76.6634166,103.605175 77.0317935,103.096516 C77.7219584,102.140924 78.3373645,100.523505 77.4825134,99.4810405" id="Fill-113" fill="#8A30C4"></path>
                <path d="M76.2741874,109.595 C75.8939354,108.885305 74.3620002,109.052354 73.883407,109.496047 C73.2551169,110.082317 72.9579084,111.237834 73.3654775,112.00605 C73.6113301,112.467831 74.4734534,112.466767 74.9017833,112.40399 C75.4306397,112.327381 76.0294275,112.096491 76.2512412,111.584701 C76.513484,110.973959 76.5954349,110.196166 76.2741874,109.595" id="Fill-115" fill="#8A30C4"></path>
                <path d="M75.5201733,117.639631 C75.7673904,116.300917 73.5112656,116.609944 73.0232805,117.254555 C72.7588657,117.605831 72.5729154,118.002979 72.4804777,118.449619 C72.4063126,118.799689 72.1515715,119.403257 72.2612069,119.749705 C72.6051611,120.832506 74.2615157,120.58625 74.8881574,119.980268 C75.2374859,119.641062 75.4567567,119.289786 75.4933018,118.764682 C75.5180236,118.409784 75.4567567,117.983665 75.5201733,117.639631" id="Fill-117" fill="#8A30C4"></path>
            </g>
        </g>
    </g>
</svg>